<svg width="307" height="307" viewBox="0 0 307 307" fill="none" xmlns="http://www.w3.org/2000/svg">
<path d="M99.1641 249.042C66.7773 249.56 2.00391 229.92 2.00391 147.218C2.00391 113.736 2.00391 67.1887 2.00391 45.0529C2.00391 43.0333 3.21894 41.2308 5.0837 40.4552L96.3265 2.50402C97.5778 1.98357 98.9867 1.99333 100.231 2.53106L187.909 40.4324C189.74 41.2238 190.925 43.0275 190.925 45.022V141.853" stroke="#365976" stroke-width="4"/>
<path d="M94.4186 216.872C70.9802 217.247 28.1035 205.683 28.1035 150.181C28.1035 126.326 28.1035 81.0717 28.1035 63.1727C28.1035 61.1531 29.3185 59.3388 31.1833 58.5632L95.8241 31.6768C97.0754 31.1563 98.4843 31.1661 99.7283 31.7038L161.81 58.5404C163.641 59.3318 164.826 61.1355 164.826 63.13V132.299" stroke="#365976" stroke-width="4"/>
<line x1="97.4648" y1="30.8624" x2="97.4648" y2="163.684" stroke="#365976" stroke-width="4"/>
<path d="M274.609 160.175C274.609 177.832 260.295 192.146 242.638 192.146C224.98 192.146 210.666 177.832 210.666 160.175" stroke="#1BBCAC" stroke-width="4"/>
<path d="M210.666 160.175C210.666 177.832 196.352 192.146 178.694 192.146C161.037 192.146 146.723 177.832 146.723 160.175" stroke="#1BBCAC" stroke-width="4"/>
<path d="M146.723 160.175C146.723 177.832 132.408 192.146 114.751 192.146" stroke="#1BBCAC" stroke-width="4"/>
<path d="M274.609 160.175C274.609 177.832 288.924 192.146 306.581 192.146" stroke="#1BBCAC" stroke-width="4"/>
<path d="M274.609 216.08C274.609 233.737 260.295 248.052 242.638 248.052C224.98 248.052 210.666 233.737 210.666 216.08" stroke="#1BBCAC" stroke-width="4"/>
<path d="M210.666 216.08C210.666 233.737 196.352 248.052 178.694 248.052C161.037 248.052 146.723 233.737 146.723 216.08" stroke="#1BBCAC" stroke-width="4"/>
<path d="M146.723 216.08C146.723 233.737 132.408 248.052 114.751 248.052" stroke="#1BBCAC" stroke-width="4"/>
<path d="M274.609 216.08C274.609 233.737 288.924 248.052 306.581 248.052" stroke="#1BBCAC" stroke-width="4"/>
<path d="M274.609 272.984C274.609 290.642 260.295 304.956 242.638 304.956C224.98 304.956 210.666 290.642 210.666 272.984" stroke="#1BBCAC" stroke-width="4"/>
<path d="M210.666 272.984C210.666 290.642 196.352 304.956 178.694 304.956C161.037 304.956 146.723 290.642 146.723 272.984" stroke="#1BBCAC" stroke-width="4"/>
<path d="M146.723 272.984C146.723 290.642 132.408 304.956 114.751 304.956" stroke="#1BBCAC" stroke-width="4"/>
<path d="M274.609 272.984C274.609 290.642 288.924 304.956 306.581 304.956" stroke="#1BBCAC" stroke-width="4"/>
</svg>
