<svg width="100%" height="100%" viewBox="0 0 754 579" version="1.1" xmlns="http://www.w3.org/2000/svg" xmlns:xlink="http://www.w3.org/1999/xlink" xml:space="preserve" xmlns:serif="http://www.serif.com/" style="fill-rule:evenodd;clip-rule:evenodd;stroke-linejoin:round;stroke-miterlimit:2;">
    <g id="Artboard1" transform="matrix(0.430625,0,0,0.424091,-5.29977,-11.3663)">
        <rect x="12.307" y="26.801" width="1749.42" height="1364.83" style="fill:none;"/>
        <clipPath id="_clip1">
            <rect x="12.307" y="26.801" width="1749.42" height="1364.83"/>
        </clipPath>
        <g clip-path="url(#_clip1)">
            <g transform="matrix(2.32221,0,0,2.35798,-245.038,110.569)">
                <g transform="matrix(1,-0,-0,1,110.819,-35.5249)">
                </g>
            </g>
            <g transform="matrix(9.67586,0,0,9.82493,-1158.08,-345.76)">
                <path d="M287.321,146.037C283.733,145.68 277.364,144.794 269.396,148.811C261.432,152.828 258.295,153.001 254.386,152.584C255.536,154.687 257.864,157.572 265.188,158.087C272.508,158.603 276.009,158.829 272.157,167.953C272.246,165.197 271.603,159.869 264.333,160.804C257.068,161.74 255.369,168.282 263.165,171.547C260.63,172.056 255.257,172.36 251.418,162.319C248.758,163.474 244.66,165.791 237.228,160.05C239.816,160.989 243.02,161.047 243.02,161.047C236.421,157.898 230.121,152.041 226.082,146.506C229.282,148.89 232.816,151.265 236.386,151.71C232.167,146.561 222.404,136.263 210.461,125.682C218.141,130.695 227.406,138.624 242.57,136.842C257.737,135.059 267.931,131.584 287.321,146.037Z" style="fill:rgb(237,70,41);fill-rule:nonzero;"/>
                <path d="M222.412,142.461C212.9,138.34 210.864,137.513 198.638,134.405C186.41,131.299 174.382,124.834 166.342,114.744C172.013,118.897 183.589,127.253 195.478,126.348C193.67,123.702 190.338,121.641 186.353,119.562C190.858,120.641 204.458,124.119 222.412,142.461Z" style="fill:rgb(237,70,41);fill-rule:nonzero;"/>
                <path d="M201.708,107.264C199.255,100.23 194.833,91.223 173.853,77.841C163.635,71.099 148.635,62.631 128.884,41.038C130.296,46.858 136.537,61.994 167.982,81.644C178.313,88.692 191.645,93.042 201.708,107.264Z" style="fill:rgb(237,70,41);fill-rule:nonzero;"/>
                <path d="M203.005,117.461C200.423,111.506 195.237,103.868 174.913,92.963C165.543,87.713 149.531,79.637 135.132,64.281C136.439,69.825 143.123,82.003 171.883,97.212C179.848,101.601 193.313,105.716 203.005,117.461Z" style="fill:rgb(237,70,41);fill-rule:nonzero;"/>
                <path d="M222.716,86.686C183.1,75.351 167.346,61.045 155.159,46.067C160.723,63.305 173.998,69.473 188.176,81.047C202.356,92.622 203.163,98.84 207.339,105.679C216.644,120.912 218.124,123.429 227.359,130.08C238.242,137.3 251.406,132.414 265.846,134.678C280.284,136.941 292.219,147.947 294.815,152.182C297.842,146.782 290.611,139.001 288.658,137.048C289.7,129.974 272.974,126.866 266.64,124.445C265.397,123.97 262.318,123.257 264.988,116.909C268.588,108.149 272.338,100.525 222.716,86.686ZM279.89,133.165C287.402,134.3 287.023,135.893 287.104,138.639C283.908,135.148 279.89,133.165 279.89,133.165Z" style="fill:rgb(237,70,41);fill-rule:nonzero;"/>
            </g>
        </g>
    </g>
</svg>