<svg width="19" height="19" viewBox="0 0 19 19" fill="none" xmlns="http://www.w3.org/2000/svg">
<g clip-path="url(#clip0_105_5)">
<path d="M17.9467 8.2417L10.196 0.491298C9.74997 0.044954 9.02603 0.044954 8.57927 0.491298L6.96996 2.10089L9.01155 4.14249C9.48616 3.98231 10.0301 4.08975 10.4082 4.46789C10.7883 4.84842 10.8949 5.397 10.7308 5.87316L12.6985 7.84092C13.1745 7.67681 13.7239 7.78284 14.1039 8.16366C14.6354 8.6948 14.6354 9.55584 14.1039 10.0873C13.9775 10.2136 13.8276 10.3139 13.6625 10.3823C13.4974 10.4507 13.3205 10.4859 13.1418 10.4859C12.9631 10.4859 12.7862 10.4507 12.6211 10.3823C12.456 10.3139 12.306 10.2136 12.1797 10.0873C11.9899 9.89736 11.8605 9.65556 11.8079 9.39229C11.7552 9.12902 11.7816 8.85606 11.8837 8.60775L10.0488 6.77288L10.0485 11.6021C10.1816 11.6676 10.3032 11.7545 10.4084 11.8591C10.9397 12.3903 10.9397 13.251 10.4084 13.7833C9.87696 14.3145 9.01563 14.3145 8.48477 13.7833C7.95349 13.2512 7.95349 12.3904 8.48477 11.8591C8.61205 11.7317 8.76345 11.6308 8.93013 11.5624V6.6885C8.76332 6.62033 8.61188 6.51938 8.48477 6.39164C8.0823 5.98945 7.98541 5.39883 8.19185 4.90439L6.17908 2.89163L0.864581 8.20584C0.650172 8.42032 0.529724 8.71117 0.529724 9.01444C0.529724 9.31771 0.650172 9.60856 0.864581 9.82303L8.61541 17.5734C9.06175 18.0198 9.78541 18.0198 10.2325 17.5734L17.9469 9.85903C18.1612 9.6445 18.2816 9.35362 18.2816 9.05034C18.2816 8.74706 18.1611 8.4562 17.9467 8.2417V8.2417Z" fill="#F34F29"/>
</g>
<defs>
<clipPath id="clip0_105_5">
<rect width="18" height="18" fill="white" transform="translate(0.405579 0.0323029)"/>
</clipPath>
</defs>
</svg>
