<?xml version="1.0" encoding="UTF-8" standalone="no"?>
<!DOCTYPE svg PUBLIC "-//W3C//DTD SVG 1.1//EN" "http://www.w3.org/Graphics/SVG/1.1/DTD/svg11.dtd">
<svg width="100%" height="100%" viewBox="0 0 62 47" version="1.1" xmlns="http://www.w3.org/2000/svg" xmlns:xlink="http://www.w3.org/1999/xlink" xml:space="preserve" xmlns:serif="http://www.serif.com/" style="fill-rule:evenodd;clip-rule:evenodd;stroke-linecap:round;stroke-linejoin:round;stroke-miterlimit:1.5;">
    <g id="Artboard1" transform="matrix(1.02159,0,0,1.03995,-11.4083,-32.2625)">
        <rect x="11.167" y="31.023" width="60.458" height="44.58" style="fill:none;"/>
        <g transform="matrix(0.763631,0,0,1.08755,6.7041,11.0807)">
            <path d="M80.005,30.133C80.005,25.391 74.424,21.542 67.55,21.542L23.946,21.542C17.073,21.542 11.492,25.391 11.492,30.133L11.492,47.314C11.492,52.055 17.073,55.905 23.946,55.905L67.55,55.905C74.424,55.905 80.005,52.055 80.005,47.314L80.005,30.133Z" style="fill:none;stroke:rgb(55,138,169);stroke-width:3.09px;"/>
        </g>
        <g transform="matrix(0.978869,0,0,0.961585,5.06829,15.7)">
            <g transform="matrix(34.3372,0,0,34.3372,18.4355,48.787)">
                <path d="M0.162,-0.444C0.162,-0.441 0.161,-0.438 0.16,-0.435C0.158,-0.432 0.155,-0.43 0.152,-0.429C0.148,-0.427 0.144,-0.426 0.138,-0.425C0.132,-0.424 0.125,-0.424 0.117,-0.424C0.108,-0.424 0.101,-0.424 0.095,-0.425C0.089,-0.426 0.085,-0.428 0.081,-0.429C0.077,-0.431 0.075,-0.433 0.073,-0.436C0.072,-0.438 0.071,-0.441 0.071,-0.444L0.06,-0.663C0.059,-0.666 0.06,-0.669 0.062,-0.671C0.064,-0.674 0.068,-0.676 0.072,-0.678C0.077,-0.68 0.083,-0.681 0.09,-0.682C0.097,-0.683 0.106,-0.683 0.117,-0.683C0.127,-0.683 0.136,-0.683 0.144,-0.682C0.151,-0.681 0.157,-0.68 0.161,-0.678C0.166,-0.677 0.169,-0.674 0.171,-0.672C0.173,-0.669 0.174,-0.666 0.173,-0.663L0.162,-0.444Z" style="fill:rgb(55,138,169);fill-rule:nonzero;"/>
            </g>
            <g transform="matrix(34.3372,0,0,34.3372,26.4497,48.787)">
                <path d="M0.216,-0.386C0.216,-0.372 0.215,-0.361 0.212,-0.352C0.21,-0.342 0.206,-0.335 0.201,-0.329C0.196,-0.323 0.188,-0.319 0.18,-0.317C0.171,-0.314 0.16,-0.313 0.146,-0.313C0.133,-0.313 0.122,-0.314 0.113,-0.317C0.104,-0.319 0.097,-0.323 0.092,-0.329C0.087,-0.335 0.083,-0.342 0.081,-0.352C0.079,-0.361 0.078,-0.372 0.078,-0.386C0.078,-0.4 0.079,-0.411 0.081,-0.421C0.083,-0.43 0.087,-0.438 0.092,-0.444C0.097,-0.45 0.104,-0.454 0.113,-0.457C0.122,-0.459 0.133,-0.46 0.146,-0.46C0.16,-0.46 0.171,-0.459 0.18,-0.457C0.188,-0.454 0.196,-0.45 0.201,-0.444C0.206,-0.438 0.21,-0.43 0.212,-0.421C0.215,-0.411 0.216,-0.4 0.216,-0.386ZM0.216,-0.09C0.216,-0.077 0.215,-0.065 0.214,-0.054C0.213,-0.044 0.211,-0.034 0.208,-0.024C0.205,-0.015 0.201,-0.006 0.197,0.003C0.192,0.012 0.187,0.021 0.18,0.031L0.117,0.123C0.114,0.126 0.112,0.129 0.109,0.131C0.106,0.133 0.103,0.135 0.099,0.136C0.095,0.138 0.091,0.139 0.085,0.14C0.08,0.14 0.073,0.141 0.065,0.141C0.056,0.141 0.049,0.14 0.043,0.14C0.037,0.139 0.033,0.138 0.031,0.136C0.028,0.134 0.027,0.132 0.027,0.129C0.026,0.127 0.027,0.124 0.029,0.12L0.086,-0.013L0.086,-0.09C0.086,-0.101 0.087,-0.11 0.09,-0.117C0.092,-0.124 0.096,-0.129 0.102,-0.132C0.107,-0.136 0.114,-0.138 0.123,-0.139C0.131,-0.141 0.141,-0.141 0.152,-0.141C0.163,-0.141 0.173,-0.141 0.181,-0.139C0.189,-0.138 0.195,-0.136 0.201,-0.132C0.206,-0.129 0.21,-0.124 0.212,-0.117C0.215,-0.11 0.216,-0.101 0.216,-0.09Z" style="fill:rgb(55,138,169);fill-rule:nonzero;"/>
            </g>
            <g transform="matrix(34.3372,0,0,34.3372,35.9226,48.787)">
                <path d="M0.277,-0.246C0.277,-0.227 0.276,-0.214 0.272,-0.206C0.268,-0.199 0.263,-0.195 0.255,-0.195L0.052,-0.195C0.044,-0.195 0.038,-0.199 0.034,-0.206C0.031,-0.214 0.029,-0.227 0.029,-0.246C0.029,-0.264 0.031,-0.277 0.034,-0.284C0.038,-0.292 0.044,-0.295 0.052,-0.295L0.255,-0.295C0.259,-0.295 0.262,-0.295 0.265,-0.293C0.268,-0.291 0.27,-0.289 0.272,-0.285C0.274,-0.281 0.275,-0.276 0.276,-0.269C0.277,-0.263 0.277,-0.255 0.277,-0.246Z" style="fill:rgb(55,138,169);fill-rule:nonzero;"/>
            </g>
            <g transform="matrix(34.3372,0,0,34.3372,46.4351,48.787)">
                <path d="M0.277,-0.246C0.277,-0.227 0.276,-0.214 0.272,-0.206C0.268,-0.199 0.263,-0.195 0.255,-0.195L0.052,-0.195C0.044,-0.195 0.038,-0.199 0.034,-0.206C0.031,-0.214 0.029,-0.227 0.029,-0.246C0.029,-0.264 0.031,-0.277 0.034,-0.284C0.038,-0.292 0.044,-0.295 0.052,-0.295L0.255,-0.295C0.259,-0.295 0.262,-0.295 0.265,-0.293C0.268,-0.291 0.27,-0.289 0.272,-0.285C0.274,-0.281 0.275,-0.276 0.276,-0.269C0.277,-0.263 0.277,-0.255 0.277,-0.246Z" style="fill:rgb(55,138,169);fill-rule:nonzero;"/>
            </g>
        </g>
    </g>
</svg>
