<?xml version="1.0" encoding="UTF-8"?>
<!-- Generator: Adobe Illustrator 26.5.0, SVG Export Plug-In . SVG Version: 6.00 Build 0)  -->
<svg version="1.1" id="Layer_1" xmlns="http://www.w3.org/2000/svg" xmlns:xlink="http://www.w3.org/1999/xlink" x="0px" y="0px" viewBox="0 0 26.3 32.1" style="enable-background:new 0 0 26.3 32.1;" xml:space="preserve">
<style type="text/css">
	.st0{fill-rule:evenodd;clip-rule:evenodd;fill:#0095E5;}
</style>
<g>
	<g>
		<path class="st0" d="M14.6,23.7l2,2.3l2.3-2L21,22c2.4-2.1,3.8-5,4.1-8.2c0.2-3.2-0.8-6.3-2.9-8.7C21.2,4,20,3,18.6,2.3    c-1.4-0.7-2.9-1.1-4.5-1.2C12.6,1,11,1.2,9.5,1.7C8.1,2.2,6.7,2.9,5.5,4C3.1,6,1.7,9,1.5,12.1c-0.2,3.2,0.8,6.3,2.8,8.7l7.8,9.1    c0.7,0.8,1.4,1.7,2.6,0.8l0,0l0,0c1.1-1,0.3-1.9-0.4-2.7l-0.5-0.6l-7.3-8.5c-1.5-1.8-2.3-4.1-2.1-6.5c0.2-2.4,1.3-4.6,3-6.1    c0.9-0.8,1.9-1.3,3-1.7c1.1-0.4,2.3-0.5,3.4-0.4c2.4,0.2,4.5,1.3,6.1,3.1c1.5,1.8,2.3,4.1,2.1,6.5c-0.2,2.4-1.3,4.6-3,6.1    l-2.2,1.9l-2-2.3l-2-2.3l-1.9-2.2c-0.5-0.6-0.7-1.4-0.7-2.1c0.1-0.8,0.4-1.5,1-2c0.6-0.5,1.3-0.8,2.1-0.7c0.8,0.1,1.5,0.4,2,1    c0.4,0.5,0.7,1.2,0.7,1.8c0,0.7-0.2,1.3-0.6,1.9c-0.2,0.3-0.3,0.6-0.3,1c0,0.3,0.1,0.7,0.4,0.9c1,1.1,2.1,0.4,2.6-0.6    c0.6-1.1,0.9-2.3,0.8-3.6c-0.1-1.3-0.6-2.4-1.4-3.4c-1-1.2-2.5-1.9-4-2C12.1,7,10.6,7.5,9.4,8.5c-1.2,1-1.9,2.5-2,4.1    c-0.1,1.6,0.4,3.1,1.4,4.3l1.9,2.2l2,2.3L14.6,23.7L14.6,23.7L14.6,23.7z"/>
	</g>
</g>
</svg>