<?xml version="1.0" encoding="utf-8"?>
<!-- Generator: Adobe Illustrator 25.1.0, SVG Export Plug-In . SVG Version: 6.00 Build 0)  -->
<svg version="1.1" id="Layer_1" xmlns="http://www.w3.org/2000/svg" xmlns:xlink="http://www.w3.org/1999/xlink" x="0px" y="0px"
	 viewBox="-311.3 230.4 75.3 74.8" style="enable-background:new -311.3 230.4 75.3 74.8;" xml:space="preserve">
<style type="text/css">
	.st0{fill:#EF8F36;}
</style>
<g>
	<g>
		<g>
			<path class="st0" d="M-287.3,234.2L-287.3,234.2c0,0,0.1,0,0.1,0C-287.2,234.2-287.3,234.2-287.3,234.2z"/>
			<path class="st0" d="M-293.7,248.5c0-3,2.3-5.5,5.2-5.9l1.2-8.4c-9,3.7-16.1,10.9-19.8,19.9l13.4-5
				C-293.7,248.9-293.7,248.7-293.7,248.5z"/>
		</g>
		<g>
			<path class="st0" d="M-285.2,272.8l-24.3-1.3c0.9,7.9,4.3,15,9.4,20.5c0.9-2.1,3-3.6,5.5-3.6c0.6,0,1.2,0.1,1.8,0.3l8.8-14
				C-284.5,274.1-284.9,273.5-285.2,272.8z"/>
			<path class="st0" d="M-283.3,265.8l-4.1-11.3c-0.1,0-0.1,0-0.2,0c-1.7,0-3.2-0.7-4.3-1.8l-16.7,6.2c-0.7,2.7-1,5.6-1,8.5
				l24.3,1.3C-285,267.6-284.3,266.6-283.3,265.8z"/>
		</g>
		<path class="st0" d="M-279.7,276.5c-0.3,0-0.5,0-0.8-0.1l-9.2,14.7c0.6,1,1,2.1,1,3.3c0,1.9-0.9,3.5-2.2,4.6
			c5.3,2.9,11.2,4.4,17.2,4.4c0.8,0,1.6,0,2.4-0.1L-279.7,276.5z"/>
		<g>
			<path class="st0" d="M-261.7,238.5c0-1.7,0.7-3.2,1.8-4.3c-4.2-1.8-8.9-2.8-13.8-2.8c-3.3,0-6.4,0.4-9.4,1.3l-1.5,10.6
				c0.8,0.5,1.5,1.1,1.9,1.9l21-6.6C-261.7,238.7-261.7,238.6-261.7,238.5z"/>
		</g>
		<g>
			<path class="st0" d="M-245.7,275.5c0,3-2.2,5.5-5.1,5.9l-4.4,16.9c9.8-5.9,16.6-16.4,17.4-28.5l-7.9,4.9
				C-245.7,275-245.7,275.2-245.7,275.5z"/>
		</g>
		<path class="st0" d="M-250,240.4c-0.5,1.4-1.5,2.6-2.8,3.4l2.8,25.9c1,0.3,1.8,0.8,2.5,1.4l9.7-6
			C-238.4,255.3-243,246.5-250,240.4z"/>
		<path class="st0" d="M-254,269.9l-2.8-25.6c-1.3-0.3-2.5-0.9-3.4-1.9l-21.6,6.8c-0.2,1.5-0.9,2.8-2,3.8l4.2,11.5
			c3,0.1,5.5,2.4,5.9,5.3l16.6,3C-256.4,271.5-255.3,270.5-254,269.9z"/>
		<path class="st0" d="M-257.5,276.8l-17.1-3.1c-0.4,0.5-0.8,1-1.3,1.4l8.7,27.7c2.5-0.5,5-1.2,7.3-2.1l5.2-20.1
			C-256.1,279.8-257.1,278.4-257.5,276.8z"/>
	</g>
	<path class="st0" d="M-294.7,291.5c1.7,0,3,1.3,3,3c0,1.3-0.9,2.5-2.1,2.9c-1.4-0.9-2.6-1.9-3.9-3
		C-297.6,292.7-296.3,291.5-294.7,291.5z M-279.7,273.5c-1.7,0-3-1.3-3-3c0-1.7,1.3-3,3-3c1.7,0,3,1.3,3,3
		C-276.7,272.2-278,273.5-279.7,273.5z M-284.7,248.5c0,1.7-1.3,3-3,3c-1.7,0-3-1.3-3-3c0-1.7,1.3-3,3-3
		C-286,245.5-284.7,246.8-284.7,248.5z M-251.7,278.5c-1.7,0-3-1.3-3-3c0-1.7,1.3-3,3-3c1.7,0,3,1.3,3,3
		C-248.7,277.2-250,278.5-251.7,278.5L-251.7,278.5z M-252.7,238.5c0,1.7-1.3,3-3,3s-3-1.3-3-3c0-1.3,0.8-2.4,1.9-2.8
		c1.4,0.8,2.8,1.6,4.1,2.5C-252.7,238.3-252.7,238.4-252.7,238.5z"/>
</g>
</svg>
