<?xml version="1.0" encoding="UTF-8" standalone="no"?>
<!DOCTYPE svg PUBLIC "-//W3C//DTD SVG 1.1//EN" "http://www.w3.org/Graphics/SVG/1.1/DTD/svg11.dtd">
<svg width="100%" height="100%" viewBox="0 0 260 129" version="1.1" xmlns="http://www.w3.org/2000/svg" xmlns:xlink="http://www.w3.org/1999/xlink" xml:space="preserve" xmlns:serif="http://www.serif.com/" style="fill-rule:evenodd;clip-rule:evenodd;stroke-linejoin:round;stroke-miterlimit:2;">
    <g id="Artboard1" transform="matrix(1,0,0,1,2.33385,3.21369)">
        <rect x="-2.334" y="-3.214" width="259.236" height="128.297" style="fill:none;"/>
        <g transform="matrix(1,0,0,1,-340.071,-134.258)">
            <path d="M449.1,137.7C456.9,134.5 465.5,134.8 473.7,135.5C486.2,137.3 496.5,145.7 503.6,155.7C511.2,155.3 519.2,153.9 526.4,156.9C538.2,160.9 547.8,171.3 550,183.7C550.6,185.6 550.3,189.9 553.6,189C559.5,188.8 565.8,188 571.4,190.5C583.8,195 593.5,207 594.2,220.3C595.1,234.3 587.5,247.4 575,253.6C567.7,257.9 558.9,256.5 550.8,256.7C549.1,252.2 547.5,247.4 544,243.8C538.1,237.4 529.7,234.4 521.9,231C527.3,224.1 531.1,215.4 529.6,206.4C528,191.5 513.6,179.3 498.6,180.6C482.9,180.6 469.3,195.4 470.4,211C470.1,218.4 474.2,224.9 477.9,231C470.7,234 463.8,237.6 457.3,241.9C453.5,240.5 449.8,238.9 446.2,237.1C449.2,231.9 452.8,226.5 452.5,220.2C453.9,206.6 441.6,194.2 428.3,193.8C414.6,192.8 401.8,205 401.8,218.7C401.5,225.5 405,231.5 408.2,237.1C398.7,241 388.1,246 384.8,256.5C377.3,256.6 369.3,257.6 362.3,254.3C350.5,249.7 342.3,238.9 341,226.4C338.7,209.2 351.8,191.7 368.9,188.8C375.4,187.9 382,188.8 388.3,190.1C393.9,177.4 408,170 421.6,170.4C424.4,155.8 434.9,143.3 449.1,137.7Z" style="fill:rgb(20,161,156);fill-rule:nonzero;"/>
        </g>
    </g>
</svg>
