<?xml version="1.0" encoding="utf-8"?>
<!-- Generator: Adobe Illustrator 25.2.3, SVG Export Plug-In . SVG Version: 6.00 Build 0)  -->
<svg version="1.1" id="Layer_1" xmlns="http://www.w3.org/2000/svg" xmlns:xlink="http://www.w3.org/1999/xlink" x="0px" y="0px"
	 viewBox="0 0 414 208.7" style="enable-background:new 0 0 414 208.7;" xml:space="preserve">
<style type="text/css">
	.st0{fill:#00297A;}
</style>
<g>
	<g>
		<g>
			<path class="st0" d="M57.3,70.8C29.5,70.8,7,93.3,7,121.1s22.5,50.3,50.3,50.3s50.3-22.5,50.3-50.3S85.1,70.8,57.3,70.8z
				 M57.3,146.3c-13.9,0-25.2-11.3-25.2-25.2s11.3-25.2,25.2-25.2s25.2,11.3,25.2,25.2S71.2,146.3,57.3,146.3z"/>
		</g>
		<path class="st0" d="M145.7,138c0-4,4.8-5.9,7.6-3.1c12.6,12.8,33.4,34.8,33.5,34.9c0.3,0.3,0.6,0.8,1.8,1.2
			c0.5,0.2,1.3,0.2,2.2,0.2h22.7c4.1,0,5.3-4.7,3.4-7.1l-37.6-38.5l-2-2c-4.3-5.1-3.8-7.1,1.1-12.3L208.2,78c1.9-2.4,0.7-7-3.5-7
			h-20.6c-0.8,0-1.4,0-2,0.2c-1.2,0.4-1.7,0.8-2,1.2c-0.1,0.1-16.6,17.9-26.8,28.8c-2.8,3-7.8,1-7.8-3.1V41c0-2.9-2.4-4-4.3-4h-16.8
			c-2.9,0-4.3,1.9-4.3,3.6v126.6c0,2.9,2.4,3.7,4.4,3.7h16.8c2.6,0,4.3-1.9,4.3-3.8v-1.3V138H145.7z"/>
		<path class="st0" d="M282.9,166.6l-1.8-16.8c-0.2-2.3-2.4-3.9-4.7-3.5c-1.3,0.2-2.6,0.3-3.9,0.3c-13.4,0-24.3-10.5-25.1-23.8
			c0-0.4,0-0.9,0-1.4v-20.6c0-2.7,2-4.9,4.7-4.9h22.5c1.6,0,4-1.4,4-4.3V75.7c0-3.1-2-4.7-3.8-4.7h-22.7c-2.6,0-4.7-1.9-4.8-4.5V41
			c0-1.6-1.2-4-4.3-4h-16.7c-2.1,0-4.1,1.3-4.1,3.9c0,0,0,81.5,0,81.9c0.7,27.2,23,48.9,50.3,48.9c2.3,0,4.5-0.2,6.7-0.5
			C281.6,170.9,283.2,168.9,282.9,166.6z"/>
	</g>
	<g>
		<path class="st0" d="M404.1,145.5c-14.2,0-16.4-5.1-16.4-24.2c0-0.1,0-0.1,0-0.2V75.2c0-1.6-1.2-4.3-4.4-4.3h-16.8
			c-2.1,0-4.4,1.7-4.4,4.3v2.1c-7.3-4.2-15.8-6.6-24.8-6.6c-27.8,0-50.3,22.5-50.3,50.3s22.5,50.3,50.3,50.3
			c12.5,0,23.9-4.6,32.7-12.1c4.7,7.2,12.3,12,24.2,12.1c2,0,12.8,0.4,12.8-4.7v-17.9C407,147.2,405.8,145.5,404.1,145.5z
			 M337.4,146.3c-13.9,0-25.2-11.3-25.2-25.2s11.3-25.2,25.2-25.2c13.9,0,25.2,11.3,25.2,25.2C362.5,135,351.2,146.3,337.4,146.3z"
			/>
	</g>
</g>
</svg>
