<svg width="100%" height="100%" viewBox="0 0 26 25" version="1.1" xmlns="http://www.w3.org/2000/svg" xmlns:xlink="http://www.w3.org/1999/xlink" xml:space="preserve" xmlns:serif="http://www.serif.com/" style="fill-rule:evenodd;clip-rule:evenodd;stroke-linejoin:round;stroke-miterlimit:2;"><rect id="Artboard1" x="0" y="0" width="25.401" height="24.943" style="fill:none;"/><g id="Artboard11" serif:id="Artboard1"><path d="M22.565,0.596l-19.805,0c-1.243,0 -2.26,1.017 -2.26,2.26l-0,5.326l5.493,-0l-0,-0.87c-0,-0.675 0.547,-1.222 1.222,-1.222l10.895,0c0.675,0 1.222,0.547 1.222,1.222l0,0.87l5.493,0l0,-5.325c-0,-1.244 -1.017,-2.261 -2.26,-2.261Z" style="fill:#da1a32;fill-rule:nonzero;"/><path d="M19.332,17.688c0,0.675 -0.547,1.222 -1.222,1.222l-10.894,0c-0.675,0 -1.222,-0.547 -1.222,-1.222l0,-0.87l-5.494,0l0,5.326c0,1.243 1.017,2.26 2.26,2.26l19.805,-0c1.243,-0 2.26,-1.017 2.26,-2.26l-0,-5.326l-5.493,0l-0,0.87Z" style="fill:#da1a32;fill-rule:nonzero;"/><rect x="0.5" y="9.753" width="5.493" height="5.493" style="fill:#da1a32;"/><rect x="19.332" y="9.753" width="5.493" height="5.493" style="fill:#da1a32;"/></g></svg>