<svg id="Layer_1" data-name="Layer 1" xmlns="http://www.w3.org/2000/svg" viewBox="0 0 113.33 113.33"><defs><style>.cls-1{fill:#e6522c;}</style></defs><path class="cls-1" d="M60.67,4.62a56.67,56.67,0,1,0,56.66,56.67A56.67,56.67,0,0,0,60.67,4.62Zm0,106.06c-8.91,0-16.13-6-16.13-13.29H76.79C76.79,104.73,69.57,110.68,60.67,110.68ZM87.3,93H34V83.34H87.3V93Zm-.19-14.63H34.19l-.53-.6c-5.45-6.62-6.74-10.08-8-13.6,0-.12,6.61,1.35,11.31,2.41,0,0,2.42.56,6,1.21a22.12,22.12,0,0,1-5.41-14.22c0-11.36,8.71-21.29,5.56-29.31,3.06.25,6.34,6.46,6.56,16.16,3.25-4.49,4.61-12.7,4.61-17.73,0-5.21,3.43-11.26,6.87-11.47-3.06,5,.79,9.37,4.22,20.1,1.28,4,1.12,10.81,2.11,15.11.33-8.93,1.86-22,7.53-26.47-2.5,5.67.37,12.76,2.33,16.17,3.17,5.5,5.09,9.67,5.09,17.55a21.94,21.94,0,0,1-5.24,14.15c3.74-.71,6.32-1.34,6.32-1.34l12.16-2.37A34.51,34.51,0,0,1,87.11,78.36Z" transform="translate(-4 -4.62)"/></svg>