<svg width="100" height="100" viewBox="0 0 100 100" fill="none" xmlns="http://www.w3.org/2000/svg">
<path d="M21.293 63.0617C21.293 68.7883 16.6227 73.4656 10.8953 73.4656C5.16875 73.4656 0.492188 68.7883 0.492188 63.0617C0.492188 57.3352 5.16953 52.6578 10.8961 52.6578H21.2938L21.293 63.0617ZM26.5344 63.0617C26.5344 57.3352 31.2117 52.6578 36.9383 52.6578C42.6648 52.6578 47.3422 57.3344 47.3422 63.0617V89.1047C47.3422 94.8312 42.6656 99.5086 36.9383 99.5086C31.2117 99.5086 26.5344 94.8312 26.5344 89.1047V63.0617Z" fill="#DE1C59"/>
<path d="M36.9383 21.293C31.2117 21.293 26.5344 16.6227 26.5344 10.8953C26.5344 5.16875 31.2117 0.492188 36.9383 0.492188C42.6648 0.492188 47.3422 5.16953 47.3422 10.8961V21.2938L36.9383 21.293ZM36.9383 26.5344C42.6648 26.5344 47.3422 31.2117 47.3422 36.9383C47.3422 42.6648 42.6656 47.3422 36.9383 47.3422H10.8953C5.16875 47.3422 0.492188 42.6656 0.492188 36.9383C0.492188 31.2117 5.16953 26.5344 10.8961 26.5344H36.9383Z" fill="#35C5F0"/>
<path d="M78.707 36.9383C78.707 31.2117 83.3773 26.5344 89.1047 26.5344C94.8312 26.5344 99.5086 31.2117 99.5086 36.9383C99.5086 42.6648 94.8312 47.3422 89.1047 47.3422H78.707V36.9383ZM73.4656 36.9383C73.4656 42.6648 68.7883 47.3422 63.0617 47.3422C57.3352 47.3422 52.6578 42.6656 52.6578 36.9383V10.8953C52.6578 5.16875 57.3344 0.492188 63.0617 0.492188C68.7883 0.492188 73.4656 5.16953 73.4656 10.8961V36.9383Z" fill="#2EB57D"/>
<path d="M63.0617 78.707C68.7883 78.707 73.4656 83.3773 73.4656 89.1047C73.4656 94.8312 68.7883 99.5086 63.0617 99.5086C57.3352 99.5086 52.6578 94.8312 52.6578 89.1047V78.707H63.0617ZM63.0617 73.4656C57.3352 73.4656 52.6578 68.7883 52.6578 63.0617C52.6578 57.3352 57.3344 52.6578 63.0617 52.6578H89.1047C94.8312 52.6578 99.5086 57.3344 99.5086 63.0617C99.5086 68.7883 94.8312 73.4656 89.1047 73.4656H63.0617Z" fill="#EBB02E"/>
</svg>
