<?xml version="1.0" encoding="UTF-8" standalone="no"?>
<!DOCTYPE svg PUBLIC "-//W3C//DTD SVG 1.1//EN" "http://www.w3.org/Graphics/SVG/1.1/DTD/svg11.dtd">
<svg width="100%" height="100%" viewBox="0 0 125 41" version="1.1" xmlns="http://www.w3.org/2000/svg" xmlns:xlink="http://www.w3.org/1999/xlink" xml:space="preserve" xmlns:serif="http://www.serif.com/" style="fill-rule:evenodd;clip-rule:evenodd;stroke-linejoin:round;stroke-miterlimit:2;">
    <g id="Artboard1" transform="matrix(1,0,0,0.980547,0.841082,1.22243)">
        <rect x="-0.841" y="-1.247" width="124.929" height="40.794" style="fill:none;"/>
        <g transform="matrix(1,0,0,1.01984,0.696748,1.27145)">
            <path d="M12.928,21.802C12.928,22.604 12.759,23.349 12.419,24.038C12.08,24.717 11.6,25.302 10.996,25.774C10.384,26.255 9.658,26.623 8.82,26.887C7.981,27.151 7.058,27.283 6.059,27.283C4.862,27.283 3.788,27.123 2.846,26.793C1.903,26.472 0.952,25.924 0,25.17L1.574,22.613C2.327,23.245 3.006,23.708 3.618,24C4.221,24.293 4.843,24.434 5.484,24.434C6.266,24.434 6.888,24.236 7.369,23.83C7.849,23.424 8.075,22.887 8.075,22.198C8.075,21.906 8.028,21.632 7.943,21.377C7.859,21.123 7.698,20.859 7.472,20.585C7.246,20.321 6.926,20.019 6.521,19.708C6.125,19.396 5.607,19 4.966,18.538C4.485,18.198 4.005,17.84 3.543,17.481C3.081,17.113 2.667,16.726 2.28,16.311C1.903,15.896 1.602,15.434 1.366,14.915C1.14,14.406 1.018,13.811 1.018,13.16C1.018,12.406 1.178,11.708 1.489,11.085C1.8,10.462 2.233,9.934 2.78,9.491C3.326,9.047 3.976,8.708 4.749,8.462C5.512,8.217 6.342,8.094 7.246,8.094C8.198,8.094 9.112,8.217 9.998,8.472C10.883,8.726 11.703,9.094 12.466,9.585L11.044,11.887C10.073,11.208 9.046,10.859 7.972,10.859C7.322,10.859 6.775,11.028 6.351,11.368C5.927,11.708 5.71,12.132 5.71,12.651C5.71,13.142 5.899,13.585 6.276,13.972C6.653,14.368 7.303,14.906 8.226,15.623C9.159,16.302 9.932,16.906 10.535,17.415C11.147,17.924 11.628,18.415 11.986,18.868C12.344,19.321 12.58,19.774 12.721,20.245C12.862,20.726 12.928,21.236 12.928,21.802ZM29.088,17.491C29.088,18.198 29.013,18.962 28.862,19.783C28.721,20.604 28.466,21.359 28.108,22.057C27.75,22.755 27.289,23.33 26.714,23.774C26.139,24.226 25.404,24.453 24.528,24.453C23.058,24.453 21.899,23.868 21.051,22.689C20.203,21.519 19.779,19.906 19.779,17.859C19.779,15.755 20.203,14.094 21.069,12.859C21.927,11.623 23.095,11.009 24.565,11.009C25.96,11.009 27.062,11.594 27.873,12.745C28.683,13.906 29.088,15.491 29.088,17.491ZM34.195,17.311C34.195,15.943 33.998,14.698 33.611,13.585C33.215,12.462 32.669,11.5 31.943,10.689C31.218,9.877 30.37,9.255 29.38,8.802C28.391,8.349 27.298,8.123 26.101,8.123C24.782,8.123 23.623,8.377 22.624,8.868C21.625,9.368 20.693,10.151 19.844,11.226L19.816,8.557L15.114,8.557L15.114,36L19.807,36L19.807,24.406C20.269,24.943 20.711,25.396 21.145,25.764C21.569,26.132 22.002,26.434 22.445,26.66C22.888,26.887 23.35,27.057 23.84,27.151C24.33,27.245 24.857,27.293 25.413,27.293C26.657,27.293 27.826,27.038 28.9,26.547C29.974,26.047 30.907,25.349 31.689,24.443C32.471,23.538 33.084,22.481 33.526,21.283C33.979,20.076 34.195,18.745 34.195,17.311ZM36.287,26.849L41.112,26.849L41.112,0L36.287,0L36.287,26.849ZM61.691,26.859L61.691,8.538L56.867,8.538L56.867,18.396C56.867,19.274 56.829,19.953 56.754,20.434C56.678,20.915 56.556,21.34 56.386,21.736C55.708,23.245 54.454,24.009 52.636,24.009C51.213,24.009 50.224,23.5 49.658,22.472C49.432,22.085 49.281,21.642 49.197,21.151C49.112,20.66 49.065,19.953 49.065,19.019L49.065,8.538L44.24,8.538L44.24,18.943C44.24,19.651 44.25,20.255 44.259,20.736C44.268,21.217 44.306,21.66 44.353,22.038C44.4,22.415 44.457,22.755 44.523,23.047C44.579,23.34 44.674,23.623 44.796,23.887C45.239,25.009 45.946,25.859 46.935,26.434C47.924,27.009 49.14,27.293 50.572,27.293C51.863,27.293 53.003,27.066 53.983,26.613C54.963,26.16 55.915,25.424 56.838,24.396L56.848,26.849L61.691,26.859ZM82.478,26.849L82.478,16.462C82.478,15.755 82.469,15.151 82.459,14.651C82.45,14.151 82.421,13.717 82.365,13.349C82.318,12.981 82.252,12.66 82.186,12.387C82.11,12.104 82.026,11.83 81.931,11.566C81.489,10.472 80.782,9.623 79.792,9.028C78.803,8.434 77.587,8.132 76.146,8.132C74.855,8.132 73.715,8.358 72.735,8.811C71.755,9.264 70.803,10.009 69.88,11.028L69.87,8.575L65.017,8.575L65.017,26.859L69.88,26.859L69.88,16.991C69.88,16.142 69.908,15.472 69.974,15C70.03,14.528 70.153,14.085 70.323,13.66C70.633,12.925 71.123,12.377 71.774,12C72.424,11.623 73.196,11.434 74.101,11.434C75.524,11.434 76.513,11.943 77.079,12.972C77.295,13.359 77.446,13.802 77.531,14.283C77.616,14.764 77.663,15.481 77.663,16.406L77.663,26.84L82.478,26.849ZM102.435,25.642L95.086,16.5L101.295,9.84L97.639,8.264L91.175,15.764L90.666,15.764L90.666,0L85.804,0L85.804,26.849L90.666,26.849L90.666,17.123L97.941,27.217L102.435,25.642ZM121.225,19.076L121.225,16.085L106.61,8.745L106.61,12.038L117.936,17.557L106.61,23.151L106.61,26.368L121.225,19.076Z" style="fill:url(#_Linear1);fill-rule:nonzero;"/>
        </g>
    </g>
    <defs>
        <linearGradient id="_Linear1" x1="0" y1="0" x2="1" y2="0" gradientUnits="userSpaceOnUse" gradientTransform="matrix(121.225,0,-0,121.225,0,18)"><stop offset="0" style="stop-color:rgb(237,0,128);stop-opacity:1"/><stop offset="1" style="stop-color:rgb(249,157,28);stop-opacity:1"/></linearGradient>
    </defs>
</svg>
