<?xml version="1.0" encoding="UTF-8" standalone="no"?>
<!DOCTYPE svg PUBLIC "-//W3C//DTD SVG 1.1//EN" "http://www.w3.org/Graphics/SVG/1.1/DTD/svg11.dtd">
<svg width="100%" height="100%" viewBox="0 0 45 25" version="1.1" xmlns="http://www.w3.org/2000/svg" xmlns:xlink="http://www.w3.org/1999/xlink" xml:space="preserve" xmlns:serif="http://www.serif.com/" style="fill-rule:evenodd;clip-rule:evenodd;stroke-linejoin:round;stroke-miterlimit:2;">
    <g transform="matrix(1.10536,0,0,1.08676,-0.0103832,-1.00993)">
        <rect id="Artboard1" x="0.009" y="0.929" width="40.011" height="22.748" style="fill:none;"/>
        <g id="Artboard11" serif:id="Artboard1">
            <g transform="matrix(0.904684,0,0,0.920171,3.82314,-0.340807)">
                <path d="M11.733,13.071C11.76,13.129 11.843,13.127 11.866,13.067L14.193,7.513C14.294,7.25 14.548,7.074 14.83,7.073L16.815,7.062C16.817,7.062 16.818,7.062 16.82,7.062C17.196,7.062 17.506,7.372 17.506,7.748C17.506,7.829 17.491,7.91 17.463,7.986L12.398,21.058C12.39,21.083 12.36,21.102 12.331,21.103C12.299,21.103 12.273,21.077 12.264,21.058L9.034,14.65C8.975,14.52 8.845,14.437 8.703,14.437C8.566,14.437 8.44,14.514 8.379,14.637L5.167,21.062C5.154,21.086 5.129,21.102 5.101,21.102C5.072,21.102 5.045,21.084 5.034,21.056L0.01,7.993C-0.021,7.914 -0.036,7.83 -0.036,7.746C-0.036,7.37 0.273,7.06 0.65,7.06C0.65,7.06 2.807,7.06 2.807,7.06C3.091,7.06 3.347,7.236 3.447,7.501L5.575,13.066C5.598,13.126 5.683,13.129 5.709,13.071L8.391,7.233C8.45,7.104 8.579,7.021 8.721,7.021C8.862,7.021 8.992,7.104 9.051,7.233L11.733,13.071ZM36.516,1.746C36.5,1.668 36.333,1.668 36.316,1.746C36.192,2.354 35.933,3.271 35.446,3.758C34.959,4.245 34.042,4.504 33.434,4.628C33.356,4.645 33.356,4.812 33.434,4.828C34.042,4.953 34.959,5.212 35.446,5.698C36.082,6.335 36.301,7.204 36.376,7.726C36.382,7.759 36.486,7.764 36.492,7.731C36.606,7.171 36.866,6.219 37.387,5.699C37.874,5.212 38.791,4.953 39.399,4.828C39.477,4.812 39.477,4.645 39.399,4.628C38.791,4.504 37.874,4.245 37.387,3.758C36.9,3.271 36.641,2.354 36.516,1.746ZM18.407,7.76C18.407,7.38 18.714,7.073 19.093,7.073L21.167,7.073C21.547,7.073 21.854,7.38 21.854,7.759L21.854,20.459C21.854,20.838 21.546,21.145 21.167,21.145L19.093,21.145C18.717,21.145 18.407,20.835 18.407,20.459L18.407,7.759L18.407,7.76ZM27.842,10.705C27.855,10.68 27.861,10.652 27.861,10.624C27.861,10.525 27.779,10.443 27.68,10.443C27.68,10.443 23.58,10.443 23.58,10.443C23.204,10.443 22.894,10.133 22.894,9.757C22.894,9.757 22.894,7.76 22.894,7.76C22.894,7.381 23.201,7.074 23.58,7.074L33.036,7.074C33.33,7.074 33.724,7.313 33.584,7.571L28.12,17.793L28.119,17.795C28.106,17.821 28.098,17.85 28.098,17.879C28.098,17.978 28.18,18.06 28.279,18.061L33.274,18.061C33.653,18.061 33.96,18.369 33.96,18.748L33.96,20.458C33.96,20.838 33.653,21.145 33.274,21.145L23.244,21.145C22.914,21.145 22.848,20.665 22.996,20.369L27.842,10.705Z" style="fill:rgb(50,95,232);fill-rule:nonzero;"/>
            </g>
        </g>
    </g>
</svg>
