<svg width="127" height="127" viewBox="0 0 127 127" fill="none" xmlns="http://www.w3.org/2000/svg">
<path d="M63.15 126.875C98.0268 126.875 126.3 98.6022 126.3 63.7254C126.3 28.8486 98.0268 0.575378 63.15 0.575378C28.2732 0.575378 0 28.8486 0 63.7254C0 98.6022 28.2732 126.875 63.15 126.875Z" fill="#D71920"/>
<path d="M35.33 63.4254C26.17 81.3654 27.3801 87.0654 28.9601 91.5054C33.2101 103.465 56.2 100.105 78.85 82.4154C101.5 64.7254 111.87 40.1554 102.01 27.5454C93.44 16.5754 72.09 18.5254 51.94 30.7954C77.09 14.7054 103.54 11.7254 113.81 24.8754C125.36 39.6554 112.22 69.2154 84.4601 90.9054C56.7001 112.595 24.83 118.195 13.28 103.415C6.02003 94.1154 7.78004 79.0454 17.54 63.6854H10.16L11.91 59.6054C11.91 59.6054 25.1501 56.9354 38.4901 44.8154C38.5201 44.7854 43.86 44.7754 43.86 44.7754L37.2101 59.1454H48.13L46.06 63.4754L35.33 63.4254Z" fill="white"/>
</svg>
