<?xml version="1.0" encoding="utf-8"?>
<!-- Generator: Adobe Illustrator 25.2.3, SVG Export Plug-In . SVG Version: 6.00 Build 0)  -->
<svg version="1.1"
	 id="Layer_1" xmlns:cc="http://creativecommons.org/ns#" xmlns:dc="http://purl.org/dc/elements/1.1/" xmlns:rdf="http://www.w3.org/1999/02/22-rdf-syntax-ns#"
	 xmlns="http://www.w3.org/2000/svg" xmlns:xlink="http://www.w3.org/1999/xlink" x="0px" y="0px" viewBox="0 0 173.8 171.8"
	 style="enable-background:new 0 0 173.8 171.8;" xml:space="preserve">
<style type="text/css">
	.st0{fill-rule:evenodd;clip-rule:evenodd;fill-opacity:0.992;}
	.st1{fill-rule:evenodd;clip-rule:evenodd;fill:#FFFFFF;}
	.st2{fill-rule:evenodd;clip-rule:evenodd;fill:url(#SVGID_1_);}
	.st3{fill-rule:evenodd;clip-rule:evenodd;fill:url(#SVGID_2_);}
	.st4{fill-rule:evenodd;clip-rule:evenodd;fill:url(#SVGID_3_);}
	.st5{fill-rule:evenodd;clip-rule:evenodd;fill:#4D4D4D;fill-opacity:0.317;}
	.st6{fill:none;stroke:#FF0000;stroke-width:11.9998;stroke-miterlimit:3.9999;}
</style>
<g transform="translate(-16.984 -331)">
	<path class="st0" d="M54.2,401.3c1-4.3,1.9-33.7,10.6-33.2c30.7,0.9,62.4-30.9,85.4,39.9c71,33.2,4.9,60-51.3,57.6
		C43.3,463.2-4.1,423.2,54.2,401.3L54.2,401.3z"/>
	<path class="st1" d="M52.8,410.8c35.5,22.3,94.1,8.5,96.5-2.4c3.4,3.8,0,14.2,0,14.2c-15.4,19.9-89.7,15.7-97.9,1.4
		C50.4,420.3,52.3,412.3,52.8,410.8L52.8,410.8z"/>
	<g>
		
			<linearGradient id="SVGID_1_" gradientUnits="userSpaceOnUse" x1="85.2059" y1="-148.4436" x2="82.9649" y2="-151.2135" gradientTransform="matrix(1.7812 0 0 -0.5614 -59.014 297.9031)">
			<stop  offset="0" style="stop-color:#000000;stop-opacity:0.408"/>
			<stop  offset="1" style="stop-color:#000000;stop-opacity:0"/>
		</linearGradient>
		<path class="st2" d="M66.2,375.2c9.1-8.1,49,3.3,54.2,9.5C122.4,395.2,71.5,387.1,66.2,375.2z"/>
		
			<linearGradient id="SVGID_2_" gradientUnits="userSpaceOnUse" x1="89.3058" y1="-85.4758" x2="83.5998" y2="-116.3158" gradientTransform="matrix(1.5608 0 0 -0.6407 -47.1558 334.9074)">
			<stop  offset="0" style="stop-color:#FFFFFF;stop-opacity:0.175"/>
			<stop  offset="1" style="stop-color:#FFFFFF;stop-opacity:0.375"/>
		</linearGradient>
		<path class="st3" d="M66.2,387.1c4.3,10,21.1,33.2,49.4,10.9C92.1,399,82,396.1,66.2,387.1z"/>
		
			<linearGradient id="SVGID_3_" gradientUnits="userSpaceOnUse" x1="71.7837" y1="-273.6745" x2="96.0834" y2="-273.6745" gradientTransform="matrix(2.195 0 0 -0.4556 -81.2777 248.4957)">
			<stop  offset="0" style="stop-color:#FFFFFF;stop-opacity:0.175"/>
			<stop  offset="1" style="stop-color:#FFFFFF;stop-opacity:0.375"/>
		</linearGradient>
		<path class="st4" d="M76.3,367.6c6.2,2.8,45.6,13.8,49.9,10.4c4.8-1.9,3.8-2.8,1.4-3.3C123.8,377.1,117.1,378.6,76.3,367.6
			L76.3,367.6z"/>
	</g>
	<path class="st5" d="M58.5,416.1c5.8,2.7,23.5,6.4,30.3,6.8c4.8,3.2,2.4,8.2,0.5,11.8c-13,0-27.8-3.2-31.7-7.3
		C55.2,423.3,56.1,420.2,58.5,416.1L58.5,416.1z"/>
</g>
<circle class="st6" cx="86.9" cy="85.9" r="75.1"/>
<path class="st6" d="M32.6,30.1l105.9,112.8"/>
<g transform="translate(-16.984 -331)">
	<g transform="matrix(1.0215 0 0 .99183 -1.0406 3.2411)">
		<path class="st0" d="M54.1,401.4c-30.5,41-1.1,30.3,44.7,64.2C43.2,463.3-4.2,423.2,54.1,401.4L54.1,401.4z"/>
	</g>
</g>
</svg>
