<svg width="25" height="25" viewBox="0 0 25 25" fill="none" xmlns="http://www.w3.org/2000/svg">
<mask id="mask0_308_7" style="mask-type:alpha" maskUnits="userSpaceOnUse" x="0" y="0" width="25" height="25">
<rect x="0.581055" y="0.291504" width="24" height="24" fill="#D9D9D9"/>
</mask>
<g mask="url(#mask0_308_7)">
<path d="M6.43105 17.3915C7.28105 16.7415 8.23105 16.2288 9.28105 15.8535C10.3311 15.4788 11.4311 15.2915 12.5811 15.2915C13.7311 15.2915 14.8311 15.4788 15.8811 15.8535C16.9311 16.2288 17.8811 16.7415 18.7311 17.3915C19.3144 16.7082 19.7687 15.9332 20.0941 15.0665C20.4187 14.1998 20.5811 13.2748 20.5811 12.2915C20.5811 10.0748 19.8021 8.18717 18.2441 6.6285C16.6854 5.0705 14.7977 4.2915 12.5811 4.2915C10.3644 4.2915 8.47705 5.0705 6.91905 6.6285C5.36039 8.18717 4.58105 10.0748 4.58105 12.2915C4.58105 13.2748 4.74372 14.1998 5.06905 15.0665C5.39372 15.9332 5.84772 16.7082 6.43105 17.3915ZM12.5811 13.2915C11.5977 13.2915 10.7684 12.9542 10.0931 12.2795C9.41839 11.6042 9.08105 10.7748 9.08105 9.7915C9.08105 8.80817 9.41839 7.97884 10.0931 7.3035C10.7684 6.62884 11.5977 6.2915 12.5811 6.2915C13.5644 6.2915 14.3937 6.62884 15.0691 7.3035C15.7437 7.97884 16.0811 8.80817 16.0811 9.7915C16.0811 10.7748 15.7437 11.6042 15.0691 12.2795C14.3937 12.9542 13.5644 13.2915 12.5811 13.2915ZM12.5811 22.2915C11.1977 22.2915 9.89772 22.0288 8.68106 21.5035C7.46439 20.9788 6.40605 20.2665 5.50605 19.3665C4.60605 18.4665 3.89372 17.4082 3.36905 16.1915C2.84372 14.9748 2.58105 13.6748 2.58105 12.2915C2.58105 10.9082 2.84372 9.60817 3.36905 8.3915C3.89372 7.17484 4.60605 6.1165 5.50605 5.2165C6.40605 4.3165 7.46439 3.60384 8.68106 3.0785C9.89772 2.55384 11.1977 2.2915 12.5811 2.2915C13.9644 2.2915 15.2644 2.55384 16.4811 3.0785C17.6977 3.60384 18.7561 4.3165 19.6561 5.2165C20.5561 6.1165 21.2684 7.17484 21.7931 8.3915C22.3184 9.60817 22.5811 10.9082 22.5811 12.2915C22.5811 13.6748 22.3184 14.9748 21.7931 16.1915C21.2684 17.4082 20.5561 18.4665 19.6561 19.3665C18.7561 20.2665 17.6977 20.9788 16.4811 21.5035C15.2644 22.0288 13.9644 22.2915 12.5811 22.2915ZM12.5811 20.2915C13.4644 20.2915 14.2977 20.1625 15.0811 19.9045C15.8644 19.6458 16.5811 19.2748 17.2311 18.7915C16.5811 18.3082 15.8644 17.9372 15.0811 17.6785C14.2977 17.4205 13.4644 17.2915 12.5811 17.2915C11.6977 17.2915 10.8644 17.4205 10.0811 17.6785C9.29772 17.9372 8.58105 18.3082 7.93105 18.7915C8.58105 19.2748 9.29772 19.6458 10.0811 19.9045C10.8644 20.1625 11.6977 20.2915 12.5811 20.2915ZM12.5811 11.2915C13.0144 11.2915 13.3727 11.1498 13.6561 10.8665C13.9394 10.5832 14.0811 10.2248 14.0811 9.7915C14.0811 9.35817 13.9394 8.99984 13.6561 8.7165C13.3727 8.43317 13.0144 8.2915 12.5811 8.2915C12.1477 8.2915 11.7894 8.43317 11.5061 8.7165C11.2227 8.99984 11.0811 9.35817 11.0811 9.7915C11.0811 10.2248 11.2227 10.5832 11.5061 10.8665C11.7894 11.1498 12.1477 11.2915 12.5811 11.2915Z" fill="#1C1B1F"/>
</g>
</svg>
