<svg width="25" height="25" viewBox="0 0 25 25" fill="none" xmlns="http://www.w3.org/2000/svg">
<mask id="mask0_809_7" style="mask-type:alpha" maskUnits="userSpaceOnUse" x="0" y="0" width="25" height="25">
<rect x="0.253296" y="0.480103" width="24" height="24" fill="#D9D9D9"/>
</mask>
<g mask="url(#mask0_809_7)">
<path d="M12.2534 20.4801C13.1418 20.4801 13.9986 20.3397 14.8236 20.0589C15.6486 19.7781 16.4059 19.3672 17.0957 18.8262C16.3931 18.3044 15.6325 17.9079 14.8138 17.6368C13.9951 17.3656 13.1416 17.23 12.2532 17.23C11.3648 17.23 10.5082 17.3624 9.68315 17.6272C8.85815 17.8919 8.10078 18.2916 7.41103 18.8262C8.10078 19.3672 8.85815 19.7781 9.68315 20.0589C10.5082 20.3397 11.3649 20.4801 12.2534 20.4801ZM14.711 12.1166L13.6418 11.0474C13.7572 10.8948 13.8463 10.7254 13.9091 10.539C13.972 10.3527 14.0034 10.1664 14.0034 9.98007C14.0034 9.49931 13.8319 9.08744 13.489 8.74447C13.146 8.40152 12.7341 8.23005 12.2534 8.23005C12.067 8.23005 11.8807 8.26146 11.6944 8.3243C11.508 8.38711 11.3386 8.47621 11.186 8.5916L10.1168 7.5224C10.4116 7.2583 10.7412 7.06022 11.1058 6.92817C11.4703 6.79612 11.8542 6.7301 12.2576 6.7301C13.1573 6.7301 13.9232 7.04612 14.5553 7.67817C15.1873 8.31021 15.5033 9.0761 15.5033 9.97585C15.5033 10.3792 15.4373 10.7631 15.3053 11.1277C15.1732 11.4922 14.9751 11.8219 14.711 12.1166ZM20.238 17.6435L19.1437 16.5493C19.5104 15.9262 19.787 15.273 19.9736 14.5897C20.1601 13.9064 20.2534 13.2032 20.2534 12.4801C20.2534 10.2467 19.4784 8.35507 17.9284 6.80507C16.3784 5.25507 14.4867 4.48007 12.2534 4.48007C11.5303 4.48007 10.8271 4.57334 10.1437 4.75987C9.4604 4.94642 8.8072 5.22303 8.18413 5.5897L7.08993 4.49547C7.86171 4.00061 8.68488 3.62433 9.55943 3.36665C10.434 3.10895 11.332 2.9801 12.2534 2.9801C13.5675 2.9801 14.8025 3.22947 15.9583 3.72822C17.1142 4.22697 18.1196 4.90385 18.9746 5.75885C19.8296 6.61385 20.5065 7.61926 21.0052 8.7751C21.504 9.93091 21.7533 11.1659 21.7533 12.4801C21.7533 13.4015 21.6245 14.2994 21.3668 15.174C21.1091 16.0485 20.7328 16.8717 20.238 17.6435ZM12.2497 21.98C10.9369 21.98 9.70327 21.7304 8.5487 21.231C7.39412 20.7316 6.3891 20.0546 5.53365 19.1998C4.67819 18.345 4.00095 17.3398 3.50193 16.1842C3.0029 15.0287 2.75338 13.7939 2.75338 12.4801C2.75338 11.4775 2.9037 10.5031 3.20435 9.557C3.505 8.61083 3.95084 7.7307 4.54185 6.9166L1.53418 3.88392L2.60335 2.8147L22.1149 22.3262L21.0457 23.3954L5.64183 8.01657C5.18541 8.67812 4.8399 9.38582 4.60528 10.1397C4.37066 10.8935 4.25335 11.6737 4.25335 12.4801C4.25335 13.4709 4.42611 14.4183 4.77163 15.3222C5.11715 16.2262 5.61875 17.0429 6.27645 17.7724C7.15722 17.1275 8.10279 16.6259 9.11315 16.2676C10.1235 15.9093 11.1702 15.7301 12.2534 15.7301C13.0149 15.7301 13.7652 15.832 14.5043 16.0359C15.2434 16.2397 15.9515 16.516 16.6284 16.8647L18.9726 19.2089C18.0738 20.114 17.045 20.8021 15.886 21.2733C14.7271 21.7445 13.5149 21.98 12.2497 21.98Z" fill="#1C1B1F"/>
</g>
</svg>
