<svg width="24" height="24" viewBox="0 0 24 24" fill="none" xmlns="http://www.w3.org/2000/svg">
<mask id="mask0_402_67" style="mask-type:alpha" maskUnits="userSpaceOnUse" x="0" y="0" width="24" height="24">
<rect width="24" height="24" fill="#D9D9D9"/>
</mask>
<g mask="url(#mask0_402_67)">
<path d="M12.925 11.05L9.02502 7.15002L10.1 6.10002L12.925 8.92502L18.6 3.27502L19.65 4.32502L12.925 11.05ZM13.825 21.8L6.52502 19.7V21.075H1.52502V11.5H8.67502L14.8 13.75C15.25 13.9334 15.625 14.2374 15.925 14.662C16.225 15.0874 16.375 15.5834 16.375 16.15H18.875C19.5917 16.15 20.1794 16.3957 20.638 16.887C21.096 17.379 21.325 18.0167 21.325 18.8V19.45L13.825 21.8ZM3.02502 19.575H5.02502V13H3.02502V19.575ZM13.775 20.2L19.75 18.35C19.7167 18.1334 19.621 17.9624 19.463 17.837C19.3044 17.7124 19.1084 17.65 18.875 17.65H14.15C13.6667 17.65 13.2084 17.6207 12.775 17.562C12.3417 17.504 11.9167 17.4 11.5 17.25L9.65002 16.625L10.125 15.175L12.075 15.825C12.3917 15.9417 12.7544 16.025 13.163 16.075C13.571 16.125 14.1417 16.15 14.875 16.15C14.875 15.9 14.821 15.6874 14.713 15.512C14.6044 15.3374 14.4584 15.2167 14.275 15.15L8.42502 13H6.52502V18.15L13.775 20.2Z" fill="#1C1B1F"/>
</g>
</svg>
