<?xml version="1.0" encoding="utf-8"?>
<svg viewBox="140.034 155.401 257.341 36.652" width="257.341" height="36.652" xmlns="http://www.w3.org/2000/svg">
  <path d="M 166.935 165.789 L 166.935 191.759 L 162.427 191.759 L 162.427 187.643 C 161.382 189.08 160.059 190.175 158.458 190.926 C 156.857 191.677 155.093 192.053 153.166 192.053 C 150.651 192.053 148.397 191.498 146.404 190.387 C 144.411 189.276 142.843 187.725 141.7 185.732 C 140.589 183.707 140.034 181.387 140.034 178.774 C 140.034 176.161 140.589 173.858 141.7 171.865 C 142.843 169.872 144.411 168.321 146.404 167.21 C 148.397 166.099 150.651 165.544 153.166 165.544 C 155.028 165.544 156.743 165.903 158.311 166.622 C 159.879 167.308 161.186 168.337 162.231 169.709 L 162.231 165.789 L 166.935 165.789 Z M 153.558 187.937 C 155.191 187.937 156.678 187.561 158.017 186.81 C 159.356 186.026 160.402 184.948 161.153 183.576 C 161.904 182.171 162.28 180.571 162.28 178.774 C 162.28 176.977 161.904 175.393 161.153 174.021 C 160.402 172.616 159.356 171.538 158.017 170.787 C 156.678 170.036 155.191 169.66 153.558 169.66 C 151.892 169.66 150.389 170.036 149.05 170.787 C 147.743 171.538 146.698 172.616 145.914 174.021 C 145.163 175.393 144.787 176.977 144.787 178.774 C 144.787 180.571 145.163 182.171 145.914 183.576 C 146.698 184.948 147.743 186.026 149.05 186.81 C 150.389 187.561 151.892 187.937 153.558 187.937 Z M 200.041 165.789 L 200.041 191.759 L 195.582 191.759 L 195.582 187.839 C 194.635 189.178 193.377 190.224 191.809 190.975 C 190.274 191.694 188.592 192.053 186.762 192.053 C 183.3 192.053 180.572 191.106 178.579 189.211 C 176.587 187.284 175.59 184.458 175.59 180.734 L 175.59 165.789 L 180.294 165.789 L 180.294 180.195 C 180.294 182.71 180.899 184.621 182.107 185.928 C 183.316 187.202 185.047 187.839 187.301 187.839 C 189.784 187.839 191.744 187.088 193.181 185.585 C 194.619 184.082 195.337 181.959 195.337 179.215 L 195.337 165.789 L 200.041 165.789 Z M 222.668 190.24 C 221.982 190.828 221.132 191.285 220.12 191.612 C 219.107 191.906 218.062 192.053 216.984 192.053 C 214.37 192.053 212.345 191.351 210.908 189.946 C 209.47 188.541 208.752 186.532 208.752 183.919 L 208.752 160.105 L 213.456 160.105 L 213.456 165.789 L 220.904 165.789 L 220.904 169.66 L 213.456 169.66 L 213.456 183.723 C 213.456 185.128 213.799 186.206 214.485 186.957 C 215.203 187.708 216.216 188.084 217.523 188.084 C 218.96 188.084 220.185 187.676 221.198 186.859 L 222.668 190.24 Z M 238.59 192.053 C 236.01 192.053 233.69 191.481 231.632 190.338 C 229.574 189.195 227.957 187.627 226.781 185.634 C 225.638 183.609 225.066 181.322 225.066 178.774 C 225.066 176.226 225.638 173.956 226.781 171.963 C 227.957 169.938 229.574 168.37 231.632 167.259 C 233.69 166.116 236.01 165.544 238.59 165.544 C 241.171 165.544 243.474 166.116 245.499 167.259 C 247.557 168.37 249.158 169.938 250.301 171.963 C 251.477 173.956 252.065 176.226 252.065 178.774 C 252.065 181.322 251.477 183.609 250.301 185.634 C 249.158 187.627 247.557 189.195 245.499 190.338 C 243.474 191.481 241.171 192.053 238.59 192.053 Z M 238.59 187.937 C 240.256 187.937 241.743 187.561 243.049 186.81 C 244.389 186.026 245.434 184.948 246.185 183.576 C 246.937 182.171 247.312 180.571 247.312 178.774 C 247.312 176.977 246.937 175.393 246.185 174.021 C 245.434 172.616 244.389 171.538 243.049 170.787 C 241.743 170.036 240.256 169.66 238.59 169.66 C 236.924 169.66 235.422 170.036 234.082 170.787 C 232.776 171.538 231.73 172.616 230.946 174.021 C 230.195 175.393 229.819 176.977 229.819 178.774 C 229.819 180.571 230.195 182.171 230.946 183.576 C 231.73 184.948 232.776 186.026 234.082 186.81 C 235.422 187.561 236.924 187.937 238.59 187.937 Z M 272.34 165.544 C 274.855 165.544 277.109 166.099 279.102 167.21 C 281.094 168.321 282.646 169.872 283.757 171.865 C 284.9 173.858 285.472 176.161 285.472 178.774 C 285.472 181.387 284.9 183.707 283.757 185.732 C 282.646 187.725 281.094 189.276 279.102 190.387 C 277.109 191.498 274.855 192.053 272.34 192.053 C 270.412 192.053 268.648 191.677 267.048 190.926 C 265.447 190.175 264.124 189.08 263.079 187.643 L 263.079 191.759 L 258.571 191.759 L 258.571 155.401 L 263.275 155.401 L 263.275 169.709 C 264.32 168.337 265.627 167.308 267.195 166.622 C 268.763 165.903 270.478 165.544 272.34 165.544 Z M 271.948 187.937 C 273.614 187.937 275.1 187.561 276.407 186.81 C 277.746 186.026 278.791 184.948 279.543 183.576 C 280.327 182.171 280.719 180.571 280.719 178.774 C 280.719 176.977 280.327 175.393 279.543 174.021 C 278.791 172.616 277.746 171.538 276.407 170.787 C 275.1 170.036 273.614 169.66 271.948 169.66 C 270.314 169.66 268.828 170.036 267.489 170.787 C 266.149 171.538 265.104 172.616 264.353 174.021 C 263.601 175.393 263.226 176.977 263.226 178.774 C 263.226 180.571 263.601 182.171 264.353 183.576 C 265.104 184.948 266.149 186.026 267.489 186.81 C 268.828 187.561 270.314 187.937 271.948 187.937 Z M 303.094 192.053 C 300.513 192.053 298.194 191.481 296.136 190.338 C 294.078 189.195 292.461 187.627 291.285 185.634 C 290.142 183.609 289.57 181.322 289.57 178.774 C 289.57 176.226 290.142 173.956 291.285 171.963 C 292.461 169.938 294.078 168.37 296.136 167.259 C 298.194 166.116 300.513 165.544 303.094 165.544 C 305.675 165.544 307.978 166.116 310.003 167.259 C 312.061 168.37 313.662 169.938 314.805 171.963 C 315.981 173.956 316.569 176.226 316.569 178.774 C 316.569 181.322 315.981 183.609 314.805 185.634 C 313.662 187.627 312.061 189.195 310.003 190.338 C 307.978 191.481 305.675 192.053 303.094 192.053 Z M 303.094 187.937 C 304.76 187.937 306.246 187.561 307.553 186.81 C 308.892 186.026 309.938 184.948 310.689 183.576 C 311.44 182.171 311.816 180.571 311.816 178.774 C 311.816 176.977 311.44 175.393 310.689 174.021 C 309.938 172.616 308.892 171.538 307.553 170.787 C 306.246 170.036 304.76 169.66 303.094 169.66 C 301.428 169.66 299.925 170.036 298.586 170.787 C 297.279 171.538 296.234 172.616 295.45 174.021 C 294.699 175.393 294.323 176.977 294.323 178.774 C 294.323 180.571 294.699 182.171 295.45 183.576 C 296.234 184.948 297.279 186.026 298.586 186.81 C 299.925 187.561 301.428 187.937 303.094 187.937 Z M 336.746 190.24 C 336.06 190.828 335.21 191.285 334.198 191.612 C 333.185 191.906 332.14 192.053 331.062 192.053 C 328.448 192.053 326.423 191.351 324.986 189.946 C 323.548 188.541 322.83 186.532 322.83 183.919 L 322.83 160.105 L 327.534 160.105 L 327.534 165.789 L 334.982 165.789 L 334.982 169.66 L 327.534 169.66 L 327.534 183.723 C 327.534 185.128 327.877 186.206 328.563 186.957 C 329.281 187.708 330.294 188.084 331.601 188.084 C 333.038 188.084 334.263 187.676 335.276 186.859 L 336.746 190.24 Z M 357.499 157.067 C 362.072 157.067 365.682 158.406 368.328 161.085 C 370.974 163.731 372.297 167.537 372.297 172.502 L 372.297 191.759 L 367.397 191.759 L 367.397 182.302 L 347.601 182.302 L 347.601 191.759 L 342.799 191.759 L 342.799 172.502 C 342.799 167.537 344.122 163.731 346.768 161.085 C 349.414 158.406 352.991 157.067 357.499 157.067 Z M 367.397 178.039 L 367.397 172.061 C 367.397 168.566 366.515 165.92 364.751 164.123 C 363.019 162.326 360.602 161.428 357.499 161.428 C 354.395 161.428 351.962 162.326 350.198 164.123 C 348.466 165.92 347.601 168.566 347.601 172.061 L 347.601 178.039 L 367.397 178.039 Z M 390.76 161.722 L 390.76 187.496 L 397.375 187.496 L 397.375 191.759 L 379.245 191.759 L 379.245 187.496 L 385.86 187.496 L 385.86 161.722 L 379.245 161.722 L 379.245 157.459 L 397.375 157.459 L 397.375 161.722 L 390.76 161.722 Z" fill="black" transform="matrix(1, 0, 0, 1, 7.105427357601002e-15, 0)"/>
</svg>