<svg width="80" height="60" viewBox="0 0 100 60" fill="none" xmlns="http://www.w3.org/2000/svg">
<g clip-path="url(#clip0_107_2)">
<path d="M28.3213 22.5267C28.3213 23.7571 28.4543 24.7552 28.6869 25.4866C28.9824 26.3098 29.3382 27.1102 29.7514 27.8811C29.9177 28.1471 29.9841 28.4135 29.9841 28.6462C29.9841 28.9789 29.7847 29.3112 29.3524 29.644L27.2572 31.0407C26.9574 31.2404 26.6581 31.3401 26.3921 31.3401C26.0597 31.3401 25.727 31.1737 25.3943 30.8744C24.9462 30.3928 24.5454 29.8693 24.1973 29.3112C23.8645 28.7462 23.5318 28.1142 23.1661 27.3491C20.5719 30.409 17.3123 31.9388 13.3879 31.9388C10.5944 31.9388 8.36584 31.1408 6.73601 29.5443C5.10657 27.9474 4.27478 25.8193 4.27478 23.1584C4.27478 20.3315 5.27253 18.0366 7.30139 16.3071C9.33024 14.5776 12.0241 13.7129 15.4501 13.7129C16.5809 13.7129 17.745 13.8125 18.9754 13.9789C20.2059 14.1452 21.47 14.4113 22.8001 14.7106V12.2828C22.8001 9.75522 22.2681 7.99238 21.237 6.96128C20.1729 5.93018 18.3767 5.43111 15.8158 5.43111C14.6517 5.43111 13.4543 5.56451 12.2238 5.86387C10.9934 6.16323 9.79596 6.52891 8.63185 6.99463C8.09982 7.22729 7.7008 7.3603 7.46774 7.427C7.23508 7.4937 7.06872 7.52666 6.93571 7.52666C6.46999 7.52666 6.23733 7.19394 6.23733 6.49556V4.86612C6.23733 4.3337 6.30403 3.93467 6.46999 3.70201C6.63635 3.46895 6.93571 3.23629 7.40144 3.00362C8.56515 2.40489 9.96232 1.90582 11.5918 1.5068C13.2216 1.07443 14.9515 0.875111 16.7802 0.875111C20.7383 0.875111 23.6315 1.77281 25.4944 3.569C27.3235 5.3648 28.2546 8.09204 28.2546 11.7507V22.5267H28.3213ZM14.8181 27.5817C15.9155 27.5817 17.0466 27.3824 18.2437 26.9834C19.4412 26.584 20.5052 25.8523 21.4033 24.8545C21.9353 24.2228 22.3348 23.5244 22.5341 22.726C22.7338 21.9279 22.8668 20.9635 22.8668 19.8324V18.4356C21.8582 18.1903 20.8366 18.0016 19.8068 17.8706C18.7699 17.7388 17.7258 17.672 16.6806 17.6705C14.452 17.6705 12.8226 18.1029 11.7252 19.001C10.6274 19.8991 10.0953 21.1629 10.0953 22.826C10.0953 24.3892 10.4943 25.5529 11.3257 26.3513C12.1242 27.1831 13.2883 27.5817 14.8177 27.5817H14.8181ZM41.5251 31.1737C40.9264 31.1737 40.5273 31.0741 40.2613 30.8414C39.9949 30.6417 39.7623 30.176 39.5629 29.5443L31.7465 3.83502C31.5468 3.16998 31.4471 2.73761 31.4471 2.50494C31.4471 1.97252 31.7132 1.67316 32.2452 1.67316H35.5048C36.1365 1.67316 36.5689 1.77281 36.802 2.00587C37.068 2.20518 37.2673 2.67091 37.467 3.30299L43.0545 25.3202L48.2429 3.30299C48.4093 2.63756 48.6086 2.20518 48.8746 2.00587C49.141 1.80616 49.6064 1.67316 50.2051 1.67316H52.866C53.4977 1.67316 53.9301 1.77281 54.1961 2.00587C54.4625 2.20518 54.6952 2.67091 54.8282 3.30299L60.083 25.5862L65.8368 3.30299C66.0365 2.63756 66.2692 2.20518 66.5022 2.00587C66.7683 1.80616 67.2006 1.67316 67.7994 1.67316H70.8923C71.4243 1.67316 71.7241 1.93917 71.7241 2.50494C71.7241 2.67091 71.6907 2.83726 71.6574 3.03658C71.624 3.23668 71.5573 3.5023 71.4243 3.86837L63.4089 29.5776C63.2096 30.2427 62.9766 30.6751 62.7106 30.8744C62.4445 31.0745 62.0122 31.2071 61.4468 31.2071H58.5865C57.9549 31.2071 57.5221 31.1074 57.2565 30.8744C56.9901 30.6417 56.7574 30.2093 56.6244 29.5443L51.4689 8.09204L46.3471 29.5109C46.1807 30.176 45.9814 30.6084 45.7154 30.841C45.449 31.0741 44.9837 31.1737 44.3849 31.1737H41.5251ZM84.2629 32.0722C82.5334 32.0722 80.8039 31.8721 79.1411 31.4731C77.4779 31.0741 76.1808 30.6417 75.316 30.143C74.784 29.8437 74.4183 29.5109 74.2849 29.2116C74.1556 28.9181 74.0878 28.6012 74.0856 28.2805V26.584C74.0856 25.8856 74.3516 25.5533 74.8507 25.5533C75.0542 25.554 75.2563 25.5876 75.4491 25.6529C75.6488 25.7196 75.9481 25.8523 76.2808 25.9857C77.4555 26.5022 78.6819 26.8923 79.9391 27.1494C81.2418 27.4139 82.5676 27.5477 83.8968 27.5488C85.992 27.5488 87.6222 27.1827 88.7529 26.451C89.8837 25.7193 90.4824 24.6552 90.4824 23.2914C90.4824 22.3603 90.1831 21.5952 89.5839 20.9635C88.9856 20.3315 87.8548 19.7661 86.2254 19.2341L81.4026 17.7372C78.9747 16.9721 77.1785 15.8414 76.0811 14.345C74.9837 12.8815 74.4183 11.2517 74.4183 9.52216C74.4183 8.12539 74.7173 6.89497 75.316 5.83052C75.9148 4.76607 76.7128 3.83502 77.711 3.10328C78.7087 2.33819 79.8395 1.7732 81.1699 1.37379C82.5 0.974768 83.8968 0.808411 85.3603 0.808411C86.092 0.808411 86.8571 0.841761 87.5888 0.94181C88.3539 1.04108 89.0523 1.17408 89.7507 1.30748C90.4157 1.47345 91.0478 1.63981 91.6461 1.83951C92.2449 2.03883 92.7106 2.23853 93.0429 2.43824C93.509 2.70426 93.8413 2.97027 94.0411 3.26964C94.2404 3.53565 94.3404 3.90132 94.3404 4.36705V5.93018C94.3404 6.62856 94.0744 6.99463 93.5753 6.99463C93.3093 6.99463 92.8769 6.86123 92.3116 6.59561C90.4157 5.73086 88.2872 5.29849 85.9256 5.29849C84.0302 5.29849 82.5334 5.59786 81.5023 6.22954C80.4712 6.86123 79.9391 7.82642 79.9391 9.18984C79.9391 10.1209 80.2718 10.9193 80.9369 11.551C81.6019 12.1827 82.8327 12.8148 84.5956 13.3802L89.3183 14.877C91.7128 15.6421 93.4423 16.7061 94.4734 18.0699C95.5045 19.4334 96.0036 20.9969 96.0036 22.726C96.0036 24.1561 95.7038 25.4532 95.1385 26.584C94.5397 27.7148 93.7417 28.7129 92.7106 29.5109C91.6795 30.3427 90.4491 30.9411 89.0186 31.3734C87.5221 31.8392 85.959 32.0718 84.2629 32.0718V32.0722Z" fill="#fff"/>
<path d="M90.5488 48.236C79.6064 56.3176 63.7087 60.608 50.0392 60.608C30.8822 60.608 13.621 53.5241 0.583163 41.7504C-0.447939 40.8189 0.483505 39.5552 1.71392 40.2869C15.8158 48.4686 33.2104 53.424 51.2033 53.424C63.3427 53.424 76.6799 50.8965 88.9523 45.708C90.7818 44.8762 92.3449 46.9055 90.5491 48.2356L90.5488 48.236ZM95.1051 43.0475C93.7084 41.2513 85.8594 42.1827 82.3007 42.6151C81.2363 42.7481 81.0699 41.8167 82.0343 41.1183C88.2872 36.7279 98.5641 37.992 99.7616 39.4555C100.959 40.9519 99.4289 51.2292 93.5754 56.1513C92.6773 56.9164 91.8125 56.5173 92.2119 55.5196C93.542 52.227 96.5023 44.8099 95.1051 43.0475V43.0475Z" fill="#FF9900"/>
</g>
<defs>
<clipPath id="clip0_107_2">
<rect width="100" height="59.7996" fill="white" transform="translate(0.140198 0.808411)"/>
</clipPath>
</defs>
</svg>
