<svg width="20" height="20" viewBox="0 0 20 20" fill="none" xmlns="http://www.w3.org/2000/svg">
<g clip-path="url(#clip0_719_2)">
<mask id="mask0_719_2" style="mask-type:luminance" maskUnits="userSpaceOnUse" x="0" y="0" width="20" height="20">
<path d="M19.9593 0.0118408H0.0371094V19.934H19.9593V0.0118408Z" fill="white"/>
</mask>
<g mask="url(#mask0_719_2)">
<path d="M19.9593 0.0118408H0.0371094V19.934H19.9593V0.0118408Z" fill="url(#paint0_linear_719_2)"/>
<path d="M14.2316 15.2024C14.2316 14.7975 13.8894 14.4553 13.4845 14.4553C13.0796 14.4553 12.7375 14.7975 12.7375 15.2024C12.7375 15.6074 13.0796 15.9496 13.4845 15.9496C13.8894 15.9496 14.2316 15.6074 14.2316 15.2024ZM9.99816 14.9534C9.59326 14.9534 9.25108 15.2956 9.25108 15.7005C9.25108 16.1054 9.59326 16.4476 9.99816 16.4476C10.4031 16.4476 10.7452 16.1054 10.7452 15.7005C10.7452 15.2956 10.4031 14.9534 9.99816 14.9534ZM6.51177 14.4553C6.10685 14.4553 5.76469 14.7975 5.76469 15.2024C5.76469 15.6074 6.10685 15.9496 6.51177 15.9496C6.91669 15.9496 7.25885 15.6074 7.25885 15.2024C7.25885 14.7975 6.91669 14.4553 6.51177 14.4553ZM7.16049 10.7198H12.8358L10.9293 9.00427L10.1598 9.66373C10.1135 9.7038 10.0554 9.72373 9.99793 9.72373C9.94042 9.72373 9.88236 9.7038 9.83606 9.66373L9.0668 9.00427L7.16049 10.7198ZM6.7608 7.02772V10.4098L8.68555 8.67758L6.7608 7.02772ZM12.8114 6.73535H7.18489L9.99793 9.14676L12.8114 6.73535ZM13.2355 10.4098V7.02772L11.3108 8.67727L13.2355 10.4098ZM14.7297 15.2024C14.7297 15.8773 14.1594 16.4476 13.4845 16.4476C12.8097 16.4476 12.2394 15.8773 12.2394 15.2024C12.2394 14.6124 12.6752 14.1027 13.2355 13.9836V13.2102H10.2472V14.4817C10.8075 14.6008 11.2433 15.1106 11.2433 15.7005C11.2433 16.3754 10.673 16.9457 9.99816 16.9457C9.3233 16.9457 8.75303 16.3754 8.75303 15.7005C8.75303 15.1106 9.18882 14.6008 9.74913 14.4817V13.2102H6.7608V13.9836C7.32111 14.1027 7.75691 14.6124 7.75691 15.2024C7.75691 15.8773 7.18664 16.4476 6.51177 16.4476C5.83691 16.4476 5.26664 15.8773 5.26664 15.2024C5.26664 14.6124 5.70243 14.1027 6.26274 13.9836V12.9612C6.26274 12.8236 6.37406 12.7121 6.51177 12.7121H9.74913V11.2179H6.51177C6.37406 11.2179 6.26274 11.1064 6.26274 10.9689V6.48632C6.26274 6.34885 6.37406 6.23729 6.51177 6.23729H13.4845C13.6223 6.23729 13.7336 6.34885 13.7336 6.48632V10.9689C13.7336 11.1064 13.6223 11.2179 13.4845 11.2179H10.2472V12.7121H13.4845C13.6223 12.7121 13.7336 12.8236 13.7336 12.9612V13.9836C14.2939 14.1027 14.7297 14.6124 14.7297 15.2024ZM16.9709 9.97275C16.9709 11.4438 16.5169 12.8516 15.6578 14.0432L15.2536 13.7518C16.0512 12.6454 16.4729 11.3387 16.4729 9.97275C16.4729 6.40289 13.5684 3.49818 9.9984 3.49818C6.4281 3.49818 3.52345 6.40289 3.52345 9.97275C3.52345 11.3387 3.94505 12.6454 4.74268 13.7518L4.33851 14.0432C3.47937 12.8516 3.02539 11.4438 3.02539 9.97275C3.02539 6.12821 6.15342 3.00012 9.99793 3.00012C13.8427 3.00012 16.9709 6.12821 16.9709 9.97275Z" fill="white"/>
</g>
</g>
<defs>
<linearGradient id="paint0_linear_719_2" x1="0.0371094" y1="19.934" x2="19.9593" y2="0.0118426" gradientUnits="userSpaceOnUse">
<stop stop-color="#BD0816"/>
<stop offset="1" stop-color="#FF5252"/>
</linearGradient>
<clipPath id="clip0_719_2">
<rect width="20" height="20" rx="5" fill="white"/>
</clipPath>
</defs>
</svg>
