<svg width="100" height="100" viewBox="0 0 100 100" fill="none" xmlns="http://www.w3.org/2000/svg">
<path d="M100 0H0V100H100V0Z" fill="url(#paint0_linear_46_14)"/>
<path d="M71.25 76.2498C71.25 74.2173 69.5325 72.4998 67.5 72.4998C65.4675 72.4998 63.75 74.2173 63.75 76.2498C63.75 78.2824 65.4675 79.9999 67.5 79.9999C69.5325 79.9999 71.25 78.2824 71.25 76.2498ZM50 74.9998C47.9675 74.9998 46.25 76.7174 46.25 78.7499C46.25 80.7824 47.9675 82.5 50 82.5C52.0325 82.5 53.75 80.7824 53.75 78.7499C53.75 76.7174 52.0325 74.9998 50 74.9998ZM32.5 72.4998C30.4675 72.4998 28.75 74.2173 28.75 76.2498C28.75 78.2824 30.4675 79.9999 32.5 79.9999C34.5325 79.9999 36.25 78.2824 36.25 76.2498C36.25 74.2173 34.5325 72.4998 32.5 72.4998ZM35.7563 53.7494H64.2438L54.6738 45.138L50.8113 48.4481C50.5788 48.6494 50.2875 48.7494 49.9988 48.7494C49.71 48.7494 49.4188 48.6494 49.1863 48.4481L45.325 45.138L35.7563 53.7494ZM33.75 35.2166V52.1932L43.4113 43.498L33.75 35.2166ZM64.1213 33.7491H35.8788L49.9988 45.8531L64.1213 33.7491ZM66.25 52.1932V35.2166L56.5888 43.4968L66.25 52.1932ZM73.75 76.2498C73.75 79.6374 70.8875 82.5 67.5 82.5C64.1125 82.5 61.25 79.6374 61.25 76.2498C61.25 73.2885 63.4375 70.7297 66.25 70.1322V66.2497H51.25V72.6323C54.0625 73.2298 56.25 75.7886 56.25 78.7499C56.25 82.1375 53.3875 85 50 85C46.6125 85 43.75 82.1375 43.75 78.7499C43.75 75.7886 45.9375 73.2298 48.75 72.6323V66.2497H33.75V70.1322C36.5625 70.7297 38.75 73.2885 38.75 76.2498C38.75 79.6374 35.8875 82.5 32.5 82.5C29.1125 82.5 26.25 79.6374 26.25 76.2498C26.25 73.2885 28.4375 70.7297 31.25 70.1322V64.9996C31.25 64.3096 31.8087 63.7496 32.5 63.7496H48.75V56.2495H32.5C31.8087 56.2495 31.25 55.6895 31.25 54.9995V32.4991C31.25 31.8091 31.8087 31.249 32.5 31.249H67.5C68.1913 31.249 68.75 31.8091 68.75 32.4991V54.9995C68.75 55.6895 68.1913 56.2495 67.5 56.2495H51.25V63.7496H67.5C68.1913 63.7496 68.75 64.3096 68.75 64.9996V70.1322C71.5625 70.7297 73.75 73.2885 73.75 76.2498ZM85 49.9994C85 57.3833 82.7212 64.4496 78.4087 70.431L76.38 68.9685C80.3838 63.4146 82.5 56.8557 82.5 49.9994C82.5 32.0803 67.9213 17.5 50.0013 17.5C32.08 17.5 17.5 32.0803 17.5 49.9994C17.5 56.8557 19.6163 63.4146 23.62 68.9685L21.5913 70.431C17.2788 64.4496 15 57.3833 15 49.9994C15 30.7015 30.7013 15 49.9988 15C69.2975 15 85 30.7015 85 49.9994Z" fill="white"/>
<defs>
<linearGradient id="paint0_linear_46_14" x1="0" y1="100" x2="100" y2="0" gradientUnits="userSpaceOnUse">
<stop stop-color="#BD0816"/>
<stop offset="1" stop-color="#FF5252"/>
</linearGradient>
</defs>
</svg>
