<svg width="51" height="31" viewBox="0 0 51 31" fill="none" xmlns="http://www.w3.org/2000/svg">
<g clip-path="url(#clip0_608_44)">
<path d="M14.112 11.1244C14.0961 11.6247 14.1602 12.1244 14.302 12.6044C14.4481 13.0156 14.6287 13.4137 14.842 13.7944C14.9146 13.9084 14.956 14.0394 14.962 14.1744C14.9515 14.2757 14.9169 14.3729 14.8613 14.4581C14.8056 14.5434 14.7304 14.6141 14.642 14.6644L13.642 15.3644C13.5126 15.4553 13.36 15.5073 13.202 15.5144C13.109 15.5111 13.0177 15.489 12.9335 15.4495C12.8493 15.4099 12.7739 15.3538 12.712 15.2844C12.4797 15.0546 12.2781 14.7958 12.112 14.5144C11.9453 14.2344 11.7753 13.9011 11.602 13.5144C11.0163 14.2454 10.2712 14.8327 9.42362 15.2313C8.57605 15.63 7.64851 15.8294 6.71199 15.8144C6.1072 15.8476 5.50189 15.7593 4.93171 15.555C4.36154 15.3506 3.83802 15.0342 3.39199 14.6244C2.9788 14.2041 2.65709 13.7028 2.44712 13.1521C2.23716 12.6014 2.14348 12.0131 2.17199 11.4244C2.14548 10.7846 2.2629 10.1469 2.51558 9.55849C2.76826 8.97005 3.14977 8.44581 3.63199 8.02442C4.78988 7.11259 6.24037 6.65398 7.71199 6.73442C8.30099 6.73613 8.88913 6.77957 9.47199 6.86442C10.0853 6.95109 10.722 7.07108 11.382 7.22442V6.00442C11.4791 5.04833 11.1952 4.09251 10.592 3.34442C9.82022 2.75093 8.85052 2.47541 7.88199 2.57442C7.27877 2.57747 6.678 2.65131 6.09199 2.79442C5.48215 2.94025 4.88387 3.13076 4.30199 3.36442C4.11389 3.45086 3.9201 3.52436 3.72199 3.58442H3.46199C3.22866 3.58442 3.11199 3.41108 3.11199 3.06442V2.27442C3.09769 2.07371 3.13922 1.87297 3.23199 1.69442C3.35733 1.5407 3.51881 1.42045 3.70199 1.34442C4.37126 1.0238 5.07157 0.772487 5.79199 0.594418C6.63804 0.377184 7.50851 0.269636 8.38199 0.274418C9.95307 0.135179 11.5158 0.620162 12.732 1.62442C13.2264 2.17754 13.6036 2.82514 13.8408 3.5281C14.078 4.23106 14.1703 4.97481 14.112 5.71442V11.1244ZM7.36199 13.6544C7.94842 13.6459 8.52948 13.5412 9.08199 13.3444C9.69104 13.1335 10.2329 12.7641 10.652 12.2744C10.9102 11.9865 11.1014 11.645 11.212 11.2744C11.3271 10.8033 11.3809 10.3193 11.372 9.83442V9.13442C10.8674 9.01349 10.3567 8.92002 9.84199 8.85442C9.32462 8.78823 8.80358 8.75483 8.28199 8.75442C7.40627 8.68874 6.53449 8.92522 5.81199 9.42442C5.55103 9.65464 5.34471 9.94016 5.20805 10.2602C5.07139 10.5802 5.00782 10.9267 5.02199 11.2744C4.99835 11.5939 5.04026 11.9148 5.14516 12.2174C5.25006 12.5201 5.41573 12.7981 5.63199 13.0344C5.86548 13.2463 6.13845 13.4102 6.4353 13.5166C6.73214 13.6229 7.04704 13.6698 7.36199 13.6544ZM20.712 15.4544C20.4867 15.475 20.2611 15.4186 20.072 15.2944C19.895 15.1161 19.7734 14.8904 19.722 14.6444L15.832 1.78442C15.7565 1.56756 15.7062 1.34276 15.682 1.11442C15.6735 1.05863 15.6783 1.00163 15.6959 0.948013C15.7135 0.8944 15.7434 0.845676 15.7833 0.805774C15.8232 0.765872 15.872 0.735908 15.9256 0.718302C15.9792 0.700696 16.0362 0.69594 16.092 0.704418H17.722C17.9506 0.681496 18.1801 0.737997 18.372 0.864418C18.5375 1.04814 18.6513 1.27241 18.702 1.51442L21.492 12.5144L24.082 1.51442C24.122 1.2717 24.2374 1.04776 24.412 0.874418C24.6124 0.750729 24.8473 0.694645 25.082 0.714418H26.422C26.6567 0.694645 26.8915 0.750729 27.092 0.874418C27.2647 1.05177 27.3768 1.27935 27.412 1.52442L30.022 12.6644L32.902 1.52442C32.9551 1.28122 33.0725 1.05673 33.242 0.874418C33.4338 0.747997 33.6634 0.691496 33.892 0.714418H35.432C35.4878 0.70594 35.5448 0.710696 35.5984 0.728302C35.652 0.745908 35.7007 0.775872 35.7406 0.815774C35.7805 0.855676 35.8105 0.9044 35.8281 0.958013C35.8457 1.01163 35.8505 1.06863 35.842 1.12442C35.8503 1.21089 35.8503 1.29795 35.842 1.38442C35.8101 1.52332 35.77 1.66022 35.722 1.79442L31.722 14.6544C31.6706 14.9004 31.549 15.1261 31.372 15.3044C31.1829 15.4286 30.9573 15.485 30.732 15.4644H29.272C29.0355 15.4892 28.798 15.4289 28.602 15.2944C28.4304 15.1083 28.3189 14.8748 28.282 14.6244L25.692 3.91442L23.132 14.6144C23.095 14.8648 22.9835 15.0983 22.812 15.2844C22.616 15.4189 22.3784 15.4792 22.142 15.4544H20.712ZM42.072 15.8944C41.2104 15.8958 40.3515 15.7985 39.512 15.6044C38.8443 15.47 38.1983 15.2446 37.592 14.9344C37.4097 14.8572 37.2544 14.7276 37.1458 14.562C37.0372 14.3965 36.9802 14.2024 36.982 14.0044V13.1644C36.982 12.8178 37.1087 12.6444 37.362 12.6444C37.4681 12.646 37.573 12.6663 37.672 12.7044L38.092 12.8744C38.6789 13.1341 39.2926 13.3286 39.922 13.4544C40.58 13.5896 41.2502 13.6566 41.922 13.6544C42.7677 13.7045 43.6103 13.5138 44.352 13.1044C44.6227 12.9436 44.8452 12.7131 44.9965 12.4369C45.1478 12.1608 45.2222 11.8491 45.212 11.5344C45.2177 11.3209 45.1808 11.1083 45.1036 10.9092C45.0263 10.71 44.9102 10.5283 44.762 10.3744C44.2572 9.95142 43.6618 9.65031 43.022 9.49442L40.612 8.73442C39.5972 8.45244 38.6932 7.86609 38.022 7.05442C37.4859 6.36524 37.194 5.51753 37.192 4.64442C37.178 3.99906 37.3332 3.36127 37.642 2.79442C37.9408 2.26119 38.3458 1.79492 38.832 1.42442C39.3417 1.03685 39.9178 0.745426 40.532 0.564418C41.2112 0.368415 41.915 0.270756 42.622 0.274418C42.9964 0.274089 43.3705 0.297469 43.742 0.344418C44.122 0.391085 44.482 0.454418 44.822 0.534418C45.162 0.614418 45.4787 0.701085 45.772 0.794418C46.0135 0.870151 46.2477 0.9672 46.472 1.08442C46.6614 1.18652 46.8281 1.32601 46.962 1.49442C47.0677 1.6578 47.1201 1.84998 47.112 2.04442V2.83442C47.112 3.18108 46.9853 3.35442 46.732 3.35442C46.5078 3.32938 46.2905 3.26148 46.092 3.15442C45.0829 2.71609 43.992 2.49791 42.892 2.51442C42.1269 2.47464 41.3647 2.63673 40.682 2.98442C40.4262 3.13381 40.2169 3.35127 40.0775 3.61257C39.938 3.87388 39.8738 4.16878 39.892 4.46442C39.887 4.68438 39.928 4.90296 40.0124 5.10616C40.0968 5.30936 40.2227 5.49269 40.382 5.64442C40.921 6.07557 41.5444 6.38897 42.212 6.56442L44.572 7.27442C45.5714 7.53417 46.4678 8.09229 47.142 8.87442C47.6707 9.56067 47.9462 10.4085 47.922 11.2744C47.9308 11.9436 47.78 12.6052 47.482 13.2044C47.1908 13.7769 46.7778 14.2786 46.272 14.6744C45.7207 15.1002 45.0926 15.416 44.422 15.6044C43.6567 15.8136 42.8652 15.9113 42.072 15.8944Z" fill="#808080"/>
<path fill-rule="evenodd" clip-rule="evenodd" d="M45.2122 24.0843C39.7421 28.1243 31.8022 30.2743 25.0222 30.2743C15.8746 30.3345 7.03536 26.9708 0.242153 20.8443C-0.267847 20.3843 0.182153 19.7543 0.802153 20.1043C8.33809 24.4151 16.8704 26.68 25.5522 26.6743C32.0356 26.6395 38.4484 25.3243 44.4222 22.8043C45.3422 22.4143 46.1222 23.4143 45.2122 24.0843Z" fill="#808080"/>
<path fill-rule="evenodd" clip-rule="evenodd" d="M47.4921 21.4844C46.7921 20.5844 42.8621 21.0644 41.1021 21.2744C40.5721 21.3344 40.4821 20.8744 40.9621 20.5344C44.0921 18.3344 49.2321 18.9644 49.8221 19.7044C50.4121 20.4444 49.6621 25.5944 46.7321 28.0544C46.2821 28.4344 45.8521 28.2344 46.0521 27.7344C46.7121 26.0744 48.1921 22.3844 47.4921 21.4844Z" fill="#808080"/>
<path d="M14.112 11.1244C14.0961 11.6247 14.1602 12.1244 14.302 12.6044C14.4481 13.0156 14.6287 13.4137 14.842 13.7944C14.9146 13.9084 14.956 14.0394 14.962 14.1744C14.9515 14.2757 14.9169 14.3729 14.8613 14.4581C14.8056 14.5434 14.7304 14.6141 14.642 14.6644L13.642 15.3644C13.5126 15.4553 13.36 15.5073 13.202 15.5144C13.109 15.5111 13.0177 15.489 12.9335 15.4495C12.8493 15.4099 12.7739 15.3538 12.712 15.2844C12.4797 15.0546 12.2781 14.7958 12.112 14.5144C11.9453 14.2344 11.7753 13.9011 11.602 13.5144C11.0163 14.2454 10.2712 14.8327 9.42362 15.2313C8.57605 15.63 7.64851 15.8294 6.71199 15.8144C6.1072 15.8476 5.50189 15.7593 4.93171 15.555C4.36154 15.3506 3.83802 15.0342 3.39199 14.6244C2.9788 14.2041 2.65709 13.7028 2.44712 13.1521C2.23716 12.6014 2.14348 12.0131 2.17199 11.4244C2.14548 10.7846 2.2629 10.1469 2.51558 9.55849C2.76826 8.97005 3.14977 8.44581 3.63199 8.02442C4.78988 7.11259 6.24037 6.65398 7.71199 6.73442C8.30099 6.73613 8.88913 6.77957 9.47199 6.86442C10.0853 6.95109 10.722 7.07108 11.382 7.22442V6.00442C11.4791 5.04833 11.1952 4.09251 10.592 3.34442C9.82022 2.75093 8.85052 2.47541 7.88199 2.57442C7.27877 2.57747 6.678 2.65131 6.09199 2.79442C5.48215 2.94025 4.88387 3.13076 4.30199 3.36442C4.11389 3.45086 3.9201 3.52436 3.72199 3.58442H3.46199C3.22866 3.58442 3.11199 3.41108 3.11199 3.06442V2.27442C3.09769 2.07371 3.13922 1.87297 3.23199 1.69442C3.35733 1.5407 3.51881 1.42045 3.70199 1.34442C4.37126 1.0238 5.07157 0.772487 5.79199 0.594418C6.63804 0.377184 7.50851 0.269636 8.38199 0.274418C9.95307 0.135179 11.5158 0.620162 12.732 1.62442C13.2264 2.17754 13.6036 2.82514 13.8408 3.5281C14.078 4.23106 14.1703 4.97481 14.112 5.71442V11.1244ZM7.36199 13.6544C7.94842 13.6459 8.52948 13.5412 9.08199 13.3444C9.69104 13.1335 10.2329 12.7641 10.652 12.2744C10.9102 11.9865 11.1014 11.645 11.212 11.2744C11.3271 10.8033 11.3809 10.3193 11.372 9.83442V9.13442C10.8674 9.01349 10.3567 8.92002 9.84199 8.85442C9.32462 8.78823 8.80358 8.75483 8.28199 8.75442C7.40627 8.68874 6.53449 8.92522 5.81199 9.42442C5.55103 9.65464 5.34471 9.94016 5.20805 10.2602C5.07139 10.5802 5.00782 10.9267 5.02199 11.2744C4.99835 11.5939 5.04026 11.9148 5.14516 12.2174C5.25006 12.5201 5.41573 12.7981 5.63199 13.0344C5.86548 13.2463 6.13845 13.4102 6.4353 13.5166C6.73214 13.6229 7.04704 13.6698 7.36199 13.6544ZM20.712 15.4544C20.4867 15.475 20.2611 15.4186 20.072 15.2944C19.895 15.1161 19.7734 14.8904 19.722 14.6444L15.832 1.78442C15.7565 1.56756 15.7062 1.34276 15.682 1.11442C15.6735 1.05863 15.6783 1.00163 15.6959 0.948013C15.7135 0.8944 15.7434 0.845676 15.7833 0.805774C15.8232 0.765872 15.872 0.735908 15.9256 0.718302C15.9792 0.700696 16.0362 0.69594 16.092 0.704418H17.722C17.9506 0.681496 18.1801 0.737997 18.372 0.864418C18.5375 1.04814 18.6513 1.27241 18.702 1.51442L21.492 12.5144L24.082 1.51442C24.122 1.2717 24.2374 1.04776 24.412 0.874418C24.6124 0.750729 24.8473 0.694645 25.082 0.714418H26.422C26.6567 0.694645 26.8915 0.750729 27.092 0.874418C27.2647 1.05177 27.3768 1.27935 27.412 1.52442L30.022 12.6644L32.902 1.52442C32.9551 1.28122 33.0725 1.05673 33.242 0.874418C33.4338 0.747997 33.6634 0.691496 33.892 0.714418H35.432C35.4878 0.70594 35.5448 0.710696 35.5984 0.728302C35.652 0.745908 35.7007 0.775872 35.7406 0.815774C35.7805 0.855676 35.8105 0.9044 35.8281 0.958013C35.8457 1.01163 35.8505 1.06863 35.842 1.12442C35.8503 1.21089 35.8503 1.29795 35.842 1.38442C35.8101 1.52332 35.77 1.66022 35.722 1.79442L31.722 14.6544C31.6706 14.9004 31.549 15.1261 31.372 15.3044C31.1829 15.4286 30.9573 15.485 30.732 15.4644H29.272C29.0355 15.4892 28.798 15.4289 28.602 15.2944C28.4304 15.1083 28.3189 14.8748 28.282 14.6244L25.692 3.91442L23.132 14.6144C23.095 14.8648 22.9835 15.0983 22.812 15.2844C22.616 15.4189 22.3784 15.4792 22.142 15.4544H20.712ZM42.072 15.8944C41.2104 15.8958 40.3515 15.7985 39.512 15.6044C38.8443 15.47 38.1983 15.2446 37.592 14.9344C37.4097 14.8572 37.2544 14.7276 37.1458 14.562C37.0372 14.3965 36.9802 14.2024 36.982 14.0044V13.1644C36.982 12.8178 37.1087 12.6444 37.362 12.6444C37.4681 12.646 37.573 12.6663 37.672 12.7044L38.092 12.8744C38.6789 13.1341 39.2926 13.3286 39.922 13.4544C40.58 13.5896 41.2502 13.6566 41.922 13.6544C42.7677 13.7045 43.6103 13.5138 44.352 13.1044C44.6227 12.9436 44.8452 12.7131 44.9965 12.4369C45.1478 12.1608 45.2222 11.8491 45.212 11.5344C45.2177 11.3209 45.1808 11.1083 45.1036 10.9092C45.0263 10.71 44.9102 10.5283 44.762 10.3744C44.2572 9.95142 43.6618 9.65031 43.022 9.49442L40.612 8.73442C39.5972 8.45244 38.6932 7.86609 38.022 7.05442C37.4859 6.36524 37.194 5.51753 37.192 4.64442C37.178 3.99906 37.3332 3.36127 37.642 2.79442C37.9408 2.26119 38.3458 1.79492 38.832 1.42442C39.3417 1.03685 39.9178 0.745426 40.532 0.564418C41.2112 0.368415 41.915 0.270756 42.622 0.274418C42.9964 0.274089 43.3705 0.297469 43.742 0.344418C44.122 0.391085 44.482 0.454418 44.822 0.534418C45.162 0.614418 45.4787 0.701085 45.772 0.794418C46.0135 0.870151 46.2477 0.9672 46.472 1.08442C46.6614 1.18652 46.8281 1.32601 46.962 1.49442C47.0677 1.6578 47.1201 1.84998 47.112 2.04442V2.83442C47.112 3.18108 46.9853 3.35442 46.732 3.35442C46.5078 3.32938 46.2905 3.26148 46.092 3.15442C45.0829 2.71609 43.992 2.49791 42.892 2.51442C42.1269 2.47464 41.3647 2.63673 40.682 2.98442C40.4262 3.13381 40.2169 3.35127 40.0775 3.61257C39.938 3.87388 39.8738 4.16878 39.892 4.46442C39.887 4.68438 39.928 4.90296 40.0124 5.10616C40.0968 5.30936 40.2227 5.49269 40.382 5.64442C40.921 6.07557 41.5444 6.38897 42.212 6.56442L44.572 7.27442C45.5714 7.53417 46.4678 8.09229 47.142 8.87442C47.6707 9.56067 47.9462 10.4085 47.922 11.2744C47.9308 11.9436 47.78 12.6052 47.482 13.2044C47.1908 13.7769 46.7778 14.2786 46.272 14.6744C45.7207 15.1002 45.0926 15.416 44.422 15.6044C43.6567 15.8136 42.8652 15.9113 42.072 15.8944Z" fill="#808080"/>
<path fill-rule="evenodd" clip-rule="evenodd" d="M45.2122 24.0843C39.7421 28.1243 31.8022 30.2743 25.0222 30.2743C15.8746 30.3345 7.03536 26.9708 0.242153 20.8443C-0.267847 20.3843 0.182153 19.7543 0.802153 20.1043C8.33809 24.4151 16.8704 26.68 25.5522 26.6743C32.0356 26.6395 38.4484 25.3243 44.4222 22.8043C45.3422 22.4143 46.1222 23.4143 45.2122 24.0843Z" fill="#808080"/>
<path fill-rule="evenodd" clip-rule="evenodd" d="M47.4921 21.4844C46.7921 20.5844 42.8621 21.0644 41.1021 21.2744C40.5721 21.3344 40.4821 20.8744 40.9621 20.5344C44.0921 18.3344 49.2321 18.9644 49.8221 19.7044C50.4121 20.4444 49.6621 25.5944 46.7321 28.0544C46.2821 28.4344 45.8521 28.2344 46.0521 27.7344C46.7121 26.0744 48.1921 22.3844 47.4921 21.4844Z" fill="#808080"/>
</g>
<defs>
<clipPath id="clip0_608_44">
<rect width="50" height="30" fill="white" transform="translate(0.0219727 0.274414)"/>
</clipPath>
</defs>
</svg>
