<svg width="50" height="50" viewBox="0 0 50 50" fill="none" xmlns="http://www.w3.org/2000/svg">
<g clip-path="url(#clip0_703_2)">
<path d="M50 0H0V50H50V0Z" fill="url(#paint0_linear_703_2)"/>
<path d="M35.625 38.1249C35.625 37.1087 34.7663 36.2499 33.75 36.2499C32.7338 36.2499 31.875 37.1087 31.875 38.1249C31.875 39.1412 32.7338 40 33.75 40C34.7663 40 35.625 39.1412 35.625 38.1249ZM25 37.4999C23.9838 37.4999 23.125 38.3587 23.125 39.3749C23.125 40.3912 23.9838 41.25 25 41.25C26.0163 41.25 26.875 40.3912 26.875 39.3749C26.875 38.3587 26.0163 37.4999 25 37.4999ZM16.25 36.2499C15.2337 36.2499 14.375 37.1087 14.375 38.1249C14.375 39.1412 15.2337 40 16.25 40C17.2662 40 18.125 39.1412 18.125 38.1249C18.125 37.1087 17.2662 36.2499 16.25 36.2499ZM17.8781 26.8747H32.1219L27.3369 22.569L25.4056 24.224C25.2894 24.3247 25.1438 24.3747 24.9994 24.3747C24.855 24.3747 24.7094 24.3247 24.5931 24.224L22.6625 22.569L17.8781 26.8747ZM16.875 17.6083V26.0966L21.7056 21.749L16.875 17.6083ZM32.0606 16.8745H17.9394L24.9994 22.9265L32.0606 16.8745ZM33.125 26.0966V17.6083L28.2944 21.7484L33.125 26.0966ZM36.875 38.1249C36.875 39.8187 35.4438 41.25 33.75 41.25C32.0563 41.25 30.625 39.8187 30.625 38.1249C30.625 36.6443 31.7188 35.3649 33.125 35.0661V33.1248H25.625V36.3161C27.0313 36.6149 28.125 37.8943 28.125 39.3749C28.125 41.0687 26.6938 42.5 25 42.5C23.3063 42.5 21.875 41.0687 21.875 39.3749C21.875 37.8943 22.9688 36.6149 24.375 36.3161V33.1248H16.875V35.0661C18.2813 35.3649 19.375 36.6443 19.375 38.1249C19.375 39.8187 17.9437 41.25 16.25 41.25C14.5562 41.25 13.125 39.8187 13.125 38.1249C13.125 36.6443 14.2188 35.3649 15.625 35.0661V32.4998C15.625 32.1548 15.9044 31.8748 16.25 31.8748H24.375V28.1247H16.25C15.9044 28.1247 15.625 27.8447 15.625 27.4997V16.2495C15.625 15.9045 15.9044 15.6245 16.25 15.6245H33.75C34.0956 15.6245 34.375 15.9045 34.375 16.2495V27.4997C34.375 27.8447 34.0956 28.1247 33.75 28.1247H25.625V31.8748H33.75C34.0956 31.8748 34.375 32.1548 34.375 32.4998V35.0661C35.7813 35.3649 36.875 36.6443 36.875 38.1249ZM42.5 24.9997C42.5 28.6916 41.3606 32.2248 39.2044 35.2155L38.19 34.4842C40.1919 31.7073 41.25 28.4279 41.25 24.9997C41.25 16.0402 33.9606 8.75002 25.0006 8.75002C16.04 8.75002 8.75 16.0402 8.75 24.9997C8.75 28.4279 9.80813 31.7073 11.81 34.4842L10.7956 35.2155C8.63938 32.2248 7.5 28.6916 7.5 24.9997C7.5 15.3508 15.3506 7.5 24.9994 7.5C34.6488 7.5 42.5 15.3508 42.5 24.9997Z" fill="white"/>
</g>
<defs>
<linearGradient id="paint0_linear_703_2" x1="0" y1="50" x2="50" y2="0" gradientUnits="userSpaceOnUse">
<stop stop-color="#636363"/>
<stop offset="1" stop-color="#A9A9A9"/>
</linearGradient>
<clipPath id="clip0_703_2">
<rect width="50" height="50" fill="white"/>
</clipPath>
</defs>
</svg>
