<svg width="65" height="50" viewBox="0 0 65 50" fill="none" xmlns="http://www.w3.org/2000/svg">
<g clip-path="url(#clip0_709_15)">
<path d="M29.8638 47.3301C38.1573 45.865 45.0072 44.6526 45.0859 44.636L45.2291 44.6057L37.3991 35.2922C33.0927 30.1698 29.5693 25.9588 29.5693 25.9345C29.5693 25.8887 37.6543 3.62421 37.6996 3.54478C37.7148 3.51856 43.2169 13.0177 51.0371 26.572C58.3586 39.2614 64.3948 49.7241 64.4508 49.8219L64.5529 50.0002L39.6688 49.9971L14.7846 49.9939L29.8638 47.3301ZM0 44.49C0 44.4769 3.68935 38.0723 8.19872 30.2576L16.3974 16.0491L25.952 8.0307C31.2073 3.62068 35.521 0.00697967 35.5381 0.000423512C35.5555 -0.00613264 35.4864 0.167858 35.3846 0.387237C35.2827 0.606616 30.614 10.6204 25.0095 22.6403L14.8197 44.495L7.40971 44.5043C3.33431 44.5094 0 44.5031 0 44.49Z" fill="#0089D6"/>
</g>
<defs>
<clipPath id="clip0_709_15">
<rect width="64.5529" height="50" fill="white"/>
</clipPath>
</defs>
</svg>
