<svg width="24" height="25" viewBox="0 0 24 25" fill="none" xmlns="http://www.w3.org/2000/svg">
<mask id="mask0_302_25" style="mask-type:alpha" maskUnits="userSpaceOnUse" x="0" y="0" width="24" height="25">
<rect y="0.949463" width="24" height="24" fill="#D9D9D9"/>
</mask>
<g mask="url(#mask0_302_25)">
<path d="M8 9.94946C8.28333 9.94946 8.521 9.85346 8.713 9.66146C8.90433 9.47013 9 9.2328 9 8.94946C9 8.66613 8.90433 8.42846 8.713 8.23646C8.521 8.04513 8.28333 7.94946 8 7.94946C7.71667 7.94946 7.479 8.04513 7.287 8.23646C7.09567 8.42846 7 8.66613 7 8.94946C7 9.2328 7.09567 9.47013 7.287 9.66146C7.479 9.85346 7.71667 9.94946 8 9.94946ZM8 13.9495C8.28333 13.9495 8.521 13.8535 8.713 13.6615C8.90433 13.4701 9 13.2328 9 12.9495C9 12.6661 8.90433 12.4285 8.713 12.2365C8.521 12.0451 8.28333 11.9495 8 11.9495C7.71667 11.9495 7.479 12.0451 7.287 12.2365C7.09567 12.4285 7 12.6661 7 12.9495C7 13.2328 7.09567 13.4701 7.287 13.6615C7.479 13.8535 7.71667 13.9495 8 13.9495ZM8 17.9495C8.28333 17.9495 8.521 17.8535 8.713 17.6615C8.90433 17.4701 9 17.2328 9 16.9495C9 16.6661 8.90433 16.4285 8.713 16.2365C8.521 16.0451 8.28333 15.9495 8 15.9495C7.71667 15.9495 7.479 16.0451 7.287 16.2365C7.09567 16.4285 7 16.6661 7 16.9495C7 17.2328 7.09567 17.4701 7.287 17.6615C7.479 17.8535 7.71667 17.9495 8 17.9495ZM5 21.9495C4.45 21.9495 3.979 21.7538 3.587 21.3625C3.19567 20.9705 3 20.4995 3 19.9495V5.94946C3 5.39946 3.19567 4.92846 3.587 4.53646C3.979 4.14513 4.45 3.94946 5 3.94946H16L21 8.94946V19.9495C21 20.4995 20.8043 20.9705 20.413 21.3625C20.021 21.7538 19.55 21.9495 19 21.9495H5ZM5 19.9495H19V9.94946H15V5.94946H5V19.9495Z" fill="#1C1B1F"/>
</g>
</svg>
