<svg width="24" height="25" viewBox="0 0 24 25" fill="none" xmlns="http://www.w3.org/2000/svg">
<mask id="mask0_402_55" style="mask-type:alpha" maskUnits="userSpaceOnUse" x="0" y="0" width="24" height="25">
<rect y="0.949463" width="24" height="24" fill="#D9D9D9"/>
</mask>
<g mask="url(#mask0_402_55)">
<path d="M8 9.84946C8.25 9.84946 8.46233 9.7618 8.637 9.58646C8.81233 9.4118 8.9 9.19946 8.9 8.94946C8.9 8.69946 8.81233 8.4868 8.637 8.31146C8.46233 8.1368 8.25 8.04946 8 8.04946C7.75 8.04946 7.53767 8.1368 7.363 8.31146C7.18767 8.4868 7.1 8.69946 7.1 8.94946C7.1 9.19946 7.18767 9.4118 7.363 9.58646C7.53767 9.7618 7.75 9.84946 8 9.84946ZM8 13.8495C8.25 13.8495 8.46233 13.7618 8.637 13.5865C8.81233 13.4118 8.9 13.1995 8.9 12.9495C8.9 12.6995 8.81233 12.4871 8.637 12.3125C8.46233 12.1371 8.25 12.0495 8 12.0495C7.75 12.0495 7.53767 12.1371 7.363 12.3125C7.18767 12.4871 7.1 12.6995 7.1 12.9495C7.1 13.1995 7.18767 13.4118 7.363 13.5865C7.53767 13.7618 7.75 13.8495 8 13.8495ZM8 17.8495C8.25 17.8495 8.46233 17.7618 8.637 17.5865C8.81233 17.4118 8.9 17.1995 8.9 16.9495C8.9 16.6995 8.81233 16.4871 8.637 16.3125C8.46233 16.1371 8.25 16.0495 8 16.0495C7.75 16.0495 7.53767 16.1371 7.363 16.3125C7.18767 16.4871 7.1 16.6995 7.1 16.9495C7.1 17.1995 7.18767 17.4118 7.363 17.5865C7.53767 17.7618 7.75 17.8495 8 17.8495ZM5.3 21.4495C4.8 21.4495 4.375 21.2745 4.025 20.9245C3.675 20.5745 3.5 20.1495 3.5 19.6495V6.24946C3.5 5.74946 3.675 5.32446 4.025 4.97446C4.375 4.62446 4.8 4.44946 5.3 4.44946H15.8L20.5 9.14946V19.6495C20.5 20.1495 20.325 20.5745 19.975 20.9245C19.625 21.2745 19.2 21.4495 18.7 21.4495H5.3ZM5.3 19.9495H18.7C18.7833 19.9495 18.8543 19.9205 18.913 19.8625C18.971 19.8038 19 19.7328 19 19.6495V9.94946H15V5.94946H5.3C5.21667 5.94946 5.146 5.9788 5.088 6.03746C5.02933 6.09546 5 6.16613 5 6.24946V19.6495C5 19.7328 5.02933 19.8038 5.088 19.8625C5.146 19.9205 5.21667 19.9495 5.3 19.9495Z" fill="#1C1B1F"/>
</g>
</svg>
