<svg width="25" height="25" viewBox="0 0 25 25" fill="none" xmlns="http://www.w3.org/2000/svg">
<mask id="mask0_1007_7" style="mask-type:alpha" maskUnits="userSpaceOnUse" x="0" y="0" width="25" height="25">
<rect x="0.0101318" y="0.175415" width="24" height="24" fill="#D9D9D9"/>
</mask>
<g mask="url(#mask0_1007_7)">
<path d="M8.41011 16.8292L12.0101 13.2292L15.6101 16.8292L16.6639 15.7754L13.0639 12.1754L16.6639 8.57539L15.6101 7.52157L12.0101 11.1216L8.41011 7.52157L7.35628 8.57539L10.9563 12.1754L7.35628 15.7754L8.41011 16.8292ZM12.0118 21.6754C10.6978 21.6754 9.46282 21.426 8.30668 20.9274C7.15053 20.4287 6.14485 19.752 5.28963 18.8971C4.4344 18.0423 3.75734 17.037 3.25846 15.8814C2.75957 14.7258 2.51013 13.491 2.51013 12.1771C2.51013 10.8631 2.75947 9.6281 3.25813 8.47197C3.7568 7.31582 4.43355 6.31013 5.28838 5.45492C6.14323 4.59968 7.14847 3.92262 8.30411 3.42374C9.45972 2.92486 10.6945 2.67542 12.0084 2.67542C13.3224 2.67542 14.5574 2.92475 15.7135 3.42342C16.8697 3.92208 17.8754 4.59883 18.7306 5.45367C19.5858 6.30852 20.2629 7.31376 20.7618 8.46939C21.2606 9.62501 21.5101 10.8598 21.5101 12.1737C21.5101 13.4877 21.2607 14.7227 20.7621 15.8788C20.2634 17.035 19.5867 18.0406 18.7318 18.8959C17.877 19.7511 16.8717 20.4282 15.7161 20.927C14.5605 21.4259 13.3257 21.6754 12.0118 21.6754Z" fill="#FF0000"/>
</g>
</svg>
