<svg width="292" height="197" viewBox="0 0 292 197" fill="none" xmlns="http://www.w3.org/2000/svg">
<g filter="url(#filter0_i_1_7790)">
<path d="M243.572 67.8665C228.646 28.2038 190.615 0 146.065 0C101.516 0 63.4839 28.171 48.558 67.8337C20.629 75.2212 0 100.831 0 131.333C0 167.614 29.1674 197 65.146 197H226.854C262.833 197 292 167.614 292 131.333C292 100.897 271.436 75.2868 243.572 67.8665ZM255.402 160.128C247.776 167.811 237.641 172.047 226.854 172.047H65.146C54.3589 172.047 44.2237 167.811 36.5978 160.128C28.9719 152.445 24.7679 142.201 24.7679 131.333C24.7679 122.14 27.7335 113.505 33.3063 106.282C38.7487 99.288 46.4071 94.1988 54.8478 91.9333L67.1991 88.6828L71.729 76.6658C74.5317 69.1798 78.4424 62.1863 83.3634 55.8495C88.2192 49.5455 93.9875 44.0623 100.44 39.4657C113.834 29.9768 129.608 24.9533 146.065 24.9533C162.523 24.9533 178.296 29.9768 191.69 39.4657C198.175 44.0623 203.911 49.5783 208.767 55.8495C213.688 62.1863 217.599 69.2127 220.401 76.6658L224.899 88.65L237.217 91.9333C254.913 96.6942 267.232 112.881 267.232 131.333C267.232 142.201 263.028 152.445 255.402 160.128Z" fill="#EEEEEE" fill-opacity="0.8"/>
</g>
<defs>
<filter id="filter0_i_1_7790" x="0" y="0" width="292" height="198" filterUnits="userSpaceOnUse" color-interpolation-filters="sRGB">
<feFlood flood-opacity="0" result="BackgroundImageFix"/>
<feBlend mode="normal" in="SourceGraphic" in2="BackgroundImageFix" result="shape"/>
<feColorMatrix in="SourceAlpha" type="matrix" values="0 0 0 0 0 0 0 0 0 0 0 0 0 0 0 0 0 0 127 0" result="hardAlpha"/>
<feOffset dy="1"/>
<feGaussianBlur stdDeviation="1"/>
<feComposite in2="hardAlpha" operator="arithmetic" k2="-1" k3="1"/>
<feColorMatrix type="matrix" values="0 0 0 0 0 0 0 0 0 0 0 0 0 0 0 0 0 0 0.05 0"/>
<feBlend mode="normal" in2="shape" result="effect1_innerShadow_1_7790"/>
</filter>
</defs>
</svg>
