<svg width="25" height="25" viewBox="0 0 25 25" fill="none" xmlns="http://www.w3.org/2000/svg">
<mask id="mask0_407_7" style="mask-type:alpha" maskUnits="userSpaceOnUse" x="0" y="0" width="25" height="25">
<rect x="0.167358" y="0.750122" width="24" height="24" fill="#D9D9D9"/>
</mask>
<g mask="url(#mask0_407_7)">
<path d="M20.2924 22.9752L17.5424 20.2502H6.66736C5.26736 20.2502 4.08403 19.7668 3.11736 18.8002C2.15069 17.8335 1.66736 16.6502 1.66736 15.2502C1.66736 14.0002 2.07169 12.9128 2.88036 11.9882C3.68836 11.0628 4.67569 10.5168 5.84236 10.3502C5.87569 10.1502 5.93402 9.9295 6.01736 9.68817C6.10069 9.44617 6.20069 9.21684 6.31736 9.00017L2.29236 5.00017L3.34236 3.92517L21.3424 21.9252L20.2924 22.9752ZM6.66736 18.7502H16.0174L7.46736 10.1752C7.36736 10.4085 7.29236 10.6585 7.24236 10.9252C7.19236 11.1918 7.16736 11.4668 7.16736 11.7502H6.66736C5.70069 11.7502 4.87569 12.0918 4.19236 12.7752C3.50903 13.4585 3.16736 14.2835 3.16736 15.2502C3.16736 16.2168 3.50903 17.0418 4.19236 17.7252C4.87569 18.4085 5.70069 18.7502 6.66736 18.7502ZM21.4174 19.1502L20.3424 18.1002C20.609 17.8668 20.8134 17.5962 20.9554 17.2882C21.0967 16.9795 21.1674 16.6335 21.1674 16.2502C21.1674 15.5502 20.9257 14.9585 20.4424 14.4752C19.959 13.9918 19.3674 13.7502 18.6674 13.7502H17.1674V11.7502C17.1674 10.3668 16.68 9.1875 15.7054 8.21217C14.73 7.2375 13.5507 6.75017 12.1674 6.75017C11.7174 6.75017 11.284 6.80417 10.8674 6.91217C10.4507 7.02084 10.0507 7.19184 9.66736 7.42517L8.59236 6.32517C9.17569 5.9585 9.75503 5.6875 10.3304 5.51217C10.905 5.3375 11.5174 5.25017 12.1674 5.25017C13.984 5.25017 15.5217 5.87917 16.7804 7.13717C18.0384 8.39584 18.6674 9.9335 18.6674 11.7502V12.2502H18.9674C20.034 12.3335 20.9174 12.7585 21.6174 13.5252C22.3174 14.2918 22.6674 15.2002 22.6674 16.2502C22.6674 16.8002 22.5634 17.3252 22.3554 17.8252C22.1467 18.3252 21.834 18.7668 21.4174 19.1502Z" fill="#1C1B1F"/>
</g>
</svg>
