<svg width="25" height="25" viewBox="0 0 25 25" fill="none" xmlns="http://www.w3.org/2000/svg">
<mask id="mask0_409_25" style="mask-type:alpha" maskUnits="userSpaceOnUse" x="0" y="0" width="25" height="25">
<rect x="0.167358" y="0.750122" width="24" height="24" fill="#D9D9D9"/>
</mask>
<g mask="url(#mask0_409_25)">
<path d="M19.9674 23.3502L17.3174 20.7502H6.66736C5.13403 20.7502 3.83403 20.2168 2.76736 19.1502C1.70069 18.0835 1.16736 16.7835 1.16736 15.2502C1.16736 13.9668 1.56336 12.8252 2.35536 11.8252C3.14669 10.8252 4.16736 10.1835 5.41736 9.90017C5.46736 9.76684 5.51736 9.6375 5.56736 9.51217C5.61736 9.3875 5.66736 9.25017 5.71736 9.10017L1.56736 4.95017L2.96736 3.55017L21.3674 21.9502L19.9674 23.3502ZM6.66736 18.7502H15.3174L7.26736 10.7002C7.23402 10.8835 7.20903 11.0585 7.19236 11.2252C7.17569 11.3918 7.16736 11.5668 7.16736 11.7502H6.66736C5.70069 11.7502 4.87569 12.0918 4.19236 12.7752C3.50903 13.4585 3.16736 14.2835 3.16736 15.2502C3.16736 16.2168 3.50903 17.0418 4.19236 17.7252C4.87569 18.4085 5.70069 18.7502 6.66736 18.7502ZM21.7674 19.5002L20.3174 18.1002C20.6007 17.8668 20.8134 17.5962 20.9554 17.2882C21.0967 16.9795 21.1674 16.6335 21.1674 16.2502C21.1674 15.5502 20.9257 14.9585 20.4424 14.4752C19.959 13.9918 19.3674 13.7502 18.6674 13.7502H17.1674V11.7502C17.1674 10.3668 16.68 9.1875 15.7054 8.21217C14.73 7.2375 13.5507 6.75017 12.1674 6.75017C11.7174 6.75017 11.284 6.80417 10.8674 6.91217C10.4507 7.02084 10.0507 7.19184 9.66736 7.42517L8.21736 5.97517C8.80069 5.57517 9.42169 5.27084 10.0804 5.06217C10.7384 4.85417 11.434 4.75017 12.1674 4.75017C14.1174 4.75017 15.7714 5.42917 17.1294 6.78717C18.488 8.14584 19.1674 9.80017 19.1674 11.7502C20.3174 11.8835 21.2717 12.3792 22.0304 13.2372C22.7884 14.0958 23.1674 15.1002 23.1674 16.2502C23.1674 16.9002 23.0424 17.5042 22.7924 18.0622C22.5424 18.6208 22.2007 19.1002 21.7674 19.5002Z" fill="#1C1B1F"/>
</g>
</svg>
