<svg width="18" height="17" viewBox="0 0 18 17" fill="none" xmlns="http://www.w3.org/2000/svg">
<path d="M2.65 13.35C1.73333 12.4334 1.06267 11.4334 0.638 10.35C0.212667 9.26669 0 8.15002 0 7.00002C0 5.85002 0.212667 4.73336 0.638 3.65002C1.06267 2.56669 1.73333 1.56669 2.65 0.650024L3.15 1.15002C2.31667 2.00002 1.7 2.92502 1.3 3.92502C0.9 4.92502 0.7 5.95002 0.7 7.00002C0.7 8.05002 0.9 9.07502 1.3 10.075C1.7 11.075 2.31667 12 3.15 12.85L2.65 13.35ZM4.95 11.05C4.4 10.4667 3.98767 9.82502 3.713 9.12502C3.43767 8.42502 3.3 7.71669 3.3 7.00002C3.3 6.28336 3.43767 5.57502 3.713 4.87502C3.98767 4.17502 4.4 3.53336 4.95 2.95002L5.45 3.45002C4.96667 3.93336 4.60433 4.48769 4.363 5.11302C4.121 5.73769 4 6.36669 4 7.00002C4 7.63336 4.11667 8.25836 4.35 8.87502C4.58333 9.49169 4.95 10.05 5.45 10.55L4.95 11.05ZM5.4 16.85L8.175 8.52502C7.875 8.37502 7.646 8.15402 7.488 7.86202C7.32933 7.57069 7.25 7.28336 7.25 7.00002C7.25 6.51669 7.42067 6.10402 7.762 5.76202C8.104 5.42069 8.51667 5.25002 9 5.25002C9.48333 5.25002 9.896 5.42069 10.238 5.76202C10.5793 6.10402 10.75 6.51669 10.75 7.00002C10.75 7.28336 10.6793 7.56236 10.538 7.83702C10.396 8.11236 10.1583 8.34169 9.825 8.52502L12.6 16.85H11.85L11.2 14.85H6.8L6.175 16.85H5.4ZM7.05 14.15H10.95L9 8.25002L7.05 14.15ZM13.05 11.05L12.55 10.55C13.0333 10.0667 13.396 9.51236 13.638 8.88702C13.8793 8.26236 14 7.63336 14 7.00002C14 6.41669 13.8793 5.80836 13.638 5.17502C13.396 4.54169 13.0333 3.96669 12.55 3.45002L13.05 2.95002C13.6 3.53336 14.0127 4.18336 14.288 4.90002C14.5627 5.61669 14.7 6.32502 14.7 7.02502C14.7 7.74169 14.5667 8.44569 14.3 9.13702C14.0333 9.82902 13.6167 10.4667 13.05 11.05ZM15.35 13.35L14.85 12.85C15.6833 12 16.3 11.075 16.7 10.075C17.1 9.07502 17.3 8.05002 17.3 7.00002C17.3 5.95002 17.1 4.92502 16.7 3.92502C16.3 2.92502 15.6833 2.00002 14.85 1.15002L15.35 0.650024C16.25 1.56669 16.9167 2.56669 17.35 3.65002C17.7833 4.73336 18 5.85002 18 7.00002C18 8.15002 17.7917 9.26669 17.375 10.35C16.9583 11.4334 16.2833 12.4334 15.35 13.35Z" fill="#1C1B1F"/>
</svg>
