<svg width="205" height="205" viewBox="0 0 205 205" fill="none" xmlns="http://www.w3.org/2000/svg">
<path fill-rule="evenodd" clip-rule="evenodd" d="M193 102.5C193 152.482 152.482 193 102.5 193C92.1532 193 82.2119 191.264 72.9517 188.066L68.9537 199.385C79.4645 203.023 90.7514 205 102.5 205C159.109 205 205 159.109 205 102.5C205 45.8908 159.109 0 102.5 0C45.8908 0 0 45.8908 0 102.5C0 131.059 11.6798 156.89 30.5233 175.477L39.0088 166.991C22.3368 150.576 12 127.745 12 102.5C12 52.5182 52.5182 12 102.5 12C152.482 12 193 52.5182 193 102.5Z" fill="#3D235A"/>
<path fill-rule="evenodd" clip-rule="evenodd" d="M46.0839 54.1558C34.8118 67.2786 28 84.3438 28 103C28 144.421 61.5786 178 103 178C144.421 178 178 144.421 178 103C178 61.5786 144.421 28 103 28C91.0698 28 79.7902 30.7856 69.776 35.7418L75.0939 46.5021C83.5052 42.3395 92.9794 40 103 40C137.794 40 166 68.2061 166 103C166 137.794 137.794 166 103 166C68.2061 166 40 137.794 40 103C40 87.3231 45.726 72.9837 55.2007 61.9589L46.0839 54.1558Z" fill="#C6356E"/>
<path fill-rule="evenodd" clip-rule="evenodd" d="M135.377 115.916C130.086 128.871 117.359 138 102.5 138C82.8939 138 67 122.106 67 102.5C67 82.8939 82.8939 67 102.5 67C116.977 67 129.43 75.6657 134.955 88.0929L145.887 83.1375C138.476 66.5553 121.837 55 102.5 55C76.2665 55 55 76.2665 55 102.5C55 128.734 76.2665 150 102.5 150C122.367 150 139.386 137.803 146.476 120.488L135.377 115.916Z" fill="#EB7D2E"/>
<path fill-rule="evenodd" clip-rule="evenodd" d="M111 103C111 107.418 107.418 111 103 111C102.846 111 102.692 110.996 102.54 110.987L102.54 122.995C102.693 122.998 102.846 123 103 123C114.046 123 123 114.046 123 103C123 91.9543 114.046 83 103 83C91.9543 83 83 91.9543 83 103C83 103.272 83.0054 103.543 83.0162 103.812L95.0407 103.812C95.0138 103.545 95 103.274 95 103C95 98.5817 98.5817 95 103 95C107.418 95 111 98.5817 111 103Z" fill="#FFD500"/>
</svg>
