<svg width="720" height="720" viewBox="0 0 720 720" xmlns="http://www.w3.org/2000/svg"><path d="M564,769.9999999999999C567.5,842.0583987529185,527.2332530850761,939.9520235894524,467.65810473637015,988.7807333831395C408.0829563876642,1037.6094431768265,288.19605755025134,1021.1596714947306,206.54910990776423,1062.9722587621222C124.90216226527713,1104.784846029514,56.66452176464392,1254.0852583677047,-22.223581118552502,1239.6562569874898C-101.11168400174893,1225.2272556072749,-233.36917732089276,1031.0203938156342,-266.7795073914143,976.3982504808332C-300.1898374619359,921.7761071460324,-192.2827324489974,966.8836940972695,-222.6855615416818,911.9233969786844C-253.08839063436622,856.9630998600993,-435.1770946509219,704.5948490851321,-449.19648194752074,646.6364677693227C-463.2158692441196,588.6780864535134,-369.21541729694906,631.5552298766303,-306.8018853212747,564.1731090838282C-244.3883533456004,496.7909882910261,-157.94132793669385,252.28844151687548,-74.71529009347475,242.34374301251034C8.510747749744354,232.3990445081452,105.6587759330658,452.15715174878454,192.55434173803994,504.50491805763744C279.4499075430141,556.8526843664904,384.7504950260435,512.1811605419008,446.65810473637015,556.4303408656278C508.5657144466968,600.6795211893549,560.5,697.9416012470813,564,769.9999999999999C567.5,842.0583987529185,527.2332530850761,939.9520235894524,467.65810473637015,988.7807333831395" fill="#FF5242"/></svg>