<svg width="25" height="25" viewBox="0 0 25 25" fill="none" xmlns="http://www.w3.org/2000/svg">
<mask id="mask0_302_7" style="mask-type:alpha" maskUnits="userSpaceOnUse" x="0" y="0" width="25" height="25">
<rect x="0.250122" y="0.949463" width="24" height="24" fill="#D9D9D9"/>
</mask>
<g mask="url(#mask0_302_7)">
<path d="M5.25012 21.9495C4.70012 21.9495 4.22912 21.7538 3.83712 21.3625C3.44579 20.9705 3.25012 20.4995 3.25012 19.9495V5.94946C3.25012 5.39946 3.44579 4.92846 3.83712 4.53646C4.22912 4.14513 4.70012 3.94946 5.25012 3.94946H19.2501C19.8001 3.94946 20.2711 4.14513 20.6631 4.53646C21.0545 4.92846 21.2501 5.39946 21.2501 5.94946V19.9495C21.2501 20.4995 21.0545 20.9705 20.6631 21.3625C20.2711 21.7538 19.8001 21.9495 19.2501 21.9495H5.25012ZM10.2501 19.9495V13.9495H5.25012V19.9495H10.2501ZM12.2501 19.9495H19.2501V13.9495H12.2501V19.9495ZM5.25012 11.9495H19.2501V5.94946H5.25012V11.9495Z" fill="#1C1B1F"/>
</g>
</svg>
