<svg width="25" height="25" viewBox="0 0 25 25" fill="none" xmlns="http://www.w3.org/2000/svg">
<mask id="mask0_402_19" style="mask-type:alpha" maskUnits="userSpaceOnUse" x="0" y="0" width="25" height="25">
<rect x="0.250122" y="0.949463" width="24" height="24" fill="#D9D9D9"/>
</mask>
<g mask="url(#mask0_402_19)">
<path d="M5.55012 21.4495C5.05012 21.4495 4.62512 21.2745 4.27512 20.9245C3.92512 20.5745 3.75012 20.1495 3.75012 19.6495V6.24946C3.75012 5.74946 3.92512 5.32446 4.27512 4.97446C4.62512 4.62446 5.05012 4.44946 5.55012 4.44946H18.9501C19.4501 4.44946 19.8751 4.62446 20.2251 4.97446C20.5751 5.32446 20.7501 5.74946 20.7501 6.24946V19.6495C20.7501 20.1495 20.5751 20.5745 20.2251 20.9245C19.8751 21.2745 19.4501 21.4495 18.9501 21.4495H5.55012ZM10.5001 19.9495V13.6995H5.25012V19.6495C5.25012 19.7328 5.27946 19.8038 5.33812 19.8625C5.39612 19.9205 5.46679 19.9495 5.55012 19.9495H10.5001ZM12.0001 19.9495H18.9501C19.0335 19.9495 19.1045 19.9205 19.1631 19.8625C19.2211 19.8038 19.2501 19.7328 19.2501 19.6495V13.6995H12.0001V19.9495ZM5.25012 12.1995H19.2501V6.24946C19.2501 6.16613 19.2211 6.09546 19.1631 6.03746C19.1045 5.9788 19.0335 5.94946 18.9501 5.94946H5.55012C5.46679 5.94946 5.39612 5.9788 5.33812 6.03746C5.27946 6.09546 5.25012 6.16613 5.25012 6.24946V12.1995Z" fill="#1C1B1F"/>
</g>
</svg>
