<svg width="100%" height="100%" viewBox="0 0 69 69" version="1.1" xmlns="http://www.w3.org/2000/svg" xmlns:xlink="http://www.w3.org/1999/xlink" xml:space="preserve" xmlns:serif="http://www.serif.com/" style="fill-rule:evenodd;clip-rule:evenodd;stroke-linejoin:round;stroke-miterlimit:2;">
    <g id="Artboard1" transform="matrix(1,0,0,1,1.79755,1.94563)">
        <rect x="-1.798" y="-1.946" width="68.086" height="68.008" style="fill:none;"/>
        <g transform="matrix(1,0,0,1,0.202452,0.0543741)">
            <path d="M57.705,33.717L59.28,53.817L31.4,58.82L29,38.72L32.983,38.164C33.631,38.442 34.095,38.534 34.836,38.72C36.04,38.998 37.43,39.368 39.466,38.257C39.929,37.979 40.948,37.145 41.319,36.59L57.705,33.717ZM14.632,57.617C14.169,56.877 13.335,56.042 12.038,55.023C10.185,53.541 10.834,50.947 11.945,49.373C13.345,46.687 20.652,43.167 20.282,38.813C20.097,37.238 19.912,35.2 18.429,33.718C18.336,34.274 18.429,34.83 18.429,34.83C18.429,34.83 17.781,34.09 17.503,32.977C17.225,32.607 16.947,32.421 16.669,31.865C16.484,32.513 16.484,33.162 16.484,33.162C16.484,33.162 16.021,31.958 15.928,31.032C15.65,31.495 15.558,32.329 15.558,32.329C15.558,32.329 14.91,30.476 15.095,29.459C14.817,28.625 13.891,26.865 14.169,22.975C15.744,24.087 19.264,23.809 20.653,21.771C21.116,21.123 21.393,19.271 20.468,15.657C19.82,13.341 18.245,9.914 17.598,8.617L17.505,8.71C17.875,9.73 18.525,11.952 18.802,13.064C19.542,16.306 19.822,17.418 19.45,18.9C19.172,20.197 18.43,21.03 16.486,21.957C14.633,22.883 12.04,20.557 11.946,20.475C10.093,18.993 8.704,16.575 8.519,15.473C8.334,14.176 9.259,13.435 9.723,12.416C9.075,12.601 8.323,12.972 8.323,12.972C8.323,12.972 9.157,12.046 10.268,11.305C10.69,11.059 11.093,10.78 11.472,10.471L10.28,10.471C10.28,10.471 11.392,9.823 12.596,9.451L10.93,9.451L15.376,7.506C16.776,6.95 18.062,7.136 18.803,8.154C19.823,9.554 20.841,10.284 22.971,10.84C24.268,10.284 24.731,9.914 26.398,9.44C27.88,7.773 29.084,7.587 29.084,7.587C29.084,7.587 28.25,8.327 28.158,9.162C28.992,8.514 29.918,7.958 29.918,7.958C29.918,7.958 29.548,8.421 29.27,9.07L29.363,9.163C30.383,8.607 31.493,8.143 31.493,8.143C31.493,8.143 31.123,8.513 30.753,9.069C31.493,9.069 32.976,9.069 33.533,9.162C36.96,9.255 37.701,5.549 38.998,4.994C40.665,4.438 41.406,4.068 44.185,6.847C46.593,9.255 48.445,13.424 47.52,14.35C46.78,15.09 45.204,14.072 43.444,11.942C42.518,10.83 41.869,9.442 41.499,7.774C41.314,6.374 40.295,5.551 40.295,5.551C40.295,5.551 40.943,6.951 40.943,8.145C40.943,8.793 41.036,11.202 42.055,12.591C41.962,12.776 41.87,13.611 41.777,13.703C40.573,12.221 37.877,11.203 37.517,10.833C38.999,12.037 42.334,14.733 43.631,17.317C44.835,19.817 44.094,22.041 44.743,22.597C44.928,22.782 47.337,25.747 47.8,27.321C48.634,30.007 47.893,32.786 46.78,34.453L43.816,34.916C43.429,34.849 43.054,34.724 42.704,34.545C42.889,34.175 43.352,33.248 43.352,33.063L43.167,32.785C42.241,34.082 40.667,35.379 39.369,36.12C37.702,37.046 35.756,36.954 34.469,36.49C30.856,35.378 27.429,32.97 26.689,32.322C26.689,32.322 26.689,32.785 26.782,32.97C28.282,34.549 29.961,35.947 31.784,37.138L27.524,37.601L29.562,53.348C28.636,53.441 28.542,53.533 27.524,53.718C26.69,50.661 25.024,48.716 23.17,47.512C21.595,46.492 19.372,46.215 17.242,46.678L17.149,46.863C18.631,46.678 20.391,46.956 22.151,48.067C23.911,49.178 25.301,52.05 25.856,53.717C26.504,55.94 26.968,58.257 25.208,60.757C23.911,62.517 20.206,63.537 17.242,61.405C18.076,62.702 19.095,63.721 20.577,63.905C22.707,64.183 24.745,63.812 26.227,62.423C27.431,61.219 28.08,58.625 27.894,55.846L29.839,55.568L30.487,60.468L62.06,56.7L59.28,31.505L57.705,31.783L54.556,0L1.942,6.114L8.426,58.542L14.632,57.617Z" style="fill:rgb(92,45,144);fill-rule:nonzero;"/>
            <path d="M39.665,30.06C41.065,31.08 42.259,31.727 43.463,31.635C44.203,31.542 44.945,30.338 45.408,29.227C45.778,28.487 45.778,27.652 45.223,27.374C44.945,27.281 43.823,27.281 43,27.374C41.425,27.559 39.85,28.114 39.48,28.394C38.924,28.764 39.202,29.691 39.665,30.061M40.035,19.221L40.035,19.314L40.128,19.499C40.498,20.239 40.868,20.981 41.61,21.352C41.795,21.352 41.98,21.259 42.166,21.259C42.814,21.259 43.186,21.352 43.463,21.444L43.463,20.888C43.37,19.962 43.648,18.294 41.796,17.368C41.056,16.998 40.129,17.183 39.758,17.553L39.943,17.553C40.406,17.738 40.128,17.923 40.036,18.109C39.943,18.479 39.851,18.572 40.036,19.221" style="fill:rgb(92,45,144);fill-rule:nonzero;"/>
            <path d="M31.698,19.407C32.161,19.037 29.568,18.481 27.53,19.777C26.048,20.797 26.048,22.927 27.437,24.131C27.576,24.2 27.702,24.294 27.807,24.409C28.177,24.224 28.733,24.039 29.207,23.853C30.133,23.575 30.874,23.39 31.523,23.297C31.801,22.927 32.171,22.371 32.079,21.352C31.986,19.952 30.875,20.24 31.709,19.407M46.807,41.907L42.361,49.307L37.174,47.732L32.634,54.679L32.819,56.902L57.644,52.362L56.162,36.892L52.086,45.414L46.807,41.907Z" style="fill:rgb(92,45,144);fill-rule:nonzero;"/>
        </g>
    </g>
</svg>