<svg width="25" height="25" viewBox="0 0 25 25" fill="none" xmlns="http://www.w3.org/2000/svg">
<mask id="mask0_307_7" style="mask-type:alpha" maskUnits="userSpaceOnUse" x="0" y="0" width="25" height="25">
<rect x="0.270508" y="0.190063" width="24" height="24" fill="#D9D9D9"/>
</mask>
<g mask="url(#mask0_307_7)">
<path d="M7.57051 20.6901C7.07051 20.6901 6.64551 20.5151 6.29551 20.1651C5.94551 19.8151 5.77051 19.3901 5.77051 18.8901V6.19006H4.77051V4.69006H9.27051V3.81506H15.2705V4.69006H19.7705V6.19006H18.7705V18.8901C18.7705 19.3901 18.5955 19.8151 18.2455 20.1651C17.8955 20.5151 17.4705 20.6901 16.9705 20.6901H7.57051ZM17.2705 6.19006H7.27051V18.8901C7.27051 18.9734 7.29984 19.0444 7.35851 19.1031C7.41651 19.1611 7.48717 19.1901 7.57051 19.1901H16.9705C17.0372 19.1901 17.1038 19.1567 17.1705 19.0901C17.2372 19.0234 17.2705 18.9567 17.2705 18.8901V6.19006ZM9.67051 17.1901H11.1705V8.19006H9.67051V17.1901ZM13.3705 17.1901H14.8705V8.19006H13.3705V17.1901ZM7.27051 6.19006V19.1901V18.8901V6.19006Z" fill="#1C1B1F"/>
</g>
</svg>
