<svg width="25" height="25" viewBox="0 0 25 25" fill="none" xmlns="http://www.w3.org/2000/svg">
<mask id="mask0_306_7" style="mask-type:alpha" maskUnits="userSpaceOnUse" x="0" y="0" width="25" height="25">
<rect x="0.439941" y="0.460449" width="24" height="24" fill="#D9D9D9"/>
</mask>
<g mask="url(#mask0_306_7)">
<path d="M5.58997 19.4604H6.83997L16.09 10.2104L14.865 8.9604L5.58997 18.2354V19.4604ZM19.29 9.1104L15.915 5.7604L17.215 4.4604C17.515 4.17707 17.8776 4.0354 18.303 4.0354C18.7276 4.0354 19.0816 4.17707 19.365 4.4604L20.59 5.6854C20.8733 5.9854 21.0233 6.3394 21.04 6.7474C21.0566 7.15607 20.915 7.50207 20.615 7.7854L19.29 9.1104ZM18.215 10.2104L7.46497 20.9604H4.08997V17.5854L14.84 6.8354L18.215 10.2104ZM15.465 9.5854L14.865 8.9604L16.09 10.2104L15.465 9.5854Z" fill="#1C1B1F"/>
</g>
</svg>
