<svg width="1601" height="636" viewBox="0 0 1601 636" fill="none" xmlns="http://www.w3.org/2000/svg">
<g filter="url(#filter0_df_67_512)">
<circle cx="799" cy="277" r="96" fill="url(#paint0_linear_67_512)" fill-opacity="0.4" shape-rendering="crispEdges"/>
</g>
<g filter="url(#filter1_bd_67_512)">
<rect x="1214" y="87" width="375" height="380" rx="14" fill="#C4C1C1" fill-opacity="0.1" shape-rendering="crispEdges"/>
</g>
<g filter="url(#filter2_bd_67_512)">
<rect x="12" y="87" width="375" height="380" rx="14" fill="#C4C1C1" fill-opacity="0.1" shape-rendering="crispEdges"/>
</g>
<path d="M1532.84 211.111C1532.84 213.21 1532.75 215.261 1532.56 217.264C1532.36 219.267 1531.98 221.318 1531.41 223.416L1549 230.713L1541.99 247.597L1524.26 240.3C1519.88 247.358 1514.16 253.082 1507.1 257.469L1514.39 275.355L1497.52 282.366L1490.08 264.623C1488.08 265.1 1486.08 265.434 1484.08 265.625C1482.08 265.816 1480.03 265.959 1477.93 266.054C1475.83 266.054 1473.78 265.959 1471.78 265.768C1469.78 265.577 1467.73 265.196 1465.63 264.623L1462.34 272.636L1446.47 263.05L1448.76 257.469C1441.7 253.082 1435.98 247.358 1431.6 240.3L1413.72 247.597L1406.72 230.713L1424.45 223.416C1423.97 221.413 1423.64 219.41 1423.45 217.407C1423.26 215.404 1423.11 213.305 1423.02 211.111C1423.02 209.013 1423.11 206.962 1423.3 204.959C1423.5 202.956 1423.88 200.952 1424.45 198.949L1406.72 191.509L1413.72 174.626L1431.6 182.066C1433.79 178.536 1436.32 175.341 1439.18 172.479C1442.04 169.618 1445.23 167.042 1448.76 164.753L1441.47 147.011L1458.34 140L1465.63 157.599C1467.63 157.122 1469.64 156.788 1471.64 156.597C1473.64 156.407 1475.74 156.264 1477.93 156.168C1480.03 156.168 1482.08 156.264 1484.08 156.454C1486.08 156.645 1488.08 157.027 1490.08 157.599L1497.52 140L1514.39 147.011L1507.1 164.753C1514.16 169.141 1519.88 174.864 1524.26 181.923L1541.99 174.626L1549 191.509L1531.41 198.949C1531.89 200.952 1532.22 202.956 1532.41 204.959C1532.6 206.962 1532.75 209.013 1532.84 211.111ZM1477.93 247.74C1482.98 247.74 1487.7 246.786 1492.09 244.878C1496.47 242.971 1500.38 240.347 1503.81 237.009C1507.24 233.67 1509.87 229.807 1511.68 225.419C1513.49 221.032 1514.44 216.262 1514.54 211.111C1514.54 206.056 1513.58 201.334 1511.68 196.946C1509.77 192.558 1507.15 188.648 1503.81 185.214C1500.48 181.78 1496.62 179.156 1492.23 177.344C1487.84 175.532 1483.08 174.578 1477.93 174.483C1472.88 174.483 1468.16 175.436 1463.77 177.344C1459.39 179.252 1455.48 181.875 1452.05 185.214C1448.62 188.552 1445.99 192.415 1444.18 196.803C1442.37 201.191 1441.42 205.96 1441.32 211.111C1441.32 216.167 1442.28 220.888 1444.18 225.276C1446.09 229.664 1448.71 233.575 1452.05 237.009C1455.38 240.443 1459.24 243.066 1463.63 244.878C1468.02 246.691 1472.78 247.645 1477.93 247.74ZM1395.42 279.218L1415.3 270.919L1421.59 286.086V288.232L1402.57 296.101C1403.24 298.677 1403.76 301.252 1404.14 303.828C1404.52 306.403 1404.71 309.074 1404.71 311.84C1404.71 314.511 1404.52 317.134 1404.14 319.71C1403.76 322.285 1403.24 324.908 1402.57 327.579L1421.59 335.449V337.595L1415.3 352.761L1395.42 344.463C1392.66 349.041 1389.41 353.191 1385.7 356.911C1381.98 360.631 1377.83 363.922 1373.26 366.783L1381.55 386.672L1364.53 393.682L1356.38 373.794C1353.81 374.462 1351.23 374.987 1348.66 375.368C1346.09 375.75 1343.42 375.94 1340.65 375.94C1337.98 375.94 1335.36 375.75 1332.79 375.368C1330.21 374.987 1327.59 374.462 1324.92 373.794L1316.63 393.682L1299.75 386.672L1308.05 366.64C1298.8 361.108 1291.41 353.715 1285.88 344.463L1265.86 352.761L1259 335.878L1278.73 327.579C1278.07 325.004 1277.54 322.428 1277.16 319.853C1276.78 317.277 1276.59 314.606 1276.59 311.84C1276.59 309.169 1276.78 306.546 1277.16 303.971C1277.54 301.395 1278.07 298.772 1278.73 296.101L1259 287.946L1265.86 270.919L1285.88 279.218C1291.41 269.965 1298.8 262.573 1308.05 257.04L1299.75 237.152L1316.63 230.141L1324.92 249.886C1327.5 249.218 1330.07 248.694 1332.64 248.312C1335.22 247.931 1337.89 247.74 1340.65 247.74C1343.32 247.74 1345.94 247.931 1348.52 248.312C1351.09 248.694 1353.71 249.218 1356.38 249.886L1364.53 230.141L1381.55 237.152L1373.26 257.04C1382.5 262.573 1389.89 269.965 1395.42 279.218ZM1340.65 357.626C1346.94 357.626 1352.85 356.434 1358.38 354.049C1363.91 351.664 1368.73 348.421 1372.83 344.32C1376.93 340.218 1380.21 335.353 1382.69 329.725C1385.17 324.097 1386.41 318.136 1386.41 311.84C1386.41 305.545 1385.22 299.631 1382.84 294.098C1380.45 288.566 1377.16 283.749 1372.97 279.647C1368.77 275.545 1363.91 272.254 1358.38 269.774C1352.85 267.294 1346.94 266.054 1340.65 266.054C1334.36 266.054 1328.45 267.247 1322.92 269.631C1317.39 272.016 1312.53 275.307 1308.33 279.504C1304.14 283.701 1300.85 288.566 1298.47 294.098C1296.08 299.631 1294.89 305.545 1294.89 311.84C1294.89 318.136 1296.08 324.05 1298.47 329.582C1300.85 335.115 1304.09 339.979 1308.19 344.176C1312.29 348.374 1317.15 351.664 1322.78 354.049C1328.4 356.434 1334.36 357.626 1340.65 357.626ZM1439.89 414V285.799L1546.71 349.9L1439.89 414ZM1458.2 318.136V381.664L1511.11 349.9L1458.2 318.136Z" fill="url(#paint1_linear_67_512)"/>
<path d="M63 277H109M201 139V185M136.6 212.6L102.867 178.867M265.4 212.6L299.133 178.867M136.6 341.4L102.867 375.133M201 277L339 323L277.667 353.667L247 415L201 277Z" stroke="url(#paint2_linear_67_512)" stroke-width="13" stroke-linecap="round" stroke-linejoin="round"/>
<g filter="url(#filter3_bd_67_512)">
<path d="M536 22C536 14.268 542.268 8 550 8H795V545H550C542.268 545 536 538.732 536 531V22Z" fill="#C4C1C1" fill-opacity="0.1" shape-rendering="crispEdges"/>
</g>
<path d="M1214 278L1159 246.246V309.754L1214 278ZM1164.5 272.5L795 272.5V283.5L1164.5 283.5V272.5Z" fill="url(#paint3_linear_67_512)"/>
<g filter="url(#filter4_bd_67_512)">
<path d="M795 8H1052C1059.73 8 1066 14.268 1066 22V531C1066 538.732 1059.73 545 1052 545H795V8Z" fill="#C4C1C1" fill-opacity="0.1" shape-rendering="crispEdges"/>
</g>
<path d="M442 272.5L387 246.246V309.754L442 283.5V272.5ZM436.5 283.5H795V272.5H436.5V283.5Z" fill="url(#paint4_linear_67_512)"/>
<path d="M764.125 107.375C768.198 107.375 771.5 104.073 771.5 100C771.5 95.927 768.198 92.6251 764.125 92.6251C760.052 92.6251 756.75 95.927 756.75 100C756.75 104.073 760.052 107.375 764.125 107.375Z" fill="url(#paint5_linear_67_512)"/>
<path d="M764.125 210.625C768.198 210.625 771.5 207.323 771.5 203.25C771.5 199.177 768.198 195.875 764.125 195.875C760.052 195.875 756.75 199.177 756.75 203.25C756.75 207.323 760.052 210.625 764.125 210.625Z" fill="url(#paint6_linear_67_512)"/>
<path d="M970.625 343.375C974.698 343.375 978 340.073 978 336C978 331.927 974.698 328.625 970.625 328.625C966.552 328.625 963.25 331.927 963.25 336C963.25 340.073 966.552 343.375 970.625 343.375Z" fill="url(#paint7_linear_67_512)"/>
<path d="M970.625 446.625C974.698 446.625 978 443.323 978 439.25C978 435.177 974.698 431.875 970.625 431.875C966.552 431.875 963.25 435.177 963.25 439.25C963.25 443.323 966.552 446.625 970.625 446.625Z" fill="url(#paint8_linear_67_512)"/>
<path d="M800.998 149.56H594.498C591.563 149.56 589.188 147.186 589.188 144.25V70.5003C589.188 67.5651 591.563 65.1903 594.498 65.1903H800.998C803.934 65.1903 806.308 67.5651 806.308 70.5003V144.25C806.308 147.186 803.934 149.56 800.998 149.56ZM599.808 138.94H795.688V75.8103H599.808V138.94ZM712.498 94.6903H623.998V105.31H712.498V94.6903ZM800.998 252.81H594.498C591.563 252.81 589.188 250.436 589.188 247.5V173.75C589.188 170.815 591.563 168.44 594.498 168.44H800.998C803.934 168.44 806.308 170.815 806.308 173.75V247.5C806.308 250.436 803.934 252.81 800.998 252.81ZM599.808 242.19H795.688V179.06H599.808V242.19ZM712.498 197.94H623.998V208.56H712.498V197.94ZM1007.5 385.56H800.998C798.063 385.56 795.688 383.186 795.688 380.25V306.5C795.688 303.565 798.063 301.19 800.998 301.19H1007.5C1010.43 301.19 1012.81 303.565 1012.81 306.5V380.25C1012.81 383.186 1010.43 385.56 1007.5 385.56ZM806.308 374.94H1002.19V311.81H806.308V374.94ZM918.998 330.69H830.498V341.325H918.998V330.69ZM1007.5 488.81H800.998C798.063 488.81 795.688 486.436 795.688 483.5V409.75C795.688 406.815 798.063 404.44 800.998 404.44H1007.5C1010.43 404.44 1012.81 406.815 1012.81 409.75V483.5C1012.81 486.436 1010.43 488.81 1007.5 488.81ZM806.308 478.19H1002.19V415.06H806.308V478.19ZM918.998 433.94H830.498V444.575H918.998V433.94ZM983.308 159C983.308 156.065 980.934 153.69 977.998 153.69H830.498V164.31H972.688V277H983.323L983.308 159ZM771.498 389.69H629.308V277H618.688V395C618.688 397.936 621.063 400.31 623.998 400.31H771.498V389.69Z" fill="url(#paint9_linear_67_512)"/>
<path d="M132.591 487.327V482.909H155.801V487.327H146.81V512H141.582V487.327H132.591ZM157.783 512V490.182H162.768V493.818H162.996C163.393 492.559 164.075 491.588 165.041 490.906C166.017 490.215 167.129 489.869 168.379 489.869C168.663 489.869 168.981 489.884 169.331 489.912C169.691 489.931 169.989 489.964 170.226 490.011V494.741C170.008 494.666 169.662 494.599 169.189 494.543C168.725 494.476 168.275 494.443 167.839 494.443C166.902 494.443 166.059 494.647 165.311 495.054C164.572 495.452 163.99 496.006 163.564 496.716C163.138 497.426 162.925 498.245 162.925 499.173V512H157.783ZM173.642 512V490.182H178.784V512H173.642ZM176.227 487.085C175.413 487.085 174.712 486.815 174.125 486.276C173.538 485.726 173.244 485.068 173.244 484.301C173.244 483.525 173.538 482.866 174.125 482.327C174.712 481.777 175.413 481.503 176.227 481.503C177.051 481.503 177.752 481.777 178.33 482.327C178.917 482.866 179.21 483.525 179.21 484.301C179.21 485.068 178.917 485.726 178.33 486.276C177.752 486.815 177.051 487.085 176.227 487.085ZM193.56 520.636C191.714 520.636 190.128 520.385 188.802 519.884C187.476 519.391 186.411 518.728 185.606 517.895C184.801 517.062 184.242 516.138 183.93 515.125L188.56 514.003C188.769 514.429 189.072 514.85 189.469 515.267C189.867 515.693 190.402 516.044 191.075 516.318C191.756 516.602 192.613 516.744 193.646 516.744C195.104 516.744 196.311 516.389 197.268 515.679C198.224 514.978 198.702 513.823 198.702 512.213V508.08H198.447C198.182 508.61 197.793 509.154 197.282 509.713C196.78 510.272 196.112 510.741 195.279 511.119C194.455 511.498 193.418 511.688 192.168 511.688C190.492 511.688 188.972 511.295 187.609 510.509C186.254 509.713 185.175 508.529 184.37 506.957C183.575 505.376 183.177 503.397 183.177 501.02C183.177 498.624 183.575 496.602 184.37 494.955C185.175 493.297 186.259 492.043 187.623 491.19C188.987 490.329 190.506 489.898 192.183 489.898C193.461 489.898 194.512 490.116 195.336 490.551C196.169 490.977 196.832 491.493 197.325 492.099C197.817 492.696 198.191 493.259 198.447 493.79H198.731V490.182H203.802V512.355C203.802 514.221 203.357 515.764 202.467 516.986C201.576 518.207 200.36 519.121 198.816 519.727C197.272 520.333 195.521 520.636 193.56 520.636ZM193.603 507.653C194.692 507.653 195.62 507.388 196.387 506.858C197.154 506.328 197.737 505.565 198.134 504.571C198.532 503.577 198.731 502.384 198.731 500.991C198.731 499.618 198.532 498.416 198.134 497.384C197.746 496.351 197.168 495.551 196.401 494.983C195.644 494.405 194.711 494.116 193.603 494.116C192.457 494.116 191.501 494.415 190.734 495.011C189.967 495.608 189.389 496.427 189.001 497.469C188.612 498.501 188.418 499.675 188.418 500.991C188.418 502.327 188.612 503.496 189.001 504.5C189.398 505.494 189.981 506.271 190.748 506.83C191.524 507.379 192.476 507.653 193.603 507.653ZM218.56 520.636C216.714 520.636 215.128 520.385 213.802 519.884C212.476 519.391 211.411 518.728 210.606 517.895C209.801 517.062 209.242 516.138 208.93 515.125L213.56 514.003C213.769 514.429 214.072 514.85 214.469 515.267C214.867 515.693 215.402 516.044 216.075 516.318C216.756 516.602 217.613 516.744 218.646 516.744C220.104 516.744 221.311 516.389 222.268 515.679C223.224 514.978 223.702 513.823 223.702 512.213V508.08H223.447C223.182 508.61 222.793 509.154 222.282 509.713C221.78 510.272 221.112 510.741 220.279 511.119C219.455 511.498 218.418 511.688 217.168 511.688C215.492 511.688 213.972 511.295 212.609 510.509C211.254 509.713 210.175 508.529 209.37 506.957C208.575 505.376 208.177 503.397 208.177 501.02C208.177 498.624 208.575 496.602 209.37 494.955C210.175 493.297 211.259 492.043 212.623 491.19C213.987 490.329 215.506 489.898 217.183 489.898C218.461 489.898 219.512 490.116 220.336 490.551C221.169 490.977 221.832 491.493 222.325 492.099C222.817 492.696 223.191 493.259 223.447 493.79H223.731V490.182H228.802V512.355C228.802 514.221 228.357 515.764 227.467 516.986C226.576 518.207 225.36 519.121 223.816 519.727C222.272 520.333 220.521 520.636 218.56 520.636ZM218.603 507.653C219.692 507.653 220.62 507.388 221.387 506.858C222.154 506.328 222.737 505.565 223.134 504.571C223.532 503.577 223.731 502.384 223.731 500.991C223.731 499.618 223.532 498.416 223.134 497.384C222.746 496.351 222.168 495.551 221.401 494.983C220.644 494.405 219.711 494.116 218.603 494.116C217.457 494.116 216.501 494.415 215.734 495.011C214.967 495.608 214.389 496.427 214.001 497.469C213.612 498.501 213.418 499.675 213.418 500.991C213.418 502.327 213.612 503.496 214.001 504.5C214.398 505.494 214.981 506.271 215.748 506.83C216.524 507.379 217.476 507.653 218.603 507.653ZM243.731 512.426C241.543 512.426 239.654 511.972 238.063 511.062C236.482 510.144 235.265 508.847 234.413 507.17C233.56 505.485 233.134 503.501 233.134 501.219C233.134 498.974 233.56 497.005 234.413 495.31C235.274 493.605 236.477 492.279 238.021 491.332C239.564 490.376 241.378 489.898 243.461 489.898C244.806 489.898 246.075 490.116 247.268 490.551C248.47 490.977 249.531 491.64 250.45 492.54C251.378 493.439 252.107 494.585 252.637 495.977C253.167 497.36 253.433 499.008 253.433 500.92V502.497H235.549V499.031H248.504C248.494 498.046 248.281 497.17 247.864 496.403C247.448 495.627 246.865 495.016 246.117 494.571C245.379 494.126 244.517 493.903 243.532 493.903C242.481 493.903 241.558 494.159 240.762 494.67C239.967 495.172 239.346 495.835 238.901 496.659C238.466 497.473 238.243 498.368 238.234 499.344V502.369C238.234 503.638 238.466 504.727 238.93 505.636C239.394 506.536 240.042 507.227 240.876 507.71C241.709 508.184 242.684 508.42 243.802 508.42C244.55 508.42 245.227 508.316 245.833 508.108C246.439 507.89 246.965 507.573 247.41 507.156C247.855 506.74 248.191 506.223 248.418 505.608L253.219 506.148C252.916 507.417 252.339 508.525 251.487 509.472C250.644 510.409 249.564 511.138 248.248 511.659C246.932 512.17 245.426 512.426 243.731 512.426ZM257.783 512V490.182H262.768V493.818H262.996C263.393 492.559 264.075 491.588 265.041 490.906C266.017 490.215 267.129 489.869 268.379 489.869C268.663 489.869 268.981 489.884 269.331 489.912C269.691 489.931 269.989 489.964 270.226 490.011V494.741C270.008 494.666 269.662 494.599 269.189 494.543C268.725 494.476 268.275 494.443 267.839 494.443C266.902 494.443 266.059 494.647 265.311 495.054C264.572 495.452 263.99 496.006 263.564 496.716C263.138 497.426 262.925 498.245 262.925 499.173V512H257.783Z" fill="url(#paint10_linear_67_512)"/>
<path d="M717.591 621V574.455H747.864V581.523H726.023V594.159H746.295V601.227H726.023V613.932H748.045V621H717.591ZM787.284 586.091L774.852 621H765.761L753.33 586.091H762.102L770.125 612.023H770.489L778.534 586.091H787.284ZM807.244 621.682C803.744 621.682 800.722 620.955 798.176 619.5C795.646 618.03 793.699 615.955 792.335 613.273C790.972 610.576 790.29 607.402 790.29 603.75C790.29 600.159 790.972 597.008 792.335 594.295C793.714 591.568 795.638 589.447 798.108 587.932C800.578 586.402 803.479 585.636 806.812 585.636C808.964 585.636 810.994 585.985 812.903 586.682C814.828 587.364 816.525 588.424 817.994 589.864C819.479 591.303 820.646 593.136 821.494 595.364C822.343 597.576 822.767 600.212 822.767 603.273V605.795H794.153V600.25H814.881C814.866 598.674 814.525 597.273 813.858 596.045C813.191 594.803 812.259 593.826 811.062 593.114C809.881 592.402 808.502 592.045 806.926 592.045C805.244 592.045 803.767 592.455 802.494 593.273C801.222 594.076 800.229 595.136 799.517 596.455C798.82 597.758 798.464 599.189 798.449 600.75V605.591C798.449 607.621 798.82 609.364 799.562 610.818C800.305 612.258 801.343 613.364 802.676 614.136C804.009 614.894 805.57 615.273 807.358 615.273C808.555 615.273 809.638 615.106 810.608 614.773C811.578 614.424 812.419 613.917 813.131 613.25C813.843 612.583 814.381 611.758 814.744 610.773L822.426 611.636C821.941 613.667 821.017 615.439 819.653 616.955C818.305 618.455 816.578 619.621 814.472 620.455C812.366 621.273 809.956 621.682 807.244 621.682ZM837.955 600.545V621H829.727V586.091H837.591V592.023H838C838.803 590.068 840.083 588.515 841.841 587.364C843.614 586.212 845.803 585.636 848.409 585.636C850.818 585.636 852.917 586.152 854.705 587.182C856.508 588.212 857.902 589.705 858.886 591.659C859.886 593.614 860.379 595.985 860.364 598.773V621H852.136V600.045C852.136 597.712 851.53 595.886 850.318 594.568C849.121 593.25 847.462 592.591 845.341 592.591C843.902 592.591 842.621 592.909 841.5 593.545C840.394 594.167 839.523 595.068 838.886 596.25C838.265 597.432 837.955 598.864 837.955 600.545ZM886.159 586.091V592.455H866.091V586.091H886.159ZM871.045 577.727H879.273V610.5C879.273 611.606 879.439 612.455 879.773 613.045C880.121 613.621 880.576 614.015 881.136 614.227C881.697 614.439 882.318 614.545 883 614.545C883.515 614.545 883.985 614.508 884.409 614.432C884.848 614.356 885.182 614.288 885.409 614.227L886.795 620.659C886.356 620.811 885.727 620.977 884.909 621.159C884.106 621.341 883.121 621.447 881.955 621.477C879.894 621.538 878.038 621.227 876.386 620.545C874.735 619.848 873.424 618.773 872.455 617.318C871.5 615.864 871.03 614.045 871.045 611.864V577.727Z" fill="url(#paint11_linear_67_512)"/>
<path d="M1298.87 521V491.909H1309.78C1312.01 491.909 1313.89 492.326 1315.4 493.159C1316.93 493.992 1318.08 495.138 1318.86 496.597C1319.64 498.045 1320.03 499.693 1320.03 501.54C1320.03 503.405 1319.64 505.062 1318.86 506.511C1318.07 507.96 1316.91 509.101 1315.38 509.935C1313.84 510.759 1311.95 511.17 1309.71 511.17H1302.48V506.838H1309C1310.3 506.838 1311.37 506.611 1312.21 506.156C1313.04 505.702 1313.66 505.077 1314.05 504.281C1314.46 503.486 1314.66 502.572 1314.66 501.54C1314.66 500.508 1314.46 499.598 1314.05 498.812C1313.66 498.027 1313.04 497.416 1312.19 496.98C1311.36 496.535 1310.29 496.312 1308.97 496.312H1304.14V521H1298.87ZM1324.38 521V499.182H1329.37V502.818H1329.6C1330 501.559 1330.68 500.588 1331.64 499.906C1332.62 499.215 1333.73 498.869 1334.98 498.869C1335.26 498.869 1335.58 498.884 1335.93 498.912C1336.29 498.931 1336.59 498.964 1336.83 499.011V503.741C1336.61 503.666 1336.26 503.599 1335.79 503.543C1335.33 503.476 1334.88 503.443 1334.44 503.443C1333.5 503.443 1332.66 503.647 1331.91 504.054C1331.17 504.452 1330.59 505.006 1330.17 505.716C1329.74 506.426 1329.53 507.245 1329.53 508.173V521H1324.38ZM1348.86 521.426C1346.73 521.426 1344.88 520.957 1343.32 520.02C1341.76 519.082 1340.55 517.771 1339.69 516.085C1338.83 514.4 1338.41 512.43 1338.41 510.176C1338.41 507.922 1338.83 505.948 1339.69 504.253C1340.55 502.558 1341.76 501.241 1343.32 500.304C1344.88 499.366 1346.73 498.898 1348.86 498.898C1350.99 498.898 1352.84 499.366 1354.4 500.304C1355.96 501.241 1357.17 502.558 1358.02 504.253C1358.89 505.948 1359.32 507.922 1359.32 510.176C1359.32 512.43 1358.89 514.4 1358.02 516.085C1357.17 517.771 1355.96 519.082 1354.4 520.02C1352.84 520.957 1350.99 521.426 1348.86 521.426ZM1348.89 517.307C1350.05 517.307 1351.01 516.99 1351.79 516.355C1352.56 515.711 1353.14 514.849 1353.52 513.77C1353.91 512.69 1354.1 511.488 1354.1 510.162C1354.1 508.827 1353.91 507.619 1353.52 506.54C1353.14 505.451 1352.56 504.584 1351.79 503.94C1351.01 503.296 1350.05 502.974 1348.89 502.974C1347.71 502.974 1346.72 503.296 1345.94 503.94C1345.16 504.584 1344.58 505.451 1344.19 506.54C1343.81 507.619 1343.62 508.827 1343.62 510.162C1343.62 511.488 1343.81 512.69 1344.19 513.77C1344.58 514.849 1345.16 515.711 1345.94 516.355C1346.72 516.99 1347.71 517.307 1348.89 517.307ZM1373.2 521.426C1371.02 521.426 1369.15 520.948 1367.59 519.991C1366.03 519.035 1364.84 517.714 1363.99 516.028C1363.16 514.333 1362.74 512.383 1362.74 510.176C1362.74 507.96 1363.17 506.005 1364.02 504.31C1364.87 502.605 1366.08 501.279 1367.63 500.332C1369.19 499.376 1371.04 498.898 1373.17 498.898C1374.94 498.898 1376.51 499.224 1377.87 499.878C1379.24 500.522 1380.34 501.436 1381.15 502.619C1381.97 503.794 1382.43 505.167 1382.54 506.739H1377.63C1377.43 505.687 1376.96 504.812 1376.21 504.111C1375.47 503.401 1374.48 503.045 1373.24 503.045C1372.19 503.045 1371.27 503.33 1370.47 503.898C1369.68 504.456 1369.06 505.261 1368.61 506.312C1368.17 507.364 1367.96 508.623 1367.96 510.091C1367.96 511.578 1368.17 512.856 1368.61 513.926C1369.05 514.987 1369.66 515.806 1370.44 516.384C1371.24 516.952 1372.17 517.236 1373.24 517.236C1374 517.236 1374.68 517.094 1375.27 516.81C1375.88 516.516 1376.38 516.095 1376.79 515.545C1377.2 514.996 1377.48 514.329 1377.63 513.543H1382.54C1382.42 515.086 1381.97 516.455 1381.18 517.648C1380.4 518.831 1379.33 519.759 1377.97 520.432C1376.62 521.095 1375.03 521.426 1373.2 521.426ZM1396.43 521.426C1394.24 521.426 1392.35 520.972 1390.76 520.062C1389.18 519.144 1387.96 517.847 1387.11 516.17C1386.26 514.485 1385.83 512.501 1385.83 510.219C1385.83 507.974 1386.26 506.005 1387.11 504.31C1387.97 502.605 1389.17 501.279 1390.72 500.332C1392.26 499.376 1394.07 498.898 1396.16 498.898C1397.5 498.898 1398.77 499.116 1399.96 499.551C1401.17 499.977 1402.23 500.64 1403.14 501.54C1404.07 502.439 1404.8 503.585 1405.33 504.977C1405.86 506.36 1406.13 508.008 1406.13 509.92V511.497H1388.24V508.031H1401.2C1401.19 507.046 1400.98 506.17 1400.56 505.403C1400.14 504.627 1399.56 504.016 1398.81 503.571C1398.07 503.126 1397.21 502.903 1396.23 502.903C1395.18 502.903 1394.25 503.159 1393.46 503.67C1392.66 504.172 1392.04 504.835 1391.6 505.659C1391.16 506.473 1390.94 507.368 1390.93 508.344V511.369C1390.93 512.638 1391.16 513.727 1391.62 514.636C1392.09 515.536 1392.74 516.227 1393.57 516.71C1394.4 517.184 1395.38 517.42 1396.5 517.42C1397.25 517.42 1397.92 517.316 1398.53 517.108C1399.13 516.89 1399.66 516.573 1400.11 516.156C1400.55 515.74 1400.89 515.223 1401.11 514.608L1405.91 515.148C1405.61 516.417 1405.03 517.525 1404.18 518.472C1403.34 519.409 1402.26 520.138 1400.94 520.659C1399.63 521.17 1398.12 521.426 1396.43 521.426ZM1427.72 504.949L1423.03 505.46C1422.9 504.987 1422.67 504.542 1422.34 504.125C1422.02 503.708 1421.58 503.372 1421.03 503.116C1420.48 502.861 1419.81 502.733 1419.01 502.733C1417.94 502.733 1417.05 502.965 1416.32 503.429C1415.6 503.893 1415.24 504.494 1415.25 505.233C1415.24 505.867 1415.47 506.384 1415.95 506.781C1416.43 507.179 1417.23 507.506 1418.33 507.761L1422.05 508.557C1424.12 509.002 1425.65 509.707 1426.66 510.673C1427.67 511.639 1428.18 512.903 1428.19 514.466C1428.18 515.839 1427.78 517.051 1426.98 518.102C1426.2 519.144 1425.1 519.958 1423.7 520.545C1422.3 521.133 1420.69 521.426 1418.87 521.426C1416.2 521.426 1414.05 520.867 1412.42 519.75C1410.8 518.623 1409.82 517.056 1409.51 515.048L1414.53 514.565C1414.75 515.55 1415.24 516.294 1415.98 516.795C1416.71 517.297 1417.67 517.548 1418.86 517.548C1420.08 517.548 1421.06 517.297 1421.8 516.795C1422.55 516.294 1422.92 515.673 1422.92 514.935C1422.92 514.31 1422.68 513.794 1422.2 513.386C1421.72 512.979 1420.98 512.667 1419.98 512.449L1416.26 511.668C1414.17 511.232 1412.62 510.498 1411.61 509.466C1410.61 508.424 1410.11 507.108 1410.12 505.517C1410.11 504.172 1410.48 503.008 1411.22 502.023C1411.96 501.028 1413 500.261 1414.33 499.722C1415.66 499.172 1417.2 498.898 1418.94 498.898C1421.5 498.898 1423.51 499.442 1424.98 500.531C1426.46 501.62 1427.37 503.093 1427.72 504.949ZM1449.68 504.949L1444.99 505.46C1444.86 504.987 1444.62 504.542 1444.29 504.125C1443.97 503.708 1443.53 503.372 1442.99 503.116C1442.44 502.861 1441.76 502.733 1440.97 502.733C1439.9 502.733 1439 502.965 1438.27 503.429C1437.55 503.893 1437.19 504.494 1437.2 505.233C1437.19 505.867 1437.43 506.384 1437.9 506.781C1438.38 507.179 1439.18 507.506 1440.29 507.761L1444.01 508.557C1446.07 509.002 1447.61 509.707 1448.61 510.673C1449.62 511.639 1450.13 512.903 1450.14 514.466C1450.13 515.839 1449.73 517.051 1448.94 518.102C1448.15 519.144 1447.06 519.958 1445.66 520.545C1444.25 521.133 1442.64 521.426 1440.83 521.426C1438.16 521.426 1436.01 520.867 1434.38 519.75C1432.75 518.623 1431.78 517.056 1431.47 515.048L1436.48 514.565C1436.71 515.55 1437.19 516.294 1437.93 516.795C1438.67 517.297 1439.63 517.548 1440.81 517.548C1442.03 517.548 1443.01 517.297 1443.75 516.795C1444.5 516.294 1444.87 515.673 1444.87 514.935C1444.87 514.31 1444.63 513.794 1444.15 513.386C1443.68 512.979 1442.94 512.667 1441.93 512.449L1438.21 511.668C1436.12 511.232 1434.57 510.498 1433.57 509.466C1432.56 508.424 1432.07 507.108 1432.08 505.517C1432.07 504.172 1432.43 503.008 1433.17 502.023C1433.92 501.028 1434.95 500.261 1436.28 499.722C1437.62 499.172 1439.15 498.898 1440.9 498.898C1443.45 498.898 1445.47 499.442 1446.93 500.531C1448.41 501.62 1449.33 503.093 1449.68 504.949ZM1454.38 521V499.182H1459.53V521H1454.38ZM1456.97 496.085C1456.16 496.085 1455.45 495.815 1454.87 495.276C1454.28 494.726 1453.99 494.068 1453.99 493.301C1453.99 492.525 1454.28 491.866 1454.87 491.327C1455.45 490.777 1456.16 490.503 1456.97 490.503C1457.79 490.503 1458.49 490.777 1459.07 491.327C1459.66 491.866 1459.95 492.525 1459.95 493.301C1459.95 494.068 1459.66 494.726 1459.07 495.276C1458.49 495.815 1457.79 496.085 1456.97 496.085ZM1469.96 508.216V521H1464.81V499.182H1469.73V502.889H1469.98C1470.49 501.668 1471.29 500.697 1472.38 499.977C1473.49 499.258 1474.86 498.898 1476.49 498.898C1478 498.898 1479.31 499.22 1480.42 499.864C1481.55 500.508 1482.42 501.44 1483.04 502.662C1483.66 503.884 1483.97 505.366 1483.96 507.108V521H1478.82V507.903C1478.82 506.445 1478.44 505.304 1477.68 504.48C1476.94 503.656 1475.9 503.244 1474.57 503.244C1473.67 503.244 1472.87 503.443 1472.17 503.841C1471.48 504.229 1470.94 504.793 1470.54 505.531C1470.15 506.27 1469.96 507.165 1469.96 508.216ZM1498.68 529.636C1496.83 529.636 1495.24 529.385 1493.92 528.884C1492.59 528.391 1491.53 527.728 1490.72 526.895C1489.92 526.062 1489.36 525.138 1489.05 524.125L1493.68 523.003C1493.89 523.429 1494.19 523.85 1494.59 524.267C1494.98 524.693 1495.52 525.044 1496.19 525.318C1496.87 525.602 1497.73 525.744 1498.76 525.744C1500.22 525.744 1501.43 525.389 1502.38 524.679C1503.34 523.978 1503.82 522.823 1503.82 521.213V517.08H1503.56C1503.3 517.61 1502.91 518.154 1502.4 518.713C1501.9 519.272 1501.23 519.741 1500.4 520.119C1499.57 520.498 1498.54 520.688 1497.29 520.688C1495.61 520.688 1494.09 520.295 1492.73 519.509C1491.37 518.713 1490.29 517.529 1489.49 515.957C1488.69 514.376 1488.29 512.397 1488.29 510.02C1488.29 507.624 1488.69 505.602 1489.49 503.955C1490.29 502.297 1491.38 501.043 1492.74 500.19C1494.1 499.329 1495.62 498.898 1497.3 498.898C1498.58 498.898 1499.63 499.116 1500.45 499.551C1501.29 499.977 1501.95 500.493 1502.44 501.099C1502.93 501.696 1503.31 502.259 1503.56 502.79H1503.85V499.182H1508.92V521.355C1508.92 523.221 1508.47 524.764 1507.58 525.986C1506.69 527.207 1505.48 528.121 1503.93 528.727C1502.39 529.333 1500.64 529.636 1498.68 529.636ZM1498.72 516.653C1499.81 516.653 1500.74 516.388 1501.5 515.858C1502.27 515.328 1502.85 514.565 1503.25 513.571C1503.65 512.577 1503.85 511.384 1503.85 509.991C1503.85 508.618 1503.65 507.416 1503.25 506.384C1502.86 505.351 1502.29 504.551 1501.52 503.983C1500.76 503.405 1499.83 503.116 1498.72 503.116C1497.57 503.116 1496.62 503.415 1495.85 504.011C1495.08 504.608 1494.51 505.427 1494.12 506.469C1493.73 507.501 1493.54 508.675 1493.54 509.991C1493.54 511.327 1493.73 512.496 1494.12 513.5C1494.52 514.494 1495.1 515.271 1495.87 515.83C1496.64 516.379 1497.59 516.653 1498.72 516.653Z" fill="url(#paint12_linear_67_512)"/>
<defs>
<filter id="filter0_df_67_512" x="553" y="31" width="492" height="492" filterUnits="userSpaceOnUse" color-interpolation-filters="sRGB">
<feFlood flood-opacity="0" result="BackgroundImageFix"/>
<feColorMatrix in="SourceAlpha" type="matrix" values="0 0 0 0 0 0 0 0 0 0 0 0 0 0 0 0 0 0 127 0" result="hardAlpha"/>
<feMorphology radius="30" operator="dilate" in="SourceAlpha" result="effect1_dropShadow_67_512"/>
<feOffset dy="4"/>
<feGaussianBlur stdDeviation="2"/>
<feComposite in2="hardAlpha" operator="out"/>
<feColorMatrix type="matrix" values="0 0 0 0 0.870588 0 0 0 0 0.388235 0 0 0 0 0.568627 0 0 0 1 0"/>
<feBlend mode="normal" in2="BackgroundImageFix" result="effect1_dropShadow_67_512"/>
<feBlend mode="normal" in="SourceGraphic" in2="effect1_dropShadow_67_512" result="shape"/>
<feGaussianBlur stdDeviation="75" result="effect2_foregroundBlur_67_512"/>
</filter>
<filter id="filter1_bd_67_512" x="1189" y="62" width="425" height="430" filterUnits="userSpaceOnUse" color-interpolation-filters="sRGB">
<feFlood flood-opacity="0" result="BackgroundImageFix"/>
<feGaussianBlur in="BackgroundImageFix" stdDeviation="12.5"/>
<feComposite in2="SourceAlpha" operator="in" result="effect1_backgroundBlur_67_512"/>
<feColorMatrix in="SourceAlpha" type="matrix" values="0 0 0 0 0 0 0 0 0 0 0 0 0 0 0 0 0 0 127 0" result="hardAlpha"/>
<feMorphology radius="7" operator="dilate" in="SourceAlpha" result="effect2_dropShadow_67_512"/>
<feOffset dy="4"/>
<feGaussianBlur stdDeviation="2.5"/>
<feComposite in2="hardAlpha" operator="out"/>
<feColorMatrix type="matrix" values="0 0 0 0 0 0 0 0 0 0 0 0 0 0 0 0 0 0 0.05 0"/>
<feBlend mode="normal" in2="effect1_backgroundBlur_67_512" result="effect2_dropShadow_67_512"/>
<feBlend mode="normal" in="SourceGraphic" in2="effect2_dropShadow_67_512" result="shape"/>
</filter>
<filter id="filter2_bd_67_512" x="-13" y="62" width="425" height="430" filterUnits="userSpaceOnUse" color-interpolation-filters="sRGB">
<feFlood flood-opacity="0" result="BackgroundImageFix"/>
<feGaussianBlur in="BackgroundImageFix" stdDeviation="12.5"/>
<feComposite in2="SourceAlpha" operator="in" result="effect1_backgroundBlur_67_512"/>
<feColorMatrix in="SourceAlpha" type="matrix" values="0 0 0 0 0 0 0 0 0 0 0 0 0 0 0 0 0 0 127 0" result="hardAlpha"/>
<feMorphology radius="7" operator="dilate" in="SourceAlpha" result="effect2_dropShadow_67_512"/>
<feOffset dy="4"/>
<feGaussianBlur stdDeviation="2.5"/>
<feComposite in2="hardAlpha" operator="out"/>
<feColorMatrix type="matrix" values="0 0 0 0 0 0 0 0 0 0 0 0 0 0 0 0 0 0 0.05 0"/>
<feBlend mode="normal" in2="effect1_backgroundBlur_67_512" result="effect2_dropShadow_67_512"/>
<feBlend mode="normal" in="SourceGraphic" in2="effect2_dropShadow_67_512" result="shape"/>
</filter>
<filter id="filter3_bd_67_512" x="511" y="-17" width="309" height="587" filterUnits="userSpaceOnUse" color-interpolation-filters="sRGB">
<feFlood flood-opacity="0" result="BackgroundImageFix"/>
<feGaussianBlur in="BackgroundImageFix" stdDeviation="12.5"/>
<feComposite in2="SourceAlpha" operator="in" result="effect1_backgroundBlur_67_512"/>
<feColorMatrix in="SourceAlpha" type="matrix" values="0 0 0 0 0 0 0 0 0 0 0 0 0 0 0 0 0 0 127 0" result="hardAlpha"/>
<feMorphology radius="7" operator="dilate" in="SourceAlpha" result="effect2_dropShadow_67_512"/>
<feOffset dy="4"/>
<feGaussianBlur stdDeviation="2.5"/>
<feComposite in2="hardAlpha" operator="out"/>
<feColorMatrix type="matrix" values="0 0 0 0 0 0 0 0 0 0 0 0 0 0 0 0 0 0 0.05 0"/>
<feBlend mode="normal" in2="effect1_backgroundBlur_67_512" result="effect2_dropShadow_67_512"/>
<feBlend mode="normal" in="SourceGraphic" in2="effect2_dropShadow_67_512" result="shape"/>
</filter>
<filter id="filter4_bd_67_512" x="770" y="-17" width="321" height="587" filterUnits="userSpaceOnUse" color-interpolation-filters="sRGB">
<feFlood flood-opacity="0" result="BackgroundImageFix"/>
<feGaussianBlur in="BackgroundImageFix" stdDeviation="12.5"/>
<feComposite in2="SourceAlpha" operator="in" result="effect1_backgroundBlur_67_512"/>
<feColorMatrix in="SourceAlpha" type="matrix" values="0 0 0 0 0 0 0 0 0 0 0 0 0 0 0 0 0 0 127 0" result="hardAlpha"/>
<feMorphology radius="7" operator="dilate" in="SourceAlpha" result="effect2_dropShadow_67_512"/>
<feOffset dy="4"/>
<feGaussianBlur stdDeviation="2.5"/>
<feComposite in2="hardAlpha" operator="out"/>
<feColorMatrix type="matrix" values="0 0 0 0 0 0 0 0 0 0 0 0 0 0 0 0 0 0 0.05 0"/>
<feBlend mode="normal" in2="effect1_backgroundBlur_67_512" result="effect2_dropShadow_67_512"/>
<feBlend mode="normal" in="SourceGraphic" in2="effect2_dropShadow_67_512" result="shape"/>
</filter>
<linearGradient id="paint0_linear_67_512" x1="861.836" y1="167.909" x2="745.764" y2="373" gradientUnits="userSpaceOnUse">
<stop stop-color="#DE6391"/>
<stop offset="1" stop-color="#F26400"/>
</linearGradient>
<linearGradient id="paint1_linear_67_512" x1="1404" y1="140" x2="1404" y2="414" gradientUnits="userSpaceOnUse">
<stop stop-color="#E01E5A"/>
<stop offset="1" stop-color="#F26400"/>
</linearGradient>
<linearGradient id="paint2_linear_67_512" x1="201" y1="139" x2="201" y2="415" gradientUnits="userSpaceOnUse">
<stop stop-color="#E01E5A"/>
<stop offset="1" stop-color="#F26400"/>
</linearGradient>
<linearGradient id="paint3_linear_67_512" x1="766.475" y1="278.005" x2="1340.25" y2="193.179" gradientUnits="userSpaceOnUse">
<stop stop-color="#E01E5A"/>
<stop offset="1" stop-color="#F26400"/>
</linearGradient>
<linearGradient id="paint4_linear_67_512" x1="840" y1="267.001" x2="419.216" y2="242.353" gradientUnits="userSpaceOnUse">
<stop stop-color="#E01E5A"/>
<stop offset="1" stop-color="#F26400"/>
</linearGradient>
<linearGradient id="paint5_linear_67_512" x1="764.125" y1="92.6251" x2="764.125" y2="107.375" gradientUnits="userSpaceOnUse">
<stop stop-color="#DE6391"/>
<stop offset="1" stop-color="#FF5242"/>
</linearGradient>
<linearGradient id="paint6_linear_67_512" x1="764.125" y1="195.875" x2="764.125" y2="210.625" gradientUnits="userSpaceOnUse">
<stop stop-color="#DE6391"/>
<stop offset="1" stop-color="#FF5242"/>
</linearGradient>
<linearGradient id="paint7_linear_67_512" x1="970.625" y1="328.625" x2="970.625" y2="343.375" gradientUnits="userSpaceOnUse">
<stop stop-color="#DE6391"/>
<stop offset="1" stop-color="#FF5242"/>
</linearGradient>
<linearGradient id="paint8_linear_67_512" x1="970.625" y1="431.875" x2="970.625" y2="446.625" gradientUnits="userSpaceOnUse">
<stop stop-color="#DE6391"/>
<stop offset="1" stop-color="#FF5242"/>
</linearGradient>
<linearGradient id="paint9_linear_67_512" x1="800.998" y1="65.1903" x2="800.998" y2="488.81" gradientUnits="userSpaceOnUse">
<stop stop-color="#DE6391"/>
<stop offset="1" stop-color="#FF5242"/>
</linearGradient>
<linearGradient id="paint10_linear_67_512" x1="201" y1="473" x2="201" y2="521" gradientUnits="userSpaceOnUse">
<stop stop-color="#E01E5A"/>
<stop offset="1" stop-color="#F26400"/>
</linearGradient>
<linearGradient id="paint11_linear_67_512" x1="801" y1="559" x2="801" y2="636" gradientUnits="userSpaceOnUse">
<stop stop-color="#E01E5A"/>
<stop offset="1" stop-color="#F26400"/>
</linearGradient>
<linearGradient id="paint12_linear_67_512" x1="1404" y1="482" x2="1404" y2="530" gradientUnits="userSpaceOnUse">
<stop stop-color="#E01E5A"/>
<stop offset="1" stop-color="#F26400"/>
</linearGradient>
</defs>
</svg>
