<svg width="24" height="24" viewBox="0 0 24 24" fill="none" xmlns="http://www.w3.org/2000/svg">
<mask id="mask0_402_37" style="mask-type:alpha" maskUnits="userSpaceOnUse" x="0" y="0" width="24" height="24">
<rect width="24" height="24" fill="#D9D9D9"/>
</mask>
<g mask="url(#mask0_402_37)">
<path d="M9 16.05C8.35 16.05 7.80433 15.829 7.363 15.387C6.921 14.9457 6.7 14.4 6.7 13.75C6.7 13.1 6.921 12.554 7.363 12.112C7.80433 11.6707 8.35 11.45 9 11.45C9.65 11.45 10.196 11.6707 10.638 12.112C11.0793 12.554 11.3 13.1 11.3 13.75C11.3 14.4 11.0793 14.9457 10.638 15.387C10.196 15.829 9.65 16.05 9 16.05ZM5.3 21.5C4.8 21.5 4.375 21.325 4.025 20.975C3.675 20.625 3.5 20.2 3.5 19.7V6.3C3.5 5.8 3.675 5.375 4.025 5.025C4.375 4.675 4.8 4.5 5.3 4.5H6.7V2.375H8.225V4.5H15.8V2.375H17.3V4.5H18.7C19.2 4.5 19.625 4.675 19.975 5.025C20.325 5.375 20.5 5.8 20.5 6.3V19.7C20.5 20.2 20.325 20.625 19.975 20.975C19.625 21.325 19.2 21.5 18.7 21.5H5.3ZM5.3 20H18.7C18.7667 20 18.8333 19.9667 18.9 19.9C18.9667 19.8333 19 19.7667 19 19.7V10.3H5V19.7C5 19.7667 5.03333 19.8333 5.1 19.9C5.16667 19.9667 5.23333 20 5.3 20ZM5 8.8H19V6.3C19 6.23333 18.9667 6.16667 18.9 6.1C18.8333 6.03333 18.7667 6 18.7 6H5.3C5.23333 6 5.16667 6.03333 5.1 6.1C5.03333 6.16667 5 6.23333 5 6.3V8.8Z" fill="#1C1B1F"/>
</g>
</svg>
