<svg width="17" height="19" viewBox="0 0 17 19" fill="none" xmlns="http://www.w3.org/2000/svg">
<path d="M5.57061 12.721C5.02061 12.721 4.54994 12.525 4.15861 12.133C3.76661 11.7416 3.57061 11.271 3.57061 10.721C3.57061 10.171 3.76661 9.7003 4.15861 9.30897C4.54994 8.91697 5.02061 8.72097 5.57061 8.72097C6.12061 8.72097 6.59161 8.91697 6.98361 9.30897C7.37494 9.7003 7.57061 10.171 7.57061 10.721C7.57061 11.271 7.37494 11.7416 6.98361 12.133C6.59161 12.525 6.12061 12.721 5.57061 12.721ZM2.37061 18.071C1.93727 18.071 1.57894 17.9293 1.29561 17.646C1.01227 17.3626 0.870605 17.0043 0.870605 16.571V4.17097C0.870605 3.73764 1.01227 3.3793 1.29561 3.09597C1.57894 2.81264 1.93727 2.67097 2.37061 2.67097H4.37061V0.370972H5.17061V2.67097H12.0706V0.370972H12.7706V2.67097H14.7706C15.2039 2.67097 15.5623 2.81264 15.8456 3.09597C16.1289 3.3793 16.2706 3.73764 16.2706 4.17097V16.571C16.2706 17.0043 16.1289 17.3626 15.8456 17.646C15.5623 17.9293 15.2039 18.071 14.7706 18.071H2.37061ZM2.37061 17.371H14.7706C14.9706 17.371 15.1539 17.2876 15.3206 17.121C15.4873 16.9543 15.5706 16.771 15.5706 16.571V8.17097H1.57061V16.571C1.57061 16.771 1.65394 16.9543 1.82061 17.121C1.98727 17.2876 2.17061 17.371 2.37061 17.371ZM1.57061 7.47097H15.5706V4.17097C15.5706 3.97097 15.4873 3.78764 15.3206 3.62097C15.1539 3.45431 14.9706 3.37097 14.7706 3.37097H2.37061C2.17061 3.37097 1.98727 3.45431 1.82061 3.62097C1.65394 3.78764 1.57061 3.97097 1.57061 4.17097V7.47097Z" fill="#1C1B1F"/>
</svg>
