<svg width="24" height="24" viewBox="0 0 24 24" fill="none" xmlns="http://www.w3.org/2000/svg">
<mask id="mask0_402_25" style="mask-type:alpha" maskUnits="userSpaceOnUse" x="0" y="0" width="24" height="24">
<rect width="24" height="24" fill="#D9D9D9"/>
</mask>
<g mask="url(#mask0_402_25)">
<path d="M9.3 20.5C8.8 20.5 8.375 20.325 8.025 19.975C7.675 19.625 7.5 19.2 7.5 18.7V9.3C7.5 8.8 7.675 8.375 8.025 8.025C8.375 7.675 8.8 7.5 9.3 7.5H18.7C19.2 7.5 19.625 7.675 19.975 8.025C20.325 8.375 20.5 8.8 20.5 9.3V18.7C20.5 19.2 20.325 19.625 19.975 19.975C19.625 20.325 19.2 20.5 18.7 20.5H9.3ZM9 11.325H19V9.3C19 9.21667 18.971 9.14567 18.913 9.087C18.8543 9.029 18.7833 9 18.7 9H9.3C9.21667 9 9.146 9.029 9.088 9.087C9.02933 9.14567 9 9.21667 9 9.3V11.325ZM12.825 15.175H15.175V12.825H12.825V15.175ZM12.825 19H15.175V16.675H12.825V19ZM9 15.175H11.325V12.825H9V15.175ZM16.675 15.175H19V12.825H16.675V15.175ZM9.3 19H11.325V16.675H9V18.7C9 18.7833 9.02933 18.8543 9.088 18.913C9.146 18.971 9.21667 19 9.3 19ZM16.675 19H18.7C18.7833 19 18.8543 18.971 18.913 18.913C18.971 18.8543 19 18.7833 19 18.7V16.675H16.675V19ZM5.3 16.5C4.8 16.5 4.375 16.325 4.025 15.975C3.675 15.625 3.5 15.2 3.5 14.7V5.3C3.5 4.8 3.675 4.375 4.025 4.025C4.375 3.675 4.8 3.5 5.3 3.5H14.7C15.2 3.5 15.625 3.675 15.975 4.025C16.325 4.375 16.5 4.8 16.5 5.3V6.5H15V5.3C15 5.21667 14.971 5.146 14.913 5.088C14.8543 5.02933 14.7833 5 14.7 5H5.3C5.21667 5 5.146 5.02933 5.088 5.088C5.02933 5.146 5 5.21667 5 5.3V14.7C5 14.7833 5.02933 14.854 5.088 14.912C5.146 14.9707 5.21667 15 5.3 15H6.5V16.5H5.3Z" fill="#1C1B1F"/>
</g>
</svg>
