<svg width="24" height="24" viewBox="0 0 24 24" fill="none" xmlns="http://www.w3.org/2000/svg">
<mask id="mask0_302_31" style="mask-type:alpha" maskUnits="userSpaceOnUse" x="0" y="0" width="24" height="24">
<rect width="24" height="24" fill="#D9D9D9"/>
</mask>
<g mask="url(#mask0_302_31)">
<path d="M9 21C8.45 21 7.97933 20.8043 7.588 20.413C7.196 20.021 7 19.55 7 19V9C7 8.45 7.196 7.979 7.588 7.587C7.97933 7.19567 8.45 7 9 7H19C19.55 7 20.021 7.19567 20.413 7.587C20.8043 7.979 21 8.45 21 9V19C21 19.55 20.8043 20.021 20.413 20.413C20.021 20.8043 19.55 21 19 21H9ZM9 11H19V9H9V11ZM13 15H15V13H13V15ZM13 19H15V17H13V19ZM9 15H11V13H9V15ZM17 15H19V13H17V15ZM9 19H11V17H9V19ZM17 19H19V17H17V19ZM5 17C4.45 17 3.979 16.8043 3.587 16.413C3.19567 16.021 3 15.55 3 15V5C3 4.45 3.19567 3.979 3.587 3.587C3.979 3.19567 4.45 3 5 3H15C15.55 3 16.021 3.19567 16.413 3.587C16.8043 3.979 17 4.45 17 5V6H15V5H5V15H6V17H5Z" fill="#1C1B1F"/>
</g>
</svg>
