<svg width="27" height="27" viewBox="0 0 27 27" fill="none" xmlns="http://www.w3.org/2000/svg">
<path d="M13.1105 0.277344H22.8231C24.6442 0.277344 26.0859 1.71906 26.0859 3.54017V13.2528C26.0859 20.3855 20.3191 26.1523 13.1864 26.1523H13.1105C5.9778 26.1523 0.210938 20.3855 0.210938 13.2528C0.210938 6.12009 5.9778 0.353224 13.1105 0.277344Z" fill="#148FCC"/>
<path d="M12.9585 19.6261C13.1103 19.7779 13.3379 19.702 13.4897 19.5502L17.5872 13.8592L18.4978 12.5693C18.6495 12.3416 18.5737 12.0381 18.4219 11.8864C18.346 11.8105 18.2701 11.8105 18.1184 11.8105H11.9721L13.4897 7.25769C13.5656 7.10593 13.4897 6.87829 13.3379 6.80241C13.1862 6.72653 12.9585 6.80241 12.8827 6.95417L8.78516 12.6452L7.79873 13.8592C7.64697 14.0869 7.72285 14.3904 7.87461 14.5421C7.95048 14.618 8.02636 14.618 8.17812 14.618H14.3244L12.8068 19.1708C12.7309 19.3226 12.8068 19.5502 12.9585 19.6261Z" fill="white"/>
</svg>
