<svg width="120" height="60" viewBox="0 0 120 60" fill="none" xmlns="http://www.w3.org/2000/svg">
<path d="M64.87 11.572L66.014 11.592L69.122 8.484L69.272 7.167C66.802 4.97 63.552 3.633 59.995 3.633C53.555 3.633 48.119 8.015 46.509 13.951C46.849 13.714 47.574 13.891 47.574 13.891L53.786 12.869C53.786 12.869 54.106 12.339 54.266 12.372C55.5994 10.9133 57.4392 10.0183 59.4099 9.86961C61.3806 9.72095 63.3338 10.3298 64.871 11.572H64.87Z" fill="#EA4335"/>
<path d="M73.5 13.962C72.7859 11.3347 71.3207 8.97283 69.284 7.166L64.882 11.568C65.7854 12.2941 66.5145 13.2135 67.0155 14.2587C67.5165 15.3038 67.7767 16.448 67.777 17.607V18.384C69.919 18.384 71.657 20.127 71.657 22.264C71.657 24.401 69.914 26.144 67.777 26.144H60.015L59.238 26.924V31.582L60.015 32.355H67.777C70.4502 32.3479 73.0118 31.2823 74.9014 29.3914C76.7909 27.5005 77.8547 24.9382 77.86 22.265C77.856 18.829 76.124 15.785 73.49 13.962H73.5Z" fill="#4285F4"/>
<path d="M52.234 32.362H59.994V26.15H52.234C51.6829 26.1503 51.1383 26.0319 50.637 25.803L49.517 26.146L46.409 29.254L46.137 30.304C47.8856 31.6466 50.0304 32.3711 52.235 32.364L52.234 32.362Z" fill="#34A853"/>
<path d="M52.234 12.175C49.5582 12.1792 46.9932 13.2441 45.1012 15.1361C43.2091 17.0282 42.1442 19.5932 42.14 22.269C42.14 23.8271 42.5012 25.364 43.1952 26.759C43.8893 28.1541 44.8972 29.3692 46.14 30.309L50.64 25.809C49.9584 25.5023 49.3798 25.0053 48.9739 24.3776C48.568 23.75 48.3521 23.0185 48.352 22.271C48.352 20.129 50.095 18.391 52.232 18.391C52.9792 18.3923 53.7102 18.6088 54.3376 19.0145C54.965 19.4203 55.4623 19.9981 55.77 20.679L60.27 16.179C58.424 13.749 55.51 12.179 52.23 12.179L52.234 12.175Z" fill="#FBBC05"/>
<path d="M12 51.937C9.88001 51.937 8.06001 51.187 6.52601 49.687C4.99201 48.187 4.22601 46.383 4.22601 44.279C4.22601 42.175 4.99101 40.371 6.52601 38.871C8.06101 37.371 9.88301 36.62 12 36.62C12.9712 36.6059 13.9354 36.7852 14.8366 37.1474C15.7378 37.5097 16.5578 38.0477 17.249 38.73L15.772 40.207C14.7613 39.2297 13.4048 38.6922 11.999 38.712C10.469 38.712 9.16901 39.252 8.10301 40.339C7.58442 40.854 7.17555 41.4687 6.90108 42.146C6.6266 42.8234 6.49221 43.5493 6.50601 44.28C6.50601 45.826 7.03601 47.137 8.10301 48.22C8.60443 48.7461 9.20962 49.1623 9.88025 49.4424C10.5509 49.7225 11.2724 49.8602 11.999 49.847C13.557 49.847 14.844 49.347 15.869 48.313C16.469 47.713 16.869 46.813 17.009 45.678H12.003V43.586H19.047C19.122 43.958 19.147 44.386 19.147 44.886C19.147 46.942 18.544 48.572 17.334 49.781C15.962 51.216 14.184 51.931 11.989 51.931L12 51.937ZM28.37 50.537C27.41 51.477 26.24 51.937 24.858 51.937C23.476 51.937 22.304 51.467 21.346 50.537C20.388 49.607 19.908 48.424 19.908 47.017C19.908 45.61 20.388 44.437 21.346 43.497C22.304 42.557 23.476 42.097 24.858 42.097C26.24 42.097 27.412 42.567 28.37 43.497C29.328 44.427 29.808 45.613 29.808 47.017C29.808 48.421 29.328 49.597 28.37 50.537ZM22.896 49.157C23.1455 49.4281 23.4492 49.6438 23.7873 49.7901C24.1255 49.9363 24.4906 50.0099 24.859 50.006C25.619 50.006 26.273 49.724 26.822 49.156C27.371 48.588 27.644 47.876 27.644 47.016C27.644 46.146 27.374 45.428 26.831 44.866C26.288 44.304 25.633 44.026 24.859 44.026C24.4898 44.0203 24.1236 44.0922 23.7839 44.2369C23.4443 44.3816 23.1387 44.5959 22.887 44.866C22.344 45.426 22.074 46.142 22.074 47.016C22.074 47.874 22.347 48.589 22.896 49.156V49.157ZM39.169 50.537C38.209 51.477 37.039 51.937 35.657 51.937C34.275 51.937 33.103 51.467 32.145 50.537C31.187 49.607 30.707 48.424 30.707 47.017C30.707 45.61 31.187 44.437 32.145 43.497C33.103 42.557 34.275 42.097 35.657 42.097C37.039 42.097 38.211 42.567 39.169 43.497C40.127 44.427 40.607 45.613 40.607 47.017C40.607 48.421 40.127 49.597 39.169 50.537ZM33.695 49.157C33.9445 49.4281 34.2482 49.6438 34.5863 49.7901C34.9245 49.9363 35.2896 50.0099 35.658 50.006C36.418 50.006 37.072 49.724 37.621 49.156C38.17 48.588 38.443 47.876 38.443 47.016C38.443 46.146 38.173 45.428 37.63 44.866C37.087 44.304 36.432 44.026 35.658 44.026C35.2889 44.0203 34.9226 44.0922 34.5829 44.2369C34.2433 44.3816 33.9377 44.5959 33.686 44.866C33.143 45.426 32.873 46.142 32.873 47.016C32.873 47.874 33.146 48.589 33.695 49.156V49.157ZM46.268 56.377C45.173 56.377 44.251 56.083 43.504 55.497C42.757 54.911 42.222 54.233 41.898 53.459L43.786 52.676C43.984 53.15 44.286 53.561 44.719 53.91C45.152 54.259 45.659 54.432 46.271 54.432C47.093 54.432 47.739 54.182 48.204 53.685C48.669 53.188 48.904 52.469 48.904 51.535V50.835H48.829C48.229 51.582 47.352 51.957 46.233 51.957C44.975 51.957 43.873 51.477 42.926 50.519C42.466 50.0662 42.1029 49.5245 41.8588 48.9269C41.6147 48.3294 41.4946 47.6884 41.506 47.043C41.4945 46.3936 41.6143 45.7485 41.8583 45.1465C42.1023 44.5445 42.4655 43.9981 42.926 43.54C43.871 42.577 44.976 42.093 46.233 42.093C46.793 42.093 47.301 42.198 47.755 42.411C48.209 42.624 48.568 42.885 48.829 43.194H48.904V42.4H50.96V51.257C50.96 52.977 50.522 54.261 49.642 55.117C48.762 55.967 47.64 56.397 46.269 56.397L46.268 56.377ZM46.418 50.005C46.7745 50.0113 47.128 49.9384 47.4529 49.7916C47.7778 49.6448 48.0661 49.4277 48.297 49.156C48.801 48.589 49.053 47.883 49.053 47.034C49.053 46.176 48.801 45.458 48.297 44.884C48.0675 44.6101 47.7796 44.391 47.4545 44.2425C47.1295 44.0941 46.7753 44.0201 46.418 44.026C45.658 44.026 45.01 44.314 44.476 44.884C43.942 45.454 43.672 46.172 43.672 47.034C43.672 47.88 43.939 48.589 44.476 49.156C45.013 49.723 45.659 50.006 46.418 50.006V50.005ZM54.62 37.14V51.64H52.453V37.14H54.62ZM60.56 51.936C59.164 51.936 58 51.462 57.066 50.516C56.132 49.57 55.664 48.4 55.664 47.004C55.664 45.56 56.114 44.374 57.018 43.454C57.4421 43.0077 57.9542 42.6543 58.5219 42.4161C59.0895 42.1779 59.7005 42.06 60.316 42.07C60.913 42.07 61.469 42.178 61.979 42.397C62.4532 42.5913 62.8847 42.8767 63.249 43.237C63.5529 43.5395 63.8225 43.8745 64.053 44.236C64.2435 44.545 64.4062 44.8702 64.539 45.208L64.764 45.768L58.17 48.5C58.67 49.496 59.47 49.995 60.562 49.995C61.558 49.995 62.369 49.542 62.99 48.632L64.67 49.754C64.295 50.314 63.767 50.819 63.082 51.267C62.397 51.715 61.554 51.937 60.558 51.937L60.56 51.936ZM57.814 46.856L62.214 45.026C62.088 44.714 61.86 44.462 61.514 44.27C61.1661 44.0751 60.7728 43.9757 60.374 43.982C59.738 43.982 59.144 44.242 58.591 44.765C58.038 45.288 57.771 45.987 57.796 46.857L57.814 46.856ZM76.144 51.936C74.174 51.936 72.524 51.27 71.192 49.936C69.86 48.602 69.192 46.941 69.192 44.948C69.192 42.955 69.858 41.292 71.192 39.96C72.526 38.628 74.175 37.96 76.144 37.96C78.161 37.96 79.8 38.69 81.057 40.145L79.862 41.305C78.962 40.171 77.712 39.605 76.142 39.605C74.682 39.605 73.456 40.097 72.442 41.082C71.428 42.067 70.938 43.354 70.938 44.948C70.938 46.542 71.438 47.832 72.442 48.818C73.446 49.804 74.675 50.295 76.142 50.295C77.748 50.295 79.119 49.647 80.242 48.353L81.437 49.548C80.8108 50.2952 80.0248 50.8922 79.137 51.295C78.1954 51.7282 77.1695 51.9474 76.133 51.937L76.144 51.936ZM84.7 51.64H82.98V38.263H84.7V51.64ZM87.503 43.58C88.388 42.653 89.503 42.187 90.885 42.187C92.267 42.187 93.382 42.652 94.267 43.58C95.152 44.508 95.594 45.68 95.594 47.065C95.594 48.45 95.154 49.622 94.267 50.55C93.38 51.478 92.267 51.943 90.885 51.943C89.503 51.943 88.388 51.478 87.503 50.55C86.618 49.622 86.176 48.45 86.176 47.065C86.176 45.68 86.616 44.508 87.503 43.58ZM88.783 49.463C89.383 50.066 90.077 50.369 90.883 50.369C91.689 50.369 92.383 50.066 92.983 49.463C93.583 48.86 93.871 48.058 93.871 47.063C93.871 46.068 93.574 45.265 92.983 44.663C92.392 44.061 91.689 43.757 90.883 43.757C90.077 43.757 89.383 44.06 88.783 44.663C88.183 45.266 87.895 46.068 87.895 47.063C87.895 48.058 88.192 48.861 88.783 49.463ZM105.103 51.64H103.458V50.37H103.383C103.123 50.805 102.723 51.177 102.188 51.47C101.653 51.763 101.088 51.93 100.488 51.93C99.341 51.93 98.474 51.582 97.883 50.883C97.292 50.184 96.995 49.25 96.995 48.08V42.474H98.715V47.798C98.715 49.506 99.468 50.358 100.975 50.358C101.312 50.3651 101.646 50.2909 101.949 50.1415C102.251 49.9922 102.514 49.7721 102.713 49.5C103.158 48.9363 103.395 48.2369 103.385 47.519V42.474H105.105V51.631L105.103 51.64ZM110.931 51.937C109.748 51.937 108.725 51.469 107.867 50.535C107.009 49.601 106.579 48.443 106.579 47.059C106.579 45.675 107.009 44.517 107.867 43.583C108.725 42.649 109.749 42.181 110.931 42.181C111.627 42.181 112.255 42.331 112.811 42.628C113.367 42.925 113.781 43.3 114.054 43.75H114.129L114.054 42.48V38.26H115.774V51.64H114.129V50.37H114.054C113.781 50.817 113.367 51.192 112.811 51.492C112.256 51.786 111.628 51.936 110.931 51.936V51.937ZM111.211 50.367C111.599 50.3723 111.984 50.295 112.34 50.1404C112.696 49.9858 113.015 49.7573 113.276 49.47C113.843 48.873 114.126 48.068 114.126 47.07C114.126 46.072 113.844 45.257 113.276 44.67C113.015 44.3828 112.696 44.1543 112.34 43.9996C111.984 43.845 111.599 43.7677 111.211 43.773C110.413 43.773 109.728 44.076 109.155 44.679C108.582 45.282 108.297 46.084 108.297 47.079C108.297 48.074 108.582 48.877 109.155 49.479C109.414 49.7672 109.731 49.9971 110.085 50.1533C110.44 50.3095 110.824 50.3885 111.211 50.385V50.367Z" fill="#5F6368"/>
</svg>
