<svg width="120" height="60" viewBox="0 0 120 60" fill="none" xmlns="http://www.w3.org/2000/svg">
    <path
        d="M64.87 11.572L66.014 11.592L69.122 8.484L69.272 7.167C66.802 4.97 63.552 3.633 59.995 3.633C53.555 3.633 48.119 8.015 46.509 13.951C46.849 13.714 47.574 13.891 47.574 13.891L53.786 12.869C53.786 12.869 54.106 12.339 54.266 12.372C55.5994 10.9133 57.4392 10.0183 59.4099 9.86961C61.3806 9.72095 63.3338 10.3298 64.871 11.572H64.87Z"
        fill="#EA4335" />
    <path
        d="M73.5 13.962C72.7859 11.3347 71.3207 8.97283 69.284 7.166L64.882 11.568C65.7854 12.2941 66.5145 13.2135 67.0155 14.2587C67.5165 15.3038 67.7767 16.448 67.777 17.607V18.384C69.919 18.384 71.657 20.127 71.657 22.264C71.657 24.401 69.914 26.144 67.777 26.144H60.015L59.238 26.924V31.582L60.015 32.355H67.777C70.4502 32.3479 73.0118 31.2823 74.9014 29.3914C76.7909 27.5005 77.8547 24.9382 77.86 22.265C77.856 18.829 76.124 15.785 73.49 13.962H73.5Z"
        fill="#4285F4" />
    <path
        d="M52.234 32.362H59.994V26.15H52.234C51.6829 26.1503 51.1383 26.0319 50.637 25.803L49.517 26.146L46.409 29.254L46.137 30.304C47.8856 31.6466 50.0304 32.3711 52.235 32.364L52.234 32.362Z"
        fill="#34A853" />
    <path
        d="M52.234 12.175C49.5582 12.1792 46.9932 13.2441 45.1012 15.1361C43.2091 17.0282 42.1442 19.5932 42.14 22.269C42.14 23.8271 42.5012 25.364 43.1952 26.759C43.8893 28.1541 44.8972 29.3692 46.14 30.309L50.64 25.809C49.9584 25.5023 49.3798 25.0053 48.9739 24.3776C48.568 23.75 48.3521 23.0185 48.352 22.271C48.352 20.129 50.095 18.391 52.232 18.391C52.9792 18.3923 53.7102 18.6088 54.3376 19.0145C54.965 19.4203 55.4623 19.9981 55.77 20.679L60.27 16.179C58.424 13.749 55.51 12.179 52.23 12.179L52.234 12.175Z"
        fill="#FBBC05" />
</svg>
    