<svg width="24" height="24" viewBox="0 0 24 24" fill="none" xmlns="http://www.w3.org/2000/svg">
<mask id="mask0_213_73" style="mask-type:alpha" maskUnits="userSpaceOnUse" x="0" y="0" width="24" height="24">
<rect width="24" height="24" fill="#D9D9D9"/>
</mask>
<g mask="url(#mask0_213_73)">
<path d="M18.275 8.67495L17.275 6.49995L15.1 5.49995L17.275 4.49995L18.275 2.32495L19.3 4.49995L21.45 5.49995L19.3 6.49995L18.275 8.67495ZM20.275 15.825L19.55 14.25L17.95 13.5L19.55 12.75L20.275 11.175L21.025 12.75L22.6 13.5L21.025 14.25L20.275 15.825ZM7.725 21.5L7.45 19.2999C7.25 19.2333 7.046 19.1373 6.838 19.0119C6.62933 18.8873 6.46667 18.7583 6.35 18.625L4.3 19.525L2.25 15.925L4.025 14.625C3.99167 14.3916 3.975 14.1833 3.975 14C3.975 13.8166 3.99167 13.6083 4.025 13.375L2.25 12.075L4.3 8.47495L6.35 9.37495C6.46667 9.24162 6.62933 9.11229 6.838 8.98695C7.046 8.86229 7.25 8.76662 7.45 8.69995L7.725 6.49995H11.85L12.125 8.69995C12.3083 8.76662 12.5043 8.86229 12.713 8.98695C12.921 9.11229 13.0917 9.24162 13.225 9.37495L15.275 8.47495L17.325 12.075L15.55 13.375C15.5833 13.6083 15.6 13.8166 15.6 14C15.6 14.1833 15.5833 14.3916 15.55 14.625L17.325 15.925L15.275 19.525L13.225 18.625C13.0917 18.7583 12.921 18.8873 12.713 19.0119C12.5043 19.1373 12.3083 19.2333 12.125 19.2999L11.85 21.5H7.725ZM9.775 16.725C10.5417 16.725 11.1917 16.4583 11.725 15.925C12.2583 15.3916 12.525 14.75 12.525 14C12.525 13.25 12.2583 12.6083 11.725 12.075C11.1917 11.5416 10.5417 11.275 9.775 11.275C9.025 11.275 8.38333 11.5416 7.85 12.075C7.31667 12.6083 7.05 13.25 7.05 14C7.05 14.75 7.31667 15.3916 7.85 15.925C8.38333 16.4583 9.025 16.725 9.775 16.725Z" fill="#1C1B1F"/>
</g>
</svg>
