<svg width="18" height="18" viewBox="0 0 18 18" fill="none" xmlns="http://www.w3.org/2000/svg">
<path d="M9 18C7.75 18 6.57933 17.7627 5.488 17.288C4.396 16.8127 3.446 16.1707 2.638 15.362C1.82933 14.554 1.18733 13.604 0.712 12.512C0.237333 11.4207 0 10.25 0 9C0 7.75 0.237333 6.579 0.712 5.487C1.18733 4.39567 1.82933 3.44567 2.638 2.637C3.446 1.829 4.396 1.18733 5.488 0.712C6.57933 0.237333 7.75 0 9 0C10.25 0 11.421 0.237333 12.513 0.712C13.6043 1.18733 14.5543 1.829 15.363 2.637C16.171 3.44567 16.8127 4.39567 17.288 5.487C17.7627 6.579 18 7.75 18 9C18 10.25 17.7627 11.4207 17.288 12.512C16.8127 13.604 16.171 14.554 15.363 15.362C14.5543 16.1707 13.6043 16.8127 12.513 17.288C11.421 17.7627 10.25 18 9 18ZM8 16.95V15C7.45 15 6.97933 14.8043 6.588 14.413C6.196 14.021 6 13.55 6 13V12L1.2 7.2C1.15 7.5 1.104 7.8 1.062 8.1C1.02067 8.4 1 8.7 1 9C1 11.0167 1.66267 12.7833 2.988 14.3C4.31267 15.8167 5.98333 16.7 8 16.95ZM14.9 14.4C15.2333 14.0333 15.5333 13.6373 15.8 13.212C16.0667 12.7873 16.2877 12.3457 16.463 11.887C16.6377 11.429 16.771 10.9583 16.863 10.475C16.9543 9.99167 17 9.5 17 9C17 7.35 16.55 5.84567 15.65 4.487C14.75 3.129 13.5333 2.15 12 1.55V2C12 2.55 11.8043 3.02067 11.413 3.412C11.021 3.804 10.55 4 10 4H8V6C8 6.28333 7.90433 6.52067 7.713 6.712C7.521 6.904 7.28333 7 7 7H5V9H11C11.2833 9 11.521 9.09567 11.713 9.287C11.9043 9.479 12 9.71667 12 10V13H13C13.4333 13 13.825 13.129 14.175 13.387C14.525 13.6457 14.7667 13.9833 14.9 14.4Z" fill="#1C1B1F"/>
</svg>
