<svg width="50" height="50" viewBox="0 0 50 50" fill="none" xmlns="http://www.w3.org/2000/svg">
<mask id="mask0_701_2" style="mask-type:luminance" maskUnits="userSpaceOnUse" x="1" y="0" width="48" height="48">
<path d="M48.4357 0.0850077H1.06726V47.4534H48.4357V0.0850077Z" fill="white"/>
</mask>
<g mask="url(#mask0_701_2)">
<path d="M47.2281 21.6887L26.8315 1.29289C25.6577 0.1183 23.7526 0.1183 22.5769 1.29289L18.3419 5.52866L23.7145 10.9013C24.9635 10.4798 26.3949 10.7625 27.3899 11.7576C28.3902 12.759 28.6707 14.2026 28.2389 15.4557L33.417 20.634C34.6696 20.2021 36.1154 20.4812 37.1154 21.4833C38.5141 22.8811 38.5141 25.147 37.1154 26.5455C36.7828 26.8779 36.3883 27.1418 35.9539 27.3218C35.5194 27.5018 35.0539 27.5945 34.5836 27.5945C34.1133 27.5945 33.6478 27.5018 33.2133 27.3218C32.7789 27.1418 32.3841 26.8779 32.0518 26.5455C31.5523 26.0457 31.2118 25.4094 31.0733 24.7166C30.9346 24.0237 31.0041 23.3054 31.2728 22.652L26.4441 17.8234L26.4433 30.5318C26.7936 30.7042 27.1136 30.9329 27.3904 31.2082C28.7886 32.6061 28.7886 34.8711 27.3904 36.2718C25.9919 37.6697 23.7253 37.6697 22.3283 36.2718C20.9301 34.8716 20.9301 32.6063 22.3283 31.2082C22.6632 30.8729 23.0616 30.6074 23.5003 30.4274V17.6013C23.0613 17.4219 22.6628 17.1563 22.3283 16.8201C21.2691 15.7617 21.0141 14.2074 21.5574 12.9063L16.2606 7.60955L2.27512 21.5943C1.71089 22.1587 1.39392 22.9241 1.39392 23.7222C1.39392 24.5203 1.71089 25.2857 2.27512 25.8501L22.672 46.2458C23.8466 47.4205 25.751 47.4205 26.9275 46.2458L47.2286 25.9448C47.7925 25.3803 48.1094 24.6148 48.1094 23.8167C48.1094 23.0186 47.7923 22.2532 47.2281 21.6887Z" fill="#8E8E8E"/>
</g>
</svg>
