<svg width="100%" height="100%" viewBox="0 0 176 179" version="1.1" xmlns="http://www.w3.org/2000/svg" xmlns:xlink="http://www.w3.org/1999/xlink" xml:space="preserve" xmlns:serif="http://www.serif.com/" style="fill-rule:evenodd;clip-rule:evenodd;stroke-linejoin:round;stroke-miterlimit:2;">
    <g transform="matrix(4.16667,0,0,4.16667,0,0)">
        <g id="Artboard1" transform="matrix(1,0,0,1,0.169502,0.538963)">
            <rect x="-0.17" y="-0.539" width="42.218" height="42.781" style="fill:none;"/>
            <g transform="matrix(1,0,0,1,0.830498,0.461037)">
                <g>
                    <path d="M34.253,11.902L32.995,10.975C33.038,8.677 32.483,4.654 28.727,1.332L28.721,1.326C27.271,0.071 25.076,0.071 23.614,1.326C22.744,2.076 21.622,2.491 20.468,2.491C19.309,2.491 18.192,2.076 17.323,1.326C15.861,0.071 13.665,0.071 12.197,1.339C8.601,4.532 7.88,8.275 7.948,10.963L6.696,11.877C5.178,12.987 4.272,14.748 4.272,16.601L4.272,18.606C4.272,25.256 6.948,31.784 11.247,35.636C14.769,38.788 17.699,40.263 20.468,40.269C23.225,40.263 26.155,38.794 29.677,35.636C33.982,31.784 36.653,25.256 36.653,18.6L36.653,16.595C36.659,14.748 35.758,12.986 34.253,11.902Z" style="fill:white;fill-rule:nonzero;"/>
                    <path d="M15.269,11.164C14.578,11.164 14.01,11.883 14.01,12.761C14.01,13.645 14.578,14.358 15.269,14.358C15.959,14.358 16.527,13.639 16.527,12.761C16.527,11.883 15.959,11.164 15.269,11.164Z" style="fill:rgb(11,25,54);fill-rule:nonzero;"/>
                    <path d="M24.311,13.493L24.317,13.493C24.471,13.493 24.613,13.395 24.718,13.322L24.767,13.292C25.335,12.914 25.81,12.883 26.315,13.2C26.593,13.377 26.883,13.395 27.086,13.243C27.296,13.091 27.376,12.804 27.284,12.512C27.117,11.987 26.63,11.591 26.069,11.512C25.285,11.402 24.496,11.865 23.947,12.749C23.781,13.011 23.854,13.237 23.984,13.359C24.07,13.444 24.181,13.487 24.311,13.493Z" style="fill:rgb(11,25,54);fill-rule:nonzero;"/>
                    <path d="M33.149,13.37L31.083,11.852C31.293,9.841 31.12,5.903 27.499,2.703C26.741,2.045 25.593,2.051 24.823,2.71C23.614,3.752 22.065,4.325 20.462,4.325C18.858,4.325 17.31,3.752 16.101,2.71C15.336,2.051 14.183,2.045 13.424,2.703C9.699,6.013 9.644,9.932 9.847,11.846L7.787,13.37C6.745,14.12 6.122,15.327 6.122,16.601L6.122,18.606C6.122,24.762 8.564,30.766 12.493,34.283C15.657,37.117 18.192,38.434 20.468,38.44C22.744,38.434 25.273,37.117 28.437,34.283C32.366,30.766 34.808,24.756 34.808,18.606L34.808,16.601C34.808,15.327 34.185,14.12 33.149,13.37ZM11.475,12.255C11.303,10.774 11.919,9.615 13.196,9.116C14.695,8.531 16.749,8.951 18.359,10.646C18.618,10.92 18.846,11.188 19.055,11.438C19.561,12.047 19.956,12.523 20.462,12.523C20.967,12.523 21.362,12.047 21.868,11.438C22.078,11.188 22.306,10.914 22.565,10.645C24.175,8.951 26.235,8.524 27.727,9.116C29.004,9.615 29.621,10.78 29.448,12.255C29.134,14.095 28.27,15.772 26.944,17.076C25.248,18.746 22.966,19.667 20.462,19.667C17.958,19.667 15.675,18.746 13.979,17.076C12.653,15.772 11.79,14.095 11.475,12.255ZM24.582,35.252C23.003,36.3 21.646,36.818 20.468,36.818C19.876,36.818 19.241,36.684 18.556,36.428C21.029,33.905 22.436,30.522 22.436,26.987C22.436,24.921 21.985,22.903 21.159,21.19C23.57,21.044 25.865,20.148 27.678,18.496C28.899,19.99 29.59,22.659 29.59,24.866C29.59,28.657 27.24,33.356 24.582,35.252Z" style="fill:rgb(11,25,54);fill-rule:nonzero;"/>
                    <path d="M20.832,17.943L20.851,17.906C21.332,16.986 21.535,16.163 21.535,15.158C21.535,15.06 21.535,14.962 21.523,14.871C21.48,14.237 21.054,13.81 20.456,13.81C19.858,13.81 19.432,14.237 19.389,14.871C19.383,14.962 19.377,15.06 19.377,15.158C19.377,16.163 19.58,16.986 20.061,17.906L20.08,17.943C20.148,18.077 20.252,18.284 20.45,18.284C20.66,18.29 20.764,18.083 20.832,17.943Z" style="fill:rgb(11,25,54);fill-rule:nonzero;"/>
                    <path d="M19.629,9.712C19.673,9.756 19.714,9.797 19.753,9.835C20.08,10.164 20.197,10.274 20.468,10.274C20.736,10.274 20.847,10.162 21.163,9.843L21.177,9.829C21.338,9.658 21.56,9.439 21.88,9.146C24.058,7.178 26.932,6.635 29.239,8.177C28.764,6.526 27.814,5.026 26.475,3.868C26.303,3.722 26.031,3.722 25.859,3.88C24.36,5.166 22.497,5.873 20.468,5.873C18.439,5.873 16.576,5.166 15.077,3.88C14.892,3.728 14.627,3.722 14.454,3.874C13.122,5.026 12.172,6.532 11.691,8.183C13.998,6.635 16.872,7.184 19.049,9.153C19.296,9.378 19.481,9.563 19.629,9.712L19.629,9.712ZM8.756,25.018L12.851,18.119C12.894,18.156 12.937,18.194 12.981,18.233C14.155,19.263 15.862,20.761 19.321,21.166C21.282,24.634 22.146,30.827 17.027,35.679C11.728,32.363 9.872,28.615 8.756,25.018Z" style="fill:rgb(51,71,110);"/>
                </g>
            </g>
        </g>
    </g>
</svg>