<svg width="63" height="51" viewBox="0 0 63 51" fill="none" xmlns="http://www.w3.org/2000/svg">
<g clip-path="url(#clip0_609_2)">
<path d="M41.4796 14.2817L46.8862 8.87512L47.2454 6.59952C37.3945 -2.36028 21.734 -1.34312 12.851 8.71884C10.3835 11.5126 8.55477 14.9973 7.57874 18.5971L9.51436 18.3229L20.3275 16.5409L21.161 15.6882C25.9699 10.405 34.1045 9.69488 39.6564 14.1885L41.4796 14.2817Z" fill="#909090"/>
<path d="M54.5903 18.4354C53.3483 13.8595 50.7958 9.74425 47.2481 6.5968L39.6591 14.1858C42.8641 16.8041 44.6874 20.7466 44.6106 24.8838V26.23C48.3393 26.23 51.3633 29.254 51.3633 32.9827C51.3633 36.7114 48.3393 39.6615 44.6106 39.6615H31.0859L29.7589 41.1036V49.2052L31.0859 50.4774H44.6106C54.3106 50.5541 62.2368 42.8253 62.3136 33.1253C62.3602 27.2444 59.4595 21.7309 54.5903 18.4354Z" fill="#9B9B9B"/>
<path d="M17.5776 50.4774H31.0858V39.6642H17.5776C16.6207 39.6642 15.6776 39.4558 14.8085 39.0583L12.8921 39.645L7.44709 45.0516L6.97278 46.8913C10.027 49.197 13.753 50.4938 17.5776 50.4774Z" fill="#6E6E6E"/>
<path d="M17.5776 15.4003C7.87475 15.4579 0.0582193 23.3704 0.115795 33.0732C0.148695 38.4907 2.67926 43.5903 6.97273 46.894L14.8085 39.0583C11.4088 37.5229 9.89811 33.5228 11.4334 30.1231C12.9688 26.7235 16.9689 25.2128 20.3686 26.7481C21.8655 27.4253 23.0664 28.6234 23.7436 30.1231L31.5793 22.2874C28.2454 17.9281 23.0637 15.3811 17.5776 15.4003Z" fill="#808080"/>
</g>
<defs>
<clipPath id="clip0_609_2">
<rect width="62.1977" height="50" fill="white" transform="translate(0.115845 0.477356)"/>
</clipPath>
</defs>
</svg>
