<svg width="95" height="101" viewBox="0 0 95 101" fill="none" xmlns="http://www.w3.org/2000/svg">
<g clip-path="url(#clip0_501_2)">
<path d="M21.6091 53.4606V21.3673H7.58684C3.45916 21.3673 0.12146 24.7248 0.12146 28.8524V95.1916C0.12146 98.5293 4.1504 100.188 6.50061 97.8381L21.9251 82.4136H65.8484C69.9761 82.4136 73.3138 79.0759 73.3138 74.9482V60.9259H29.0943C24.9666 60.9259 21.6091 57.5882 21.6091 53.4606Z" fill="#00AC47"/>
<path d="M87.3361 0.195679H29.0943C24.9666 0.195679 21.6289 3.53338 21.6289 7.66106V21.3673H65.8485C69.9761 21.3673 73.3138 24.705 73.3138 28.8327V60.9062H87.3361C91.4638 60.9062 94.8015 57.5685 94.8015 53.4408V7.66106C94.8015 3.53338 91.4638 0.195679 87.3361 0.195679Z" fill="#5BB974"/>
<path d="M65.8484 21.3673H21.6091V53.4408C21.6091 57.5685 24.9468 60.9062 29.0745 60.9062H73.2941V28.8524C73.3138 24.7248 69.9761 21.3673 65.8484 21.3673Z" fill="#00832D"/>
</g>
<defs>
<clipPath id="clip0_501_2">
<rect width="94.68" height="100" fill="white" transform="translate(0.12146 0.192017)"/>
</clipPath>
</defs>
</svg>
