<svg width="48" height="51" viewBox="0 0 48 51" fill="none" xmlns="http://www.w3.org/2000/svg">
<g clip-path="url(#clip0_703_6)">
<path d="M10.8653 26.8263V10.7797H3.85415C1.79031 10.7797 0.12146 12.4584 0.12146 14.5222V47.6918C0.12146 49.3607 2.13593 50.1902 3.31103 49.0151L11.0233 41.3028H32.9849C35.0488 41.3028 36.7176 39.634 36.7176 37.5701V30.559H14.6079C12.544 30.559 10.8653 28.8901 10.8653 26.8263Z" fill="#565656"/>
<path d="M43.7287 0.193848H14.6078C12.544 0.193848 10.8751 1.8627 10.8751 3.92654V10.7797H32.9849C35.0487 10.7797 36.7176 12.4485 36.7176 14.5124V30.5491H43.7287C45.7926 30.5491 47.4614 28.8803 47.4614 26.8164V3.92654C47.4614 1.8627 45.7926 0.193848 43.7287 0.193848Z" fill="#8A8A8A"/>
<path d="M32.9849 10.7797H10.8652V26.8164C10.8652 28.8803 12.5341 30.5491 14.5979 30.5491H36.7077V14.5222C36.7176 12.4584 35.0487 10.7797 32.9849 10.7797Z" fill="#424242"/>
</g>
<defs>
<clipPath id="clip0_703_6">
<rect width="47.34" height="50" fill="white" transform="translate(0.12146 0.192017)"/>
</clipPath>
</defs>
</svg>
