<svg width="25" height="25" viewBox="0 0 25 25" fill="none" xmlns="http://www.w3.org/2000/svg">
<mask id="mask0_503_7" style="mask-type:alpha" maskUnits="userSpaceOnUse" x="0" y="0" width="25" height="25">
<rect x="0.238159" y="0.462646" width="24" height="24" fill="#D9D9D9"/>
</mask>
<g mask="url(#mask0_503_7)">
<path d="M5.23816 20.4626C4.68816 20.4626 4.21716 20.267 3.82516 19.8756C3.43383 19.4836 3.23816 19.0126 3.23816 18.4626V4.46265C3.23816 3.91265 3.43383 3.44165 3.82516 3.04965C4.21716 2.65831 4.68816 2.46265 5.23816 2.46265H19.2382C19.7882 2.46265 20.2592 2.65831 20.6512 3.04965C21.0425 3.44165 21.2382 3.91265 21.2382 4.46265V11.5626C21.0715 11.5293 20.9092 11.5043 20.7512 11.4876C20.5925 11.471 20.4215 11.4626 20.2382 11.4626H19.2382V4.46265H5.23816V18.4626H8.33816C8.40483 18.8293 8.49249 19.1793 8.60116 19.5126C8.70916 19.846 8.85483 20.1626 9.03816 20.4626H5.23816ZM7.23816 16.4626H8.33816C8.47149 15.646 8.76316 14.892 9.21316 14.2006C9.66316 13.5086 10.2382 12.9293 10.9382 12.4626H7.23816V16.4626ZM7.23816 10.4626H11.2382V6.46265H7.23816V10.4626ZM14.2382 21.4626C13.1382 21.4626 12.1965 21.071 11.4132 20.2876C10.6298 19.5043 10.2382 18.5626 10.2382 17.4626C10.2382 16.3626 10.6298 15.421 11.4132 14.6376C12.1965 13.8543 13.1382 13.4626 14.2382 13.4626H16.2382V15.4626H14.2382C13.6882 15.4626 13.2175 15.6586 12.8262 16.0506C12.4342 16.442 12.2382 16.9126 12.2382 17.4626C12.2382 18.0126 12.4342 18.4836 12.8262 18.8756C13.2175 19.267 13.6882 19.4626 14.2382 19.4626H16.2382V21.4626H14.2382ZM13.2382 10.4626H17.2382V6.46265H13.2382V10.4626ZM14.2382 18.4626V16.4626H20.2382V18.4626H14.2382ZM18.2382 21.4626V19.4626H20.2382C20.7882 19.4626 21.2592 19.267 21.6512 18.8756C22.0425 18.4836 22.2382 18.0126 22.2382 17.4626C22.2382 16.9126 22.0425 16.442 21.6512 16.0506C21.2592 15.6586 20.7882 15.4626 20.2382 15.4626H18.2382V13.4626H20.2382C21.3382 13.4626 22.2798 13.85 23.0632 14.6246C23.8465 15.4 24.2382 16.346 24.2382 17.4626C24.2382 18.5626 23.8465 19.5043 23.0632 20.2876C22.2798 21.071 21.3382 21.4626 20.2382 21.4626H18.2382Z" fill="#1C1B1F"/>
</g>
</svg>
