<svg width="24" height="24" viewBox="0 0 24 24" fill="none" xmlns="http://www.w3.org/2000/svg">
<mask id="mask0_402_61" style="mask-type:alpha" maskUnits="userSpaceOnUse" x="0" y="0" width="24" height="24">
<rect width="24" height="24" fill="#D9D9D9"/>
</mask>
<g mask="url(#mask0_402_61)">
<path d="M10.7 16.55H6.89998C5.63331 16.55 4.55831 16.1043 3.67498 15.213C2.79164 14.321 2.34998 13.25 2.34998 12C2.34998 10.75 2.79164 9.67895 3.67498 8.78695C4.55831 7.89562 5.63331 7.44995 6.89998 7.44995H10.7V8.94995H6.89998C6.04998 8.94995 5.32898 9.24995 4.73698 9.84995C4.14564 10.45 3.84998 11.1666 3.84998 12C3.84998 12.8333 4.14564 13.55 4.73698 14.15C5.32898 14.75 6.04998 15.05 6.89998 15.05H10.7V16.55ZM8.14998 12.75V11.25H15.65V12.75H8.14998ZM21.425 12H19.925C19.925 11.1666 19.6293 10.45 19.038 9.84995C18.446 9.24995 17.7333 8.94995 16.9 8.94995H13.075V7.44995H16.9C18.15 7.44995 19.2166 7.89562 20.1 8.78695C20.9833 9.67895 21.425 10.75 21.425 12ZM17.15 19.75V16.75H14.15V15.25H17.15V12.25H18.65V15.25H21.65V16.75H18.65V19.75H17.15Z" fill="#1C1B1F"/>
</g>
</svg>
