<svg width="25" height="25" viewBox="0 0 25 25" fill="none" xmlns="http://www.w3.org/2000/svg">
<mask id="mask0_1003_7" style="mask-type:alpha" maskUnits="userSpaceOnUse" x="0" y="0" width="25" height="25">
<rect x="0.238159" y="0.462646" width="24" height="24" fill="#D9D9D9"/>
</mask>
<g mask="url(#mask0_1003_7)">
<path d="M5.54586 19.9626C5.04073 19.9626 4.61316 19.7876 4.26316 19.4376C3.91316 19.0876 3.73816 18.66 3.73816 18.1549V4.77035C3.73816 4.26521 3.91316 3.83765 4.26316 3.48765C4.61316 3.13765 5.04073 2.96265 5.54586 2.96265H18.9304C19.4355 2.96265 19.8631 3.13765 20.2131 3.48765C20.5631 3.83765 20.7381 4.26521 20.7381 4.77035V11.6395C20.6163 11.619 20.4987 11.6036 20.3852 11.5934C20.2718 11.5831 20.149 11.578 20.017 11.578H19.2381V4.77035C19.2381 4.69341 19.2061 4.62289 19.142 4.55877C19.0779 4.49467 19.0073 4.46262 18.9304 4.46262H5.54586C5.46893 4.46262 5.3984 4.49467 5.33428 4.55877C5.27018 4.62289 5.23813 4.69341 5.23813 4.77035V18.1549C5.23813 18.2318 5.27018 18.3024 5.33428 18.3665C5.3984 18.4306 5.46893 18.4626 5.54586 18.4626H8.51123C8.56507 18.7395 8.63173 19.0014 8.71121 19.2482C8.79071 19.495 8.89328 19.7331 9.01891 19.9626H5.54586ZM7.48816 16.2126H8.55931C8.71188 15.5049 8.9811 14.8501 9.36698 14.2482C9.75288 13.6463 10.2349 13.1344 10.8131 12.7126H7.48816V16.2126ZM7.48816 10.2126H10.9881V6.71265H7.48816V10.2126ZM14.2381 20.9626C13.2728 20.9626 12.4481 20.6206 11.7641 19.9366C11.0801 19.2527 10.7382 18.428 10.7382 17.4626C10.7382 16.4973 11.0801 15.6726 11.7641 14.9886C12.4481 14.3046 13.2728 13.9626 14.2381 13.9626H16.142V15.4626H14.2381C13.6881 15.4626 13.2173 15.6585 12.8256 16.0501C12.434 16.4418 12.2381 16.9126 12.2381 17.4626C12.2381 18.0126 12.434 18.4835 12.8256 18.8751C13.2173 19.2668 13.6881 19.4626 14.2381 19.4626H16.142V20.9626H14.2381ZM13.4882 10.2126H16.9881V6.71265H13.4882V10.2126ZM14.2381 18.2126V16.7126H20.2381V18.2126H14.2381ZM18.3343 20.9626V19.4626H20.2381C20.7881 19.4626 21.259 19.2668 21.6506 18.8751C22.0423 18.4835 22.2381 18.0126 22.2381 17.4626C22.2381 16.9126 22.0423 16.4418 21.6506 16.0501C21.259 15.6585 20.7881 15.4626 20.2381 15.4626H18.3343V13.9626H20.2381C21.2035 13.9626 22.0282 14.3021 22.7122 14.9809C23.3961 15.6598 23.7381 16.487 23.7381 17.4626C23.7381 18.428 23.3961 19.2527 22.7122 19.9366C22.0282 20.6206 21.2035 20.9626 20.2381 20.9626H18.3343Z" fill="#1C1B1F"/>
</g>
</svg>
