<svg width="25" height="25" viewBox="0 0 25 25" fill="none" xmlns="http://www.w3.org/2000/svg">
<mask id="mask0_601_13" style="mask-type:alpha" maskUnits="userSpaceOnUse" x="0" y="0" width="25" height="25">
<rect x="0.136963" y="0.620972" width="24" height="24" fill="#D9D9D9"/>
</mask>
<g mask="url(#mask0_601_13)">
<path d="M3.63696 20.3133V9.39794C3.37286 9.26589 3.14017 9.06141 2.93889 8.78449C2.7376 8.50758 2.63696 8.18386 2.63696 7.81334V5.42877C2.63696 4.92365 2.81196 4.49609 3.16196 4.14609C3.51196 3.79609 3.93953 3.62109 4.44466 3.62109H19.8292C20.3343 3.62109 20.7619 3.79609 21.1119 4.14609C21.4619 4.49609 21.6369 4.92365 21.6369 5.42877V7.81334C21.6369 8.18386 21.5363 8.50758 21.335 8.78449C21.1337 9.06141 20.901 9.26589 20.6369 9.39794V20.3133C20.6369 20.8184 20.4619 21.246 20.1119 21.596C19.7619 21.946 19.3343 22.121 18.8292 22.121H5.44466C4.93953 22.121 4.51196 21.946 4.16196 21.596C3.81196 21.246 3.63696 20.8184 3.63696 20.3133ZM5.13694 9.62102V20.3133C5.13694 20.403 5.16579 20.4768 5.22349 20.5345C5.28119 20.5922 5.35491 20.621 5.44466 20.621H18.8292C18.919 20.621 18.9927 20.5922 19.0504 20.5345C19.1081 20.4768 19.1369 20.403 19.1369 20.3133V9.62102H5.13694ZM19.8292 8.12104C19.919 8.12104 19.9927 8.0922 20.0504 8.03452C20.1081 7.97682 20.1369 7.90309 20.1369 7.81334V5.42877C20.1369 5.33902 20.1081 5.26529 20.0504 5.20759C19.9927 5.14989 19.919 5.12104 19.8292 5.12104H4.44466C4.35491 5.12104 4.28119 5.14989 4.22349 5.20759C4.16579 5.26529 4.13694 5.33902 4.13694 5.42877V7.81334C4.13694 7.90309 4.16579 7.97682 4.22349 8.03452C4.28119 8.0922 4.35491 8.12104 4.44466 8.12104H19.8292ZM9.32926 14.3133H14.9446V12.8133H9.32926V14.3133Z" fill="#1C1B1F"/>
</g>
</svg>
