<svg width="51" height="51" viewBox="0 0 51 51" fill="none" xmlns="http://www.w3.org/2000/svg">
<g clip-path="url(#clip0_608_39)">
<path d="M49.5038 24.5055L25.9019 0.903564L2.29992 24.5055C1.92992 24.877 1.72217 25.38 1.72217 25.9043C1.72217 26.4287 1.92992 26.9317 2.29992 27.3032L25.9019 50.9052L49.5038 27.3032C49.8738 26.9317 50.0816 26.4287 50.0816 25.9043C50.0816 25.38 49.8738 24.877 49.5038 24.5055ZM25.9019 33.294L18.5098 25.9019L25.9019 18.5098L33.294 25.9019L25.9019 33.294Z" fill="#939393"/>
<path d="M25.9018 18.5587C23.5768 16.234 22.2661 13.0837 22.256 9.79589C22.246 6.50808 23.5373 3.34987 25.848 1.01099L9.62354 17.133L18.4267 25.9361L25.9018 18.5587Z" fill="url(#paint0_linear_608_39)"/>
<path d="M33.3135 25.8823L25.9019 33.2939C27.0584 34.4497 27.9758 35.8221 28.6018 37.3325C29.2277 38.843 29.5499 40.462 29.5499 42.0971C29.5499 43.7321 29.2277 45.3511 28.6018 46.8616C27.9758 48.3721 27.0584 49.7444 25.9019 50.9002L42.1117 34.6903L33.3135 25.8823Z" fill="url(#paint1_linear_608_39)"/>
</g>
<defs>
<linearGradient id="paint0_linear_608_39" x1="24.5835" y1="11.0347" x2="14.2619" y2="21.3563" gradientUnits="userSpaceOnUse">
<stop offset="0.18" stop-color="#666666"/>
<stop offset="1" stop-color="#939393"/>
</linearGradient>
<linearGradient id="paint1_linear_608_39" x1="27.3129" y1="40.686" x2="37.615" y2="30.384" gradientUnits="userSpaceOnUse">
<stop offset="0.18" stop-color="#666666"/>
<stop offset="1" stop-color="#939393"/>
</linearGradient>
<clipPath id="clip0_608_39">
<rect width="50" height="50" fill="white" transform="translate(0.902832 0.902832)"/>
</clipPath>
</defs>
</svg>
