<svg width="113" height="137" viewBox="0 0 113 137" fill="none" xmlns="http://www.w3.org/2000/svg">
<g clip-path="url(#clip0_1020_88)">
<path d="M107.847 107.143C107.846 107.142 107.845 107.142 107.845 107.141C107.844 107.14 107.844 107.139 107.844 107.138C106.886 106.058 106.43 104.053 105.939 101.918C105.45 99.7838 104.902 97.4828 103.15 95.9918C103.147 95.9878 103.142 95.9858 103.14 95.9818C102.507 95.4235 101.778 94.9844 100.989 94.6858C103.423 87.4658 102.469 80.2728 100.01 73.7758C96.9941 65.7998 91.7271 58.8508 87.7051 54.0978C83.2021 48.4178 78.7991 43.0278 78.8861 35.0628C79.0201 22.9098 80.2221 0.372775 58.8361 0.342775C57.9273 0.342493 57.0189 0.37919 56.1131 0.452775C32.2131 2.37578 38.5531 27.6268 38.1981 36.0808C37.7601 42.2648 36.5081 47.1378 32.2541 53.1818C27.2591 59.1218 20.2241 68.7378 16.8921 78.7488C15.3201 83.4718 14.5721 88.2868 15.2621 92.8448C15.0461 93.0388 14.8421 93.2428 14.6431 93.4508C13.1771 95.0178 12.0931 96.9148 10.8861 98.1918C9.75713 99.3188 8.15113 99.7458 6.38313 100.379C4.61613 101.013 2.67613 101.949 1.49913 104.207C1.49913 104.207 1.49913 104.209 1.49713 104.209C1.49513 104.212 1.49413 104.217 1.49113 104.22C0.937132 105.254 0.757132 106.37 0.757132 107.501C0.757132 108.548 0.911132 109.608 1.06813 110.629C1.39313 112.753 1.72313 114.762 1.28513 116.123C-0.111867 119.947 -0.292868 122.59 0.692132 124.509C1.68013 126.432 3.70813 127.279 6.00213 127.759C10.5871 128.715 16.7981 128.479 21.6921 131.073L22.1131 130.279L21.6961 131.074C26.9361 133.814 32.2481 134.787 36.4861 133.819C39.5591 133.119 42.0531 131.289 43.3341 128.472C46.6491 128.456 50.2861 127.052 56.1141 126.732C60.0661 126.413 65.0041 128.136 70.6841 127.82C70.8321 128.436 71.0471 129.03 71.3411 129.592L71.3511 129.608C73.5521 134.011 77.6421 136.025 82.0031 135.681C86.3681 135.337 91.0091 132.763 94.7631 128.299L94.0741 127.721L94.7671 128.292C98.3441 123.955 104.279 122.158 108.217 119.784C110.184 118.597 111.78 117.111 111.905 114.952C112.027 112.795 110.76 110.377 107.847 107.143Z" fill="#202020"/>
<path d="M110.109 114.85C110.032 116.182 109.069 117.172 107.286 118.245C103.726 120.392 97.4162 122.261 93.3862 127.142C89.8862 131.307 85.6192 133.594 81.8612 133.891C78.1032 134.187 74.8612 132.628 72.9482 128.791L72.9462 128.784L72.9422 128.774C71.7542 126.517 72.2482 122.958 73.2472 119.203C74.2472 115.448 75.6832 111.591 75.8742 108.458V108.448C76.0762 104.434 76.3022 100.927 76.9762 98.2209C77.6512 95.5139 78.7132 93.6829 80.5962 92.6529C80.6842 92.6059 80.7702 92.5599 80.8572 92.5169C81.0702 95.9939 82.7932 99.5419 85.8352 100.307C89.1652 101.186 93.9632 98.3289 95.9902 95.9989C96.3952 95.9829 96.7902 95.9619 97.1732 95.9529C98.9532 95.9099 100.442 96.0129 101.966 97.3449L101.971 97.3489L101.976 97.3529C103.148 98.3449 103.704 100.22 104.188 102.319C104.671 104.419 105.055 106.706 106.505 108.337L106.506 108.342C109.291 111.43 110.186 113.517 110.109 114.85ZM42.4442 124.694V124.715C42.1212 128.935 39.7412 131.232 36.0862 132.067C32.4342 132.902 27.4802 132.07 22.5342 129.484L22.5292 129.482C17.0562 126.583 10.5462 126.872 6.36919 125.999C4.28119 125.563 2.91719 124.907 2.29219 123.689C1.66819 122.469 1.65319 120.343 2.98219 116.719L2.98819 116.702L2.99319 116.686C3.65119 114.658 3.16419 112.439 2.84519 110.356C2.52619 108.276 2.37019 106.379 3.08119 105.06L3.08819 105.047C3.99819 103.292 5.33419 102.664 6.99019 102.071C8.65019 101.476 10.6142 101.009 12.1652 99.4529L12.1752 99.4439L12.1832 99.4369C13.6172 97.9229 14.6952 96.0249 15.9562 94.6789C17.0202 93.5419 18.0862 92.7889 19.6902 92.7789C20.0083 92.7792 20.326 92.8043 20.6402 92.8539C22.7712 93.1749 24.6282 94.6639 26.4182 97.0909L31.5852 106.508L31.5872 106.513L31.5902 106.516C32.9642 109.387 35.8682 112.546 38.3282 115.766C40.7892 118.986 42.6922 122.219 42.4442 124.694ZM68.2132 36.9069C67.7982 36.0939 66.9502 35.3209 65.5082 34.7289L65.5052 34.7279L65.5002 34.7259C62.5002 33.4409 61.1982 33.3499 59.5242 32.2609C56.7982 30.5089 54.5462 29.8949 52.6742 29.9029C51.7754 29.9046 50.8832 30.056 50.0342 30.3509C47.7542 31.1359 46.2402 32.7709 45.2922 33.6699L45.2902 33.6719L45.2892 33.6749C45.1022 33.8519 44.8622 34.0129 44.2812 34.4389C43.6962 34.8659 42.8182 35.5089 41.5562 36.4569C40.4342 37.2969 40.0692 38.3939 40.4582 39.6769C40.8442 40.9599 42.0822 42.4399 44.3452 43.7199L44.3482 43.7229L44.3532 43.7249C45.7572 44.5499 46.7172 45.6629 47.8182 46.5479C48.3692 46.9899 48.9482 47.3849 49.6462 47.6829C50.3432 47.9809 51.1582 48.1829 52.1772 48.2429C54.5692 48.3819 56.3312 47.6629 57.8852 46.7729C59.4432 45.8849 60.7622 44.7979 62.2762 44.3069L62.2792 44.3049L62.2822 44.3039C65.3852 43.3339 67.5982 41.3829 68.2902 39.5279C68.6372 38.5999 68.6272 37.7199 68.2132 36.9069Z" fill="#FFCD00"/>
<path d="M60.3412 41.4867C57.8732 42.7737 54.9892 44.3337 51.9212 44.3337C48.8552 44.3337 46.4332 42.9167 44.6912 41.5357C43.8192 40.8457 43.1112 40.1597 42.5792 39.6607C41.6542 38.9307 41.7642 37.9057 42.1442 37.9357C42.7822 38.0157 42.8782 38.8547 43.2792 39.2297C43.8222 39.7377 44.5032 40.3957 45.3262 41.0497C46.9742 42.3547 49.1712 43.6247 51.9222 43.6247C54.6682 43.6247 57.8722 42.0127 59.8302 40.9147C60.9382 40.2937 62.3492 39.1787 63.5002 38.3337C64.3802 37.6877 64.3492 36.9087 65.0762 36.9937C65.8032 37.0787 65.2652 37.8557 64.2462 38.7437C63.2282 39.6327 61.6352 40.8117 60.3412 41.4867Z" fill="#202020"/>
<path d="M98.1382 94.1599C97.7717 94.1468 97.4048 94.1462 97.0382 94.1579C97.8862 91.4819 96.0112 89.5069 91.0142 87.2469C85.8342 84.9689 81.7042 85.1939 81.0072 89.8169C80.9632 90.0599 80.9272 90.3069 80.9002 90.5569C80.4975 90.698 80.1068 90.8716 79.7322 91.0759C77.3002 92.4079 75.9722 94.8229 75.2322 97.7859C74.4952 100.746 74.2822 104.325 74.0802 108.348V108.351C73.9552 110.373 73.1222 113.109 72.2802 116.007C63.7922 122.062 52.0132 124.685 42.0102 117.857C41.3332 116.786 40.5552 115.724 39.7552 114.676C39.2452 114.006 38.7182 113.343 38.1982 112.686C39.2232 112.688 40.0962 112.519 40.8022 112.2C41.6792 111.8 42.2942 111.163 42.6002 110.343C43.2102 108.703 42.5972 106.389 40.6452 103.746C38.6932 101.104 35.3872 98.1229 30.5292 95.1429C26.9592 92.9219 24.9652 90.1999 24.0302 87.2459C23.0952 84.2899 23.2252 81.0939 23.9472 77.9399C25.3292 71.8839 28.8802 65.9939 31.1472 62.2979C31.7552 61.8499 31.3642 63.1319 28.8512 67.7969C26.6012 72.0609 22.3922 81.9019 28.1542 89.5849C28.3082 84.1179 29.6142 78.5429 31.8062 73.3269C34.9982 66.0909 41.6762 53.5399 42.2062 43.5369C42.4812 43.7359 43.4202 44.3699 43.8382 44.6089H43.8412C45.0662 45.3309 45.9862 46.3859 47.1772 47.3439C48.3722 48.3029 49.8632 49.1319 52.1172 49.2629C52.3332 49.2749 52.5452 49.2819 52.7512 49.2819C55.0752 49.2819 56.8862 48.5239 58.3952 47.6609C60.0352 46.7229 61.3452 45.6849 62.5872 45.2809C62.5882 45.2789 62.5902 45.2789 62.5912 45.2789C65.2162 44.4589 67.3012 43.0069 68.4872 41.3149C70.5272 49.3509 75.2672 60.9589 78.3152 66.6229C79.9352 69.6269 83.1582 76.0129 84.5502 83.7059C85.4322 83.6789 86.4052 83.8059 87.4442 84.0739C91.0852 74.6339 84.3572 64.4699 81.2802 61.6389C80.0382 60.4329 79.9782 59.8929 80.5952 59.9179C83.9312 62.8709 88.3152 68.8059 89.9082 75.5069C90.6352 78.5629 90.7902 81.7759 90.0112 84.9469C90.3912 85.1039 90.7792 85.2759 91.1722 85.4629C97.0162 88.3079 99.1762 90.7829 98.1382 94.1599ZM68.4872 27.6489C68.5002 29.2409 68.2252 30.5969 67.6212 31.9809C67.2772 32.7709 66.8812 33.4329 66.4052 34.0069C66.2406 33.9282 66.0739 33.8542 65.9052 33.7849C65.3732 33.5571 64.8364 33.3408 64.2952 33.1359C63.8172 32.9559 63.4452 32.8339 63.0622 32.7009C63.3402 32.3649 63.8872 31.9689 64.0922 31.4719C64.3999 30.7241 64.5654 29.9255 64.5802 29.1169C64.5802 29.0819 64.5912 29.0519 64.5912 29.0109C64.6155 28.236 64.5014 27.4628 64.2542 26.7279C63.9982 25.9589 63.6742 25.4079 63.2022 24.9479C62.7322 24.4879 62.2602 24.2799 61.6952 24.2609C61.6682 24.2589 61.6432 24.2589 61.6162 24.2589C61.0862 24.2609 60.6262 24.4439 60.1492 24.8419C59.6492 25.2599 59.2772 25.7949 58.9692 26.5399C58.6602 27.2849 58.5092 28.0229 58.4792 28.9009C58.4742 28.9349 58.4742 28.9649 58.4742 29.0009C58.4642 29.4829 58.4952 29.9249 58.5692 30.3539C57.4832 29.8139 56.0942 29.4179 55.1342 29.1889C55.0786 28.761 55.0466 28.3304 55.0382 27.8989V27.7769C55.0212 26.1889 55.2812 24.8269 55.8922 23.4449C56.5032 22.0609 57.2582 21.0659 58.3222 20.2569C59.3872 19.4489 60.4342 19.0779 61.6732 19.0649H61.7312C62.9432 19.0649 63.9812 19.4219 65.0452 20.1949C66.1262 20.9799 66.9062 21.9609 67.5352 23.3349C68.1502 24.6729 68.4462 25.9809 68.4762 27.5319C68.4762 27.5729 68.4762 27.6079 68.4872 27.6489ZM50.1682 29.2349C50.0113 29.2802 49.8555 29.3296 49.7012 29.3829C48.8332 29.6829 48.1442 30.0129 47.4782 30.4529C47.5444 29.9723 47.5521 29.4854 47.5012 29.0029C47.4972 28.9739 47.4972 28.9499 47.4972 28.9229C47.4388 28.2828 47.2834 27.6553 47.0362 27.0619C46.7752 26.4519 46.4832 26.0209 46.1002 25.6889C45.7532 25.3889 45.4242 25.2489 45.0622 25.2529C45.0252 25.2529 44.9872 25.2549 44.9502 25.2579C44.5432 25.2929 44.2052 25.4909 43.8842 25.8809C43.5652 26.2689 43.3562 26.7519 43.2042 27.3929C43.0524 28.0444 43.0092 28.7164 43.0762 29.3819C43.0762 29.4109 43.0832 29.4339 43.0832 29.4619C43.1522 30.1619 43.2932 30.7419 43.5422 31.3289C43.7972 31.9339 44.0942 32.3649 44.4782 32.6949C44.5432 32.7509 44.6062 32.8009 44.6682 32.8449C44.2712 33.1539 44.0042 33.3709 43.6752 33.6119C43.4652 33.7639 43.2162 33.9469 42.9262 34.1619C42.2932 33.5689 41.7992 32.8249 41.3672 31.8399C40.8552 30.6799 40.5822 29.5159 40.5002 28.1429V28.1329C40.4242 26.7599 40.5592 25.5779 40.9362 24.3569C41.3142 23.1359 41.8192 22.2519 42.5532 21.5269C43.2862 20.7979 44.0242 20.4319 44.9152 20.3869C44.9842 20.3829 45.0522 20.3809 45.1202 20.3809C45.9262 20.3829 46.6462 20.6509 47.3912 21.2459C48.1982 21.8919 48.8092 22.7169 49.3212 23.8799C49.8342 25.0429 50.1062 26.2059 50.1822 27.5799V27.5899C50.2192 28.1659 50.2142 28.7099 50.1682 29.2349Z" fill="white"/>
<path d="M54.2172 32.5196C54.3192 32.8476 54.8472 32.7926 55.1522 32.9496C55.4202 33.0886 55.6352 33.3896 55.9362 33.3986C56.2232 33.4066 56.6712 33.2986 56.7082 33.0136C56.7582 32.6366 56.2082 32.3986 55.8542 32.2606C55.3992 32.0826 54.8152 31.9926 54.3882 32.2306C54.2902 32.2856 54.1822 32.4126 54.2172 32.5196ZM51.0982 32.5196C50.9962 32.8476 50.4682 32.7926 50.1622 32.9496C49.8952 33.0886 49.6802 33.3896 49.3782 33.3986C49.0912 33.4066 48.6442 33.2986 48.6082 33.0136C48.5582 32.6366 49.1082 32.3986 49.4612 32.2606C49.9162 32.0826 50.4992 31.9926 50.9272 32.2306C51.0242 32.2856 51.1312 32.4126 51.0982 32.5196Z" fill="#202020"/>
</g>
<defs>
<clipPath id="clip0_1020_88">
<rect width="112" height="136" fill="white" transform="translate(0.0721436 0.341797)"/>
</clipPath>
</defs>
</svg>
