<svg width="25" height="25" viewBox="0 0 25 25" fill="none" xmlns="http://www.w3.org/2000/svg">
<mask id="mask0_304_37" style="mask-type:alpha" maskUnits="userSpaceOnUse" x="0" y="0" width="25" height="25">
<rect x="0.265381" y="0.758545" width="24" height="24" fill="#D9D9D9"/>
</mask>
<g mask="url(#mask0_304_37)">
<path d="M8.26538 21.7585C6.88205 21.7585 5.70305 21.2712 4.72838 20.2965C3.75305 19.3212 3.26538 18.1419 3.26538 16.7585V6.95854C3.26538 6.05854 3.54038 5.30021 4.09038 4.68354C4.64038 4.06688 5.36538 3.75854 6.26538 3.75854C7.16538 3.75854 7.89038 4.03354 8.44038 4.58354C8.99038 5.13354 9.26538 5.85854 9.26538 6.75854C9.26538 7.60854 8.97771 8.32088 8.40238 8.89555C7.82771 9.47088 7.11538 9.75854 6.26538 9.75854H5.26538V16.7585C5.26538 17.5919 5.55705 18.3002 6.14038 18.8835C6.72371 19.4669 7.43205 19.7585 8.26538 19.7585C9.09871 19.7585 9.80705 19.4669 10.3904 18.8835C10.9737 18.3002 11.2654 17.5919 11.2654 16.7585V8.75854C11.2654 7.37521 11.753 6.19621 12.7284 5.22154C13.703 4.24621 14.882 3.75854 16.2654 3.75854C17.6487 3.75854 18.828 4.24621 19.8034 5.22154C20.778 6.19621 21.2654 7.37521 21.2654 8.75854V18.7585C21.2654 19.6085 20.9447 20.3209 20.3034 20.8955C19.6614 21.4709 18.9154 21.7585 18.0654 21.7585C17.2154 21.7585 16.5364 21.4709 16.0284 20.8955C15.5197 20.3209 15.2654 19.6085 15.2654 18.7585C15.2654 17.9085 15.553 17.1962 16.1284 16.6215C16.703 16.0462 17.4154 15.7585 18.2654 15.7585H19.2654V8.75854C19.2654 7.92521 18.9737 7.21688 18.3904 6.63354C17.807 6.05021 17.0987 5.75854 16.2654 5.75854C15.432 5.75854 14.7237 6.05021 14.1404 6.63354C13.557 7.21688 13.2654 7.92521 13.2654 8.75854V16.7585C13.2654 18.1419 12.778 19.3212 11.8034 20.2965C10.828 21.2712 9.64871 21.7585 8.26538 21.7585ZM5.26538 7.75854H6.26538C6.54871 7.75854 6.78638 7.66288 6.97838 7.47154C7.16971 7.27954 7.26538 7.04188 7.26538 6.75854C7.26538 6.47521 7.16971 6.23755 6.97838 6.04555C6.78638 5.85421 6.54871 5.75854 6.26538 5.75854C5.98205 5.75854 5.74438 5.85421 5.55238 6.04555C5.36105 6.23755 5.26538 6.47521 5.26538 6.75854V7.75854ZM18.2654 19.7585C18.5487 19.7585 18.786 19.6625 18.9774 19.4705C19.1694 19.2792 19.2654 19.0419 19.2654 18.7585V17.7585H18.2654C17.982 17.7585 17.7447 17.8545 17.5534 18.0465C17.3614 18.2379 17.2654 18.4752 17.2654 18.7585C17.2654 19.0419 17.3614 19.2792 17.5534 19.4705C17.7447 19.6625 17.982 19.7585 18.2654 19.7585Z" fill="#1C1B1F"/>
</g>
</svg>
