<svg width="18" height="18" viewBox="0 0 18 18" fill="none" xmlns="http://www.w3.org/2000/svg">
<path d="M4.9999 17.35C3.7999 17.35 2.7749 16.925 1.9249 16.075C1.0749 15.225 0.649902 14.2 0.649902 13V3.00002C0.649902 2.35002 0.891569 1.79569 1.3749 1.33702C1.85824 0.879024 2.41657 0.650024 3.0499 0.650024C3.68324 0.650024 4.2249 0.879024 4.6749 1.33702C5.1249 1.79569 5.3499 2.35002 5.3499 3.00002C5.3499 3.65002 5.11657 4.20402 4.6499 4.66202C4.18324 5.12069 3.63324 5.35002 2.9999 5.35002H1.3499V13C1.3499 14.0167 1.70424 14.879 2.4129 15.587C3.1209 16.2957 3.98324 16.65 4.9999 16.65C6.01657 16.65 6.87924 16.2957 7.5879 15.587C8.2959 14.879 8.6499 14.0167 8.6499 13V5.00002C8.6499 3.80002 9.0749 2.77502 9.9249 1.92502C10.7749 1.07502 11.7999 0.650024 12.9999 0.650024C14.1999 0.650024 15.2249 1.07502 16.0749 1.92502C16.9249 2.77502 17.3499 3.80002 17.3499 5.00002V15C17.3499 15.65 17.1166 16.2044 16.6499 16.663C16.1832 17.121 15.6332 17.35 14.9999 17.35C14.3666 17.35 13.8166 17.1167 13.3499 16.65C12.8832 16.1834 12.6499 15.625 12.6499 14.975C12.6499 14.3417 12.8832 13.7957 13.3499 13.337C13.8166 12.879 14.3666 12.65 14.9999 12.65H16.6499V5.00002C16.6499 3.98336 16.2959 3.12069 15.5879 2.41202C14.8792 1.70402 14.0166 1.35002 12.9999 1.35002C11.9832 1.35002 11.1209 1.70402 10.4129 2.41202C9.70424 3.12069 9.3499 3.98336 9.3499 5.00002V13C9.3499 14.2 8.9249 15.225 8.0749 16.075C7.2249 16.925 6.1999 17.35 4.9999 17.35ZM1.3499 4.65002H2.9999C3.4499 4.65002 3.83757 4.48736 4.1629 4.16202C4.48757 3.83736 4.6499 3.45002 4.6499 3.00002C4.6499 2.55002 4.48757 2.16236 4.1629 1.83702C3.83757 1.51236 3.4499 1.35002 2.9999 1.35002C2.5499 1.35002 2.16257 1.51236 1.8379 1.83702C1.51257 2.16236 1.3499 2.55002 1.3499 3.00002V4.65002ZM14.9999 16.65C15.4499 16.65 15.8376 16.4877 16.1629 16.163C16.4876 15.8377 16.6499 15.45 16.6499 15V13.35H14.9999C14.5499 13.35 14.1622 13.5124 13.8369 13.837C13.5122 14.1624 13.3499 14.55 13.3499 15C13.3499 15.45 13.5122 15.8377 13.8369 16.163C14.1622 16.4877 14.5499 16.65 14.9999 16.65Z" fill="#1C1B1F"/>
</svg>
