<svg width="25" height="25" viewBox="0 0 25 25" fill="none" xmlns="http://www.w3.org/2000/svg">
<mask id="mask0_402_43" style="mask-type:alpha" maskUnits="userSpaceOnUse" x="0" y="0" width="25" height="25">
<rect x="0.265381" y="0.758545" width="24" height="24" fill="#D9D9D9"/>
</mask>
<g mask="url(#mask0_402_43)">
<path d="M8.26538 21.5085C6.94871 21.5085 5.82805 21.0462 4.90338 20.1215C3.97805 19.1962 3.51538 18.0752 3.51538 16.7585V6.88354C3.51538 6.08354 3.77771 5.40454 4.30238 4.84654C4.82771 4.28788 5.49038 4.00854 6.29038 4.00854C7.09038 4.00854 7.74471 4.26688 8.25338 4.78355C8.76138 5.30021 9.01538 5.95854 9.01538 6.75854C9.01538 7.52521 8.74871 8.17521 8.21538 8.70854C7.68205 9.24188 7.03205 9.50854 6.26538 9.50854H5.01538V16.7585C5.01538 17.6585 5.33205 18.4252 5.96538 19.0585C6.59871 19.6919 7.36538 20.0085 8.26538 20.0085C9.16538 20.0085 9.93205 19.6919 10.5654 19.0585C11.1987 18.4252 11.5154 17.6585 11.5154 16.7585V8.75854C11.5154 7.44188 11.9777 6.32088 12.9024 5.39555C13.8277 4.47088 14.9487 4.00854 16.2654 4.00854C17.582 4.00854 18.703 4.47088 19.6284 5.39555C20.553 6.32088 21.0154 7.44188 21.0154 8.75854V18.7585C21.0154 19.5252 20.728 20.1752 20.1534 20.7085C19.578 21.2419 18.907 21.5085 18.1404 21.5085C17.3737 21.5085 16.7447 21.2419 16.2534 20.7085C15.7614 20.1752 15.5154 19.5252 15.5154 18.7585C15.5154 17.9919 15.782 17.3419 16.3154 16.8085C16.8487 16.2752 17.4987 16.0085 18.2654 16.0085H19.5154V8.75854C19.5154 7.85854 19.1987 7.09188 18.5654 6.45854C17.932 5.82521 17.1654 5.50854 16.2654 5.50854C15.3654 5.50854 14.5987 5.82521 13.9654 6.45854C13.332 7.09188 13.0154 7.85854 13.0154 8.75854V16.7585C13.0154 18.0752 12.553 19.1962 11.6284 20.1215C10.703 21.0462 9.58205 21.5085 8.26538 21.5085ZM5.01538 8.00854H6.26538C6.61538 8.00854 6.91138 7.88755 7.15338 7.64555C7.39471 7.40421 7.51538 7.10854 7.51538 6.75854C7.51538 6.40854 7.39471 6.11254 7.15338 5.87054C6.91138 5.62921 6.61538 5.50854 6.26538 5.50854C5.91538 5.50854 5.61971 5.62921 5.37838 5.87054C5.13638 6.11254 5.01538 6.40854 5.01538 6.75854V8.00854ZM18.2654 20.0085C18.6154 20.0085 18.9114 19.8875 19.1534 19.6455C19.3947 19.4042 19.5154 19.1085 19.5154 18.7585V17.5085H18.2654C17.9154 17.5085 17.6197 17.6295 17.3784 17.8715C17.1364 18.1129 17.0154 18.4085 17.0154 18.7585C17.0154 19.1085 17.1364 19.4042 17.3784 19.6455C17.6197 19.8875 17.9154 20.0085 18.2654 20.0085Z" fill="#1C1B1F"/>
</g>
</svg>
