<svg width="24" height="24" viewBox="0 0 24 24" fill="none" xmlns="http://www.w3.org/2000/svg">
<mask id="mask0_213_61" style="mask-type:alpha" maskUnits="userSpaceOnUse" x="0" y="0" width="24" height="24">
<rect width="24" height="24" fill="#D9D9D9"/>
</mask>
<g mask="url(#mask0_213_61)">
<path d="M6.3 21.5C5.8 21.5 5.375 21.325 5.025 20.975C4.675 20.625 4.5 20.2 4.5 19.7V10.3C4.5 9.8 4.675 9.375 5.025 9.025C5.375 8.675 5.8 8.5 6.3 8.5H7.5V6.5C7.5 5.25 7.93733 4.18733 8.812 3.312C9.68733 2.43733 10.75 2 12 2C13.25 2 14.3127 2.43733 15.188 3.312C16.0627 4.18733 16.5 5.25 16.5 6.5V8.5H17.7C18.2 8.5 18.625 8.675 18.975 9.025C19.325 9.375 19.5 9.8 19.5 10.3V19.7C19.5 20.2 19.325 20.625 18.975 20.975C18.625 21.325 18.2 21.5 17.7 21.5H6.3ZM12 16.75C12.4833 16.75 12.896 16.5793 13.238 16.238C13.5793 15.896 13.75 15.4833 13.75 15C13.75 14.5167 13.5793 14.104 13.238 13.762C12.896 13.4207 12.4833 13.25 12 13.25C11.5167 13.25 11.104 13.4207 10.762 13.762C10.4207 14.104 10.25 14.5167 10.25 15C10.25 15.4833 10.4207 15.896 10.762 16.238C11.104 16.5793 11.5167 16.75 12 16.75ZM9 8.5H15V6.5C15 5.66667 14.7083 4.95833 14.125 4.375C13.5417 3.79167 12.8333 3.5 12 3.5C11.1667 3.5 10.4583 3.79167 9.875 4.375C9.29167 4.95833 9 5.66667 9 6.5V8.5Z" fill="#1C1B1F"/>
</g>
</svg>
