<svg width="25" height="25" viewBox="0 0 25 25" fill="none" xmlns="http://www.w3.org/2000/svg">
<mask id="mask0_204_28" style="mask-type:alpha" maskUnits="userSpaceOnUse" x="0" y="0" width="25" height="25">
<rect x="0.00146484" y="0.256714" width="24" height="24" fill="#D9D9D9"/>
</mask>
<g mask="url(#mask0_204_28)">
<path d="M4.00146 20.2567C3.45146 20.2567 2.9808 20.061 2.58946 19.6697C2.19746 19.2777 2.00146 18.8067 2.00146 18.2567V6.25671C2.00146 5.70671 2.19746 5.23605 2.58946 4.84471C2.9808 4.45271 3.45146 4.25671 4.00146 4.25671H20.0015C20.5515 4.25671 21.0225 4.45271 21.4145 4.84471C21.8058 5.23605 22.0015 5.70671 22.0015 6.25671V18.2567C22.0015 18.8067 21.8058 19.2777 21.4145 19.6697C21.0225 20.061 20.5515 20.2567 20.0015 20.2567H4.00146ZM12.0015 13.2567L4.00146 8.25671V18.2567H20.0015V8.25671L12.0015 13.2567ZM12.0015 11.2567L20.0015 6.25671H4.00146L12.0015 11.2567ZM4.00146 8.25671V6.25671V18.2567V8.25671Z" fill="#1C1B1F"/>
</g>
</svg>
