<svg width="24" height="24" viewBox="0 0 24 24" fill="none" xmlns="http://www.w3.org/2000/svg">
<mask id="mask0_213_97" style="mask-type:alpha" maskUnits="userSpaceOnUse" x="0" y="0" width="24" height="24">
<rect width="24" height="24" fill="#D9D9D9"/>
</mask>
<g mask="url(#mask0_213_97)">
<path d="M4.375 20.2251V17.9251H7.425L4.85 9.52505C4.41667 9.29172 4.06267 8.95405 3.788 8.51205C3.51267 8.07072 3.375 7.58339 3.375 7.05005C3.375 6.30005 3.64167 5.65405 4.175 5.11205C4.70833 4.57072 5.35833 4.30005 6.125 4.30005C6.75833 4.30005 7.30833 4.48739 7.775 4.86205C8.24167 5.23739 8.56667 5.71672 8.75 6.30005H12.175V5.05005C12.175 4.85005 12.246 4.67505 12.388 4.52505C12.5293 4.37505 12.7083 4.30005 12.925 4.30005C13.0583 4.30005 13.1793 4.33339 13.288 4.40005C13.396 4.46672 13.4833 4.56672 13.55 4.70005V4.82505L15.3 3.17505C15.45 3.04172 15.6207 2.95839 15.812 2.92505C16.004 2.89172 16.1917 2.91672 16.375 3.00005L20.2 4.77505C20.3667 4.85839 20.4833 4.97905 20.55 5.13705C20.6167 5.29572 20.6167 5.45005 20.55 5.60005C20.4667 5.75005 20.35 5.85005 20.2 5.90005C20.05 5.95005 19.9 5.94172 19.75 5.87505L16.05 4.15005L13.675 6.35005V7.75005L16.05 9.90005L19.75 8.20005C19.9 8.13339 20.0543 8.12505 20.213 8.17505C20.371 8.22505 20.4833 8.32505 20.55 8.47505C20.6333 8.64172 20.6373 8.79605 20.562 8.93805C20.4873 9.07939 20.3667 9.19172 20.2 9.27505L16.375 11.1001C16.1917 11.1834 16.004 11.2084 15.812 11.1751C15.6207 11.1417 15.45 11.0501 15.3 10.9001L13.55 9.30005V9.42505C13.4833 9.52505 13.396 9.61272 13.288 9.68805C13.1793 9.76272 13.0583 9.80005 12.925 9.80005C12.7083 9.80005 12.5293 9.72905 12.388 9.58705C12.246 9.44572 12.175 9.26672 12.175 9.05005V7.80005H8.75C8.7 7.98339 8.62933 8.15839 8.538 8.32505C8.446 8.49172 8.34167 8.65005 8.225 8.80005L13.15 17.9251H16.875V20.2251H4.375ZM6.125 8.30005C6.475 8.30005 6.771 8.17905 7.013 7.93705C7.25433 7.69572 7.375 7.40005 7.375 7.05005C7.375 6.70005 7.25433 6.40405 7.013 6.16205C6.771 5.92072 6.475 5.80005 6.125 5.80005C5.775 5.80005 5.47933 5.92072 5.238 6.16205C4.996 6.40405 4.875 6.70005 4.875 7.05005C4.875 7.40005 4.996 7.69572 5.238 7.93705C5.47933 8.17905 5.775 8.30005 6.125 8.30005Z" fill="#1C1B1F"/>
</g>
</svg>
