<svg width="25" height="25" viewBox="0 0 25 25" fill="none" xmlns="http://www.w3.org/2000/svg">
<mask id="mask0_213_79" style="mask-type:alpha" maskUnits="userSpaceOnUse" x="0" y="0" width="25" height="25">
<rect x="0.519531" y="0.402954" width="24" height="24" fill="#D9D9D9"/>
</mask>
<g mask="url(#mask0_213_79)">
<path d="M9.01953 20.903V19.403H11.0195V17.403H4.81953C4.31953 17.403 3.89453 17.228 3.54453 16.878C3.19453 16.528 3.01953 16.103 3.01953 15.603V5.70295C3.01953 5.20295 3.19453 4.77795 3.54453 4.42795C3.89453 4.07795 4.31953 3.90295 4.81953 3.90295H20.2195C20.7195 3.90295 21.1445 4.07795 21.4945 4.42795C21.8445 4.77795 22.0195 5.20295 22.0195 5.70295V15.603C22.0195 16.103 21.8445 16.528 21.4945 16.878C21.1445 17.228 20.7195 17.403 20.2195 17.403H14.0195V19.403H16.0195V20.903H9.01953Z" fill="#1C1B1F"/>
</g>
</svg>
