<svg width="100" height="94" viewBox="0 0 100 94" fill="none" xmlns="http://www.w3.org/2000/svg">
<g clip-path="url(#clip0_701_22)">
<mask id="mask0_701_22" style="mask-type:luminance" maskUnits="userSpaceOnUse" x="0" y="0" width="100" height="94">
<path d="M100 0H0V93.3594H100V0Z" fill="white"/>
</mask>
<g mask="url(#mask0_701_22)">
<path d="M69.7512 34.8837H95.5814C98.0217 34.8837 100 36.862 100 39.3023V62.8302C100 71.7991 92.7293 79.0698 83.7605 79.0698H83.6837C74.7148 79.071 67.4431 71.8014 67.4418 62.8325V62.8302V37.1931C67.4418 35.9176 68.4758 34.8837 69.7512 34.8837Z" fill="#8D8D8D"/>
<path d="M87.2092 30.2325C92.9889 30.2325 97.6743 25.5471 97.6743 19.7674C97.6743 13.9877 92.9889 9.30231 87.2092 9.30231C81.4295 9.30231 76.7441 13.9877 76.7441 19.7674C76.7441 25.5471 81.4295 30.2325 87.2092 30.2325Z" fill="#8D8D8D"/>
<path d="M54.6511 30.2326C62.9996 30.2326 69.7674 23.4648 69.7674 15.1163C69.7674 6.7678 62.9996 0 54.6511 0C46.3026 0 39.5349 6.7678 39.5349 15.1163C39.5349 23.4648 46.3026 30.2326 54.6511 30.2326Z" fill="#B3B3B3"/>
<path d="M74.807 34.8837H32.1698C29.7585 34.9434 27.851 36.9445 27.907 39.3558V66.1907C27.5703 80.661 39.0185 92.6692 53.4884 93.0233C67.9583 92.6692 79.4065 80.661 79.0698 66.1907V39.3558C79.1257 36.9445 77.2183 34.9434 74.807 34.8837Z" fill="#B3B3B3"/>
<path opacity="0.1" d="M55.8141 34.8837V72.4884C55.8025 74.2128 54.7575 75.762 53.1629 76.4186C52.6552 76.6334 52.1095 76.7442 51.5582 76.7442H29.9536C29.6513 75.9768 29.3722 75.2093 29.1396 74.4186C28.3255 71.7501 27.9102 68.976 27.907 66.1861V39.3488C27.8511 36.9414 29.7554 34.9434 32.1628 34.8837H55.8141Z" fill="black"/>
<path opacity="0.2" d="M53.4885 34.8837V74.8139C53.4885 75.3652 53.3777 75.9109 53.1629 76.4186C52.5063 78.0132 50.9571 79.0582 49.2327 79.0698H31.0466C30.6512 78.3023 30.2792 77.5349 29.9536 76.7442C29.628 75.9535 29.3722 75.2093 29.1396 74.4186C28.3255 71.7501 27.9102 68.976 27.907 66.1861V39.3488C27.8511 36.9414 29.7554 34.9434 32.1628 34.8837H53.4885Z" fill="black"/>
<path opacity="0.2" d="M53.4884 34.8837V70.1628C53.4707 72.5059 51.5757 74.4009 49.2326 74.4186H29.1396C28.3255 71.7501 27.9101 68.976 27.907 66.1861V39.3488C27.8511 36.9414 29.7554 34.9434 32.1628 34.8837H53.4884Z" fill="black"/>
<path opacity="0.2" d="M51.1628 34.8837V70.1628C51.1451 72.5059 49.25 74.4009 46.907 74.4186H29.1396C28.3255 71.7501 27.9101 68.976 27.907 66.1861V39.3488C27.8511 36.9414 29.7554 34.9434 32.1628 34.8837H51.1628Z" fill="black"/>
<path opacity="0.1" d="M55.814 22.8605V30.1861C55.4186 30.2093 55.0465 30.2326 54.6511 30.2326C54.2558 30.2326 53.8837 30.2093 53.4883 30.1861C52.7034 30.134 51.9248 30.0094 51.1628 29.814C46.4535 28.6987 42.5628 25.396 40.6977 20.9303C40.3767 20.1803 40.1276 19.4016 39.9535 18.6047H51.5581C53.9048 18.6136 55.805 20.5137 55.814 22.8605Z" fill="black"/>
<path opacity="0.2" d="M53.4885 25.1861V30.1861C52.7035 30.134 51.925 30.0094 51.1629 29.814C46.4536 28.6987 42.563 25.396 40.6978 20.9303H49.2327C51.5794 20.9392 53.4796 22.8394 53.4885 25.1861Z" fill="black"/>
<path opacity="0.2" d="M53.4885 25.1861V30.1861C52.7035 30.134 51.925 30.0094 51.1629 29.814C46.4536 28.6987 42.563 25.396 40.6978 20.9303H49.2327C51.5794 20.9392 53.4796 22.8394 53.4885 25.1861Z" fill="black"/>
<path opacity="0.2" d="M51.1629 25.1861V29.8139C46.4536 28.6987 42.5629 25.396 40.6978 20.9302H46.9071C49.2538 20.9392 51.154 22.8394 51.1629 25.1861Z" fill="black"/>
<path d="M4.26277 20.9302H46.9C49.2542 20.9302 51.1627 22.8388 51.1627 25.193V67.8302C51.1627 70.1845 49.2542 72.093 46.9 72.093H4.26277C1.90849 72.093 0 70.1845 0 67.8302V25.193C0 22.8388 1.90853 20.9302 4.26277 20.9302Z" fill="url(#paint0_linear_701_22)"/>
<path d="M36.8 37.1581H28.2767V60.3675H22.8465V37.1581H14.3628V32.6558H36.8V37.1581Z" fill="white"/>
</g>
</g>
<defs>
<linearGradient id="paint0_linear_701_22" x1="8.88801" y1="17.5994" x2="42.2748" y2="75.4239" gradientUnits="userSpaceOnUse">
<stop stop-color="#8F8F8F"/>
<stop offset="0.5" stop-color="#858585"/>
<stop offset="1" stop-color="#727272"/>
</linearGradient>
<clipPath id="clip0_701_22">
<rect width="100" height="94" fill="white"/>
</clipPath>
</defs>
</svg>
