<svg width="16" height="19" viewBox="0 0 16 19" fill="none" xmlns="http://www.w3.org/2000/svg">
<path d="M6.75005 18.7772L6.27505 18.2772L8.75005 15.8022H3.67505C3.59172 16.1855 3.39605 16.5062 3.08805 16.7642C2.77938 17.0229 2.41672 17.1522 2.00005 17.1522C1.53338 17.1522 1.13338 16.9855 0.800049 16.6522C0.466715 16.3189 0.300049 15.9189 0.300049 15.4522C0.300049 15.0355 0.429382 14.6732 0.688049 14.3652C0.946049 14.0565 1.26672 13.8605 1.65005 13.7772V5.1272C1.26672 5.04386 0.946049 4.8482 0.688049 4.5402C0.429382 4.23153 0.300049 3.86886 0.300049 3.4522C0.300049 2.98553 0.466715 2.58553 0.800049 2.2522C1.13338 1.91886 1.53338 1.7522 2.00005 1.7522C2.41672 1.7522 2.77938 1.8812 3.08805 2.1392C3.39605 2.39786 3.59172 2.71886 3.67505 3.1022H8.75005L6.25005 0.627197L6.75005 0.127197L10.075 3.4522L6.75005 6.7772L6.25005 6.2772L8.75005 3.8022H3.67505C3.59172 4.13553 3.43338 4.41886 3.20005 4.6522C2.96672 4.88553 2.68338 5.04386 2.35005 5.1272V13.7772C2.68338 13.8605 2.96672 14.0189 3.20005 14.2522C3.43338 14.4855 3.59172 14.7689 3.67505 15.1022H8.72505L6.27505 12.6272L6.75005 12.1272L10.075 15.4522L6.75005 18.7772ZM14 17.1522C13.5334 17.1522 13.1334 16.9855 12.8 16.6522C12.4667 16.3189 12.3 15.9189 12.3 15.4522C12.3 15.0355 12.4294 14.6732 12.688 14.3652C12.946 14.0565 13.2667 13.8605 13.65 13.7772V5.1272C13.2667 5.04386 12.946 4.8482 12.688 4.5402C12.4294 4.23153 12.3 3.86886 12.3 3.4522C12.3 2.98553 12.4667 2.58553 12.8 2.2522C13.1334 1.91886 13.5334 1.7522 14 1.7522C14.4667 1.7522 14.8667 1.91886 15.2 2.2522C15.5334 2.58553 15.7 2.98553 15.7 3.4522C15.7 3.86886 15.5707 4.23153 15.312 4.5402C15.054 4.8482 14.7334 5.04386 14.35 5.1272V13.7772C14.7334 13.8605 15.054 14.0565 15.312 14.3652C15.5707 14.6732 15.7 15.0355 15.7 15.4522C15.7 15.9189 15.5334 16.3189 15.2 16.6522C14.8667 16.9855 14.4667 17.1522 14 17.1522ZM2.00005 16.4522C2.28338 16.4522 2.52105 16.3562 2.71305 16.1642C2.90438 15.9729 3.00005 15.7355 3.00005 15.4522C3.00005 15.1689 2.90438 14.9315 2.71305 14.7402C2.52105 14.5482 2.28338 14.4522 2.00005 14.4522C1.71672 14.4522 1.47905 14.5482 1.28705 14.7402C1.09572 14.9315 1.00005 15.1689 1.00005 15.4522C1.00005 15.7355 1.09572 15.9729 1.28705 16.1642C1.47905 16.3562 1.71672 16.4522 2.00005 16.4522ZM14 16.4522C14.2834 16.4522 14.5207 16.3562 14.712 16.1642C14.904 15.9729 15 15.7355 15 15.4522C15 15.1689 14.904 14.9315 14.712 14.7402C14.5207 14.5482 14.2834 14.4522 14 14.4522C13.7167 14.4522 13.4794 14.5482 13.288 14.7402C13.096 14.9315 13 15.1689 13 15.4522C13 15.7355 13.096 15.9729 13.288 16.1642C13.4794 16.3562 13.7167 16.4522 14 16.4522ZM2.00005 4.4522C2.28338 4.4522 2.52105 4.35653 2.71305 4.1652C2.90438 3.9732 3.00005 3.73553 3.00005 3.4522C3.00005 3.16886 2.90438 2.9312 2.71305 2.7392C2.52105 2.54786 2.28338 2.4522 2.00005 2.4522C1.71672 2.4522 1.47905 2.54786 1.28705 2.7392C1.09572 2.9312 1.00005 3.16886 1.00005 3.4522C1.00005 3.73553 1.09572 3.9732 1.28705 4.1652C1.47905 4.35653 1.71672 4.4522 2.00005 4.4522ZM14 4.4522C14.2834 4.4522 14.5207 4.35653 14.712 4.1652C14.904 3.9732 15 3.73553 15 3.4522C15 3.16886 14.904 2.9312 14.712 2.7392C14.5207 2.54786 14.2834 2.4522 14 2.4522C13.7167 2.4522 13.4794 2.54786 13.288 2.7392C13.096 2.9312 13 3.16886 13 3.4522C13 3.73553 13.096 3.9732 13.288 4.1652C13.4794 4.35653 13.7167 4.4522 14 4.4522Z" fill="#1C1B1F"/>
</svg>
