<svg width="24" height="24" viewBox="0 0 24 24" fill="none" xmlns="http://www.w3.org/2000/svg">
<mask id="mask0_903_63" style="mask-type:alpha" maskUnits="userSpaceOnUse" x="0" y="0" width="24" height="24">
<rect width="24" height="24" fill="#D9D9D9"/>
</mask>
<g mask="url(#mask0_903_63)">
<path d="M6 14H8C8 13.0167 8.35833 12.1875 9.075 11.5125C9.79167 10.8375 10.65 10.5 11.65 10.5C12.25 10.5 12.8083 10.6375 13.325 10.9125C13.8417 11.1875 14.2667 11.55 14.6 12H13V14H18V9H16V10.55C15.4667 9.91667 14.8292 9.41667 14.0875 9.05C13.3458 8.68333 12.5333 8.5 11.65 8.5C10.0667 8.5 8.72917 9.03333 7.6375 10.1C6.54583 11.1667 6 12.4667 6 14ZM12 22C10.6167 22 9.31667 21.7375 8.1 21.2125C6.88333 20.6875 5.825 19.975 4.925 19.075C4.025 18.175 3.3125 17.1167 2.7875 15.9C2.2625 14.6833 2 13.3833 2 12C2 10.6167 2.2625 9.31667 2.7875 8.1C3.3125 6.88333 4.025 5.825 4.925 4.925C5.825 4.025 6.88333 3.3125 8.1 2.7875C9.31667 2.2625 10.6167 2 12 2C13.3833 2 14.6833 2.2625 15.9 2.7875C17.1167 3.3125 18.175 4.025 19.075 4.925C19.975 5.825 20.6875 6.88333 21.2125 8.1C21.7375 9.31667 22 10.6167 22 12C22 13.3833 21.7375 14.6833 21.2125 15.9C20.6875 17.1167 19.975 18.175 19.075 19.075C18.175 19.975 17.1167 20.6875 15.9 21.2125C14.6833 21.7375 13.3833 22 12 22Z" fill="#FFA500"/>
</g>
</svg>
