<svg width="1406" height="1858" viewBox="0 0 1406 1858" fill="none" xmlns="http://www.w3.org/2000/svg">
<path d="M306.754 1.13279C289.421 3.93279 268.621 12.9995 253.954 24.1995C209.554 57.9328 175.154 129.533 160.621 218.733C155.154 252.466 151.421 299.266 151.421 334.999C151.421 377.133 156.354 430.999 163.421 468.199C165.021 476.466 165.821 483.799 165.154 484.333C164.621 484.866 158.088 490.199 150.754 496.066C125.688 516.066 97.021 546.866 77.2876 574.999C39.421 628.733 14.8876 689.799 4.62095 755.933C0.620953 782.066 -0.445714 834.866 2.75429 860.999C9.82095 921.266 27.9543 972.199 59.021 1018.87L69.1543 1033.93L66.221 1038.87C45.421 1073.8 27.6876 1124.33 19.421 1172.87C12.8876 1211.27 12.0876 1221.53 12.0876 1273C12.0876 1324.87 12.7543 1335.13 18.8876 1371C26.221 1413.93 41.1543 1459.4 57.821 1489.67C63.2876 1499.53 76.621 1520.07 78.221 1521.13C78.7543 1521.4 77.1543 1526.33 74.621 1532.07C55.421 1574.07 39.021 1629.93 32.221 1677C27.421 1709.27 26.7543 1719.67 26.7543 1753.67C26.7543 1797 29.1543 1818.07 38.221 1852.6L39.5543 1857.67H96.621H153.821L150.088 1850.6C127.021 1807.93 124.888 1728.73 144.754 1649.67C153.821 1613.13 164.088 1586.33 183.288 1549.4L194.754 1527V1513.27C194.754 1500.47 194.488 1499 190.354 1490.6C187.154 1484.2 182.888 1478.73 175.288 1471.27C162.354 1458.73 153.021 1445.53 145.554 1429.27C112.754 1358.07 106.354 1252.33 129.421 1162.2C139.021 1124.6 154.888 1091.13 171.554 1072.87C182.888 1060.33 188.754 1046.33 188.754 1031.8C188.754 1016.73 183.421 1004.33 171.421 991.399C137.021 954.599 115.821 909.799 108.221 857.666C97.421 783.399 117.021 702.466 161.554 638.333C205.154 575.399 266.354 534.999 334.754 524.199C350.088 521.666 378.754 522.066 394.754 524.999C412.221 528.066 423.154 527.133 434.354 521.799C448.221 515.266 455.154 507.133 463.288 488.466C470.488 471.799 476.088 462.733 491.154 443.933C509.288 421.399 526.754 406.066 554.754 387.533C586.754 366.599 623.154 351.399 659.421 344.066C672.621 341.399 678.754 340.999 703.421 340.999C728.088 340.999 734.221 341.399 747.421 344.066C800.621 354.866 853.421 382.333 895.554 421.266C904.621 429.666 926.354 456.599 933.288 467.799C935.954 472.199 940.621 481.533 943.554 488.466C951.688 507.133 958.621 515.266 972.488 521.799C983.288 526.999 994.621 528.066 1011.42 525.266C1037.95 520.733 1058.35 521.133 1084.35 526.466C1172.89 544.333 1249.95 617.266 1284.09 714.999C1313.82 800.733 1305.42 890.466 1261.15 958.999C1253.69 970.599 1246.22 979.933 1235.42 991.399C1212.09 1016.33 1212.09 1047.27 1235.29 1072.87C1273.42 1114.6 1297.29 1217.27 1290.09 1307.8C1285.29 1367.53 1269.95 1421 1248.89 1451.27C1245.15 1456.6 1237.42 1465.67 1231.55 1471.27C1223.95 1478.73 1219.69 1484.2 1216.49 1490.6C1212.35 1499 1212.09 1500.47 1212.09 1513.27V1527L1223.55 1549.4C1242.75 1586.33 1253.02 1613.13 1262.09 1649.67C1281.69 1727.67 1279.95 1805.27 1257.55 1849.4C1255.69 1853.13 1254.09 1856.6 1254.09 1857C1254.09 1857.4 1279.55 1857.67 1310.75 1857.67H1367.29L1368.75 1851.93C1369.55 1848.87 1370.89 1844.2 1371.55 1841.53C1373.02 1835.67 1375.95 1818.33 1378.35 1801.67C1380.62 1784.87 1380.62 1723 1378.35 1704.33C1369.82 1636.6 1355.55 1582.87 1332.22 1532.07C1329.69 1526.33 1328.09 1521.4 1328.62 1521.13C1329.29 1520.73 1333.02 1515.4 1337.02 1509.4C1366.09 1465.4 1383.95 1410.07 1393.02 1337C1395.42 1316.87 1395.42 1230.33 1393.02 1211C1386.62 1161.13 1378.89 1127.27 1366.09 1093C1360.75 1078.73 1346.62 1048.6 1340.62 1038.87L1337.69 1033.93L1347.82 1018.87C1378.89 972.199 1397.02 921.266 1404.09 860.999C1407.29 834.866 1406.22 782.066 1402.22 755.933C1391.82 689.666 1367.42 628.866 1329.55 574.999C1309.82 546.866 1281.15 516.066 1256.09 496.066C1248.75 490.199 1242.22 484.866 1241.69 484.333C1241.02 483.799 1241.82 476.466 1243.42 468.199C1259.55 384.066 1259.02 279.133 1242.09 197.133C1227.42 125.666 1200.75 68.8661 1166.35 36.0661C1138.89 9.93279 1110.89 -1.26721 1077.29 0.866126C1000.22 5.39946 938.088 94.0661 913.554 233.799C909.554 256.333 906.088 282.733 906.088 289.933C906.088 292.733 905.554 294.999 904.888 294.999C904.221 294.999 899.021 292.333 893.421 288.999C833.954 253.799 767.821 234.999 703.421 234.999C639.021 234.999 572.888 253.799 513.421 288.999C507.821 292.333 502.621 294.999 501.954 294.999C501.288 294.999 500.754 292.733 500.754 289.933C500.754 282.466 497.154 255.266 493.288 233.799C471.021 108.333 419.954 25.2661 352.088 4.33279C342.754 1.53279 316.221 -0.333874 306.754 1.13279ZM329.421 109.666C348.621 124.866 369.954 168.333 382.221 216.999C384.488 225.799 386.888 235.933 387.554 239.666C388.088 243.266 389.554 251.399 390.754 257.666C395.954 285.933 398.354 316.466 398.621 353.666L398.754 390.333L389.554 403.933L380.354 417.666H358.888C333.821 417.666 308.888 420.866 285.021 427.266C276.488 429.399 268.221 431.533 266.621 431.933C264.088 432.466 263.688 431.666 262.221 420.733C254.354 361.399 254.754 295.666 263.421 240.999C273.021 180.066 295.421 124.866 317.288 108.599C322.488 104.733 323.421 104.866 329.421 109.666ZM1089.69 108.733C1102.89 118.466 1117.42 144.333 1128.22 177.399C1149.95 243.533 1156.09 334.333 1144.62 420.733C1143.15 431.666 1142.75 432.466 1140.22 431.933C1138.62 431.533 1130.35 429.399 1121.82 427.266C1097.95 420.866 1073.02 417.666 1047.95 417.666H1026.49L1017.29 403.933L1008.09 390.333L1008.22 353.666C1008.49 301.933 1013.29 261.533 1024.75 216.599C1036.89 168.333 1058.35 124.866 1077.42 109.666C1083.42 104.866 1084.35 104.733 1089.69 108.733Z" fill="black"/>
<path d="M682.754 779.799C653.821 782.599 645.954 783.666 632.088 786.466C609.554 791.133 579.421 801.533 558.488 811.799C485.688 847.399 435.554 906.733 420.221 975.399C417.154 988.999 416.754 993.533 416.754 1016.47C416.754 1039.13 417.154 1044.07 420.088 1057C440.488 1146.73 523.154 1213 630.088 1225.13C653.288 1227.67 753.554 1227.67 776.754 1225.13C862.621 1215.4 936.488 1168.87 969.688 1103.53C978.488 1086.07 982.754 1074.73 986.754 1057C989.688 1044.07 990.088 1039.13 990.088 1016.47C990.088 993.533 989.688 988.999 986.621 975.399C964.354 875.666 867.554 797.133 748.888 782.199C733.421 780.333 692.888 778.733 682.754 779.799ZM732.621 852.333C772.221 856.599 812.088 870.733 844.088 892.066C861.288 903.533 885.554 927.533 895.954 943.266C908.754 962.733 916.088 982.599 919.421 1006.73C920.888 1017.8 920.088 1026.2 916.088 1044.07C909.821 1070.73 890.354 1098.6 864.088 1118.07C851.821 1127 826.354 1139.93 810.754 1145C781.154 1154.47 761.821 1156.2 692.754 1155.67C647.688 1155.27 639.688 1154.87 626.754 1152.47C582.621 1144.2 547.688 1126.6 522.354 1099.8C501.821 1078.2 492.488 1058.47 487.421 1026.6C485.154 1011.8 489.421 987.266 498.088 966.599C508.621 941.399 535.821 910.066 562.754 892.066C593.954 871.266 635.021 856.466 672.754 852.466C687.288 850.866 718.088 850.866 732.621 852.333Z" fill="black"/>
<path d="M652.488 949.666C642.354 955.133 635.288 969 637.421 979.266C639.821 990.333 649.554 1001.53 664.754 1010.73C672.888 1015.67 673.421 1016.33 673.821 1021.27C674.088 1024.2 673.021 1032.6 671.554 1040.07C669.954 1047.4 668.754 1055.13 668.754 1057.27C668.888 1063 674.221 1072.33 679.821 1076.87C684.754 1080.87 685.688 1081 699.554 1081.4C712.221 1081.8 714.888 1081.53 719.954 1079.13C733.021 1072.73 736.354 1061 731.554 1038.47C727.554 1019.67 728.354 1016.73 738.354 1011C748.888 1004.87 760.088 994.066 763.421 986.733C769.821 972.733 763.954 956.866 749.821 949.533C746.354 947.8 742.088 947 735.821 947C726.088 947 719.821 949.266 708.354 956.6L701.821 960.733L697.688 958.2C680.754 948.2 677.688 947 667.421 947.133C660.088 947.133 656.088 947.8 652.488 949.666Z" fill="black"/>
<path d="M328.754 794.866C305.154 802.333 287.554 819.666 278.488 844.333C274.088 856.066 271.954 874.6 273.821 884.6C278.221 908.466 297.821 930.2 320.088 936.2C348.088 943.533 369.021 938.733 387.554 920.333C398.354 909.8 404.221 900.6 410.088 885.666C414.354 875.133 414.621 873.266 414.621 858.333L414.754 842.333L409.154 830.866C400.221 812.733 384.088 799.266 365.421 794.333C354.888 791.666 337.954 791.8 328.754 794.866Z" fill="black"/>
<path d="M1040.89 794.466C1022.62 799.4 1006.35 813 997.688 830.866L992.088 842.333L992.221 858.333C992.221 873.266 992.488 875.133 996.754 885.666C1002.62 900.6 1008.49 909.8 1019.29 920.333C1037.82 938.733 1058.75 943.533 1086.75 936.2C1102.89 931.933 1119.02 918.333 1126.75 902.466C1133.42 889 1135.02 879.266 1132.89 863.933C1127.95 828.866 1107.42 803.4 1076.89 794.466C1067.95 791.8 1050.62 791.8 1040.89 794.466Z" fill="black"/>
</svg>
