<svg width="18" height="18" viewBox="0 0 18 18" fill="none" xmlns="http://www.w3.org/2000/svg">
<path d="M2.45442 17.5552C1.95442 17.5552 1.52942 17.3802 1.17942 17.0302C0.829419 16.6802 0.654419 16.2552 0.654419 15.7552V2.35518C0.654419 1.85518 0.829419 1.43018 1.17942 1.08018C1.52942 0.730176 1.95442 0.555176 2.45442 0.555176H8.77942V2.05518H2.45442C2.38775 2.05518 2.32109 2.08851 2.25442 2.15518C2.18775 2.22184 2.15442 2.28851 2.15442 2.35518V15.7552C2.15442 15.8218 2.18775 15.8885 2.25442 15.9552C2.32109 16.0218 2.38775 16.0552 2.45442 16.0552H15.8544C15.9211 16.0552 15.9878 16.0218 16.0544 15.9552C16.1211 15.8885 16.1544 15.8218 16.1544 15.7552V9.43018H17.6544V15.7552C17.6544 16.2552 17.4794 16.6802 17.1294 17.0302C16.7794 17.3802 16.3544 17.5552 15.8544 17.5552H2.45442ZM6.87942 12.3802L5.82942 11.3302L15.1044 2.05518H11.1544V0.555176H17.6544V7.05518H16.1544V3.10518L6.87942 12.3802Z" fill="#1C1B1F"/>
</svg>
