<svg width="25" height="25" viewBox="0 0 25 25" fill="none" xmlns="http://www.w3.org/2000/svg">
<mask id="mask0_723_19" style="mask-type:alpha" maskUnits="userSpaceOnUse" x="0" y="0" width="25" height="25">
<rect x="0.916138" y="0.497559" width="24" height="24" fill="#D9D9D9"/>
</mask>
<g mask="url(#mask0_723_19)">
<path d="M18.3008 21.4975C17.1866 21.4975 16.2414 21.1094 15.4652 20.3331C14.6889 19.5568 14.3007 18.6116 14.3007 17.4975C14.3007 16.3834 14.6889 15.4383 15.4652 14.662C16.2414 13.8857 17.1866 13.4975 18.3008 13.4975C19.4149 13.4975 20.3601 13.8857 21.1363 14.662C21.9126 15.4383 22.3008 16.3834 22.3008 17.4975C22.3008 18.6116 21.9126 19.5568 21.1363 20.3331C20.3601 21.1094 19.4149 21.4975 18.3008 21.4975ZM19.9565 19.6995L20.5027 19.1533L18.6854 17.336V14.6129H17.9161V17.6591L19.9565 19.6995ZM6.53151 20.4975C6.08408 20.4975 5.70299 20.3402 5.38824 20.0254C5.0735 19.7107 4.91614 19.3296 4.91614 18.8822V6.11292C4.91614 5.66548 5.0735 5.28439 5.38824 4.96964C5.70299 4.65491 6.08408 4.49754 6.53151 4.49754H11.1681C11.2616 4.10651 11.4693 3.77798 11.7911 3.51196C12.1129 3.24593 12.4879 3.11292 12.9161 3.11292C13.352 3.11292 13.7299 3.24593 14.0498 3.51196C14.3697 3.77798 14.5764 4.10651 14.67 4.49754H19.3008C19.7482 4.49754 20.1293 4.65491 20.444 4.96964C20.7588 5.28439 20.9161 5.66548 20.9161 6.11292V12.1322C20.7444 12.0437 20.5815 11.9661 20.4277 11.8995C20.2738 11.8328 20.1033 11.7732 19.9161 11.7206V6.11292C19.9161 5.95908 19.852 5.81806 19.7238 5.68984C19.5956 5.56164 19.4546 5.49754 19.3008 5.49754H16.9161V7.72831H8.91614V5.49754H6.53151C6.37768 5.49754 6.23665 5.56164 6.10844 5.68984C5.98024 5.81806 5.91614 5.95908 5.91614 6.11292V18.8822C5.91614 19.0617 5.97383 19.2091 6.08921 19.3245C6.2046 19.4399 6.35203 19.4975 6.53151 19.4975H12.6584C12.711 19.6847 12.7738 19.8584 12.8469 20.0187C12.92 20.179 13.0136 20.3386 13.1277 20.4975H6.53151ZM12.9161 5.72831C13.1482 5.72831 13.3408 5.65171 13.494 5.49849C13.6472 5.34529 13.7238 5.15267 13.7238 4.92062C13.7238 4.68857 13.6472 4.49594 13.494 4.34274C13.3408 4.18952 13.1482 4.11292 12.9161 4.11292C12.6841 4.11292 12.4915 4.18952 12.3383 4.34274C12.185 4.49594 12.1084 4.68857 12.1084 4.92062C12.1084 5.15267 12.185 5.34529 12.3383 5.49849C12.4915 5.65171 12.6841 5.72831 12.9161 5.72831Z" fill="#1C1B1F"/>
</g>
</svg>
