<svg width="257" height="256" viewBox="0 0 257 256" fill="none" xmlns="http://www.w3.org/2000/svg">
<g clip-path="url(#clip0_1016_32)">
<path d="M127.456 1.00305C62.6237 1.00306 66.6723 29.1182 66.6723 29.1182L66.7445 58.2453H128.612V66.9906H42.1709C42.1709 66.9906 0.684692 62.2857 0.684692 127.702C0.684688 193.118 36.8947 190.799 36.8947 190.799H58.5051V160.443C58.5051 160.443 57.3403 124.233 94.137 124.233H155.499C155.499 124.233 189.974 124.79 189.974 90.9138V34.9003C189.974 34.9003 195.209 1.00305 127.456 1.00305ZM93.3419 20.5897C99.4973 20.5897 104.472 25.5648 104.472 31.7202C104.472 37.8756 99.4973 42.8506 93.3419 42.8506C87.1865 42.8506 82.2115 37.8756 82.2115 31.7202C82.2115 25.5648 87.1865 20.5897 93.3419 20.5897Z" fill="url(#paint0_linear_1016_32)"/>
<path d="M129.297 255.057C194.13 255.057 190.081 226.942 190.081 226.942L190.009 197.815H128.141V189.069H214.582C214.582 189.069 256.069 193.774 256.069 128.358C256.069 62.9416 219.859 65.2614 219.859 65.2614H198.248V95.6172C198.248 95.6172 199.413 131.827 162.616 131.827H101.254C101.254 131.827 66.7789 131.27 66.7789 165.146V221.16C66.7789 221.16 61.5446 255.057 129.297 255.057ZM163.411 235.47C157.256 235.47 152.281 230.495 152.281 224.34C152.281 218.185 157.256 213.21 163.411 213.21C169.567 213.21 174.542 218.185 174.542 224.34C174.542 230.495 169.567 235.47 163.411 235.47Z" fill="url(#paint1_linear_1016_32)"/>
</g>
<defs>
<linearGradient id="paint0_linear_1016_32" x1="2454.97" y1="2286.15" x2="15110.9" y2="14815.8" gradientUnits="userSpaceOnUse">
<stop stop-color="#387EB8"/>
<stop offset="1" stop-color="#366994"/>
</linearGradient>
<linearGradient id="paint1_linear_1016_32" x1="3689.12" y1="3971.3" x2="17280.2" y2="16819.4" gradientUnits="userSpaceOnUse">
<stop stop-color="#FFE052"/>
<stop offset="1" stop-color="#FFC331"/>
</linearGradient>
<clipPath id="clip0_1016_32">
<rect width="256" height="255" fill="white" transform="translate(0.540161 0.930779)"/>
</clipPath>
</defs>
</svg>
