<svg width="25" height="25" viewBox="0 0 25 25" fill="none" xmlns="http://www.w3.org/2000/svg">
<mask id="mask0_723_31" style="mask-type:alpha" maskUnits="userSpaceOnUse" x="0" y="0" width="25" height="25">
<rect x="0.0871582" y="0.657349" width="24" height="24" fill="#D9D9D9"/>
</mask>
<g mask="url(#mask0_723_31)">
<path d="M19.9198 21.917L17.6833 19.6804C16.9051 20.3035 16.0439 20.7888 15.0996 21.1362C14.1554 21.4836 13.1512 21.6574 12.0871 21.6574C10.8421 21.6574 9.67214 21.4211 8.57714 20.9486C7.48214 20.4761 6.52964 19.8349 5.71964 19.0248C4.90964 18.2148 4.26839 17.2624 3.79589 16.1674C3.32339 15.0724 3.08714 13.9023 3.08714 12.6573C3.08714 11.5932 3.26086 10.5891 3.60829 9.64485C3.95572 8.70062 4.44098 7.8394 5.06406 7.0612L2.82751 4.82465L3.54099 4.1112L20.6333 21.2035L19.9198 21.917ZM12.0871 20.6574C13.0089 20.6574 13.8811 20.508 14.7035 20.2093C15.5259 19.9106 16.2794 19.4945 16.9641 18.9612L5.78329 7.78042C5.24996 8.46504 4.83393 9.21857 4.53521 10.041C4.2365 10.8634 4.08714 11.7355 4.08714 12.6573C4.08714 14.874 4.86631 16.7615 6.42464 18.3198C7.98297 19.8782 9.87047 20.6574 12.0871 20.6574ZM19.7064 17.465L18.9679 16.7266C19.3346 16.1189 19.6128 15.4743 19.8025 14.7929C19.9923 14.1115 20.0871 13.3996 20.0871 12.6573C20.0871 10.4407 19.308 8.55318 17.7496 6.99485C16.1913 5.43652 14.3038 4.65735 12.0871 4.65735C11.3448 4.65735 10.633 4.75222 9.95157 4.94197C9.27015 5.13171 8.6256 5.40991 8.01792 5.77657L7.27944 5.03812C7.99011 4.59181 8.7479 4.2501 9.55282 4.013C10.3577 3.7759 11.2025 3.65735 12.0871 3.65735C13.3321 3.65735 14.5021 3.8936 15.5971 4.3661C16.6921 4.8386 17.6446 5.47985 18.4546 6.28985C19.2646 7.09985 19.9059 8.05235 20.3784 9.14735C20.8509 10.2423 21.0871 11.4123 21.0871 12.6573C21.0871 13.542 20.9686 14.3867 20.7315 15.1917C20.4944 15.9966 20.1527 16.7544 19.7064 17.465Z" fill="#1C1B1F"/>
</g>
</svg>
