<svg width="24" height="24" viewBox="0 0 24 24" fill="none" xmlns="http://www.w3.org/2000/svg">
<mask id="mask0_213_85" style="mask-type:alpha" maskUnits="userSpaceOnUse" x="0" y="0" width="24" height="24">
<rect width="24" height="24" fill="#D9D9D9"/>
</mask>
<g mask="url(#mask0_213_85)">
<path d="M12 21.475C9.83333 20.8917 8.04167 19.621 6.625 17.663C5.20833 15.7044 4.5 13.5167 4.5 11.1V5.35005L12 2.55005L19.5 5.35005V11.1C19.5 13.5167 18.7917 15.7044 17.375 17.663C15.9583 19.621 14.1667 20.8917 12 21.475ZM12 19.9C13.6167 19.4 14.9667 18.4127 16.05 16.938C17.1333 15.4627 17.7667 13.8167 17.95 12H12V4.12505L6 6.37505V11.537C6 11.6624 6.01667 11.8167 6.05 12H12V19.9Z" fill="#1C1B1F"/>
</g>
</svg>
