<svg width="50" height="50" viewBox="0 0 50 50" fill="none" xmlns="http://www.w3.org/2000/svg">
<g clip-path="url(#clip0_609_9)">
<path fill-rule="evenodd" clip-rule="evenodd" d="M13.8889 31.4921C13.8889 28.5794 16.0914 26.2346 18.8272 26.2346C21.563 26.2346 23.7655 28.5794 23.7655 31.4921V44.4338C23.7655 47.3464 21.563 49.6913 18.8272 49.6913C16.0914 49.6913 13.8889 47.3464 13.8889 44.4338V31.4921Z" fill="#7F7F7F" stroke="#7F7F7F" stroke-width="0.790123" stroke-linecap="round" stroke-linejoin="round"/>
<path fill-rule="evenodd" clip-rule="evenodd" d="M31.4921 36.1111C28.5795 36.1111 26.2346 33.9086 26.2346 31.1728C26.2346 28.437 28.5795 26.2346 31.4921 26.2346H44.4339C47.3465 26.2346 49.6914 28.437 49.6914 31.1728C49.6914 33.9086 47.3465 36.1111 44.4339 36.1111H31.4921Z" fill="#8D8D8D" stroke="#8D8D8D" stroke-width="0.790123" stroke-linecap="round" stroke-linejoin="round"/>
<path fill-rule="evenodd" clip-rule="evenodd" d="M26.2346 5.56618C26.2346 2.65353 28.4371 0.308655 31.1729 0.308655C33.9087 0.308655 36.1112 2.65353 36.1112 5.56618V18.5078C36.1112 21.4206 33.9087 23.7654 31.1729 23.7654C28.4371 23.7654 26.2346 21.4206 26.2346 18.5078V5.56618Z" fill="#737373" stroke="#737373" stroke-width="0.790123" stroke-linecap="round" stroke-linejoin="round"/>
<path fill-rule="evenodd" clip-rule="evenodd" d="M5.56612 23.7655C2.65347 23.7655 0.308594 21.563 0.308594 18.8272C0.308594 16.0914 2.65347 13.8889 5.56612 13.8889H18.5078C21.4205 13.8889 23.7654 16.0914 23.7654 18.8272C23.7654 21.563 21.4205 23.7655 18.5078 23.7655H5.56612Z" fill="#949494" stroke="#949494" stroke-width="0.790123" stroke-linecap="round" stroke-linejoin="round"/>
<path fill-rule="evenodd" clip-rule="evenodd" d="M26.2345 44.7531C26.2331 45.402 26.3599 46.0448 26.6076 46.6445C26.8553 47.2443 27.219 47.7892 27.6778 48.2481C28.1366 48.7069 28.6816 49.0706 29.2813 49.3183C29.8811 49.566 30.5239 49.6928 31.1728 49.6914C33.9086 49.6914 36.111 47.4889 36.111 44.7531C36.1124 44.1042 35.9856 43.4614 35.738 42.8617C35.4903 42.2619 35.1266 41.717 34.6677 41.2581C34.2089 40.7993 33.664 40.4356 33.0642 40.1879C32.4644 39.9402 31.8217 39.8134 31.1728 39.8148H26.2345V44.7531Z" fill="#8D8D8D" stroke="#8D8D8D" stroke-width="0.790123" stroke-linecap="round"/>
<path fill-rule="evenodd" clip-rule="evenodd" d="M44.7531 23.7655H39.8148V18.8272C39.8148 16.0914 42.0173 13.8889 44.7531 13.8889C47.4889 13.8889 49.6914 16.0914 49.6914 18.8272C49.6914 21.563 47.4889 23.7655 44.7531 23.7655Z" fill="#737373" stroke="#737373" stroke-width="0.790123" stroke-linecap="round"/>
<path fill-rule="evenodd" clip-rule="evenodd" d="M5.24688 26.2346H10.1851V31.1728C10.1851 33.9086 7.98268 36.1111 5.24688 36.1111C4.59798 36.1125 3.95521 35.9857 3.35545 35.738C2.75568 35.4903 2.21074 35.1266 1.75191 34.6678C1.29307 34.209 0.929372 33.664 0.681691 33.0643C0.43401 32.4645 0.307222 31.8217 0.308605 31.1728C0.308605 28.437 2.51107 26.2346 5.24688 26.2346Z" fill="#7F7F7F" stroke="#7F7F7F" stroke-width="0.790123" stroke-linecap="round"/>
<path fill-rule="evenodd" clip-rule="evenodd" d="M23.7653 5.24694V10.1852H18.8271C18.1782 10.1866 17.5354 10.0598 16.9356 9.81212C16.3359 9.56444 15.7909 9.20074 15.3321 8.74191C14.8733 8.28307 14.5096 7.73813 14.2619 7.13837C14.0142 6.5386 13.8874 5.89583 13.8888 5.24694C13.8888 2.51113 16.0913 0.308666 18.8271 0.308666C19.476 0.307283 20.1187 0.434071 20.7185 0.681752C21.3183 0.929433 21.8632 1.29313 22.322 1.75197C22.7809 2.2108 23.1446 2.75574 23.3923 3.35551C23.6399 3.95527 23.7667 4.59805 23.7653 5.24694Z" fill="#949494" stroke="#949494" stroke-width="0.790123" stroke-linecap="round"/>
</g>
<defs>
<clipPath id="clip0_609_9">
<rect width="50" height="50" fill="white"/>
</clipPath>
</defs>
</svg>
