<svg width="64" height="64" viewBox="0 0 64 64" fill="none" xmlns="http://www.w3.org/2000/svg">
<g clip-path="url(#clip0_119_2)">
<path fill-rule="evenodd" clip-rule="evenodd" d="M17.7778 40.3099C17.7778 36.5816 20.597 33.5802 24.0988 33.5802C27.6006 33.5802 30.4198 36.5816 30.4198 40.3099V56.8752C30.4198 60.6034 27.6006 63.6049 24.0988 63.6049C20.597 63.6049 17.7778 60.6034 17.7778 56.8752V40.3099Z" fill="#E01E5A" stroke="#E01E5A" stroke-width="0.790123" stroke-linecap="round" stroke-linejoin="round"/>
<path fill-rule="evenodd" clip-rule="evenodd" d="M40.31 46.2222C36.5818 46.2222 33.5803 43.403 33.5803 39.9012C33.5803 36.3994 36.5818 33.5802 40.31 33.5802H56.8754C60.6036 33.5802 63.605 36.3994 63.605 39.9012C63.605 43.403 60.6036 46.2222 56.8754 46.2222H40.31Z" fill="#ECB22D" stroke="#ECB22D" stroke-width="0.790123" stroke-linecap="round" stroke-linejoin="round"/>
<path fill-rule="evenodd" clip-rule="evenodd" d="M33.5803 7.12466C33.5803 3.39646 36.3995 0.39502 39.9013 0.39502C43.4031 0.39502 46.2223 3.39646 46.2223 7.12466V23.69C46.2223 27.4183 43.4031 30.4197 39.9013 30.4197C36.3995 30.4197 33.5803 27.4183 33.5803 23.69V7.12466Z" fill="#2FB67C" stroke="#2FB67C" stroke-width="0.790123" stroke-linecap="round" stroke-linejoin="round"/>
<path fill-rule="evenodd" clip-rule="evenodd" d="M7.12466 30.4198C3.39646 30.4198 0.39502 27.6006 0.39502 24.0988C0.39502 20.597 3.39646 17.7778 7.12466 17.7778H23.69C27.4183 17.7778 30.4197 20.597 30.4197 24.0988C30.4197 27.6006 27.4183 30.4198 23.69 30.4198H7.12466Z" fill="#36C5F1" stroke="#36C5F1" stroke-width="0.790123" stroke-linecap="round" stroke-linejoin="round"/>
<path fill-rule="evenodd" clip-rule="evenodd" d="M33.5801 57.2839C33.5783 58.1145 33.7406 58.9372 34.0576 59.7049C34.3747 60.4726 34.8402 61.1701 35.4275 61.7575C36.0148 62.3448 36.7124 62.8103 37.48 63.1273C38.2477 63.4444 39.0705 63.6066 39.9011 63.6049C43.4029 63.6049 46.2221 60.7857 46.2221 57.2839C46.2238 56.4533 46.0615 55.6306 45.7445 54.8629C45.4275 54.0952 44.9619 53.3976 44.3746 52.8103C43.7873 52.223 43.0898 51.7575 42.3221 51.4405C41.5544 51.1234 40.7317 50.9611 39.9011 50.9629H33.5801V57.2839Z" fill="#ECB22D" stroke="#ECB22D" stroke-width="0.790123" stroke-linecap="round"/>
<path fill-rule="evenodd" clip-rule="evenodd" d="M57.2839 30.4197H50.9629V24.0987C50.9629 20.5969 53.7821 17.7777 57.2839 17.7777C60.7857 17.7777 63.6049 20.5969 63.6049 24.0987C63.6049 27.6005 60.7857 30.4197 57.2839 30.4197Z" fill="#2FB67C" stroke="#2FB67C" stroke-width="0.790123" stroke-linecap="round"/>
<path fill-rule="evenodd" clip-rule="evenodd" d="M6.71602 33.5802H13.037V39.9012C13.037 43.403 10.2178 46.2222 6.71602 46.2222C5.88544 46.2239 5.06269 46.0617 4.29499 45.7446C3.52729 45.4276 2.82977 44.9621 2.24246 44.3747C1.65515 43.7874 1.18962 43.0899 0.872584 42.3222C0.555552 41.5545 0.393263 40.7318 0.395034 39.9012C0.395034 36.3994 3.21419 33.5802 6.71602 33.5802Z" fill="#E01E5A" stroke="#E01E5A" stroke-width="0.790123" stroke-linecap="round"/>
<path fill-rule="evenodd" clip-rule="evenodd" d="M30.4198 6.71602V13.037H24.0988C23.2683 13.0388 22.4455 12.8765 21.6778 12.5595C20.9101 12.2424 20.2126 11.7769 19.6253 11.1896C19.038 10.6023 18.5724 9.90475 18.2554 9.13705C17.9384 8.36935 17.7761 7.5466 17.7778 6.71602C17.7778 3.21419 20.597 0.395034 24.0988 0.395034C24.9294 0.393263 25.7522 0.555552 26.5199 0.872584C27.2876 1.18962 27.9851 1.65515 28.5724 2.24246C29.1597 2.82977 29.6252 3.52729 29.9423 4.29499C30.2593 5.06269 30.4216 5.88544 30.4198 6.71602V6.71602Z" fill="#36C5F1" stroke="#36C5F1" stroke-width="0.790123" stroke-linecap="round"/>
</g>
<defs>
<clipPath id="clip0_119_2">
<rect width="64" height="64" fill="white"/>
</clipPath>
</defs>
</svg>
