<svg width="1146" height="1146" viewBox="0 0 1146 1146" fill="none" xmlns="http://www.w3.org/2000/svg">
<path d="M531.462 856.974C550.836 877.758 580.459 889.901 598.645 871.686L654.936 815.379L871.697 598.659C906.78 563.577 829.134 486.168 794.176 521.178L714.164 601.166L718.323 605.296L718.793 605.755C728.174 615.697 727.965 631.507 718.323 641.194L713.66 645.851L691.06 668.485L499.236 476.662H499.27L477.202 454.538L499.836 431.943L504.499 427.281C514.18 417.644 529.985 417.446 539.904 426.834L540.368 427.281L544.538 431.434L664.793 311.203C750.158 226.173 890.269 226.173 975.633 311.203L1081.85 417.395C1166.79 502.81 1166.79 642.841 1081.85 728.255L824.862 985.252L728.22 1081.72C642.81 1166.7 502.745 1166.7 417.335 1081.72L282.521 946.876C368.406 960.717 455.909 932.447 517.462 870.979L531.462 856.974Z" fill="#666666"/>
<path d="M614.104 288.597H614.065C594.707 267.802 565.084 255.642 546.892 273.84L490.607 330.142L273.84 546.861C238.757 581.944 316.398 659.358 351.362 624.383L431.374 544.36L427.226 540.235L426.756 539.766C417.357 529.835 417.567 514.008 427.226 504.332L431.888 499.681L454.483 477.047L646.307 668.87H646.267L668.364 690.983L645.775 713.617L641.078 718.257C631.402 727.887 615.609 728.091 605.69 718.715L605.22 718.257L601.067 714.098L480.812 834.318C395.448 919.365 255.326 919.365 169.961 834.318L63.8298 728.21C-21.1103 642.795 -21.1103 502.765 63.8298 417.35L320.806 160.348L417.318 63.8422C502.733 -21.1142 642.787 -21.1142 728.203 63.8422L863.017 198.689C777.138 184.854 689.646 213.119 628.098 274.587L614.104 288.597Z" fill="#D93039"/>
</svg>
