<svg width="384" height="71" viewBox="0 0 384 71" fill="none" xmlns="http://www.w3.org/2000/svg">
<g clip-path="url(#clip0_507_2)">
<path d="M35.3043 70.9301C54.8024 70.9301 70.6087 55.1241 70.6087 35.626C70.6087 16.128 54.8024 0.321671 35.3043 0.321671C15.8063 0.321671 0 16.128 0 35.626C0 55.1241 15.8063 70.9301 35.3043 70.9301Z" fill="#D71920"/>
<path d="M19.7515 35.4583C14.6306 45.4877 15.3071 48.6744 16.1904 51.1566C18.5664 57.8426 31.419 55.9642 44.0816 46.0747C56.7442 36.1851 62.5416 22.4491 57.0293 15.3994C52.2382 9.26656 40.3024 10.3567 29.0374 17.2163C43.0977 8.22113 57.8847 6.55514 63.6262 13.9067C70.0833 22.1696 62.7373 38.6952 47.218 50.8211C31.6986 62.9468 13.8815 66.0775 7.42437 57.8147C3.36564 52.6157 4.34959 44.1907 9.80594 35.6036H5.68011L6.65846 33.3227C6.65846 33.3227 14.0604 31.83 21.5182 25.0543C21.535 25.0375 24.5203 25.0319 24.5203 25.0319L20.8026 33.0655H26.9074L25.7502 35.4862L19.7515 35.4583Z" fill="white"/>
</g>
<path d="M115.992 56C115.224 56 114.563 55.744 114.008 55.232C113.496 54.6773 113.24 54.016 113.24 53.248V6.016H118.744V53.248C118.744 54.016 118.488 54.6773 117.976 55.232C117.464 55.744 116.803 56 115.992 56ZM98.52 11.072C97.752 11.072 97.1333 10.8373 96.664 10.368C96.1947 9.856 95.96 9.25866 95.96 8.576C95.96 7.808 96.1947 7.18933 96.664 6.72C97.1333 6.25067 97.752 6.016 98.52 6.016H133.528C134.296 6.016 134.915 6.25067 135.384 6.72C135.853 7.18933 136.088 7.808 136.088 8.576C136.088 9.25866 135.853 9.856 135.384 10.368C134.915 10.8373 134.296 11.072 133.528 11.072H98.52ZM131.133 34.304C131.218 31.7013 131.88 29.376 133.117 27.328C134.397 25.2373 136.061 23.5947 138.109 22.4C140.2 21.2053 142.482 20.608 144.957 20.608C147.133 20.608 148.776 20.928 149.885 21.568C151.037 22.208 151.464 23.0827 151.165 24.192C151.037 24.7893 150.76 25.216 150.333 25.472C149.949 25.728 149.48 25.856 148.925 25.856C148.413 25.856 147.816 25.8133 147.133 25.728C144.616 25.4293 142.376 25.6 140.413 26.24C138.493 26.8373 136.957 27.84 135.805 29.248C134.653 30.656 134.077 32.3413 134.077 34.304H131.133ZM131.453 56C130.6 56 129.938 55.7653 129.469 55.296C129 54.8267 128.765 54.1653 128.765 53.312V23.68C128.765 22.8267 129 22.1653 129.469 21.696C129.938 21.2267 130.6 20.992 131.453 20.992C132.306 20.992 132.946 21.2267 133.373 21.696C133.842 22.1653 134.077 22.8267 134.077 23.68V53.312C134.077 54.1653 133.842 54.8267 133.373 55.296C132.946 55.7653 132.306 56 131.453 56ZM167.022 56.32C163.523 56.32 160.43 55.5733 157.742 54.08C155.054 52.544 152.942 50.432 151.406 47.744C149.87 45.056 149.102 41.984 149.102 38.528C149.102 35.0293 149.827 31.9573 151.278 29.312C152.728 26.624 154.712 24.512 157.23 22.976C159.79 21.44 162.734 20.672 166.062 20.672C169.304 20.672 172.12 21.4187 174.51 22.912C176.942 24.3627 178.798 26.3893 180.078 28.992C181.4 31.5947 182.062 34.56 182.062 37.888C182.062 38.6133 181.827 39.2107 181.358 39.68C180.888 40.1067 180.291 40.32 179.566 40.32H152.814V35.904H179.886L177.134 37.824C177.176 35.4773 176.75 33.3653 175.854 31.488C174.958 29.6107 173.678 28.1387 172.014 27.072C170.35 26.0053 168.366 25.472 166.062 25.472C163.63 25.472 161.496 26.0267 159.662 27.136C157.87 28.2453 156.483 29.8027 155.502 31.808C154.563 33.7707 154.094 36.0107 154.094 38.528C154.094 41.0453 154.648 43.2853 155.758 45.248C156.867 47.2107 158.382 48.7467 160.302 49.856C162.264 50.9653 164.504 51.52 167.022 51.52C168.472 51.52 169.944 51.264 171.438 50.752C172.974 50.24 174.19 49.6 175.086 48.832C175.598 48.448 176.174 48.256 176.814 48.256C177.496 48.2133 178.051 48.384 178.478 48.768C179.118 49.3227 179.438 49.92 179.438 50.56C179.48 51.2 179.203 51.7547 178.606 52.224C177.198 53.4187 175.406 54.4 173.23 55.168C171.054 55.936 168.984 56.32 167.022 56.32ZM215.163 56C214.352 56 213.691 55.744 213.179 55.232C212.667 54.72 212.411 54.08 212.411 53.312V36.992C212.411 34.3893 211.92 32.2773 210.939 30.656C210 28.992 208.699 27.7547 207.035 26.944C205.371 26.0907 203.472 25.664 201.339 25.664C199.334 25.664 197.52 26.0693 195.899 26.88C194.32 27.648 193.062 28.7147 192.123 30.08C191.184 31.4027 190.715 32.9387 190.715 34.688H187.003C187.088 32 187.792 29.6107 189.115 27.52C190.48 25.3867 192.294 23.7013 194.555 22.464C196.816 21.2267 199.334 20.608 202.107 20.608C205.094 20.608 207.76 21.248 210.107 22.528C212.496 23.7653 214.374 25.6 215.739 28.032C217.147 30.464 217.851 33.4507 217.851 36.992V53.312C217.851 54.08 217.595 54.72 217.083 55.232C216.571 55.744 215.931 56 215.163 56ZM188.027 56C187.174 56 186.491 55.7653 185.979 55.296C185.51 54.784 185.275 54.1227 185.275 53.312V23.744C185.275 22.8907 185.51 22.2293 185.979 21.76C186.491 21.248 187.174 20.992 188.027 20.992C188.838 20.992 189.478 21.248 189.947 21.76C190.459 22.2293 190.715 22.8907 190.715 23.744V53.312C190.715 54.1227 190.459 54.784 189.947 55.296C189.478 55.7653 188.838 56 188.027 56ZM239.529 56.32C236.158 56.32 233.129 55.552 230.441 54.016C227.753 52.4373 225.619 50.304 224.041 47.616C222.505 44.928 221.737 41.8773 221.737 38.464C221.737 35.0933 222.483 32.064 223.977 29.376C225.47 26.688 227.497 24.576 230.057 23.04C232.617 21.4613 235.518 20.672 238.761 20.672C241.534 20.672 244.03 21.2693 246.249 22.464C248.51 23.616 250.345 25.152 251.753 27.072V8.768C251.753 7.91467 252.009 7.25333 252.521 6.784C253.075 6.272 253.737 6.016 254.505 6.016C255.315 6.016 255.977 6.272 256.489 6.784C257.001 7.25333 257.257 7.91467 257.257 8.768V38.656C257.171 41.984 256.339 44.992 254.761 47.68C253.225 50.3253 251.134 52.4373 248.489 54.016C245.843 55.552 242.857 56.32 239.529 56.32ZM239.529 51.456C241.918 51.456 244.03 50.88 245.865 49.728C247.742 48.576 249.214 47.04 250.281 45.12C251.39 43.1573 251.945 40.9387 251.945 38.464C251.945 36.032 251.39 33.8347 250.281 31.872C249.214 29.9093 247.742 28.3733 245.865 27.264C244.03 26.112 241.918 25.536 239.529 25.536C237.182 25.536 235.049 26.112 233.129 27.264C231.251 28.3733 229.758 29.9093 228.649 31.872C227.539 33.8347 226.985 36.032 226.985 38.464C226.985 40.9387 227.539 43.1573 228.649 45.12C229.758 47.04 231.251 48.576 233.129 49.728C235.049 50.88 237.182 51.456 239.529 51.456ZM280.682 56C279.871 56 279.21 55.744 278.698 55.232C278.186 54.72 277.93 54.0587 277.93 53.248V8.768C277.93 7.95733 278.186 7.296 278.698 6.784C279.21 6.272 279.871 6.016 280.682 6.016H292.522C295.637 6.016 298.41 6.67733 300.842 8C303.317 9.32266 305.237 11.1573 306.602 13.504C308.01 15.808 308.714 18.496 308.714 21.568C308.714 24.4693 308.01 27.0507 306.602 29.312C305.237 31.5733 303.317 33.344 300.842 34.624C298.41 35.904 295.637 36.544 292.522 36.544H283.434V53.248C283.434 54.0587 283.178 54.72 282.666 55.232C282.154 55.744 281.493 56 280.682 56ZM307.37 56C306.815 56 306.346 55.8933 305.962 55.68C305.578 55.424 305.258 55.0613 305.002 54.592L292.906 35.328L298.346 33.92L309.546 51.776C310.229 52.8427 310.335 53.824 309.866 54.72C309.439 55.5733 308.607 56 307.37 56ZM283.434 31.296H292.522C294.613 31.296 296.469 30.8907 298.09 30.08C299.754 29.2267 301.055 28.0747 301.994 26.624C302.933 25.1307 303.402 23.4453 303.402 21.568C303.402 19.52 302.933 17.728 301.994 16.192C301.055 14.6133 299.754 13.3973 298.09 12.544C296.469 11.648 294.613 11.2 292.522 11.2H283.434V31.296ZM315.375 56C314.564 56 313.903 55.744 313.391 55.232C312.879 54.72 312.623 54.0587 312.623 53.248V8.768C312.623 7.95733 312.879 7.296 313.391 6.784C313.903 6.272 314.564 6.016 315.375 6.016H328.175C331.332 6.016 334.127 6.72 336.559 8.128C339.033 9.49333 340.953 11.4133 342.319 13.888C343.684 16.32 344.367 19.1573 344.367 22.4C344.367 25.5147 343.684 28.288 342.319 30.72C340.953 33.1093 339.033 35.008 336.559 36.416C334.127 37.7813 331.332 38.464 328.175 38.464H318.127V53.248C318.127 54.0587 317.871 54.72 317.359 55.232C316.847 55.744 316.185 56 315.375 56ZM318.127 33.216H328.175C330.265 33.216 332.121 32.768 333.743 31.872C335.407 30.9333 336.708 29.6533 337.647 28.032C338.585 26.368 339.055 24.4907 339.055 22.4C339.055 20.1813 338.585 18.24 337.647 16.576C336.751 14.912 335.471 13.6107 333.807 12.672C332.143 11.6907 330.265 11.2 328.175 11.2H318.127V33.216ZM342.444 56C341.377 56 340.588 55.5733 340.076 54.72C339.607 53.824 339.564 52.928 339.948 52.032L358.508 7.872C359.063 6.63467 359.959 6.016 361.196 6.016C362.433 6.016 363.287 6.63467 363.756 7.872L382.38 52.096C382.807 53.0347 382.743 53.9307 382.188 54.784C381.676 55.5947 380.929 56 379.948 56C379.393 56 378.881 55.8507 378.412 55.552C377.943 55.2533 377.58 54.848 377.324 54.336L360.3 12.608H362.22L344.94 54.336C344.727 54.8907 344.385 55.3173 343.916 55.616C343.447 55.872 342.956 56 342.444 56ZM346.412 44.352L348.524 39.68H374.188L376.364 44.352H346.412Z" fill="black"/>
<defs>
<clipPath id="clip0_507_2">
<rect width="71" height="71" fill="white"/>
</clipPath>
</defs>
</svg>
