<?xml version="1.0" encoding="UTF-8" standalone="no"?>
<!DOCTYPE svg PUBLIC "-//W3C//DTD SVG 1.1//EN" "http://www.w3.org/Graphics/SVG/1.1/DTD/svg11.dtd">
<svg width="100%" height="100%" viewBox="0 0 118 135" version="1.1" xmlns="http://www.w3.org/2000/svg" xmlns:xlink="http://www.w3.org/1999/xlink" xml:space="preserve" xmlns:serif="http://www.serif.com/" style="fill-rule:evenodd;clip-rule:evenodd;stroke-linejoin:round;stroke-miterlimit:2;">
    <g id="Artboard1" transform="matrix(0.356133,0,0,0.712943,1.77159,1.28994)">
        <rect x="-4.975" y="-1.809" width="329.256" height="188.621" style="fill:none;"/>
        <g transform="matrix(2.80794,0,0,1.40264,-24.6638,-5.8413)">
            <g>
                <path d="M65.469,5.431L10.124,37.409L10.125,101.877L65.462,134.109L120.813,101.895L120.813,37.407L65.469,5.431Z" style="fill:white;fill-rule:nonzero;"/>
                <g>
                    <path d="M63.957,92.94L63.957,79.575C57.909,76.719 54.111,70.783 54.189,64.305L41.733,57.112C40.95,64.213 42.585,71.559 46.369,77.883C50.545,84.86 56.46,89.923 63.957,92.94Z" style="fill:rgb(25,4,218);fill-rule:nonzero;"/>
                    <path d="M63.957,111.255L63.957,95.742C55.519,92.58 48.868,87.012 44.187,79.189C39.912,72.048 38.198,63.731 39.345,55.732L27.781,49.054C21.14,74.652 36.57,101.186 63.957,111.255Z" style="fill:rgb(25,4,218);fill-rule:nonzero;"/>
                    <path d="M66.804,95.596L66.804,111.245C93.681,100.939 109.519,73.897 103.176,49.145L91.688,55.838C93.169,64.473 91.767,72.717 87.623,79.703C83.476,86.697 76.281,92.188 66.804,95.596Z" style="fill:rgb(8,177,213);fill-rule:nonzero;"/>
                    <path d="M66.804,79.551L66.804,92.953C75.26,89.734 81.694,84.714 85.436,78.405C89.111,72.208 90.452,64.893 89.332,57.205L76.888,64.38C76.826,70.53 73.171,76.032 66.804,79.551Z" style="fill:rgb(8,177,213);fill-rule:nonzero;"/>
                    <path d="M78.53,41.442C83.758,43.991 88.031,48.05 90.903,53.191L102.086,46.733C102.011,46.627 101.94,46.522 101.875,46.417C97.475,39.301 91.666,33.947 84.608,30.504C64.967,20.928 40.582,28.063 28.836,46.734L40.063,53.215C48.47,40.151 65.268,34.975 78.53,41.442Z" style="fill:rgb(255,201,0);fill-rule:nonzero;"/>
                    <path d="M65.771,55.646C67.533,55.646 69.298,56.031 70.953,56.839L70.954,56.839C73.129,57.901 74.908,59.589 76.112,61.733L88.7,54.463C86.082,49.763 82.184,46.054 77.415,43.728C65.337,37.84 50.006,42.568 42.268,54.488L54.793,61.717C57.397,57.836 61.572,55.646 65.771,55.646Z" style="fill:rgb(255,201,0);fill-rule:nonzero;"/>
                    <path d="M66.804,130.848L118.632,100.643L118.632,40.14L105.455,47.817C112.697,74.403 95.801,103.33 66.804,113.959L66.804,130.848Z" style="fill:rgb(8,177,213);fill-rule:nonzero;"/>
                    <path d="M25.5,47.738L12.304,40.117L12.304,100.626L63.957,130.846L63.957,113.963C34.902,103.736 18.087,74.773 25.5,47.738Z" style="fill:rgb(25,4,218);fill-rule:nonzero;"/>
                    <path d="M85.722,28.218C93.22,31.874 99.383,37.547 104.038,45.077C104.112,45.197 104.202,45.322 104.301,45.453L117.357,37.914L65.469,7.948L13.569,37.921L26.63,45.461C39.042,25.644 64.896,18.062 85.722,28.218Z" style="fill:rgb(255,201,0);fill-rule:nonzero;"/>
                    <path d="M74.264,64.806C74.265,64.792 74.286,64.298 74.249,63.505C74.145,63.181 72.921,60.79 69.864,59.122C67.775,57.983 65.095,57.852 62.507,58.76C59.971,59.651 57.819,61.424 56.585,63.633C56.57,63.825 56.541,64.28 56.563,64.806C56.73,68.935 59.284,74.549 64.494,77.117L65.296,77.5L65.992,77.128C71.055,74.294 74.07,69.803 74.264,64.806Z" style="fill:rgb(255,0,54);fill-rule:nonzero;"/>
                </g>
            </g>
        </g>
    </g>
</svg>
