<svg width="25" height="25" viewBox="0 0 25 25" fill="none" xmlns="http://www.w3.org/2000/svg">
<mask id="mask0_1008_13" style="mask-type:alpha" maskUnits="userSpaceOnUse" x="0" y="0" width="25" height="25">
<rect x="0.0101318" y="0.175415" width="24" height="24" fill="#D9D9D9"/>
</mask>
<g mask="url(#mask0_1008_13)">
<path d="M7.91396 20.1754H16.1063V17.1754C16.1063 16.0369 15.7082 15.0632 14.912 14.2542C14.1159 13.4453 13.1486 13.0408 12.0101 13.0408C10.8716 13.0408 9.90433 13.4456 9.10818 14.2553C8.31203 15.065 7.91396 16.0384 7.91396 17.1754V20.1754ZM5.26013 21.6754C5.04763 21.6754 4.86951 21.6035 4.72576 21.4596C4.58201 21.3158 4.51013 21.1376 4.51013 20.925C4.51013 20.7124 4.58201 20.5343 4.72576 20.3908C4.86951 20.2472 5.04763 20.1754 5.26013 20.1754H6.41398V17.1754C6.41398 16.0497 6.722 15.0251 7.33803 14.1013C7.95407 13.1776 8.77042 12.5356 9.78711 12.1754C8.77042 11.8087 7.95407 11.1652 7.33803 10.2446C6.722 9.32412 6.41398 8.30104 6.41398 7.17539V4.17539H5.26013C5.04763 4.17539 4.86951 4.10348 4.72576 3.95967C4.58201 3.81587 4.51013 3.63767 4.51013 3.42507C4.51013 3.21248 4.58201 3.0344 4.72576 2.89082C4.86951 2.74722 5.04763 2.67542 5.26013 2.67542H18.7601C18.9726 2.67542 19.1507 2.74732 19.2945 2.89114C19.4382 3.03496 19.5101 3.21316 19.5101 3.42574C19.5101 3.63834 19.4382 3.81643 19.2945 3.96002C19.1507 4.1036 18.9726 4.17539 18.7601 4.17539H17.6062V7.17539C17.6062 8.30104 17.2982 9.32412 16.6822 10.2446C16.0661 11.1652 15.2498 11.8087 14.2331 12.1754C15.2498 12.5356 16.0661 13.1776 16.6822 14.1013C17.2982 15.0251 17.6062 16.0497 17.6062 17.1754V20.1754H18.7601C18.9726 20.1754 19.1507 20.2473 19.2945 20.3911C19.4382 20.5349 19.5101 20.7131 19.5101 20.9257C19.5101 21.1383 19.4382 21.3164 19.2945 21.46C19.1507 21.6036 18.9726 21.6754 18.7601 21.6754H5.26013Z" fill="#1C1B1F"/>
</g>
</svg>
