<svg width="897" height="598" viewBox="0 0 897 598" fill="none" xmlns="http://www.w3.org/2000/svg">
<path d="M5 588.66C27.2008 560.447 56.0684 543.78 91.6025 538.66C127.137 533.541 156.004 516.874 178.205 488.66C200.406 460.447 229.273 443.78 264.808 438.66C300.342 433.541 329.209 416.874 351.41 388.66C373.611 360.447 402.479 343.78 438.013 338.66C473.547 333.541 502.414 316.874 524.615 288.66C546.816 260.447 575.684 243.78 611.218 238.66C646.752 233.541 675.619 216.874 697.82 188.66C720.021 160.447 748.889 143.78 784.423 138.66C819.957 133.541 848.825 116.874 871.025 88.6603" stroke="url(#paint0_linear_105_6)" stroke-width="2"/>
<path d="M15.0254 548.66C37.2262 520.447 66.0938 503.78 101.628 498.66C137.162 493.541 166.03 476.874 188.23 448.66C210.431 420.447 239.299 403.78 274.833 398.66C310.367 393.541 339.235 376.874 361.436 348.66C383.636 320.447 412.504 303.78 448.038 298.66C483.572 293.541 512.44 276.874 534.641 248.66C556.841 220.447 585.709 203.78 621.243 198.66C656.777 193.541 685.645 176.874 707.846 148.66C730.047 120.447 758.914 103.78 794.448 98.6603C829.982 93.5406 858.85 76.8739 881.051 48.6603" stroke="url(#paint1_linear_105_6)" stroke-width="2"/>
<path d="M25.0508 508.66C47.2516 480.447 76.1191 463.78 111.653 458.66C147.187 453.541 176.055 436.874 198.256 408.66C220.457 380.447 249.324 363.78 284.858 358.66C320.393 353.541 349.26 336.874 371.461 308.66C393.662 280.447 422.529 263.78 458.063 258.66C493.598 253.541 522.465 236.874 544.666 208.66C566.867 180.447 595.734 163.78 631.269 158.66C666.803 153.541 695.67 136.874 717.871 108.66C740.072 80.4466 768.939 63.7799 804.474 58.6603C840.008 53.5406 868.875 36.8739 891.076 8.66025" stroke="url(#paint2_linear_105_6)" stroke-width="2"/>
<defs>
<linearGradient id="paint0_linear_105_6" x1="433.013" y1="330" x2="443.013" y2="347.321" gradientUnits="userSpaceOnUse">
<stop stop-color="#F29C4C"/>
<stop offset="1" stop-color="#F29C4C" stop-opacity="0.5"/>
</linearGradient>
<linearGradient id="paint1_linear_105_6" x1="443.038" y1="290" x2="453.038" y2="307.321" gradientUnits="userSpaceOnUse">
<stop stop-color="#F29C4C"/>
<stop offset="1" stop-color="#F29C4C" stop-opacity="0.5"/>
</linearGradient>
<linearGradient id="paint2_linear_105_6" x1="453.063" y1="250" x2="463.063" y2="267.321" gradientUnits="userSpaceOnUse">
<stop stop-color="#F29C4C"/>
<stop offset="1" stop-color="#F29C4C" stop-opacity="0.5"/>
</linearGradient>
</defs>
</svg>
