<svg width="300" height="120" viewBox="0 0 300 120" fill="none" xmlns="http://www.w3.org/2000/svg">
<path opacity="0.7" fill-rule="evenodd" clip-rule="evenodd" d="M75.8872 92.1994C98.4787 92.1994 116.808 97.9113 116.808 104.885C116.808 111.925 98.4787 117.637 75.8872 117.637C53.5087 117.637 35.1797 111.925 35.1797 104.885C35.1797 97.9113 53.5087 92.1994 75.8872 92.1994ZM61.1813 99.3061H112.758H61.1813Z" fill="url(#paint0_radial_2_2)"/>
<path fill-rule="evenodd" clip-rule="evenodd" d="M131.559 37.2889H151.785V41.3343H144.409V62.0371H139.173V41.3343H131.559V37.2889Z" fill="black"/>
<path fill-rule="evenodd" clip-rule="evenodd" d="M162.255 41.3342H168.918C171.298 41.3342 172.725 42.286 172.725 44.4277C172.725 46.5694 171.298 47.7592 168.918 47.7592H162.255V41.3342ZM162.255 52.2805H167.966C167.966 52.2805 171.298 59.6573 171.774 62.0369H178.436L173.439 51.8045C177.009 50.8527 177.961 46.5694 177.961 43.2379C177.961 38.2407 172.249 37.0509 167.49 37.2888H156.782V62.0369H162.255V52.2805Z" fill="black"/>
<path fill-rule="evenodd" clip-rule="evenodd" d="M185.576 37.2889H203.423V41.3343H191.049V47.0454H202.472V51.3287H191.049V57.7537H203.899V62.0371H185.576V37.2889Z" fill="black"/>
<path fill-rule="evenodd" clip-rule="evenodd" d="M225.316 62.0371L216.273 45.3797V45.6176V62.0371H211.038V37.2889H217.701L226.982 53.2324V37.2889H231.979V62.0371H225.316Z" fill="black"/>
<path fill-rule="evenodd" clip-rule="evenodd" d="M245.066 41.3342H247.921C254.108 41.3342 255.06 45.6175 255.06 49.4249C255.06 53.4703 254.108 57.7536 247.921 57.7536H245.066V41.3342ZM239.593 62.0369H248.159C256.012 62.0369 260.771 58.2295 260.771 49.4249C260.771 41.0962 256.012 37.0509 248.159 37.2888H239.593V62.0369Z" fill="black"/>
<path fill-rule="evenodd" clip-rule="evenodd" d="M148.454 82.2639H145.598V71.3176L142.981 82.2639H140.363L137.746 71.3176L137.508 82.2639H134.89V68.462H139.173L141.553 77.9805L144.171 68.462H148.454V82.2639Z" fill="black"/>
<path fill-rule="evenodd" clip-rule="evenodd" d="M166.539 68.462H169.395V82.2639H166.539V68.462Z" fill="black"/>
<path fill-rule="evenodd" clip-rule="evenodd" d="M226.267 73.6971C226.029 73.935 225.791 74.173 225.553 74.411C225.077 74.411 225.077 74.411 224.601 74.6489C224.363 74.6489 223.887 74.6489 223.173 74.6489C223.173 74.6489 223.173 74.6489 222.935 74.6489H220.794V71.0795H223.173C224.125 71.0795 224.601 71.0795 225.077 71.0795C225.315 71.0795 225.553 71.3174 225.791 71.3174C226.029 71.5554 226.267 71.7934 226.267 71.7934C226.505 72.2693 226.505 72.5073 226.505 72.7452C226.505 72.9832 226.505 73.2211 226.267 73.6971ZM226.505 76.7906C226.505 76.7906 227.219 76.5526 227.457 76.5526C228.171 76.3147 228.647 75.6008 228.884 75.1248C229.36 74.6489 229.36 73.4591 229.36 72.7452C229.36 71.7934 229.36 71.0795 228.884 70.3656C228.409 69.8897 227.933 69.4137 226.981 68.9378C226.743 68.9378 226.505 68.9378 226.029 68.9378C225.553 68.6999 224.839 68.6999 223.887 68.6999H218.176V82.5017H220.794V77.0285H223.649L226.505 82.5017H229.836L226.505 76.7906Z" fill="black"/>
<path fill-rule="evenodd" clip-rule="evenodd" d="M253.633 79.4082C252.919 79.8841 252.205 80.122 251.015 80.122C250.301 80.122 249.587 79.8841 249.111 79.6461C248.635 79.4082 248.159 78.9322 247.921 78.4563C247.684 77.9804 247.684 77.5045 247.446 77.2665C247.446 76.7906 247.208 76.0767 247.208 75.3628C247.208 74.173 247.684 72.9832 247.921 72.2693C248.635 71.3174 249.587 70.6036 251.015 70.6036C252.681 70.6036 253.633 71.3174 254.346 72.2693C254.584 73.2211 255.06 74.173 255.06 75.3628C255.06 77.0285 254.584 78.4563 253.633 79.4082ZM256.012 70.3656C255.06 68.9378 253.157 68.2239 251.015 68.2239C248.873 68.2239 247.208 68.9378 246.256 70.1276C245.066 71.3174 244.352 73.2211 244.352 75.6008C244.352 77.5045 244.828 78.9322 245.78 80.36C246.97 81.5498 248.635 82.5017 251.253 82.5017C253.395 82.5017 255.06 81.7878 256.25 80.36C257.44 78.9322 257.916 77.5045 257.916 75.3628C257.916 73.2211 257.202 71.5554 256.012 70.3656Z" fill="black"/>
<path fill-rule="evenodd" clip-rule="evenodd" d="M197.949 73.2212C197.711 72.2693 197.236 70.8415 194.856 70.8415C193.428 70.8415 191.524 71.7934 191.524 75.6008C191.524 77.9804 192.476 80.36 194.856 80.36C196.522 80.36 197.473 79.4082 197.949 77.7424H200.805C200.329 80.836 198.425 82.7396 194.856 82.7396C191.286 82.7396 188.669 80.36 188.669 75.6008C188.669 70.8415 191.286 68.4619 194.856 68.4619C198.901 68.4619 200.805 71.3175 200.805 73.2212H197.949Z" fill="black"/>
<path fill-rule="evenodd" clip-rule="evenodd" d="M262.914 62.275H261.248V67.5102H260.296V62.275H258.393V61.5611H262.914V62.275Z" fill="black"/>
<path fill-rule="evenodd" clip-rule="evenodd" d="M269.576 67.5101H268.862V62.5129L267.196 67.5101H266.245L264.579 62.5129V67.5101H263.865V61.561H265.055L266.483 65.8443C266.483 65.8443 266.483 65.8443 266.72 66.3203C266.72 66.5582 266.72 66.5582 266.72 66.7962L267.196 65.8443L268.624 61.561H269.576V67.5101Z" fill="black"/>
<path fill-rule="evenodd" clip-rule="evenodd" d="M75.8747 14.4302C101.099 14.4302 121.564 34.895 121.564 59.881C121.564 85.105 101.099 105.57 75.8747 105.57C50.8887 105.57 30.424 85.105 30.424 59.881C30.424 34.895 50.8887 14.4302 75.8747 14.4302ZM59.4553 39.8922H117.042H59.4553Z" fill="url(#paint1_linear_2_2)"/>
<path fill-rule="evenodd" clip-rule="evenodd" d="M110.379 29.8978C111.807 31.3255 113.235 32.7533 114.187 34.657C117.994 42.0338 115.376 53.456 106.572 65.1162C92.7701 84.1532 67.784 97.0031 50.8887 94.1476C47.0813 93.4337 43.7498 92.2439 41.6082 90.1022C40.4184 88.9124 39.2285 87.4846 38.5147 86.0569C34.9452 79.6319 36.135 70.1134 42.3221 59.881L37.3248 60.119L38.7526 56.7875C42.3221 55.8357 54.4581 50.8384 58.0276 45.8412H62.0729L57.5516 56.7875H65.1664L63.5007 59.881H56.1239L50.6507 72.2551C48.747 78.918 51.6026 87.0087 63.2627 84.8671C75.6368 82.4874 89.9145 73.4449 98.9571 61.3088C110.141 46.0792 108.238 31.5635 94.6738 29.1839C87.7728 28.232 79.2062 30.1357 70.4016 34.4191C80.634 27.7561 91.8182 24.1867 101.337 25.8524C105.144 26.5663 108.238 27.7561 110.379 29.8978Z" fill="white"/>
<path fill-rule="evenodd" clip-rule="evenodd" d="M75.9025 16.3626C95.2435 16.3626 110.935 29.234 110.935 44.9491C110.935 60.8138 95.2435 73.6852 75.9025 73.6852C56.7439 73.6852 41.0522 60.8138 41.0522 44.9491C41.0522 29.234 56.7439 16.3626 75.9025 16.3626ZM63.3126 32.377H107.469H63.3126Z" fill="url(#paint2_linear_2_2)"/>
<path fill-rule="evenodd" clip-rule="evenodd" d="M75.9025 103.753C95.2435 103.753 110.935 90.8814 110.935 75.1663C110.935 59.3016 95.2435 46.4302 75.9025 46.4302C56.7439 46.4302 41.0522 59.3016 41.0522 75.1663C41.0522 90.8814 56.7439 103.753 75.9025 103.753ZM63.3126 87.7384H107.469H63.3126Z" fill="url(#paint3_linear_2_2)"/>
<defs>
<radialGradient id="paint0_radial_2_2" cx="0" cy="0" r="1" gradientUnits="userSpaceOnUse" gradientTransform="translate(76.312 105.568) rotate(-0.381968) scale(40.4756 12.719)">
<stop stop-opacity="0.773196"/>
<stop offset="1" stop-opacity="0"/>
</radialGradient>
<linearGradient id="paint1_linear_2_2" x1="30.424" y1="14.4302" x2="30.424" y2="105.57" gradientUnits="userSpaceOnUse">
<stop stop-color="#E80000"/>
<stop offset="1" stop-color="#FF7B7B"/>
</linearGradient>
<linearGradient id="paint2_linear_2_2" x1="44.4452" y1="3.78589" x2="40.5001" y2="63.1525" gradientUnits="userSpaceOnUse">
<stop stop-color="white"/>
<stop offset="1" stop-color="white" stop-opacity="0"/>
</linearGradient>
<linearGradient id="paint3_linear_2_2" x1="41.0522" y1="233.24" x2="40.5001" y2="56.9629" gradientUnits="userSpaceOnUse">
<stop stop-color="white"/>
<stop offset="1" stop-color="white" stop-opacity="0"/>
</linearGradient>
</defs>
</svg>
