<svg width="25" height="25" viewBox="0 0 25 25" fill="none" xmlns="http://www.w3.org/2000/svg">
<mask id="mask0_810_10" style="mask-type:alpha" maskUnits="userSpaceOnUse" x="0" y="0" width="25" height="25">
<rect x="0.253418" y="0.480103" width="24" height="24" fill="#D9D9D9"/>
</mask>
<g mask="url(#mask0_810_10)">
<path d="M12.2534 16.1243L15.8976 12.4801L12.2534 8.83588L11.2092 9.88008L13.0592 11.7301H8.50342V13.2301H13.0592L11.2092 15.0801L12.2534 16.1243ZM12.2551 21.9801C10.9411 21.9801 9.7061 21.7307 8.54997 21.2321C7.39382 20.7334 6.38813 20.0566 5.53292 19.2018C4.67768 18.347 4.00063 17.3417 3.50174 16.1861C3.00286 15.0305 2.75342 13.7957 2.75342 12.4818C2.75342 11.1678 3.00275 9.93279 3.50142 8.77665C4.00008 7.6205 4.67683 6.61482 5.53167 5.7596C6.38652 4.90437 7.39176 4.22731 8.54739 3.72843C9.70301 3.22955 10.9378 2.9801 12.2517 2.9801C13.5657 2.9801 14.8007 3.22944 15.9568 3.7281C17.113 4.22677 18.1187 4.90352 18.9739 5.75835C19.8291 6.6132 20.5062 7.61845 21.005 8.77408C21.5039 9.9297 21.7534 11.1645 21.7534 12.4784C21.7534 13.7923 21.504 15.0274 21.0054 16.1835C20.5067 17.3397 19.83 18.3453 18.9751 19.2006C18.1203 20.0558 17.115 20.7328 15.9594 21.2317C14.8038 21.7306 13.569 21.9801 12.2551 21.9801Z" fill="#1C1B1F"/>
</g>
</svg>
