<svg width="25" height="25" viewBox="0 0 25 25" fill="none" xmlns="http://www.w3.org/2000/svg">
<mask id="mask0_808_43" style="mask-type:alpha" maskUnits="userSpaceOnUse" x="0" y="0" width="25" height="25">
<rect x="0.253296" y="0.480103" width="24" height="24" fill="#D9D9D9"/>
</mask>
<g mask="url(#mask0_808_43)">
<path d="M12.2533 16.1243L15.8975 12.4801L12.2533 8.83588L11.2091 9.88008L13.0591 11.7301H8.5033V13.2301H13.0591L11.2091 15.0801L12.2533 16.1243ZM12.2549 21.9801C10.941 21.9801 9.70598 21.7307 8.54985 21.2321C7.3937 20.7334 6.38801 20.0566 5.5328 19.2018C4.67756 18.347 4.0005 17.3417 3.50162 16.1861C3.00274 15.0305 2.7533 13.7957 2.7533 12.4818C2.7533 11.1678 3.00263 9.93279 3.5013 8.77665C3.99996 7.6205 4.67671 6.61482 5.53155 5.7596C6.3864 4.90437 7.39164 4.22731 8.54727 3.72843C9.70289 3.22955 10.9377 2.9801 12.2516 2.9801C13.5655 2.9801 14.8006 3.22944 15.9567 3.7281C17.1128 4.22677 18.1185 4.90352 18.9737 5.75835C19.829 6.6132 20.506 7.61845 21.0049 8.77408C21.5038 9.9297 21.7532 11.1645 21.7532 12.4784C21.7532 13.7923 21.5039 15.0274 21.0052 16.1835C20.5066 17.3397 19.8298 18.3453 18.975 19.2006C18.1201 20.0558 17.1149 20.7328 15.9593 21.2317C14.8037 21.7306 13.5689 21.9801 12.2549 21.9801ZM12.2533 20.4801C14.4866 20.4801 16.3783 19.7051 17.9283 18.1551C19.4783 16.6051 20.2533 14.7134 20.2533 12.4801C20.2533 10.2467 19.4783 8.35508 17.9283 6.80508C16.3783 5.25508 14.4866 4.48008 12.2533 4.48008C10.0199 4.48008 8.12827 5.25508 6.57827 6.80508C5.02827 8.35508 4.25327 10.2467 4.25327 12.4801C4.25327 14.7134 5.02827 16.6051 6.57827 18.1551C8.12827 19.7051 10.0199 20.4801 12.2533 20.4801Z" fill="#1C1B1F"/>
</g>
</svg>
