<svg width="25" height="25" viewBox="0 0 25 25" fill="none" xmlns="http://www.w3.org/2000/svg">
<mask id="mask0_815_43" style="mask-type:alpha" maskUnits="userSpaceOnUse" x="0" y="0" width="25" height="25">
<rect x="0.5" y="0.125" width="24" height="24" fill="#D9D9D9"/>
</mask>
<g mask="url(#mask0_815_43)">
<path d="M3.75 20.7019V7.2019H7.75V3.2019H17.25V11.2019H21.25V20.7019H13.75V16.7019H11.25V20.7019H3.75ZM5.24995 19.2019H7.75V16.7019H5.24995V19.2019ZM5.24995 15.2019H7.75V12.7019H5.24995V15.2019ZM5.24995 11.2019H7.75V8.70188H5.24995V11.2019ZM9.24995 15.2019H11.75V12.7019H9.24995V15.2019ZM9.24995 11.2019H11.75V8.70188H9.24995V11.2019ZM9.24995 7.2019H11.75V4.70188H9.24995V7.2019ZM13.25 15.2019H15.75V12.7019H13.25V15.2019ZM13.25 11.2019H15.75V8.70188H13.25V11.2019ZM13.25 7.2019H15.75V4.70188H13.25V7.2019ZM17.25 19.2019H19.75V16.7019H17.25V19.2019ZM17.25 15.2019H19.75V12.7019H17.25V15.2019Z" fill="#1C1B1F"/>
</g>
</svg>
