<svg width="25" height="25" viewBox="0 0 25 25" fill="none" xmlns="http://www.w3.org/2000/svg">
<mask id="mask0_815_151" style="mask-type:alpha" maskUnits="userSpaceOnUse" x="0" y="0" width="25" height="25">
<rect x="0.5" y="0.125" width="24" height="24" fill="#D9D9D9"/>
</mask>
<g mask="url(#mask0_815_151)">
<path d="M14.5 21.625V18.8923L18.0923 15.3L20.8345 18.0327L17.2422 21.625H14.5ZM21.8846 16.973L19.1423 14.2404L19.8865 13.5058C20.057 13.3417 20.2695 13.2596 20.524 13.2596C20.7785 13.2596 20.9878 13.3417 21.1519 13.5058L22.6288 14.9827C22.7929 15.1468 22.8749 15.356 22.8749 15.6105C22.8749 15.865 22.7929 16.0775 22.6288 16.248L21.8846 16.973ZM9.6923 8.81725V7.3173H18.3077V8.81725H9.6923ZM9.6923 11.7019V10.2019H18.3077V11.7019H9.6923ZM6.49997 21.625C5.80127 21.625 5.20993 21.383 4.72595 20.899C4.24198 20.415 4 19.8237 4 19.125V16.2404H7V2.625H21V11.1288C20.75 11.0775 20.4974 11.0638 20.2423 11.0875C19.9871 11.1112 19.7397 11.1705 19.5 11.2654V4.12498H8.49997V16.2404H14.0576L12.3077 17.9904V21.625H6.49997Z" fill="#1C1B1F"/>
</g>
</svg>
