<svg width="25" height="25" viewBox="0 0 25 25" fill="none" xmlns="http://www.w3.org/2000/svg">
<mask id="mask0_808_49" style="mask-type:alpha" maskUnits="userSpaceOnUse" x="0" y="0" width="25" height="25">
<rect x="0.5" y="0.6875" width="24" height="24" fill="#D9D9D9"/>
</mask>
<g mask="url(#mask0_808_49)">
<path d="M11.75 20.2567V13.1182L5.49997 9.499V16.4644C5.49997 16.5157 5.5128 16.5638 5.53845 16.6086C5.56408 16.6535 5.60254 16.692 5.65383 16.724L11.75 20.2567ZM13.25 20.2567L19.3461 16.724C19.3974 16.692 19.4359 16.6535 19.4615 16.6086C19.4872 16.5638 19.5 16.5157 19.5 16.4644V9.499L13.25 13.1182V20.2567ZM12.5 11.8259L18.675 8.25672L12.6538 4.77402C12.6025 4.74197 12.5513 4.72595 12.5 4.72595C12.4487 4.72595 12.3974 4.74197 12.3461 4.77402L6.32495 8.25672L12.5 11.8259ZM4.90385 18.0413C4.61923 17.8772 4.39744 17.658 4.23847 17.3836C4.07949 17.1092 4 16.808 4 16.4798V8.89517C4 8.56697 4.07949 8.2657 4.23847 7.99135C4.39744 7.71698 4.61923 7.49775 4.90385 7.33365L11.5961 3.48175C11.8807 3.31765 12.182 3.2356 12.5 3.2356C12.8179 3.2356 13.1192 3.31765 13.4038 3.48175L20.0961 7.33365C20.3807 7.49775 20.6025 7.71698 20.7615 7.99135C20.9205 8.2657 21 8.56697 21 8.89517V16.4798C21 16.808 20.9205 17.1092 20.7615 17.3836C20.6025 17.658 20.3807 17.8772 20.0961 18.0413L13.4038 21.8932C13.1192 22.0573 12.8179 22.1393 12.5 22.1393C12.182 22.1393 11.8807 22.0573 11.5961 21.8932L4.90385 18.0413Z" fill="#1C1B1F"/>
</g>
</svg>
