<svg width="25" height="25" viewBox="0 0 25 25" fill="none" xmlns="http://www.w3.org/2000/svg">
<mask id="mask0_812_19" style="mask-type:alpha" maskUnits="userSpaceOnUse" x="0" y="0" width="25" height="25">
<rect x="0.5" y="0.75" width="24" height="24" fill="#D9D9D9"/>
</mask>
<g mask="url(#mask0_812_19)">
<path d="M5.8077 22.25C5.30257 22.25 4.875 22.075 4.525 21.725C4.175 21.375 4 20.9474 4 20.4423V7.05772C4 6.55259 4.175 6.12502 4.525 5.77502C4.875 5.42502 5.30257 5.25002 5.8077 5.25002H7.19232V3.13464H8.73075V5.25002H16.3077V3.13464H17.8076V5.25002H19.1922C19.6974 5.25002 20.125 5.42502 20.475 5.77502C20.825 6.12502 21 6.55259 21 7.05772V12.9038H19.5V11.0577H5.49997V20.4423C5.49997 20.5192 5.53202 20.5897 5.59612 20.6538C5.66024 20.7179 5.73077 20.75 5.8077 20.75H12.6442V22.25H5.8077ZM19.5 24.5961C18.3602 24.5961 17.357 24.2458 16.4904 23.5452C15.6237 22.8445 15.0609 21.9641 14.8019 20.9038H16.0442C16.2865 21.6436 16.7182 22.2452 17.3394 22.7087C17.9606 23.1721 18.6807 23.4038 19.5 23.4038C20.5115 23.4038 21.3734 23.0478 22.0856 22.3356C22.7977 21.6234 23.1538 20.7615 23.1538 19.75C23.1538 18.7384 22.7977 17.8766 22.0856 17.1644C21.3734 16.4522 20.5115 16.0961 19.5 16.0961C18.9525 16.0961 18.4352 16.2141 17.948 16.45C17.4608 16.6859 17.0365 17.0038 16.675 17.4038H18.3461V18.5961H14.6538V14.9038H15.8461V16.5404C16.3089 16.0494 16.8564 15.6539 17.4884 15.3538C18.1205 15.0538 18.791 14.9038 19.5 14.9038C20.8384 14.9038 21.9807 15.3769 22.9269 16.3231C23.8731 17.2692 24.3461 18.4115 24.3461 19.75C24.3461 21.0884 23.8731 22.2308 22.9269 23.1769C21.9807 24.1231 20.8384 24.5961 19.5 24.5961ZM5.49997 9.55774H19.5V7.05772C19.5 6.98079 19.4679 6.91026 19.4038 6.84614C19.3397 6.78204 19.2692 6.74999 19.1922 6.74999H5.8077C5.73077 6.74999 5.66024 6.78204 5.59612 6.84614C5.53202 6.91026 5.49997 6.98079 5.49997 7.05772V9.55774Z" fill="#1C1B1F"/>
</g>
</svg>
