<svg width="25" height="25" viewBox="0 0 25 25" fill="none" xmlns="http://www.w3.org/2000/svg">
<mask id="mask0_810_19" style="mask-type:alpha" maskUnits="userSpaceOnUse" x="0" y="0" width="25" height="25">
<rect x="0.5" y="0.6875" width="24" height="24" fill="#D9D9D9"/>
</mask>
<g mask="url(#mask0_810_19)">
<path d="M6.49999 21.3028C5.50578 21.3028 4.65466 20.9488 3.94664 20.2408C3.23864 19.5328 2.88464 18.6817 2.88464 17.6875C2.88464 16.6933 3.23864 15.8422 3.94664 15.1341C4.65466 14.4261 5.50578 14.0721 6.49999 14.0721C7.49421 14.0721 8.34533 14.4261 9.05334 15.1341C9.76134 15.8422 10.1153 16.6933 10.1153 17.6875C10.1153 18.6817 9.76134 19.5328 9.05334 20.2408C8.34533 20.9488 7.49421 21.3028 6.49999 21.3028ZM18.5 21.3028C17.5058 21.3028 16.6547 20.9488 15.9466 20.2408C15.2386 19.5328 14.8846 18.6817 14.8846 17.6875C14.8846 16.6933 15.2386 15.8422 15.9466 15.1341C16.6547 14.4261 17.5058 14.0721 18.5 14.0721C19.4942 14.0721 20.3453 14.4261 21.0533 15.1341C21.7613 15.8422 22.1153 16.6933 22.1153 17.6875C22.1153 18.6817 21.7613 19.5328 21.0533 20.2408C20.3453 20.9488 19.4942 21.3028 18.5 21.3028ZM12.5 11.3028C11.5058 11.3028 10.6547 10.9488 9.94664 10.2408C9.23864 9.53283 8.88464 8.68171 8.88464 7.68749C8.88464 6.69328 9.23864 5.84216 9.94664 5.13414C10.6547 4.42614 11.5058 4.07214 12.5 4.07214C13.4942 4.07214 14.3453 4.42614 15.0533 5.13414C15.7613 5.84216 16.1153 6.69328 16.1153 7.68749C16.1153 8.68171 15.7613 9.53283 15.0533 10.2408C14.3453 10.9488 13.4942 11.3028 12.5 11.3028Z" fill="#1C1B1F"/>
</g>
</svg>
