<svg width="25" height="25" viewBox="0 0 25 25" fill="none" xmlns="http://www.w3.org/2000/svg">
<mask id="mask0_808_55" style="mask-type:alpha" maskUnits="userSpaceOnUse" x="0" y="0" width="25" height="25">
<rect x="0.5" y="0.6875" width="24" height="24" fill="#D9D9D9"/>
</mask>
<g mask="url(#mask0_808_55)">
<path d="M6.49999 21.3028C5.50578 21.3028 4.65466 20.9488 3.94664 20.2408C3.23864 19.5328 2.88464 18.6817 2.88464 17.6875C2.88464 16.6933 3.23864 15.8422 3.94664 15.1341C4.65466 14.4261 5.50578 14.0721 6.49999 14.0721C7.49421 14.0721 8.34533 14.4261 9.05334 15.1341C9.76134 15.8422 10.1153 16.6933 10.1153 17.6875C10.1153 18.6817 9.76134 19.5328 9.05334 20.2408C8.34533 20.9488 7.49421 21.3028 6.49999 21.3028ZM18.5 21.3028C17.5058 21.3028 16.6547 20.9488 15.9466 20.2408C15.2386 19.5328 14.8846 18.6817 14.8846 17.6875C14.8846 16.6933 15.2386 15.8422 15.9466 15.1341C16.6547 14.4261 17.5058 14.0721 18.5 14.0721C19.4942 14.0721 20.3453 14.4261 21.0533 15.1341C21.7613 15.8422 22.1153 16.6933 22.1153 17.6875C22.1153 18.6817 21.7613 19.5328 21.0533 20.2408C20.3453 20.9488 19.4942 21.3028 18.5 21.3028ZM6.50034 19.8029C7.08216 19.8029 7.58012 19.5957 7.99422 19.1814C8.40834 18.7671 8.61539 18.269 8.61539 17.6871C8.61539 17.1053 8.40823 16.6074 7.99389 16.1933C7.57956 15.7792 7.08148 15.5721 6.49964 15.5721C5.91783 15.5721 5.41987 15.7793 5.00577 16.1936C4.59165 16.6079 4.38459 17.106 4.38459 17.6878C4.38459 18.2697 4.59176 18.7676 5.00609 19.1817C5.42043 19.5958 5.91851 19.8029 6.50034 19.8029ZM18.5003 19.8029C19.0822 19.8029 19.5801 19.5957 19.9942 19.1814C20.4083 18.7671 20.6154 18.269 20.6154 17.6871C20.6154 17.1053 20.4082 16.6074 19.9939 16.1933C19.5796 15.7792 19.0815 15.5721 18.4996 15.5721C17.9178 15.5721 17.4199 15.7793 17.0058 16.1936C16.5917 16.6079 16.3846 17.106 16.3846 17.6878C16.3846 18.2697 16.5918 18.7676 17.0061 19.1817C17.4204 19.5958 17.9185 19.8029 18.5003 19.8029ZM12.5 11.3028C11.5058 11.3028 10.6547 10.9488 9.94664 10.2408C9.23864 9.53283 8.88464 8.68171 8.88464 7.68749C8.88464 6.69328 9.23864 5.84216 9.94664 5.13414C10.6547 4.42614 11.5058 4.07214 12.5 4.07214C13.4942 4.07214 14.3453 4.42614 15.0533 5.13414C15.7613 5.84216 16.1153 6.69328 16.1153 7.68749C16.1153 8.68171 15.7613 9.53283 15.0533 10.2408C14.3453 10.9488 13.4942 11.3028 12.5 11.3028ZM12.5003 9.80289C13.0822 9.80289 13.5801 9.59573 13.9942 9.18139C14.4083 8.76706 14.6154 8.26898 14.6154 7.68714C14.6154 7.10533 14.4082 6.60737 13.9939 6.19327C13.5796 5.77915 13.0815 5.57209 12.4996 5.57209C11.9178 5.57209 11.4199 5.77926 11.0058 6.19359C10.5917 6.60793 10.3846 7.10601 10.3846 7.68784C10.3846 8.26966 10.5918 8.76762 11.0061 9.18172C11.4204 9.59584 11.9185 9.80289 12.5003 9.80289Z" fill="#1C1B1F"/>
</g>
</svg>
