<svg width="100" height="40" viewBox="0 0 100 40" fill="none" xmlns="http://www.w3.org/2000/svg">
<path d="M50.5721 9.55774H44.6704V37.3993H50.5721V9.55774Z" fill="#003366"/>
<path d="M91.7196 9.63963H89.5884H85.9272H83.7961L76.3371 34.7489L71.4464 27.8637C73.6595 27.044 75.0256 24.5303 75.0256 22.0167V14.9129C75.0256 11.7161 72.9491 9.6123 69.7524 9.6123H60.6813H54.5065V37.4812H60.2442V28.1915H65.8999L71.8289 37.4812H78.2496H78.195H81.3097L87.7305 15.7052L90.9819 26.5522H87.7305L85.4627 31.7435H92.43L94.1513 37.4812H99.9709L91.7196 9.63963ZM69.807 19.8855C69.807 21.4976 68.9054 23.3008 67.2114 23.3008H60.2442V14.8036L60.3535 14.8309H67.2114C68.9054 14.8309 69.807 15.7598 69.807 17.3719V19.8855Z" fill="#003366"/>
<path d="M40.3808 31.4976V9.55774H34.6704V30.2135C34.6704 33.4648 33.1404 33.7107 32.7579 33.8474C32.0475 34.1206 30.818 34.2845 30.818 34.2845L32.1841 39.2299C41.3918 38.984 40.3808 31.4976 40.3808 31.4976Z" fill="#003366"/>
<path d="M20.2169 23.7927C28.6322 15.514 28.3589 9.66701 28.3589 9.66701C28.3589 8.27356 27.1567 9.03859 27.1567 9.03859C24.9163 10.8419 21.6923 10.8965 21.6923 10.8965C20.7633 14.9129 15.6813 19.9129 14.3972 21.1151C13.5229 20.3227 7.89445 15.0495 6.91085 10.7872C6.91085 10.7872 3.6868 10.7872 1.44637 8.98395C1.44637 8.98395 0.24418 8.27356 0.24418 9.63968C0.24418 9.63968 -0.0290453 15.2954 8.38626 23.5468C16.8016 31.8255 17.7578 35.2681 17.2934 37.4539H23.4136C23.4136 37.4539 23.7688 31.1151 18.7688 25.1042C19.2606 24.7217 19.7251 24.2845 20.2169 23.7927Z" fill="#003366"/>
<path d="M13.2223 31.7707C12.1294 30.3773 10.6813 28.7106 8.76876 26.7708C4.86166 32.3992 5.1622 37.9456 5.1622 37.9456H11.2824C11.0365 36.4975 11.2551 34.6942 13.2223 31.7707Z" fill="#003366"/>
<path d="M11.2278 11.3336H17.2933C17.2933 11.3336 18.0857 11.2243 17.8944 12.2626C17.6212 13.7653 14.3425 16.7708 14.3425 16.7708C14.3425 16.7708 11.9381 14.5577 10.8726 12.4538C10.8999 12.4812 10.4627 11.3336 11.2278 11.3336Z" fill="#003366"/>
<path d="M24.971 5.04944C24.971 6.52485 23.7961 7.69971 22.3207 7.69971C20.8453 7.69971 19.6704 6.52485 19.6704 5.04944C19.6704 3.57403 20.8453 2.39917 22.3207 2.39917C23.7688 2.39917 24.971 3.60135 24.971 5.04944Z" fill="#003366"/>
<path d="M9.34254 5.04944C9.34254 6.52485 8.16767 7.69971 6.69226 7.69971C5.21685 7.69971 4.04199 6.52485 4.04199 5.04944C4.04199 3.57403 5.21685 2.39917 6.69226 2.39917C8.16767 2.39917 9.34254 3.60135 9.34254 5.04944Z" fill="#003366"/>
<path d="M17.3207 2.91834C17.3207 4.39375 16.1458 5.56862 14.6704 5.56862C13.195 5.56862 12.0201 4.39375 12.0201 2.91834C12.0201 1.44293 13.195 0.268066 14.6704 0.268066C16.1458 0.268066 17.3207 1.44293 17.3207 2.91834Z" fill="#003366"/>
</svg>
