<svg width="209" height="108" viewBox="0 0 209 108" fill="none" xmlns="http://www.w3.org/2000/svg">
<path fill-rule="evenodd" clip-rule="evenodd" d="M91.22 73.017C87.036 73.017 83.642 72.297 80.737 70.906L81.62 64.225C84.688 65.732 88.151 66.452 91.057 66.452C93.172 66.452 94.567 65.732 94.567 64.457C94.567 60.791 81.341 61.673 81.341 52.092C81.341 45.968 86.966 42.743 94.009 42.743C97.519 42.743 101.144 43.694 103.492 44.529L102.539 51.094C100.075 50.144 96.729 49.262 93.939 49.262C92.219 49.262 90.824 49.865 90.824 50.978C90.824 54.598 104.329 53.878 104.329 63.228C104.329 69.444 98.797 73.017 91.219 73.017H91.22ZM127.782 72.39V55.85C127.782 52.069 126.108 50.282 122.924 50.282C121.366 50.282 119.739 50.723 118.624 51.396V72.39H108.814V43.717L118.414 42.929L118.182 47.615H118.507C120.576 44.831 124.086 42.72 128.27 42.72C133.29 42.72 137.637 45.828 137.637 53.182V72.39H127.782V72.39ZM192.608 72.39L184.752 58.75H183.962V72.39H174.152V38.428L183.962 23.118V54.806C185.914 52.416 192.492 43.346 192.492 43.346H204.602L193.119 55.48L204.997 72.415H192.607V72.391L192.608 72.39ZM161.438 43.439L157.418 56.523C156.627 58.982 155.86 63.505 155.86 63.505C155.86 63.505 155.255 58.819 154.419 56.36L150.119 43.439H139.124L151.072 72.39C149.445 76.241 146.934 79.489 143.587 79.489C142.983 79.489 142.379 79.466 141.797 79.396L137.893 85.428C139.124 86.124 141.472 86.843 144.261 86.843C151.513 86.843 156.371 80.973 159.765 72.298L171.155 43.439H161.438V43.439Z" fill="#0D1F31"/>
<path fill-rule="evenodd" clip-rule="evenodd" d="M28.714 29.053L29.384 30.157C31.174 29.657 33.414 29.211 35.699 29.211C37.992 29.211 40.243 29.659 42.041 30.16L42.714 29.055L43.429 24.055C38.2893 23.7538 33.1364 23.7558 27.997 24.061L28.714 29.053V29.053Z" fill="#DBDBDB"/>
<path fill-rule="evenodd" clip-rule="evenodd" d="M50.429 67.453H35.65V42.557L20.655 66.725L18.323 91.542L35.42 103.828L35.651 103.994L53.135 91.454L50.43 67.454L50.429 67.453Z" fill="#3B3B63"/>
<path fill-rule="evenodd" clip-rule="evenodd" d="M42.041 30.16L42.714 29.056L43.429 24.056C41.029 23.916 38.474 23.832 35.759 23.832H35.716V29.212C38.005 29.214 40.248 29.66 42.041 30.16V30.16ZM60.997 26.454C61.554 28.288 61.9 29.928 61.9 31.177V31.859L58.292 41.639C60.14 58.567 59.312 60.696 58.997 61.502C58.814 61.976 58.269 63.376 54.77 68.036L57.001 88.728L67.413 81.262V28.255C67.413 28.255 65.183 27.407 60.997 26.454Z" fill="#C6C6C6"/>
<path fill-rule="evenodd" clip-rule="evenodd" d="M53.204 91.403L50.504 67.453H35.724V103.94L53.204 91.404V91.403Z" fill="#3B3B63"/>
<path fill-rule="evenodd" clip-rule="evenodd" d="M18.323 91.542L35.65 103.994V42.557L20.655 66.725L18.323 91.542V91.542Z" fill="#53537A"/>
<path fill-rule="evenodd" clip-rule="evenodd" d="M43.107 84.468C43.107 88.574 39.273 90.61 35.755 90.61C32.238 90.61 28.326 88.574 28.326 84.468" fill="#BC9375"/>
<path fill-rule="evenodd" clip-rule="evenodd" d="M40.952 82.14C40.952 86.957 38.359 88.248 35.716 88.248C33.074 88.248 30.481 86.957 30.481 82.141" fill="#083251"/>
<path fill-rule="evenodd" clip-rule="evenodd" d="M35.716 86.592C32.893 86.592 31.519 84.519 31.519 80.259H32.866C32.866 85.247 34.791 85.247 35.716 85.247C36.642 85.247 38.567 85.247 38.567 80.259H39.913C39.913 84.519 38.54 86.592 35.716 86.592Z" fill="white"/>
<path fill-rule="evenodd" clip-rule="evenodd" d="M58.132 31.177C58.132 25.982 49.355 9.636 49.355 9.636L46.385 30.366L43.72 34.743L35.733 35.067L35.702 35.132V35.067L27.713 34.743L25.049 30.366L22.079 9.636C22.079 9.636 13.301 25.982 13.301 31.176L17.01 41.159C17.01 41.159 15.138 57.927 15.993 60.122C16.845 62.318 22.761 69.661 22.761 69.661C22.761 69.661 22.744 75.834 24.364 80.271C25.52 83.441 28.066 84.726 30.504 84.726C34.239 84.726 35.701 81.299 35.701 81.299C35.701 81.299 37.197 84.726 40.931 84.726C43.37 84.726 45.914 83.443 47.072 80.272C48.69 75.835 48.674 69.661 48.674 69.661C48.674 69.661 54.59 62.318 55.444 60.122C56.297 57.926 54.425 41.159 54.425 41.159L58.132 31.177V31.177Z" fill="#C49A7E"/>
<path fill-rule="evenodd" clip-rule="evenodd" d="M35.716 35.1L35.701 35.132V35.068L27.713 34.743L25.049 30.366L22.079 9.636C22.079 9.636 13.3 25.982 13.3 31.177L17.007 41.16C17.007 41.16 15.137 57.927 15.99 60.123C16.843 62.318 22.758 69.661 22.758 69.661C22.758 69.661 22.742 75.834 24.361 80.272C25.518 83.442 28.065 84.727 30.501 84.727C34.238 84.727 35.699 81.299 35.699 81.299L35.716 81.334V35.1Z" fill="#D8B7A0"/>
<path fill-rule="evenodd" clip-rule="evenodd" d="M54.505 42.142C53.825 40.718 54.792 37.348 54.792 37.348C49.249 31.665 47.862 19.814 47.862 19.814C46.828 23.548 44.578 34.558 44.578 34.558C44.578 34.558 40.441 33.018 35.735 33.01H35.7C35.441 33.011 35.187 33.018 34.932 33.026V79.484L35.284 79.999V79.745H35.501V79.999L35.503 79.745H35.933V79.999V79.745H36.152V79.999L39.983 74.402L40.816 58.688L45.586 64.13L51.733 65.926C51.733 65.926 54.032 64.286 54.032 64.293C55.008 62.925 55.332 61.761 55.568 61.156C56.422 58.958 54.505 42.142 54.505 42.142Z" fill="#3B3B63"/>
<path fill-rule="evenodd" clip-rule="evenodd" d="M35.76 33.01L35.743 33.009C31.035 33.017 26.898 34.557 26.898 34.557C26.898 34.557 24.648 23.547 23.613 19.813C23.613 19.813 22.228 31.664 16.683 37.347C16.683 37.347 17.651 40.717 16.971 42.141C16.971 42.141 15.054 58.958 15.908 61.153C16.143 61.758 16.47 62.922 17.445 64.289C17.445 64.283 19.745 65.923 19.745 65.923L25.89 64.127L30.66 58.685L31.495 74.4L35.325 79.996V79.742H35.544V79.996V79.742H35.759V33.009L35.76 33.01Z" fill="#53537A"/>
<path fill-rule="evenodd" clip-rule="evenodd" d="M46.868 52.66H39.688V52.736C39.688 55.241 41.856 57.271 44.399 57.271C46.943 57.271 49.111 55.241 49.111 52.736V52.66H46.868V52.66Z" fill="#333152"/>
<path fill-rule="evenodd" clip-rule="evenodd" d="M41.483 52.66V52.736C41.483 53.4502 41.7667 54.1352 42.2718 54.6402C42.7768 55.1453 43.4618 55.429 44.176 55.429C44.8902 55.429 45.5752 55.1453 46.0802 54.6402C46.5853 54.1352 46.869 53.4502 46.869 52.736V52.66H41.483Z" fill="white"/>
<path fill-rule="evenodd" clip-rule="evenodd" d="M45.007 52.66H43.745C43.733 52.66 43.722 52.666 43.711 52.669C43.868 52.702 43.954 53.056 43.921 53.292C43.8961 53.4628 43.8108 53.619 43.6805 53.7322C43.5502 53.8454 43.3836 53.9082 43.211 53.909C43.313 54.38 43.698 54.759 44.208 54.831C44.3627 54.8539 44.5205 54.8461 44.6722 54.8079C44.8239 54.7697 44.9665 54.7019 45.092 54.6084C45.2174 54.515 45.3231 54.3976 45.4031 54.2632C45.4831 54.1288 45.5357 53.9798 45.558 53.825C45.624 53.345 45.393 52.66 45.007 52.66V52.66Z" fill="#333152"/>
<path fill-rule="evenodd" clip-rule="evenodd" d="M29.537 52.66H22.357V52.736C22.357 55.241 24.526 57.271 27.069 57.271C29.612 57.271 31.781 55.241 31.781 52.736V52.66H29.537V52.66Z" fill="#333152"/>
<path fill-rule="evenodd" clip-rule="evenodd" d="M24.153 52.66V52.736C24.153 53.45 24.4366 54.1347 24.9415 54.6395C25.4463 55.1444 26.131 55.428 26.845 55.428C27.5589 55.428 28.2437 55.1444 28.7485 54.6395C29.2534 54.1347 29.537 53.45 29.537 52.736V52.66H24.153Z" fill="white"/>
<path fill-rule="evenodd" clip-rule="evenodd" d="M27.676 52.66H26.413C26.403 52.66 26.39 52.666 26.38 52.669C26.536 52.702 26.622 53.056 26.59 53.292C26.5652 53.4632 26.4797 53.6198 26.3489 53.7331C26.2182 53.8464 26.051 53.9089 25.878 53.909C25.982 54.38 26.367 54.759 26.877 54.831C27.0316 54.8538 27.1892 54.8458 27.3407 54.8075C27.4922 54.7693 27.6347 54.7014 27.7599 54.608C27.8852 54.5145 27.9907 54.3972 28.0705 54.2629C28.1503 54.1285 28.2028 53.9797 28.225 53.825C28.293 53.345 28.062 52.66 27.676 52.66V52.66Z" fill="#333152"/>
<path fill-rule="evenodd" clip-rule="evenodd" d="M46.327 50.522C46.628 50.192 49.187 47.291 45.764 47.291C42.671 47.291 40.446 49.784 39.856 50.521H46.326L46.327 50.522Z" fill="#C49A7E"/>
<path fill-rule="evenodd" clip-rule="evenodd" d="M31.562 50.522C30.973 49.784 28.748 47.291 25.654 47.291C22.233 47.291 24.792 50.191 25.092 50.521H31.562V50.522Z" fill="#D8B7A0"/>
<path fill-rule="evenodd" clip-rule="evenodd" d="M20.706 51.404H33.8V52.634H20.706V51.404Z" fill="#53537A"/>
<path fill-rule="evenodd" clip-rule="evenodd" d="M59.882 31.22C59.882 25.733 51.832 10.546 50.913 8.832L48.34 4.02L44.654 29.792L42.952 32.591C41.31 32.04 38.514 31.271 35.699 31.271C32.888 31.271 30.111 32.037 28.475 32.589L26.773 29.791L25.479 20.757C25.4809 20.7424 25.4823 20.7277 25.483 20.713L25.473 20.712L23.081 4.02L20.454 8.832C19.533 10.546 11.419 25.732 11.419 31.22V31.542L15.134 41.427C14.54 46.817 13.406 58.525 14.297 60.813C14.852 62.243 16.989 65.198 18.796 67.566L16.362 90.226L19.712 92.588L21.484 76.104C21.738 77.707 22.114 79.4 22.671 80.929C23.44 83.036 24.798 84.632 26.537 85.579C26.64 90.623 31.334 93.344 35.755 93.344C40.141 93.344 44.795 90.621 44.897 85.574C46.632 84.629 47.989 83.034 48.757 80.929C49.337 79.339 49.717 77.567 49.971 75.909L51.753 92.452L55.103 90.006L52.676 67.497C54.469 65.14 56.565 62.229 57.115 60.814C58.005 58.526 56.825 46.817 56.232 41.428L59.882 31.542V31.22V31.22ZM15.107 30.928C15.311 28.082 18.275 21.262 21.102 15.515L21.856 20.77C21.568 22.735 20.255 30.44 16.731 35.297L15.107 30.927V30.928ZM35.755 89.757C33.785 89.757 30.983 88.879 30.286 86.553C30.358 86.555 30.428 86.561 30.501 86.561C30.881 86.561 31.238 86.526 31.583 86.477C32.583 87.867 34.14 88.294 35.717 88.294C37.297 88.294 38.857 87.871 39.858 86.479C40.201 86.526 40.554 86.561 40.931 86.561C41.006 86.561 41.077 86.555 41.151 86.553C40.461 88.879 37.697 89.757 35.755 89.757V89.757ZM33.482 85.933C33.9387 85.7313 34.3725 85.4812 34.776 85.187C35.125 85.289 35.46 85.289 35.716 85.289C35.972 85.289 36.303 85.292 36.649 85.189C37.0541 85.4812 37.4884 85.7305 37.945 85.933C37.344 86.383 36.603 86.635 35.718 86.635C34.828 86.635 34.084 86.385 33.482 85.933V85.933ZM53.77 59.516C53.25 60.85 49.66 65.618 47.275 68.578L46.877 69.075L46.879 69.708C46.879 69.765 46.877 75.61 45.385 79.7C44.306 82.656 41.91 82.975 40.931 82.975C38.453 82.975 37.384 80.705 37.346 80.624L37.204 78.498H34.192L34.056 80.612C34.013 80.708 32.97 82.969 30.504 82.969C29.523 82.969 27.128 82.653 26.048 79.697C24.561 75.622 24.554 69.765 24.554 69.706L24.556 69.073L24.158 68.578C21.775 65.62 18.184 60.852 17.677 59.55C17.272 58.142 17.941 49.034 18.793 41.402L18.839 40.978L18.167 39.171C20.477 36.753 22.097 33.425 23.214 30.257L23.324 31.028L26.991 37.048L28.423 36.433C28.459 36.418 32.133 34.856 35.702 34.856C39.247 34.856 42.982 36.419 43.017 36.435L44.447 37.044L48.11 31.027L48.254 30.022C49.36 33.221 50.978 36.608 53.299 39.08L52.595 40.977L52.642 41.4C53.493 49.034 54.162 58.142 53.77 59.516V59.516ZM54.742 35.193C50.935 29.847 49.741 21.155 49.637 20.361L50.332 15.516C53.159 21.262 56.125 28.082 56.328 30.928L54.742 35.193V35.193Z" fill="#333152"/>
<path fill-rule="evenodd" clip-rule="evenodd" d="M39.942 72.34H31.519C31.519 72.34 30.387 74.312 30.387 74.952C30.387 76.852 35.571 79.878 35.571 79.878C35.571 79.878 41.046 76.762 41.046 74.952C41.046 74.089 39.942 72.34 39.942 72.34Z" fill="#333152"/>
<path fill-rule="evenodd" clip-rule="evenodd" d="M38.318 78.133C37.848 77.301 37.242 77.149 36.964 77.791C36.687 78.433 36.845 79.628 37.314 80.458C37.784 81.29 38.391 81.442 38.668 80.8C38.947 80.159 38.788 78.963 38.318 78.133Z" fill="#C49A7E"/>
<path fill-rule="evenodd" clip-rule="evenodd" d="M33.115 78.133C32.645 78.963 32.488 80.159 32.765 80.8C33.042 81.442 33.647 81.29 34.119 80.458C34.589 79.628 34.746 78.433 34.469 77.791C34.191 77.149 33.585 77.301 33.115 78.133Z" fill="#D8B7A0"/>
<path fill-rule="evenodd" clip-rule="evenodd" d="M16.702 68.103C13.147 63.386 12.599 61.977 12.413 61.5C11.635 59.497 11.856 52.818 13.073 41.642L9.39999 31.865V31.177C9.39999 29.94 9.73999 28.317 10.298 26.494C6.20799 27.43 4.01999 28.254 4.01999 28.254V81.262L14.477 88.76L16.702 68.103V68.103Z" fill="#DBDBDB"/>
</svg>
