<svg width="309" height="143" viewBox="0 0 309 143" fill="none" xmlns="http://www.w3.org/2000/svg">
<g filter="url(#filter0_d_327_452)">
<g filter="url(#filter1_b_327_452)">
<mask id="path-1-inside-1_327_452" fill="white">
<path fill-rule="evenodd" clip-rule="evenodd" d="M14 0C8.47715 0 4 4.47715 4 10V125C4 130.523 8.47716 135 14 135H251.533C250.523 134.107 249.687 133.248 249.026 132.426C246.964 129.672 245.958 126.575 246.001 123.146C246.066 122.362 246.254 121.32 246.557 120.034C246.967 118.471 247.447 116.928 247.998 115.408C249.21 112.191 249.749 109.698 249.638 107.89C249.406 103.961 248.219 100.198 246.089 96.6017L254.749 88.3415C257.334 90.2854 260.425 91.4545 263.657 91.7108C266.832 91.9453 269.879 91.3553 272.837 89.9484C275.716 91.4037 278.774 91.9899 282.002 91.7108C285.522 91.4917 288.632 90.2466 291.361 88L300 96.2627C297.749 99.8092 296.469 103.677 296.113 107.89C295.94 109.753 296.469 112.335 297.668 115.662C298.927 119.076 299.622 121.581 299.749 123.148C299.796 126.645 298.757 129.757 296.621 132.52C295.948 133.308 295.119 134.135 294.134 135H295C300.523 135 305 130.523 305 125V10C305 4.47715 300.523 0 295 0H14Z"/>
</mask>
<path fill-rule="evenodd" clip-rule="evenodd" d="M14 0C8.47715 0 4 4.47715 4 10V125C4 130.523 8.47716 135 14 135H251.533C250.523 134.107 249.687 133.248 249.026 132.426C246.964 129.672 245.958 126.575 246.001 123.146C246.066 122.362 246.254 121.32 246.557 120.034C246.967 118.471 247.447 116.928 247.998 115.408C249.21 112.191 249.749 109.698 249.638 107.89C249.406 103.961 248.219 100.198 246.089 96.6017L254.749 88.3415C257.334 90.2854 260.425 91.4545 263.657 91.7108C266.832 91.9453 269.879 91.3553 272.837 89.9484C275.716 91.4037 278.774 91.9899 282.002 91.7108C285.522 91.4917 288.632 90.2466 291.361 88L300 96.2627C297.749 99.8092 296.469 103.677 296.113 107.89C295.94 109.753 296.469 112.335 297.668 115.662C298.927 119.076 299.622 121.581 299.749 123.148C299.796 126.645 298.757 129.757 296.621 132.52C295.948 133.308 295.119 134.135 294.134 135H295C300.523 135 305 130.523 305 125V10C305 4.47715 300.523 0 295 0H14Z" fill="url(#paint0_linear_327_452)" fill-opacity="0.5"/>
<path d="M251.533 135V136H254.174L252.196 134.251L251.533 135ZM249.026 132.426L248.226 133.025L248.236 133.038L248.247 133.051L249.026 132.426ZM246.001 123.146L245.005 123.064L245.002 123.099L245.001 123.133L246.001 123.146ZM246.557 120.034L245.59 119.78L245.586 119.793L245.583 119.805L246.557 120.034ZM247.998 115.408L247.062 115.056L247.057 115.068L247.998 115.408ZM249.638 107.89L248.64 107.949L248.64 107.951L249.638 107.89ZM246.089 96.6017L245.398 95.8781L244.823 96.4271L245.228 97.1115L246.089 96.6017ZM254.749 88.3415L255.351 87.5423L254.673 87.0327L254.059 87.6179L254.749 88.3415ZM263.657 91.7108L263.578 92.7077L263.583 92.7081L263.657 91.7108ZM272.837 89.9484L273.288 89.056L272.851 88.8347L272.408 89.0454L272.837 89.9484ZM282.002 91.7108L281.94 90.7128L281.928 90.7135L281.916 90.7146L282.002 91.7108ZM291.361 88L292.052 87.2773L291.411 86.6638L290.725 87.228L291.361 88ZM300 96.2627L300.844 96.7987L301.284 96.1066L300.691 95.5401L300 96.2627ZM296.113 107.89L297.109 107.982L297.109 107.974L296.113 107.89ZM297.668 115.662L296.727 116.001L296.73 116.008L297.668 115.662ZM299.749 123.148L300.748 123.135L300.748 123.101L300.745 123.068L299.749 123.148ZM296.621 132.52L297.381 133.169L297.397 133.151L297.412 133.131L296.621 132.52ZM294.134 135L293.474 134.249L291.48 136H294.134V135ZM5 10C5 5.02944 9.02944 1 14 1V-1C7.92487 -1 3 3.92487 3 10H5ZM5 125V10H3V125H5ZM14 134C9.02944 134 5 129.971 5 125H3C3 131.075 7.92488 136 14 136V134ZM251.533 134H14V136H251.533V134ZM248.247 133.051C248.951 133.929 249.829 134.828 250.871 135.749L252.196 134.251C251.216 133.385 250.423 132.568 249.806 131.8L248.247 133.051ZM245.001 123.133C244.955 126.783 246.031 130.094 248.226 133.025L249.827 131.826C247.896 129.249 246.96 126.368 247.001 123.159L245.001 123.133ZM245.583 119.805C245.277 121.108 245.075 122.207 245.005 123.064L246.998 123.227C247.056 122.517 247.232 121.531 247.53 120.263L245.583 119.805ZM247.057 115.068C246.497 116.616 246.007 118.188 245.59 119.78L247.524 120.288C247.926 118.754 248.398 117.24 248.938 115.749L247.057 115.068ZM248.64 107.951C248.737 109.544 248.26 111.875 247.062 115.056L248.933 115.761C250.16 112.506 250.76 109.852 250.637 107.829L248.64 107.951ZM245.228 97.1115C247.284 100.58 248.418 104.19 248.64 107.949L250.637 107.831C250.394 103.732 249.155 99.8157 246.949 96.0919L245.228 97.1115ZM254.059 87.6179L245.398 95.8781L246.779 97.3253L255.44 89.0652L254.059 87.6179ZM263.736 90.714C260.693 90.4726 257.783 89.3718 255.351 87.5423L254.148 89.1407C256.885 91.199 260.157 92.4364 263.578 92.7077L263.736 90.714ZM272.408 89.0454C269.6 90.3807 266.726 90.9347 263.73 90.7136L263.583 92.7081C266.938 92.9559 270.158 92.3299 273.267 90.8515L272.408 89.0454ZM281.916 90.7146C278.872 90.9777 276 90.4267 273.288 89.056L272.386 90.8409C275.432 92.3807 278.677 93.0021 282.088 92.7071L281.916 90.7146ZM290.725 87.228C288.156 89.3433 285.246 90.5069 281.94 90.7128L282.064 92.7089C285.799 92.4764 289.108 91.15 291.997 88.772L290.725 87.228ZM300.691 95.5401L292.052 87.2773L290.67 88.7227L299.309 96.9854L300.691 95.5401ZM297.109 107.974C297.453 103.917 298.681 100.205 300.844 96.7987L299.156 95.7268C296.816 99.413 295.486 103.436 295.116 107.805L297.109 107.974ZM298.609 115.323C297.421 112.026 296.957 109.617 297.109 107.982L295.117 107.797C294.923 109.888 295.518 112.643 296.727 116.001L298.609 115.323ZM300.745 123.068C300.606 121.352 299.867 118.734 298.606 115.316L296.73 116.008C297.988 119.418 298.637 121.81 298.752 123.229L300.745 123.068ZM297.412 133.131C299.686 130.19 300.799 126.857 300.748 123.135L298.749 123.162C298.793 126.433 297.827 129.324 295.83 131.908L297.412 133.131ZM294.794 135.751C295.806 134.862 296.67 134.002 297.381 133.169L295.86 131.87C295.225 132.614 294.432 133.407 293.474 134.249L294.794 135.751ZM295 134H294.134V136H295V134ZM304 125C304 129.971 299.971 134 295 134V136C301.075 136 306 131.075 306 125H304ZM304 10V125H306V10H304ZM295 1C299.971 1 304 5.02944 304 10H306C306 3.92487 301.075 -1 295 -1V1ZM14 1H295V-1H14V1Z" fill="#7B7B7B" mask="url(#path-1-inside-1_327_452)"/>
</g>
<path d="M29.854 35.161C28.796 35.161 27.8453 34.977 27.002 34.609C26.174 34.2257 25.5223 33.7043 25.047 33.045C24.5717 32.3703 24.3263 31.596 24.311 30.722H26.542C26.6187 31.4733 26.9253 32.1097 27.462 32.631C28.014 33.137 28.8113 33.39 29.854 33.39C30.8507 33.39 31.6327 33.1447 32.2 32.654C32.7827 32.148 33.074 31.504 33.074 30.722C33.074 30.1087 32.9053 29.6103 32.568 29.227C32.2307 28.8437 31.809 28.5523 31.303 28.353C30.797 28.1537 30.1147 27.939 29.256 27.709C28.198 27.433 27.347 27.157 26.703 26.881C26.0743 26.605 25.53 26.1757 25.07 25.593C24.6253 24.995 24.403 24.1977 24.403 23.201C24.403 22.327 24.6253 21.5527 25.07 20.878C25.5147 20.2033 26.1357 19.682 26.933 19.314C27.7457 18.946 28.6733 18.762 29.716 18.762C31.2187 18.762 32.4453 19.1377 33.396 19.889C34.362 20.6403 34.9063 21.637 35.029 22.879H32.729C32.6523 22.2657 32.3303 21.729 31.763 21.269C31.1957 20.7937 30.4443 20.556 29.509 20.556C28.635 20.556 27.922 20.786 27.37 21.246C26.818 21.6907 26.542 22.3193 26.542 23.132C26.542 23.7147 26.703 24.19 27.025 24.558C27.3623 24.926 27.7687 25.2097 28.244 25.409C28.7347 25.593 29.417 25.8077 30.291 26.053C31.349 26.3443 32.2 26.6357 32.844 26.927C33.488 27.203 34.04 27.64 34.5 28.238C34.96 28.8207 35.19 29.618 35.19 30.63C35.19 31.412 34.983 32.148 34.569 32.838C34.155 33.528 33.5417 34.0877 32.729 34.517C31.9163 34.9463 30.958 35.161 29.854 35.161ZM49.77 28.215C49.77 28.6137 49.747 29.0353 49.701 29.48H39.627C39.7037 30.722 40.1254 31.6957 40.892 32.401C41.674 33.091 42.617 33.436 43.721 33.436C44.6257 33.436 45.377 33.229 45.975 32.815C46.5884 32.3857 47.0177 31.8183 47.263 31.113H49.517C49.1797 32.3243 48.505 33.3133 47.493 34.08C46.481 34.8313 45.2237 35.207 43.721 35.207C42.525 35.207 41.4517 34.9387 40.501 34.402C39.5657 33.8653 38.8297 33.1063 38.293 32.125C37.7564 31.1283 37.488 29.9783 37.488 28.675C37.488 27.3717 37.7487 26.2293 38.27 25.248C38.7914 24.2667 39.5197 23.5153 40.455 22.994C41.4057 22.4573 42.4944 22.189 43.721 22.189C44.917 22.189 45.975 22.4497 46.895 22.971C47.815 23.4923 48.5204 24.213 49.011 25.133C49.517 26.0377 49.77 27.065 49.77 28.215ZM47.608 27.778C47.608 26.9807 47.4317 26.2983 47.079 25.731C46.7264 25.1483 46.2434 24.7113 45.63 24.42C45.032 24.1133 44.365 23.96 43.629 23.96C42.571 23.96 41.6664 24.2973 40.915 24.972C40.179 25.6467 39.7574 26.582 39.65 27.778H47.608ZM51.7507 28.675C51.7507 27.3717 52.0114 26.237 52.5327 25.271C53.0541 24.2897 53.7747 23.5307 54.6947 22.994C55.6301 22.4573 56.6957 22.189 57.8917 22.189C59.4404 22.189 60.7131 22.5647 61.7097 23.316C62.7217 24.0673 63.3887 25.11 63.7107 26.444H61.4567C61.2421 25.6773 60.8204 25.0717 60.1917 24.627C59.5784 24.1823 58.8117 23.96 57.8917 23.96C56.6957 23.96 55.7297 24.374 54.9937 25.202C54.2577 26.0147 53.8897 27.1723 53.8897 28.675C53.8897 30.193 54.2577 31.366 54.9937 32.194C55.7297 33.022 56.6957 33.436 57.8917 33.436C58.8117 33.436 59.5784 33.2213 60.1917 32.792C60.8051 32.3627 61.2267 31.7493 61.4567 30.952H63.7107C63.3734 32.24 62.6987 33.275 61.6867 34.057C60.6747 34.8237 59.4097 35.207 57.8917 35.207C56.6957 35.207 55.6301 34.9387 54.6947 34.402C53.7747 33.8653 53.0541 33.1063 52.5327 32.125C52.0114 31.1437 51.7507 29.9937 51.7507 28.675ZM77.6814 22.396V35H75.5884V33.137C75.1898 33.781 74.6301 34.287 73.9094 34.655C73.2041 35.0077 72.4221 35.184 71.5634 35.184C70.5821 35.184 69.7004 34.9847 68.9184 34.586C68.1364 34.172 67.5154 33.5587 67.0554 32.746C66.6108 31.9333 66.3884 30.9443 66.3884 29.779V22.396H68.4584V29.503C68.4584 30.745 68.7728 31.7033 69.4014 32.378C70.0301 33.0373 70.8888 33.367 71.9774 33.367C73.0968 33.367 73.9784 33.022 74.6224 32.332C75.2664 31.642 75.5884 30.6377 75.5884 29.319V22.396H77.6814ZM83.3083 24.443C83.6763 23.7223 84.1977 23.1627 84.8723 22.764C85.5623 22.3653 86.398 22.166 87.3793 22.166V24.328H86.8273C84.4813 24.328 83.3083 25.6007 83.3083 28.146V35H81.2153V22.396H83.3083V24.443ZM101.295 28.215C101.295 28.6137 101.272 29.0353 101.226 29.48H91.1524C91.2291 30.722 91.6507 31.6957 92.4174 32.401C93.1994 33.091 94.1424 33.436 95.2464 33.436C96.1511 33.436 96.9024 33.229 97.5004 32.815C98.1137 32.3857 98.5431 31.8183 98.7884 31.113H101.042C100.705 32.3243 100.03 33.3133 99.0184 34.08C98.0064 34.8313 96.7491 35.207 95.2464 35.207C94.0504 35.207 92.9771 34.9387 92.0264 34.402C91.0911 33.8653 90.3551 33.1063 89.8184 32.125C89.2817 31.1283 89.0134 29.9783 89.0134 28.675C89.0134 27.3717 89.2741 26.2293 89.7954 25.248C90.3167 24.2667 91.0451 23.5153 91.9804 22.994C92.9311 22.4573 94.0197 22.189 95.2464 22.189C96.4424 22.189 97.5004 22.4497 98.4204 22.971C99.3404 23.4923 100.046 24.213 100.536 25.133C101.042 26.0377 101.295 27.065 101.295 28.215ZM99.1334 27.778C99.1334 26.9807 98.9571 26.2983 98.6044 25.731C98.2517 25.1483 97.7687 24.7113 97.1554 24.42C96.5574 24.1133 95.8904 23.96 95.1544 23.96C94.0964 23.96 93.1917 24.2973 92.4404 24.972C91.7044 25.6467 91.2827 26.582 91.1754 27.778H99.1334ZM109.408 26.973C109.408 25.409 109.761 24.006 110.466 22.764C111.171 21.5067 112.13 20.5253 113.341 19.82C114.568 19.1147 115.925 18.762 117.412 18.762C119.16 18.762 120.686 19.1837 121.989 20.027C123.292 20.8703 124.243 22.0663 124.841 23.615H122.334C121.889 22.649 121.245 21.9053 120.402 21.384C119.574 20.8627 118.577 20.602 117.412 20.602C116.293 20.602 115.288 20.8627 114.399 21.384C113.51 21.9053 112.812 22.649 112.306 23.615C111.8 24.5657 111.547 25.685 111.547 26.973C111.547 28.2457 111.8 29.365 112.306 30.331C112.812 31.2817 113.51 32.0177 114.399 32.539C115.288 33.0603 116.293 33.321 117.412 33.321C118.577 33.321 119.574 33.068 120.402 32.562C121.245 32.0407 121.889 31.297 122.334 30.331H124.841C124.243 31.8643 123.292 33.0527 121.989 33.896C120.686 34.724 119.16 35.138 117.412 35.138C115.925 35.138 114.568 34.793 113.341 34.103C112.13 33.3977 111.171 32.424 110.466 31.182C109.761 29.94 109.408 28.537 109.408 26.973ZM133.454 35.207C132.273 35.207 131.2 34.9387 130.234 34.402C129.283 33.8653 128.532 33.1063 127.98 32.125C127.443 31.1283 127.175 29.9783 127.175 28.675C127.175 27.387 127.451 26.2523 128.003 25.271C128.57 24.2743 129.337 23.5153 130.303 22.994C131.269 22.4573 132.35 22.189 133.546 22.189C134.742 22.189 135.823 22.4573 136.789 22.994C137.755 23.5153 138.514 24.2667 139.066 25.248C139.633 26.2293 139.917 27.3717 139.917 28.675C139.917 29.9783 139.625 31.1283 139.043 32.125C138.475 33.1063 137.701 33.8653 136.72 34.402C135.738 34.9387 134.65 35.207 133.454 35.207ZM133.454 33.367C134.205 33.367 134.91 33.1907 135.57 32.838C136.229 32.4853 136.758 31.9563 137.157 31.251C137.571 30.5457 137.778 29.687 137.778 28.675C137.778 27.663 137.578 26.8043 137.18 26.099C136.781 25.3937 136.26 24.8723 135.616 24.535C134.972 24.1823 134.274 24.006 133.523 24.006C132.756 24.006 132.051 24.1823 131.407 24.535C130.778 24.8723 130.272 25.3937 129.889 26.099C129.505 26.8043 129.314 27.663 129.314 28.675C129.314 29.7023 129.498 30.5687 129.866 31.274C130.249 31.9793 130.755 32.5083 131.384 32.861C132.012 33.1983 132.702 33.367 133.454 33.367ZM148.809 22.166C150.343 22.166 151.585 22.6337 152.535 23.569C153.486 24.489 153.961 25.823 153.961 27.571V35H151.891V27.87C151.891 26.6127 151.577 25.6543 150.948 24.995C150.32 24.3203 149.461 23.983 148.372 23.983C147.268 23.983 146.387 24.328 145.727 25.018C145.083 25.708 144.761 26.7123 144.761 28.031V35H142.668V22.396H144.761V24.19C145.175 23.546 145.735 23.0477 146.44 22.695C147.161 22.3423 147.951 22.166 148.809 22.166ZM163.521 22.166C165.055 22.166 166.297 22.6337 167.247 23.569C168.198 24.489 168.673 25.823 168.673 27.571V35H166.603V27.87C166.603 26.6127 166.289 25.6543 165.66 24.995C165.032 24.3203 164.173 23.983 163.084 23.983C161.98 23.983 161.099 24.328 160.439 25.018C159.795 25.708 159.473 26.7123 159.473 28.031V35H157.38V22.396H159.473V24.19C159.887 23.546 160.447 23.0477 161.152 22.695C161.873 22.3423 162.663 22.166 163.521 22.166ZM183.592 28.215C183.592 28.6137 183.569 29.0353 183.523 29.48H173.449C173.526 30.722 173.948 31.6957 174.714 32.401C175.496 33.091 176.439 33.436 177.543 33.436C178.448 33.436 179.199 33.229 179.797 32.815C180.411 32.3857 180.84 31.8183 181.085 31.113H183.339C183.002 32.3243 182.327 33.3133 181.315 34.08C180.303 34.8313 179.046 35.207 177.543 35.207C176.347 35.207 175.274 34.9387 174.323 34.402C173.388 33.8653 172.652 33.1063 172.115 32.125C171.579 31.1283 171.31 29.9783 171.31 28.675C171.31 27.3717 171.571 26.2293 172.092 25.248C172.614 24.2667 173.342 23.5153 174.277 22.994C175.228 22.4573 176.317 22.189 177.543 22.189C178.739 22.189 179.797 22.4497 180.717 22.971C181.637 23.4923 182.343 24.213 182.833 25.133C183.339 26.0377 183.592 27.065 183.592 28.215ZM181.43 27.778C181.43 26.9807 181.254 26.2983 180.901 25.731C180.549 25.1483 180.066 24.7113 179.452 24.42C178.854 24.1133 178.187 23.96 177.451 23.96C176.393 23.96 175.489 24.2973 174.737 24.972C174.001 25.6467 173.58 26.582 173.472 27.778H181.43ZM185.573 28.675C185.573 27.3717 185.834 26.237 186.355 25.271C186.876 24.2897 187.597 23.5307 188.517 22.994C189.452 22.4573 190.518 22.189 191.714 22.189C193.263 22.189 194.535 22.5647 195.532 23.316C196.544 24.0673 197.211 25.11 197.533 26.444H195.279C195.064 25.6773 194.643 25.0717 194.014 24.627C193.401 24.1823 192.634 23.96 191.714 23.96C190.518 23.96 189.552 24.374 188.816 25.202C188.08 26.0147 187.712 27.1723 187.712 28.675C187.712 30.193 188.08 31.366 188.816 32.194C189.552 33.022 190.518 33.436 191.714 33.436C192.634 33.436 193.401 33.2213 194.014 32.792C194.627 32.3627 195.049 31.7493 195.279 30.952H197.533C197.196 32.24 196.521 33.275 195.509 34.057C194.497 34.8237 193.232 35.207 191.714 35.207C190.518 35.207 189.452 34.9387 188.517 34.402C187.597 33.8653 186.876 33.1063 186.355 32.125C185.834 31.1437 185.573 29.9937 185.573 28.675ZM202.879 24.121V31.55C202.879 32.1633 203.009 32.6003 203.27 32.861C203.53 33.1063 203.983 33.229 204.627 33.229H206.168V35H204.282C203.116 35 202.242 34.7317 201.66 34.195C201.077 33.6583 200.786 32.7767 200.786 31.55V24.121H199.153V22.396H200.786V19.222H202.879V22.396H206.168V24.121H202.879Z" fill="white"/>
<path d="M35.389 49.939L32.763 59H31.437L29.331 51.707L27.147 59L25.834 59.013L23.299 49.939H24.56L26.536 57.622L28.72 49.939H30.046L32.126 57.596L34.115 49.939H35.389ZM37.2946 50.719C37.0693 50.719 36.8786 50.641 36.7226 50.485C36.5666 50.329 36.4886 50.1383 36.4886 49.913C36.4886 49.6877 36.5666 49.497 36.7226 49.341C36.8786 49.185 37.0693 49.107 37.2946 49.107C37.5113 49.107 37.6933 49.185 37.8406 49.341C37.9966 49.497 38.0746 49.6877 38.0746 49.913C38.0746 50.1383 37.9966 50.329 37.8406 50.485C37.6933 50.641 37.5113 50.719 37.2946 50.719ZM37.8666 51.876V59H36.6836V51.876H37.8666ZM41.3258 52.851V57.05C41.3258 57.3967 41.3995 57.6437 41.5468 57.791C41.6942 57.9297 41.9498 57.999 42.3138 57.999H43.1848V59H42.1188C41.4602 59 40.9662 58.8483 40.6368 58.545C40.3075 58.2417 40.1428 57.7433 40.1428 57.05V52.851H39.2198V51.876H40.1428V50.082H41.3258V51.876H43.1848V52.851H41.3258ZM48.1542 51.746C48.6915 51.746 49.1769 51.863 49.6102 52.097C50.0435 52.3223 50.3815 52.6647 50.6242 53.124C50.8755 53.5833 51.0012 54.1423 51.0012 54.801V59H49.8312V54.97C49.8312 54.2593 49.6535 53.7177 49.2982 53.345C48.9429 52.9637 48.4575 52.773 47.8422 52.773C47.2182 52.773 46.7199 52.968 46.3472 53.358C45.9832 53.748 45.8012 54.3157 45.8012 55.061V59H44.6182V49.38H45.8012V52.89C46.0352 52.526 46.3559 52.2443 46.7632 52.045C47.1792 51.8457 47.6429 51.746 48.1542 51.746ZM57.5824 53.033C57.7904 52.6257 58.0851 52.3093 58.4664 52.084C58.8564 51.8587 59.3288 51.746 59.8834 51.746V52.968H59.5714C58.2454 52.968 57.5824 53.6873 57.5824 55.126V59H56.3994V51.876H57.5824V53.033ZM64.356 59.117C63.6887 59.117 63.082 58.9653 62.536 58.662C61.9987 58.3587 61.574 57.9297 61.262 57.375C60.9587 56.8117 60.807 56.1617 60.807 55.425C60.807 54.697 60.963 54.0557 61.275 53.501C61.5957 52.9377 62.029 52.5087 62.575 52.214C63.121 51.9107 63.732 51.759 64.408 51.759C65.084 51.759 65.695 51.9107 66.241 52.214C66.787 52.5087 67.216 52.9333 67.528 53.488C67.8487 54.0427 68.009 54.6883 68.009 55.425C68.009 56.1617 67.8444 56.8117 67.515 57.375C67.1944 57.9297 66.7567 58.3587 66.202 58.662C65.6474 58.9653 65.032 59.117 64.356 59.117ZM64.356 58.077C64.7807 58.077 65.1794 57.9773 65.552 57.778C65.9247 57.5787 66.2237 57.2797 66.449 56.881C66.683 56.4823 66.8 55.997 66.8 55.425C66.8 54.853 66.6874 54.3677 66.462 53.969C66.2367 53.5703 65.942 53.2757 65.578 53.085C65.214 52.8857 64.8197 52.786 64.395 52.786C63.9617 52.786 63.563 52.8857 63.199 53.085C62.8437 53.2757 62.5577 53.5703 62.341 53.969C62.1244 54.3677 62.016 54.853 62.016 55.425C62.016 56.0057 62.12 56.4953 62.328 56.894C62.5447 57.2927 62.8307 57.5917 63.186 57.791C63.5414 57.9817 63.9314 58.077 64.356 58.077ZM70.7475 53.202C70.9901 52.7773 71.3455 52.4307 71.8135 52.162C72.2815 51.8933 72.8145 51.759 73.4125 51.759C74.0538 51.759 74.6301 51.9107 75.1415 52.214C75.6528 52.5173 76.0558 52.9463 76.3505 53.501C76.6451 54.047 76.7925 54.684 76.7925 55.412C76.7925 56.1313 76.6451 56.7727 76.3505 57.336C76.0558 57.8993 75.6485 58.337 75.1285 58.649C74.6171 58.961 74.0451 59.117 73.4125 59.117C72.7971 59.117 72.2555 58.9827 71.7875 58.714C71.3281 58.4453 70.9815 58.103 70.7475 57.687V59H69.5645V49.38H70.7475V53.202ZM75.5835 55.412C75.5835 54.8747 75.4751 54.4067 75.2585 54.008C75.0418 53.6093 74.7471 53.306 74.3745 53.098C74.0105 52.89 73.6075 52.786 73.1655 52.786C72.7321 52.786 72.3291 52.8943 71.9565 53.111C71.5925 53.319 71.2978 53.6267 71.0725 54.034C70.8558 54.4327 70.7475 54.8963 70.7475 55.425C70.7475 55.9623 70.8558 56.4347 71.0725 56.842C71.2978 57.2407 71.5925 57.5483 71.9565 57.765C72.3291 57.973 72.7321 58.077 73.1655 58.077C73.6075 58.077 74.0105 57.973 74.3745 57.765C74.7471 57.5483 75.0418 57.2407 75.2585 56.842C75.4751 56.4347 75.5835 55.958 75.5835 55.412ZM84.6676 51.876V59H83.4846V57.947C83.2593 58.311 82.943 58.597 82.5356 58.805C82.137 59.0043 81.695 59.104 81.2096 59.104C80.655 59.104 80.1566 58.9913 79.7146 58.766C79.2726 58.532 78.9216 58.1853 78.6616 57.726C78.4103 57.2667 78.2846 56.7077 78.2846 56.049V51.876H79.4546V55.893C79.4546 56.595 79.6323 57.1367 79.9876 57.518C80.343 57.8907 80.8283 58.077 81.4436 58.077C82.0763 58.077 82.5746 57.882 82.9386 57.492C83.3026 57.102 83.4846 56.5343 83.4846 55.789V51.876H84.6676ZM89.1871 59.117C88.6411 59.117 88.1514 59.026 87.7181 58.844C87.2847 58.6533 86.9424 58.3933 86.6911 58.064C86.4397 57.726 86.3011 57.3403 86.2751 56.907H87.4971C87.5317 57.2623 87.6964 57.5527 87.9911 57.778C88.2944 58.0033 88.6887 58.116 89.1741 58.116C89.6247 58.116 89.9801 58.0163 90.2401 57.817C90.5001 57.6177 90.6301 57.3663 90.6301 57.063C90.6301 56.751 90.4914 56.5213 90.2141 56.374C89.9367 56.218 89.5077 56.0663 88.9271 55.919C88.3984 55.7803 87.9651 55.6417 87.6271 55.503C87.2977 55.3557 87.0117 55.1433 86.7691 54.866C86.5351 54.58 86.4181 54.2073 86.4181 53.748C86.4181 53.384 86.5264 53.0503 86.7431 52.747C86.9597 52.4437 87.2674 52.2053 87.6661 52.032C88.0647 51.85 88.5197 51.759 89.0311 51.759C89.8197 51.759 90.4567 51.9583 90.9421 52.357C91.4274 52.7557 91.6874 53.3017 91.7221 53.995H90.5391C90.5131 53.6223 90.3614 53.3233 90.0841 53.098C89.8154 52.8727 89.4514 52.76 88.9921 52.76C88.5674 52.76 88.2294 52.851 87.9781 53.033C87.7267 53.215 87.6011 53.4533 87.6011 53.748C87.6011 53.982 87.6747 54.177 87.8221 54.333C87.9781 54.4803 88.1687 54.6017 88.3941 54.697C88.6281 54.7837 88.9487 54.8833 89.3561 54.996C89.8674 55.1347 90.2834 55.2733 90.6041 55.412C90.9247 55.542 91.1977 55.7413 91.4231 56.01C91.6571 56.2787 91.7784 56.6297 91.7871 57.063C91.7871 57.453 91.6787 57.804 91.4621 58.116C91.2454 58.428 90.9377 58.675 90.5391 58.857C90.1491 59.0303 89.6984 59.117 89.1871 59.117ZM94.9001 52.851V57.05C94.9001 57.3967 94.9737 57.6437 95.1211 57.791C95.2684 57.9297 95.5241 57.999 95.8881 57.999H96.7591V59H95.6931C95.0344 59 94.5404 58.8483 94.2111 58.545C93.8817 58.2417 93.7171 57.7433 93.7171 57.05V52.851H92.7941V51.876H93.7171V50.082H94.9001V51.876H96.7591V52.851H94.9001ZM104.18 59.117C103.634 59.117 103.145 59.026 102.711 58.844C102.278 58.6533 101.936 58.3933 101.684 58.064C101.433 57.726 101.294 57.3403 101.268 56.907H102.49C102.525 57.2623 102.69 57.5527 102.984 57.778C103.288 58.0033 103.682 58.116 104.167 58.116C104.618 58.116 104.973 58.0163 105.233 57.817C105.493 57.6177 105.623 57.3663 105.623 57.063C105.623 56.751 105.485 56.5213 105.207 56.374C104.93 56.218 104.501 56.0663 103.92 55.919C103.392 55.7803 102.958 55.6417 102.62 55.503C102.291 55.3557 102.005 55.1433 101.762 54.866C101.528 54.58 101.411 54.2073 101.411 53.748C101.411 53.384 101.52 53.0503 101.736 52.747C101.953 52.4437 102.261 52.2053 102.659 52.032C103.058 51.85 103.513 51.759 104.024 51.759C104.813 51.759 105.45 51.9583 105.935 52.357C106.421 52.7557 106.681 53.3017 106.715 53.995H105.532C105.506 53.6223 105.355 53.3233 105.077 53.098C104.809 52.8727 104.445 52.76 103.985 52.76C103.561 52.76 103.223 52.851 102.971 53.033C102.72 53.215 102.594 53.4533 102.594 53.748C102.594 53.982 102.668 54.177 102.815 54.333C102.971 54.4803 103.162 54.6017 103.387 54.697C103.621 54.7837 103.942 54.8833 104.349 54.996C104.861 55.1347 105.277 55.2733 105.597 55.412C105.918 55.542 106.191 55.7413 106.416 56.01C106.65 56.2787 106.772 56.6297 106.78 57.063C106.78 57.453 106.672 57.804 106.455 58.116C106.239 58.428 105.931 58.675 105.532 58.857C105.142 59.0303 104.692 59.117 104.18 59.117ZM114.95 55.165C114.95 55.3903 114.937 55.6287 114.911 55.88H109.217C109.261 56.582 109.499 57.1323 109.932 57.531C110.374 57.921 110.907 58.116 111.531 58.116C112.043 58.116 112.467 57.999 112.805 57.765C113.152 57.5223 113.395 57.2017 113.533 56.803H114.807C114.617 57.4877 114.235 58.0467 113.663 58.48C113.091 58.9047 112.381 59.117 111.531 59.117C110.855 59.117 110.249 58.9653 109.711 58.662C109.183 58.3587 108.767 57.9297 108.463 57.375C108.16 56.8117 108.008 56.1617 108.008 55.425C108.008 54.6883 108.156 54.0427 108.45 53.488C108.745 52.9333 109.157 52.5087 109.685 52.214C110.223 51.9107 110.838 51.759 111.531 51.759C112.207 51.759 112.805 51.9063 113.325 52.201C113.845 52.4957 114.244 52.903 114.521 53.423C114.807 53.9343 114.95 54.515 114.95 55.165ZM113.728 54.918C113.728 54.4673 113.629 54.0817 113.429 53.761C113.23 53.4317 112.957 53.1847 112.61 53.02C112.272 52.8467 111.895 52.76 111.479 52.76C110.881 52.76 110.37 52.9507 109.945 53.332C109.529 53.7133 109.291 54.242 109.23 54.918H113.728ZM116.07 55.425C116.07 54.6883 116.217 54.047 116.512 53.501C116.806 52.9463 117.214 52.5173 117.734 52.214C118.262 51.9107 118.865 51.759 119.541 51.759C120.416 51.759 121.135 51.9713 121.699 52.396C122.271 52.8207 122.648 53.41 122.83 54.164H121.556C121.434 53.7307 121.196 53.3883 120.841 53.137C120.494 52.8857 120.061 52.76 119.541 52.76C118.865 52.76 118.319 52.994 117.903 53.462C117.487 53.9213 117.279 54.5757 117.279 55.425C117.279 56.283 117.487 56.946 117.903 57.414C118.319 57.882 118.865 58.116 119.541 58.116C120.061 58.116 120.494 57.9947 120.841 57.752C121.187 57.5093 121.426 57.1627 121.556 56.712H122.83C122.639 57.44 122.258 58.025 121.686 58.467C121.114 58.9003 120.399 59.117 119.541 59.117C118.865 59.117 118.262 58.9653 117.734 58.662C117.214 58.3587 116.806 57.9297 116.512 57.375C116.217 56.8203 116.07 56.1703 116.07 55.425ZM130.726 51.876V59H129.543V57.947C129.318 58.311 129.002 58.597 128.594 58.805C128.196 59.0043 127.754 59.104 127.268 59.104C126.714 59.104 126.215 58.9913 125.773 58.766C125.331 58.532 124.98 58.1853 124.72 57.726C124.469 57.2667 124.343 56.7077 124.343 56.049V51.876H125.513V55.893C125.513 56.595 125.691 57.1367 126.046 57.518C126.402 57.8907 126.887 58.077 127.502 58.077C128.135 58.077 128.633 57.882 128.997 57.492C129.361 57.102 129.543 56.5343 129.543 55.789V51.876H130.726ZM133.907 53.033C134.115 52.6257 134.409 52.3093 134.791 52.084C135.181 51.8587 135.653 51.746 136.208 51.746V52.968H135.896C134.57 52.968 133.907 53.6873 133.907 55.126V59H132.724V51.876H133.907V53.033ZM138.184 50.719C137.959 50.719 137.768 50.641 137.612 50.485C137.456 50.329 137.378 50.1383 137.378 49.913C137.378 49.6877 137.456 49.497 137.612 49.341C137.768 49.185 137.959 49.107 138.184 49.107C138.401 49.107 138.583 49.185 138.73 49.341C138.886 49.497 138.964 49.6877 138.964 49.913C138.964 50.1383 138.886 50.329 138.73 50.485C138.583 50.641 138.401 50.719 138.184 50.719ZM138.756 51.876V59H137.573V51.876H138.756ZM142.215 52.851V57.05C142.215 57.3967 142.289 57.6437 142.436 57.791C142.584 57.9297 142.839 57.999 143.203 57.999H144.074V59H143.008C142.35 59 141.856 58.8483 141.526 58.545C141.197 58.2417 141.032 57.7433 141.032 57.05V52.851H140.109V51.876H141.032V50.082H142.215V51.876H144.074V52.851H142.215ZM151.644 51.876L147.354 62.354H146.132L147.536 58.922L144.663 51.876H145.976L148.212 57.648L150.422 51.876H151.644ZM164.866 51.746C165.421 51.746 165.915 51.863 166.348 52.097C166.781 52.3223 167.124 52.6647 167.375 53.124C167.626 53.5833 167.752 54.1423 167.752 54.801V59H166.582V54.97C166.582 54.2593 166.404 53.7177 166.049 53.345C165.702 52.9637 165.23 52.773 164.632 52.773C164.017 52.773 163.527 52.9723 163.163 53.371C162.799 53.761 162.617 54.3287 162.617 55.074V59H161.447V54.97C161.447 54.2593 161.269 53.7177 160.914 53.345C160.567 52.9637 160.095 52.773 159.497 52.773C158.882 52.773 158.392 52.9723 158.028 53.371C157.664 53.761 157.482 54.3287 157.482 55.074V59H156.299V51.876H157.482V52.903C157.716 52.5303 158.028 52.2443 158.418 52.045C158.817 51.8457 159.254 51.746 159.731 51.746C160.329 51.746 160.858 51.8803 161.317 52.149C161.776 52.4177 162.119 52.812 162.344 53.332C162.543 52.8293 162.873 52.4393 163.332 52.162C163.791 51.8847 164.303 51.746 164.866 51.746ZM176.192 55.165C176.192 55.3903 176.179 55.6287 176.153 55.88H170.459C170.503 56.582 170.741 57.1323 171.174 57.531C171.616 57.921 172.149 58.116 172.773 58.116C173.285 58.116 173.709 57.999 174.047 57.765C174.394 57.5223 174.637 57.2017 174.775 56.803H176.049C175.859 57.4877 175.477 58.0467 174.905 58.48C174.333 58.9047 173.623 59.117 172.773 59.117C172.097 59.117 171.491 58.9653 170.953 58.662C170.425 58.3587 170.009 57.9297 169.705 57.375C169.402 56.8117 169.25 56.1617 169.25 55.425C169.25 54.6883 169.398 54.0427 169.692 53.488C169.987 52.9333 170.399 52.5087 170.927 52.214C171.465 51.9107 172.08 51.759 172.773 51.759C173.449 51.759 174.047 51.9063 174.567 52.201C175.087 52.4957 175.486 52.903 175.763 53.423C176.049 53.9343 176.192 54.515 176.192 55.165ZM174.97 54.918C174.97 54.4673 174.871 54.0817 174.671 53.761C174.472 53.4317 174.199 53.1847 173.852 53.02C173.514 52.8467 173.137 52.76 172.721 52.76C172.123 52.76 171.612 52.9507 171.187 53.332C170.771 53.7133 170.533 54.242 170.472 54.918H174.97ZM177.312 55.412C177.312 54.684 177.459 54.047 177.754 53.501C178.049 52.9463 178.452 52.5173 178.963 52.214C179.483 51.9107 180.059 51.759 180.692 51.759C181.316 51.759 181.858 51.8933 182.317 52.162C182.776 52.4307 183.119 52.7687 183.344 53.176V51.876H184.54V59H183.344V57.674C183.11 58.09 182.759 58.4367 182.291 58.714C181.832 58.9827 181.294 59.117 180.679 59.117C180.046 59.117 179.474 58.961 178.963 58.649C178.452 58.337 178.049 57.8993 177.754 57.336C177.459 56.7727 177.312 56.1313 177.312 55.412ZM183.344 55.425C183.344 54.8877 183.236 54.4197 183.019 54.021C182.802 53.6223 182.508 53.319 182.135 53.111C181.771 52.8943 181.368 52.786 180.926 52.786C180.484 52.786 180.081 52.89 179.717 53.098C179.353 53.306 179.063 53.6093 178.846 54.008C178.629 54.4067 178.521 54.8747 178.521 55.412C178.521 55.958 178.629 56.4347 178.846 56.842C179.063 57.2407 179.353 57.5483 179.717 57.765C180.081 57.973 180.484 58.077 180.926 58.077C181.368 58.077 181.771 57.973 182.135 57.765C182.508 57.5483 182.802 57.2407 183.019 56.842C183.236 56.4347 183.344 55.9623 183.344 55.425ZM189.061 59.117C188.515 59.117 188.025 59.026 187.592 58.844C187.159 58.6533 186.816 58.3933 186.565 58.064C186.314 57.726 186.175 57.3403 186.149 56.907H187.371C187.406 57.2623 187.57 57.5527 187.865 57.778C188.168 58.0033 188.563 58.116 189.048 58.116C189.499 58.116 189.854 58.0163 190.114 57.817C190.374 57.6177 190.504 57.3663 190.504 57.063C190.504 56.751 190.365 56.5213 190.088 56.374C189.811 56.218 189.382 56.0663 188.801 55.919C188.272 55.7803 187.839 55.6417 187.501 55.503C187.172 55.3557 186.886 55.1433 186.643 54.866C186.409 54.58 186.292 54.2073 186.292 53.748C186.292 53.384 186.4 53.0503 186.617 52.747C186.834 52.4437 187.141 52.2053 187.54 52.032C187.939 51.85 188.394 51.759 188.905 51.759C189.694 51.759 190.331 51.9583 190.816 52.357C191.301 52.7557 191.561 53.3017 191.596 53.995H190.413C190.387 53.6223 190.235 53.3233 189.958 53.098C189.689 52.8727 189.325 52.76 188.866 52.76C188.441 52.76 188.103 52.851 187.852 53.033C187.601 53.215 187.475 53.4533 187.475 53.748C187.475 53.982 187.549 54.177 187.696 54.333C187.852 54.4803 188.043 54.6017 188.268 54.697C188.502 54.7837 188.823 54.8833 189.23 54.996C189.741 55.1347 190.157 55.2733 190.478 55.412C190.799 55.542 191.072 55.7413 191.297 56.01C191.531 56.2787 191.652 56.6297 191.661 57.063C191.661 57.453 191.553 57.804 191.336 58.116C191.119 58.428 190.812 58.675 190.413 58.857C190.023 59.0303 189.572 59.117 189.061 59.117ZM199.649 51.876V59H198.466V57.947C198.241 58.311 197.924 58.597 197.517 58.805C197.118 59.0043 196.676 59.104 196.191 59.104C195.636 59.104 195.138 58.9913 194.696 58.766C194.254 58.532 193.903 58.1853 193.643 57.726C193.392 57.2667 193.266 56.7077 193.266 56.049V51.876H194.436V55.893C194.436 56.595 194.614 57.1367 194.969 57.518C195.324 57.8907 195.81 58.077 196.425 58.077C197.058 58.077 197.556 57.882 197.92 57.492C198.284 57.102 198.466 56.5343 198.466 55.789V51.876H199.649ZM202.83 53.033C203.038 52.6257 203.332 52.3093 203.714 52.084C204.104 51.8587 204.576 51.746 205.131 51.746V52.968H204.819C203.493 52.968 202.83 53.6873 202.83 55.126V59H201.647V51.876H202.83V53.033ZM212.996 55.165C212.996 55.3903 212.983 55.6287 212.957 55.88H207.263C207.306 56.582 207.545 57.1323 207.978 57.531C208.42 57.921 208.953 58.116 209.577 58.116C210.088 58.116 210.513 57.999 210.851 57.765C211.198 57.5223 211.44 57.2017 211.579 56.803H212.853C212.662 57.4877 212.281 58.0467 211.709 58.48C211.137 58.9047 210.426 59.117 209.577 59.117C208.901 59.117 208.294 58.9653 207.757 58.662C207.228 58.3587 206.812 57.9297 206.509 57.375C206.206 56.8117 206.054 56.1617 206.054 55.425C206.054 54.6883 206.201 54.0427 206.496 53.488C206.791 52.9333 207.202 52.5087 207.731 52.214C208.268 51.9107 208.884 51.759 209.577 51.759C210.253 51.759 210.851 51.9063 211.371 52.201C211.891 52.4957 212.29 52.903 212.567 53.423C212.853 53.9343 212.996 54.515 212.996 55.165ZM211.774 54.918C211.774 54.4673 211.674 54.0817 211.475 53.761C211.276 53.4317 211.003 53.1847 210.656 53.02C210.318 52.8467 209.941 52.76 209.525 52.76C208.927 52.76 208.416 52.9507 207.991 53.332C207.575 53.7133 207.337 54.242 207.276 54.918H211.774ZM217.08 59.117C216.534 59.117 216.044 59.026 215.611 58.844C215.177 58.6533 214.835 58.3933 214.584 58.064C214.332 57.726 214.194 57.3403 214.168 56.907H215.39C215.424 57.2623 215.589 57.5527 215.884 57.778C216.187 58.0033 216.581 58.116 217.067 58.116C217.517 58.116 217.873 58.0163 218.133 57.817C218.393 57.6177 218.523 57.3663 218.523 57.063C218.523 56.751 218.384 56.5213 218.107 56.374C217.829 56.218 217.4 56.0663 216.82 55.919C216.291 55.7803 215.858 55.6417 215.52 55.503C215.19 55.3557 214.904 55.1433 214.662 54.866C214.428 54.58 214.311 54.2073 214.311 53.748C214.311 53.384 214.419 53.0503 214.636 52.747C214.852 52.4437 215.16 52.2053 215.559 52.032C215.957 51.85 216.412 51.759 216.924 51.759C217.712 51.759 218.349 51.9583 218.835 52.357C219.32 52.7557 219.58 53.3017 219.615 53.995H218.432C218.406 53.6223 218.254 53.3233 217.977 53.098C217.708 52.8727 217.344 52.76 216.885 52.76C216.46 52.76 216.122 52.851 215.871 53.033C215.619 53.215 215.494 53.4533 215.494 53.748C215.494 53.982 215.567 54.177 215.715 54.333C215.871 54.4803 216.061 54.6017 216.287 54.697C216.521 54.7837 216.841 54.8833 217.249 54.996C217.76 55.1347 218.176 55.2733 218.497 55.412C218.817 55.542 219.09 55.7413 219.316 56.01C219.55 56.2787 219.671 56.6297 219.68 57.063C219.68 57.453 219.571 57.804 219.355 58.116C219.138 58.428 218.83 58.675 218.432 58.857C218.042 59.0303 217.591 59.117 217.08 59.117ZM225.426 50.719C225.201 50.719 225.01 50.641 224.854 50.485C224.698 50.329 224.62 50.1383 224.62 49.913C224.62 49.6877 224.698 49.497 224.854 49.341C225.01 49.185 225.201 49.107 225.426 49.107C225.643 49.107 225.825 49.185 225.972 49.341C226.128 49.497 226.206 49.6877 226.206 49.913C226.206 50.1383 226.128 50.329 225.972 50.485C225.825 50.641 225.643 50.719 225.426 50.719ZM225.998 51.876V59H224.815V51.876H225.998ZM231.486 51.746C232.352 51.746 233.054 52.0103 233.592 52.539C234.129 53.059 234.398 53.813 234.398 54.801V59H233.228V54.97C233.228 54.2593 233.05 53.7177 232.695 53.345C232.339 52.9637 231.854 52.773 231.239 52.773C230.615 52.773 230.116 52.968 229.744 53.358C229.38 53.748 229.198 54.3157 229.198 55.061V59H228.015V51.876H229.198V52.89C229.432 52.526 229.748 52.2443 230.147 52.045C230.554 51.8457 231 51.746 231.486 51.746ZM240.979 53.189C241.213 52.7817 241.56 52.4437 242.019 52.175C242.487 51.8977 243.029 51.759 243.644 51.759C244.277 51.759 244.849 51.9107 245.36 52.214C245.88 52.5173 246.287 52.9463 246.582 53.501C246.877 54.047 247.024 54.684 247.024 55.412C247.024 56.1313 246.877 56.7727 246.582 57.336C246.287 57.8993 245.88 58.337 245.36 58.649C244.849 58.961 244.277 59.117 243.644 59.117C243.037 59.117 242.5 58.9827 242.032 58.714C241.573 58.4367 241.222 58.0943 240.979 57.687V62.38H239.796V51.876H240.979V53.189ZM245.815 55.412C245.815 54.8747 245.707 54.4067 245.49 54.008C245.273 53.6093 244.979 53.306 244.606 53.098C244.242 52.89 243.839 52.786 243.397 52.786C242.964 52.786 242.561 52.8943 242.188 53.111C241.824 53.319 241.529 53.6267 241.304 54.034C241.087 54.4327 240.979 54.8963 240.979 55.425C240.979 55.9623 241.087 56.4347 241.304 56.842C241.529 57.2407 241.824 57.5483 242.188 57.765C242.561 57.973 242.964 58.077 243.397 58.077C243.839 58.077 244.242 57.973 244.606 57.765C244.979 57.5483 245.273 57.2407 245.49 56.842C245.707 56.4347 245.815 55.958 245.815 55.412ZM249.764 49.38V59H248.581V49.38H249.764ZM251.338 55.412C251.338 54.684 251.486 54.047 251.78 53.501C252.075 52.9463 252.478 52.5173 252.989 52.214C253.509 51.9107 254.086 51.759 254.718 51.759C255.342 51.759 255.884 51.8933 256.343 52.162C256.803 52.4307 257.145 52.7687 257.37 53.176V51.876H258.566V59H257.37V57.674C257.136 58.09 256.785 58.4367 256.317 58.714C255.858 58.9827 255.321 59.117 254.705 59.117C254.073 59.117 253.501 58.961 252.989 58.649C252.478 58.337 252.075 57.8993 251.78 57.336C251.486 56.7727 251.338 56.1313 251.338 55.412ZM257.37 55.425C257.37 54.8877 257.262 54.4197 257.045 54.021C256.829 53.6223 256.534 53.319 256.161 53.111C255.797 52.8943 255.394 52.786 254.952 52.786C254.51 52.786 254.107 52.89 253.743 53.098C253.379 53.306 253.089 53.6093 252.872 54.008C252.656 54.4067 252.547 54.8747 252.547 55.412C252.547 55.958 252.656 56.4347 252.872 56.842C253.089 57.2407 253.379 57.5483 253.743 57.765C254.107 57.973 254.51 58.077 254.952 58.077C255.394 58.077 255.797 57.973 256.161 57.765C256.534 57.5483 256.829 57.2407 257.045 56.842C257.262 56.4347 257.37 55.9623 257.37 55.425ZM260.123 55.425C260.123 54.6883 260.271 54.047 260.565 53.501C260.86 52.9463 261.267 52.5173 261.787 52.214C262.316 51.9107 262.918 51.759 263.594 51.759C264.47 51.759 265.189 51.9713 265.752 52.396C266.324 52.8207 266.701 53.41 266.883 54.164H265.609C265.488 53.7307 265.25 53.3883 264.894 53.137C264.548 52.8857 264.114 52.76 263.594 52.76C262.918 52.76 262.372 52.994 261.956 53.462C261.54 53.9213 261.332 54.5757 261.332 55.425C261.332 56.283 261.54 56.946 261.956 57.414C262.372 57.882 262.918 58.116 263.594 58.116C264.114 58.116 264.548 57.9947 264.894 57.752C265.241 57.5093 265.479 57.1627 265.609 56.712H266.883C266.693 57.44 266.311 58.025 265.739 58.467C265.167 58.9003 264.452 59.117 263.594 59.117C262.918 59.117 262.316 58.9653 261.787 58.662C261.267 58.3587 260.86 57.9297 260.565 57.375C260.271 56.8203 260.123 56.1703 260.123 55.425ZM274.962 55.165C274.962 55.3903 274.949 55.6287 274.923 55.88H269.229C269.272 56.582 269.511 57.1323 269.944 57.531C270.386 57.921 270.919 58.116 271.543 58.116C272.054 58.116 272.479 57.999 272.817 57.765C273.164 57.5223 273.406 57.2017 273.545 56.803H274.819C274.628 57.4877 274.247 58.0467 273.675 58.48C273.103 58.9047 272.392 59.117 271.543 59.117C270.867 59.117 270.26 58.9653 269.723 58.662C269.194 58.3587 268.778 57.9297 268.475 57.375C268.172 56.8117 268.02 56.1617 268.02 55.425C268.02 54.6883 268.167 54.0427 268.462 53.488C268.757 52.9333 269.168 52.5087 269.697 52.214C270.234 51.9107 270.85 51.759 271.543 51.759C272.219 51.759 272.817 51.9063 273.337 52.201C273.857 52.4957 274.256 52.903 274.533 53.423C274.819 53.9343 274.962 54.515 274.962 55.165ZM273.74 54.918C273.74 54.4673 273.64 54.0817 273.441 53.761C273.242 53.4317 272.969 53.1847 272.622 53.02C272.284 52.8467 271.907 52.76 271.491 52.76C270.893 52.76 270.382 52.9507 269.957 53.332C269.541 53.7133 269.303 54.242 269.242 54.918H273.74ZM277.745 57.362L276.289 60.859H275.496L276.445 57.362H277.745ZM30.137 71.876L25.847 82.354H24.625L26.029 78.922L23.156 71.876H24.469L26.705 77.648L28.915 71.876H30.137ZM34.4332 79.117C33.7659 79.117 33.1592 78.9653 32.6132 78.662C32.0759 78.3587 31.6512 77.9297 31.3392 77.375C31.0359 76.8117 30.8842 76.1617 30.8842 75.425C30.8842 74.697 31.0402 74.0557 31.3522 73.501C31.6729 72.9377 32.1062 72.5087 32.6522 72.214C33.1982 71.9107 33.8092 71.759 34.4852 71.759C35.1612 71.759 35.7722 71.9107 36.3182 72.214C36.8642 72.5087 37.2932 72.9333 37.6052 73.488C37.9259 74.0427 38.0862 74.6883 38.0862 75.425C38.0862 76.1617 37.9215 76.8117 37.5922 77.375C37.2715 77.9297 36.8339 78.3587 36.2792 78.662C35.7245 78.9653 35.1092 79.117 34.4332 79.117ZM34.4332 78.077C34.8579 78.077 35.2565 77.9773 35.6292 77.778C36.0019 77.5787 36.3009 77.2797 36.5262 76.881C36.7602 76.4823 36.8772 75.997 36.8772 75.425C36.8772 74.853 36.7645 74.3677 36.5392 73.969C36.3139 73.5703 36.0192 73.2757 35.6552 73.085C35.2912 72.8857 34.8969 72.786 34.4722 72.786C34.0389 72.786 33.6402 72.8857 33.2762 73.085C32.9209 73.2757 32.6349 73.5703 32.4182 73.969C32.2015 74.3677 32.0932 74.853 32.0932 75.425C32.0932 76.0057 32.1972 76.4953 32.4052 76.894C32.6219 77.2927 32.9079 77.5917 33.2632 77.791C33.6185 77.9817 34.0085 78.077 34.4332 78.077ZM45.9596 71.876V79H44.7766V77.947C44.5513 78.311 44.235 78.597 43.8276 78.805C43.429 79.0043 42.987 79.104 42.5016 79.104C41.947 79.104 41.4486 78.9913 41.0066 78.766C40.5646 78.532 40.2136 78.1853 39.9536 77.726C39.7023 77.2667 39.5766 76.7077 39.5766 76.049V71.876H40.7466V75.893C40.7466 76.595 40.9243 77.1367 41.2796 77.518C41.635 77.8907 42.1203 78.077 42.7356 78.077C43.3683 78.077 43.8666 77.882 44.2306 77.492C44.5946 77.102 44.7766 76.5343 44.7766 75.789V71.876H45.9596ZM49.1401 73.033C49.3481 72.6257 49.6427 72.3093 50.0241 72.084C50.4141 71.8587 50.8864 71.746 51.4411 71.746V72.968H51.1291C49.8031 72.968 49.1401 73.6873 49.1401 75.126V79H47.9571V71.876H49.1401V73.033ZM56.8835 70.719C56.6582 70.719 56.4675 70.641 56.3115 70.485C56.1555 70.329 56.0775 70.1383 56.0775 69.913C56.0775 69.6877 56.1555 69.497 56.3115 69.341C56.4675 69.185 56.6582 69.107 56.8835 69.107C57.1002 69.107 57.2822 69.185 57.4295 69.341C57.5855 69.497 57.6635 69.6877 57.6635 69.913C57.6635 70.1383 57.5855 70.329 57.4295 70.485C57.2822 70.641 57.1002 70.719 56.8835 70.719ZM57.4555 71.876V79H56.2725V71.876H57.4555ZM62.9427 71.746C63.8094 71.746 64.5114 72.0103 65.0487 72.539C65.586 73.059 65.8547 73.813 65.8547 74.801V79H64.6847V74.97C64.6847 74.2593 64.507 73.7177 64.1517 73.345C63.7964 72.9637 63.311 72.773 62.6957 72.773C62.0717 72.773 61.5734 72.968 61.2007 73.358C60.8367 73.748 60.6547 74.3157 60.6547 75.061V79H59.4717V71.876H60.6547V72.89C60.8887 72.526 61.205 72.2443 61.6037 72.045C62.011 71.8457 62.4574 71.746 62.9427 71.746ZM69.2301 72.851V77.05C69.2301 77.3967 69.3038 77.6437 69.4511 77.791C69.5985 77.9297 69.8541 77.999 70.2181 77.999H71.0891V79H70.0231C69.3645 79 68.8705 78.8483 68.5411 78.545C68.2118 78.2417 68.0471 77.7433 68.0471 77.05V72.851H67.1241V71.876H68.0471V70.082H69.2301V71.876H71.0891V72.851H69.2301ZM79.0225 75.165C79.0225 75.3903 79.0095 75.6287 78.9835 75.88H73.2895C73.3328 76.582 73.5712 77.1323 74.0045 77.531C74.4465 77.921 74.9795 78.116 75.6035 78.116C76.1148 78.116 76.5395 77.999 76.8775 77.765C77.2242 77.5223 77.4668 77.2017 77.6055 76.803H78.8795C78.6888 77.4877 78.3075 78.0467 77.7355 78.48C77.1635 78.9047 76.4528 79.117 75.6035 79.117C74.9275 79.117 74.3208 78.9653 73.7835 78.662C73.2548 78.3587 72.8388 77.9297 72.5355 77.375C72.2322 76.8117 72.0805 76.1617 72.0805 75.425C72.0805 74.6883 72.2278 74.0427 72.5225 73.488C72.8172 72.9333 73.2288 72.5087 73.7575 72.214C74.2948 71.9107 74.9102 71.759 75.6035 71.759C76.2795 71.759 76.8775 71.9063 77.3975 72.201C77.9175 72.4957 78.3162 72.903 78.5935 73.423C78.8795 73.9343 79.0225 74.515 79.0225 75.165ZM77.8005 74.918C77.8005 74.4673 77.7008 74.0817 77.5015 73.761C77.3022 73.4317 77.0292 73.1847 76.6825 73.02C76.3445 72.8467 75.9675 72.76 75.5515 72.76C74.9535 72.76 74.4422 72.9507 74.0175 73.332C73.6015 73.7133 73.3632 74.242 73.3025 74.918H77.8005ZM83.522 71.759C84.1373 71.759 84.6747 71.8933 85.134 72.162C85.602 72.4307 85.9487 72.7687 86.174 73.176V71.876H87.37V79.156C87.37 79.806 87.2313 80.3823 86.954 80.885C86.6767 81.3963 86.278 81.795 85.758 82.081C85.2467 82.367 84.6487 82.51 83.964 82.51C83.028 82.51 82.248 82.289 81.624 81.847C81 81.405 80.6317 80.8027 80.519 80.04H81.689C81.819 80.4733 82.0877 80.82 82.495 81.08C82.9023 81.3487 83.392 81.483 83.964 81.483C84.614 81.483 85.1427 81.2793 85.55 80.872C85.966 80.4647 86.174 79.8927 86.174 79.156V77.661C85.94 78.077 85.5933 78.4237 85.134 78.701C84.6747 78.9783 84.1373 79.117 83.522 79.117C82.8893 79.117 82.313 78.961 81.793 78.649C81.2817 78.337 80.8787 77.8993 80.584 77.336C80.2893 76.7727 80.142 76.1313 80.142 75.412C80.142 74.684 80.2893 74.047 80.584 73.501C80.8787 72.9463 81.2817 72.5173 81.793 72.214C82.313 71.9107 82.8893 71.759 83.522 71.759ZM86.174 75.425C86.174 74.8877 86.0657 74.4197 85.849 74.021C85.6323 73.6223 85.3377 73.319 84.965 73.111C84.601 72.8943 84.198 72.786 83.756 72.786C83.314 72.786 82.911 72.89 82.547 73.098C82.183 73.306 81.8927 73.6093 81.676 74.008C81.4593 74.4067 81.351 74.8747 81.351 75.412C81.351 75.958 81.4593 76.4347 81.676 76.842C81.8927 77.2407 82.183 77.5483 82.547 77.765C82.911 77.973 83.314 78.077 83.756 78.077C84.198 78.077 84.601 77.973 84.965 77.765C85.3377 77.5483 85.6323 77.2407 85.849 76.842C86.0657 76.4347 86.174 75.9623 86.174 75.425ZM90.5522 73.033C90.7602 72.6257 91.0548 72.3093 91.4362 72.084C91.8262 71.8587 92.2985 71.746 92.8532 71.746V72.968H92.5412C91.2152 72.968 90.5522 73.6873 90.5522 75.126V79H89.3692V71.876H90.5522V73.033ZM93.7768 75.412C93.7768 74.684 93.9241 74.047 94.2188 73.501C94.5134 72.9463 94.9164 72.5173 95.4278 72.214C95.9478 71.9107 96.5241 71.759 97.1568 71.759C97.7808 71.759 98.3224 71.8933 98.7818 72.162C99.2411 72.4307 99.5834 72.7687 99.8088 73.176V71.876H101.005V79H99.8088V77.674C99.5748 78.09 99.2238 78.4367 98.7558 78.714C98.2964 78.9827 97.7591 79.117 97.1438 79.117C96.5111 79.117 95.9391 78.961 95.4278 78.649C94.9164 78.337 94.5134 77.8993 94.2188 77.336C93.9241 76.7727 93.7768 76.1313 93.7768 75.412ZM99.8088 75.425C99.8088 74.8877 99.7004 74.4197 99.4838 74.021C99.2671 73.6223 98.9724 73.319 98.5998 73.111C98.2358 72.8943 97.8328 72.786 97.3908 72.786C96.9488 72.786 96.5458 72.89 96.1818 73.098C95.8178 73.306 95.5274 73.6093 95.3108 74.008C95.0941 74.4067 94.9858 74.8747 94.9858 75.412C94.9858 75.958 95.0941 76.4347 95.3108 76.842C95.5274 77.2407 95.8178 77.5483 96.1818 77.765C96.5458 77.973 96.9488 78.077 97.3908 78.077C97.8328 78.077 98.2358 77.973 98.5998 77.765C98.9724 77.5483 99.2671 77.2407 99.4838 76.842C99.7004 76.4347 99.8088 75.9623 99.8088 75.425ZM104.447 72.851V77.05C104.447 77.3967 104.521 77.6437 104.668 77.791C104.815 77.9297 105.071 77.999 105.435 77.999H106.306V79H105.24C104.581 79 104.087 78.8483 103.758 78.545C103.429 78.2417 103.264 77.7433 103.264 77.05V72.851H102.341V71.876H103.264V70.082H104.447V71.876H106.306V72.851H104.447ZM108.35 70.719C108.125 70.719 107.934 70.641 107.778 70.485C107.622 70.329 107.544 70.1383 107.544 69.913C107.544 69.6877 107.622 69.497 107.778 69.341C107.934 69.185 108.125 69.107 108.35 69.107C108.567 69.107 108.749 69.185 108.896 69.341C109.052 69.497 109.13 69.6877 109.13 69.913C109.13 70.1383 109.052 70.329 108.896 70.485C108.749 70.641 108.567 70.719 108.35 70.719ZM108.922 71.876V79H107.739V71.876H108.922ZM114.046 79.117C113.378 79.117 112.772 78.9653 112.226 78.662C111.688 78.3587 111.264 77.9297 110.952 77.375C110.648 76.8117 110.497 76.1617 110.497 75.425C110.497 74.697 110.653 74.0557 110.965 73.501C111.285 72.9377 111.719 72.5087 112.265 72.214C112.811 71.9107 113.422 71.759 114.098 71.759C114.774 71.759 115.385 71.9107 115.931 72.214C116.477 72.5087 116.906 72.9333 117.218 73.488C117.538 74.0427 117.699 74.6883 117.699 75.425C117.699 76.1617 117.534 76.8117 117.205 77.375C116.884 77.9297 116.446 78.3587 115.892 78.662C115.337 78.9653 114.722 79.117 114.046 79.117ZM114.046 78.077C114.47 78.077 114.869 77.9773 115.242 77.778C115.614 77.5787 115.913 77.2797 116.139 76.881C116.373 76.4823 116.49 75.997 116.49 75.425C116.49 74.853 116.377 74.3677 116.152 73.969C115.926 73.5703 115.632 73.2757 115.268 73.085C114.904 72.8857 114.509 72.786 114.085 72.786C113.651 72.786 113.253 72.8857 112.889 73.085C112.533 73.2757 112.247 73.5703 112.031 73.969C111.814 74.3677 111.706 74.853 111.706 75.425C111.706 76.0057 111.81 76.4953 112.018 76.894C112.234 77.2927 112.52 77.5917 112.876 77.791C113.231 77.9817 113.621 78.077 114.046 78.077ZM122.725 71.746C123.592 71.746 124.294 72.0103 124.831 72.539C125.368 73.059 125.637 73.813 125.637 74.801V79H124.467V74.97C124.467 74.2593 124.289 73.7177 123.934 73.345C123.579 72.9637 123.093 72.773 122.478 72.773C121.854 72.773 121.356 72.968 120.983 73.358C120.619 73.748 120.437 74.3157 120.437 75.061V79H119.254V71.876H120.437V72.89C120.671 72.526 120.987 72.2443 121.386 72.045C121.793 71.8457 122.24 71.746 122.725 71.746ZM128.167 68.652L128.011 71.239H127.192L127.023 68.652H128.167ZM132.161 79.117C131.615 79.117 131.125 79.026 130.692 78.844C130.258 78.6533 129.916 78.3933 129.665 78.064C129.413 77.726 129.275 77.3403 129.249 76.907H130.471C130.505 77.2623 130.67 77.5527 130.965 77.778C131.268 78.0033 131.662 78.116 132.148 78.116C132.598 78.116 132.954 78.0163 133.214 77.817C133.474 77.6177 133.604 77.3663 133.604 77.063C133.604 76.751 133.465 76.5213 133.188 76.374C132.91 76.218 132.481 76.0663 131.901 75.919C131.372 75.7803 130.939 75.6417 130.601 75.503C130.271 75.3557 129.985 75.1433 129.743 74.866C129.509 74.58 129.392 74.2073 129.392 73.748C129.392 73.384 129.5 73.0503 129.717 72.747C129.933 72.4437 130.241 72.2053 130.64 72.032C131.038 71.85 131.493 71.759 132.005 71.759C132.793 71.759 133.43 71.9583 133.916 72.357C134.401 72.7557 134.661 73.3017 134.696 73.995H133.513C133.487 73.6223 133.335 73.3233 133.058 73.098C132.789 72.8727 132.425 72.76 131.966 72.76C131.541 72.76 131.203 72.851 130.952 73.033C130.7 73.215 130.575 73.4533 130.575 73.748C130.575 73.982 130.648 74.177 130.796 74.333C130.952 74.4803 131.142 74.6017 131.368 74.697C131.602 74.7837 131.922 74.8833 132.33 74.996C132.841 75.1347 133.257 75.2733 133.578 75.412C133.898 75.542 134.171 75.7413 134.397 76.01C134.631 76.2787 134.752 76.6297 134.761 77.063C134.761 77.453 134.652 77.804 134.436 78.116C134.219 78.428 133.911 78.675 133.513 78.857C133.123 79.0303 132.672 79.117 132.161 79.117ZM139.455 75.412C139.455 74.684 139.602 74.047 139.897 73.501C140.191 72.9463 140.594 72.5173 141.106 72.214C141.626 71.9107 142.202 71.759 142.835 71.759C143.459 71.759 144 71.8933 144.46 72.162C144.919 72.4307 145.261 72.7687 145.487 73.176V71.876H146.683V79H145.487V77.674C145.253 78.09 144.902 78.4367 144.434 78.714C143.974 78.9827 143.437 79.117 142.822 79.117C142.189 79.117 141.617 78.961 141.106 78.649C140.594 78.337 140.191 77.8993 139.897 77.336C139.602 76.7727 139.455 76.1313 139.455 75.412ZM145.487 75.425C145.487 74.8877 145.378 74.4197 145.162 74.021C144.945 73.6223 144.65 73.319 144.278 73.111C143.914 72.8943 143.511 72.786 143.069 72.786C142.627 72.786 142.224 72.89 141.86 73.098C141.496 73.306 141.205 73.6093 140.989 74.008C140.772 74.4067 140.664 74.8747 140.664 75.412C140.664 75.958 140.772 76.4347 140.989 76.842C141.205 77.2407 141.496 77.5483 141.86 77.765C142.224 77.973 142.627 78.077 143.069 78.077C143.511 78.077 143.914 77.973 144.278 77.765C144.65 77.5483 144.945 77.2407 145.162 76.842C145.378 76.4347 145.487 75.9623 145.487 75.425ZM149.865 73.033C150.073 72.6257 150.367 72.3093 150.749 72.084C151.139 71.8587 151.611 71.746 152.166 71.746V72.968H151.854C150.528 72.968 149.865 73.6873 149.865 75.126V79H148.682V71.876H149.865V73.033ZM160.031 75.165C160.031 75.3903 160.018 75.6287 159.992 75.88H154.298C154.342 76.582 154.58 77.1323 155.013 77.531C155.455 77.921 155.988 78.116 156.612 78.116C157.124 78.116 157.548 77.999 157.886 77.765C158.233 77.5223 158.476 77.2017 158.614 76.803H159.888C159.698 77.4877 159.316 78.0467 158.744 78.48C158.172 78.9047 157.462 79.117 156.612 79.117C155.936 79.117 155.33 78.9653 154.792 78.662C154.264 78.3587 153.848 77.9297 153.544 77.375C153.241 76.8117 153.089 76.1617 153.089 75.425C153.089 74.6883 153.237 74.0427 153.531 73.488C153.826 72.9333 154.238 72.5087 154.766 72.214C155.304 71.9107 155.919 71.759 156.612 71.759C157.288 71.759 157.886 71.9063 158.406 72.201C158.926 72.4957 159.325 72.903 159.602 73.423C159.888 73.9343 160.031 74.515 160.031 75.165ZM158.809 74.918C158.809 74.4673 158.71 74.0817 158.51 73.761C158.311 73.4317 158.038 73.1847 157.691 73.02C157.353 72.8467 156.976 72.76 156.56 72.76C155.962 72.76 155.451 72.9507 155.026 73.332C154.61 73.7133 154.372 74.242 154.311 74.918H158.809ZM168.53 71.746C169.396 71.746 170.098 72.0103 170.636 72.539C171.173 73.059 171.442 73.813 171.442 74.801V79H170.272V74.97C170.272 74.2593 170.094 73.7177 169.739 73.345C169.383 72.9637 168.898 72.773 168.283 72.773C167.659 72.773 167.16 72.968 166.788 73.358C166.424 73.748 166.242 74.3157 166.242 75.061V79H165.059V71.876H166.242V72.89C166.476 72.526 166.792 72.2443 167.191 72.045C167.598 71.8457 168.044 71.746 168.53 71.746ZM176.481 79.117C175.814 79.117 175.207 78.9653 174.661 78.662C174.124 78.3587 173.699 77.9297 173.387 77.375C173.084 76.8117 172.932 76.1617 172.932 75.425C172.932 74.697 173.088 74.0557 173.4 73.501C173.721 72.9377 174.154 72.5087 174.7 72.214C175.246 71.9107 175.857 71.759 176.533 71.759C177.209 71.759 177.82 71.9107 178.366 72.214C178.912 72.5087 179.341 72.9333 179.653 73.488C179.974 74.0427 180.134 74.6883 180.134 75.425C180.134 76.1617 179.969 76.8117 179.64 77.375C179.319 77.9297 178.882 78.3587 178.327 78.662C177.772 78.9653 177.157 79.117 176.481 79.117ZM176.481 78.077C176.906 78.077 177.304 77.9773 177.677 77.778C178.05 77.5787 178.349 77.2797 178.574 76.881C178.808 76.4823 178.925 75.997 178.925 75.425C178.925 74.853 178.812 74.3677 178.587 73.969C178.362 73.5703 178.067 73.2757 177.703 73.085C177.339 72.8857 176.945 72.786 176.52 72.786C176.087 72.786 175.688 72.8857 175.324 73.085C174.969 73.2757 174.683 73.5703 174.466 73.969C174.249 74.3677 174.141 74.853 174.141 75.425C174.141 76.0057 174.245 76.4953 174.453 76.894C174.67 77.2927 174.956 77.5917 175.311 77.791C175.666 77.9817 176.056 78.077 176.481 78.077ZM183.132 72.851V77.05C183.132 77.3967 183.206 77.6437 183.353 77.791C183.501 77.9297 183.756 77.999 184.12 77.999H184.991V79H183.925C183.267 79 182.773 78.8483 182.443 78.545C182.114 78.2417 181.949 77.7433 181.949 77.05V72.851H181.026V71.876H181.949V70.082H183.132V71.876H184.991V72.851H183.132ZM192.998 79.117C192.33 79.117 191.724 78.9653 191.178 78.662C190.64 78.3587 190.216 77.9297 189.904 77.375C189.6 76.8117 189.449 76.1617 189.449 75.425C189.449 74.697 189.605 74.0557 189.917 73.501C190.237 72.9377 190.671 72.5087 191.217 72.214C191.763 71.9107 192.374 71.759 193.05 71.759C193.726 71.759 194.337 71.9107 194.883 72.214C195.429 72.5087 195.858 72.9333 196.17 73.488C196.49 74.0427 196.651 74.6883 196.651 75.425C196.651 76.1617 196.486 76.8117 196.157 77.375C195.836 77.9297 195.398 78.3587 194.844 78.662C194.289 78.9653 193.674 79.117 192.998 79.117ZM192.998 78.077C193.422 78.077 193.821 77.9773 194.194 77.778C194.566 77.5787 194.865 77.2797 195.091 76.881C195.325 76.4823 195.442 75.997 195.442 75.425C195.442 74.853 195.329 74.3677 195.104 73.969C194.878 73.5703 194.584 73.2757 194.22 73.085C193.856 72.8857 193.461 72.786 193.037 72.786C192.603 72.786 192.205 72.8857 191.841 73.085C191.485 73.2757 191.199 73.5703 190.983 73.969C190.766 74.3677 190.658 74.853 190.658 75.425C190.658 76.0057 190.762 76.4953 190.97 76.894C191.186 77.2927 191.472 77.5917 191.828 77.791C192.183 77.9817 192.573 78.077 192.998 78.077ZM201.677 71.746C202.544 71.746 203.246 72.0103 203.783 72.539C204.32 73.059 204.589 73.813 204.589 74.801V79H203.419V74.97C203.419 74.2593 203.241 73.7177 202.886 73.345C202.531 72.9637 202.045 72.773 201.43 72.773C200.806 72.773 200.308 72.968 199.935 73.358C199.571 73.748 199.389 74.3157 199.389 75.061V79H198.206V71.876H199.389V72.89C199.623 72.526 199.939 72.2443 200.338 72.045C200.745 71.8457 201.192 71.746 201.677 71.746ZM207.705 69.38V79H206.522V69.38H207.705ZM215.857 71.876L211.567 82.354H210.345L211.749 78.922L208.876 71.876H210.189L212.425 77.648L214.635 71.876H215.857ZM220.07 75.412C220.07 74.684 220.217 74.047 220.512 73.501C220.806 72.9463 221.209 72.5173 221.721 72.214C222.241 71.9107 222.821 71.759 223.463 71.759C224.078 71.759 224.615 71.8977 225.075 72.175C225.543 72.4437 225.885 72.7773 226.102 73.176V71.876H227.298V82.38H226.102V77.687C225.876 78.0857 225.53 78.4237 225.062 78.701C224.594 78.9783 224.048 79.117 223.424 79.117C222.8 79.117 222.232 78.961 221.721 78.649C221.209 78.337 220.806 77.8993 220.512 77.336C220.217 76.7727 220.07 76.1313 220.07 75.412ZM226.102 75.425C226.102 74.8877 225.993 74.4197 225.777 74.021C225.56 73.6223 225.265 73.319 224.893 73.111C224.529 72.8943 224.126 72.786 223.684 72.786C223.242 72.786 222.839 72.89 222.475 73.098C222.111 73.306 221.82 73.6093 221.604 74.008C221.387 74.4067 221.279 74.8747 221.279 75.412C221.279 75.958 221.387 76.4347 221.604 76.842C221.82 77.2407 222.111 77.5483 222.475 77.765C222.839 77.973 223.242 78.077 223.684 78.077C224.126 78.077 224.529 77.973 224.893 77.765C225.265 77.5483 225.56 77.2407 225.777 76.842C225.993 76.4347 226.102 75.9623 226.102 75.425ZM235.615 71.876V79H234.432V77.947C234.207 78.311 233.89 78.597 233.483 78.805C233.084 79.0043 232.642 79.104 232.157 79.104C231.602 79.104 231.104 78.9913 230.662 78.766C230.22 78.532 229.869 78.1853 229.609 77.726C229.358 77.2667 229.232 76.7077 229.232 76.049V71.876H230.402V75.893C230.402 76.595 230.58 77.1367 230.935 77.518C231.29 77.8907 231.776 78.077 232.391 78.077C233.024 78.077 233.522 77.882 233.886 77.492C234.25 77.102 234.432 76.5343 234.432 75.789V71.876H235.615ZM238.223 70.719C237.998 70.719 237.807 70.641 237.651 70.485C237.495 70.329 237.417 70.1383 237.417 69.913C237.417 69.6877 237.495 69.497 237.651 69.341C237.807 69.185 237.998 69.107 238.223 69.107C238.44 69.107 238.622 69.185 238.769 69.341C238.925 69.497 239.003 69.6877 239.003 69.913C239.003 70.1383 238.925 70.329 238.769 70.485C238.622 70.641 238.44 70.719 238.223 70.719ZM238.795 71.876V79H237.612V71.876H238.795ZM240.37 75.425C240.37 74.6883 240.517 74.047 240.812 73.501C241.106 72.9463 241.514 72.5173 242.034 72.214C242.562 71.9107 243.165 71.759 243.841 71.759C244.716 71.759 245.435 71.9713 245.999 72.396C246.571 72.8207 246.948 73.41 247.13 74.164H245.856C245.734 73.7307 245.496 73.3883 245.141 73.137C244.794 72.8857 244.361 72.76 243.841 72.76C243.165 72.76 242.619 72.994 242.203 73.462C241.787 73.9213 241.579 74.5757 241.579 75.425C241.579 76.283 241.787 76.946 242.203 77.414C242.619 77.882 243.165 78.116 243.841 78.116C244.361 78.116 244.794 77.9947 245.141 77.752C245.487 77.5093 245.726 77.1627 245.856 76.712H247.13C246.939 77.44 246.558 78.025 245.986 78.467C245.414 78.9003 244.699 79.117 243.841 79.117C243.165 79.117 242.562 78.9653 242.034 78.662C241.514 78.3587 241.106 77.9297 240.812 77.375C240.517 76.8203 240.37 76.1703 240.37 75.425ZM252.686 79L249.891 75.854V79H248.708V69.38H249.891V75.035L252.634 71.876H254.285L250.931 75.425L254.298 79H252.686ZM260.047 73.202C260.29 72.7773 260.645 72.4307 261.113 72.162C261.581 71.8933 262.114 71.759 262.712 71.759C263.354 71.759 263.93 71.9107 264.441 72.214C264.953 72.5173 265.356 72.9463 265.65 73.501C265.945 74.047 266.092 74.684 266.092 75.412C266.092 76.1313 265.945 76.7727 265.65 77.336C265.356 77.8993 264.948 78.337 264.428 78.649C263.917 78.961 263.345 79.117 262.712 79.117C262.097 79.117 261.555 78.9827 261.087 78.714C260.628 78.4453 260.281 78.103 260.047 77.687V79H258.864V69.38H260.047V73.202ZM264.883 75.412C264.883 74.8747 264.775 74.4067 264.558 74.008C264.342 73.6093 264.047 73.306 263.674 73.098C263.31 72.89 262.907 72.786 262.465 72.786C262.032 72.786 261.629 72.8943 261.256 73.111C260.892 73.319 260.598 73.6267 260.372 74.034C260.156 74.4327 260.047 74.8963 260.047 75.425C260.047 75.9623 260.156 76.4347 260.372 76.842C260.598 77.2407 260.892 77.5483 261.256 77.765C261.629 77.973 262.032 78.077 262.465 78.077C262.907 78.077 263.31 77.973 263.674 77.765C264.047 77.5483 264.342 77.2407 264.558 76.842C264.775 76.4347 264.883 75.958 264.883 75.412ZM273.967 71.876V79H272.784V77.947C272.559 78.311 272.243 78.597 271.835 78.805C271.437 79.0043 270.995 79.104 270.509 79.104C269.955 79.104 269.456 78.9913 269.014 78.766C268.572 78.532 268.221 78.1853 267.961 77.726C267.71 77.2667 267.584 76.7077 267.584 76.049V71.876H268.754V75.893C268.754 76.595 268.932 77.1367 269.287 77.518C269.643 77.8907 270.128 78.077 270.743 78.077C271.376 78.077 271.874 77.882 272.238 77.492C272.602 77.102 272.784 76.5343 272.784 75.789V71.876H273.967ZM277.408 72.851V77.05C277.408 77.3967 277.482 77.6437 277.629 77.791C277.776 77.9297 278.032 77.999 278.396 77.999H279.267V79H278.201C277.542 79 277.048 78.8483 276.719 78.545C276.39 78.2417 276.225 77.7433 276.225 77.05V72.851H275.302V71.876H276.225V70.082H277.408V71.876H279.267V72.851H277.408ZM23.559 95.412C23.559 94.684 23.7063 94.047 24.001 93.501C24.2957 92.9463 24.6987 92.5173 25.21 92.214C25.73 91.9107 26.3063 91.759 26.939 91.759C27.563 91.759 28.1047 91.8933 28.564 92.162C29.0233 92.4307 29.3657 92.7687 29.591 93.176V91.876H30.787V99H29.591V97.674C29.357 98.09 29.006 98.4367 28.538 98.714C28.0787 98.9827 27.5413 99.117 26.926 99.117C26.2933 99.117 25.7213 98.961 25.21 98.649C24.6987 98.337 24.2957 97.8993 24.001 97.336C23.7063 96.7727 23.559 96.1313 23.559 95.412ZM29.591 95.425C29.591 94.8877 29.4827 94.4197 29.266 94.021C29.0493 93.6223 28.7547 93.319 28.382 93.111C28.018 92.8943 27.615 92.786 27.173 92.786C26.731 92.786 26.328 92.89 25.964 93.098C25.6 93.306 25.3097 93.6093 25.093 94.008C24.8763 94.4067 24.768 94.8747 24.768 95.412C24.768 95.958 24.8763 96.4347 25.093 96.842C25.3097 97.2407 25.6 97.5483 25.964 97.765C26.328 97.973 26.731 98.077 27.173 98.077C27.615 98.077 28.018 97.973 28.382 97.765C28.7547 97.5483 29.0493 97.2407 29.266 96.842C29.4827 96.4347 29.591 95.9623 29.591 95.425ZM33.9692 89.38V99H32.7862V89.38H33.9692ZM38.5074 99.117C37.9614 99.117 37.4717 99.026 37.0384 98.844C36.605 98.6533 36.2627 98.3933 36.0114 98.064C35.76 97.726 35.6214 97.3403 35.5954 96.907H36.8174C36.852 97.2623 37.0167 97.5527 37.3114 97.778C37.6147 98.0033 38.009 98.116 38.4944 98.116C38.945 98.116 39.3004 98.0163 39.5604 97.817C39.8204 97.6177 39.9504 97.3663 39.9504 97.063C39.9504 96.751 39.8117 96.5213 39.5344 96.374C39.257 96.218 38.828 96.0663 38.2474 95.919C37.7187 95.7803 37.2854 95.6417 36.9474 95.503C36.618 95.3557 36.332 95.1433 36.0894 94.866C35.8554 94.58 35.7384 94.2073 35.7384 93.748C35.7384 93.384 35.8467 93.0503 36.0634 92.747C36.28 92.4437 36.5877 92.2053 36.9864 92.032C37.385 91.85 37.84 91.759 38.3514 91.759C39.14 91.759 39.777 91.9583 40.2624 92.357C40.7477 92.7557 41.0077 93.3017 41.0424 93.995H39.8594C39.8334 93.6223 39.6817 93.3233 39.4044 93.098C39.1357 92.8727 38.7717 92.76 38.3124 92.76C37.8877 92.76 37.5497 92.851 37.2984 93.033C37.047 93.215 36.9214 93.4533 36.9214 93.748C36.9214 93.982 36.995 94.177 37.1424 94.333C37.2984 94.4803 37.489 94.6017 37.7144 94.697C37.9484 94.7837 38.269 94.8833 38.6764 94.996C39.1877 95.1347 39.6037 95.2733 39.9244 95.412C40.245 95.542 40.518 95.7413 40.7434 96.01C40.9774 96.2787 41.0987 96.6297 41.1074 97.063C41.1074 97.453 40.999 97.804 40.7824 98.116C40.5657 98.428 40.258 98.675 39.8594 98.857C39.4694 99.0303 39.0187 99.117 38.5074 99.117ZM45.8844 99.117C45.217 99.117 44.6104 98.9653 44.0644 98.662C43.527 98.3587 43.1024 97.9297 42.7904 97.375C42.487 96.8117 42.3354 96.1617 42.3354 95.425C42.3354 94.697 42.4914 94.0557 42.8034 93.501C43.124 92.9377 43.5574 92.5087 44.1034 92.214C44.6494 91.9107 45.2604 91.759 45.9364 91.759C46.6124 91.759 47.2234 91.9107 47.7694 92.214C48.3154 92.5087 48.7444 92.9333 49.0564 93.488C49.377 94.0427 49.5374 94.6883 49.5374 95.425C49.5374 96.1617 49.3727 96.8117 49.0434 97.375C48.7227 97.9297 48.285 98.3587 47.7304 98.662C47.1757 98.9653 46.5604 99.117 45.8844 99.117ZM45.8844 98.077C46.309 98.077 46.7077 97.9773 47.0804 97.778C47.453 97.5787 47.752 97.2797 47.9774 96.881C48.2114 96.4823 48.3284 95.997 48.3284 95.425C48.3284 94.853 48.2157 94.3677 47.9904 93.969C47.765 93.5703 47.4704 93.2757 47.1064 93.085C46.7424 92.8857 46.348 92.786 45.9234 92.786C45.49 92.786 45.0914 92.8857 44.7274 93.085C44.372 93.2757 44.086 93.5703 43.8694 93.969C43.6527 94.3677 43.5444 94.853 43.5444 95.425C43.5444 96.0057 43.6484 96.4953 43.8564 96.894C44.073 97.2927 44.359 97.5917 44.7144 97.791C45.0697 97.9817 45.4597 98.077 45.8844 98.077Z" fill="#B6B6B6"/>
<path d="M55.7416 93.189C55.9756 92.7817 56.3223 92.4437 56.7816 92.175C57.2496 91.8977 57.7913 91.759 58.4066 91.759C59.0393 91.759 59.6113 91.9107 60.1226 92.214C60.6426 92.5173 61.05 92.9463 61.3446 93.501C61.6393 94.047 61.7866 94.684 61.7866 95.412C61.7866 96.1313 61.6393 96.7727 61.3446 97.336C61.05 97.8993 60.6426 98.337 60.1226 98.649C59.6113 98.961 59.0393 99.117 58.4066 99.117C57.8 99.117 57.2626 98.9827 56.7946 98.714C56.3353 98.4367 55.9843 98.0943 55.7416 97.687V102.38H54.5586V91.876H55.7416V93.189ZM60.5776 95.412C60.5776 94.8747 60.4693 94.4067 60.2526 94.008C60.036 93.6093 59.7413 93.306 59.3686 93.098C59.0046 92.89 58.6016 92.786 58.1596 92.786C57.7263 92.786 57.3233 92.8943 56.9506 93.111C56.5866 93.319 56.292 93.6267 56.0666 94.034C55.85 94.4327 55.7416 94.8963 55.7416 95.425C55.7416 95.9623 55.85 96.4347 56.0666 96.842C56.292 97.2407 56.5866 97.5483 56.9506 97.765C57.3233 97.973 57.7263 98.077 58.1596 98.077C58.6016 98.077 59.0046 97.973 59.3686 97.765C59.7413 97.5483 60.036 97.2407 60.2526 96.842C60.4693 96.4347 60.5776 95.958 60.5776 95.412ZM64.5268 93.033C64.7348 92.6257 65.0294 92.3093 65.4108 92.084C65.8008 91.8587 66.2731 91.746 66.8278 91.746V92.968H66.5158C65.1898 92.968 64.5268 93.6873 64.5268 95.126V99H63.3438V91.876H64.5268V93.033ZM71.3004 99.117C70.633 99.117 70.0264 98.9653 69.4804 98.662C68.943 98.3587 68.5184 97.9297 68.2064 97.375C67.903 96.8117 67.7514 96.1617 67.7514 95.425C67.7514 94.697 67.9074 94.0557 68.2194 93.501C68.54 92.9377 68.9734 92.5087 69.5194 92.214C70.0654 91.9107 70.6764 91.759 71.3524 91.759C72.0284 91.759 72.6394 91.9107 73.1854 92.214C73.7314 92.5087 74.1604 92.9333 74.4724 93.488C74.793 94.0427 74.9534 94.6883 74.9534 95.425C74.9534 96.1617 74.7887 96.8117 74.4594 97.375C74.1387 97.9297 73.701 98.3587 73.1464 98.662C72.5917 98.9653 71.9764 99.117 71.3004 99.117ZM71.3004 98.077C71.725 98.077 72.1237 97.9773 72.4964 97.778C72.869 97.5787 73.168 97.2797 73.3934 96.881C73.6274 96.4823 73.7444 95.997 73.7444 95.425C73.7444 94.853 73.6317 94.3677 73.4064 93.969C73.181 93.5703 72.8864 93.2757 72.5224 93.085C72.1584 92.8857 71.764 92.786 71.3394 92.786C70.906 92.786 70.5074 92.8857 70.1434 93.085C69.788 93.2757 69.502 93.5703 69.2854 93.969C69.0687 94.3677 68.9604 94.853 68.9604 95.425C68.9604 96.0057 69.0644 96.4953 69.2724 96.894C69.489 97.2927 69.775 97.5917 70.1304 97.791C70.4857 97.9817 70.8757 98.077 71.3004 98.077ZM77.9518 92.851V97.05C77.9518 97.3967 78.0255 97.6437 78.1728 97.791C78.3201 97.9297 78.5758 97.999 78.9398 97.999H79.8108V99H78.7448C78.0861 99 77.5921 98.8483 77.2628 98.545C76.9335 98.2417 76.7688 97.7433 76.7688 97.05V92.851H75.8458V91.876H76.7688V90.082H77.9518V91.876H79.8108V92.851H77.9518ZM87.7442 95.165C87.7442 95.3903 87.7312 95.6287 87.7052 95.88H82.0112C82.0545 96.582 82.2928 97.1323 82.7262 97.531C83.1682 97.921 83.7012 98.116 84.3252 98.116C84.8365 98.116 85.2612 97.999 85.5992 97.765C85.9458 97.5223 86.1885 97.2017 86.3272 96.803H87.6012C87.4105 97.4877 87.0292 98.0467 86.4572 98.48C85.8852 98.9047 85.1745 99.117 84.3252 99.117C83.6492 99.117 83.0425 98.9653 82.5052 98.662C81.9765 98.3587 81.5605 97.9297 81.2572 97.375C80.9538 96.8117 80.8022 96.1617 80.8022 95.425C80.8022 94.6883 80.9495 94.0427 81.2442 93.488C81.5388 92.9333 81.9505 92.5087 82.4792 92.214C83.0165 91.9107 83.6318 91.759 84.3252 91.759C85.0012 91.759 85.5992 91.9063 86.1192 92.201C86.6392 92.4957 87.0378 92.903 87.3152 93.423C87.6012 93.9343 87.7442 94.515 87.7442 95.165ZM86.5222 94.918C86.5222 94.4673 86.4225 94.0817 86.2232 93.761C86.0238 93.4317 85.7508 93.1847 85.4042 93.02C85.0662 92.8467 84.6892 92.76 84.2732 92.76C83.6752 92.76 83.1638 92.9507 82.7392 93.332C82.3232 93.7133 82.0848 94.242 82.0242 94.918H86.5222ZM88.8637 95.425C88.8637 94.6883 89.011 94.047 89.3057 93.501C89.6004 92.9463 90.0077 92.5173 90.5277 92.214C91.0564 91.9107 91.6587 91.759 92.3347 91.759C93.21 91.759 93.9294 91.9713 94.4927 92.396C95.0647 92.8207 95.4417 93.41 95.6237 94.164H94.3497C94.2284 93.7307 93.99 93.3883 93.6347 93.137C93.288 92.8857 92.8547 92.76 92.3347 92.76C91.6587 92.76 91.1127 92.994 90.6967 93.462C90.2807 93.9213 90.0727 94.5757 90.0727 95.425C90.0727 96.283 90.2807 96.946 90.6967 97.414C91.1127 97.882 91.6587 98.116 92.3347 98.116C92.8547 98.116 93.288 97.9947 93.6347 97.752C93.9814 97.5093 94.2197 97.1627 94.3497 96.712H95.6237C95.433 97.44 95.0517 98.025 94.4797 98.467C93.9077 98.9003 93.1927 99.117 92.3347 99.117C91.6587 99.117 91.0564 98.9653 90.5277 98.662C90.0077 98.3587 89.6004 97.9297 89.3057 97.375C89.011 96.8203 88.8637 96.1703 88.8637 95.425ZM98.6452 92.851V97.05C98.6452 97.3967 98.7188 97.6437 98.8662 97.791C99.0135 97.9297 99.2692 97.999 99.6332 97.999H100.504V99H99.4382C98.7795 99 98.2855 98.8483 97.9562 98.545C97.6268 98.2417 97.4622 97.7433 97.4622 97.05V92.851H96.5392V91.876H97.4622V90.082H98.6452V91.876H100.504V92.851H98.6452ZM108.438 95.165C108.438 95.3903 108.425 95.6287 108.399 95.88H102.705C102.748 96.582 102.986 97.1323 103.42 97.531C103.862 97.921 104.395 98.116 105.019 98.116C105.53 98.116 105.955 97.999 106.293 97.765C106.639 97.5223 106.882 97.2017 107.021 96.803H108.295C108.104 97.4877 107.723 98.0467 107.151 98.48C106.579 98.9047 105.868 99.117 105.019 99.117C104.343 99.117 103.736 98.9653 103.199 98.662C102.67 98.3587 102.254 97.9297 101.951 97.375C101.647 96.8117 101.496 96.1617 101.496 95.425C101.496 94.6883 101.643 94.0427 101.938 93.488C102.232 92.9333 102.644 92.5087 103.173 92.214C103.71 91.9107 104.325 91.759 105.019 91.759C105.695 91.759 106.293 91.9063 106.813 92.201C107.333 92.4957 107.731 92.903 108.009 93.423C108.295 93.9343 108.438 94.515 108.438 95.165ZM107.216 94.918C107.216 94.4673 107.116 94.0817 106.917 93.761C106.717 93.4317 106.444 93.1847 106.098 93.02C105.76 92.8467 105.383 92.76 104.967 92.76C104.369 92.76 103.857 92.9507 103.433 93.332C103.017 93.7133 102.778 94.242 102.718 94.918H107.216ZM109.557 95.412C109.557 94.684 109.704 94.047 109.999 93.501C110.294 92.9463 110.697 92.5173 111.208 92.214C111.728 91.9107 112.309 91.759 112.95 91.759C113.505 91.759 114.02 91.889 114.497 92.149C114.974 92.4003 115.338 92.734 115.589 93.15V89.38H116.785V99H115.589V97.661C115.355 98.0857 115.008 98.4367 114.549 98.714C114.09 98.9827 113.552 99.117 112.937 99.117C112.304 99.117 111.728 98.961 111.208 98.649C110.697 98.337 110.294 97.8993 109.999 97.336C109.704 96.7727 109.557 96.1313 109.557 95.412ZM115.589 95.425C115.589 94.8877 115.481 94.4197 115.264 94.021C115.047 93.6223 114.753 93.319 114.38 93.111C114.016 92.8943 113.613 92.786 113.171 92.786C112.729 92.786 112.326 92.89 111.962 93.098C111.598 93.306 111.308 93.6093 111.091 94.008C110.874 94.4067 110.766 94.8747 110.766 95.412C110.766 95.958 110.874 96.4347 111.091 96.842C111.308 97.2407 111.598 97.5483 111.962 97.765C112.326 97.973 112.729 98.077 113.171 98.077C113.613 98.077 114.016 97.973 114.38 97.765C114.753 97.5483 115.047 97.2407 115.264 96.842C115.481 96.4347 115.589 95.9623 115.589 95.425ZM119.161 99.078C118.936 99.078 118.745 99 118.589 98.844C118.433 98.688 118.355 98.4973 118.355 98.272C118.355 98.0467 118.433 97.856 118.589 97.7C118.745 97.544 118.936 97.466 119.161 97.466C119.378 97.466 119.56 97.544 119.707 97.7C119.863 97.856 119.941 98.0467 119.941 98.272C119.941 98.4973 119.863 98.688 119.707 98.844C119.56 99 119.378 99.078 119.161 99.078Z" fill="white"/>
</g>
<defs>
<filter id="filter0_d_327_452" x="0" y="0" width="309" height="143" filterUnits="userSpaceOnUse" color-interpolation-filters="sRGB">
<feFlood flood-opacity="0" result="BackgroundImageFix"/>
<feColorMatrix in="SourceAlpha" type="matrix" values="0 0 0 0 0 0 0 0 0 0 0 0 0 0 0 0 0 0 127 0" result="hardAlpha"/>
<feOffset dy="4"/>
<feGaussianBlur stdDeviation="2"/>
<feComposite in2="hardAlpha" operator="out"/>
<feColorMatrix type="matrix" values="0 0 0 0 0 0 0 0 0 0 0 0 0 0 0 0 0 0 0.25 0"/>
<feBlend mode="normal" in2="BackgroundImageFix" result="effect1_dropShadow_327_452"/>
<feBlend mode="normal" in="SourceGraphic" in2="effect1_dropShadow_327_452" result="shape"/>
</filter>
<filter id="filter1_b_327_452" x="-46" y="-50" width="401" height="235" filterUnits="userSpaceOnUse" color-interpolation-filters="sRGB">
<feFlood flood-opacity="0" result="BackgroundImageFix"/>
<feGaussianBlur in="BackgroundImageFix" stdDeviation="25"/>
<feComposite in2="SourceAlpha" operator="in" result="effect1_backgroundBlur_327_452"/>
<feBlend mode="normal" in="SourceGraphic" in2="effect1_backgroundBlur_327_452" result="shape"/>
</filter>
<linearGradient id="paint0_linear_327_452" x1="337.5" y1="276.5" x2="139" y2="28.5" gradientUnits="userSpaceOnUse">
<stop stop-color="#161616"/>
<stop offset="1" stop-color="#737373"/>
</linearGradient>
</defs>
</svg>
