<svg width="301" height="135" viewBox="0 0 301 135" fill="none" xmlns="http://www.w3.org/2000/svg">
<g filter="url(#filter0_b_327_411)">
<mask id="path-1-inside-1_327_411" fill="white">
<path fill-rule="evenodd" clip-rule="evenodd" d="M10 0C4.47715 0 0 4.47715 0 10V125C0 130.523 4.47716 135 10 135H251.914L252.181 132.8C251.918 132.391 251.659 131.968 251.406 131.532L243.546 128.683C243.137 128.533 242.768 128.289 242.469 127.971C242.171 127.653 241.95 127.27 241.826 126.852C240.876 123.657 240.356 120.35 240.279 117.018C240.268 116.58 240.361 116.144 240.549 115.748C240.737 115.352 241.016 115.005 241.363 114.736L247.966 109.612L248.321 108.141L244.796 100.591C244.609 100.193 244.518 99.7576 244.531 99.3187C244.544 98.8798 244.659 98.45 244.868 98.064C246.458 95.1352 248.428 92.4298 250.728 90.0185C251.029 89.7025 251.4 89.4612 251.811 89.3139C252.222 89.1666 252.662 89.1173 253.095 89.17L261.417 90.1952C261.827 89.9313 262.25 89.6729 262.686 89.4202L265.538 81.546C265.688 81.1366 265.932 80.7678 266.25 80.4692C266.568 80.1706 266.951 79.9503 267.369 79.8259C270.564 78.8777 273.871 78.3574 277.203 78.2787C277.642 78.2681 278.077 78.3606 278.473 78.549C278.87 78.7373 279.216 79.0162 279.485 79.363L284.609 85.9659L286.08 86.321L293.63 82.7956C294.028 82.609 294.464 82.5184 294.902 82.531C295.341 82.5437 295.771 82.6593 296.157 82.8685C297.851 83.7875 299.47 84.8339 301 85.9977V10C301 4.47715 296.523 0 291 0H10ZM301 105.054C300.754 104.835 300.546 104.573 300.388 104.277C299.911 103.381 299.381 102.514 298.802 101.681C298.406 101.111 298.235 100.415 298.322 99.7271L299.306 91.8308C297.876 90.5787 296.338 89.4561 294.71 88.4762L287.492 91.8477C286.863 92.1424 286.147 92.193 285.483 91.9897C284.512 91.6943 283.525 91.456 282.527 91.2762C281.843 91.1541 281.229 90.7824 280.804 90.2332L275.929 83.9427C274.033 84.0713 272.152 84.3687 270.309 84.8312L267.599 92.3108C267.362 92.9647 266.891 93.5073 266.276 93.8331C265.381 94.3105 264.514 94.8402 263.681 95.4193C263.111 95.8155 262.415 95.9864 261.727 95.899L253.831 94.9155C252.579 96.3451 251.456 97.8831 250.476 99.5114L253.848 106.729C254.142 107.358 254.193 108.074 253.99 108.738C253.694 109.709 253.456 110.696 253.276 111.694C253.154 112.378 252.782 112.992 252.233 113.417L245.943 118.292C246.071 120.188 246.369 122.069 246.831 123.912L254.313 126.626C254.966 126.863 255.507 127.332 255.833 127.945C256.311 128.84 256.84 129.707 257.419 130.54C257.815 131.11 257.986 131.806 257.899 132.494L257.587 135H291C296.523 135 301 130.523 301 125V105.054ZM272.31 100.327C275.432 99.1803 278.823 98.9845 282.056 99.7649C286.389 100.816 290.128 103.542 292.453 107.346C294.777 111.15 295.498 115.721 294.456 120.056C293.676 123.289 291.954 126.218 289.509 128.473C287.064 130.727 284.006 132.206 280.72 132.722C277.435 133.238 274.07 132.769 271.052 131.372C268.033 129.976 265.496 127.717 263.762 124.879C262.028 122.041 261.174 118.753 261.309 115.43C261.444 112.107 262.561 108.898 264.519 106.21C266.477 103.522 269.189 101.475 272.31 100.327ZM269.869 123.71C271.372 125.34 273.325 126.487 275.48 127.008C278.37 127.705 281.419 127.226 283.956 125.676C286.493 124.126 288.31 121.631 289.008 118.741C289.528 116.586 289.397 114.325 288.633 112.244C287.868 110.163 286.503 108.355 284.711 107.05C282.919 105.744 280.78 104.999 278.565 104.91C276.349 104.82 274.157 105.389 272.265 106.545C270.373 107.701 268.867 109.392 267.936 111.405C267.005 113.417 266.692 115.66 267.036 117.85C267.38 120.041 268.366 122.08 269.869 123.71Z"/>
</mask>
<path fill-rule="evenodd" clip-rule="evenodd" d="M10 0C4.47715 0 0 4.47715 0 10V125C0 130.523 4.47716 135 10 135H251.914L252.181 132.8C251.918 132.391 251.659 131.968 251.406 131.532L243.546 128.683C243.137 128.533 242.768 128.289 242.469 127.971C242.171 127.653 241.95 127.27 241.826 126.852C240.876 123.657 240.356 120.35 240.279 117.018C240.268 116.58 240.361 116.144 240.549 115.748C240.737 115.352 241.016 115.005 241.363 114.736L247.966 109.612L248.321 108.141L244.796 100.591C244.609 100.193 244.518 99.7576 244.531 99.3187C244.544 98.8798 244.659 98.45 244.868 98.064C246.458 95.1352 248.428 92.4298 250.728 90.0185C251.029 89.7025 251.4 89.4612 251.811 89.3139C252.222 89.1666 252.662 89.1173 253.095 89.17L261.417 90.1952C261.827 89.9313 262.25 89.6729 262.686 89.4202L265.538 81.546C265.688 81.1366 265.932 80.7678 266.25 80.4692C266.568 80.1706 266.951 79.9503 267.369 79.8259C270.564 78.8777 273.871 78.3574 277.203 78.2787C277.642 78.2681 278.077 78.3606 278.473 78.549C278.87 78.7373 279.216 79.0162 279.485 79.363L284.609 85.9659L286.08 86.321L293.63 82.7956C294.028 82.609 294.464 82.5184 294.902 82.531C295.341 82.5437 295.771 82.6593 296.157 82.8685C297.851 83.7875 299.47 84.8339 301 85.9977V10C301 4.47715 296.523 0 291 0H10ZM301 105.054C300.754 104.835 300.546 104.573 300.388 104.277C299.911 103.381 299.381 102.514 298.802 101.681C298.406 101.111 298.235 100.415 298.322 99.7271L299.306 91.8308C297.876 90.5787 296.338 89.4561 294.71 88.4762L287.492 91.8477C286.863 92.1424 286.147 92.193 285.483 91.9897C284.512 91.6943 283.525 91.456 282.527 91.2762C281.843 91.1541 281.229 90.7824 280.804 90.2332L275.929 83.9427C274.033 84.0713 272.152 84.3687 270.309 84.8312L267.599 92.3108C267.362 92.9647 266.891 93.5073 266.276 93.8331C265.381 94.3105 264.514 94.8402 263.681 95.4193C263.111 95.8155 262.415 95.9864 261.727 95.899L253.831 94.9155C252.579 96.3451 251.456 97.8831 250.476 99.5114L253.848 106.729C254.142 107.358 254.193 108.074 253.99 108.738C253.694 109.709 253.456 110.696 253.276 111.694C253.154 112.378 252.782 112.992 252.233 113.417L245.943 118.292C246.071 120.188 246.369 122.069 246.831 123.912L254.313 126.626C254.966 126.863 255.507 127.332 255.833 127.945C256.311 128.84 256.84 129.707 257.419 130.54C257.815 131.11 257.986 131.806 257.899 132.494L257.587 135H291C296.523 135 301 130.523 301 125V105.054ZM272.31 100.327C275.432 99.1803 278.823 98.9845 282.056 99.7649C286.389 100.816 290.128 103.542 292.453 107.346C294.777 111.15 295.498 115.721 294.456 120.056C293.676 123.289 291.954 126.218 289.509 128.473C287.064 130.727 284.006 132.206 280.72 132.722C277.435 133.238 274.07 132.769 271.052 131.372C268.033 129.976 265.496 127.717 263.762 124.879C262.028 122.041 261.174 118.753 261.309 115.43C261.444 112.107 262.561 108.898 264.519 106.21C266.477 103.522 269.189 101.475 272.31 100.327ZM269.869 123.71C271.372 125.34 273.325 126.487 275.48 127.008C278.37 127.705 281.419 127.226 283.956 125.676C286.493 124.126 288.31 121.631 289.008 118.741C289.528 116.586 289.397 114.325 288.633 112.244C287.868 110.163 286.503 108.355 284.711 107.05C282.919 105.744 280.78 104.999 278.565 104.91C276.349 104.82 274.157 105.389 272.265 106.545C270.373 107.701 268.867 109.392 267.936 111.405C267.005 113.417 266.692 115.66 267.036 117.85C267.38 120.041 268.366 122.08 269.869 123.71Z" fill="url(#paint0_linear_327_411)" fill-opacity="0.5"/>
<path d="M251.914 135V136H252.8L252.907 135.121L251.914 135ZM252.181 132.8L253.174 132.921L253.218 132.563L253.022 132.259L252.181 132.8ZM251.406 131.532L252.272 131.03L252.089 130.716L251.747 130.592L251.406 131.532ZM243.546 128.683L243.201 129.622L243.205 129.623L243.546 128.683ZM241.826 126.852L240.867 127.137L240.867 127.137L241.826 126.852ZM240.279 117.018L241.278 116.995L241.278 116.994L240.279 117.018ZM240.549 115.748L241.452 116.177L241.452 116.177L240.549 115.748ZM241.363 114.736L241.976 115.526L241.976 115.526L241.363 114.736ZM247.966 109.612L248.579 110.402L248.856 110.188L248.938 109.847L247.966 109.612ZM248.321 108.141L249.293 108.376L249.375 108.035L249.227 107.718L248.321 108.141ZM244.796 100.591L245.702 100.168L245.701 100.166L244.796 100.591ZM244.531 99.3187L245.531 99.3476L245.531 99.3475L244.531 99.3187ZM244.868 98.064L243.99 97.5871L243.989 97.5875L244.868 98.064ZM250.728 90.0185L251.452 90.7087L251.452 90.7084L250.728 90.0185ZM251.811 89.3139L252.148 90.2552L252.148 90.2552L251.811 89.3139ZM253.095 89.17L253.217 88.1775L253.216 88.1773L253.095 89.17ZM261.417 90.1952L261.295 91.1877L261.655 91.2319L261.959 91.0358L261.417 90.1952ZM262.686 89.4202L263.187 90.2852L263.502 90.1027L263.626 89.7607L262.686 89.4202ZM265.538 81.546L264.599 81.2013L264.598 81.2055L265.538 81.546ZM267.369 79.8259L267.085 78.8672L267.084 78.8674L267.369 79.8259ZM277.203 78.2787L277.226 79.2784L277.227 79.2784L277.203 78.2787ZM278.473 78.549L278.902 77.6457L278.902 77.6457L278.473 78.549ZM279.485 79.363L278.695 79.9758L278.695 79.9761L279.485 79.363ZM284.609 85.9659L283.819 86.5789L284.034 86.8557L284.374 86.9379L284.609 85.9659ZM286.08 86.321L285.845 87.2931L286.186 87.3752L286.503 87.2271L286.08 86.321ZM293.63 82.7956L294.054 83.7017L294.055 83.7008L293.63 82.7956ZM296.157 82.8685L296.634 81.9896L296.634 81.9894L296.157 82.8685ZM301 85.9977L300.395 86.7937L302 88.0145V85.9977H301ZM300.388 104.277L301.271 103.807L301.27 103.806L300.388 104.277ZM301 105.054H302V104.605L301.664 104.307L301 105.054ZM298.802 101.681L299.623 101.11L299.623 101.11L298.802 101.681ZM298.322 99.7271L299.314 99.8531L299.314 99.8508L298.322 99.7271ZM299.306 91.8308L300.298 91.9544L300.364 91.428L299.965 91.0785L299.306 91.8308ZM294.71 88.4762L295.225 87.6194L294.769 87.3448L294.287 87.5702L294.71 88.4762ZM287.492 91.8477L287.069 90.9417L287.068 90.9422L287.492 91.8477ZM285.483 91.9897L285.775 91.0335L285.774 91.0331L285.483 91.9897ZM282.527 91.2762L282.704 90.2921L282.703 90.2918L282.527 91.2762ZM280.804 90.2332L281.594 89.621L281.594 89.6207L280.804 90.2332ZM275.929 83.9427L276.72 83.3302L276.393 82.909L275.862 82.945L275.929 83.9427ZM270.309 84.8312L270.066 83.8613L269.55 83.9907L269.369 84.4906L270.309 84.8312ZM267.599 92.3108L266.659 91.9701L266.659 91.9704L267.599 92.3108ZM266.276 93.8331L265.808 92.9496L265.806 92.9507L266.276 93.8331ZM263.681 95.4193L263.11 94.598L263.11 94.5984L263.681 95.4193ZM261.727 95.899L261.853 94.907L261.851 94.9067L261.727 95.899ZM253.831 94.9155L253.954 93.9231L253.428 93.8576L253.079 94.2566L253.831 94.9155ZM250.476 99.5114L249.619 98.9958L249.345 99.4521L249.57 99.9346L250.476 99.5114ZM253.848 106.729L252.942 107.152L252.942 107.153L253.848 106.729ZM253.99 108.738L253.033 108.446L253.033 108.447L253.99 108.738ZM253.276 111.694L252.292 111.517L252.292 111.518L253.276 111.694ZM252.233 113.417L251.621 112.627L251.621 112.627L252.233 113.417ZM245.943 118.292L245.33 117.502L244.909 117.828L244.945 118.36L245.943 118.292ZM246.831 123.912L245.861 124.156L245.991 124.671L246.49 124.852L246.831 123.912ZM254.313 126.626L253.972 127.566L253.973 127.567L254.313 126.626ZM255.833 127.945L254.95 128.415L254.951 128.415L255.833 127.945ZM257.419 130.54L256.598 131.111L256.598 131.111L257.419 130.54ZM257.899 132.494L256.907 132.368L256.907 132.37L257.899 132.494ZM257.587 135L256.595 134.876L256.455 136H257.587V135ZM282.056 99.7649L282.292 98.793L282.291 98.7928L282.056 99.7649ZM294.456 120.056L295.428 120.291L295.429 120.29L294.456 120.056ZM289.509 128.473L288.831 127.737L288.831 127.737L289.509 128.473ZM280.72 132.722L280.876 133.71L280.876 133.71L280.72 132.722ZM263.762 124.879L262.909 125.4L262.909 125.4L263.762 124.879ZM261.309 115.43L260.31 115.389L260.31 115.389L261.309 115.43ZM275.48 127.008L275.245 127.98L275.245 127.98L275.48 127.008ZM269.869 123.71L269.134 124.388L269.134 124.388L269.869 123.71ZM283.956 125.676L283.435 124.823L283.435 124.823L283.956 125.676ZM289.008 118.741L288.036 118.506L288.036 118.506L289.008 118.741ZM288.633 112.244L289.571 111.899L289.571 111.899L288.633 112.244ZM284.711 107.05L284.122 107.858L284.122 107.858L284.711 107.05ZM267.936 111.405L268.844 111.824L268.844 111.824L267.936 111.405ZM1 10C1 5.02944 5.02944 1 10 1V-1C3.92487 -1 -1 3.92487 -1 10H1ZM1 125V10H-1V125H1ZM10 134C5.02944 134 1 129.971 1 125H-1C-1 131.075 3.92488 136 10 136V134ZM251.914 134H10V136H251.914V134ZM251.189 132.68L250.922 134.879L252.907 135.121L253.174 132.921L251.189 132.68ZM250.541 132.034C250.802 132.483 251.068 132.919 251.341 133.342L253.022 132.259C252.767 131.863 252.517 131.453 252.272 131.03L250.541 132.034ZM243.205 129.623L251.066 132.472L251.747 130.592L243.887 127.743L243.205 129.623ZM241.74 128.656C242.145 129.087 242.646 129.418 243.201 129.622L243.891 127.745C243.627 127.648 243.39 127.491 243.198 127.287L241.74 128.656ZM240.867 127.137C241.036 127.704 241.335 128.224 241.74 128.656L243.198 127.287C243.006 127.082 242.864 126.836 242.784 126.567L240.867 127.137ZM239.279 117.042C239.358 120.462 239.892 123.857 240.867 127.137L242.784 126.567C241.86 123.457 241.353 120.238 241.278 116.995L239.279 117.042ZM239.646 115.319C239.39 115.857 239.265 116.447 239.279 117.043L241.278 116.994C241.272 116.712 241.331 116.432 241.452 116.177L239.646 115.319ZM240.75 113.946C240.28 114.311 239.901 114.781 239.646 115.319L241.452 116.177C241.573 115.922 241.753 115.699 241.976 115.526L240.75 113.946ZM247.353 108.822L240.75 113.946L241.976 115.526L248.579 110.402L247.353 108.822ZM247.349 107.907L246.994 109.378L248.938 109.847L249.293 108.376L247.349 107.907ZM243.889 101.014L247.415 108.564L249.227 107.718L245.702 100.168L243.889 101.014ZM243.531 99.2898C243.514 99.8853 243.637 100.476 243.89 101.016L245.701 100.166C245.581 99.9101 245.522 99.6298 245.531 99.3476L243.531 99.2898ZM243.989 97.5875C243.705 98.1112 243.549 98.6943 243.531 99.2898L245.531 99.3475C245.539 99.0653 245.613 98.7889 245.748 98.5406L243.989 97.5875ZM250.004 89.3283C247.643 91.8036 245.621 94.5806 243.99 97.5871L245.747 98.541C247.295 95.6898 249.213 93.0561 251.452 90.7087L250.004 89.3283ZM251.474 88.3725C250.916 88.5724 250.413 88.8998 250.004 89.3286L251.452 90.7084C251.646 90.5052 251.884 90.35 252.148 90.2552L251.474 88.3725ZM253.216 88.1773C252.628 88.1058 252.031 88.1727 251.474 88.3725L252.148 90.2552C252.413 90.1605 252.696 90.1288 252.974 90.1627L253.216 88.1773ZM261.54 89.2027L253.217 88.1775L252.973 90.1625L261.295 91.1877L261.54 89.2027ZM262.184 88.5551C261.735 88.8154 261.299 89.0819 260.876 89.3545L261.959 91.0358C262.355 90.7806 262.765 90.5304 263.187 90.2852L262.184 88.5551ZM264.598 81.2055L261.745 89.0796L263.626 89.7607L266.478 81.8866L264.598 81.2055ZM265.565 79.7403C265.134 80.1455 264.803 80.6457 264.599 81.2013L266.476 81.8907C266.573 81.6274 266.73 81.3902 266.935 81.1981L265.565 79.7403ZM267.084 78.8674C266.517 79.0362 265.997 79.3351 265.565 79.7403L266.935 81.1981C267.139 81.0061 267.386 80.8644 267.655 80.7843L267.084 78.8674ZM277.179 77.279C273.759 77.3598 270.365 77.8939 267.085 78.8672L267.654 80.7845C270.764 79.8615 273.983 79.3551 277.226 79.2784L277.179 77.279ZM278.902 77.6457C278.364 77.3902 277.774 77.2646 277.179 77.279L277.227 79.2784C277.509 79.2716 277.789 79.3311 278.044 79.4523L278.902 77.6457ZM280.276 78.7503C279.911 78.2796 279.44 77.9013 278.902 77.6457L278.044 79.4522C278.299 79.5734 278.522 79.7527 278.695 79.9758L280.276 78.7503ZM285.399 85.3528L280.275 78.75L278.695 79.9761L283.819 86.5789L285.399 85.3528ZM286.315 85.3489L284.844 84.9938L284.374 86.9379L285.845 87.2931L286.315 85.3489ZM293.207 81.8895L285.657 85.4149L286.503 87.2271L294.054 83.7017L293.207 81.8895ZM294.931 81.5314C294.336 81.5143 293.745 81.6372 293.205 81.8904L294.055 83.7008C294.311 83.5807 294.591 83.5225 294.874 83.5306L294.931 81.5314ZM296.634 81.9894C296.11 81.7055 295.527 81.5486 294.931 81.5314L294.874 83.5306C295.156 83.5388 295.432 83.6131 295.681 83.7477L296.634 81.9894ZM301.605 85.2018C300.034 84.0071 298.373 82.933 296.634 81.9896L295.68 83.7475C297.329 84.6421 298.905 85.6608 300.395 86.7937L301.605 85.2018ZM300 10V85.9977H302V10H300ZM291 1C295.971 1 300 5.02944 300 10H302C302 3.92487 297.075 -1 291 -1V1ZM10 1H291V-1H10V1ZM299.505 104.746C299.719 105.148 300.001 105.504 300.336 105.802L301.664 104.307C301.506 104.166 301.372 103.997 301.271 103.807L299.505 104.746ZM297.981 102.252C298.537 103.053 299.047 103.886 299.506 104.747L301.27 103.806C300.775 102.876 300.225 101.976 299.623 101.11L297.981 102.252ZM297.33 99.6012C297.211 100.535 297.443 101.479 297.981 102.252L299.623 101.11C299.368 100.743 299.258 100.296 299.314 99.8531L297.33 99.6012ZM298.313 91.7072L297.33 99.6035L299.314 99.8508L300.298 91.9544L298.313 91.7072ZM294.194 89.333C295.772 90.2824 297.262 91.37 298.647 92.5831L299.965 91.0785C298.49 89.7874 296.904 88.6298 295.225 87.6194L294.194 89.333ZM287.915 92.7537L295.133 89.3823L294.287 87.5702L287.069 90.9417L287.915 92.7537ZM285.19 92.946C286.091 93.2218 287.063 93.1531 287.916 92.7532L287.068 90.9422C286.663 91.1317 286.203 91.1643 285.775 91.0335L285.19 92.946ZM282.35 92.2604C283.31 92.4333 284.258 92.6623 285.192 92.9464L285.774 91.0331C284.766 90.7262 283.741 90.4788 282.704 90.2921L282.35 92.2604ZM280.013 90.8455C280.59 91.5906 281.423 92.0949 282.351 92.2606L282.703 90.2918C282.263 90.2133 281.868 89.9742 281.594 89.621L280.013 90.8455ZM275.139 84.5553L280.013 90.8457L281.594 89.6207L276.72 83.3302L275.139 84.5553ZM270.552 85.8012C272.338 85.3531 274.16 85.065 275.997 84.9404L275.862 82.945C273.906 83.0776 271.967 83.3843 270.066 83.8613L270.552 85.8012ZM268.539 92.6514L271.249 85.1719L269.369 84.4906L266.659 91.9701L268.539 92.6514ZM266.745 94.7166C267.579 94.2746 268.218 93.5384 268.539 92.6511L266.659 91.9704C266.506 92.3911 266.203 92.7401 265.808 92.9496L266.745 94.7166ZM264.251 96.2405C265.053 95.6837 265.886 95.1745 266.747 94.7155L265.806 92.9507C264.876 93.4466 263.976 93.9966 263.11 94.598L264.251 96.2405ZM261.601 96.8911C262.535 97.0096 263.479 96.7777 264.252 96.2401L263.11 94.5984C262.743 94.8533 262.296 94.9632 261.853 94.907L261.601 96.8911ZM253.707 95.9078L261.604 96.8914L261.851 94.9067L253.954 93.9231L253.707 95.9078ZM251.333 100.027C252.282 98.4495 253.37 96.9594 254.583 95.5743L253.079 94.2566C251.787 95.7308 250.63 97.3167 249.619 98.9958L251.333 100.027ZM254.754 106.306L251.382 99.0882L249.57 99.9346L252.942 107.152L254.754 106.306ZM254.946 109.031C255.222 108.13 255.153 107.158 254.753 106.305L252.942 107.153C253.132 107.558 253.164 108.019 253.033 108.446L254.946 109.031ZM254.26 111.871C254.433 110.912 254.662 109.963 254.946 109.03L253.033 108.447C252.726 109.455 252.479 110.48 252.292 111.517L254.26 111.871ZM252.845 114.208C253.591 113.631 254.095 112.798 254.261 111.87L252.292 111.518C252.213 111.958 251.974 112.353 251.621 112.627L252.845 114.208ZM246.555 119.082L252.846 114.208L251.621 112.627L245.33 117.502L246.555 119.082ZM247.801 123.669C247.353 121.883 247.065 120.061 246.94 118.224L244.945 118.36C245.078 120.315 245.384 122.255 245.861 124.156L247.801 123.669ZM254.654 125.686L247.172 122.972L246.49 124.852L253.972 127.566L254.654 125.686ZM256.716 127.475C256.274 126.644 255.539 126.007 254.654 125.686L253.973 127.567C254.392 127.719 254.741 128.021 254.95 128.415L256.716 127.475ZM258.24 129.97C257.684 129.168 257.175 128.335 256.715 127.474L254.951 128.415C255.447 129.345 255.997 130.245 256.598 131.111L258.24 129.97ZM258.891 132.62C259.01 131.686 258.778 130.742 258.24 129.969L256.598 131.111C256.853 131.478 256.963 131.925 256.907 132.368L258.891 132.62ZM258.579 135.124L258.891 132.618L256.907 132.37L256.595 134.876L258.579 135.124ZM291 134H257.587V136H291V134ZM300 125C300 129.971 295.971 134 291 134V136C297.075 136 302 131.075 302 125H300ZM300 105.054V125H302V105.054H300ZM282.291 98.7928C278.866 97.966 275.272 98.1734 271.965 99.3889L272.655 101.266C275.591 100.187 278.781 100.003 281.822 100.737L282.291 98.7928ZM293.306 106.825C290.843 102.795 286.882 99.9061 282.292 98.793L281.821 100.737C285.896 101.725 289.413 104.29 291.599 107.868L293.306 106.825ZM295.429 120.29C296.532 115.698 295.769 110.855 293.306 106.825L291.599 107.868C293.786 111.446 294.464 115.745 293.484 119.823L295.429 120.29ZM290.187 129.208C292.778 126.819 294.602 123.716 295.428 120.291L293.484 119.822C292.75 122.862 291.131 125.617 288.831 127.737L290.187 129.208ZM280.876 133.71C284.356 133.163 287.597 131.596 290.187 129.208L288.831 127.737C286.532 129.858 283.655 131.249 280.565 131.734L280.876 133.71ZM270.632 132.28C273.83 133.759 277.395 134.257 280.876 133.71L280.565 131.734C277.475 132.22 274.311 131.778 271.472 130.465L270.632 132.28ZM262.909 125.4C264.746 128.407 267.434 130.801 270.632 132.28L271.472 130.465C268.633 129.152 266.247 127.026 264.616 124.357L262.909 125.4ZM260.31 115.389C260.167 118.91 261.072 122.394 262.909 125.4L264.616 124.357C262.985 121.688 262.182 118.595 262.308 115.47L260.31 115.389ZM263.711 105.621C261.636 108.469 260.453 111.868 260.31 115.389L262.308 115.47C262.435 112.345 263.486 109.327 265.327 106.799L263.711 105.621ZM271.965 99.3889C268.658 100.604 265.785 102.773 263.711 105.621L265.327 106.799C267.169 104.27 269.719 102.345 272.655 101.266L271.965 99.3889ZM275.715 126.036C273.752 125.562 271.973 124.516 270.604 123.032L269.134 124.388C270.771 126.163 272.898 127.413 275.245 127.98L275.715 126.036ZM283.435 124.823C281.124 126.235 278.347 126.671 275.715 126.036L275.245 127.98C278.393 128.74 281.714 128.218 284.477 126.529L283.435 124.823ZM288.036 118.506C287.4 121.139 285.745 123.411 283.435 124.823L284.477 126.529C287.241 124.841 289.22 122.124 289.98 118.976L288.036 118.506ZM287.694 112.589C288.391 114.484 288.509 116.543 288.036 118.506L289.98 118.976C290.546 116.628 290.404 114.165 289.571 111.899L287.694 112.589ZM284.122 107.858C285.754 109.047 286.997 110.693 287.694 112.589L289.571 111.899C288.738 109.632 287.252 107.663 285.3 106.241L284.122 107.858ZM278.524 105.909C280.542 105.991 282.49 106.669 284.122 107.858L285.3 106.241C283.348 104.819 281.018 104.008 278.605 103.91L278.524 105.909ZM272.787 107.398C274.51 106.345 276.506 105.827 278.524 105.909L278.605 103.91C276.192 103.813 273.804 104.433 271.744 105.692L272.787 107.398ZM268.844 111.824C269.691 109.992 271.063 108.451 272.787 107.398L271.744 105.692C269.683 106.951 268.042 108.793 267.028 110.985L268.844 111.824ZM268.024 117.695C267.711 115.7 267.996 113.657 268.844 111.824L267.028 110.985C266.015 113.177 265.674 115.62 266.048 118.006L268.024 117.695ZM270.604 123.032C269.235 121.547 268.338 119.69 268.024 117.695L266.048 118.006C266.423 120.391 267.497 122.612 269.134 124.388L270.604 123.032Z" fill="#7B7B7B" mask="url(#path-1-inside-1_327_411)"/>
</g>
<path d="M22.864 20.671V26.03H28.706V27.755H22.864V33.275H29.396V35H20.771V18.946H29.396V20.671H22.864ZM31.781 28.652C31.781 27.364 32.0417 26.237 32.563 25.271C33.0843 24.2897 33.7973 23.5307 34.702 22.994C35.622 22.4573 36.6417 22.189 37.761 22.189C38.865 22.189 39.8233 22.4267 40.636 22.902C41.4487 23.3773 42.0543 23.9753 42.453 24.696V22.396H44.569V35H42.453V32.654C42.039 33.39 41.418 34.0033 40.59 34.494C39.7773 34.9693 38.8267 35.207 37.738 35.207C36.6187 35.207 35.6067 34.931 34.702 34.379C33.7973 33.827 33.0843 33.0527 32.563 32.056C32.0417 31.0593 31.781 29.9247 31.781 28.652ZM42.453 28.675C42.453 27.7243 42.2613 26.8963 41.878 26.191C41.4947 25.4857 40.9733 24.949 40.314 24.581C39.67 24.1977 38.957 24.006 38.175 24.006C37.393 24.006 36.68 24.19 36.036 24.558C35.392 24.926 34.8783 25.4627 34.495 26.168C34.1117 26.8733 33.92 27.7013 33.92 28.652C33.92 29.618 34.1117 30.4613 34.495 31.182C34.8783 31.8873 35.392 32.4317 36.036 32.815C36.68 33.183 37.393 33.367 38.175 33.367C38.957 33.367 39.67 33.183 40.314 32.815C40.9733 32.4317 41.4947 31.8873 41.878 31.182C42.2613 30.4613 42.453 29.6257 42.453 28.675ZM52.568 35.207C51.602 35.207 50.7356 35.046 49.969 34.724C49.2023 34.3867 48.5966 33.9267 48.152 33.344C47.7073 32.746 47.462 32.0637 47.416 31.297H49.578C49.6393 31.9257 49.9306 32.4393 50.452 32.838C50.9886 33.2367 51.6863 33.436 52.545 33.436C53.3423 33.436 53.971 33.2597 54.431 32.907C54.891 32.5543 55.121 32.1097 55.121 31.573C55.121 31.021 54.8756 30.6147 54.385 30.354C53.8943 30.078 53.1353 29.8097 52.108 29.549C51.1726 29.3037 50.406 29.0583 49.808 28.813C49.2253 28.5523 48.7193 28.1767 48.29 27.686C47.876 27.18 47.669 26.5207 47.669 25.708C47.669 25.064 47.8606 24.4737 48.244 23.937C48.6273 23.4003 49.1716 22.9787 49.877 22.672C50.5823 22.35 51.3873 22.189 52.292 22.189C53.6873 22.189 54.8143 22.5417 55.673 23.247C56.5316 23.9523 56.9916 24.9183 57.053 26.145H54.96C54.914 25.4857 54.6456 24.9567 54.155 24.558C53.6796 24.1593 53.0356 23.96 52.223 23.96C51.4716 23.96 50.8736 24.121 50.429 24.443C49.9843 24.765 49.762 25.1867 49.762 25.708C49.762 26.122 49.8923 26.467 50.153 26.743C50.429 27.0037 50.7663 27.2183 51.165 27.387C51.579 27.5403 52.1463 27.7167 52.867 27.916C53.7716 28.1613 54.5076 28.4067 55.075 28.652C55.6423 28.882 56.1253 29.2347 56.524 29.71C56.938 30.1853 57.1526 30.8063 57.168 31.573C57.168 32.263 56.9763 32.884 56.593 33.436C56.2096 33.988 55.6653 34.425 54.96 34.747C54.27 35.0537 53.4726 35.207 52.568 35.207ZM70.9786 22.396L63.3886 40.934H61.2266L63.7106 34.862L58.6276 22.396H60.9506L64.9066 32.608L68.8166 22.396H70.9786ZM81.3074 18.969V35H79.2144V18.969H81.3074ZM91.0155 22.166C92.5488 22.166 93.7908 22.6337 94.7415 23.569C95.6922 24.489 96.1675 25.823 96.1675 27.571V35H94.0975V27.87C94.0975 26.6127 93.7832 25.6543 93.1545 24.995C92.5258 24.3203 91.6672 23.983 90.5785 23.983C89.4745 23.983 88.5928 24.328 87.9335 25.018C87.2895 25.708 86.9675 26.7123 86.9675 28.031V35H84.8745V22.396H86.9675V24.19C87.3815 23.546 87.9412 23.0477 88.6465 22.695C89.3672 22.3423 90.1568 22.166 91.0155 22.166ZM102.139 24.121V31.55C102.139 32.1633 102.27 32.6003 102.53 32.861C102.791 33.1063 103.243 33.229 103.887 33.229H105.428V35H103.542C102.377 35 101.503 34.7317 100.92 34.195C100.338 33.6583 100.046 32.7767 100.046 31.55V24.121H98.4134V22.396H100.046V19.222H102.139V22.396H105.428V24.121H102.139ZM119.464 28.215C119.464 28.6137 119.441 29.0353 119.395 29.48H109.321C109.398 30.722 109.82 31.6957 110.586 32.401C111.368 33.091 112.311 33.436 113.415 33.436C114.32 33.436 115.071 33.229 115.669 32.815C116.283 32.3857 116.712 31.8183 116.957 31.113H119.211C118.874 32.3243 118.199 33.3133 117.187 34.08C116.175 34.8313 114.918 35.207 113.415 35.207C112.219 35.207 111.146 34.9387 110.195 34.402C109.26 33.8653 108.524 33.1063 107.987 32.125C107.451 31.1283 107.182 29.9783 107.182 28.675C107.182 27.3717 107.443 26.2293 107.964 25.248C108.486 24.2667 109.214 23.5153 110.149 22.994C111.1 22.4573 112.189 22.189 113.415 22.189C114.611 22.189 115.669 22.4497 116.589 22.971C117.509 23.4923 118.215 24.213 118.705 25.133C119.211 26.0377 119.464 27.065 119.464 28.215ZM117.302 27.778C117.302 26.9807 117.126 26.2983 116.773 25.731C116.421 25.1483 115.938 24.7113 115.324 24.42C114.726 24.1133 114.059 23.96 113.323 23.96C112.265 23.96 111.361 24.2973 110.609 24.972C109.873 25.6467 109.452 26.582 109.344 27.778H117.302ZM127.425 22.189C128.514 22.189 129.464 22.4267 130.277 22.902C131.105 23.3773 131.718 23.9753 132.117 24.696V22.396H134.233V35.276C134.233 36.426 133.988 37.4457 133.497 38.335C133.006 39.2397 132.301 39.945 131.381 40.451C130.476 40.957 129.418 41.21 128.207 41.21C126.551 41.21 125.171 40.819 124.067 40.037C122.963 39.255 122.311 38.1893 122.112 36.84H124.182C124.412 37.6067 124.887 38.22 125.608 38.68C126.329 39.1553 127.195 39.393 128.207 39.393C129.357 39.393 130.292 39.0327 131.013 38.312C131.749 37.5913 132.117 36.5793 132.117 35.276V32.631C131.703 33.367 131.09 33.9803 130.277 34.471C129.464 34.9617 128.514 35.207 127.425 35.207C126.306 35.207 125.286 34.931 124.366 34.379C123.461 33.827 122.748 33.0527 122.227 32.056C121.706 31.0593 121.445 29.9247 121.445 28.652C121.445 27.364 121.706 26.237 122.227 25.271C122.748 24.2897 123.461 23.5307 124.366 22.994C125.286 22.4573 126.306 22.189 127.425 22.189ZM132.117 28.675C132.117 27.7243 131.925 26.8963 131.542 26.191C131.159 25.4857 130.637 24.949 129.978 24.581C129.334 24.1977 128.621 24.006 127.839 24.006C127.057 24.006 126.344 24.19 125.7 24.558C125.056 24.926 124.542 25.4627 124.159 26.168C123.776 26.8733 123.584 27.7013 123.584 28.652C123.584 29.618 123.776 30.4613 124.159 31.182C124.542 31.8873 125.056 32.4317 125.7 32.815C126.344 33.183 127.057 33.367 127.839 33.367C128.621 33.367 129.334 33.183 129.978 32.815C130.637 32.4317 131.159 31.8873 131.542 31.182C131.925 30.4613 132.117 29.6257 132.117 28.675ZM139.863 24.443C140.231 23.7223 140.752 23.1627 141.427 22.764C142.117 22.3653 142.953 22.166 143.934 22.166V24.328H143.382C141.036 24.328 139.863 25.6007 139.863 28.146V35H137.77V22.396H139.863V24.443ZM145.568 28.652C145.568 27.364 145.829 26.237 146.35 25.271C146.871 24.2897 147.584 23.5307 148.489 22.994C149.409 22.4573 150.429 22.189 151.548 22.189C152.652 22.189 153.61 22.4267 154.423 22.902C155.236 23.3773 155.841 23.9753 156.24 24.696V22.396H158.356V35H156.24V32.654C155.826 33.39 155.205 34.0033 154.377 34.494C153.564 34.9693 152.614 35.207 151.525 35.207C150.406 35.207 149.394 34.931 148.489 34.379C147.584 33.827 146.871 33.0527 146.35 32.056C145.829 31.0593 145.568 29.9247 145.568 28.652ZM156.24 28.675C156.24 27.7243 156.048 26.8963 155.665 26.191C155.282 25.4857 154.76 24.949 154.101 24.581C153.457 24.1977 152.744 24.006 151.962 24.006C151.18 24.006 150.467 24.19 149.823 24.558C149.179 24.926 148.665 25.4627 148.282 26.168C147.899 26.8733 147.707 27.7013 147.707 28.652C147.707 29.618 147.899 30.4613 148.282 31.182C148.665 31.8873 149.179 32.4317 149.823 32.815C150.467 33.183 151.18 33.367 151.962 33.367C152.744 33.367 153.457 33.183 154.101 32.815C154.76 32.4317 155.282 31.8873 155.665 31.182C156.048 30.4613 156.24 29.6257 156.24 28.675ZM164.446 24.121V31.55C164.446 32.1633 164.576 32.6003 164.837 32.861C165.098 33.1063 165.55 33.229 166.194 33.229H167.735V35H165.849C164.684 35 163.81 34.7317 163.227 34.195C162.644 33.6583 162.353 32.7767 162.353 31.55V24.121H160.72V22.396H162.353V19.222H164.446V22.396H167.735V24.121H164.446ZM171.352 20.349C170.953 20.349 170.616 20.211 170.34 19.935C170.064 19.659 169.926 19.3217 169.926 18.923C169.926 18.5243 170.064 18.187 170.34 17.911C170.616 17.635 170.953 17.497 171.352 17.497C171.735 17.497 172.057 17.635 172.318 17.911C172.594 18.187 172.732 18.5243 172.732 18.923C172.732 19.3217 172.594 19.659 172.318 19.935C172.057 20.211 171.735 20.349 171.352 20.349ZM172.364 22.396V35H170.271V22.396H172.364ZM181.428 35.207C180.247 35.207 179.174 34.9387 178.208 34.402C177.257 33.8653 176.506 33.1063 175.954 32.125C175.417 31.1283 175.149 29.9783 175.149 28.675C175.149 27.387 175.425 26.2523 175.977 25.271C176.544 24.2743 177.311 23.5153 178.277 22.994C179.243 22.4573 180.324 22.189 181.52 22.189C182.716 22.189 183.797 22.4573 184.763 22.994C185.729 23.5153 186.488 24.2667 187.04 25.248C187.607 26.2293 187.891 27.3717 187.891 28.675C187.891 29.9783 187.6 31.1283 187.017 32.125C186.45 33.1063 185.675 33.8653 184.694 34.402C183.713 34.9387 182.624 35.207 181.428 35.207ZM181.428 33.367C182.179 33.367 182.885 33.1907 183.544 32.838C184.203 32.4853 184.732 31.9563 185.131 31.251C185.545 30.5457 185.752 29.687 185.752 28.675C185.752 27.663 185.553 26.8043 185.154 26.099C184.755 25.3937 184.234 24.8723 183.59 24.535C182.946 24.1823 182.248 24.006 181.497 24.006C180.73 24.006 180.025 24.1823 179.381 24.535C178.752 24.8723 178.246 25.3937 177.863 26.099C177.48 26.8043 177.288 27.663 177.288 28.675C177.288 29.7023 177.472 30.5687 177.84 31.274C178.223 31.9793 178.729 32.5083 179.358 32.861C179.987 33.1983 180.677 33.367 181.428 33.367ZM196.784 22.166C198.317 22.166 199.559 22.6337 200.51 23.569C201.461 24.489 201.936 25.823 201.936 27.571V35H199.866V27.87C199.866 26.6127 199.552 25.6543 198.923 24.995C198.294 24.3203 197.436 23.983 196.347 23.983C195.243 23.983 194.361 24.328 193.702 25.018C193.058 25.708 192.736 26.7123 192.736 28.031V35H190.643V22.396H192.736V24.19C193.15 23.546 193.71 23.0477 194.415 22.695C195.136 22.3423 195.925 22.166 196.784 22.166Z" fill="white"/>
<path d="M24.538 54.333C24.8673 54.385 25.1663 54.5193 25.435 54.736C25.7123 54.9527 25.929 55.2213 26.085 55.542C26.2497 55.8627 26.332 56.205 26.332 56.569C26.332 57.0283 26.215 57.4443 25.981 57.817C25.747 58.181 25.4047 58.4713 24.954 58.688C24.512 58.896 23.9877 59 23.381 59H20.001V49.939H23.251C23.8663 49.939 24.3907 50.043 24.824 50.251C25.2573 50.4503 25.5823 50.7233 25.799 51.07C26.0157 51.4167 26.124 51.8067 26.124 52.24C26.124 52.7773 25.9767 53.2237 25.682 53.579C25.396 53.9257 25.0147 54.177 24.538 54.333ZM21.184 53.852H23.173C23.7277 53.852 24.1567 53.722 24.46 53.462C24.7633 53.202 24.915 52.8423 24.915 52.383C24.915 51.9237 24.7633 51.564 24.46 51.304C24.1567 51.044 23.719 50.914 23.147 50.914H21.184V53.852ZM23.277 58.025C23.8663 58.025 24.3257 57.8863 24.655 57.609C24.9843 57.3317 25.149 56.946 25.149 56.452C25.149 55.9493 24.9757 55.555 24.629 55.269C24.2823 54.9743 23.8187 54.827 23.238 54.827H21.184V58.025H23.277ZM34.4737 55.165C34.4737 55.3903 34.4607 55.6287 34.4347 55.88H28.7407C28.784 56.582 29.0223 57.1323 29.4557 57.531C29.8977 57.921 30.4307 58.116 31.0547 58.116C31.566 58.116 31.9907 57.999 32.3287 57.765C32.6753 57.5223 32.918 57.2017 33.0567 56.803H34.3307C34.14 57.4877 33.7587 58.0467 33.1867 58.48C32.6147 58.9047 31.904 59.117 31.0547 59.117C30.3787 59.117 29.772 58.9653 29.2347 58.662C28.706 58.3587 28.29 57.9297 27.9867 57.375C27.6833 56.8117 27.5317 56.1617 27.5317 55.425C27.5317 54.6883 27.679 54.0427 27.9737 53.488C28.2683 52.9333 28.68 52.5087 29.2087 52.214C29.746 51.9107 30.3613 51.759 31.0547 51.759C31.7307 51.759 32.3287 51.9063 32.8487 52.201C33.3687 52.4957 33.7673 52.903 34.0447 53.423C34.3307 53.9343 34.4737 54.515 34.4737 55.165ZM33.2517 54.918C33.2517 54.4673 33.152 54.0817 32.9527 53.761C32.7533 53.4317 32.4803 53.1847 32.1337 53.02C31.7957 52.8467 31.4187 52.76 31.0027 52.76C30.4047 52.76 29.8933 52.9507 29.4687 53.332C29.0527 53.7133 28.8143 54.242 28.7537 54.918H33.2517ZM38.9732 51.759C39.5885 51.759 40.1258 51.8933 40.5852 52.162C41.0532 52.4307 41.3998 52.7687 41.6252 53.176V51.876H42.8212V59.156C42.8212 59.806 42.6825 60.3823 42.4052 60.885C42.1278 61.3963 41.7292 61.795 41.2092 62.081C40.6978 62.367 40.0998 62.51 39.4152 62.51C38.4792 62.51 37.6992 62.289 37.0752 61.847C36.4512 61.405 36.0828 60.8027 35.9702 60.04H37.1402C37.2702 60.4733 37.5388 60.82 37.9462 61.08C38.3535 61.3487 38.8432 61.483 39.4152 61.483C40.0652 61.483 40.5938 61.2793 41.0012 60.872C41.4172 60.4647 41.6252 59.8927 41.6252 59.156V57.661C41.3912 58.077 41.0445 58.4237 40.5852 58.701C40.1258 58.9783 39.5885 59.117 38.9732 59.117C38.3405 59.117 37.7642 58.961 37.2442 58.649C36.7328 58.337 36.3298 57.8993 36.0352 57.336C35.7405 56.7727 35.5932 56.1313 35.5932 55.412C35.5932 54.684 35.7405 54.047 36.0352 53.501C36.3298 52.9463 36.7328 52.5173 37.2442 52.214C37.7642 51.9107 38.3405 51.759 38.9732 51.759ZM41.6252 55.425C41.6252 54.8877 41.5168 54.4197 41.3002 54.021C41.0835 53.6223 40.7888 53.319 40.4162 53.111C40.0522 52.8943 39.6492 52.786 39.2072 52.786C38.7652 52.786 38.3622 52.89 37.9982 53.098C37.6342 53.306 37.3438 53.6093 37.1272 54.008C36.9105 54.4067 36.8022 54.8747 36.8022 55.412C36.8022 55.958 36.9105 56.4347 37.1272 56.842C37.3438 57.2407 37.6342 57.5483 37.9982 57.765C38.3622 57.973 38.7652 58.077 39.2072 58.077C39.6492 58.077 40.0522 57.973 40.4162 57.765C40.7888 57.5483 41.0835 57.2407 41.3002 56.842C41.5168 56.4347 41.6252 55.9623 41.6252 55.425ZM45.4313 50.719C45.206 50.719 45.0153 50.641 44.8593 50.485C44.7033 50.329 44.6253 50.1383 44.6253 49.913C44.6253 49.6877 44.7033 49.497 44.8593 49.341C45.0153 49.185 45.206 49.107 45.4313 49.107C45.648 49.107 45.83 49.185 45.9773 49.341C46.1333 49.497 46.2113 49.6877 46.2113 49.913C46.2113 50.1383 46.1333 50.329 45.9773 50.485C45.83 50.641 45.648 50.719 45.4313 50.719ZM46.0033 51.876V59H44.8203V51.876H46.0033ZM51.4906 51.746C52.3572 51.746 53.0592 52.0103 53.5966 52.539C54.1339 53.059 54.4026 53.813 54.4026 54.801V59H53.2326V54.97C53.2326 54.2593 53.0549 53.7177 52.6996 53.345C52.3442 52.9637 51.8589 52.773 51.2436 52.773C50.6196 52.773 50.1212 52.968 49.7486 53.358C49.3846 53.748 49.2026 54.3157 49.2026 55.061V59H48.0196V51.876H49.2026V52.89C49.4366 52.526 49.7529 52.2443 50.1516 52.045C50.5589 51.8457 51.0052 51.746 51.4906 51.746ZM60.9838 53.202C61.2265 52.7773 61.5818 52.4307 62.0498 52.162C62.5178 51.8933 63.0508 51.759 63.6488 51.759C64.2901 51.759 64.8665 51.9107 65.3778 52.214C65.8891 52.5173 66.2921 52.9463 66.5868 53.501C66.8815 54.047 67.0288 54.684 67.0288 55.412C67.0288 56.1313 66.8815 56.7727 66.5868 57.336C66.2921 57.8993 65.8848 58.337 65.3648 58.649C64.8535 58.961 64.2815 59.117 63.6488 59.117C63.0335 59.117 62.4918 58.9827 62.0238 58.714C61.5645 58.4453 61.2178 58.103 60.9838 57.687V59H59.8008V49.38H60.9838V53.202ZM65.8198 55.412C65.8198 54.8747 65.7115 54.4067 65.4948 54.008C65.2781 53.6093 64.9835 53.306 64.6108 53.098C64.2468 52.89 63.8438 52.786 63.4018 52.786C62.9685 52.786 62.5655 52.8943 62.1928 53.111C61.8288 53.319 61.5341 53.6267 61.3088 54.034C61.0921 54.4327 60.9838 54.8963 60.9838 55.425C60.9838 55.9623 61.0921 56.4347 61.3088 56.842C61.5341 57.2407 61.8288 57.5483 62.1928 57.765C62.5655 57.973 62.9685 58.077 63.4018 58.077C63.8438 58.077 64.2468 57.973 64.6108 57.765C64.9835 57.5483 65.2781 57.2407 65.4948 56.842C65.7115 56.4347 65.8198 55.958 65.8198 55.412ZM74.722 51.876L70.432 62.354H69.21L70.614 58.922L67.741 51.876H69.054L71.29 57.648L73.5 51.876H74.722ZM78.935 55.425C78.935 54.6883 79.0823 54.047 79.377 53.501C79.6716 52.9463 80.079 52.5173 80.599 52.214C81.1276 51.9107 81.73 51.759 82.406 51.759C83.2813 51.759 84.0006 51.9713 84.564 52.396C85.136 52.8207 85.513 53.41 85.695 54.164H84.421C84.2996 53.7307 84.0613 53.3883 83.706 53.137C83.3593 52.8857 82.926 52.76 82.406 52.76C81.73 52.76 81.184 52.994 80.768 53.462C80.352 53.9213 80.144 54.5757 80.144 55.425C80.144 56.283 80.352 56.946 80.768 57.414C81.184 57.882 81.73 58.116 82.406 58.116C82.926 58.116 83.3593 57.9947 83.706 57.752C84.0526 57.5093 84.291 57.1627 84.421 56.712H85.695C85.5043 57.44 85.123 58.025 84.551 58.467C83.979 58.9003 83.264 59.117 82.406 59.117C81.73 59.117 81.1276 58.9653 80.599 58.662C80.079 58.3587 79.6716 57.9297 79.377 57.375C79.0823 56.8203 78.935 56.1703 78.935 55.425ZM90.8095 51.746C91.3468 51.746 91.8321 51.863 92.2655 52.097C92.6988 52.3223 93.0368 52.6647 93.2795 53.124C93.5308 53.5833 93.6565 54.1423 93.6565 54.801V59H92.4865V54.97C92.4865 54.2593 92.3088 53.7177 91.9535 53.345C91.5981 52.9637 91.1128 52.773 90.4975 52.773C89.8735 52.773 89.3751 52.968 89.0025 53.358C88.6385 53.748 88.4565 54.3157 88.4565 55.061V59H87.2735V49.38H88.4565V52.89C88.6905 52.526 89.0111 52.2443 89.4185 52.045C89.8345 51.8457 90.2981 51.746 90.8095 51.746ZM98.6959 59.117C98.0286 59.117 97.4219 58.9653 96.8759 58.662C96.3386 58.3587 95.9139 57.9297 95.6019 57.375C95.2986 56.8117 95.1469 56.1617 95.1469 55.425C95.1469 54.697 95.3029 54.0557 95.6149 53.501C95.9356 52.9377 96.3689 52.5087 96.9149 52.214C97.4609 51.9107 98.0719 51.759 98.7479 51.759C99.4239 51.759 100.035 51.9107 100.581 52.214C101.127 52.5087 101.556 52.9333 101.868 53.488C102.189 54.0427 102.349 54.6883 102.349 55.425C102.349 56.1617 102.184 56.8117 101.855 57.375C101.534 57.9297 101.097 58.3587 100.542 58.662C99.9872 58.9653 99.3719 59.117 98.6959 59.117ZM98.6959 58.077C99.1206 58.077 99.5192 57.9773 99.8919 57.778C100.265 57.5787 100.564 57.2797 100.789 56.881C101.023 56.4823 101.14 55.997 101.14 55.425C101.14 54.853 101.027 54.3677 100.802 53.969C100.577 53.5703 100.282 53.2757 99.9179 53.085C99.5539 52.8857 99.1596 52.786 98.7349 52.786C98.3016 52.786 97.9029 52.8857 97.5389 53.085C97.1836 53.2757 96.8976 53.5703 96.6809 53.969C96.4642 54.3677 96.3559 54.853 96.3559 55.425C96.3559 56.0057 96.4599 56.4953 96.6679 56.894C96.8846 57.2927 97.1706 57.5917 97.5259 57.791C97.8812 57.9817 98.2712 58.077 98.6959 58.077ZM107.011 59.117C106.344 59.117 105.737 58.9653 105.191 58.662C104.654 58.3587 104.229 57.9297 103.917 57.375C103.614 56.8117 103.462 56.1617 103.462 55.425C103.462 54.697 103.618 54.0557 103.93 53.501C104.251 52.9377 104.684 52.5087 105.23 52.214C105.776 51.9107 106.387 51.759 107.063 51.759C107.739 51.759 108.35 51.9107 108.896 52.214C109.442 52.5087 109.871 52.9333 110.183 53.488C110.504 54.0427 110.664 54.6883 110.664 55.425C110.664 56.1617 110.5 56.8117 110.17 57.375C109.85 57.9297 109.412 58.3587 108.857 58.662C108.303 58.9653 107.687 59.117 107.011 59.117ZM107.011 58.077C107.436 58.077 107.835 57.9773 108.207 57.778C108.58 57.5787 108.879 57.2797 109.104 56.881C109.338 56.4823 109.455 55.997 109.455 55.425C109.455 54.853 109.343 54.3677 109.117 53.969C108.892 53.5703 108.597 53.2757 108.233 53.085C107.869 52.8857 107.475 52.786 107.05 52.786C106.617 52.786 106.218 52.8857 105.854 53.085C105.499 53.2757 105.213 53.5703 104.996 53.969C104.78 54.3677 104.671 54.853 104.671 55.425C104.671 56.0057 104.775 56.4953 104.983 56.894C105.2 57.2927 105.486 57.5917 105.841 57.791C106.197 57.9817 106.587 58.077 107.011 58.077ZM114.742 59.117C114.196 59.117 113.706 59.026 113.273 58.844C112.839 58.6533 112.497 58.3933 112.246 58.064C111.994 57.726 111.856 57.3403 111.83 56.907H113.052C113.086 57.2623 113.251 57.5527 113.546 57.778C113.849 58.0033 114.243 58.116 114.729 58.116C115.179 58.116 115.535 58.0163 115.795 57.817C116.055 57.6177 116.185 57.3663 116.185 57.063C116.185 56.751 116.046 56.5213 115.769 56.374C115.491 56.218 115.062 56.0663 114.482 55.919C113.953 55.7803 113.52 55.6417 113.182 55.503C112.852 55.3557 112.566 55.1433 112.324 54.866C112.09 54.58 111.973 54.2073 111.973 53.748C111.973 53.384 112.081 53.0503 112.298 52.747C112.514 52.4437 112.822 52.2053 113.221 52.032C113.619 51.85 114.074 51.759 114.586 51.759C115.374 51.759 116.011 51.9583 116.497 52.357C116.982 52.7557 117.242 53.3017 117.277 53.995H116.094C116.068 53.6223 115.916 53.3233 115.639 53.098C115.37 52.8727 115.006 52.76 114.547 52.76C114.122 52.76 113.784 52.851 113.533 53.033C113.281 53.215 113.156 53.4533 113.156 53.748C113.156 53.982 113.229 54.177 113.377 54.333C113.533 54.4803 113.723 54.6017 113.949 54.697C114.183 54.7837 114.503 54.8833 114.911 54.996C115.422 55.1347 115.838 55.2733 116.159 55.412C116.479 55.542 116.752 55.7413 116.978 56.01C117.212 56.2787 117.333 56.6297 117.342 57.063C117.342 57.453 117.233 57.804 117.017 58.116C116.8 58.428 116.492 58.675 116.094 58.857C115.704 59.0303 115.253 59.117 114.742 59.117ZM119.623 50.719C119.397 50.719 119.207 50.641 119.051 50.485C118.895 50.329 118.817 50.1383 118.817 49.913C118.817 49.6877 118.895 49.497 119.051 49.341C119.207 49.185 119.397 49.107 119.623 49.107C119.839 49.107 120.021 49.185 120.169 49.341C120.325 49.497 120.403 49.6877 120.403 49.913C120.403 50.1383 120.325 50.329 120.169 50.485C120.021 50.641 119.839 50.719 119.623 50.719ZM120.195 51.876V59H119.012V51.876H120.195ZM125.682 51.746C126.549 51.746 127.251 52.0103 127.788 52.539C128.325 53.059 128.594 53.813 128.594 54.801V59H127.424V54.97C127.424 54.2593 127.246 53.7177 126.891 53.345C126.536 52.9637 126.05 52.773 125.435 52.773C124.811 52.773 124.313 52.968 123.94 53.358C123.576 53.748 123.394 54.3157 123.394 55.061V59H122.211V51.876H123.394V52.89C123.628 52.526 123.944 52.2443 124.343 52.045C124.75 51.8457 125.197 51.746 125.682 51.746ZM133.464 51.759C134.08 51.759 134.617 51.8933 135.076 52.162C135.544 52.4307 135.891 52.7687 136.116 53.176V51.876H137.312V59.156C137.312 59.806 137.174 60.3823 136.896 60.885C136.619 61.3963 136.22 61.795 135.7 62.081C135.189 62.367 134.591 62.51 133.906 62.51C132.97 62.51 132.19 62.289 131.566 61.847C130.942 61.405 130.574 60.8027 130.461 60.04H131.631C131.761 60.4733 132.03 60.82 132.437 61.08C132.845 61.3487 133.334 61.483 133.906 61.483C134.556 61.483 135.085 61.2793 135.492 60.872C135.908 60.4647 136.116 59.8927 136.116 59.156V57.661C135.882 58.077 135.536 58.4237 135.076 58.701C134.617 58.9783 134.08 59.117 133.464 59.117C132.832 59.117 132.255 58.961 131.735 58.649C131.224 58.337 130.821 57.8993 130.526 57.336C130.232 56.7727 130.084 56.1313 130.084 55.412C130.084 54.684 130.232 54.047 130.526 53.501C130.821 52.9463 131.224 52.5173 131.735 52.214C132.255 51.9107 132.832 51.759 133.464 51.759ZM136.116 55.425C136.116 54.8877 136.008 54.4197 135.791 54.021C135.575 53.6223 135.28 53.319 134.907 53.111C134.543 52.8943 134.14 52.786 133.698 52.786C133.256 52.786 132.853 52.89 132.489 53.098C132.125 53.306 131.835 53.6093 131.618 54.008C131.402 54.4067 131.293 54.8747 131.293 55.412C131.293 55.958 131.402 56.4347 131.618 56.842C131.835 57.2407 132.125 57.5483 132.489 57.765C132.853 57.973 133.256 58.077 133.698 58.077C134.14 58.077 134.543 57.973 134.907 57.765C135.28 57.5483 135.575 57.2407 135.791 56.842C136.008 56.4347 136.116 55.9623 136.116 55.425ZM145.676 52.851H144.181V59H142.998V52.851H142.075V51.876H142.998V51.369C142.998 50.5717 143.202 49.991 143.609 49.627C144.025 49.2543 144.688 49.068 145.598 49.068V50.056C145.078 50.056 144.71 50.16 144.493 50.368C144.285 50.5673 144.181 50.901 144.181 51.369V51.876H145.676V52.851ZM148.239 53.033C148.447 52.6257 148.741 52.3093 149.123 52.084C149.513 51.8587 149.985 51.746 150.54 51.746V52.968H150.228C148.902 52.968 148.239 53.6873 148.239 55.126V59H147.056V51.876H148.239V53.033ZM155.012 59.117C154.345 59.117 153.738 58.9653 153.192 58.662C152.655 58.3587 152.23 57.9297 151.918 57.375C151.615 56.8117 151.463 56.1617 151.463 55.425C151.463 54.697 151.619 54.0557 151.931 53.501C152.252 52.9377 152.685 52.5087 153.231 52.214C153.777 51.9107 154.388 51.759 155.064 51.759C155.74 51.759 156.351 51.9107 156.897 52.214C157.443 52.5087 157.872 52.9333 158.184 53.488C158.505 54.0427 158.665 54.6883 158.665 55.425C158.665 56.1617 158.501 56.8117 158.171 57.375C157.851 57.9297 157.413 58.3587 156.858 58.662C156.304 58.9653 155.688 59.117 155.012 59.117ZM155.012 58.077C155.437 58.077 155.836 57.9773 156.208 57.778C156.581 57.5787 156.88 57.2797 157.105 56.881C157.339 56.4823 157.456 55.997 157.456 55.425C157.456 54.853 157.344 54.3677 157.118 53.969C156.893 53.5703 156.598 53.2757 156.234 53.085C155.87 52.8857 155.476 52.786 155.051 52.786C154.618 52.786 154.219 52.8857 153.855 53.085C153.5 53.2757 153.214 53.5703 152.997 53.969C152.781 54.3677 152.672 54.853 152.672 55.425C152.672 56.0057 152.776 56.4953 152.984 56.894C153.201 57.2927 153.487 57.5917 153.842 57.791C154.198 57.9817 154.588 58.077 155.012 58.077ZM168.788 51.746C169.342 51.746 169.836 51.863 170.27 52.097C170.703 52.3223 171.045 52.6647 171.297 53.124C171.548 53.5833 171.674 54.1423 171.674 54.801V59H170.504V54.97C170.504 54.2593 170.326 53.7177 169.971 53.345C169.624 52.9637 169.152 52.773 168.554 52.773C167.938 52.773 167.449 52.9723 167.085 53.371C166.721 53.761 166.539 54.3287 166.539 55.074V59H165.369V54.97C165.369 54.2593 165.191 53.7177 164.836 53.345C164.489 52.9637 164.017 52.773 163.419 52.773C162.803 52.773 162.314 52.9723 161.95 53.371C161.586 53.761 161.404 54.3287 161.404 55.074V59H160.221V51.876H161.404V52.903C161.638 52.5303 161.95 52.2443 162.34 52.045C162.738 51.8457 163.176 51.746 163.653 51.746C164.251 51.746 164.779 51.8803 165.239 52.149C165.698 52.4177 166.04 52.812 166.266 53.332C166.465 52.8293 166.794 52.4393 167.254 52.162C167.713 51.8847 168.224 51.746 168.788 51.746ZM176.638 55.412C176.638 54.684 176.785 54.047 177.08 53.501C177.375 52.9463 177.778 52.5173 178.289 52.214C178.809 51.9107 179.385 51.759 180.018 51.759C180.642 51.759 181.184 51.8933 181.643 52.162C182.102 52.4307 182.445 52.7687 182.67 53.176V51.876H183.866V59H182.67V57.674C182.436 58.09 182.085 58.4367 181.617 58.714C181.158 58.9827 180.62 59.117 180.005 59.117C179.372 59.117 178.8 58.961 178.289 58.649C177.778 58.337 177.375 57.8993 177.08 57.336C176.785 56.7727 176.638 56.1313 176.638 55.412ZM182.67 55.425C182.67 54.8877 182.562 54.4197 182.345 54.021C182.128 53.6223 181.834 53.319 181.461 53.111C181.097 52.8943 180.694 52.786 180.252 52.786C179.81 52.786 179.407 52.89 179.043 53.098C178.679 53.306 178.389 53.6093 178.172 54.008C177.955 54.4067 177.847 54.8747 177.847 55.412C177.847 55.958 177.955 56.4347 178.172 56.842C178.389 57.2407 178.679 57.5483 179.043 57.765C179.407 57.973 179.81 58.077 180.252 58.077C180.694 58.077 181.097 57.973 181.461 57.765C181.834 57.5483 182.128 57.2407 182.345 56.842C182.562 56.4347 182.67 55.9623 182.67 55.425ZM198.821 51.876L196.598 59H195.376L193.66 53.345L191.944 59H190.722L188.486 51.876H189.695L191.333 57.856L193.101 51.876H194.31L196.039 57.869L197.651 51.876H198.821ZM200.606 50.719C200.381 50.719 200.19 50.641 200.034 50.485C199.878 50.329 199.8 50.1383 199.8 49.913C199.8 49.6877 199.878 49.497 200.034 49.341C200.19 49.185 200.381 49.107 200.606 49.107C200.823 49.107 201.005 49.185 201.152 49.341C201.308 49.497 201.386 49.6877 201.386 49.913C201.386 50.1383 201.308 50.329 201.152 50.485C201.005 50.641 200.823 50.719 200.606 50.719ZM201.178 51.876V59H199.995V51.876H201.178ZM202.752 55.412C202.752 54.684 202.9 54.047 203.194 53.501C203.489 52.9463 203.892 52.5173 204.403 52.214C204.923 51.9107 205.504 51.759 206.145 51.759C206.7 51.759 207.216 51.889 207.692 52.149C208.169 52.4003 208.533 52.734 208.784 53.15V49.38H209.98V59H208.784V57.661C208.55 58.0857 208.204 58.4367 207.744 58.714C207.285 58.9827 206.748 59.117 206.132 59.117C205.5 59.117 204.923 58.961 204.403 58.649C203.892 58.337 203.489 57.8993 203.194 57.336C202.9 56.7727 202.752 56.1313 202.752 55.412ZM208.784 55.425C208.784 54.8877 208.676 54.4197 208.459 54.021C208.243 53.6223 207.948 53.319 207.575 53.111C207.211 52.8943 206.808 52.786 206.366 52.786C205.924 52.786 205.521 52.89 205.157 53.098C204.793 53.306 204.503 53.6093 204.286 54.008C204.07 54.4067 203.961 54.8747 203.961 55.412C203.961 55.958 204.07 56.4347 204.286 56.842C204.503 57.2407 204.793 57.5483 205.157 57.765C205.521 57.973 205.924 58.077 206.366 58.077C206.808 58.077 207.211 57.973 207.575 57.765C207.948 57.5483 208.243 57.2407 208.459 56.842C208.676 56.4347 208.784 55.9623 208.784 55.425ZM218.48 55.165C218.48 55.3903 218.467 55.6287 218.441 55.88H212.747C212.79 56.582 213.028 57.1323 213.462 57.531C213.904 57.921 214.437 58.116 215.061 58.116C215.572 58.116 215.997 57.999 216.335 57.765C216.681 57.5223 216.924 57.2017 217.063 56.803H218.337C218.146 57.4877 217.765 58.0467 217.193 58.48C216.621 58.9047 215.91 59.117 215.061 59.117C214.385 59.117 213.778 58.9653 213.241 58.662C212.712 58.3587 212.296 57.9297 211.993 57.375C211.689 56.8117 211.538 56.1617 211.538 55.425C211.538 54.6883 211.685 54.0427 211.98 53.488C212.274 52.9333 212.686 52.5087 213.215 52.214C213.752 51.9107 214.367 51.759 215.061 51.759C215.737 51.759 216.335 51.9063 216.855 52.201C217.375 52.4957 217.773 52.903 218.051 53.423C218.337 53.9343 218.48 54.515 218.48 55.165ZM217.258 54.918C217.258 54.4673 217.158 54.0817 216.959 53.761C216.759 53.4317 216.486 53.1847 216.14 53.02C215.802 52.8467 215.425 52.76 215.009 52.76C214.411 52.76 213.899 52.9507 213.475 53.332C213.059 53.7133 212.82 54.242 212.76 54.918H217.258ZM223.065 55.412C223.065 54.684 223.212 54.047 223.507 53.501C223.802 52.9463 224.205 52.5173 224.716 52.214C225.236 51.9107 225.812 51.759 226.445 51.759C227.069 51.759 227.611 51.8933 228.07 52.162C228.529 52.4307 228.872 52.7687 229.097 53.176V51.876H230.293V59H229.097V57.674C228.863 58.09 228.512 58.4367 228.044 58.714C227.585 58.9827 227.047 59.117 226.432 59.117C225.799 59.117 225.227 58.961 224.716 58.649C224.205 58.337 223.802 57.8993 223.507 57.336C223.212 56.7727 223.065 56.1313 223.065 55.412ZM229.097 55.425C229.097 54.8877 228.989 54.4197 228.772 54.021C228.555 53.6223 228.261 53.319 227.888 53.111C227.524 52.8943 227.121 52.786 226.679 52.786C226.237 52.786 225.834 52.89 225.47 53.098C225.106 53.306 224.816 53.6093 224.599 54.008C224.382 54.4067 224.274 54.8747 224.274 55.412C224.274 55.958 224.382 56.4347 224.599 56.842C224.816 57.2407 225.106 57.5483 225.47 57.765C225.834 57.973 226.237 58.077 226.679 58.077C227.121 58.077 227.524 57.973 227.888 57.765C228.261 57.5483 228.555 57.2407 228.772 56.842C228.989 56.4347 229.097 55.9623 229.097 55.425ZM233.475 53.033C233.683 52.6257 233.978 52.3093 234.359 52.084C234.749 51.8587 235.221 51.746 235.776 51.746V52.968H235.464C234.138 52.968 233.475 53.6873 233.475 55.126V59H232.292V51.876H233.475V53.033ZM238.325 53.033C238.533 52.6257 238.827 52.3093 239.209 52.084C239.599 51.8587 240.071 51.746 240.626 51.746V52.968H240.314C238.988 52.968 238.325 53.6873 238.325 55.126V59H237.142V51.876H238.325V53.033ZM241.549 55.412C241.549 54.684 241.697 54.047 241.991 53.501C242.286 52.9463 242.689 52.5173 243.2 52.214C243.72 51.9107 244.297 51.759 244.929 51.759C245.553 51.759 246.095 51.8933 246.554 52.162C247.014 52.4307 247.356 52.7687 247.581 53.176V51.876H248.777V59H247.581V57.674C247.347 58.09 246.996 58.4367 246.528 58.714C246.069 58.9827 245.532 59.117 244.916 59.117C244.284 59.117 243.712 58.961 243.2 58.649C242.689 58.337 242.286 57.8993 241.991 57.336C241.697 56.7727 241.549 56.1313 241.549 55.412ZM247.581 55.425C247.581 54.8877 247.473 54.4197 247.256 54.021C247.04 53.6223 246.745 53.319 246.372 53.111C246.008 52.8943 245.605 52.786 245.163 52.786C244.721 52.786 244.318 52.89 243.954 53.098C243.59 53.306 243.3 53.6093 243.083 54.008C242.867 54.4067 242.758 54.8747 242.758 55.412C242.758 55.958 242.867 56.4347 243.083 56.842C243.3 57.2407 243.59 57.5483 243.954 57.765C244.318 57.973 244.721 58.077 245.163 58.077C245.605 58.077 246.008 57.973 246.372 57.765C246.745 57.5483 247.04 57.2407 247.256 56.842C247.473 56.4347 247.581 55.9623 247.581 55.425ZM256.912 51.876L252.622 62.354H251.4L252.804 58.922L249.931 51.876H251.244L253.48 57.648L255.69 51.876H256.912ZM264.674 59.117C264.007 59.117 263.4 58.9653 262.854 58.662C262.317 58.3587 261.892 57.9297 261.58 57.375C261.277 56.8117 261.125 56.1617 261.125 55.425C261.125 54.697 261.281 54.0557 261.593 53.501C261.914 52.9377 262.347 52.5087 262.893 52.214C263.439 51.9107 264.05 51.759 264.726 51.759C265.402 51.759 266.013 51.9107 266.559 52.214C267.105 52.5087 267.534 52.9333 267.846 53.488C268.167 54.0427 268.327 54.6883 268.327 55.425C268.327 56.1617 268.163 56.8117 267.833 57.375C267.513 57.9297 267.075 58.3587 266.52 58.662C265.966 58.9653 265.35 59.117 264.674 59.117ZM264.674 58.077C265.099 58.077 265.498 57.9773 265.87 57.778C266.243 57.5787 266.542 57.2797 266.767 56.881C267.001 56.4823 267.118 55.997 267.118 55.425C267.118 54.853 267.006 54.3677 266.78 53.969C266.555 53.5703 266.26 53.2757 265.896 53.085C265.532 52.8857 265.138 52.786 264.713 52.786C264.28 52.786 263.881 52.8857 263.517 53.085C263.162 53.2757 262.876 53.5703 262.659 53.969C262.443 54.3677 262.334 54.853 262.334 55.425C262.334 56.0057 262.438 56.4953 262.646 56.894C262.863 57.2927 263.149 57.5917 263.504 57.791C263.86 57.9817 264.25 58.077 264.674 58.077ZM272.782 52.851H271.287V59H270.104V52.851H269.181V51.876H270.104V51.369C270.104 50.5717 270.308 49.991 270.715 49.627C271.131 49.2543 271.794 49.068 272.704 49.068V50.056C272.184 50.056 271.816 50.16 271.599 50.368C271.391 50.5673 271.287 50.901 271.287 51.369V51.876H272.782V52.851ZM21.184 73.189C21.418 72.7817 21.7647 72.4437 22.224 72.175C22.692 71.8977 23.2337 71.759 23.849 71.759C24.4817 71.759 25.0537 71.9107 25.565 72.214C26.085 72.5173 26.4923 72.9463 26.787 73.501C27.0817 74.047 27.229 74.684 27.229 75.412C27.229 76.1313 27.0817 76.7727 26.787 77.336C26.4923 77.8993 26.085 78.337 25.565 78.649C25.0537 78.961 24.4817 79.117 23.849 79.117C23.2423 79.117 22.705 78.9827 22.237 78.714C21.7777 78.4367 21.4267 78.0943 21.184 77.687V82.38H20.001V71.876H21.184V73.189ZM26.02 75.412C26.02 74.8747 25.9117 74.4067 25.695 74.008C25.4783 73.6093 25.1837 73.306 24.811 73.098C24.447 72.89 24.044 72.786 23.602 72.786C23.1687 72.786 22.7657 72.8943 22.393 73.111C22.029 73.319 21.7343 73.6267 21.509 74.034C21.2923 74.4327 21.184 74.8963 21.184 75.425C21.184 75.9623 21.2923 76.4347 21.509 76.842C21.7343 77.2407 22.029 77.5483 22.393 77.765C22.7657 77.973 23.1687 78.077 23.602 78.077C24.044 78.077 24.447 77.973 24.811 77.765C25.1837 77.5483 25.4783 77.2407 25.695 76.842C25.9117 76.4347 26.02 75.958 26.02 75.412ZM29.9692 69.38V79H28.7862V69.38H29.9692ZM31.5434 75.412C31.5434 74.684 31.6907 74.047 31.9854 73.501C32.28 72.9463 32.683 72.5173 33.1944 72.214C33.7144 71.9107 34.2907 71.759 34.9234 71.759C35.5474 71.759 36.089 71.8933 36.5484 72.162C37.0077 72.4307 37.35 72.7687 37.5754 73.176V71.876H38.7714V79H37.5754V77.674C37.3414 78.09 36.9904 78.4367 36.5224 78.714C36.063 78.9827 35.5257 79.117 34.9104 79.117C34.2777 79.117 33.7057 78.961 33.1944 78.649C32.683 78.337 32.28 77.8993 31.9854 77.336C31.6907 76.7727 31.5434 76.1313 31.5434 75.412ZM37.5754 75.425C37.5754 74.8877 37.467 74.4197 37.2504 74.021C37.0337 73.6223 36.739 73.319 36.3664 73.111C36.0024 72.8943 35.5994 72.786 35.1574 72.786C34.7154 72.786 34.3124 72.89 33.9484 73.098C33.5844 73.306 33.294 73.6093 33.0774 74.008C32.8607 74.4067 32.7524 74.8747 32.7524 75.412C32.7524 75.958 32.8607 76.4347 33.0774 76.842C33.294 77.2407 33.5844 77.5483 33.9484 77.765C34.3124 77.973 34.7154 78.077 35.1574 78.077C35.5994 78.077 36.0024 77.973 36.3664 77.765C36.739 77.5483 37.0337 77.2407 37.2504 76.842C37.467 76.4347 37.5754 75.9623 37.5754 75.425ZM42.2135 72.851V77.05C42.2135 77.3967 42.2872 77.6437 42.4345 77.791C42.5819 77.9297 42.8375 77.999 43.2015 77.999H44.0725V79H43.0065C42.3479 79 41.8539 78.8483 41.5245 78.545C41.1952 78.2417 41.0305 77.7433 41.0305 77.05V72.851H40.1075V71.876H41.0305V70.082H42.2135V71.876H44.0725V72.851H42.2135ZM48.4049 72.851H46.9099V79H45.7269V72.851H44.8039V71.876H45.7269V71.369C45.7269 70.5717 45.9305 69.991 46.3379 69.627C46.7539 69.2543 47.4169 69.068 48.3269 69.068V70.056C47.8069 70.056 47.4385 70.16 47.2219 70.368C47.0139 70.5673 46.9099 70.901 46.9099 71.369V71.876H48.4049V72.851ZM52.8912 79.117C52.2239 79.117 51.6172 78.9653 51.0712 78.662C50.5339 78.3587 50.1092 77.9297 49.7972 77.375C49.4939 76.8117 49.3422 76.1617 49.3422 75.425C49.3422 74.697 49.4982 74.0557 49.8102 73.501C50.1309 72.9377 50.5642 72.5087 51.1102 72.214C51.6562 71.9107 52.2672 71.759 52.9432 71.759C53.6192 71.759 54.2302 71.9107 54.7762 72.214C55.3222 72.5087 55.7512 72.9333 56.0632 73.488C56.3839 74.0427 56.5442 74.6883 56.5442 75.425C56.5442 76.1617 56.3795 76.8117 56.0502 77.375C55.7295 77.9297 55.2919 78.3587 54.7372 78.662C54.1825 78.9653 53.5672 79.117 52.8912 79.117ZM52.8912 78.077C53.3159 78.077 53.7145 77.9773 54.0872 77.778C54.4599 77.5787 54.7589 77.2797 54.9842 76.881C55.2182 76.4823 55.3352 75.997 55.3352 75.425C55.3352 74.853 55.2225 74.3677 54.9972 73.969C54.7719 73.5703 54.4772 73.2757 54.1132 73.085C53.7492 72.8857 53.3549 72.786 52.9302 72.786C52.4969 72.786 52.0982 72.8857 51.7342 73.085C51.3789 73.2757 51.0929 73.5703 50.8762 73.969C50.6595 74.3677 50.5512 74.853 50.5512 75.425C50.5512 76.0057 50.6552 76.4953 50.8632 76.894C51.0799 77.2927 51.3659 77.5917 51.7212 77.791C52.0765 77.9817 52.4665 78.077 52.8912 78.077ZM59.2826 73.033C59.4906 72.6257 59.7853 72.3093 60.1666 72.084C60.5566 71.8587 61.029 71.746 61.5836 71.746V72.968H61.2716C59.9456 72.968 59.2826 73.6873 59.2826 75.126V79H58.0996V71.876H59.2826V73.033ZM71.5162 71.746C72.0709 71.746 72.5649 71.863 72.9982 72.097C73.4316 72.3223 73.7739 72.6647 74.0252 73.124C74.2766 73.5833 74.4022 74.1423 74.4022 74.801V79H73.2322V74.97C73.2322 74.2593 73.0546 73.7177 72.6992 73.345C72.3526 72.9637 71.8802 72.773 71.2822 72.773C70.6669 72.773 70.1772 72.9723 69.8132 73.371C69.4492 73.761 69.2672 74.3287 69.2672 75.074V79H68.0972V74.97C68.0972 74.2593 67.9196 73.7177 67.5642 73.345C67.2176 72.9637 66.7452 72.773 66.1472 72.773C65.5319 72.773 65.0422 72.9723 64.6782 73.371C64.3142 73.761 64.1322 74.3287 64.1322 75.074V79H62.9492V71.876H64.1322V72.903C64.3662 72.5303 64.6782 72.2443 65.0682 72.045C65.4669 71.8457 65.9046 71.746 66.3812 71.746C66.9792 71.746 67.5079 71.8803 67.9672 72.149C68.4266 72.4177 68.7689 72.812 68.9942 73.332C69.1936 72.8293 69.5229 72.4393 69.9822 72.162C70.4416 71.8847 70.9529 71.746 71.5162 71.746ZM78.8648 79.117C78.3188 79.117 77.8291 79.026 77.3958 78.844C76.9625 78.6533 76.6201 78.3933 76.3688 78.064C76.1175 77.726 75.9788 77.3403 75.9528 76.907H77.1748C77.2095 77.2623 77.3741 77.5527 77.6688 77.778C77.9721 78.0033 78.3665 78.116 78.8518 78.116C79.3025 78.116 79.6578 78.0163 79.9178 77.817C80.1778 77.6177 80.3078 77.3663 80.3078 77.063C80.3078 76.751 80.1691 76.5213 79.8918 76.374C79.6145 76.218 79.1855 76.0663 78.6048 75.919C78.0761 75.7803 77.6428 75.6417 77.3048 75.503C76.9755 75.3557 76.6895 75.1433 76.4468 74.866C76.2128 74.58 76.0958 74.2073 76.0958 73.748C76.0958 73.384 76.2041 73.0503 76.4208 72.747C76.6375 72.4437 76.9451 72.2053 77.3438 72.032C77.7425 71.85 78.1975 71.759 78.7088 71.759C79.4975 71.759 80.1345 71.9583 80.6198 72.357C81.1051 72.7557 81.3651 73.3017 81.3998 73.995H80.2168C80.1908 73.6223 80.0391 73.3233 79.7618 73.098C79.4931 72.8727 79.1291 72.76 78.6698 72.76C78.2451 72.76 77.9071 72.851 77.6558 73.033C77.4045 73.215 77.2788 73.4533 77.2788 73.748C77.2788 73.982 77.3525 74.177 77.4998 74.333C77.6558 74.4803 77.8465 74.6017 78.0718 74.697C78.3058 74.7837 78.6265 74.8833 79.0338 74.996C79.5451 75.1347 79.9611 75.2733 80.2818 75.412C80.6025 75.542 80.8755 75.7413 81.1008 76.01C81.3348 76.2787 81.4561 76.6297 81.4648 77.063C81.4648 77.453 81.3565 77.804 81.1398 78.116C80.9231 78.428 80.6155 78.675 80.2168 78.857C79.8268 79.0303 79.3761 79.117 78.8648 79.117ZM89.1226 79.117C88.5766 79.117 88.0869 79.026 87.6536 78.844C87.2203 78.6533 86.8779 78.3933 86.6266 78.064C86.3753 77.726 86.2366 77.3403 86.2106 76.907H87.4326C87.4673 77.2623 87.6319 77.5527 87.9266 77.778C88.2299 78.0033 88.6243 78.116 89.1096 78.116C89.5603 78.116 89.9156 78.0163 90.1756 77.817C90.4356 77.6177 90.5656 77.3663 90.5656 77.063C90.5656 76.751 90.4269 76.5213 90.1496 76.374C89.8723 76.218 89.4433 76.0663 88.8626 75.919C88.3339 75.7803 87.9006 75.6417 87.5626 75.503C87.2333 75.3557 86.9473 75.1433 86.7046 74.866C86.4706 74.58 86.3536 74.2073 86.3536 73.748C86.3536 73.384 86.4619 73.0503 86.6786 72.747C86.8953 72.4437 87.2029 72.2053 87.6016 72.032C88.0003 71.85 88.4553 71.759 88.9666 71.759C89.7553 71.759 90.3923 71.9583 90.8776 72.357C91.3629 72.7557 91.6229 73.3017 91.6576 73.995H90.4746C90.4486 73.6223 90.2969 73.3233 90.0196 73.098C89.7509 72.8727 89.3869 72.76 88.9276 72.76C88.5029 72.76 88.1649 72.851 87.9136 73.033C87.6623 73.215 87.5366 73.4533 87.5366 73.748C87.5366 73.982 87.6103 74.177 87.7576 74.333C87.9136 74.4803 88.1043 74.6017 88.3296 74.697C88.5636 74.7837 88.8843 74.8833 89.2916 74.996C89.8029 75.1347 90.2189 75.2733 90.5396 75.412C90.8603 75.542 91.1333 75.7413 91.3586 76.01C91.5926 76.2787 91.7139 76.6297 91.7226 77.063C91.7226 77.453 91.6143 77.804 91.3976 78.116C91.1809 78.428 90.8733 78.675 90.4746 78.857C90.0846 79.0303 89.6339 79.117 89.1226 79.117ZM99.7106 71.876V79H98.5276V77.947C98.3023 78.311 97.9859 78.597 97.5786 78.805C97.1799 79.0043 96.7379 79.104 96.2526 79.104C95.6979 79.104 95.1996 78.9913 94.7576 78.766C94.3156 78.532 93.9646 78.1853 93.7046 77.726C93.4533 77.2667 93.3276 76.7077 93.3276 76.049V71.876H94.4976V75.893C94.4976 76.595 94.6753 77.1367 95.0306 77.518C95.3859 77.8907 95.8713 78.077 96.4866 78.077C97.1193 78.077 97.6176 77.882 97.9816 77.492C98.3456 77.102 98.5276 76.5343 98.5276 75.789V71.876H99.7106ZM101.266 75.425C101.266 74.6883 101.413 74.047 101.708 73.501C102.003 72.9463 102.41 72.5173 102.93 72.214C103.459 71.9107 104.061 71.759 104.737 71.759C105.612 71.759 106.332 71.9713 106.895 72.396C107.467 72.8207 107.844 73.41 108.026 74.164H106.752C106.631 73.7307 106.392 73.3883 106.037 73.137C105.69 72.8857 105.257 72.76 104.737 72.76C104.061 72.76 103.515 72.994 103.099 73.462C102.683 73.9213 102.475 74.5757 102.475 75.425C102.475 76.283 102.683 76.946 103.099 77.414C103.515 77.882 104.061 78.116 104.737 78.116C105.257 78.116 105.69 77.9947 106.037 77.752C106.384 77.5093 106.622 77.1627 106.752 76.712H108.026C107.835 77.44 107.454 78.025 106.882 78.467C106.31 78.9003 105.595 79.117 104.737 79.117C104.061 79.117 103.459 78.9653 102.93 78.662C102.41 78.3587 102.003 77.9297 101.708 77.375C101.413 76.8203 101.266 76.1703 101.266 75.425ZM113.141 71.746C113.678 71.746 114.163 71.863 114.597 72.097C115.03 72.3223 115.368 72.6647 115.611 73.124C115.862 73.5833 115.988 74.1423 115.988 74.801V79H114.818V74.97C114.818 74.2593 114.64 73.7177 114.285 73.345C113.929 72.9637 113.444 72.773 112.829 72.773C112.205 72.773 111.706 72.968 111.334 73.358C110.97 73.748 110.788 74.3157 110.788 75.061V79H109.605V69.38H110.788V72.89C111.022 72.526 111.342 72.2443 111.75 72.045C112.166 71.8457 112.629 71.746 113.141 71.746ZM120.944 75.412C120.944 74.684 121.091 74.047 121.386 73.501C121.68 72.9463 122.083 72.5173 122.595 72.214C123.115 71.9107 123.691 71.759 124.324 71.759C124.948 71.759 125.489 71.8933 125.949 72.162C126.408 72.4307 126.75 72.7687 126.976 73.176V71.876H128.172V79H126.976V77.674C126.742 78.09 126.391 78.4367 125.923 78.714C125.463 78.9827 124.926 79.117 124.311 79.117C123.678 79.117 123.106 78.961 122.595 78.649C122.083 78.337 121.68 77.8993 121.386 77.336C121.091 76.7727 120.944 76.1313 120.944 75.412ZM126.976 75.425C126.976 74.8877 126.867 74.4197 126.651 74.021C126.434 73.6223 126.139 73.319 125.767 73.111C125.403 72.8943 125 72.786 124.558 72.786C124.116 72.786 123.713 72.89 123.349 73.098C122.985 73.306 122.694 73.6093 122.478 74.008C122.261 74.4067 122.153 74.8747 122.153 75.412C122.153 75.958 122.261 76.4347 122.478 76.842C122.694 77.2407 122.985 77.5483 123.349 77.765C123.713 77.973 124.116 78.077 124.558 78.077C125 78.077 125.403 77.973 125.767 77.765C126.139 77.5483 126.434 77.2407 126.651 76.842C126.867 76.4347 126.976 75.9623 126.976 75.425ZM132.693 79.117C132.147 79.117 131.657 79.026 131.224 78.844C130.791 78.6533 130.448 78.3933 130.197 78.064C129.946 77.726 129.807 77.3403 129.781 76.907H131.003C131.038 77.2623 131.202 77.5527 131.497 77.778C131.8 78.0033 132.195 78.116 132.68 78.116C133.131 78.116 133.486 78.0163 133.746 77.817C134.006 77.6177 134.136 77.3663 134.136 77.063C134.136 76.751 133.997 76.5213 133.72 76.374C133.443 76.218 133.014 76.0663 132.433 75.919C131.904 75.7803 131.471 75.6417 131.133 75.503C130.804 75.3557 130.518 75.1433 130.275 74.866C130.041 74.58 129.924 74.2073 129.924 73.748C129.924 73.384 130.032 73.0503 130.249 72.747C130.466 72.4437 130.773 72.2053 131.172 72.032C131.571 71.85 132.026 71.759 132.537 71.759C133.326 71.759 133.963 71.9583 134.448 72.357C134.933 72.7557 135.193 73.3017 135.228 73.995H134.045C134.019 73.6223 133.867 73.3233 133.59 73.098C133.321 72.8727 132.957 72.76 132.498 72.76C132.073 72.76 131.735 72.851 131.484 73.033C131.233 73.215 131.107 73.4533 131.107 73.748C131.107 73.982 131.181 74.177 131.328 74.333C131.484 74.4803 131.675 74.6017 131.9 74.697C132.134 74.7837 132.455 74.8833 132.862 74.996C133.373 75.1347 133.789 75.2733 134.11 75.412C134.431 75.542 134.704 75.7413 134.929 76.01C135.163 76.2787 135.284 76.6297 135.293 77.063C135.293 77.453 135.185 77.804 134.968 78.116C134.751 78.428 134.444 78.675 134.045 78.857C133.655 79.0303 133.204 79.117 132.693 79.117ZM94.9828 97.362L93.5268 100.859H92.7338L93.6828 97.362H94.9828ZM99.3617 95.412C99.3617 94.684 99.5091 94.047 99.8037 93.501C100.098 92.9463 100.501 92.5173 101.013 92.214C101.533 91.9107 102.109 91.759 102.742 91.759C103.366 91.759 103.907 91.8933 104.367 92.162C104.826 92.4307 105.168 92.7687 105.394 93.176V91.876H106.59V99H105.394V97.674C105.16 98.09 104.809 98.4367 104.341 98.714C103.881 98.9827 103.344 99.117 102.729 99.117C102.096 99.117 101.524 98.961 101.013 98.649C100.501 98.337 100.098 97.8993 99.8037 97.336C99.5091 96.7727 99.3617 96.1313 99.3617 95.412ZM105.394 95.425C105.394 94.8877 105.285 94.4197 105.069 94.021C104.852 93.6223 104.557 93.319 104.185 93.111C103.821 92.8943 103.418 92.786 102.976 92.786C102.534 92.786 102.131 92.89 101.767 93.098C101.403 93.306 101.112 93.6093 100.896 94.008C100.679 94.4067 100.571 94.8747 100.571 95.412C100.571 95.958 100.679 96.4347 100.896 96.842C101.112 97.2407 101.403 97.5483 101.767 97.765C102.131 97.973 102.534 98.077 102.976 98.077C103.418 98.077 103.821 97.973 104.185 97.765C104.557 97.5483 104.852 97.2407 105.069 96.842C105.285 96.4347 105.394 95.9623 105.394 95.425ZM112.06 91.746C112.927 91.746 113.629 92.0103 114.166 92.539C114.703 93.059 114.972 93.813 114.972 94.801V99H113.802V94.97C113.802 94.2593 113.624 93.7177 113.269 93.345C112.914 92.9637 112.428 92.773 111.813 92.773C111.189 92.773 110.691 92.968 110.318 93.358C109.954 93.748 109.772 94.3157 109.772 95.061V99H108.589V91.876H109.772V92.89C110.006 92.526 110.322 92.2443 110.721 92.045C111.128 91.8457 111.575 91.746 112.06 91.746ZM116.462 95.412C116.462 94.684 116.61 94.047 116.904 93.501C117.199 92.9463 117.602 92.5173 118.113 92.214C118.633 91.9107 119.214 91.759 119.855 91.759C120.41 91.759 120.926 91.889 121.402 92.149C121.879 92.4003 122.243 92.734 122.494 93.15V89.38H123.69V99H122.494V97.661C122.26 98.0857 121.914 98.4367 121.454 98.714C120.995 98.9827 120.458 99.117 119.842 99.117C119.21 99.117 118.633 98.961 118.113 98.649C117.602 98.337 117.199 97.8993 116.904 97.336C116.61 96.7727 116.462 96.1313 116.462 95.412ZM122.494 95.425C122.494 94.8877 122.386 94.4197 122.169 94.021C121.953 93.6223 121.658 93.319 121.285 93.111C120.921 92.8943 120.518 92.786 120.076 92.786C119.634 92.786 119.231 92.89 118.867 93.098C118.503 93.306 118.213 93.6093 117.996 94.008C117.78 94.4067 117.671 94.8747 117.671 95.412C117.671 95.958 117.78 96.4347 117.996 96.842C118.213 97.2407 118.503 97.5483 118.867 97.765C119.231 97.973 119.634 98.077 120.076 98.077C120.518 98.077 120.921 97.973 121.285 97.765C121.658 97.5483 121.953 97.2407 122.169 96.842C122.386 96.4347 122.494 95.9623 122.494 95.425ZM137.722 91.746C138.277 91.746 138.771 91.863 139.204 92.097C139.638 92.3223 139.98 92.6647 140.231 93.124C140.483 93.5833 140.608 94.1423 140.608 94.801V99H139.438V94.97C139.438 94.2593 139.261 93.7177 138.905 93.345C138.559 92.9637 138.086 92.773 137.488 92.773C136.873 92.773 136.383 92.9723 136.019 93.371C135.655 93.761 135.473 94.3287 135.473 95.074V99H134.303V94.97C134.303 94.2593 134.126 93.7177 133.77 93.345C133.424 92.9637 132.951 92.773 132.353 92.773C131.738 92.773 131.248 92.9723 130.884 93.371C130.52 93.761 130.338 94.3287 130.338 95.074V99H129.155V91.876H130.338V92.903C130.572 92.5303 130.884 92.2443 131.274 92.045C131.673 91.8457 132.111 91.746 132.587 91.746C133.185 91.746 133.714 91.8803 134.173 92.149C134.633 92.4177 134.975 92.812 135.2 93.332C135.4 92.8293 135.729 92.4393 136.188 92.162C136.648 91.8847 137.159 91.746 137.722 91.746ZM145.656 99.117C144.989 99.117 144.382 98.9653 143.836 98.662C143.299 98.3587 142.874 97.9297 142.562 97.375C142.259 96.8117 142.107 96.1617 142.107 95.425C142.107 94.697 142.263 94.0557 142.575 93.501C142.896 92.9377 143.329 92.5087 143.875 92.214C144.421 91.9107 145.032 91.759 145.708 91.759C146.384 91.759 146.995 91.9107 147.541 92.214C148.087 92.5087 148.516 92.9333 148.828 93.488C149.149 94.0427 149.309 94.6883 149.309 95.425C149.309 96.1617 149.144 96.8117 148.815 97.375C148.494 97.9297 148.057 98.3587 147.502 98.662C146.947 98.9653 146.332 99.117 145.656 99.117ZM145.656 98.077C146.081 98.077 146.479 97.9773 146.852 97.778C147.225 97.5787 147.524 97.2797 147.749 96.881C147.983 96.4823 148.1 95.997 148.1 95.425C148.1 94.853 147.987 94.3677 147.762 93.969C147.537 93.5703 147.242 93.2757 146.878 93.085C146.514 92.8857 146.12 92.786 145.695 92.786C145.262 92.786 144.863 92.8857 144.499 93.085C144.144 93.2757 143.858 93.5703 143.641 93.969C143.424 94.3677 143.316 94.853 143.316 95.425C143.316 96.0057 143.42 96.4953 143.628 96.894C143.845 97.2927 144.131 97.5917 144.486 97.791C144.841 97.9817 145.231 98.077 145.656 98.077ZM152.047 93.033C152.255 92.6257 152.55 92.3093 152.931 92.084C153.321 91.8587 153.794 91.746 154.348 91.746V92.968H154.036C152.71 92.968 152.047 93.6873 152.047 95.126V99H150.864V91.876H152.047V93.033ZM162.214 95.165C162.214 95.3903 162.201 95.6287 162.175 95.88H156.481C156.524 96.582 156.763 97.1323 157.196 97.531C157.638 97.921 158.171 98.116 158.795 98.116C159.306 98.116 159.731 97.999 160.069 97.765C160.416 97.5223 160.658 97.2017 160.797 96.803H162.071C161.88 97.4877 161.499 98.0467 160.927 98.48C160.355 98.9047 159.644 99.117 158.795 99.117C158.119 99.117 157.512 98.9653 156.975 98.662C156.446 98.3587 156.03 97.9297 155.727 97.375C155.424 96.8117 155.272 96.1617 155.272 95.425C155.272 94.6883 155.419 94.0427 155.714 93.488C156.009 92.9333 156.42 92.5087 156.949 92.214C157.486 91.9107 158.102 91.759 158.795 91.759C159.471 91.759 160.069 91.9063 160.589 92.201C161.109 92.4957 161.508 92.903 161.785 93.423C162.071 93.9343 162.214 94.515 162.214 95.165ZM160.992 94.918C160.992 94.4673 160.892 94.0817 160.693 93.761C160.494 93.4317 160.221 93.1847 159.874 93.02C159.536 92.8467 159.159 92.76 158.743 92.76C158.145 92.76 157.634 92.9507 157.209 93.332C156.793 93.7133 156.555 94.242 156.494 94.918H160.992ZM164.152 99.078C163.927 99.078 163.736 99 163.58 98.844C163.424 98.688 163.346 98.4973 163.346 98.272C163.346 98.0467 163.424 97.856 163.58 97.7C163.736 97.544 163.927 97.466 164.152 97.466C164.369 97.466 164.551 97.544 164.698 97.7C164.854 97.856 164.932 98.0467 164.932 98.272C164.932 98.4973 164.854 98.688 164.698 98.844C164.551 99 164.369 99.078 164.152 99.078Z" fill="#B6B6B6"/>
<path d="M145.785 76.985H141.833L141.105 79H139.857L143.133 69.991H144.498L147.761 79H146.513L145.785 76.985ZM145.447 76.023L143.809 71.447L142.171 76.023H145.447ZM160.577 69.939L157.951 79H156.625L154.519 71.707L152.335 79L151.022 79.013L148.487 69.939H149.748L151.724 77.622L153.908 69.939H155.234L157.314 77.596L159.303 69.939H160.577ZM164.744 79.091C164.146 79.091 163.609 78.987 163.132 78.779C162.664 78.5623 162.296 78.2677 162.027 77.895C161.758 77.5137 161.62 77.076 161.611 76.582H162.872C162.915 77.0067 163.089 77.3663 163.392 77.661C163.704 77.947 164.155 78.09 164.744 78.09C165.307 78.09 165.749 77.9513 166.07 77.674C166.399 77.388 166.564 77.024 166.564 76.582C166.564 76.2353 166.469 75.9537 166.278 75.737C166.087 75.5203 165.849 75.3557 165.563 75.243C165.277 75.1303 164.891 75.009 164.406 74.879C163.808 74.723 163.327 74.567 162.963 74.411C162.608 74.255 162.3 74.0123 162.04 73.683C161.789 73.345 161.663 72.8943 161.663 72.331C161.663 71.837 161.789 71.3993 162.04 71.018C162.291 70.6367 162.642 70.342 163.093 70.134C163.552 69.926 164.077 69.822 164.666 69.822C165.515 69.822 166.209 70.0343 166.746 70.459C167.292 70.8837 167.6 71.447 167.669 72.149H166.369C166.326 71.8023 166.144 71.499 165.823 71.239C165.502 70.9703 165.078 70.836 164.549 70.836C164.055 70.836 163.652 70.966 163.34 71.226C163.028 71.4773 162.872 71.8327 162.872 72.292C162.872 72.6213 162.963 72.89 163.145 73.098C163.336 73.306 163.565 73.4663 163.834 73.579C164.111 73.683 164.497 73.8043 164.991 73.943C165.589 74.1077 166.07 74.2723 166.434 74.437C166.798 74.593 167.11 74.84 167.37 75.178C167.63 75.5073 167.76 75.958 167.76 76.53C167.76 76.972 167.643 77.388 167.409 77.778C167.175 78.168 166.828 78.4843 166.369 78.727C165.91 78.9697 165.368 79.091 164.744 79.091ZM170.723 77.362L169.267 80.859H168.474L169.423 77.362H170.723ZM180.9 76.985H176.948L176.22 79H174.972L178.248 69.991H179.613L182.876 79H181.628L180.9 76.985ZM180.562 76.023L178.924 71.447L177.286 76.023H180.562ZM185.188 78.025H188.685V79H183.836V78.025L187.294 72.838H183.862V71.876H188.659V72.838L185.188 78.025ZM196.538 71.876V79H195.355V77.947C195.129 78.311 194.813 78.597 194.406 78.805C194.007 79.0043 193.565 79.104 193.08 79.104C192.525 79.104 192.027 78.9913 191.585 78.766C191.143 78.532 190.792 78.1853 190.532 77.726C190.28 77.2667 190.155 76.7077 190.155 76.049V71.876H191.325V75.893C191.325 76.595 191.502 77.1367 191.858 77.518C192.213 77.8907 192.698 78.077 193.314 78.077C193.946 78.077 194.445 77.882 194.809 77.492C195.173 77.102 195.355 76.5343 195.355 75.789V71.876H196.538ZM199.718 73.033C199.926 72.6257 200.221 72.3093 200.602 72.084C200.992 71.8587 201.465 71.746 202.019 71.746V72.968H201.707C200.381 72.968 199.718 73.6873 199.718 75.126V79H198.535V71.876H199.718V73.033ZM209.885 75.165C209.885 75.3903 209.872 75.6287 209.846 75.88H204.152C204.195 76.582 204.433 77.1323 204.867 77.531C205.309 77.921 205.842 78.116 206.466 78.116C206.977 78.116 207.402 77.999 207.74 77.765C208.086 77.5223 208.329 77.2017 208.468 76.803H209.742C209.551 77.4877 209.17 78.0467 208.598 78.48C208.026 78.9047 207.315 79.117 206.466 79.117C205.79 79.117 205.183 78.9653 204.646 78.662C204.117 78.3587 203.701 77.9297 203.398 77.375C203.094 76.8117 202.943 76.1617 202.943 75.425C202.943 74.6883 203.09 74.0427 203.385 73.488C203.679 72.9333 204.091 72.5087 204.62 72.214C205.157 71.9107 205.772 71.759 206.466 71.759C207.142 71.759 207.74 71.9063 208.26 72.201C208.78 72.4957 209.178 72.903 209.456 73.423C209.742 73.9343 209.885 74.515 209.885 75.165ZM208.663 74.918C208.663 74.4673 208.563 74.0817 208.364 73.761C208.164 73.4317 207.891 73.1847 207.545 73.02C207.207 72.8467 206.83 72.76 206.414 72.76C205.816 72.76 205.304 72.9507 204.88 73.332C204.464 73.7133 204.225 74.242 204.165 74.918H208.663ZM212.668 77.362L211.212 80.859H210.419L211.368 77.362H212.668ZM224.353 72.565C224.102 72.0363 223.738 71.629 223.261 71.343C222.785 71.0483 222.23 70.901 221.597 70.901C220.965 70.901 220.393 71.0483 219.881 71.343C219.379 71.629 218.98 72.045 218.685 72.591C218.399 73.1283 218.256 73.7523 218.256 74.463C218.256 75.1737 218.399 75.7977 218.685 76.335C218.98 76.8723 219.379 77.2883 219.881 77.583C220.393 77.869 220.965 78.012 221.597 78.012C222.481 78.012 223.209 77.7477 223.781 77.219C224.353 76.6903 224.687 75.9753 224.782 75.074H221.168V74.112H226.043V75.022C225.974 75.7673 225.74 76.452 225.341 77.076C224.943 77.6913 224.418 78.181 223.768 78.545C223.118 78.9003 222.395 79.078 221.597 79.078C220.757 79.078 219.99 78.883 219.296 78.493C218.603 78.0943 218.053 77.544 217.645 76.842C217.247 76.14 217.047 75.347 217.047 74.463C217.047 73.579 217.247 72.786 217.645 72.084C218.053 71.3733 218.603 70.823 219.296 70.433C219.99 70.0343 220.757 69.835 221.597 69.835C222.559 69.835 223.409 70.0733 224.145 70.55C224.891 71.0267 225.432 71.6983 225.77 72.565H224.353ZM227.165 74.463C227.165 73.579 227.365 72.786 227.763 72.084C228.162 71.3733 228.704 70.8187 229.388 70.42C230.082 70.0213 230.849 69.822 231.689 69.822C232.677 69.822 233.54 70.0603 234.276 70.537C235.013 71.0137 235.55 71.6897 235.888 72.565H234.471C234.22 72.019 233.856 71.5987 233.379 71.304C232.911 71.0093 232.348 70.862 231.689 70.862C231.057 70.862 230.489 71.0093 229.986 71.304C229.484 71.5987 229.089 72.019 228.803 72.565C228.517 73.1023 228.374 73.735 228.374 74.463C228.374 75.1823 228.517 75.815 228.803 76.361C229.089 76.8983 229.484 77.3143 229.986 77.609C230.489 77.9037 231.057 78.051 231.689 78.051C232.348 78.051 232.911 77.908 233.379 77.622C233.856 77.3273 234.22 76.907 234.471 76.361H235.888C235.55 77.2277 235.013 77.8993 234.276 78.376C233.54 78.844 232.677 79.078 231.689 79.078C230.849 79.078 230.082 78.883 229.388 78.493C228.704 78.0943 228.162 77.544 227.763 76.842C227.365 76.14 227.165 75.347 227.165 74.463ZM243.707 72.591C243.707 73.345 243.447 73.9733 242.927 74.476C242.416 74.97 241.632 75.217 240.574 75.217H238.832V79H237.649V69.939H240.574C241.597 69.939 242.373 70.186 242.901 70.68C243.439 71.174 243.707 71.811 243.707 72.591ZM240.574 74.242C241.233 74.242 241.718 74.099 242.03 73.813C242.342 73.527 242.498 73.1197 242.498 72.591C242.498 71.473 241.857 70.914 240.574 70.914H238.832V74.242H240.574ZM246.4 77.362L244.944 80.859H244.151L245.1 77.362H246.4ZM24.915 99L21.184 94.866V99H20.001V89.939H21.184V94.138L24.928 89.939H26.423L22.315 94.476L26.462 99H24.915ZM34.1012 91.876V99H32.9182V97.947C32.6929 98.311 32.3766 98.597 31.9692 98.805C31.5706 99.0043 31.1286 99.104 30.6432 99.104C30.0886 99.104 29.5902 98.9913 29.1482 98.766C28.7062 98.532 28.3552 98.1853 28.0952 97.726C27.8439 97.2667 27.7182 96.7077 27.7182 96.049V91.876H28.8882V95.893C28.8882 96.595 29.0659 97.1367 29.4212 97.518C29.7766 97.8907 30.2619 98.077 30.8772 98.077C31.5099 98.077 32.0082 97.882 32.3722 97.492C32.7362 97.102 32.9182 96.5343 32.9182 95.789V91.876H34.1012ZM37.2817 93.202C37.5243 92.7773 37.8797 92.4307 38.3477 92.162C38.8157 91.8933 39.3487 91.759 39.9467 91.759C40.588 91.759 41.1643 91.9107 41.6757 92.214C42.187 92.5173 42.59 92.9463 42.8847 93.501C43.1793 94.047 43.3267 94.684 43.3267 95.412C43.3267 96.1313 43.1793 96.7727 42.8847 97.336C42.59 97.8993 42.1827 98.337 41.6627 98.649C41.1513 98.961 40.5793 99.117 39.9467 99.117C39.3313 99.117 38.7897 98.9827 38.3217 98.714C37.8623 98.4453 37.5157 98.103 37.2817 97.687V99H36.0987V89.38H37.2817V93.202ZM42.1177 95.412C42.1177 94.8747 42.0093 94.4067 41.7927 94.008C41.576 93.6093 41.2813 93.306 40.9087 93.098C40.5447 92.89 40.1417 92.786 39.6997 92.786C39.2663 92.786 38.8633 92.8943 38.4907 93.111C38.1267 93.319 37.832 93.6267 37.6067 94.034C37.39 94.4327 37.2817 94.8963 37.2817 95.425C37.2817 95.9623 37.39 96.4347 37.6067 96.842C37.832 97.2407 38.1267 97.5483 38.4907 97.765C38.8633 97.973 39.2663 98.077 39.6997 98.077C40.1417 98.077 40.5447 97.973 40.9087 97.765C41.2813 97.5483 41.576 97.2407 41.7927 96.842C42.0093 96.4347 42.1177 95.958 42.1177 95.412ZM51.3838 95.165C51.3838 95.3903 51.3708 95.6287 51.3448 95.88H45.6508C45.6941 96.582 45.9325 97.1323 46.3658 97.531C46.8078 97.921 47.3408 98.116 47.9648 98.116C48.4761 98.116 48.9008 97.999 49.2388 97.765C49.5855 97.5223 49.8281 97.2017 49.9668 96.803H51.2408C51.0501 97.4877 50.6688 98.0467 50.0968 98.48C49.5248 98.9047 48.8141 99.117 47.9648 99.117C47.2888 99.117 46.6821 98.9653 46.1448 98.662C45.6161 98.3587 45.2001 97.9297 44.8968 97.375C44.5935 96.8117 44.4418 96.1617 44.4418 95.425C44.4418 94.6883 44.5891 94.0427 44.8838 93.488C45.1785 92.9333 45.5901 92.5087 46.1188 92.214C46.6561 91.9107 47.2715 91.759 47.9648 91.759C48.6408 91.759 49.2388 91.9063 49.7588 92.201C50.2788 92.4957 50.6775 92.903 50.9548 93.423C51.2408 93.9343 51.3838 94.515 51.3838 95.165ZM50.1618 94.918C50.1618 94.4673 50.0621 94.0817 49.8628 93.761C49.6635 93.4317 49.3905 93.1847 49.0438 93.02C48.7058 92.8467 48.3288 92.76 47.9128 92.76C47.3148 92.76 46.8035 92.9507 46.3788 93.332C45.9628 93.7133 45.7245 94.242 45.6638 94.918H50.1618ZM54.1283 93.033C54.3363 92.6257 54.631 92.3093 55.0123 92.084C55.4023 91.8587 55.8747 91.746 56.4293 91.746V92.968H56.1173C54.7913 92.968 54.1283 93.6873 54.1283 95.126V99H52.9453V91.876H54.1283V93.033ZM61.2659 91.746C62.1326 91.746 62.8346 92.0103 63.3719 92.539C63.9093 93.059 64.1779 93.813 64.1779 94.801V99H63.0079V94.97C63.0079 94.2593 62.8303 93.7177 62.4749 93.345C62.1196 92.9637 61.6343 92.773 61.0189 92.773C60.3949 92.773 59.8966 92.968 59.5239 93.358C59.1599 93.748 58.9779 94.3157 58.9779 95.061V99H57.7949V91.876H58.9779V92.89C59.2119 92.526 59.5283 92.2443 59.9269 92.045C60.3343 91.8457 60.7806 91.746 61.2659 91.746ZM72.6104 95.165C72.6104 95.3903 72.5974 95.6287 72.5714 95.88H66.8774C66.9207 96.582 67.159 97.1323 67.5924 97.531C68.0344 97.921 68.5674 98.116 69.1914 98.116C69.7027 98.116 70.1274 97.999 70.4654 97.765C70.812 97.5223 71.0547 97.2017 71.1934 96.803H72.4674C72.2767 97.4877 71.8954 98.0467 71.3234 98.48C70.7514 98.9047 70.0407 99.117 69.1914 99.117C68.5154 99.117 67.9087 98.9653 67.3714 98.662C66.8427 98.3587 66.4267 97.9297 66.1234 97.375C65.82 96.8117 65.6684 96.1617 65.6684 95.425C65.6684 94.6883 65.8157 94.0427 66.1104 93.488C66.405 92.9333 66.8167 92.5087 67.3454 92.214C67.8827 91.9107 68.498 91.759 69.1914 91.759C69.8674 91.759 70.4654 91.9063 70.9854 92.201C71.5054 92.4957 71.904 92.903 72.1814 93.423C72.4674 93.9343 72.6104 94.515 72.6104 95.165ZM71.3884 94.918C71.3884 94.4673 71.2887 94.0817 71.0894 93.761C70.89 93.4317 70.617 93.1847 70.2704 93.02C69.9324 92.8467 69.5554 92.76 69.1394 92.76C68.5414 92.76 68.03 92.9507 67.6054 93.332C67.1894 93.7133 66.951 94.242 66.8904 94.918H71.3884ZM75.6149 92.851V97.05C75.6149 97.3967 75.6886 97.6437 75.8359 97.791C75.9832 97.9297 76.2389 97.999 76.6029 97.999H77.4739V99H76.4079C75.7492 99 75.2552 98.8483 74.9259 98.545C74.5966 98.2417 74.4319 97.7433 74.4319 97.05V92.851H73.5089V91.876H74.4319V90.082H75.6149V91.876H77.4739V92.851H75.6149ZM85.4073 95.165C85.4073 95.3903 85.3943 95.6287 85.3683 95.88H79.6743C79.7176 96.582 79.9559 97.1323 80.3893 97.531C80.8313 97.921 81.3643 98.116 81.9883 98.116C82.4996 98.116 82.9243 97.999 83.2623 97.765C83.6089 97.5223 83.8516 97.2017 83.9903 96.803H85.2643C85.0736 97.4877 84.6923 98.0467 84.1203 98.48C83.5483 98.9047 82.8376 99.117 81.9883 99.117C81.3123 99.117 80.7056 98.9653 80.1683 98.662C79.6396 98.3587 79.2236 97.9297 78.9203 97.375C78.6169 96.8117 78.4653 96.1617 78.4653 95.425C78.4653 94.6883 78.6126 94.0427 78.9073 93.488C79.2019 92.9333 79.6136 92.5087 80.1423 92.214C80.6796 91.9107 81.2949 91.759 81.9883 91.759C82.6643 91.759 83.2623 91.9063 83.7823 92.201C84.3023 92.4957 84.7009 92.903 84.9783 93.423C85.2643 93.9343 85.4073 94.515 85.4073 95.165ZM84.1853 94.918C84.1853 94.4673 84.0856 94.0817 83.8863 93.761C83.6869 93.4317 83.4139 93.1847 83.0673 93.02C82.7293 92.8467 82.3523 92.76 81.9363 92.76C81.3383 92.76 80.8269 92.9507 80.4023 93.332C79.9863 93.7133 79.7479 94.242 79.6873 94.918H84.1853ZM89.4908 99.117C88.9448 99.117 88.4551 99.026 88.0218 98.844C87.5884 98.6533 87.2461 98.3933 86.9948 98.064C86.7434 97.726 86.6048 97.3403 86.5788 96.907H87.8008C87.8354 97.2623 88.0001 97.5527 88.2948 97.778C88.5981 98.0033 88.9924 98.116 89.4778 98.116C89.9284 98.116 90.2838 98.0163 90.5438 97.817C90.8038 97.6177 90.9338 97.3663 90.9338 97.063C90.9338 96.751 90.7951 96.5213 90.5178 96.374C90.2404 96.218 89.8114 96.0663 89.2308 95.919C88.7021 95.7803 88.2688 95.6417 87.9308 95.503C87.6014 95.3557 87.3154 95.1433 87.0728 94.866C86.8388 94.58 86.7218 94.2073 86.7218 93.748C86.7218 93.384 86.8301 93.0503 87.0468 92.747C87.2634 92.4437 87.5711 92.2053 87.9698 92.032C88.3684 91.85 88.8234 91.759 89.3348 91.759C90.1234 91.759 90.7604 91.9583 91.2458 92.357C91.7311 92.7557 91.9911 93.3017 92.0258 93.995H90.8428C90.8168 93.6223 90.6651 93.3233 90.3878 93.098C90.1191 92.8727 89.7551 92.76 89.2958 92.76C88.8711 92.76 88.5331 92.851 88.2818 93.033C88.0304 93.215 87.9048 93.4533 87.9048 93.748C87.9048 93.982 87.9784 94.177 88.1258 94.333C88.2818 94.4803 88.4724 94.6017 88.6978 94.697C88.9318 94.7837 89.2524 94.8833 89.6598 94.996C90.1711 95.1347 90.5871 95.2733 90.9078 95.412C91.2284 95.542 91.5014 95.7413 91.7268 96.01C91.9608 96.2787 92.0821 96.6297 92.0908 97.063C92.0908 97.453 91.9824 97.804 91.7658 98.116C91.5491 98.428 91.2414 98.675 90.8428 98.857C90.4528 99.0303 90.0021 99.117 89.4908 99.117Z" fill="white"/>
<defs>
<filter id="filter0_b_327_411" x="-50" y="-50" width="401" height="235" filterUnits="userSpaceOnUse" color-interpolation-filters="sRGB">
<feFlood flood-opacity="0" result="BackgroundImageFix"/>
<feGaussianBlur in="BackgroundImageFix" stdDeviation="25"/>
<feComposite in2="SourceAlpha" operator="in" result="effect1_backgroundBlur_327_411"/>
<feBlend mode="normal" in="SourceGraphic" in2="effect1_backgroundBlur_327_411" result="shape"/>
</filter>
<linearGradient id="paint0_linear_327_411" x1="333.5" y1="276.5" x2="135" y2="28.5" gradientUnits="userSpaceOnUse">
<stop stop-color="#161616"/>
<stop offset="1" stop-color="#737373"/>
</linearGradient>
</defs>
</svg>
