<svg width="301" height="135" viewBox="0 0 301 135" fill="none" xmlns="http://www.w3.org/2000/svg">
<g filter="url(#filter0_b_335_477)">
<mask id="path-1-inside-1_335_477" fill="white">
<path fill-rule="evenodd" clip-rule="evenodd" d="M10 0C4.47715 0 0 4.47715 0 10V125C0 130.523 4.47716 135 10 135H190.724C189.068 133.549 187.573 131.909 186.271 130.103C182.682 125.123 180.75 119.139 180.75 113C180.75 106.861 182.682 100.877 186.271 95.8972C189.861 90.917 194.926 87.1924 200.75 85.251C206.574 83.3097 212.862 83.25 218.721 85.0805C224.581 86.9109 229.717 90.5387 233.4 95.45C233.419 95.4759 233.438 95.5023 233.456 95.5293L255.429 128.488C257.402 131.11 259.847 133.314 262.619 135H289.381C292.307 133.221 294.865 130.865 296.889 128.056C298.827 125.369 300.215 122.349 301 119.17V106.83C300.215 103.651 298.827 100.631 296.889 97.9437C293.729 93.5594 289.27 90.2804 284.143 88.5714C279.016 86.8624 273.481 86.8098 268.322 88.4213C263.179 90.028 258.669 93.2076 255.429 97.5119L254.081 99.5332C253.545 100.337 252.458 100.555 251.654 100.019C250.85 99.4825 250.633 98.396 251.169 97.5918L252.544 95.5293C252.562 95.5023 252.581 95.4759 252.6 95.45C256.283 90.5387 261.419 86.9109 267.279 85.0805C273.138 83.25 279.426 83.3097 285.25 85.251C291.074 87.1924 296.139 90.917 299.729 95.8972C300.179 96.5215 300.603 97.1615 301 97.8157V10C301 4.47715 296.523 0 291 0H10ZM256.724 135C255.207 133.671 253.823 132.181 252.6 130.55C252.581 130.524 252.562 130.498 252.544 130.471L230.571 97.5118C227.331 93.2076 222.821 90.028 217.678 88.4213C212.519 86.8098 206.984 86.8624 201.857 88.5714C196.73 90.2804 192.271 93.5594 189.111 97.9437C185.95 102.328 184.25 107.596 184.25 113C184.25 118.404 185.95 123.672 189.111 128.056C191.135 130.865 193.693 133.221 196.619 135H223.381C226.153 133.314 228.598 131.109 230.572 128.488L232.382 125.778C232.919 124.974 234.005 124.758 234.809 125.295C235.613 125.832 235.829 126.918 235.292 127.722L233.455 130.472C233.438 130.499 233.419 130.525 233.4 130.55C232.177 132.181 230.793 133.671 229.276 135H256.724Z"/>
</mask>
<path fill-rule="evenodd" clip-rule="evenodd" d="M10 0C4.47715 0 0 4.47715 0 10V125C0 130.523 4.47716 135 10 135H190.724C189.068 133.549 187.573 131.909 186.271 130.103C182.682 125.123 180.75 119.139 180.75 113C180.75 106.861 182.682 100.877 186.271 95.8972C189.861 90.917 194.926 87.1924 200.75 85.251C206.574 83.3097 212.862 83.25 218.721 85.0805C224.581 86.9109 229.717 90.5387 233.4 95.45C233.419 95.4759 233.438 95.5023 233.456 95.5293L255.429 128.488C257.402 131.11 259.847 133.314 262.619 135H289.381C292.307 133.221 294.865 130.865 296.889 128.056C298.827 125.369 300.215 122.349 301 119.17V106.83C300.215 103.651 298.827 100.631 296.889 97.9437C293.729 93.5594 289.27 90.2804 284.143 88.5714C279.016 86.8624 273.481 86.8098 268.322 88.4213C263.179 90.028 258.669 93.2076 255.429 97.5119L254.081 99.5332C253.545 100.337 252.458 100.555 251.654 100.019C250.85 99.4825 250.633 98.396 251.169 97.5918L252.544 95.5293C252.562 95.5023 252.581 95.4759 252.6 95.45C256.283 90.5387 261.419 86.9109 267.279 85.0805C273.138 83.25 279.426 83.3097 285.25 85.251C291.074 87.1924 296.139 90.917 299.729 95.8972C300.179 96.5215 300.603 97.1615 301 97.8157V10C301 4.47715 296.523 0 291 0H10ZM256.724 135C255.207 133.671 253.823 132.181 252.6 130.55C252.581 130.524 252.562 130.498 252.544 130.471L230.571 97.5118C227.331 93.2076 222.821 90.028 217.678 88.4213C212.519 86.8098 206.984 86.8624 201.857 88.5714C196.73 90.2804 192.271 93.5594 189.111 97.9437C185.95 102.328 184.25 107.596 184.25 113C184.25 118.404 185.95 123.672 189.111 128.056C191.135 130.865 193.693 133.221 196.619 135H223.381C226.153 133.314 228.598 131.109 230.572 128.488L232.382 125.778C232.919 124.974 234.005 124.758 234.809 125.295C235.613 125.832 235.829 126.918 235.292 127.722L233.455 130.472C233.438 130.499 233.419 130.525 233.4 130.55C232.177 132.181 230.793 133.671 229.276 135H256.724Z" fill="url(#paint0_linear_335_477)" fill-opacity="0.5"/>
<path d="M190.724 135V136H193.383L191.383 134.248L190.724 135ZM186.271 130.103L185.46 130.687L185.46 130.687L186.271 130.103ZM186.271 95.8972L187.082 96.4819L187.082 96.4819L186.271 95.8972ZM200.75 85.251L200.434 84.3023L200.434 84.3023L200.75 85.251ZM218.721 85.0805L219.02 84.126L219.02 84.126L218.721 85.0805ZM233.4 95.45L232.6 96.05L232.6 96.0503L233.4 95.45ZM233.456 95.5293L232.624 96.084L232.624 96.084L233.456 95.5293ZM255.429 128.488L254.597 129.043L254.613 129.067L254.63 129.09L255.429 128.488ZM262.619 135L262.099 135.854L262.338 136H262.619V135ZM289.381 135V136H289.662L289.901 135.854L289.381 135ZM296.889 128.056L297.701 128.641L297.701 128.641L296.889 128.056ZM301 119.17L301.971 119.409L302 119.291V119.17H301ZM301 106.83H302V106.709L301.971 106.591L301 106.83ZM296.889 97.9437L297.701 97.359L297.701 97.359L296.889 97.9437ZM284.143 88.5714L283.827 89.5201L283.827 89.5201L284.143 88.5714ZM268.322 88.4213L268.62 89.3758L268.62 89.3758L268.322 88.4213ZM255.429 97.5119L254.63 96.9104L254.613 96.9333L254.597 96.9572L255.429 97.5119ZM254.081 99.5332L254.913 100.088L254.081 99.5332ZM251.654 100.019L251.1 100.851L251.1 100.851L251.654 100.019ZM251.169 97.5918L252.001 98.1465L251.169 97.5918ZM252.6 95.45L253.4 96.0503L253.4 96.05L252.6 95.45ZM267.279 85.0805L266.98 84.126L266.98 84.126L267.279 85.0805ZM285.25 85.251L285.566 84.3023L285.566 84.3023L285.25 85.251ZM299.729 95.8972L300.54 95.3125L300.54 95.3125L299.729 95.8972ZM301 97.8157L300.145 98.3348L302 101.388V97.8157H301ZM256.724 135V136H259.383L257.383 134.248L256.724 135ZM252.6 130.55L253.4 129.95L253.4 129.95L252.6 130.55ZM252.544 130.471L251.712 131.025L251.712 131.026L252.544 130.471ZM230.571 97.5118L231.403 96.9571L231.387 96.9333L231.37 96.9103L230.571 97.5118ZM217.678 88.4213L217.38 89.3758L217.38 89.3758L217.678 88.4213ZM189.111 128.056L189.922 127.472L189.922 127.472L189.111 128.056ZM196.619 135L196.099 135.854L196.338 136H196.619V135ZM223.381 135V136H223.662L223.901 135.854L223.381 135ZM230.572 128.488L231.371 129.089L231.388 129.066L231.403 129.043L230.572 128.488ZM232.382 125.778L231.55 125.222L231.55 125.222L232.382 125.778ZM235.292 127.722L236.124 128.278L236.124 128.278L235.292 127.722ZM233.455 130.472L234.286 131.028L234.287 131.028L233.455 130.472ZM233.4 130.55L232.6 129.95L232.6 129.95L233.4 130.55ZM229.276 135L228.617 134.248L226.617 136H229.276V135ZM1 10C1 5.02944 5.02944 1 10 1V-1C3.92487 -1 -1 3.92487 -1 10H1ZM1 125V10H-1V125H1ZM10 134C5.02944 134 1 129.971 1 125H-1C-1 131.075 3.92488 136 10 136V134ZM190.724 134H10V136H190.724V134ZM191.383 134.248C189.784 132.847 188.34 131.262 187.082 129.518L185.46 130.687C186.806 132.555 188.353 134.252 190.065 135.752L191.383 134.248ZM187.082 129.518C183.616 124.708 181.75 118.929 181.75 113H179.75C179.75 119.349 181.748 125.537 185.46 130.687L187.082 129.518ZM181.75 113C181.75 107.071 183.616 101.292 187.082 96.4819L185.46 95.3125C181.748 100.463 179.75 106.651 179.75 113H181.75ZM187.082 96.4819C190.549 91.6719 195.442 88.0747 201.067 86.1997L200.434 84.3023C194.411 86.31 189.172 90.162 185.46 95.3125L187.082 96.4819ZM201.067 86.1997C206.691 84.3247 212.764 84.2671 218.423 86.035L219.02 84.126C212.959 82.2329 206.457 82.2946 200.434 84.3023L201.067 86.1997ZM218.423 86.035C224.083 87.8029 229.042 91.3067 232.6 96.05L234.2 94.85C230.391 89.7708 225.08 86.019 219.02 84.126L218.423 86.035ZM232.6 96.0503C232.608 96.061 232.616 96.0723 232.624 96.084L234.288 94.9746C234.26 94.9324 234.231 94.8908 234.2 94.8497L232.6 96.0503ZM232.624 96.084L254.597 129.043L256.261 127.933L234.288 94.9746L232.624 96.084ZM254.63 129.09C256.68 131.813 259.22 134.103 262.099 135.854L263.138 134.146C260.474 132.525 258.125 130.406 256.228 127.887L254.63 129.09ZM289.381 134H262.619V136H289.381V134ZM289.901 135.854C292.94 134.006 295.597 131.559 297.701 128.641L296.078 127.472C294.132 130.172 291.674 132.435 288.862 134.146L289.901 135.854ZM297.701 128.641C299.713 125.849 301.156 122.712 301.971 119.409L300.029 118.93C299.275 121.986 297.94 124.888 296.078 127.472L297.701 128.641ZM300 106.83V119.17H302V106.83H300ZM301.971 106.591C301.156 103.288 299.713 100.151 297.701 97.359L296.078 98.5284C297.94 101.112 299.275 104.014 300.029 107.07L301.971 106.591ZM297.701 97.359C294.418 92.8044 289.785 89.3981 284.459 87.6227L283.827 89.5201C288.755 91.1628 293.041 94.3143 296.078 98.5284L297.701 97.359ZM284.459 87.6227C279.133 85.8473 273.383 85.7927 268.024 87.4668L268.62 89.3758C273.579 87.8269 278.899 87.8774 283.827 89.5201L284.459 87.6227ZM268.024 87.4668C262.681 89.1359 257.996 92.439 254.63 96.9104L256.228 98.1133C259.342 93.9763 263.677 90.9201 268.62 89.3758L268.024 87.4668ZM254.597 96.9572L253.249 98.9785L254.913 100.088L256.261 98.0666L254.597 96.9572ZM253.249 98.9785C253.019 99.3232 252.554 99.4163 252.209 99.1865L251.1 100.851C252.363 101.693 254.071 101.352 254.913 100.088L253.249 98.9785ZM252.209 99.1865C251.864 98.9568 251.771 98.4911 252.001 98.1465L250.337 97.0371C249.494 98.3008 249.836 100.008 251.1 100.851L252.209 99.1865ZM252.001 98.1465L253.376 96.084L251.712 94.9746L250.337 97.0371L252.001 98.1465ZM253.376 96.084C253.384 96.0723 253.392 96.061 253.4 96.0503L251.8 94.8497C251.769 94.8908 251.74 94.9324 251.712 94.9746L253.376 96.084ZM253.4 96.05C256.958 91.3067 261.917 87.8029 267.577 86.035L266.98 84.126C260.92 86.019 255.609 89.7708 251.8 94.85L253.4 96.05ZM267.577 86.035C273.236 84.2671 279.309 84.3247 284.933 86.1997L285.566 84.3023C279.543 82.2946 273.041 82.2329 266.98 84.126L267.577 86.035ZM284.933 86.1997C290.558 88.0747 295.451 91.6719 298.918 96.4819L300.54 95.3125C296.828 90.162 291.589 86.31 285.566 84.3023L284.933 86.1997ZM298.918 96.4819C299.352 97.0849 299.762 97.7031 300.145 98.3348L301.855 97.2966C301.444 96.62 301.005 95.9581 300.54 95.3125L298.918 96.4819ZM300 10V97.8157H302V10H300ZM291 1C295.971 1 300 5.02944 300 10H302C302 3.92487 297.075 -1 291 -1V1ZM10 1H291V-1H10V1ZM257.383 134.248C255.918 132.964 254.582 131.525 253.4 129.95L251.8 131.15C253.065 132.837 254.496 134.377 256.065 135.752L257.383 134.248ZM253.4 129.95C253.392 129.939 253.384 129.928 253.376 129.916L251.712 131.026C251.74 131.068 251.769 131.109 251.8 131.15L253.4 129.95ZM253.376 129.916L231.403 96.9571L229.739 98.0665L251.712 131.025L253.376 129.916ZM231.37 96.9103C228.004 92.439 223.319 89.1359 217.976 87.4668L217.38 89.3758C222.323 90.9201 226.658 93.9763 229.772 98.1133L231.37 96.9103ZM217.976 87.4668C212.617 85.7927 206.867 85.8473 201.541 87.6227L202.173 89.5201C207.101 87.8774 212.421 87.8269 217.38 89.3758L217.976 87.4668ZM201.541 87.6227C196.215 89.3981 191.582 92.8044 188.299 97.359L189.922 98.5284C192.959 94.3143 197.245 91.1628 202.173 89.5201L201.541 87.6227ZM188.299 97.359C185.017 101.914 183.25 107.386 183.25 113H185.25C185.25 107.805 186.884 102.742 189.922 98.5284L188.299 97.359ZM183.25 113C183.25 118.614 185.017 124.086 188.299 128.641L189.922 127.472C186.884 123.258 185.25 118.195 185.25 113H183.25ZM188.299 128.641C190.403 131.559 193.06 134.006 196.099 135.854L197.138 134.146C194.326 132.435 191.868 130.172 189.922 127.472L188.299 128.641ZM223.381 134H196.619V136H223.381V134ZM223.901 135.854C226.781 134.103 229.32 131.813 231.371 129.089L229.773 127.886C227.876 130.406 225.526 132.525 222.862 134.146L223.901 135.854ZM231.403 129.043L233.213 126.333L231.55 125.222L229.74 127.932L231.403 129.043ZM233.213 126.333C233.443 125.989 233.909 125.896 234.254 126.126L235.365 124.463C234.102 123.62 232.394 123.96 231.55 125.222L233.213 126.333ZM234.254 126.126C234.598 126.356 234.691 126.822 234.461 127.167L236.124 128.278C236.967 127.015 236.627 125.307 235.365 124.463L234.254 126.126ZM234.461 127.167L232.624 129.917L234.287 131.028L236.124 128.278L234.461 127.167ZM232.624 129.916C232.616 129.928 232.608 129.939 232.6 129.95L234.2 131.15C234.23 131.11 234.259 131.069 234.286 131.028L232.624 129.916ZM232.6 129.95C231.418 131.525 230.082 132.964 228.617 134.248L229.935 135.752C231.504 134.377 232.935 132.837 234.2 131.15L232.6 129.95ZM256.724 134H229.276V136H256.724V134Z" fill="#7B7B7B" mask="url(#path-1-inside-1_335_477)"/>
</g>
<path d="M22.864 33.298H28.476V35H20.771V18.969H22.864V33.298ZM31.7797 20.349C31.3811 20.349 31.0437 20.211 30.7677 19.935C30.4917 19.659 30.3537 19.3217 30.3537 18.923C30.3537 18.5243 30.4917 18.187 30.7677 17.911C31.0437 17.635 31.3811 17.497 31.7797 17.497C32.1631 17.497 32.4851 17.635 32.7457 17.911C33.0217 18.187 33.1597 18.5243 33.1597 18.923C33.1597 19.3217 33.0217 19.659 32.7457 19.935C32.4851 20.211 32.1631 20.349 31.7797 20.349ZM32.7917 22.396V35H30.6987V22.396H32.7917ZM51.5159 22.166C52.4972 22.166 53.3712 22.373 54.1379 22.787C54.9046 23.1857 55.5102 23.7913 55.9549 24.604C56.3996 25.4167 56.6219 26.4057 56.6219 27.571V35H54.5519V27.87C54.5519 26.6127 54.2376 25.6543 53.6089 24.995C52.9956 24.3203 52.1599 23.983 51.1019 23.983C50.0132 23.983 49.1469 24.3357 48.5029 25.041C47.8589 25.731 47.5369 26.7353 47.5369 28.054V35H45.4669V27.87C45.4669 26.6127 45.1526 25.6543 44.5239 24.995C43.9106 24.3203 43.0749 23.983 42.0169 23.983C40.9282 23.983 40.0619 24.3357 39.4179 25.041C38.7739 25.731 38.4519 26.7353 38.4519 28.054V35H36.3589V22.396H38.4519V24.213C38.8659 23.5537 39.4179 23.0477 40.1079 22.695C40.8132 22.3423 41.5876 22.166 42.4309 22.166C43.4889 22.166 44.4242 22.4037 45.2369 22.879C46.0496 23.3543 46.6552 24.052 47.0539 24.972C47.4066 24.0827 47.9892 23.3927 48.8019 22.902C49.6146 22.4113 50.5192 22.166 51.5159 22.166ZM61.1362 20.349C60.7375 20.349 60.4002 20.211 60.1242 19.935C59.8482 19.659 59.7102 19.3217 59.7102 18.923C59.7102 18.5243 59.8482 18.187 60.1242 17.911C60.4002 17.635 60.7375 17.497 61.1362 17.497C61.5195 17.497 61.8415 17.635 62.1022 17.911C62.3782 18.187 62.5162 18.5243 62.5162 18.923C62.5162 19.3217 62.3782 19.659 62.1022 19.935C61.8415 20.211 61.5195 20.349 61.1362 20.349ZM62.1482 22.396V35H60.0552V22.396H62.1482ZM68.2683 24.121V31.55C68.2683 32.1633 68.3987 32.6003 68.6593 32.861C68.92 33.1063 69.3723 33.229 70.0163 33.229H71.5573V35H69.6713C68.506 35 67.632 34.7317 67.0493 34.195C66.4667 33.6583 66.1753 32.7767 66.1753 31.55V24.121H64.5423V22.396H66.1753V19.222H68.2683V22.396H71.5573V24.121H68.2683ZM76.1863 17.98V35H74.0933V17.98H76.1863ZM91.2534 28.215C91.2534 28.6137 91.2304 29.0353 91.1844 29.48H81.1104C81.1871 30.722 81.6088 31.6957 82.3754 32.401C83.1574 33.091 84.1004 33.436 85.2044 33.436C86.1091 33.436 86.8604 33.229 87.4584 32.815C88.0718 32.3857 88.5011 31.8183 88.7464 31.113H91.0004C90.6631 32.3243 89.9884 33.3133 88.9764 34.08C87.9644 34.8313 86.7071 35.207 85.2044 35.207C84.0084 35.207 82.9351 34.9387 81.9844 34.402C81.0491 33.8653 80.3131 33.1063 79.7764 32.125C79.2398 31.1283 78.9714 29.9783 78.9714 28.675C78.9714 27.3717 79.2321 26.2293 79.7534 25.248C80.2748 24.2667 81.0031 23.5153 81.9384 22.994C82.8891 22.4573 83.9778 22.189 85.2044 22.189C86.4004 22.189 87.4584 22.4497 88.3784 22.971C89.2984 23.4923 90.0038 24.213 90.4944 25.133C91.0004 26.0377 91.2534 27.065 91.2534 28.215ZM89.0914 27.778C89.0914 26.9807 88.9151 26.2983 88.5624 25.731C88.2098 25.1483 87.7268 24.7113 87.1134 24.42C86.5154 24.1133 85.8484 23.96 85.1124 23.96C84.0544 23.96 83.1498 24.2973 82.3984 24.972C81.6624 25.6467 81.2408 26.582 81.1334 27.778H89.0914ZM98.4781 35.207C97.5121 35.207 96.6458 35.046 95.8791 34.724C95.1125 34.3867 94.5068 33.9267 94.0621 33.344C93.6175 32.746 93.3721 32.0637 93.3261 31.297H95.4881C95.5495 31.9257 95.8408 32.4393 96.3621 32.838C96.8988 33.2367 97.5965 33.436 98.4551 33.436C99.2525 33.436 99.8811 33.2597 100.341 32.907C100.801 32.5543 101.031 32.1097 101.031 31.573C101.031 31.021 100.786 30.6147 100.295 30.354C99.8045 30.078 99.0455 29.8097 98.0181 29.549C97.0828 29.3037 96.3161 29.0583 95.7181 28.813C95.1355 28.5523 94.6295 28.1767 94.2001 27.686C93.7861 27.18 93.5791 26.5207 93.5791 25.708C93.5791 25.064 93.7708 24.4737 94.1541 23.937C94.5375 23.4003 95.0818 22.9787 95.7871 22.672C96.4925 22.35 97.2975 22.189 98.2021 22.189C99.5975 22.189 100.724 22.5417 101.583 23.247C102.442 23.9523 102.902 24.9183 102.963 26.145H100.87C100.824 25.4857 100.556 24.9567 100.065 24.558C99.5898 24.1593 98.9458 23.96 98.1331 23.96C97.3818 23.96 96.7838 24.121 96.3391 24.443C95.8945 24.765 95.6721 25.1867 95.6721 25.708C95.6721 26.122 95.8025 26.467 96.0631 26.743C96.3391 27.0037 96.6765 27.2183 97.0751 27.387C97.4891 27.5403 98.0565 27.7167 98.7771 27.916C99.6818 28.1613 100.418 28.4067 100.985 28.652C101.552 28.882 102.035 29.2347 102.434 29.71C102.848 30.1853 103.063 30.8063 103.078 31.573C103.078 32.263 102.886 32.884 102.503 33.436C102.12 33.988 101.575 34.425 100.87 34.747C100.18 35.0537 99.3828 35.207 98.4781 35.207ZM110.495 35.207C109.529 35.207 108.662 35.046 107.896 34.724C107.129 34.3867 106.523 33.9267 106.079 33.344C105.634 32.746 105.389 32.0637 105.343 31.297H107.505C107.566 31.9257 107.857 32.4393 108.379 32.838C108.915 33.2367 109.613 33.436 110.472 33.436C111.269 33.436 111.898 33.2597 112.358 32.907C112.818 32.5543 113.048 32.1097 113.048 31.573C113.048 31.021 112.802 30.6147 112.312 30.354C111.821 30.078 111.062 29.8097 110.035 29.549C109.099 29.3037 108.333 29.0583 107.735 28.813C107.152 28.5523 106.646 28.1767 106.217 27.686C105.803 27.18 105.596 26.5207 105.596 25.708C105.596 25.064 105.787 24.4737 106.171 23.937C106.554 23.4003 107.098 22.9787 107.804 22.672C108.509 22.35 109.314 22.189 110.219 22.189C111.614 22.189 112.741 22.5417 113.6 23.247C114.458 23.9523 114.918 24.9183 114.98 26.145H112.887C112.841 25.4857 112.572 24.9567 112.082 24.558C111.606 24.1593 110.962 23.96 110.15 23.96C109.398 23.96 108.8 24.121 108.356 24.443C107.911 24.765 107.689 25.1867 107.689 25.708C107.689 26.122 107.819 26.467 108.08 26.743C108.356 27.0037 108.693 27.2183 109.092 27.387C109.506 27.5403 110.073 27.7167 110.794 27.916C111.698 28.1613 112.434 28.4067 113.002 28.652C113.569 28.882 114.052 29.2347 114.451 29.71C114.865 30.1853 115.079 30.8063 115.095 31.573C115.095 32.263 114.903 32.884 114.52 33.436C114.136 33.988 113.592 34.425 112.887 34.747C112.197 35.0537 111.399 35.207 110.495 35.207ZM126.228 18.969V29.112C126.228 30.538 126.573 31.596 127.263 32.286C127.968 32.976 128.942 33.321 130.184 33.321C131.411 33.321 132.369 32.976 133.059 32.286C133.764 31.596 134.117 30.538 134.117 29.112V18.969H136.21V29.089C136.21 30.423 135.942 31.55 135.405 32.47C134.868 33.3747 134.14 34.0493 133.22 34.494C132.315 34.9387 131.296 35.161 130.161 35.161C129.026 35.161 127.999 34.9387 127.079 34.494C126.174 34.0493 125.454 33.3747 124.917 32.47C124.396 31.55 124.135 30.423 124.135 29.089V18.969H126.228ZM144.164 35.207C143.198 35.207 142.331 35.046 141.565 34.724C140.798 34.3867 140.192 33.9267 139.748 33.344C139.303 32.746 139.058 32.0637 139.012 31.297H141.174C141.235 31.9257 141.526 32.4393 142.048 32.838C142.584 33.2367 143.282 33.436 144.141 33.436C144.938 33.436 145.567 33.2597 146.027 32.907C146.487 32.5543 146.717 32.1097 146.717 31.573C146.717 31.021 146.471 30.6147 145.981 30.354C145.49 30.078 144.731 29.8097 143.704 29.549C142.768 29.3037 142.002 29.0583 141.404 28.813C140.821 28.5523 140.315 28.1767 139.886 27.686C139.472 27.18 139.265 26.5207 139.265 25.708C139.265 25.064 139.456 24.4737 139.84 23.937C140.223 23.4003 140.767 22.9787 141.473 22.672C142.178 22.35 142.983 22.189 143.888 22.189C145.283 22.189 146.41 22.5417 147.269 23.247C148.127 23.9523 148.587 24.9183 148.649 26.145H146.556C146.51 25.4857 146.241 24.9567 145.751 24.558C145.275 24.1593 144.631 23.96 143.819 23.96C143.067 23.96 142.469 24.121 142.025 24.443C141.58 24.765 141.358 25.1867 141.358 25.708C141.358 26.122 141.488 26.467 141.749 26.743C142.025 27.0037 142.362 27.2183 142.761 27.387C143.175 27.5403 143.742 27.7167 144.463 27.916C145.367 28.1613 146.103 28.4067 146.671 28.652C147.238 28.882 147.721 29.2347 148.12 29.71C148.534 30.1853 148.748 30.8063 148.764 31.573C148.764 32.263 148.572 32.884 148.189 33.436C147.805 33.988 147.261 34.425 146.556 34.747C145.866 35.0537 145.068 35.207 144.164 35.207ZM163.218 28.215C163.218 28.6137 163.195 29.0353 163.149 29.48H153.075C153.152 30.722 153.574 31.6957 154.34 32.401C155.122 33.091 156.065 33.436 157.169 33.436C158.074 33.436 158.825 33.229 159.423 32.815C160.037 32.3857 160.466 31.8183 160.711 31.113H162.965C162.628 32.3243 161.953 33.3133 160.941 34.08C159.929 34.8313 158.672 35.207 157.169 35.207C155.973 35.207 154.9 34.9387 153.949 34.402C153.014 33.8653 152.278 33.1063 151.741 32.125C151.205 31.1283 150.936 29.9783 150.936 28.675C150.936 27.3717 151.197 26.2293 151.718 25.248C152.24 24.2667 152.968 23.5153 153.903 22.994C154.854 22.4573 155.943 22.189 157.169 22.189C158.365 22.189 159.423 22.4497 160.343 22.971C161.263 23.4923 161.969 24.213 162.459 25.133C162.965 26.0377 163.218 27.065 163.218 28.215ZM161.056 27.778C161.056 26.9807 160.88 26.2983 160.527 25.731C160.175 25.1483 159.692 24.7113 159.078 24.42C158.48 24.1133 157.813 23.96 157.077 23.96C156.019 23.96 155.115 24.2973 154.363 24.972C153.627 25.6467 153.206 26.582 153.098 27.778H161.056ZM174.721 25.685V27.456H165.544V25.685H174.721ZM177.867 28.675C177.867 27.3717 178.128 26.237 178.649 25.271C179.17 24.2897 179.891 23.5307 180.811 22.994C181.746 22.4573 182.812 22.189 184.008 22.189C185.557 22.189 186.829 22.5647 187.826 23.316C188.838 24.0673 189.505 25.11 189.827 26.444H187.573C187.358 25.6773 186.937 25.0717 186.308 24.627C185.695 24.1823 184.928 23.96 184.008 23.96C182.812 23.96 181.846 24.374 181.11 25.202C180.374 26.0147 180.006 27.1723 180.006 28.675C180.006 30.193 180.374 31.366 181.11 32.194C181.846 33.022 182.812 33.436 184.008 33.436C184.928 33.436 185.695 33.2213 186.308 32.792C186.921 32.3627 187.343 31.7493 187.573 30.952H189.827C189.49 32.24 188.815 33.275 187.803 34.057C186.791 34.8237 185.526 35.207 184.008 35.207C182.812 35.207 181.746 34.9387 180.811 34.402C179.891 33.8653 179.17 33.1063 178.649 32.125C178.128 31.1437 177.867 29.9937 177.867 28.675ZM191.838 28.652C191.838 27.364 192.098 26.237 192.62 25.271C193.141 24.2897 193.854 23.5307 194.759 22.994C195.679 22.4573 196.698 22.189 197.818 22.189C198.922 22.189 199.88 22.4267 200.693 22.902C201.505 23.3773 202.111 23.9753 202.51 24.696V22.396H204.626V35H202.51V32.654C202.096 33.39 201.475 34.0033 200.647 34.494C199.834 34.9693 198.883 35.207 197.795 35.207C196.675 35.207 195.663 34.931 194.759 34.379C193.854 33.827 193.141 33.0527 192.62 32.056C192.098 31.0593 191.838 29.9247 191.838 28.652ZM202.51 28.675C202.51 27.7243 202.318 26.8963 201.935 26.191C201.551 25.4857 201.03 24.949 200.371 24.581C199.727 24.1977 199.014 24.006 198.232 24.006C197.45 24.006 196.737 24.19 196.093 24.558C195.449 24.926 194.935 25.4627 194.552 26.168C194.168 26.8733 193.977 27.7013 193.977 28.652C193.977 29.618 194.168 30.4613 194.552 31.182C194.935 31.8873 195.449 32.4317 196.093 32.815C196.737 33.183 197.45 33.367 198.232 33.367C199.014 33.367 199.727 33.183 200.371 32.815C201.03 32.4317 201.551 31.8873 201.935 31.182C202.318 30.4613 202.51 29.6257 202.51 28.675ZM212.625 35.207C211.659 35.207 210.792 35.046 210.026 34.724C209.259 34.3867 208.653 33.9267 208.209 33.344C207.764 32.746 207.519 32.0637 207.473 31.297H209.635C209.696 31.9257 209.987 32.4393 210.509 32.838C211.045 33.2367 211.743 33.436 212.602 33.436C213.399 33.436 214.028 33.2597 214.488 32.907C214.948 32.5543 215.178 32.1097 215.178 31.573C215.178 31.021 214.932 30.6147 214.442 30.354C213.951 30.078 213.192 29.8097 212.165 29.549C211.229 29.3037 210.463 29.0583 209.865 28.813C209.282 28.5523 208.776 28.1767 208.347 27.686C207.933 27.18 207.726 26.5207 207.726 25.708C207.726 25.064 207.917 24.4737 208.301 23.937C208.684 23.4003 209.228 22.9787 209.934 22.672C210.639 22.35 211.444 22.189 212.349 22.189C213.744 22.189 214.871 22.5417 215.73 23.247C216.588 23.9523 217.048 24.9183 217.11 26.145H215.017C214.971 25.4857 214.702 24.9567 214.212 24.558C213.736 24.1593 213.092 23.96 212.28 23.96C211.528 23.96 210.93 24.121 210.486 24.443C210.041 24.765 209.819 25.1867 209.819 25.708C209.819 26.122 209.949 26.467 210.21 26.743C210.486 27.0037 210.823 27.2183 211.222 27.387C211.636 27.5403 212.203 27.7167 212.924 27.916C213.828 28.1613 214.564 28.4067 215.132 28.652C215.699 28.882 216.182 29.2347 216.581 29.71C216.995 30.1853 217.209 30.8063 217.225 31.573C217.225 32.263 217.033 32.884 216.65 33.436C216.266 33.988 215.722 34.425 215.017 34.747C214.327 35.0537 213.529 35.207 212.625 35.207ZM231.679 28.215C231.679 28.6137 231.656 29.0353 231.61 29.48H221.536C221.613 30.722 222.035 31.6957 222.801 32.401C223.583 33.091 224.526 33.436 225.63 33.436C226.535 33.436 227.286 33.229 227.884 32.815C228.498 32.3857 228.927 31.8183 229.172 31.113H231.426C231.089 32.3243 230.414 33.3133 229.402 34.08C228.39 34.8313 227.133 35.207 225.63 35.207C224.434 35.207 223.361 34.9387 222.41 34.402C221.475 33.8653 220.739 33.1063 220.202 32.125C219.666 31.1283 219.397 29.9783 219.397 28.675C219.397 27.3717 219.658 26.2293 220.179 25.248C220.701 24.2667 221.429 23.5153 222.364 22.994C223.315 22.4573 224.404 22.189 225.63 22.189C226.826 22.189 227.884 22.4497 228.804 22.971C229.724 23.4923 230.43 24.213 230.92 25.133C231.426 26.0377 231.679 27.065 231.679 28.215ZM229.517 27.778C229.517 26.9807 229.341 26.2983 228.988 25.731C228.636 25.1483 228.153 24.7113 227.539 24.42C226.941 24.1133 226.274 23.96 225.538 23.96C224.48 23.96 223.576 24.2973 222.824 24.972C222.088 25.6467 221.667 26.582 221.559 27.778H229.517ZM238.904 35.207C237.938 35.207 237.072 35.046 236.305 34.724C235.538 34.3867 234.933 33.9267 234.488 33.344C234.043 32.746 233.798 32.0637 233.752 31.297H235.914C235.975 31.9257 236.267 32.4393 236.788 32.838C237.325 33.2367 238.022 33.436 238.881 33.436C239.678 33.436 240.307 33.2597 240.767 32.907C241.227 32.5543 241.457 32.1097 241.457 31.573C241.457 31.021 241.212 30.6147 240.721 30.354C240.23 30.078 239.471 29.8097 238.444 29.549C237.509 29.3037 236.742 29.0583 236.144 28.813C235.561 28.5523 235.055 28.1767 234.626 27.686C234.212 27.18 234.005 26.5207 234.005 25.708C234.005 25.064 234.197 24.4737 234.58 23.937C234.963 23.4003 235.508 22.9787 236.213 22.672C236.918 22.35 237.723 22.189 238.628 22.189C240.023 22.189 241.15 22.5417 242.009 23.247C242.868 23.9523 243.328 24.9183 243.389 26.145H241.296C241.25 25.4857 240.982 24.9567 240.491 24.558C240.016 24.1593 239.372 23.96 238.559 23.96C237.808 23.96 237.21 24.121 236.765 24.443C236.32 24.765 236.098 25.1867 236.098 25.708C236.098 26.122 236.228 26.467 236.489 26.743C236.765 27.0037 237.102 27.2183 237.501 27.387C237.915 27.5403 238.482 27.7167 239.203 27.916C240.108 28.1613 240.844 28.4067 241.411 28.652C241.978 28.882 242.461 29.2347 242.86 29.71C243.274 30.1853 243.489 30.8063 243.504 31.573C243.504 32.263 243.312 32.884 242.929 33.436C242.546 33.988 242.001 34.425 241.296 34.747C240.606 35.0537 239.809 35.207 238.904 35.207Z" fill="white"/>
<path d="M19.559 55.412C19.559 54.684 19.7063 54.047 20.001 53.501C20.2957 52.9463 20.6987 52.5173 21.21 52.214C21.73 51.9107 22.3063 51.759 22.939 51.759C23.563 51.759 24.1047 51.8933 24.564 52.162C25.0233 52.4307 25.3657 52.7687 25.591 53.176V51.876H26.787V59H25.591V57.674C25.357 58.09 25.006 58.4367 24.538 58.714C24.0787 58.9827 23.5413 59.117 22.926 59.117C22.2933 59.117 21.7213 58.961 21.21 58.649C20.6987 58.337 20.2957 57.8993 20.001 57.336C19.7063 56.7727 19.559 56.1313 19.559 55.412ZM25.591 55.425C25.591 54.8877 25.4827 54.4197 25.266 54.021C25.0493 53.6223 24.7547 53.319 24.382 53.111C24.018 52.8943 23.615 52.786 23.173 52.786C22.731 52.786 22.328 52.89 21.964 53.098C21.6 53.306 21.3097 53.6093 21.093 54.008C20.8763 54.4067 20.768 54.8747 20.768 55.412C20.768 55.958 20.8763 56.4347 21.093 56.842C21.3097 57.2407 21.6 57.5483 21.964 57.765C22.328 57.973 22.731 58.077 23.173 58.077C23.615 58.077 24.018 57.973 24.382 57.765C24.7547 57.5483 25.0493 57.2407 25.266 56.842C25.4827 56.4347 25.591 55.9623 25.591 55.425ZM35.1042 51.876V59H33.9212V57.947C33.6958 58.311 33.3795 58.597 32.9722 58.805C32.5735 59.0043 32.1315 59.104 31.6462 59.104C31.0915 59.104 30.5932 58.9913 30.1512 58.766C29.7092 58.532 29.3582 58.1853 29.0982 57.726C28.8468 57.2667 28.7212 56.7077 28.7212 56.049V51.876H29.8912V55.893C29.8912 56.595 30.0688 57.1367 30.4242 57.518C30.7795 57.8907 31.2648 58.077 31.8802 58.077C32.5128 58.077 33.0112 57.882 33.3752 57.492C33.7392 57.102 33.9212 56.5343 33.9212 55.789V51.876H35.1042ZM38.5446 52.851V57.05C38.5446 57.3967 38.6183 57.6437 38.7656 57.791C38.9129 57.9297 39.1686 57.999 39.5326 57.999H40.4036V59H39.3376C38.6789 59 38.1849 58.8483 37.8556 58.545C37.5263 58.2417 37.3616 57.7433 37.3616 57.05V52.851H36.4386V51.876H37.3616V50.082H38.5446V51.876H40.4036V52.851H38.5446ZM44.9439 59.117C44.2766 59.117 43.6699 58.9653 43.1239 58.662C42.5866 58.3587 42.1619 57.9297 41.8499 57.375C41.5466 56.8117 41.3949 56.1617 41.3949 55.425C41.3949 54.697 41.5509 54.0557 41.8629 53.501C42.1836 52.9377 42.6169 52.5087 43.1629 52.214C43.7089 51.9107 44.3199 51.759 44.9959 51.759C45.6719 51.759 46.2829 51.9107 46.8289 52.214C47.3749 52.5087 47.8039 52.9333 48.1159 53.488C48.4366 54.0427 48.5969 54.6883 48.5969 55.425C48.5969 56.1617 48.4323 56.8117 48.1029 57.375C47.7823 57.9297 47.3446 58.3587 46.7899 58.662C46.2353 58.9653 45.6199 59.117 44.9439 59.117ZM44.9439 58.077C45.3686 58.077 45.7673 57.9773 46.1399 57.778C46.5126 57.5787 46.8116 57.2797 47.0369 56.881C47.2709 56.4823 47.3879 55.997 47.3879 55.425C47.3879 54.853 47.2753 54.3677 47.0499 53.969C46.8246 53.5703 46.5299 53.2757 46.1659 53.085C45.8019 52.8857 45.4076 52.786 44.9829 52.786C44.5496 52.786 44.1509 52.8857 43.7869 53.085C43.4316 53.2757 43.1456 53.5703 42.9289 53.969C42.7123 54.3677 42.6039 54.853 42.6039 55.425C42.6039 56.0057 42.7079 56.4953 42.9159 56.894C43.1326 57.2927 43.4186 57.5917 43.7739 57.791C44.1293 57.9817 44.5193 58.077 44.9439 58.077ZM51.3354 53.202C51.578 52.7773 51.9334 52.4307 52.4014 52.162C52.8694 51.8933 53.4024 51.759 54.0004 51.759C54.6417 51.759 55.218 51.9107 55.7294 52.214C56.2407 52.5173 56.6437 52.9463 56.9384 53.501C57.233 54.047 57.3804 54.684 57.3804 55.412C57.3804 56.1313 57.233 56.7727 56.9384 57.336C56.6437 57.8993 56.2364 58.337 55.7164 58.649C55.205 58.961 54.633 59.117 54.0004 59.117C53.385 59.117 52.8434 58.9827 52.3754 58.714C51.916 58.4453 51.5694 58.103 51.3354 57.687V59H50.1524V49.38H51.3354V53.202ZM56.1714 55.412C56.1714 54.8747 56.063 54.4067 55.8464 54.008C55.6297 53.6093 55.335 53.306 54.9624 53.098C54.5984 52.89 54.1954 52.786 53.7534 52.786C53.32 52.786 52.917 52.8943 52.5444 53.111C52.1804 53.319 51.8857 53.6267 51.6604 54.034C51.4437 54.4327 51.3354 54.8963 51.3354 55.425C51.3354 55.9623 51.4437 56.4347 51.6604 56.842C51.8857 57.2407 52.1804 57.5483 52.5444 57.765C52.917 57.973 53.32 58.077 53.7534 58.077C54.1954 58.077 54.5984 57.973 54.9624 57.765C55.335 57.5483 55.6297 57.2407 55.8464 56.842C56.063 56.4347 56.1714 55.958 56.1714 55.412ZM62.0445 59.117C61.3772 59.117 60.7705 58.9653 60.2245 58.662C59.6872 58.3587 59.2625 57.9297 58.9505 57.375C58.6472 56.8117 58.4955 56.1617 58.4955 55.425C58.4955 54.697 58.6515 54.0557 58.9635 53.501C59.2842 52.9377 59.7175 52.5087 60.2635 52.214C60.8095 51.9107 61.4205 51.759 62.0965 51.759C62.7725 51.759 63.3835 51.9107 63.9295 52.214C64.4755 52.5087 64.9045 52.9333 65.2165 53.488C65.5372 54.0427 65.6975 54.6883 65.6975 55.425C65.6975 56.1617 65.5329 56.8117 65.2035 57.375C64.8829 57.9297 64.4452 58.3587 63.8905 58.662C63.3359 58.9653 62.7205 59.117 62.0445 59.117ZM62.0445 58.077C62.4692 58.077 62.8679 57.9773 63.2405 57.778C63.6132 57.5787 63.9122 57.2797 64.1375 56.881C64.3715 56.4823 64.4885 55.997 64.4885 55.425C64.4885 54.853 64.3759 54.3677 64.1505 53.969C63.9252 53.5703 63.6305 53.2757 63.2665 53.085C62.9025 52.8857 62.5082 52.786 62.0835 52.786C61.6502 52.786 61.2515 52.8857 60.8875 53.085C60.5322 53.2757 60.2462 53.5703 60.0295 53.969C59.8129 54.3677 59.7045 54.853 59.7045 55.425C59.7045 56.0057 59.8085 56.4953 60.0165 56.894C60.2332 57.2927 60.5192 57.5917 60.8745 57.791C61.2299 57.9817 61.6199 58.077 62.0445 58.077ZM68.696 52.851V57.05C68.696 57.3967 68.7696 57.6437 68.917 57.791C69.0643 57.9297 69.32 57.999 69.684 57.999H70.555V59H69.489C68.8303 59 68.3363 58.8483 68.007 58.545C67.6776 58.2417 67.513 57.7433 67.513 57.05V52.851H66.59V51.876H67.513V50.082H68.696V51.876H70.555V52.851H68.696ZM77.3443 56.985H73.3923L72.6643 59H71.4163L74.6923 49.991H76.0573L79.3203 59H78.0723L77.3443 56.985ZM77.0063 56.023L75.3683 51.447L73.7303 56.023H77.0063ZM81.9311 49.939V59H80.7481V49.939H81.9311Z" fill="#FFFBFB"/>
<path d="M85.1693 57.362L83.7133 60.859H82.9203L83.8693 57.362H85.1693ZM91.4333 52.851V57.05C91.4333 57.3967 91.5069 57.6437 91.6543 57.791C91.8016 57.9297 92.0573 57.999 92.4213 57.999H93.2923V59H92.2263C91.5676 59 91.0736 58.8483 90.7443 58.545C90.4149 58.2417 90.2503 57.7433 90.2503 57.05V52.851H89.3273V51.876H90.2503V50.082H91.4333V51.876H93.2923V52.851H91.4333ZM98.2616 51.746C98.7989 51.746 99.2843 51.863 99.7176 52.097C100.151 52.3223 100.489 52.6647 100.732 53.124C100.983 53.5833 101.109 54.1423 101.109 54.801V59H99.9386V54.97C99.9386 54.2593 99.7609 53.7177 99.4056 53.345C99.0503 52.9637 98.5649 52.773 97.9496 52.773C97.3256 52.773 96.8273 52.968 96.4546 53.358C96.0906 53.748 95.9086 54.3157 95.9086 55.061V59H94.7256V49.38H95.9086V52.89C96.1426 52.526 96.4633 52.2443 96.8706 52.045C97.2866 51.8457 97.7503 51.746 98.2616 51.746ZM109.541 55.165C109.541 55.3903 109.528 55.6287 109.502 55.88H103.808C103.851 56.582 104.09 57.1323 104.523 57.531C104.965 57.921 105.498 58.116 106.122 58.116C106.633 58.116 107.058 57.999 107.396 57.765C107.743 57.5223 107.985 57.2017 108.124 56.803H109.398C109.207 57.4877 108.826 58.0467 108.254 58.48C107.682 58.9047 106.971 59.117 106.122 59.117C105.446 59.117 104.839 58.9653 104.302 58.662C103.773 58.3587 103.357 57.9297 103.054 57.375C102.751 56.8117 102.599 56.1617 102.599 55.425C102.599 54.6883 102.746 54.0427 103.041 53.488C103.336 52.9333 103.747 52.5087 104.276 52.214C104.813 51.9107 105.429 51.759 106.122 51.759C106.798 51.759 107.396 51.9063 107.916 52.201C108.436 52.4957 108.835 52.903 109.112 53.423C109.398 53.9343 109.541 54.515 109.541 55.165ZM108.319 54.918C108.319 54.4673 108.219 54.0817 108.02 53.761C107.821 53.4317 107.548 53.1847 107.201 53.02C106.863 52.8467 106.486 52.76 106.07 52.76C105.472 52.76 104.961 52.9507 104.536 53.332C104.12 53.7133 103.882 54.242 103.821 54.918H108.319ZM115.751 53.189C115.985 52.7817 116.332 52.4437 116.791 52.175C117.259 51.8977 117.801 51.759 118.416 51.759C119.049 51.759 119.621 51.9107 120.132 52.214C120.652 52.5173 121.06 52.9463 121.354 53.501C121.649 54.047 121.796 54.684 121.796 55.412C121.796 56.1313 121.649 56.7727 121.354 57.336C121.06 57.8993 120.652 58.337 120.132 58.649C119.621 58.961 119.049 59.117 118.416 59.117C117.81 59.117 117.272 58.9827 116.804 58.714C116.345 58.4367 115.994 58.0943 115.751 57.687V62.38H114.568V51.876H115.751V53.189ZM120.587 55.412C120.587 54.8747 120.479 54.4067 120.262 54.008C120.046 53.6093 119.751 53.306 119.378 53.098C119.014 52.89 118.611 52.786 118.169 52.786C117.736 52.786 117.333 52.8943 116.96 53.111C116.596 53.319 116.302 53.6267 116.076 54.034C115.86 54.4327 115.751 54.8963 115.751 55.425C115.751 55.9623 115.86 56.4347 116.076 56.842C116.302 57.2407 116.596 57.5483 116.96 57.765C117.333 57.973 117.736 58.077 118.169 58.077C118.611 58.077 119.014 57.973 119.378 57.765C119.751 57.5483 120.046 57.2407 120.262 56.842C120.479 56.4347 120.587 55.958 120.587 55.412ZM126.461 59.117C125.793 59.117 125.187 58.9653 124.641 58.662C124.103 58.3587 123.679 57.9297 123.367 57.375C123.063 56.8117 122.912 56.1617 122.912 55.425C122.912 54.697 123.068 54.0557 123.38 53.501C123.7 52.9377 124.134 52.5087 124.68 52.214C125.226 51.9107 125.837 51.759 126.513 51.759C127.189 51.759 127.8 51.9107 128.346 52.214C128.892 52.5087 129.321 52.9333 129.633 53.488C129.953 54.0427 130.114 54.6883 130.114 55.425C130.114 56.1617 129.949 56.8117 129.62 57.375C129.299 57.9297 128.861 58.3587 128.307 58.662C127.752 58.9653 127.137 59.117 126.461 59.117ZM126.461 58.077C126.885 58.077 127.284 57.9773 127.657 57.778C128.029 57.5787 128.328 57.2797 128.554 56.881C128.788 56.4823 128.905 55.997 128.905 55.425C128.905 54.853 128.792 54.3677 128.567 53.969C128.341 53.5703 128.047 53.2757 127.683 53.085C127.319 52.8857 126.924 52.786 126.5 52.786C126.066 52.786 125.668 52.8857 125.304 53.085C124.948 53.2757 124.662 53.5703 124.446 53.969C124.229 54.3677 124.121 54.853 124.121 55.425C124.121 56.0057 124.225 56.4953 124.433 56.894C124.649 57.2927 124.935 57.5917 125.291 57.791C125.646 57.9817 126.036 58.077 126.461 58.077ZM133.112 52.851V57.05C133.112 57.3967 133.186 57.6437 133.333 57.791C133.48 57.9297 133.736 57.999 134.1 57.999H134.971V59H133.905C133.246 59 132.752 58.8483 132.423 58.545C132.094 58.2417 131.929 57.7433 131.929 57.05V52.851H131.006V51.876H131.929V50.082H133.112V51.876H134.971V52.851H133.112ZM142.904 55.165C142.904 55.3903 142.891 55.6287 142.865 55.88H137.171C137.215 56.582 137.453 57.1323 137.886 57.531C138.328 57.921 138.861 58.116 139.485 58.116C139.997 58.116 140.421 57.999 140.759 57.765C141.106 57.5223 141.349 57.2017 141.487 56.803H142.761C142.571 57.4877 142.189 58.0467 141.617 58.48C141.045 58.9047 140.335 59.117 139.485 59.117C138.809 59.117 138.203 58.9653 137.665 58.662C137.137 58.3587 136.721 57.9297 136.417 57.375C136.114 56.8117 135.962 56.1617 135.962 55.425C135.962 54.6883 136.11 54.0427 136.404 53.488C136.699 52.9333 137.111 52.5087 137.639 52.214C138.177 51.9107 138.792 51.759 139.485 51.759C140.161 51.759 140.759 51.9063 141.279 52.201C141.799 52.4957 142.198 52.903 142.475 53.423C142.761 53.9343 142.904 54.515 142.904 55.165ZM141.682 54.918C141.682 54.4673 141.583 54.0817 141.383 53.761C141.184 53.4317 140.911 53.1847 140.564 53.02C140.226 52.8467 139.849 52.76 139.433 52.76C138.835 52.76 138.324 52.9507 137.899 53.332C137.483 53.7133 137.245 54.242 137.184 54.918H141.682ZM147.937 51.746C148.804 51.746 149.506 52.0103 150.043 52.539C150.58 53.059 150.849 53.813 150.849 54.801V59H149.679V54.97C149.679 54.2593 149.501 53.7177 149.146 53.345C148.791 52.9637 148.305 52.773 147.69 52.773C147.066 52.773 146.568 52.968 146.195 53.358C145.831 53.748 145.649 54.3157 145.649 55.061V59H144.466V51.876H145.649V52.89C145.883 52.526 146.199 52.2443 146.598 52.045C147.005 51.8457 147.452 51.746 147.937 51.746ZM154.224 52.851V57.05C154.224 57.3967 154.298 57.6437 154.445 57.791C154.593 57.9297 154.848 57.999 155.212 57.999H156.083V59H155.017C154.359 59 153.865 58.8483 153.535 58.545C153.206 58.2417 153.041 57.7433 153.041 57.05V52.851H152.118V51.876H153.041V50.082H154.224V51.876H156.083V52.851H154.224ZM158.128 50.719C157.902 50.719 157.712 50.641 157.556 50.485C157.4 50.329 157.322 50.1383 157.322 49.913C157.322 49.6877 157.4 49.497 157.556 49.341C157.712 49.185 157.902 49.107 158.128 49.107C158.344 49.107 158.526 49.185 158.674 49.341C158.83 49.497 158.908 49.6877 158.908 49.913C158.908 50.1383 158.83 50.329 158.674 50.485C158.526 50.641 158.344 50.719 158.128 50.719ZM158.7 51.876V59H157.517V51.876H158.7ZM160.274 55.412C160.274 54.684 160.421 54.047 160.716 53.501C161.011 52.9463 161.414 52.5173 161.925 52.214C162.445 51.9107 163.021 51.759 163.654 51.759C164.278 51.759 164.82 51.8933 165.279 52.162C165.738 52.4307 166.081 52.7687 166.306 53.176V51.876H167.502V59H166.306V57.674C166.072 58.09 165.721 58.4367 165.253 58.714C164.794 58.9827 164.256 59.117 163.641 59.117C163.008 59.117 162.436 58.961 161.925 58.649C161.414 58.337 161.011 57.8993 160.716 57.336C160.421 56.7727 160.274 56.1313 160.274 55.412ZM166.306 55.425C166.306 54.8877 166.198 54.4197 165.981 54.021C165.764 53.6223 165.47 53.319 165.097 53.111C164.733 52.8943 164.33 52.786 163.888 52.786C163.446 52.786 163.043 52.89 162.679 53.098C162.315 53.306 162.025 53.6093 161.808 54.008C161.591 54.4067 161.483 54.8747 161.483 55.412C161.483 55.958 161.591 56.4347 161.808 56.842C162.025 57.2407 162.315 57.5483 162.679 57.765C163.043 57.973 163.446 58.077 163.888 58.077C164.33 58.077 164.733 57.973 165.097 57.765C165.47 57.5483 165.764 57.2407 165.981 56.842C166.198 56.4347 166.306 55.9623 166.306 55.425ZM170.684 49.38V59H169.501V49.38H170.684ZM179.065 52.851H177.57V59H176.387V52.851H175.464V51.876H176.387V51.369C176.387 50.5717 176.591 49.991 176.998 49.627C177.414 49.2543 178.077 49.068 178.987 49.068V50.056C178.467 50.056 178.099 50.16 177.882 50.368C177.674 50.5673 177.57 50.901 177.57 51.369V51.876H179.065V52.851ZM183.551 59.117C182.884 59.117 182.277 58.9653 181.731 58.662C181.194 58.3587 180.769 57.9297 180.457 57.375C180.154 56.8117 180.002 56.1617 180.002 55.425C180.002 54.697 180.158 54.0557 180.47 53.501C180.791 52.9377 181.224 52.5087 181.77 52.214C182.316 51.9107 182.927 51.759 183.603 51.759C184.279 51.759 184.89 51.9107 185.436 52.214C185.982 52.5087 186.411 52.9333 186.723 53.488C187.044 54.0427 187.204 54.6883 187.204 55.425C187.204 56.1617 187.04 56.8117 186.71 57.375C186.39 57.9297 185.952 58.3587 185.397 58.662C184.843 58.9653 184.227 59.117 183.551 59.117ZM183.551 58.077C183.976 58.077 184.375 57.9773 184.747 57.778C185.12 57.5787 185.419 57.2797 185.644 56.881C185.878 56.4823 185.995 55.997 185.995 55.425C185.995 54.853 185.883 54.3677 185.657 53.969C185.432 53.5703 185.137 53.2757 184.773 53.085C184.409 52.8857 184.015 52.786 183.59 52.786C183.157 52.786 182.758 52.8857 182.394 53.085C182.039 53.2757 181.753 53.5703 181.536 53.969C181.32 54.3677 181.211 54.853 181.211 55.425C181.211 56.0057 181.315 56.4953 181.523 56.894C181.74 57.2927 182.026 57.5917 182.381 57.791C182.737 57.9817 183.127 58.077 183.551 58.077ZM189.943 53.033C190.151 52.6257 190.445 52.3093 190.827 52.084C191.217 51.8587 191.689 51.746 192.244 51.746V52.968H191.932C190.606 52.968 189.943 53.6873 189.943 55.126V59H188.76V51.876H189.943V53.033ZM196.633 55.425C196.633 54.6883 196.781 54.047 197.075 53.501C197.37 52.9463 197.777 52.5173 198.297 52.214C198.826 51.9107 199.428 51.759 200.104 51.759C200.98 51.759 201.699 51.9713 202.262 52.396C202.834 52.8207 203.211 53.41 203.393 54.164H202.119C201.998 53.7307 201.76 53.3883 201.404 53.137C201.058 52.8857 200.624 52.76 200.104 52.76C199.428 52.76 198.882 52.994 198.466 53.462C198.05 53.9213 197.842 54.5757 197.842 55.425C197.842 56.283 198.05 56.946 198.466 57.414C198.882 57.882 199.428 58.116 200.104 58.116C200.624 58.116 201.058 57.9947 201.404 57.752C201.751 57.5093 201.989 57.1627 202.119 56.712H203.393C203.203 57.44 202.821 58.025 202.249 58.467C201.677 58.9003 200.962 59.117 200.104 59.117C199.428 59.117 198.826 58.9653 198.297 58.662C197.777 58.3587 197.37 57.9297 197.075 57.375C196.781 56.8203 196.633 56.1703 196.633 55.425ZM206.155 53.033C206.363 52.6257 206.657 52.3093 207.039 52.084C207.429 51.8587 207.901 51.746 208.456 51.746V52.968H208.144C206.818 52.968 206.155 53.6873 206.155 55.126V59H204.972V51.876H206.155V53.033ZM216.321 55.165C216.321 55.3903 216.308 55.6287 216.282 55.88H210.588C210.632 56.582 210.87 57.1323 211.303 57.531C211.745 57.921 212.278 58.116 212.902 58.116C213.414 58.116 213.838 57.999 214.176 57.765C214.523 57.5223 214.766 57.2017 214.904 56.803H216.178C215.988 57.4877 215.606 58.0467 215.034 58.48C214.462 58.9047 213.752 59.117 212.902 59.117C212.226 59.117 211.62 58.9653 211.082 58.662C210.554 58.3587 210.138 57.9297 209.834 57.375C209.531 56.8117 209.379 56.1617 209.379 55.425C209.379 54.6883 209.527 54.0427 209.821 53.488C210.116 52.9333 210.528 52.5087 211.056 52.214C211.594 51.9107 212.209 51.759 212.902 51.759C213.578 51.759 214.176 51.9063 214.696 52.201C215.216 52.4957 215.615 52.903 215.892 53.423C216.178 53.9343 216.321 54.515 216.321 55.165ZM215.099 54.918C215.099 54.4673 215 54.0817 214.8 53.761C214.601 53.4317 214.328 53.1847 213.981 53.02C213.643 52.8467 213.266 52.76 212.85 52.76C212.252 52.76 211.741 52.9507 211.316 53.332C210.9 53.7133 210.662 54.242 210.601 54.918H215.099ZM217.441 55.412C217.441 54.684 217.588 54.047 217.883 53.501C218.178 52.9463 218.581 52.5173 219.092 52.214C219.612 51.9107 220.188 51.759 220.821 51.759C221.445 51.759 221.987 51.8933 222.446 52.162C222.905 52.4307 223.248 52.7687 223.473 53.176V51.876H224.669V59H223.473V57.674C223.239 58.09 222.888 58.4367 222.42 58.714C221.961 58.9827 221.423 59.117 220.808 59.117C220.175 59.117 219.603 58.961 219.092 58.649C218.581 58.337 218.178 57.8993 217.883 57.336C217.588 56.7727 217.441 56.1313 217.441 55.412ZM223.473 55.425C223.473 54.8877 223.365 54.4197 223.148 54.021C222.931 53.6223 222.637 53.319 222.264 53.111C221.9 52.8943 221.497 52.786 221.055 52.786C220.613 52.786 220.21 52.89 219.846 53.098C219.482 53.306 219.192 53.6093 218.975 54.008C218.758 54.4067 218.65 54.8747 218.65 55.412C218.65 55.958 218.758 56.4347 218.975 56.842C219.192 57.2407 219.482 57.5483 219.846 57.765C220.21 57.973 220.613 58.077 221.055 58.077C221.497 58.077 221.9 57.973 222.264 57.765C222.637 57.5483 222.931 57.2407 223.148 56.842C223.365 56.4347 223.473 55.9623 223.473 55.425ZM228.111 52.851V57.05C228.111 57.3967 228.185 57.6437 228.332 57.791C228.479 57.9297 228.735 57.999 229.099 57.999H229.97V59H228.904C228.245 59 227.751 58.8483 227.422 58.545C227.093 58.2417 226.928 57.7433 226.928 57.05V52.851H226.005V51.876H226.928V50.082H228.111V51.876H229.97V52.851H228.111ZM232.014 50.719C231.789 50.719 231.598 50.641 231.442 50.485C231.286 50.329 231.208 50.1383 231.208 49.913C231.208 49.6877 231.286 49.497 231.442 49.341C231.598 49.185 231.789 49.107 232.014 49.107C232.231 49.107 232.413 49.185 232.56 49.341C232.716 49.497 232.794 49.6877 232.794 49.913C232.794 50.1383 232.716 50.329 232.56 50.485C232.413 50.641 232.231 50.719 232.014 50.719ZM232.586 51.876V59H231.403V51.876H232.586ZM238.074 51.746C238.94 51.746 239.642 52.0103 240.18 52.539C240.717 53.059 240.986 53.813 240.986 54.801V59H239.816V54.97C239.816 54.2593 239.638 53.7177 239.283 53.345C238.927 52.9637 238.442 52.773 237.827 52.773C237.203 52.773 236.704 52.968 236.332 53.358C235.968 53.748 235.786 54.3157 235.786 55.061V59H234.603V51.876H235.786V52.89C236.02 52.526 236.336 52.2443 236.735 52.045C237.142 51.8457 237.588 51.746 238.074 51.746ZM245.856 51.759C246.471 51.759 247.009 51.8933 247.468 52.162C247.936 52.4307 248.283 52.7687 248.508 53.176V51.876H249.704V59.156C249.704 59.806 249.565 60.3823 249.288 60.885C249.011 61.3963 248.612 61.795 248.092 62.081C247.581 62.367 246.983 62.51 246.298 62.51C245.362 62.51 244.582 62.289 243.958 61.847C243.334 61.405 242.966 60.8027 242.853 60.04H244.023C244.153 60.4733 244.422 60.82 244.829 61.08C245.236 61.3487 245.726 61.483 246.298 61.483C246.948 61.483 247.477 61.2793 247.884 60.872C248.3 60.4647 248.508 59.8927 248.508 59.156V57.661C248.274 58.077 247.927 58.4237 247.468 58.701C247.009 58.9783 246.471 59.117 245.856 59.117C245.223 59.117 244.647 58.961 244.127 58.649C243.616 58.337 243.213 57.8993 242.918 57.336C242.623 56.7727 242.476 56.1313 242.476 55.412C242.476 54.684 242.623 54.047 242.918 53.501C243.213 52.9463 243.616 52.5173 244.127 52.214C244.647 51.9107 245.223 51.759 245.856 51.759ZM248.508 55.425C248.508 54.8877 248.4 54.4197 248.183 54.021C247.966 53.6223 247.672 53.319 247.299 53.111C246.935 52.8943 246.532 52.786 246.09 52.786C245.648 52.786 245.245 52.89 244.881 53.098C244.517 53.306 244.227 53.6093 244.01 54.008C243.793 54.4067 243.685 54.8747 243.685 55.412C243.685 55.958 243.793 56.4347 244.01 56.842C244.227 57.2407 244.517 57.5483 244.881 57.765C245.245 57.973 245.648 58.077 246.09 58.077C246.532 58.077 246.935 57.973 247.299 57.765C247.672 57.5483 247.966 57.2407 248.183 56.842C248.4 56.4347 248.508 55.9623 248.508 55.425ZM19.559 75.412C19.559 74.684 19.7063 74.047 20.001 73.501C20.2957 72.9463 20.6987 72.5173 21.21 72.214C21.73 71.9107 22.3107 71.759 22.952 71.759C23.5067 71.759 24.0223 71.889 24.499 72.149C24.9757 72.4003 25.3397 72.734 25.591 73.15V69.38H26.787V79H25.591V77.661C25.357 78.0857 25.0103 78.4367 24.551 78.714C24.0917 78.9827 23.5543 79.117 22.939 79.117C22.3063 79.117 21.73 78.961 21.21 78.649C20.6987 78.337 20.2957 77.8993 20.001 77.336C19.7063 76.7727 19.559 76.1313 19.559 75.412ZM25.591 75.425C25.591 74.8877 25.4827 74.4197 25.266 74.021C25.0493 73.6223 24.7547 73.319 24.382 73.111C24.018 72.8943 23.615 72.786 23.173 72.786C22.731 72.786 22.328 72.89 21.964 73.098C21.6 73.306 21.3097 73.6093 21.093 74.008C20.8763 74.4067 20.768 74.8747 20.768 75.412C20.768 75.958 20.8763 76.4347 21.093 76.842C21.3097 77.2407 21.6 77.5483 21.964 77.765C22.328 77.973 22.731 78.077 23.173 78.077C23.615 78.077 24.018 77.973 24.382 77.765C24.7547 77.5483 25.0493 77.2407 25.266 76.842C25.4827 76.4347 25.591 75.9623 25.591 75.425ZM29.3972 70.719C29.1718 70.719 28.9812 70.641 28.8252 70.485C28.6692 70.329 28.5912 70.1383 28.5912 69.913C28.5912 69.6877 28.6692 69.497 28.8252 69.341C28.9812 69.185 29.1718 69.107 29.3972 69.107C29.6138 69.107 29.7958 69.185 29.9432 69.341C30.0992 69.497 30.1772 69.6877 30.1772 69.913C30.1772 70.1383 30.0992 70.329 29.9432 70.485C29.7958 70.641 29.6138 70.719 29.3972 70.719ZM29.9692 71.876V79H28.7862V71.876H29.9692ZM34.6374 77.908L36.8474 71.876H38.1084L35.3134 79H33.9354L31.1404 71.876H32.4144L34.6374 77.908ZM45.7725 75.165C45.7725 75.3903 45.7595 75.6287 45.7335 75.88H40.0395C40.0828 76.582 40.3212 77.1323 40.7545 77.531C41.1965 77.921 41.7295 78.116 42.3535 78.116C42.8648 78.116 43.2895 77.999 43.6275 77.765C43.9742 77.5223 44.2168 77.2017 44.3555 76.803H45.6295C45.4388 77.4877 45.0575 78.0467 44.4855 78.48C43.9135 78.9047 43.2028 79.117 42.3535 79.117C41.6775 79.117 41.0708 78.9653 40.5335 78.662C40.0048 78.3587 39.5888 77.9297 39.2855 77.375C38.9822 76.8117 38.8305 76.1617 38.8305 75.425C38.8305 74.6883 38.9778 74.0427 39.2725 73.488C39.5672 72.9333 39.9788 72.5087 40.5075 72.214C41.0448 71.9107 41.6602 71.759 42.3535 71.759C43.0295 71.759 43.6275 71.9063 44.1475 72.201C44.6675 72.4957 45.0662 72.903 45.3435 73.423C45.6295 73.9343 45.7725 74.515 45.7725 75.165ZM44.5505 74.918C44.5505 74.4673 44.4508 74.0817 44.2515 73.761C44.0522 73.4317 43.7792 73.1847 43.4325 73.02C43.0945 72.8467 42.7175 72.76 42.3015 72.76C41.7035 72.76 41.1922 72.9507 40.7675 73.332C40.3515 73.7133 40.1132 74.242 40.0525 74.918H44.5505ZM48.517 73.033C48.725 72.6257 49.0197 72.3093 49.401 72.084C49.791 71.8587 50.2633 71.746 50.818 71.746V72.968H50.506C49.18 72.968 48.517 73.6873 48.517 75.126V79H47.334V71.876H48.517V73.033ZM54.7056 79.117C54.1596 79.117 53.67 79.026 53.2366 78.844C52.8033 78.6533 52.461 78.3933 52.2096 78.064C51.9583 77.726 51.8196 77.3403 51.7936 76.907H53.0156C53.0503 77.2623 53.215 77.5527 53.5096 77.778C53.813 78.0033 54.2073 78.116 54.6926 78.116C55.1433 78.116 55.4986 78.0163 55.7586 77.817C56.0186 77.6177 56.1486 77.3663 56.1486 77.063C56.1486 76.751 56.01 76.5213 55.7326 76.374C55.4553 76.218 55.0263 76.0663 54.4456 75.919C53.917 75.7803 53.4836 75.6417 53.1456 75.503C52.8163 75.3557 52.5303 75.1433 52.2876 74.866C52.0536 74.58 51.9366 74.2073 51.9366 73.748C51.9366 73.384 52.045 73.0503 52.2616 72.747C52.4783 72.4437 52.786 72.2053 53.1846 72.032C53.5833 71.85 54.0383 71.759 54.5496 71.759C55.3383 71.759 55.9753 71.9583 56.4606 72.357C56.946 72.7557 57.206 73.3017 57.2406 73.995H56.0576C56.0316 73.6223 55.88 73.3233 55.6026 73.098C55.334 72.8727 54.97 72.76 54.5106 72.76C54.086 72.76 53.748 72.851 53.4966 73.033C53.2453 73.215 53.1196 73.4533 53.1196 73.748C53.1196 73.982 53.1933 74.177 53.3406 74.333C53.4966 74.4803 53.6873 74.6017 53.9126 74.697C54.1466 74.7837 54.4673 74.8833 54.8746 74.996C55.386 75.1347 55.802 75.2733 56.1226 75.412C56.4433 75.542 56.7163 75.7413 56.9416 76.01C57.1756 76.2787 57.297 76.6297 57.3056 77.063C57.3056 77.453 57.1973 77.804 56.9806 78.116C56.764 78.428 56.4563 78.675 56.0576 78.857C55.6676 79.0303 55.217 79.117 54.7056 79.117ZM65.4756 75.165C65.4756 75.3903 65.4626 75.6287 65.4366 75.88H59.7426C59.7859 76.582 60.0243 77.1323 60.4576 77.531C60.8996 77.921 61.4326 78.116 62.0566 78.116C62.5679 78.116 62.9926 77.999 63.3306 77.765C63.6773 77.5223 63.9199 77.2017 64.0586 76.803H65.3326C65.1419 77.4877 64.7606 78.0467 64.1886 78.48C63.6166 78.9047 62.9059 79.117 62.0566 79.117C61.3806 79.117 60.7739 78.9653 60.2366 78.662C59.7079 78.3587 59.2919 77.9297 58.9886 77.375C58.6853 76.8117 58.5336 76.1617 58.5336 75.425C58.5336 74.6883 58.6809 74.0427 58.9756 73.488C59.2703 72.9333 59.6819 72.5087 60.2106 72.214C60.7479 71.9107 61.3633 71.759 62.0566 71.759C62.7326 71.759 63.3306 71.9063 63.8506 72.201C64.3706 72.4957 64.7693 72.903 65.0466 73.423C65.3326 73.9343 65.4756 74.515 65.4756 75.165ZM64.2536 74.918C64.2536 74.4673 64.1539 74.0817 63.9546 73.761C63.7553 73.4317 63.4823 73.1847 63.1356 73.02C62.7976 72.8467 62.4206 72.76 62.0046 72.76C61.4066 72.76 60.8953 72.9507 60.4706 73.332C60.0546 73.7133 59.8163 74.242 59.7556 74.918H64.2536ZM70.061 75.412C70.061 74.684 70.2083 74.047 70.503 73.501C70.7976 72.9463 71.2006 72.5173 71.712 72.214C72.232 71.9107 72.8083 71.759 73.441 71.759C74.065 71.759 74.6066 71.8933 75.066 72.162C75.5253 72.4307 75.8676 72.7687 76.093 73.176V71.876H77.289V79H76.093V77.674C75.859 78.09 75.508 78.4367 75.04 78.714C74.5806 78.9827 74.0433 79.117 73.428 79.117C72.7953 79.117 72.2233 78.961 71.712 78.649C71.2006 78.337 70.7976 77.8993 70.503 77.336C70.2083 76.7727 70.061 76.1313 70.061 75.412ZM76.093 75.425C76.093 74.8877 75.9846 74.4197 75.768 74.021C75.5513 73.6223 75.2566 73.319 74.884 73.111C74.52 72.8943 74.117 72.786 73.675 72.786C73.233 72.786 72.83 72.89 72.466 73.098C72.102 73.306 71.8116 73.6093 71.595 74.008C71.3783 74.4067 71.27 74.8747 71.27 75.412C71.27 75.958 71.3783 76.4347 71.595 76.842C71.8116 77.2407 72.102 77.5483 72.466 77.765C72.83 77.973 73.233 78.077 73.675 78.077C74.117 78.077 74.52 77.973 74.884 77.765C75.2566 77.5483 75.5513 77.2407 75.768 76.842C75.9846 76.4347 76.093 75.9623 76.093 75.425ZM82.7591 71.746C83.6258 71.746 84.3278 72.0103 84.8651 72.539C85.4024 73.059 85.6711 73.813 85.6711 74.801V79H84.5011V74.97C84.5011 74.2593 84.3234 73.7177 83.9681 73.345C83.6128 72.9637 83.1274 72.773 82.5121 72.773C81.8881 72.773 81.3898 72.968 81.0171 73.358C80.6531 73.748 80.4711 74.3157 80.4711 75.061V79H79.2881V71.876H80.4711V72.89C80.7051 72.526 81.0214 72.2443 81.4201 72.045C81.8274 71.8457 82.2738 71.746 82.7591 71.746ZM87.1615 75.412C87.1615 74.684 87.3089 74.047 87.6035 73.501C87.8982 72.9463 88.3012 72.5173 88.8125 72.214C89.3325 71.9107 89.9132 71.759 90.5545 71.759C91.1092 71.759 91.6249 71.889 92.1015 72.149C92.5782 72.4003 92.9422 72.734 93.1935 73.15V69.38H94.3895V79H93.1935V77.661C92.9595 78.0857 92.6129 78.4367 92.1535 78.714C91.6942 78.9827 91.1569 79.117 90.5415 79.117C89.9089 79.117 89.3325 78.961 88.8125 78.649C88.3012 78.337 87.8982 77.8993 87.6035 77.336C87.3089 76.7727 87.1615 76.1313 87.1615 75.412ZM93.1935 75.425C93.1935 74.8877 93.0852 74.4197 92.8685 74.021C92.6519 73.6223 92.3572 73.319 91.9845 73.111C91.6205 72.8943 91.2175 72.786 90.7755 72.786C90.3335 72.786 89.9305 72.89 89.5665 73.098C89.2025 73.306 88.9122 73.6093 88.6955 74.008C88.4789 74.4067 88.3705 74.8747 88.3705 75.412C88.3705 75.958 88.4789 76.4347 88.6955 76.842C88.9122 77.2407 89.2025 77.5483 89.5665 77.765C89.9305 77.973 90.3335 78.077 90.7755 78.077C91.2175 78.077 91.6205 77.973 91.9845 77.765C92.3572 77.5483 92.6519 77.2407 92.8685 76.842C93.0852 76.4347 93.1935 75.9623 93.1935 75.425ZM106.355 75.165C106.355 75.3903 106.342 75.6287 106.316 75.88H100.622C100.665 76.582 100.903 77.1323 101.337 77.531C101.779 77.921 102.312 78.116 102.936 78.116C103.447 78.116 103.872 77.999 104.21 77.765C104.556 77.5223 104.799 77.2017 104.938 76.803H106.212C106.021 77.4877 105.64 78.0467 105.068 78.48C104.496 78.9047 103.785 79.117 102.936 79.117C102.26 79.117 101.653 78.9653 101.116 78.662C100.587 78.3587 100.171 77.9297 99.8675 77.375C99.5642 76.8117 99.4125 76.1617 99.4125 75.425C99.4125 74.6883 99.5598 74.0427 99.8545 73.488C100.149 72.9333 100.561 72.5087 101.09 72.214C101.627 71.9107 102.242 71.759 102.936 71.759C103.612 71.759 104.21 71.9063 104.73 72.201C105.25 72.4957 105.648 72.903 105.926 73.423C106.212 73.9343 106.355 74.515 106.355 75.165ZM105.133 74.918C105.133 74.4673 105.033 74.0817 104.834 73.761C104.634 73.4317 104.361 73.1847 104.015 73.02C103.677 72.8467 103.3 72.76 102.884 72.76C102.286 72.76 101.774 72.9507 101.35 73.332C100.934 73.7133 100.695 74.242 100.635 74.918H105.133ZM111.387 71.746C112.254 71.746 112.956 72.0103 113.493 72.539C114.03 73.059 114.299 73.813 114.299 74.801V79H113.129V74.97C113.129 74.2593 112.951 73.7177 112.596 73.345C112.241 72.9637 111.755 72.773 111.14 72.773C110.516 72.773 110.018 72.968 109.645 73.358C109.281 73.748 109.099 74.3157 109.099 75.061V79H107.916V71.876H109.099V72.89C109.333 72.526 109.649 72.2443 110.048 72.045C110.455 71.8457 110.902 71.746 111.387 71.746ZM115.789 75.412C115.789 74.684 115.937 74.047 116.231 73.501C116.526 72.9463 116.929 72.5173 117.44 72.214C117.96 71.9107 118.541 71.759 119.182 71.759C119.737 71.759 120.253 71.889 120.729 72.149C121.206 72.4003 121.57 72.734 121.821 73.15V69.38H123.017V79H121.821V77.661C121.587 78.0857 121.241 78.4367 120.781 78.714C120.322 78.9827 119.785 79.117 119.169 79.117C118.537 79.117 117.96 78.961 117.44 78.649C116.929 78.337 116.526 77.8993 116.231 77.336C115.937 76.7727 115.789 76.1313 115.789 75.412ZM121.821 75.425C121.821 74.8877 121.713 74.4197 121.496 74.021C121.28 73.6223 120.985 73.319 120.612 73.111C120.248 72.8943 119.845 72.786 119.403 72.786C118.961 72.786 118.558 72.89 118.194 73.098C117.83 73.306 117.54 73.6093 117.323 74.008C117.107 74.4067 116.998 74.8747 116.998 75.412C116.998 75.958 117.107 76.4347 117.323 76.842C117.54 77.2407 117.83 77.5483 118.194 77.765C118.558 77.973 118.961 78.077 119.403 78.077C119.845 78.077 120.248 77.973 120.612 77.765C120.985 77.5483 121.28 77.2407 121.496 76.842C121.713 76.4347 121.821 75.9623 121.821 75.425ZM126.2 69.38V79H125.017V69.38H126.2ZM134.716 75.165C134.716 75.3903 134.703 75.6287 134.677 75.88H128.983C129.026 76.582 129.265 77.1323 129.698 77.531C130.14 77.921 130.673 78.116 131.297 78.116C131.808 78.116 132.233 77.999 132.571 77.765C132.918 77.5223 133.16 77.2017 133.299 76.803H134.573C134.382 77.4877 134.001 78.0467 133.429 78.48C132.857 78.9047 132.146 79.117 131.297 79.117C130.621 79.117 130.014 78.9653 129.477 78.662C128.948 78.3587 128.532 77.9297 128.229 77.375C127.926 76.8117 127.774 76.1617 127.774 75.425C127.774 74.6883 127.921 74.0427 128.216 73.488C128.511 72.9333 128.922 72.5087 129.451 72.214C129.988 71.9107 130.604 71.759 131.297 71.759C131.973 71.759 132.571 71.9063 133.091 72.201C133.611 72.4957 134.01 72.903 134.287 73.423C134.573 73.9343 134.716 74.515 134.716 75.165ZM133.494 74.918C133.494 74.4673 133.394 74.0817 133.195 73.761C132.996 73.4317 132.723 73.1847 132.376 73.02C132.038 72.8467 131.661 72.76 131.245 72.76C130.647 72.76 130.136 72.9507 129.711 73.332C129.295 73.7133 129.057 74.242 128.996 74.918H133.494ZM138.799 79.117C138.253 79.117 137.764 79.026 137.33 78.844C136.897 78.6533 136.555 78.3933 136.303 78.064C136.052 77.726 135.913 77.3403 135.887 76.907H137.109C137.144 77.2623 137.309 77.5527 137.603 77.778C137.907 78.0033 138.301 78.116 138.786 78.116C139.237 78.116 139.592 78.0163 139.852 77.817C140.112 77.6177 140.242 77.3663 140.242 77.063C140.242 76.751 140.104 76.5213 139.826 76.374C139.549 76.218 139.12 76.0663 138.539 75.919C138.011 75.7803 137.577 75.6417 137.239 75.503C136.91 75.3557 136.624 75.1433 136.381 74.866C136.147 74.58 136.03 74.2073 136.03 73.748C136.03 73.384 136.139 73.0503 136.355 72.747C136.572 72.4437 136.88 72.2053 137.278 72.032C137.677 71.85 138.132 71.759 138.643 71.759C139.432 71.759 140.069 71.9583 140.554 72.357C141.04 72.7557 141.3 73.3017 141.334 73.995H140.151C140.125 73.6223 139.974 73.3233 139.696 73.098C139.428 72.8727 139.064 72.76 138.604 72.76C138.18 72.76 137.842 72.851 137.59 73.033C137.339 73.215 137.213 73.4533 137.213 73.748C137.213 73.982 137.287 74.177 137.434 74.333C137.59 74.4803 137.781 74.6017 138.006 74.697C138.24 74.7837 138.561 74.8833 138.968 74.996C139.48 75.1347 139.896 75.2733 140.216 75.412C140.537 75.542 140.81 75.7413 141.035 76.01C141.269 76.2787 141.391 76.6297 141.399 77.063C141.399 77.453 141.291 77.804 141.074 78.116C140.858 78.428 140.55 78.675 140.151 78.857C139.761 79.0303 139.311 79.117 138.799 79.117ZM145.591 79.117C145.045 79.117 144.556 79.026 144.122 78.844C143.689 78.6533 143.347 78.3933 143.095 78.064C142.844 77.726 142.705 77.3403 142.679 76.907H143.901C143.936 77.2623 144.101 77.5527 144.395 77.778C144.699 78.0033 145.093 78.116 145.578 78.116C146.029 78.116 146.384 78.0163 146.644 77.817C146.904 77.6177 147.034 77.3663 147.034 77.063C147.034 76.751 146.896 76.5213 146.618 76.374C146.341 76.218 145.912 76.0663 145.331 75.919C144.803 75.7803 144.369 75.6417 144.031 75.503C143.702 75.3557 143.416 75.1433 143.173 74.866C142.939 74.58 142.822 74.2073 142.822 73.748C142.822 73.384 142.931 73.0503 143.147 72.747C143.364 72.4437 143.672 72.2053 144.07 72.032C144.469 71.85 144.924 71.759 145.435 71.759C146.224 71.759 146.861 71.9583 147.346 72.357C147.832 72.7557 148.092 73.3017 148.126 73.995H146.943C146.917 73.6223 146.766 73.3233 146.488 73.098C146.22 72.8727 145.856 72.76 145.396 72.76C144.972 72.76 144.634 72.851 144.382 73.033C144.131 73.215 144.005 73.4533 144.005 73.748C144.005 73.982 144.079 74.177 144.226 74.333C144.382 74.4803 144.573 74.6017 144.798 74.697C145.032 74.7837 145.353 74.8833 145.76 74.996C146.272 75.1347 146.688 75.2733 147.008 75.412C147.329 75.542 147.602 75.7413 147.827 76.01C148.061 76.2787 148.183 76.6297 148.191 77.063C148.191 77.453 148.083 77.804 147.866 78.116C147.65 78.428 147.342 78.675 146.943 78.857C146.553 79.0303 146.103 79.117 145.591 79.117ZM162.817 71.876L160.594 79H159.372L157.656 73.345L155.94 79H154.718L152.482 71.876H153.691L155.329 77.856L157.097 71.876H158.306L160.035 77.869L161.647 71.876H162.817ZM167.098 79.117C166.431 79.117 165.824 78.9653 165.278 78.662C164.741 78.3587 164.316 77.9297 164.004 77.375C163.701 76.8117 163.549 76.1617 163.549 75.425C163.549 74.697 163.705 74.0557 164.017 73.501C164.338 72.9377 164.771 72.5087 165.317 72.214C165.863 71.9107 166.474 71.759 167.15 71.759C167.826 71.759 168.437 71.9107 168.983 72.214C169.529 72.5087 169.958 72.9333 170.27 73.488C170.591 74.0427 170.751 74.6883 170.751 75.425C170.751 76.1617 170.587 76.8117 170.257 77.375C169.937 77.9297 169.499 78.3587 168.944 78.662C168.39 78.9653 167.774 79.117 167.098 79.117ZM167.098 78.077C167.523 78.077 167.922 77.9773 168.294 77.778C168.667 77.5787 168.966 77.2797 169.191 76.881C169.425 76.4823 169.542 75.997 169.542 75.425C169.542 74.853 169.43 74.3677 169.204 73.969C168.979 73.5703 168.684 73.2757 168.32 73.085C167.956 72.8857 167.562 72.786 167.137 72.786C166.704 72.786 166.305 72.8857 165.941 73.085C165.586 73.2757 165.3 73.5703 165.083 73.969C164.867 74.3677 164.758 74.853 164.758 75.425C164.758 76.0057 164.862 76.4953 165.07 76.894C165.287 77.2927 165.573 77.5917 165.928 77.791C166.284 77.9817 166.674 78.077 167.098 78.077ZM173.49 73.033C173.698 72.6257 173.992 72.3093 174.374 72.084C174.764 71.8587 175.236 71.746 175.791 71.746V72.968H175.479C174.153 72.968 173.49 73.6873 173.49 75.126V79H172.307V71.876H173.49V73.033ZM181.134 79L178.339 75.854V79H177.156V69.38H178.339V75.035L181.082 71.876H182.733L179.379 75.425L182.746 79H181.134ZM186.746 72.851H185.251V79H184.068V72.851H183.145V71.876H184.068V71.369C184.068 70.5717 184.271 69.991 184.679 69.627C185.095 69.2543 185.758 69.068 186.668 69.068V70.056C186.148 70.056 185.779 70.16 185.563 70.368C185.355 70.5673 185.251 70.901 185.251 71.369V71.876H186.746V72.851ZM189.308 69.38V79H188.125V69.38H189.308ZM194.431 79.117C193.764 79.117 193.157 78.9653 192.611 78.662C192.074 78.3587 191.649 77.9297 191.337 77.375C191.034 76.8117 190.882 76.1617 190.882 75.425C190.882 74.697 191.038 74.0557 191.35 73.501C191.671 72.9377 192.104 72.5087 192.65 72.214C193.196 71.9107 193.807 71.759 194.483 71.759C195.159 71.759 195.77 71.9107 196.316 72.214C196.862 72.5087 197.291 72.9333 197.603 73.488C197.924 74.0427 198.084 74.6883 198.084 75.425C198.084 76.1617 197.92 76.8117 197.59 77.375C197.27 77.9297 196.832 78.3587 196.277 78.662C195.723 78.9653 195.107 79.117 194.431 79.117ZM194.431 78.077C194.856 78.077 195.255 77.9773 195.627 77.778C196 77.5787 196.299 77.2797 196.524 76.881C196.758 76.4823 196.875 75.997 196.875 75.425C196.875 74.853 196.763 74.3677 196.537 73.969C196.312 73.5703 196.017 73.2757 195.653 73.085C195.289 72.8857 194.895 72.786 194.47 72.786C194.037 72.786 193.638 72.8857 193.274 73.085C192.919 73.2757 192.633 73.5703 192.416 73.969C192.2 74.3677 192.091 74.853 192.091 75.425C192.091 76.0057 192.195 76.4953 192.403 76.894C192.62 77.2927 192.906 77.5917 193.261 77.791C193.617 77.9817 194.007 78.077 194.431 78.077ZM209.13 71.876L206.907 79H205.685L203.969 73.345L202.253 79H201.031L198.795 71.876H200.004L201.642 77.856L203.41 71.876H204.619L206.348 77.869L207.96 71.876H209.13ZM212.826 79.117C212.28 79.117 211.79 79.026 211.357 78.844C210.923 78.6533 210.581 78.3933 210.33 78.064C210.078 77.726 209.94 77.3403 209.914 76.907H211.136C211.17 77.2623 211.335 77.5527 211.63 77.778C211.933 78.0033 212.327 78.116 212.813 78.116C213.263 78.116 213.619 78.0163 213.879 77.817C214.139 77.6177 214.269 77.3663 214.269 77.063C214.269 76.751 214.13 76.5213 213.853 76.374C213.575 76.218 213.146 76.0663 212.566 75.919C212.037 75.7803 211.604 75.6417 211.266 75.503C210.936 75.3557 210.65 75.1433 210.408 74.866C210.174 74.58 210.057 74.2073 210.057 73.748C210.057 73.384 210.165 73.0503 210.382 72.747C210.598 72.4437 210.906 72.2053 211.305 72.032C211.703 71.85 212.158 71.759 212.67 71.759C213.458 71.759 214.095 71.9583 214.581 72.357C215.066 72.7557 215.326 73.3017 215.361 73.995H214.178C214.152 73.6223 214 73.3233 213.723 73.098C213.454 72.8727 213.09 72.76 212.631 72.76C212.206 72.76 211.868 72.851 211.617 73.033C211.365 73.215 211.24 73.4533 211.24 73.748C211.24 73.982 211.313 74.177 211.461 74.333C211.617 74.4803 211.807 74.6017 212.033 74.697C212.267 74.7837 212.587 74.8833 212.995 74.996C213.506 75.1347 213.922 75.2733 214.243 75.412C214.563 75.542 214.836 75.7413 215.062 76.01C215.296 76.2787 215.417 76.6297 215.426 77.063C215.426 77.453 215.317 77.804 215.101 78.116C214.884 78.428 214.576 78.675 214.178 78.857C213.788 79.0303 213.337 79.117 212.826 79.117ZM221.173 70.719C220.947 70.719 220.757 70.641 220.601 70.485C220.445 70.329 220.367 70.1383 220.367 69.913C220.367 69.6877 220.445 69.497 220.601 69.341C220.757 69.185 220.947 69.107 221.173 69.107C221.389 69.107 221.571 69.185 221.719 69.341C221.875 69.497 221.953 69.6877 221.953 69.913C221.953 70.1383 221.875 70.329 221.719 70.485C221.571 70.641 221.389 70.719 221.173 70.719ZM221.745 71.876V79H220.562V71.876H221.745ZM226.283 79.117C225.737 79.117 225.247 79.026 224.814 78.844C224.38 78.6533 224.038 78.3933 223.787 78.064C223.535 77.726 223.397 77.3403 223.371 76.907H224.593C224.627 77.2623 224.792 77.5527 225.087 77.778C225.39 78.0033 225.784 78.116 226.27 78.116C226.72 78.116 227.076 78.0163 227.336 77.817C227.596 77.6177 227.726 77.3663 227.726 77.063C227.726 76.751 227.587 76.5213 227.31 76.374C227.032 76.218 226.603 76.0663 226.023 75.919C225.494 75.7803 225.061 75.6417 224.723 75.503C224.393 75.3557 224.107 75.1433 223.865 74.866C223.631 74.58 223.514 74.2073 223.514 73.748C223.514 73.384 223.622 73.0503 223.839 72.747C224.055 72.4437 224.363 72.2053 224.762 72.032C225.16 71.85 225.615 71.759 226.127 71.759C226.915 71.759 227.552 71.9583 228.038 72.357C228.523 72.7557 228.783 73.3017 228.818 73.995H227.635C227.609 73.6223 227.457 73.3233 227.18 73.098C226.911 72.8727 226.547 72.76 226.088 72.76C225.663 72.76 225.325 72.851 225.074 73.033C224.822 73.215 224.697 73.4533 224.697 73.748C224.697 73.982 224.77 74.177 224.918 74.333C225.074 74.4803 225.264 74.6017 225.49 74.697C225.724 74.7837 226.044 74.8833 226.452 74.996C226.963 75.1347 227.379 75.2733 227.7 75.412C228.02 75.542 228.293 75.7413 228.519 76.01C228.753 76.2787 228.874 76.6297 228.883 77.063C228.883 77.453 228.774 77.804 228.558 78.116C228.341 78.428 228.033 78.675 227.635 78.857C227.245 79.0303 226.794 79.117 226.283 79.117ZM21.184 89.38V99H20.001V89.38H21.184ZM23.8112 90.719C23.5859 90.719 23.3952 90.641 23.2392 90.485C23.0832 90.329 23.0052 90.1383 23.0052 89.913C23.0052 89.6877 23.0832 89.497 23.2392 89.341C23.3952 89.185 23.5859 89.107 23.8112 89.107C24.0279 89.107 24.2099 89.185 24.3572 89.341C24.5132 89.497 24.5912 89.6877 24.5912 89.913C24.5912 90.1383 24.5132 90.329 24.3572 90.485C24.2099 90.641 24.0279 90.719 23.8112 90.719ZM24.3832 91.876V99H23.2002V91.876H24.3832ZM34.9664 91.746C35.5211 91.746 36.0151 91.863 36.4484 92.097C36.8818 92.3223 37.2241 92.6647 37.4754 93.124C37.7268 93.5833 37.8524 94.1423 37.8524 94.801V99H36.6824V94.97C36.6824 94.2593 36.5048 93.7177 36.1494 93.345C35.8028 92.9637 35.3304 92.773 34.7324 92.773C34.1171 92.773 33.6274 92.9723 33.2634 93.371C32.8994 93.761 32.7174 94.3287 32.7174 95.074V99H31.5474V94.97C31.5474 94.2593 31.3698 93.7177 31.0144 93.345C30.6678 92.9637 30.1954 92.773 29.5974 92.773C28.9821 92.773 28.4924 92.9723 28.1284 93.371C27.7644 93.761 27.5824 94.3287 27.5824 95.074V99H26.3994V91.876H27.5824V92.903C27.8164 92.5303 28.1284 92.2443 28.5184 92.045C28.9171 91.8457 29.3548 91.746 29.8314 91.746C30.4294 91.746 30.9581 91.8803 31.4174 92.149C31.8768 92.4177 32.2191 92.812 32.4444 93.332C32.6438 92.8293 32.9731 92.4393 33.4324 92.162C33.8918 91.8847 34.4031 91.746 34.9664 91.746ZM40.404 90.719C40.1787 90.719 39.988 90.641 39.832 90.485C39.676 90.329 39.598 90.1383 39.598 89.913C39.598 89.6877 39.676 89.497 39.832 89.341C39.988 89.185 40.1787 89.107 40.404 89.107C40.6207 89.107 40.8027 89.185 40.95 89.341C41.106 89.497 41.184 89.6877 41.184 89.913C41.184 90.1383 41.106 90.329 40.95 90.485C40.8027 90.641 40.6207 90.719 40.404 90.719ZM40.976 91.876V99H39.793V91.876H40.976ZM44.4352 92.851V97.05C44.4352 97.3967 44.5089 97.6437 44.6562 97.791C44.8035 97.9297 45.0592 97.999 45.4232 97.999H46.2942V99H45.2282C44.5695 99 44.0755 98.8483 43.7462 98.545C43.4169 98.2417 43.2522 97.7433 43.2522 97.05V92.851H42.3292V91.876H43.2522V90.082H44.4352V91.876H46.2942V92.851H44.4352ZM48.9106 89.38V99H47.7276V89.38H48.9106ZM57.4268 95.165C57.4268 95.3903 57.4138 95.6287 57.3878 95.88H51.6938C51.7371 96.582 51.9754 97.1323 52.4088 97.531C52.8508 97.921 53.3838 98.116 54.0078 98.116C54.5191 98.116 54.9438 97.999 55.2818 97.765C55.6284 97.5223 55.8711 97.2017 56.0098 96.803H57.2838C57.0931 97.4877 56.7118 98.0467 56.1398 98.48C55.5678 98.9047 54.8571 99.117 54.0078 99.117C53.3318 99.117 52.7251 98.9653 52.1878 98.662C51.6591 98.3587 51.2431 97.9297 50.9398 97.375C50.6364 96.8117 50.4848 96.1617 50.4848 95.425C50.4848 94.6883 50.6321 94.0427 50.9268 93.488C51.2214 92.9333 51.6331 92.5087 52.1618 92.214C52.6991 91.9107 53.3144 91.759 54.0078 91.759C54.6838 91.759 55.2818 91.9063 55.8018 92.201C56.3218 92.4957 56.7204 92.903 56.9978 93.423C57.2838 93.9343 57.4268 94.515 57.4268 95.165ZM56.2048 94.918C56.2048 94.4673 56.1051 94.0817 55.9058 93.761C55.7064 93.4317 55.4334 93.1847 55.0868 93.02C54.7488 92.8467 54.3718 92.76 53.9558 92.76C53.3578 92.76 52.8464 92.9507 52.4218 93.332C52.0058 93.7133 51.7674 94.242 51.7068 94.918H56.2048ZM61.5103 99.117C60.9643 99.117 60.4746 99.026 60.0413 98.844C59.608 98.6533 59.2656 98.3933 59.0143 98.064C58.763 97.726 58.6243 97.3403 58.5983 96.907H59.8203C59.855 97.2623 60.0196 97.5527 60.3143 97.778C60.6176 98.0033 61.012 98.116 61.4973 98.116C61.948 98.116 62.3033 98.0163 62.5633 97.817C62.8233 97.6177 62.9533 97.3663 62.9533 97.063C62.9533 96.751 62.8146 96.5213 62.5373 96.374C62.26 96.218 61.831 96.0663 61.2503 95.919C60.7216 95.7803 60.2883 95.6417 59.9503 95.503C59.621 95.3557 59.335 95.1433 59.0923 94.866C58.8583 94.58 58.7413 94.2073 58.7413 93.748C58.7413 93.384 58.8496 93.0503 59.0663 92.747C59.283 92.4437 59.5906 92.2053 59.9893 92.032C60.388 91.85 60.843 91.759 61.3543 91.759C62.143 91.759 62.78 91.9583 63.2653 92.357C63.7506 92.7557 64.0106 93.3017 64.0453 93.995H62.8623C62.8363 93.6223 62.6846 93.3233 62.4073 93.098C62.1386 92.8727 61.7746 92.76 61.3153 92.76C60.8906 92.76 60.5526 92.851 60.3013 93.033C60.05 93.215 59.9243 93.4533 59.9243 93.748C59.9243 93.982 59.998 94.177 60.1453 94.333C60.3013 94.4803 60.492 94.6017 60.7173 94.697C60.9513 94.7837 61.272 94.8833 61.6793 94.996C62.1906 95.1347 62.6066 95.2733 62.9273 95.412C63.248 95.542 63.521 95.7413 63.7463 96.01C63.9803 96.2787 64.1016 96.6297 64.1103 97.063C64.1103 97.453 64.002 97.804 63.7853 98.116C63.5686 98.428 63.261 98.675 62.8623 98.857C62.4723 99.0303 62.0216 99.117 61.5103 99.117ZM68.3023 99.117C67.7563 99.117 67.2666 99.026 66.8333 98.844C66.4 98.6533 66.0576 98.3933 65.8063 98.064C65.555 97.726 65.4163 97.3403 65.3903 96.907H66.6123C66.647 97.2623 66.8116 97.5527 67.1063 97.778C67.4096 98.0033 67.804 98.116 68.2893 98.116C68.74 98.116 69.0953 98.0163 69.3553 97.817C69.6153 97.6177 69.7453 97.3663 69.7453 97.063C69.7453 96.751 69.6066 96.5213 69.3293 96.374C69.052 96.218 68.623 96.0663 68.0423 95.919C67.5136 95.7803 67.0803 95.6417 66.7423 95.503C66.413 95.3557 66.127 95.1433 65.8843 94.866C65.6503 94.58 65.5333 94.2073 65.5333 93.748C65.5333 93.384 65.6416 93.0503 65.8583 92.747C66.075 92.4437 66.3826 92.2053 66.7813 92.032C67.18 91.85 67.635 91.759 68.1463 91.759C68.935 91.759 69.572 91.9583 70.0573 92.357C70.5426 92.7557 70.8026 93.3017 70.8373 93.995H69.6543C69.6283 93.6223 69.4766 93.3233 69.1993 93.098C68.9306 92.8727 68.5666 92.76 68.1073 92.76C67.6826 92.76 67.3446 92.851 67.0933 93.033C66.842 93.215 66.7163 93.4533 66.7163 93.748C66.7163 93.982 66.79 94.177 66.9373 94.333C67.0933 94.4803 67.284 94.6017 67.5093 94.697C67.7433 94.7837 68.064 94.8833 68.4713 94.996C68.9826 95.1347 69.3986 95.2733 69.7193 95.412C70.04 95.542 70.313 95.7413 70.5383 96.01C70.7723 96.2787 70.8936 96.6297 70.9023 97.063C70.9023 97.453 70.794 97.804 70.5773 98.116C70.3606 98.428 70.053 98.675 69.6543 98.857C69.2643 99.0303 68.8136 99.117 68.3023 99.117ZM72.9493 99.078C72.724 99.078 72.5333 99 72.3773 98.844C72.2213 98.688 72.1433 98.4973 72.1433 98.272C72.1433 98.0467 72.2213 97.856 72.3773 97.7C72.5333 97.544 72.724 97.466 72.9493 97.466C73.166 97.466 73.348 97.544 73.4953 97.7C73.6513 97.856 73.7293 98.0467 73.7293 98.272C73.7293 98.4973 73.6513 98.688 73.4953 98.844C73.348 99 73.166 99.078 72.9493 99.078Z" fill="#B6B6B6"/>
<defs>
<filter id="filter0_b_335_477" x="-50" y="-50" width="401" height="235" filterUnits="userSpaceOnUse" color-interpolation-filters="sRGB">
<feFlood flood-opacity="0" result="BackgroundImageFix"/>
<feGaussianBlur in="BackgroundImageFix" stdDeviation="25"/>
<feComposite in2="SourceAlpha" operator="in" result="effect1_backgroundBlur_335_477"/>
<feBlend mode="normal" in="SourceGraphic" in2="effect1_backgroundBlur_335_477" result="shape"/>
</filter>
<linearGradient id="paint0_linear_335_477" x1="333.5" y1="276.5" x2="135" y2="28.5" gradientUnits="userSpaceOnUse">
<stop stop-color="#161616"/>
<stop offset="1" stop-color="#737373"/>
</linearGradient>
</defs>
</svg>
