<svg width="301" height="135" viewBox="0 0 301 135" fill="none" xmlns="http://www.w3.org/2000/svg">
<g filter="url(#filter0_b_327_464)">
<mask id="path-1-inside-1_327_464" fill="white">
<path fill-rule="evenodd" clip-rule="evenodd" d="M0 10C0 4.47715 4.47715 0 10 0H291C296.523 0 301 4.47715 301 10V125C301 130.523 296.523 135 291 135H281.134C281.419 134.344 281.678 133.675 281.91 132.995C283.292 128.951 283.687 124.635 283.062 120.407L283.061 120.404L282.495 116.525C284.841 113.351 286.866 110.405 288.526 107.687C292.166 102.096 294.679 95.8484 295.924 89.2941C295.929 89.2636 295.935 89.2329 295.939 89.2022C296.872 82.6345 296.496 75.9471 294.832 69.5255C294.725 69.0906 294.53 68.682 294.259 68.3247C293.988 67.9658 293.645 67.6663 293.253 67.4448C292.495 67.0092 291.603 66.8707 290.748 67.0562C284.27 68.3866 278.114 70.9679 272.625 74.6555C272.599 74.6727 272.574 74.6904 272.549 74.7088C272.534 74.7199 272.52 74.7312 272.505 74.7428C267.251 78.8688 262.835 83.9619 259.495 89.7474C257.853 92.4324 256.131 95.5528 254.328 99.1028L250.585 100.35L250.583 100.351C246.526 101.707 242.852 104.014 239.869 107.08C236.885 110.146 234.679 113.881 233.434 117.974L233.433 117.979L231.589 124.1C231.355 124.818 231.371 125.595 231.636 126.302C231.903 127.017 232.407 127.618 233.064 128.006L236.375 130.013L236.377 130.014C236.775 130.254 237.218 130.409 237.679 130.468C238.118 130.524 238.563 130.492 238.989 130.375L239.318 130.297C239.519 130.249 239.711 130.17 239.888 130.064L249.478 124.28L251.505 125.528C251.016 126.617 250.581 127.699 250.21 128.756C249.452 130.914 248.929 133.061 248.801 135H10C4.47716 135 0 130.523 0 125V10ZM256.355 135H261.977L262.166 132.091L260.202 130.882C259.456 131.799 258.693 132.666 257.924 133.467C257.41 134.003 256.885 134.517 256.355 135ZM262.606 127.664L263.995 128.52L278.779 114.819L278.793 114.801C281.313 111.422 283.434 108.353 285.126 105.578C285.137 105.561 285.148 105.544 285.158 105.527C288.514 100.381 290.833 94.6283 291.985 88.5935C292.81 82.7477 292.507 76.7998 291.097 71.0705C285.32 72.317 279.83 74.6455 274.917 77.9346C270.084 81.7423 266.021 86.4373 262.947 91.7681L262.933 91.7917L262.921 91.8129C261.258 94.5295 259.489 97.7473 257.612 101.473L251.947 121.102L253.3 121.936C253.625 121.345 253.962 120.759 254.311 120.179C256.003 117.363 257.984 114.659 260.091 112.404C262.181 110.168 264.485 108.278 266.842 107.219C267.444 106.949 268.14 106.993 268.703 107.337C269.266 107.681 269.624 108.28 269.658 108.939C269.793 111.51 269.147 114.413 268.094 117.277C267.031 120.168 265.504 123.152 263.748 125.931C263.378 126.517 262.997 127.096 262.606 127.664ZM255.796 125.801C255.855 125.703 255.905 125.603 255.946 125.5C256.491 124.41 257.092 123.316 257.739 122.239C259.312 119.622 261.129 117.151 263.014 115.135C263.757 114.34 264.498 113.63 265.224 113.014C265.006 113.925 264.71 114.89 264.339 115.897C263.39 118.478 262 121.21 260.367 123.795C258.734 126.379 256.884 128.775 255.039 130.697C254.44 131.321 253.852 131.883 253.283 132.38C253.467 131.656 253.701 130.888 253.984 130.081C254.468 128.703 255.081 127.258 255.796 125.801ZM278.125 131.702C277.736 132.841 277.258 133.943 276.699 135H265.985L266.184 131.944L278.973 120.093L279.104 120.986L279.105 120.99C279.637 124.587 279.301 128.26 278.125 131.702ZM252.766 103.84L251.851 104.145C248.399 105.298 245.273 107.261 242.735 109.869C240.198 112.477 238.321 115.654 237.262 119.135L237.261 119.138L235.546 124.833L238.174 126.426L247.948 120.531L252.766 103.84ZM277.35 80.2069C279.87 79.6322 282.516 80.0741 284.713 81.438C286.923 82.8096 288.499 85.0018 289.095 87.5336C289.116 87.6229 289.13 87.7121 289.139 87.8009C289.4 88.9716 289.44 90.1818 289.257 91.369C289.057 92.6589 288.598 93.8948 287.906 95.0016L287.906 95.0025C286.545 97.1774 284.388 98.7331 281.896 99.3381C280.63 99.6992 279.305 99.8027 277.998 99.6423C276.674 99.4799 275.398 99.0502 274.245 98.3795C273.093 97.7087 272.089 96.8109 271.294 95.7403C270.5 94.6698 269.931 93.4489 269.622 92.1518C269.313 90.8547 269.272 89.5084 269.499 88.1947C269.727 86.8809 270.219 85.6271 270.945 84.5093C271.672 83.3915 272.618 82.433 273.727 81.692C274.823 80.9592 276.055 80.4542 277.35 80.2069ZM285.142 88.2193C285.152 88.3116 285.169 88.4035 285.192 88.4944C285.383 89.2335 285.42 90.0035 285.304 90.7578C285.187 91.512 284.919 92.2346 284.514 92.8818C283.702 94.179 282.412 95.1044 280.924 95.4579C280.891 95.4656 280.859 95.4741 280.827 95.4834C280.067 95.7043 279.27 95.7685 278.485 95.6721C277.699 95.5757 276.942 95.3207 276.258 94.9225C275.574 94.5244 274.978 93.9914 274.506 93.356C274.034 92.7206 273.697 91.9959 273.513 91.226C273.33 90.4561 273.305 89.6569 273.44 88.8771C273.575 88.0973 273.867 87.3531 274.299 86.6896C274.73 86.0261 275.292 85.4572 275.95 85.0173C276.608 84.5775 277.348 84.2759 278.126 84.1309C278.141 84.1282 278.155 84.1253 278.17 84.1223C278.184 84.1192 278.199 84.1161 278.213 84.1127C279.715 83.7632 281.294 84.0235 282.604 84.8366C283.846 85.6077 284.751 86.8164 285.142 88.2193Z"/>
</mask>
<path fill-rule="evenodd" clip-rule="evenodd" d="M0 10C0 4.47715 4.47715 0 10 0H291C296.523 0 301 4.47715 301 10V125C301 130.523 296.523 135 291 135H281.134C281.419 134.344 281.678 133.675 281.91 132.995C283.292 128.951 283.687 124.635 283.062 120.407L283.061 120.404L282.495 116.525C284.841 113.351 286.866 110.405 288.526 107.687C292.166 102.096 294.679 95.8484 295.924 89.2941C295.929 89.2636 295.935 89.2329 295.939 89.2022C296.872 82.6345 296.496 75.9471 294.832 69.5255C294.725 69.0906 294.53 68.682 294.259 68.3247C293.988 67.9658 293.645 67.6663 293.253 67.4448C292.495 67.0092 291.603 66.8707 290.748 67.0562C284.27 68.3866 278.114 70.9679 272.625 74.6555C272.599 74.6727 272.574 74.6904 272.549 74.7088C272.534 74.7199 272.52 74.7312 272.505 74.7428C267.251 78.8688 262.835 83.9619 259.495 89.7474C257.853 92.4324 256.131 95.5528 254.328 99.1028L250.585 100.35L250.583 100.351C246.526 101.707 242.852 104.014 239.869 107.08C236.885 110.146 234.679 113.881 233.434 117.974L233.433 117.979L231.589 124.1C231.355 124.818 231.371 125.595 231.636 126.302C231.903 127.017 232.407 127.618 233.064 128.006L236.375 130.013L236.377 130.014C236.775 130.254 237.218 130.409 237.679 130.468C238.118 130.524 238.563 130.492 238.989 130.375L239.318 130.297C239.519 130.249 239.711 130.17 239.888 130.064L249.478 124.28L251.505 125.528C251.016 126.617 250.581 127.699 250.21 128.756C249.452 130.914 248.929 133.061 248.801 135H10C4.47716 135 0 130.523 0 125V10ZM256.355 135H261.977L262.166 132.091L260.202 130.882C259.456 131.799 258.693 132.666 257.924 133.467C257.41 134.003 256.885 134.517 256.355 135ZM262.606 127.664L263.995 128.52L278.779 114.819L278.793 114.801C281.313 111.422 283.434 108.353 285.126 105.578C285.137 105.561 285.148 105.544 285.158 105.527C288.514 100.381 290.833 94.6283 291.985 88.5935C292.81 82.7477 292.507 76.7998 291.097 71.0705C285.32 72.317 279.83 74.6455 274.917 77.9346C270.084 81.7423 266.021 86.4373 262.947 91.7681L262.933 91.7917L262.921 91.8129C261.258 94.5295 259.489 97.7473 257.612 101.473L251.947 121.102L253.3 121.936C253.625 121.345 253.962 120.759 254.311 120.179C256.003 117.363 257.984 114.659 260.091 112.404C262.181 110.168 264.485 108.278 266.842 107.219C267.444 106.949 268.14 106.993 268.703 107.337C269.266 107.681 269.624 108.28 269.658 108.939C269.793 111.51 269.147 114.413 268.094 117.277C267.031 120.168 265.504 123.152 263.748 125.931C263.378 126.517 262.997 127.096 262.606 127.664ZM255.796 125.801C255.855 125.703 255.905 125.603 255.946 125.5C256.491 124.41 257.092 123.316 257.739 122.239C259.312 119.622 261.129 117.151 263.014 115.135C263.757 114.34 264.498 113.63 265.224 113.014C265.006 113.925 264.71 114.89 264.339 115.897C263.39 118.478 262 121.21 260.367 123.795C258.734 126.379 256.884 128.775 255.039 130.697C254.44 131.321 253.852 131.883 253.283 132.38C253.467 131.656 253.701 130.888 253.984 130.081C254.468 128.703 255.081 127.258 255.796 125.801ZM278.125 131.702C277.736 132.841 277.258 133.943 276.699 135H265.985L266.184 131.944L278.973 120.093L279.104 120.986L279.105 120.99C279.637 124.587 279.301 128.26 278.125 131.702ZM252.766 103.84L251.851 104.145C248.399 105.298 245.273 107.261 242.735 109.869C240.198 112.477 238.321 115.654 237.262 119.135L237.261 119.138L235.546 124.833L238.174 126.426L247.948 120.531L252.766 103.84ZM277.35 80.2069C279.87 79.6322 282.516 80.0741 284.713 81.438C286.923 82.8096 288.499 85.0018 289.095 87.5336C289.116 87.6229 289.13 87.7121 289.139 87.8009C289.4 88.9716 289.44 90.1818 289.257 91.369C289.057 92.6589 288.598 93.8948 287.906 95.0016L287.906 95.0025C286.545 97.1774 284.388 98.7331 281.896 99.3381C280.63 99.6992 279.305 99.8027 277.998 99.6423C276.674 99.4799 275.398 99.0502 274.245 98.3795C273.093 97.7087 272.089 96.8109 271.294 95.7403C270.5 94.6698 269.931 93.4489 269.622 92.1518C269.313 90.8547 269.272 89.5084 269.499 88.1947C269.727 86.8809 270.219 85.6271 270.945 84.5093C271.672 83.3915 272.618 82.433 273.727 81.692C274.823 80.9592 276.055 80.4542 277.35 80.2069ZM285.142 88.2193C285.152 88.3116 285.169 88.4035 285.192 88.4944C285.383 89.2335 285.42 90.0035 285.304 90.7578C285.187 91.512 284.919 92.2346 284.514 92.8818C283.702 94.179 282.412 95.1044 280.924 95.4579C280.891 95.4656 280.859 95.4741 280.827 95.4834C280.067 95.7043 279.27 95.7685 278.485 95.6721C277.699 95.5757 276.942 95.3207 276.258 94.9225C275.574 94.5244 274.978 93.9914 274.506 93.356C274.034 92.7206 273.697 91.9959 273.513 91.226C273.33 90.4561 273.305 89.6569 273.44 88.8771C273.575 88.0973 273.867 87.3531 274.299 86.6896C274.73 86.0261 275.292 85.4572 275.95 85.0173C276.608 84.5775 277.348 84.2759 278.126 84.1309C278.141 84.1282 278.155 84.1253 278.17 84.1223C278.184 84.1192 278.199 84.1161 278.213 84.1127C279.715 83.7632 281.294 84.0235 282.604 84.8366C283.846 85.6077 284.751 86.8164 285.142 88.2193Z" fill="url(#paint0_linear_327_464)" fill-opacity="0.5"/>
<path d="M281.134 135L280.217 134.602L279.61 136H281.134V135ZM281.91 132.995L280.964 132.672L280.964 132.672L281.91 132.995ZM283.062 120.407L282.072 120.552L282.073 120.553L283.062 120.407ZM283.061 120.404L282.072 120.549L282.072 120.549L283.061 120.404ZM282.495 116.525L281.69 115.931L281.446 116.262L281.505 116.67L282.495 116.525ZM288.526 107.687L287.688 107.141L287.68 107.153L287.672 107.166L288.526 107.687ZM295.924 89.2941L294.941 89.1075L294.941 89.1075L295.924 89.2941ZM295.939 89.2022L294.949 89.0616L294.949 89.0617L295.939 89.2022ZM294.832 69.5255L293.861 69.765L293.864 69.7763L294.832 69.5255ZM294.259 68.3247L293.462 68.9284L293.462 68.9284L294.259 68.3247ZM293.253 67.4448L292.755 68.3119L292.761 68.3153L293.253 67.4448ZM290.748 67.0562L290.949 68.0358L290.96 68.0335L290.748 67.0562ZM272.625 74.6555L272.067 73.8254L272.067 73.8255L272.625 74.6555ZM272.549 74.7088L273.145 75.5123L273.145 75.5122L272.549 74.7088ZM272.505 74.7428L271.888 73.9561L271.887 73.9563L272.505 74.7428ZM259.495 89.7474L260.348 90.2691L260.355 90.2583L260.361 90.2473L259.495 89.7474ZM254.328 99.1028L254.644 100.051L255.034 99.9216L255.22 99.5556L254.328 99.1028ZM250.585 100.35L250.269 99.4016L250.267 99.4021L250.585 100.35ZM250.583 100.351L250.9 101.299L250.901 101.299L250.583 100.351ZM239.869 107.08L239.152 106.382L239.152 106.382L239.869 107.08ZM233.434 117.974L232.477 117.683L232.477 117.685L233.434 117.974ZM233.433 117.979L232.475 117.69L232.475 117.69L233.433 117.979ZM231.589 124.1L232.54 124.41L232.543 124.399L232.546 124.389L231.589 124.1ZM231.636 126.302L230.699 126.653L230.699 126.653L231.636 126.302ZM233.064 128.006L233.582 127.151L233.572 127.145L233.064 128.006ZM236.375 130.013L235.857 130.868L235.862 130.871L236.375 130.013ZM236.377 130.014L236.894 129.158L236.89 129.156L236.377 130.014ZM237.679 130.468L237.552 131.46L237.552 131.46L237.679 130.468ZM238.989 130.375L238.757 129.402L238.74 129.406L238.723 129.411L238.989 130.375ZM239.318 130.297L239.549 131.27L239.549 131.27L239.318 130.297ZM239.888 130.064L240.404 130.92L240.404 130.92L239.888 130.064ZM249.478 124.28L250.002 123.428L249.483 123.109L248.962 123.424L249.478 124.28ZM251.505 125.528L252.417 125.937L252.777 125.137L252.029 124.676L251.505 125.528ZM250.21 128.756L249.266 128.425L249.266 128.425L250.21 128.756ZM248.801 135V136H249.737L249.798 135.066L248.801 135ZM256.355 135L255.681 134.261L253.773 136H256.355V135ZM261.977 135V136H262.914L262.975 135.065L261.977 135ZM262.166 132.091L263.164 132.156L263.203 131.555L262.691 131.239L262.166 132.091ZM260.202 130.882L260.726 130.03L259.979 129.57L259.426 130.251L260.202 130.882ZM257.924 133.467L258.645 134.16L258.645 134.16L257.924 133.467ZM262.606 127.664L261.782 127.097L261.186 127.964L262.081 128.516L262.606 127.664ZM263.995 128.52L263.471 129.371L264.118 129.769L264.675 129.253L263.995 128.52ZM278.779 114.819L279.459 115.552L279.528 115.488L279.584 115.412L278.779 114.819ZM278.793 114.801L277.991 114.203L277.988 114.207L278.793 114.801ZM285.126 105.578L285.98 106.099L285.98 106.099L285.126 105.578ZM285.158 105.527L285.996 106.074L285.996 106.074L285.158 105.527ZM291.985 88.5935L292.967 88.7811L292.972 88.7572L292.975 88.7331L291.985 88.5935ZM291.097 71.0705L292.068 70.8314L291.836 69.8881L290.886 70.093L291.097 71.0705ZM274.917 77.9346L274.361 77.1036L274.329 77.1251L274.298 77.149L274.917 77.9346ZM262.947 91.7681L263.81 92.2741L263.813 92.2676L262.947 91.7681ZM262.933 91.7917L263.79 92.3084L263.796 92.2977L262.933 91.7917ZM262.921 91.8129L263.774 92.3348L263.777 92.3295L262.921 91.8129ZM257.612 101.473L256.719 101.023L256.677 101.106L256.651 101.195L257.612 101.473ZM251.947 121.102L250.986 120.825L250.775 121.556L251.422 121.954L251.947 121.102ZM253.3 121.936L252.776 122.787L253.67 123.338L254.176 122.418L253.3 121.936ZM254.311 120.179L255.168 120.694L255.168 120.694L254.311 120.179ZM260.091 112.404L260.822 113.087L260.822 113.087L260.091 112.404ZM266.842 107.219L266.432 106.307L266.432 106.307L266.842 107.219ZM268.703 107.337L268.182 108.19L268.182 108.19L268.703 107.337ZM269.658 108.939L268.66 108.991L268.66 108.991L269.658 108.939ZM268.094 117.277L269.032 117.623L269.032 117.623L268.094 117.277ZM263.748 125.931L264.594 126.466L264.594 126.466L263.748 125.931ZM255.946 125.5L255.051 125.052L255.032 125.092L255.015 125.132L255.946 125.5ZM255.796 125.801L254.94 125.284L254.918 125.321L254.899 125.36L255.796 125.801ZM257.739 122.239L256.882 121.724L256.882 121.724L257.739 122.239ZM263.014 115.135L263.744 115.818L263.744 115.818L263.014 115.135ZM265.224 113.014L266.197 113.248L266.909 110.278L264.578 112.251L265.224 113.014ZM264.339 115.897L263.401 115.552L263.401 115.552L264.339 115.897ZM260.367 123.795L259.521 123.261L259.521 123.261L260.367 123.795ZM255.039 130.697L254.318 130.004L254.318 130.004L255.039 130.697ZM253.283 132.38L252.314 132.134L251.522 135.246L253.941 133.133L253.283 132.38ZM253.984 130.081L253.04 129.75L253.04 129.75L253.984 130.081ZM276.699 135V136H277.301L277.583 135.468L276.699 135ZM278.125 131.702L277.179 131.378L277.179 131.378L278.125 131.702ZM265.985 135L264.988 134.935L264.918 136H265.985V135ZM266.184 131.944L265.505 131.211L265.212 131.482L265.187 131.879L266.184 131.944ZM278.973 120.093L279.963 119.948L279.688 118.067L278.294 119.359L278.973 120.093ZM279.104 120.986L280.094 120.843L280.094 120.841L279.104 120.986ZM279.105 120.99L278.115 121.132L278.115 121.136L279.105 120.99ZM251.851 104.145L251.535 103.196L251.534 103.196L251.851 104.145ZM252.766 103.84L253.726 104.117L254.254 102.29L252.449 102.891L252.766 103.84ZM242.735 109.869L243.452 110.567L243.452 110.567L242.735 109.869ZM237.262 119.135L236.305 118.844L236.304 118.847L237.262 119.135ZM237.261 119.138L238.219 119.426L238.219 119.426L237.261 119.138ZM235.546 124.833L234.588 124.544L234.365 125.286L235.027 125.688L235.546 124.833ZM238.174 126.426L237.656 127.281L238.173 127.595L238.691 127.282L238.174 126.426ZM247.948 120.531L248.465 121.388L248.8 121.185L248.909 120.809L247.948 120.531ZM284.713 81.438L285.241 80.5883L285.241 80.5883L284.713 81.438ZM277.35 80.2069L277.537 81.1891L277.555 81.1858L277.572 81.1819L277.35 80.2069ZM289.095 87.5336L288.121 87.7627L288.121 87.7629L289.095 87.5336ZM289.139 87.8009L288.144 87.8977L288.15 87.9587L288.163 88.0186L289.139 87.8009ZM289.257 91.369L290.245 91.5218L290.245 91.5218L289.257 91.369ZM287.906 95.0016L287.058 94.4716L287.054 94.4792L287.906 95.0016ZM287.906 95.0025L288.754 95.5329L288.758 95.5248L287.906 95.0025ZM281.896 99.3381L281.66 98.3663L281.641 98.371L281.622 98.3765L281.896 99.3381ZM277.998 99.6423L277.876 100.635L277.876 100.635L277.998 99.6423ZM274.245 98.3795L274.748 97.5153L274.748 97.5153L274.245 98.3795ZM271.294 95.7403L270.491 96.3364L270.491 96.3364L271.294 95.7403ZM269.622 92.1518L270.595 91.9204L270.595 91.9203L269.622 92.1518ZM269.499 88.1947L270.484 88.3653L270.484 88.3653L269.499 88.1947ZM273.727 81.692L274.283 82.5233L274.283 82.5233L273.727 81.692ZM285.192 88.4944L284.224 88.7434L284.224 88.7435L285.192 88.4944ZM285.142 88.2193L286.136 88.1078L286.127 88.028L286.105 87.9507L285.142 88.2193ZM285.304 90.7578L284.316 90.605L284.316 90.605L285.304 90.7578ZM284.514 92.8818L285.362 93.4123L285.362 93.4118L284.514 92.8818ZM280.924 95.4579L281.154 96.4309L281.155 96.4309L280.924 95.4579ZM280.827 95.4834L281.106 96.4436L281.107 96.4435L280.827 95.4834ZM278.485 95.6721L278.363 96.6646L278.363 96.6646L278.485 95.6721ZM273.513 91.226L272.541 91.4574L272.541 91.4574L273.513 91.226ZM273.44 88.8771L274.426 89.0478L274.426 89.0477L273.44 88.8771ZM274.299 86.6896L275.137 87.2347L275.137 87.2347L274.299 86.6896ZM278.126 84.1309L278.309 85.114L278.31 85.1139L278.126 84.1309ZM278.17 84.1223L277.965 83.1435L277.964 83.1436L278.17 84.1223ZM278.213 84.1127L278.44 85.0867L278.44 85.0867L278.213 84.1127ZM282.604 84.8366L282.077 85.6862L282.077 85.6862L282.604 84.8366ZM10 -1C3.92487 -1 -1 3.92487 -1 10H1C1 5.02944 5.02944 1 10 1V-1ZM291 -1H10V1H291V-1ZM302 10C302 3.92487 297.075 -1 291 -1V1C295.971 1 300 5.02944 300 10H302ZM302 125V10H300V125H302ZM291 136C297.075 136 302 131.075 302 125H300C300 129.971 295.971 134 291 134V136ZM281.134 136H291V134H281.134V136ZM280.964 132.672C280.74 133.326 280.491 133.97 280.217 134.602L282.051 135.398C282.347 134.717 282.615 134.024 282.856 133.319L280.964 132.672ZM282.073 120.553C282.675 124.623 282.294 128.778 280.964 132.672L282.856 133.319C284.29 129.123 284.7 124.646 284.051 120.26L282.073 120.553ZM282.072 120.549L282.072 120.552L284.051 120.262L284.051 120.259L282.072 120.549ZM281.505 116.67L282.072 120.549L284.051 120.259L283.484 116.38L281.505 116.67ZM287.672 107.166C286.032 109.851 284.026 112.771 281.69 115.931L283.299 117.119C285.656 113.93 287.699 110.959 289.379 108.208L287.672 107.166ZM294.941 89.1075C293.721 95.5338 291.257 101.66 287.688 107.141L289.364 108.233C293.075 102.533 295.637 96.1629 296.906 89.4807L294.941 89.1075ZM294.949 89.0617C294.947 89.0767 294.944 89.092 294.941 89.1075L296.906 89.4808C296.915 89.4352 296.922 89.3892 296.929 89.3426L294.949 89.0617ZM293.864 69.7763C295.494 76.0701 295.863 82.6245 294.949 89.0616L296.929 89.3428C297.88 82.6444 297.497 75.8241 295.8 69.2747L293.864 69.7763ZM293.462 68.9284C293.651 69.1773 293.786 69.462 293.861 69.765L295.803 69.2861C295.663 68.7192 295.409 68.1867 295.057 67.721L293.462 68.9284ZM292.761 68.3153C293.034 68.4696 293.273 68.6783 293.462 68.9284L295.057 67.721C294.702 67.2532 294.256 66.863 293.746 66.5743L292.761 68.3153ZM290.96 68.0335C291.572 67.9006 292.212 67.9998 292.755 68.3118L293.752 66.5778C292.779 66.0186 291.633 65.8409 290.536 66.079L290.96 68.0335ZM273.183 75.4856C278.564 71.8705 284.599 69.34 290.949 68.0358L290.547 66.0767C283.942 67.4332 277.665 70.0653 272.067 73.8254L273.183 75.4856ZM273.145 75.5122C273.157 75.503 273.17 75.4941 273.183 75.4855L272.067 73.8255C272.029 73.8513 271.991 73.8779 271.954 73.9053L273.145 75.5122ZM273.122 75.5294C273.13 75.5235 273.137 75.5178 273.145 75.5123L271.954 73.9052C271.932 73.9219 271.909 73.9389 271.888 73.9561L273.122 75.5294ZM260.361 90.2473C263.637 84.5723 267.969 79.5765 273.123 75.5292L271.887 73.9563C266.533 78.1611 262.033 83.3515 258.629 89.2474L260.361 90.2473ZM255.22 99.5556C257.014 96.0229 258.723 92.9265 260.348 90.2691L258.642 89.2257C256.983 91.9384 255.248 95.0826 253.436 98.65L255.22 99.5556ZM250.901 101.299L254.644 100.051L254.012 98.1541L250.269 99.4016L250.901 101.299ZM250.901 101.299L250.903 101.299L250.267 99.4021L250.266 99.4026L250.901 101.299ZM240.585 107.777C243.457 104.826 246.994 102.604 250.9 101.299L250.266 99.4024C246.058 100.809 242.247 103.202 239.152 106.382L240.585 107.777ZM234.391 118.265C235.589 114.325 237.713 110.729 240.585 107.777L239.152 106.382C236.057 109.563 233.769 113.437 232.477 117.683L234.391 118.265ZM234.39 118.268L234.391 118.263L232.477 117.685L232.475 117.69L234.39 118.268ZM232.546 124.389L234.39 118.267L232.475 117.69L230.631 123.812L232.546 124.389ZM232.573 125.952C232.387 125.456 232.376 124.913 232.54 124.41L230.638 123.79C230.334 124.723 230.355 125.733 230.699 126.653L232.573 125.952ZM233.572 127.145C233.113 126.873 232.76 126.452 232.573 125.952L230.699 126.653C231.047 127.582 231.702 128.363 232.555 128.867L233.572 127.145ZM236.893 129.157L233.582 127.151L232.546 128.861L235.857 130.868L236.893 129.157ZM236.89 129.156L236.888 129.155L235.862 130.871L235.863 130.872L236.89 129.156ZM237.806 129.476C237.483 129.435 237.173 129.326 236.894 129.158L235.859 130.869C236.376 131.182 236.953 131.383 237.552 131.46L237.806 129.476ZM238.723 129.411C238.425 129.493 238.113 129.515 237.806 129.476L237.552 131.46C238.122 131.533 238.701 131.492 239.254 131.339L238.723 129.411ZM239.086 129.324L238.757 129.402L239.22 131.348L239.549 131.27L239.086 129.324ZM239.371 129.207C239.283 129.261 239.187 129.3 239.086 129.324L239.549 131.27C239.851 131.198 240.139 131.08 240.404 130.92L239.371 129.207ZM248.962 123.424L239.371 129.207L240.404 130.92L249.994 125.136L248.962 123.424ZM252.029 124.676L250.002 123.428L248.954 125.131L250.981 126.379L252.029 124.676ZM251.153 129.088C251.514 128.059 251.939 127.003 252.417 125.937L250.593 125.118C250.093 126.231 249.647 127.339 249.266 128.425L251.153 129.088ZM249.798 135.066C249.919 133.247 250.414 131.194 251.153 129.088L249.266 128.425C248.491 130.635 247.939 132.874 247.803 134.934L249.798 135.066ZM10 136H248.801V134H10V136ZM-1 125C-1 131.075 3.92488 136 10 136V134C5.02944 134 1 129.971 1 125H-1ZM-1 10V125H1V10H-1ZM256.355 136H261.977V134H256.355V136ZM262.975 135.065L263.164 132.156L261.169 132.026L260.979 134.935L262.975 135.065ZM262.691 131.239L260.726 130.03L259.678 131.733L261.642 132.943L262.691 131.239ZM259.426 130.251C258.696 131.149 257.951 131.995 257.203 132.775L258.645 134.16C259.435 133.337 260.216 132.449 260.978 131.512L259.426 130.251ZM257.203 132.775C256.702 133.296 256.194 133.794 255.681 134.261L257.028 135.739C257.577 135.24 258.117 134.71 258.645 134.16L257.203 132.775ZM262.081 128.516L263.471 129.371L264.519 127.668L263.13 126.813L262.081 128.516ZM264.675 129.253L279.459 115.552L278.1 114.086L263.316 127.786L264.675 129.253ZM279.584 115.412L279.598 115.394L277.988 114.207L277.974 114.226L279.584 115.412ZM279.594 115.399C282.126 112.004 284.266 108.909 285.98 106.099L284.273 105.057C282.601 107.797 280.5 110.839 277.991 114.203L279.594 115.399ZM285.98 106.099C285.986 106.09 285.991 106.082 285.996 106.074L284.321 104.981C284.304 105.007 284.288 105.032 284.273 105.057L285.98 106.099ZM285.996 106.074C289.423 100.818 291.791 94.9437 292.967 88.7811L291.003 88.4059C289.875 94.313 287.605 99.9434 284.321 104.981L285.996 106.074ZM292.975 88.7331C293.818 82.761 293.509 76.6845 292.068 70.8314L290.126 71.3096C291.506 76.915 291.802 82.7344 290.995 88.4539L292.975 88.7331ZM290.886 70.093C284.986 71.3661 279.378 73.7444 274.361 77.1036L275.473 78.7655C280.281 75.5467 285.654 73.2679 291.308 72.048L290.886 70.093ZM274.298 77.149C269.365 81.0355 265.218 85.8276 262.081 91.2686L263.813 92.2676C266.824 87.0471 270.802 82.4491 275.536 78.7201L274.298 77.149ZM262.085 91.2621L262.071 91.2858L263.796 92.2977L263.81 92.274L262.085 91.2621ZM262.077 91.2751L262.064 91.2962L263.777 92.3295L263.789 92.3083L262.077 91.2751ZM262.068 91.2909C260.388 94.0367 258.605 97.2796 256.719 101.023L258.505 101.923C260.373 98.215 262.129 95.0223 263.773 92.3348L262.068 91.2909ZM256.651 101.195L250.986 120.825L252.908 121.38L258.573 101.75L256.651 101.195ZM251.422 121.954L252.776 122.787L253.824 121.084L252.471 120.251L251.422 121.954ZM254.176 122.418C254.495 121.839 254.826 121.263 255.168 120.694L253.454 119.663C253.099 120.254 252.755 120.852 252.424 121.454L254.176 122.418ZM255.168 120.694C256.83 117.928 258.77 115.282 260.822 113.087L259.361 111.721C257.198 114.036 255.176 116.799 253.454 119.663L255.168 120.694ZM260.822 113.087C262.864 110.901 265.063 109.114 267.251 108.131L266.432 106.307C263.907 107.441 261.497 109.435 259.361 111.721L260.822 113.087ZM267.251 108.131C267.552 107.996 267.901 108.018 268.182 108.19L269.224 106.483C268.38 105.967 267.335 105.902 266.432 106.307L267.251 108.131ZM268.182 108.19C268.464 108.362 268.642 108.662 268.66 108.991L270.657 108.887C270.605 107.898 270.069 106.999 269.224 106.483L268.182 108.19ZM268.66 108.991C268.785 111.374 268.185 114.132 267.155 116.932L269.032 117.623C270.109 114.693 270.802 111.647 270.657 108.887L268.66 108.991ZM267.155 116.932C266.121 119.746 264.628 122.667 262.903 125.397L264.594 126.466C266.38 123.638 267.941 120.591 269.032 117.623L267.155 116.932ZM262.903 125.397C262.54 125.972 262.165 126.54 261.782 127.097L263.43 128.231C263.828 127.652 264.217 127.062 264.594 126.466L262.903 125.397ZM255.015 125.132C254.995 125.183 254.97 125.234 254.94 125.284L256.652 126.318C256.74 126.173 256.815 126.022 256.876 125.867L255.015 125.132ZM256.882 121.724C256.222 122.822 255.608 123.939 255.051 125.052L256.84 125.947C257.373 124.881 257.962 123.809 258.596 122.754L256.882 121.724ZM262.283 114.452C260.343 116.528 258.485 119.057 256.882 121.724L258.596 122.754C260.14 120.187 261.916 117.774 263.744 115.818L262.283 114.452ZM264.578 112.251C263.818 112.895 263.05 113.632 262.283 114.452L263.744 115.818C264.465 115.047 265.177 114.364 265.87 113.778L264.578 112.251ZM265.278 116.242C265.66 115.203 265.968 114.201 266.197 113.248L264.252 112.781C264.044 113.648 263.759 114.576 263.401 115.552L265.278 116.242ZM261.212 124.329C262.876 121.696 264.3 118.901 265.278 116.242L263.401 115.552C262.48 118.056 261.124 120.724 259.521 123.261L261.212 124.329ZM255.76 131.39C257.658 129.413 259.548 126.962 261.212 124.329L259.521 123.261C257.919 125.796 256.11 128.138 254.318 130.004L255.76 131.39ZM253.941 133.133C254.534 132.615 255.143 132.032 255.76 131.39L254.318 130.004C253.737 130.609 253.17 131.151 252.625 131.627L253.941 133.133ZM253.04 129.75C252.749 130.581 252.506 131.378 252.314 132.134L254.252 132.627C254.428 131.935 254.653 131.194 254.928 130.412L253.04 129.75ZM254.899 125.36C254.168 126.848 253.539 128.33 253.04 129.75L254.928 130.412C255.397 129.076 255.993 127.668 256.694 126.242L254.899 125.36ZM277.583 135.468C278.167 134.365 278.665 133.214 279.071 132.025L277.179 131.378C276.807 132.467 276.35 133.521 275.815 134.532L277.583 135.468ZM265.985 136H276.699V134H265.985V136ZM265.187 131.879L264.988 134.935L266.983 135.065L267.182 132.009L265.187 131.879ZM278.294 119.359L265.505 131.211L266.864 132.678L279.653 120.826L278.294 119.359ZM280.094 120.841L279.963 119.948L277.984 120.237L278.115 121.131L280.094 120.841ZM280.094 120.847L280.094 120.843L278.114 121.129L278.115 121.132L280.094 120.847ZM279.071 132.025C280.299 128.433 280.65 124.599 280.094 120.843L278.115 121.136C278.624 124.576 278.303 128.088 277.179 131.378L279.071 132.025ZM252.167 105.093L253.082 104.789L252.449 102.891L251.535 103.196L252.167 105.093ZM243.452 110.567C245.879 108.073 248.867 106.196 252.168 105.093L251.534 103.196C247.931 104.4 244.668 106.449 242.019 109.172L243.452 110.567ZM238.219 119.426C239.231 116.098 241.026 113.06 243.452 110.567L242.019 109.172C239.37 111.894 237.411 115.21 236.305 118.844L238.219 119.426ZM238.219 119.426L238.219 119.423L236.304 118.847L236.304 118.849L238.219 119.426ZM236.503 125.121L238.219 119.426L236.304 118.849L234.588 124.544L236.503 125.121ZM238.693 125.571L236.064 123.978L235.027 125.688L237.656 127.281L238.693 125.571ZM247.432 119.675L237.658 125.57L238.691 127.282L248.465 121.388L247.432 119.675ZM251.805 103.563L246.988 120.254L248.909 120.809L253.726 104.117L251.805 103.563ZM285.241 80.5883C282.82 79.0856 279.904 78.5987 277.127 79.2319L277.572 81.1819C279.836 80.6657 282.212 81.0626 284.186 82.2876L285.241 80.5883ZM290.068 87.3046C289.412 84.515 287.676 82.0996 285.241 80.5883L284.186 82.2876C286.171 83.5196 287.586 85.4886 288.121 87.7627L290.068 87.3046ZM290.134 87.7041C290.121 87.5711 290.1 87.4376 290.068 87.3043L288.121 87.7629C288.132 87.8082 288.139 87.8532 288.144 87.8977L290.134 87.7041ZM290.245 91.5218C290.448 90.2113 290.403 88.8756 290.115 87.5833L288.163 88.0186C288.397 89.0677 288.433 90.1522 288.269 91.2162L290.245 91.5218ZM288.754 95.5316C289.518 94.3098 290.025 92.9456 290.245 91.5218L288.269 91.2161C288.09 92.3721 287.678 93.4797 287.058 94.4717L288.754 95.5316ZM288.758 95.5248L288.759 95.524L287.054 94.4792L287.053 94.4801L288.758 95.5248ZM282.132 100.31C284.877 99.6433 287.254 97.9292 288.753 95.5328L287.058 94.4721C285.836 96.4256 283.898 97.8229 281.66 98.3663L282.132 100.31ZM277.876 100.635C279.315 100.812 280.776 100.698 282.17 100.3L281.622 98.3765C280.484 98.7008 279.294 98.7938 278.119 98.6497L277.876 100.635ZM273.742 99.2437C275.012 99.9826 276.418 100.456 277.876 100.635L278.119 98.6497C276.931 98.5038 275.784 98.1178 274.748 97.5153L273.742 99.2437ZM270.491 96.3364C271.367 97.5157 272.473 98.5048 273.742 99.2437L274.748 97.5153C273.713 96.9127 272.811 96.106 272.097 95.1442L270.491 96.3364ZM268.649 92.3833C268.989 93.8122 269.616 95.1571 270.491 96.3364L272.097 95.1442C271.383 94.1825 270.872 93.0857 270.595 91.9204L268.649 92.3833ZM268.514 88.0241C268.263 89.4713 268.309 90.9544 268.649 92.3833L270.595 91.9203C270.318 90.755 270.28 89.5456 270.484 88.3653L268.514 88.0241ZM270.107 83.9642C269.306 85.1956 268.764 86.5768 268.514 88.0241L270.484 88.3653C270.689 87.185 271.131 86.0586 271.784 85.0544L270.107 83.9642ZM273.171 80.8606C271.95 81.6769 270.908 82.7328 270.107 83.9642L271.784 85.0544C272.437 84.0501 273.287 83.189 274.283 82.5233L273.171 80.8606ZM277.162 79.2247C275.736 79.4971 274.379 80.0534 273.171 80.8606L274.283 82.5233C275.267 81.865 276.374 81.4113 277.537 81.1891L277.162 79.2247ZM286.161 88.2453C286.149 88.1998 286.141 88.1539 286.136 88.1078L284.148 88.3308C284.164 88.4692 284.189 88.6071 284.224 88.7434L286.161 88.2453ZM286.292 90.9105C286.429 90.0224 286.385 89.1156 286.161 88.2452L284.224 88.7435C284.38 89.3513 284.412 89.9846 284.316 90.605L286.292 90.9105ZM285.362 93.4118C285.838 92.6497 286.155 91.7987 286.292 90.9105L284.316 90.605C284.22 91.2252 283.999 91.8196 283.666 92.3519L285.362 93.4118ZM281.155 96.4309C282.899 96.0167 284.411 94.9323 285.362 93.4123L283.666 92.3513C282.994 93.4257 281.926 94.1922 280.693 94.485L281.155 96.4309ZM281.107 96.4435C281.122 96.439 281.138 96.4348 281.154 96.4309L280.693 94.485C280.644 94.4965 280.596 94.5092 280.548 94.5232L281.107 96.4435ZM278.363 96.6646C279.283 96.7775 280.216 96.7023 281.106 96.4436L280.548 94.5231C279.918 94.7062 279.258 94.7594 278.607 94.6795L278.363 96.6646ZM275.755 95.7868C276.556 96.2531 277.443 96.5517 278.363 96.6646L278.607 94.6795C277.956 94.5996 277.328 94.3883 276.761 94.0583L275.755 95.7868ZM273.703 93.9521C274.256 94.6963 274.954 95.3205 275.755 95.7868L276.761 94.0583C276.194 93.7283 275.7 93.2866 275.309 92.7599L273.703 93.9521ZM272.541 91.4574C272.755 92.3591 273.151 93.2079 273.703 93.9521L275.309 92.7599C274.918 92.2332 274.638 91.6326 274.486 90.9945L272.541 91.4574ZM272.455 88.7065C272.297 89.6198 272.326 90.5557 272.541 91.4574L274.486 90.9945C274.334 90.3564 274.314 89.6941 274.426 89.0478L272.455 88.7065ZM273.46 86.1445C272.955 86.9216 272.613 87.7933 272.455 88.7065L274.426 89.0477C274.538 88.4014 274.78 87.7846 275.137 87.2347L273.46 86.1445ZM275.394 84.186C274.624 84.7011 273.966 85.3674 273.46 86.1445L275.137 87.2347C275.495 86.6848 275.96 86.2132 276.506 85.8487L275.394 84.186ZM277.943 83.1479C277.032 83.3177 276.165 83.6709 275.394 84.186L276.506 85.8487C277.051 85.4841 277.665 85.2342 278.309 85.114L277.943 83.1479ZM277.964 83.1436C277.958 83.1451 277.95 83.1465 277.943 83.148L278.31 85.1139C278.331 85.1099 278.353 85.1056 278.376 85.1009L277.964 83.1436ZM277.987 83.1387C277.98 83.1404 277.972 83.142 277.965 83.1435L278.375 85.1011C278.397 85.0965 278.418 85.0917 278.44 85.0867L277.987 83.1387ZM283.131 83.9869C281.596 83.0342 279.746 82.7292 277.987 83.1388L278.44 85.0867C279.684 84.7972 280.992 85.0128 282.077 85.6862L283.131 83.9869ZM286.105 87.9507C285.647 86.3067 284.587 84.8905 283.131 83.9869L282.077 85.6862C283.106 86.3249 283.855 87.326 284.179 88.488L286.105 87.9507Z" fill="#7B7B7B" mask="url(#path-1-inside-1_327_464)"/>
</g>
<path d="M23.117 30.538C23.2703 31.412 23.623 32.0867 24.175 32.562C24.7423 33.0373 25.5013 33.275 26.452 33.275C27.7247 33.275 28.66 32.7767 29.258 31.78C29.8713 30.7833 30.1627 29.1043 30.132 26.743C29.81 27.433 29.2733 27.9773 28.522 28.376C27.7707 28.7593 26.935 28.951 26.015 28.951C24.9877 28.951 24.0677 28.744 23.255 28.33C22.4577 27.9007 21.829 27.2797 21.369 26.467C20.909 25.6543 20.679 24.673 20.679 23.523C20.679 21.8823 21.1543 20.5637 22.105 19.567C23.0557 18.555 24.405 18.049 26.153 18.049C28.2997 18.049 29.8023 18.7467 30.661 20.142C31.535 21.5373 31.972 23.615 31.972 26.375C31.972 28.307 31.7957 29.9017 31.443 31.159C31.1057 32.4163 30.523 33.3747 29.695 34.034C28.8823 34.6933 27.763 35.023 26.337 35.023C24.773 35.023 23.554 34.6013 22.68 33.758C21.806 32.9147 21.3077 31.8413 21.185 30.538H23.117ZM26.36 27.18C27.3873 27.18 28.2307 26.8657 28.89 26.237C29.5493 25.593 29.879 24.7267 29.879 23.638C29.879 22.488 29.557 21.5603 28.913 20.855C28.269 20.1497 27.3643 19.797 26.199 19.797C25.1257 19.797 24.267 20.1343 23.623 20.809C22.9943 21.4837 22.68 22.373 22.68 23.477C22.68 24.5963 22.9943 25.4933 23.623 26.168C24.2517 26.8427 25.164 27.18 26.36 27.18ZM34.9133 26.513C34.9133 23.8757 35.3426 21.821 36.2013 20.349C37.06 18.8617 38.5626 18.118 40.7093 18.118C42.8406 18.118 44.3356 18.8617 45.1943 20.349C46.053 21.821 46.4823 23.8757 46.4823 26.513C46.4823 29.1963 46.053 31.2817 45.1943 32.769C44.3356 34.2563 42.8406 35 40.7093 35C38.5626 35 37.06 34.2563 36.2013 32.769C35.3426 31.2817 34.9133 29.1963 34.9133 26.513ZM44.4123 26.513C44.4123 25.179 44.3203 24.052 44.1363 23.132C43.9676 22.1967 43.6073 21.4453 43.0553 20.878C42.5186 20.3107 41.7366 20.027 40.7093 20.027C39.6666 20.027 38.8693 20.3107 38.3173 20.878C37.7806 21.4453 37.4203 22.1967 37.2363 23.132C37.0676 24.052 36.9833 25.179 36.9833 26.513C36.9833 27.893 37.0676 29.0507 37.2363 29.986C37.4203 30.9213 37.7806 31.6727 38.3173 32.24C38.8693 32.8073 39.6666 33.091 40.7093 33.091C41.7366 33.091 42.5186 32.8073 43.0553 32.24C43.6073 31.6727 43.9676 30.9213 44.1363 29.986C44.3203 29.0507 44.4123 27.893 44.4123 26.513ZM48.8957 22.12C48.8957 21.0773 49.21 20.2493 49.8387 19.636C50.4674 19.0073 51.2724 18.693 52.2537 18.693C53.235 18.693 54.04 19.0073 54.6687 19.636C55.2974 20.2493 55.6117 21.0773 55.6117 22.12C55.6117 23.178 55.2974 24.0213 54.6687 24.65C54.04 25.2633 53.235 25.57 52.2537 25.57C51.2724 25.57 50.4674 25.2633 49.8387 24.65C49.21 24.0213 48.8957 23.178 48.8957 22.12ZM62.3277 18.946L53.0127 35H50.9427L60.2577 18.946H62.3277ZM52.2537 19.981C51.7324 19.981 51.3184 20.165 51.0117 20.533C50.7204 20.8857 50.5747 21.4147 50.5747 22.12C50.5747 22.8253 50.7204 23.362 51.0117 23.73C51.3184 24.098 51.7324 24.282 52.2537 24.282C52.775 24.282 53.189 24.098 53.4957 23.73C53.8024 23.3467 53.9557 22.81 53.9557 22.12C53.9557 21.4147 53.8024 20.8857 53.4957 20.533C53.189 20.165 52.775 19.981 52.2537 19.981ZM57.7047 31.826C57.7047 30.768 58.019 29.9323 58.6477 29.319C59.2764 28.6903 60.0814 28.376 61.0627 28.376C62.044 28.376 62.8414 28.6903 63.4547 29.319C64.0834 29.9323 64.3977 30.768 64.3977 31.826C64.3977 32.8687 64.0834 33.7043 63.4547 34.333C62.8414 34.9617 62.044 35.276 61.0627 35.276C60.0814 35.276 59.2764 34.9693 58.6477 34.356C58.019 33.7273 57.7047 32.884 57.7047 31.826ZM61.0397 29.687C60.5184 29.687 60.1044 29.871 59.7977 30.239C59.491 30.5917 59.3377 31.1207 59.3377 31.826C59.3377 32.516 59.491 33.045 59.7977 33.413C60.1044 33.7657 60.5184 33.942 61.0397 33.942C61.561 33.942 61.975 33.7657 62.2817 33.413C62.5884 33.045 62.7417 32.516 62.7417 31.826C62.7417 31.1207 62.5884 30.5917 62.2817 30.239C61.975 29.871 61.561 29.687 61.0397 29.687Z" fill="white"/>
<path d="M25.357 56.985H21.405L20.677 59H19.429L22.705 49.991H24.07L27.333 59H26.085L25.357 56.985ZM25.019 56.023L23.381 51.447L21.743 56.023H25.019ZM29.9438 49.939V59H28.7608V49.939H29.9438ZM36.9 53.735V54.736H31.713V53.735H36.9ZM41.9411 49.939C42.9291 49.939 43.7828 50.1253 44.5021 50.498C45.2301 50.862 45.7848 51.3863 46.1661 52.071C46.5561 52.7557 46.7511 53.5617 46.7511 54.489C46.7511 55.4163 46.5561 56.2223 46.1661 56.907C45.7848 57.583 45.2301 58.103 44.5021 58.467C43.7828 58.8223 42.9291 59 41.9411 59H39.1201V49.939H41.9411ZM41.9411 58.025C43.1111 58.025 44.0038 57.7173 44.6191 57.102C45.2345 56.478 45.5421 55.607 45.5421 54.489C45.5421 53.3623 45.2301 52.4827 44.6061 51.85C43.9908 51.2173 43.1025 50.901 41.9411 50.901H40.3031V58.025H41.9411ZM49.4945 53.033C49.7025 52.6257 49.9972 52.3093 50.3785 52.084C50.7685 51.8587 51.2409 51.746 51.7955 51.746V52.968H51.4835C50.1575 52.968 49.4945 53.6873 49.4945 55.126V59H48.3115V51.876H49.4945V53.033ZM53.7722 50.719C53.5468 50.719 53.3562 50.641 53.2002 50.485C53.0442 50.329 52.9662 50.1383 52.9662 49.913C52.9662 49.6877 53.0442 49.497 53.2002 49.341C53.3562 49.185 53.5468 49.107 53.7722 49.107C53.9888 49.107 54.1708 49.185 54.3182 49.341C54.4742 49.497 54.5522 49.6877 54.5522 49.913C54.5522 50.1383 54.4742 50.329 54.3182 50.485C54.1708 50.641 53.9888 50.719 53.7722 50.719ZM54.3442 51.876V59H53.1612V51.876H54.3442ZM59.0124 57.908L61.2224 51.876H62.4834L59.6884 59H58.3104L55.5154 51.876H56.7894L59.0124 57.908ZM70.1475 55.165C70.1475 55.3903 70.1345 55.6287 70.1085 55.88H64.4145C64.4578 56.582 64.6962 57.1323 65.1295 57.531C65.5715 57.921 66.1045 58.116 66.7285 58.116C67.2398 58.116 67.6645 57.999 68.0025 57.765C68.3492 57.5223 68.5918 57.2017 68.7305 56.803H70.0045C69.8138 57.4877 69.4325 58.0467 68.8605 58.48C68.2885 58.9047 67.5778 59.117 66.7285 59.117C66.0525 59.117 65.4458 58.9653 64.9085 58.662C64.3798 58.3587 63.9638 57.9297 63.6605 57.375C63.3572 56.8117 63.2055 56.1617 63.2055 55.425C63.2055 54.6883 63.3528 54.0427 63.6475 53.488C63.9422 52.9333 64.3538 52.5087 64.8825 52.214C65.4198 51.9107 66.0352 51.759 66.7285 51.759C67.4045 51.759 68.0025 51.9063 68.5225 52.201C69.0425 52.4957 69.4412 52.903 69.7185 53.423C70.0045 53.9343 70.1475 54.515 70.1475 55.165ZM68.9255 54.918C68.9255 54.4673 68.8258 54.0817 68.6265 53.761C68.4272 53.4317 68.1542 53.1847 67.8075 53.02C67.4695 52.8467 67.0925 52.76 66.6765 52.76C66.0785 52.76 65.5672 52.9507 65.1425 53.332C64.7265 53.7133 64.4882 54.242 64.4275 54.918H68.9255ZM75.18 51.746C76.0467 51.746 76.7487 52.0103 77.286 52.539C77.8233 53.059 78.092 53.813 78.092 54.801V59H76.922V54.97C76.922 54.2593 76.7443 53.7177 76.389 53.345C76.0337 52.9637 75.5483 52.773 74.933 52.773C74.309 52.773 73.8107 52.968 73.438 53.358C73.074 53.748 72.892 54.3157 72.892 55.061V59H71.709V51.876H72.892V52.89C73.126 52.526 73.4423 52.2443 73.841 52.045C74.2483 51.8457 74.6947 51.746 75.18 51.746ZM84.6733 50.901V53.93H87.9753V54.905H84.6733V58.025H88.3653V59H83.4903V49.926H88.3653V50.901H84.6733ZM93.0543 52.851H91.5593V59H90.3763V52.851H89.4533V51.876H90.3763V51.369C90.3763 50.5717 90.58 49.991 90.9873 49.627C91.4033 49.2543 92.0663 49.068 92.9763 49.068V50.056C92.4563 50.056 92.088 50.16 91.8713 50.368C91.6633 50.5673 91.5593 50.901 91.5593 51.369V51.876H93.0543V52.851ZM97.3326 52.851H95.8376V59H94.6546V52.851H93.7316V51.876H94.6546V51.369C94.6546 50.5717 94.8583 49.991 95.2656 49.627C95.6816 49.2543 96.3446 49.068 97.2546 49.068V50.056C96.7346 50.056 96.3663 50.16 96.1496 50.368C95.9416 50.5673 95.8376 50.901 95.8376 51.369V51.876H97.3326V52.851ZM99.3229 50.719C99.0976 50.719 98.9069 50.641 98.7509 50.485C98.5949 50.329 98.5169 50.1383 98.5169 49.913C98.5169 49.6877 98.5949 49.497 98.7509 49.341C98.9069 49.185 99.0976 49.107 99.3229 49.107C99.5396 49.107 99.7216 49.185 99.8689 49.341C100.025 49.497 100.103 49.6877 100.103 49.913C100.103 50.1383 100.025 50.329 99.8689 50.485C99.7216 50.641 99.5396 50.719 99.3229 50.719ZM99.8949 51.876V59H98.7119V51.876H99.8949ZM101.469 55.425C101.469 54.6883 101.616 54.047 101.911 53.501C102.206 52.9463 102.613 52.5173 103.133 52.214C103.662 51.9107 104.264 51.759 104.94 51.759C105.815 51.759 106.535 51.9713 107.098 52.396C107.67 52.8207 108.047 53.41 108.229 54.164H106.955C106.834 53.7307 106.595 53.3883 106.24 53.137C105.893 52.8857 105.46 52.76 104.94 52.76C104.264 52.76 103.718 52.994 103.302 53.462C102.886 53.9213 102.678 54.5757 102.678 55.425C102.678 56.283 102.886 56.946 103.302 57.414C103.718 57.882 104.264 58.116 104.94 58.116C105.46 58.116 105.893 57.9947 106.24 57.752C106.587 57.5093 106.825 57.1627 106.955 56.712H108.229C108.038 57.44 107.657 58.025 107.085 58.467C106.513 58.9003 105.798 59.117 104.94 59.117C104.264 59.117 103.662 58.9653 103.133 58.662C102.613 58.3587 102.206 57.9297 101.911 57.375C101.616 56.8203 101.469 56.1703 101.469 55.425ZM110.419 50.719C110.193 50.719 110.003 50.641 109.847 50.485C109.691 50.329 109.613 50.1383 109.613 49.913C109.613 49.6877 109.691 49.497 109.847 49.341C110.003 49.185 110.193 49.107 110.419 49.107C110.635 49.107 110.817 49.185 110.965 49.341C111.121 49.497 111.199 49.6877 111.199 49.913C111.199 50.1383 111.121 50.329 110.965 50.485C110.817 50.641 110.635 50.719 110.419 50.719ZM110.991 51.876V59H109.808V51.876H110.991ZM119.507 55.165C119.507 55.3903 119.494 55.6287 119.468 55.88H113.774C113.817 56.582 114.056 57.1323 114.489 57.531C114.931 57.921 115.464 58.116 116.088 58.116C116.599 58.116 117.024 57.999 117.362 57.765C117.709 57.5223 117.951 57.2017 118.09 56.803H119.364C119.173 57.4877 118.792 58.0467 118.22 58.48C117.648 58.9047 116.937 59.117 116.088 59.117C115.412 59.117 114.805 58.9653 114.268 58.662C113.739 58.3587 113.323 57.9297 113.02 57.375C112.717 56.8117 112.565 56.1617 112.565 55.425C112.565 54.6883 112.712 54.0427 113.007 53.488C113.302 52.9333 113.713 52.5087 114.242 52.214C114.779 51.9107 115.395 51.759 116.088 51.759C116.764 51.759 117.362 51.9063 117.882 52.201C118.402 52.4957 118.801 52.903 119.078 53.423C119.364 53.9343 119.507 54.515 119.507 55.165ZM118.285 54.918C118.285 54.4673 118.185 54.0817 117.986 53.761C117.787 53.4317 117.514 53.1847 117.167 53.02C116.829 52.8467 116.452 52.76 116.036 52.76C115.438 52.76 114.927 52.9507 114.502 53.332C114.086 53.7133 113.848 54.242 113.787 54.918H118.285ZM124.539 51.746C125.406 51.746 126.108 52.0103 126.645 52.539C127.183 53.059 127.451 53.813 127.451 54.801V59H126.281V54.97C126.281 54.2593 126.104 53.7177 125.748 53.345C125.393 52.9637 124.908 52.773 124.292 52.773C123.668 52.773 123.17 52.968 122.797 53.358C122.433 53.748 122.251 54.3157 122.251 55.061V59H121.068V51.876H122.251V52.89C122.485 52.526 122.802 52.2443 123.2 52.045C123.608 51.8457 124.054 51.746 124.539 51.746ZM128.942 55.425C128.942 54.6883 129.089 54.047 129.384 53.501C129.678 52.9463 130.086 52.5173 130.606 52.214C131.134 51.9107 131.737 51.759 132.413 51.759C133.288 51.759 134.007 51.9713 134.571 52.396C135.143 52.8207 135.52 53.41 135.702 54.164H134.428C134.306 53.7307 134.068 53.3883 133.713 53.137C133.366 52.8857 132.933 52.76 132.413 52.76C131.737 52.76 131.191 52.994 130.775 53.462C130.359 53.9213 130.151 54.5757 130.151 55.425C130.151 56.283 130.359 56.946 130.775 57.414C131.191 57.882 131.737 58.116 132.413 58.116C132.933 58.116 133.366 57.9947 133.713 57.752C134.059 57.5093 134.298 57.1627 134.428 56.712H135.702C135.511 57.44 135.13 58.025 134.558 58.467C133.986 58.9003 133.271 59.117 132.413 59.117C131.737 59.117 131.134 58.9653 130.606 58.662C130.086 58.3587 129.678 57.9297 129.384 57.375C129.089 56.8203 128.942 56.1703 128.942 55.425ZM143.416 51.876L139.126 62.354H137.904L139.308 58.922L136.435 51.876H137.748L139.984 57.648L142.194 51.876H143.416ZM151.178 59.117C150.511 59.117 149.904 58.9653 149.358 58.662C148.821 58.3587 148.396 57.9297 148.084 57.375C147.781 56.8117 147.629 56.1617 147.629 55.425C147.629 54.697 147.785 54.0557 148.097 53.501C148.418 52.9377 148.851 52.5087 149.397 52.214C149.943 51.9107 150.554 51.759 151.23 51.759C151.906 51.759 152.517 51.9107 153.063 52.214C153.609 52.5087 154.038 52.9333 154.35 53.488C154.671 54.0427 154.831 54.6883 154.831 55.425C154.831 56.1617 154.667 56.8117 154.337 57.375C154.017 57.9297 153.579 58.3587 153.024 58.662C152.47 58.9653 151.854 59.117 151.178 59.117ZM151.178 58.077C151.603 58.077 152.002 57.9773 152.374 57.778C152.747 57.5787 153.046 57.2797 153.271 56.881C153.505 56.4823 153.622 55.997 153.622 55.425C153.622 54.853 153.51 54.3677 153.284 53.969C153.059 53.5703 152.764 53.2757 152.4 53.085C152.036 52.8857 151.642 52.786 151.217 52.786C150.784 52.786 150.385 52.8857 150.021 53.085C149.666 53.2757 149.38 53.5703 149.163 53.969C148.947 54.3677 148.838 54.853 148.838 55.425C148.838 56.0057 148.942 56.4953 149.15 56.894C149.367 57.2927 149.653 57.5917 150.008 57.791C150.364 57.9817 150.754 58.077 151.178 58.077ZM159.286 52.851H157.791V59H156.608V52.851H155.685V51.876H156.608V51.369C156.608 50.5717 156.811 49.991 157.219 49.627C157.635 49.2543 158.298 49.068 159.208 49.068V50.056C158.688 50.056 158.319 50.16 158.103 50.368C157.895 50.5673 157.791 50.901 157.791 51.369V51.876H159.286V52.851ZM169.708 49.939V50.901H167.238V59H166.055V50.901H163.572V49.939H169.708ZM171.775 50.719C171.55 50.719 171.359 50.641 171.203 50.485C171.047 50.329 170.969 50.1383 170.969 49.913C170.969 49.6877 171.047 49.497 171.203 49.341C171.359 49.185 171.55 49.107 171.775 49.107C171.992 49.107 172.174 49.185 172.321 49.341C172.477 49.497 172.555 49.6877 172.555 49.913C172.555 50.1383 172.477 50.329 172.321 50.485C172.174 50.641 171.992 50.719 171.775 50.719ZM172.347 51.876V59H171.164V51.876H172.347ZM180.863 55.165C180.863 55.3903 180.85 55.6287 180.824 55.88H175.13C175.174 56.582 175.412 57.1323 175.845 57.531C176.287 57.921 176.82 58.116 177.444 58.116C177.956 58.116 178.38 57.999 178.718 57.765C179.065 57.5223 179.308 57.2017 179.446 56.803H180.72C180.53 57.4877 180.148 58.0467 179.576 58.48C179.004 58.9047 178.294 59.117 177.444 59.117C176.768 59.117 176.162 58.9653 175.624 58.662C175.096 58.3587 174.68 57.9297 174.376 57.375C174.073 56.8117 173.921 56.1617 173.921 55.425C173.921 54.6883 174.069 54.0427 174.363 53.488C174.658 52.9333 175.07 52.5087 175.598 52.214C176.136 51.9107 176.751 51.759 177.444 51.759C178.12 51.759 178.718 51.9063 179.238 52.201C179.758 52.4957 180.157 52.903 180.434 53.423C180.72 53.9343 180.863 54.515 180.863 55.165ZM179.641 54.918C179.641 54.4673 179.542 54.0817 179.342 53.761C179.143 53.4317 178.87 53.1847 178.523 53.02C178.185 52.8467 177.808 52.76 177.392 52.76C176.794 52.76 176.283 52.9507 175.858 53.332C175.442 53.7133 175.204 54.242 175.143 54.918H179.641ZM183.608 53.033C183.816 52.6257 184.11 52.3093 184.492 52.084C184.882 51.8587 185.354 51.746 185.909 51.746V52.968H185.597C184.271 52.968 183.608 53.6873 183.608 55.126V59H182.425V51.876H183.608V53.033ZM192.214 53.735V54.736H187.027V53.735H192.214ZM193.928 50.68V49.601H196.372V59H195.176V50.68H193.928ZM203.507 52.851V57.05C203.507 57.3967 203.581 57.6437 203.728 57.791C203.876 57.9297 204.131 57.999 204.495 57.999H205.366V59H204.3C203.642 59 203.148 58.8483 202.818 58.545C202.489 58.2417 202.324 57.7433 202.324 57.05V52.851H201.401V51.876H202.324V50.082H203.507V51.876H205.366V52.851H203.507ZM206.358 55.412C206.358 54.684 206.505 54.047 206.8 53.501C207.094 52.9463 207.497 52.5173 208.009 52.214C208.529 51.9107 209.105 51.759 209.738 51.759C210.362 51.759 210.903 51.8933 211.363 52.162C211.822 52.4307 212.164 52.7687 212.39 53.176V51.876H213.586V59H212.39V57.674C212.156 58.09 211.805 58.4367 211.337 58.714C210.877 58.9827 210.34 59.117 209.725 59.117C209.092 59.117 208.52 58.961 208.009 58.649C207.497 58.337 207.094 57.8993 206.8 57.336C206.505 56.7727 206.358 56.1313 206.358 55.412ZM212.39 55.425C212.39 54.8877 212.281 54.4197 212.065 54.021C211.848 53.6223 211.553 53.319 211.181 53.111C210.817 52.8943 210.414 52.786 209.972 52.786C209.53 52.786 209.127 52.89 208.763 53.098C208.399 53.306 208.108 53.6093 207.892 54.008C207.675 54.4067 207.567 54.8747 207.567 55.412C207.567 55.958 207.675 56.4347 207.892 56.842C208.108 57.2407 208.399 57.5483 208.763 57.765C209.127 57.973 209.53 58.077 209.972 58.077C210.414 58.077 210.817 57.973 211.181 57.765C211.553 57.5483 211.848 57.2407 212.065 56.842C212.281 56.4347 212.39 55.9623 212.39 55.425ZM218.107 59.117C217.561 59.117 217.071 59.026 216.638 58.844C216.205 58.6533 215.862 58.3933 215.611 58.064C215.36 57.726 215.221 57.3403 215.195 56.907H216.417C216.452 57.2623 216.616 57.5527 216.911 57.778C217.214 58.0033 217.609 58.116 218.094 58.116C218.545 58.116 218.9 58.0163 219.16 57.817C219.42 57.6177 219.55 57.3663 219.55 57.063C219.55 56.751 219.411 56.5213 219.134 56.374C218.857 56.218 218.428 56.0663 217.847 55.919C217.318 55.7803 216.885 55.6417 216.547 55.503C216.218 55.3557 215.932 55.1433 215.689 54.866C215.455 54.58 215.338 54.2073 215.338 53.748C215.338 53.384 215.446 53.0503 215.663 52.747C215.88 52.4437 216.187 52.2053 216.586 52.032C216.985 51.85 217.44 51.759 217.951 51.759C218.74 51.759 219.377 51.9583 219.862 52.357C220.347 52.7557 220.607 53.3017 220.642 53.995H219.459C219.433 53.6223 219.281 53.3233 219.004 53.098C218.735 52.8727 218.371 52.76 217.912 52.76C217.487 52.76 217.149 52.851 216.898 53.033C216.647 53.215 216.521 53.4533 216.521 53.748C216.521 53.982 216.595 54.177 216.742 54.333C216.898 54.4803 217.089 54.6017 217.314 54.697C217.548 54.7837 217.869 54.8833 218.276 54.996C218.787 55.1347 219.203 55.2733 219.524 55.412C219.845 55.542 220.118 55.7413 220.343 56.01C220.577 56.2787 220.698 56.6297 220.707 57.063C220.707 57.453 220.599 57.804 220.382 58.116C220.165 58.428 219.858 58.675 219.459 58.857C219.069 59.0303 218.618 59.117 218.107 59.117ZM226.355 59L223.56 55.854V59H222.377V49.38H223.56V55.035L226.303 51.876H227.954L224.6 55.425L227.967 59H226.355ZM231.589 59.117C231.043 59.117 230.554 59.026 230.12 58.844C229.687 58.6533 229.345 58.3933 229.093 58.064C228.842 57.726 228.703 57.3403 228.677 56.907H229.899C229.934 57.2623 230.099 57.5527 230.393 57.778C230.697 58.0033 231.091 58.116 231.576 58.116C232.027 58.116 232.382 58.0163 232.642 57.817C232.902 57.6177 233.032 57.3663 233.032 57.063C233.032 56.751 232.894 56.5213 232.616 56.374C232.339 56.218 231.91 56.0663 231.329 55.919C230.801 55.7803 230.367 55.6417 230.029 55.503C229.7 55.3557 229.414 55.1433 229.171 54.866C228.937 54.58 228.82 54.2073 228.82 53.748C228.82 53.384 228.929 53.0503 229.145 52.747C229.362 52.4437 229.67 52.2053 230.068 52.032C230.467 51.85 230.922 51.759 231.433 51.759C232.222 51.759 232.859 51.9583 233.344 52.357C233.83 52.7557 234.09 53.3017 234.124 53.995H232.941C232.915 53.6223 232.764 53.3233 232.486 53.098C232.218 52.8727 231.854 52.76 231.394 52.76C230.97 52.76 230.632 52.851 230.38 53.033C230.129 53.215 230.003 53.4533 230.003 53.748C230.003 53.982 230.077 54.177 230.224 54.333C230.38 54.4803 230.571 54.6017 230.796 54.697C231.03 54.7837 231.351 54.8833 231.758 54.996C232.27 55.1347 232.686 55.2733 233.006 55.412C233.327 55.542 233.6 55.7413 233.825 56.01C234.059 56.2787 234.181 56.6297 234.189 57.063C234.189 57.453 234.081 57.804 233.864 58.116C233.648 58.428 233.34 58.675 232.941 58.857C232.551 59.0303 232.101 59.117 231.589 59.117ZM19.559 75.412C19.559 74.684 19.7063 74.047 20.001 73.501C20.2957 72.9463 20.6987 72.5173 21.21 72.214C21.73 71.9107 22.3063 71.759 22.939 71.759C23.563 71.759 24.1047 71.8933 24.564 72.162C25.0233 72.4307 25.3657 72.7687 25.591 73.176V71.876H26.787V79H25.591V77.674C25.357 78.09 25.006 78.4367 24.538 78.714C24.0787 78.9827 23.5413 79.117 22.926 79.117C22.2933 79.117 21.7213 78.961 21.21 78.649C20.6987 78.337 20.2957 77.8993 20.001 77.336C19.7063 76.7727 19.559 76.1313 19.559 75.412ZM25.591 75.425C25.591 74.8877 25.4827 74.4197 25.266 74.021C25.0493 73.6223 24.7547 73.319 24.382 73.111C24.018 72.8943 23.615 72.786 23.173 72.786C22.731 72.786 22.328 72.89 21.964 73.098C21.6 73.306 21.3097 73.6093 21.093 74.008C20.8763 74.4067 20.768 74.8747 20.768 75.412C20.768 75.958 20.8763 76.4347 21.093 76.842C21.3097 77.2407 21.6 77.5483 21.964 77.765C22.328 77.973 22.731 78.077 23.173 78.077C23.615 78.077 24.018 77.973 24.382 77.765C24.7547 77.5483 25.0493 77.2407 25.266 76.842C25.4827 76.4347 25.591 75.9623 25.591 75.425ZM35.1042 71.876V79H33.9212V77.947C33.6958 78.311 33.3795 78.597 32.9722 78.805C32.5735 79.0043 32.1315 79.104 31.6462 79.104C31.0915 79.104 30.5932 78.9913 30.1512 78.766C29.7092 78.532 29.3582 78.1853 29.0982 77.726C28.8468 77.2667 28.7212 76.7077 28.7212 76.049V71.876H29.8912V75.893C29.8912 76.595 30.0688 77.1367 30.4242 77.518C30.7795 77.8907 31.2648 78.077 31.8802 78.077C32.5128 78.077 33.0112 77.882 33.3752 77.492C33.7392 77.102 33.9212 76.5343 33.9212 75.789V71.876H35.1042ZM38.5446 72.851V77.05C38.5446 77.3967 38.6183 77.6437 38.7656 77.791C38.9129 77.9297 39.1686 77.999 39.5326 77.999H40.4036V79H39.3376C38.6789 79 38.1849 78.8483 37.8556 78.545C37.5263 78.2417 37.3616 77.7433 37.3616 77.05V72.851H36.4386V71.876H37.3616V70.082H38.5446V71.876H40.4036V72.851H38.5446ZM44.9439 79.117C44.2766 79.117 43.6699 78.9653 43.1239 78.662C42.5866 78.3587 42.1619 77.9297 41.8499 77.375C41.5466 76.8117 41.3949 76.1617 41.3949 75.425C41.3949 74.697 41.5509 74.0557 41.8629 73.501C42.1836 72.9377 42.6169 72.5087 43.1629 72.214C43.7089 71.9107 44.3199 71.759 44.9959 71.759C45.6719 71.759 46.2829 71.9107 46.8289 72.214C47.3749 72.5087 47.8039 72.9333 48.1159 73.488C48.4366 74.0427 48.5969 74.6883 48.5969 75.425C48.5969 76.1617 48.4323 76.8117 48.1029 77.375C47.7823 77.9297 47.3446 78.3587 46.7899 78.662C46.2353 78.9653 45.6199 79.117 44.9439 79.117ZM44.9439 78.077C45.3686 78.077 45.7673 77.9773 46.1399 77.778C46.5126 77.5787 46.8116 77.2797 47.0369 76.881C47.2709 76.4823 47.3879 75.997 47.3879 75.425C47.3879 74.853 47.2753 74.3677 47.0499 73.969C46.8246 73.5703 46.5299 73.2757 46.1659 73.085C45.8019 72.8857 45.4076 72.786 44.9829 72.786C44.5496 72.786 44.1509 72.8857 43.7869 73.085C43.4316 73.2757 43.1456 73.5703 42.9289 73.969C42.7123 74.3677 42.6039 74.853 42.6039 75.425C42.6039 76.0057 42.7079 76.4953 42.9159 76.894C43.1326 77.2927 43.4186 77.5917 43.7739 77.791C44.1293 77.9817 44.5193 78.077 44.9439 78.077ZM53.6234 71.746C54.49 71.746 55.192 72.0103 55.7294 72.539C56.2667 73.059 56.5354 73.813 56.5354 74.801V79H55.3654V74.97C55.3654 74.2593 55.1877 73.7177 54.8324 73.345C54.477 72.9637 53.9917 72.773 53.3764 72.773C52.7524 72.773 52.254 72.968 51.8814 73.358C51.5174 73.748 51.3354 74.3157 51.3354 75.061V79H50.1524V71.876H51.3354V72.89C51.5694 72.526 51.8857 72.2443 52.2844 72.045C52.6917 71.8457 53.138 71.746 53.6234 71.746ZM61.5748 79.117C60.9075 79.117 60.3008 78.9653 59.7548 78.662C59.2175 78.3587 58.7928 77.9297 58.4808 77.375C58.1775 76.8117 58.0258 76.1617 58.0258 75.425C58.0258 74.697 58.1818 74.0557 58.4938 73.501C58.8145 72.9377 59.2478 72.5087 59.7938 72.214C60.3398 71.9107 60.9508 71.759 61.6268 71.759C62.3028 71.759 62.9138 71.9107 63.4598 72.214C64.0058 72.5087 64.4348 72.9333 64.7468 73.488C65.0675 74.0427 65.2278 74.6883 65.2278 75.425C65.2278 76.1617 65.0631 76.8117 64.7338 77.375C64.4131 77.9297 63.9755 78.3587 63.4208 78.662C62.8661 78.9653 62.2508 79.117 61.5748 79.117ZM61.5748 78.077C61.9995 78.077 62.3981 77.9773 62.7708 77.778C63.1435 77.5787 63.4425 77.2797 63.6678 76.881C63.9018 76.4823 64.0188 75.997 64.0188 75.425C64.0188 74.853 63.9061 74.3677 63.6808 73.969C63.4555 73.5703 63.1608 73.2757 62.7968 73.085C62.4328 72.8857 62.0385 72.786 61.6138 72.786C61.1805 72.786 60.7818 72.8857 60.4178 73.085C60.0625 73.2757 59.7765 73.5703 59.5598 73.969C59.3431 74.3677 59.2348 74.853 59.2348 75.425C59.2348 76.0057 59.3388 76.4953 59.5468 76.894C59.7635 77.2927 60.0495 77.5917 60.4048 77.791C60.7601 77.9817 61.1501 78.077 61.5748 78.077ZM75.3502 71.746C75.9049 71.746 76.3989 71.863 76.8322 72.097C77.2656 72.3223 77.6079 72.6647 77.8592 73.124C78.1106 73.5833 78.2362 74.1423 78.2362 74.801V79H77.0662V74.97C77.0662 74.2593 76.8886 73.7177 76.5332 73.345C76.1866 72.9637 75.7142 72.773 75.1162 72.773C74.5009 72.773 74.0112 72.9723 73.6472 73.371C73.2832 73.761 73.1012 74.3287 73.1012 75.074V79H71.9312V74.97C71.9312 74.2593 71.7536 73.7177 71.3982 73.345C71.0516 72.9637 70.5792 72.773 69.9812 72.773C69.3659 72.773 68.8762 72.9723 68.5122 73.371C68.1482 73.761 67.9662 74.3287 67.9662 75.074V79H66.7832V71.876H67.9662V72.903C68.2002 72.5303 68.5122 72.2443 68.9022 72.045C69.3009 71.8457 69.7386 71.746 70.2152 71.746C70.8132 71.746 71.3419 71.8803 71.8012 72.149C72.2606 72.4177 72.6029 72.812 72.8282 73.332C73.0276 72.8293 73.3569 72.4393 73.8162 72.162C74.2756 71.8847 74.7869 71.746 75.3502 71.746ZM83.2838 79.117C82.6164 79.117 82.0098 78.9653 81.4638 78.662C80.9264 78.3587 80.5018 77.9297 80.1898 77.375C79.8864 76.8117 79.7348 76.1617 79.7348 75.425C79.7348 74.697 79.8908 74.0557 80.2028 73.501C80.5234 72.9377 80.9568 72.5087 81.5028 72.214C82.0488 71.9107 82.6598 71.759 83.3358 71.759C84.0118 71.759 84.6228 71.9107 85.1688 72.214C85.7148 72.5087 86.1438 72.9333 86.4558 73.488C86.7764 74.0427 86.9368 74.6883 86.9368 75.425C86.9368 76.1617 86.7721 76.8117 86.4428 77.375C86.1221 77.9297 85.6844 78.3587 85.1298 78.662C84.5751 78.9653 83.9598 79.117 83.2838 79.117ZM83.2838 78.077C83.7084 78.077 84.1071 77.9773 84.4798 77.778C84.8524 77.5787 85.1514 77.2797 85.3768 76.881C85.6108 76.4823 85.7278 75.997 85.7278 75.425C85.7278 74.853 85.6151 74.3677 85.3898 73.969C85.1644 73.5703 84.8698 73.2757 84.5058 73.085C84.1418 72.8857 83.7474 72.786 83.3228 72.786C82.8894 72.786 82.4908 72.8857 82.1268 73.085C81.7714 73.2757 81.4854 73.5703 81.2688 73.969C81.0521 74.3677 80.9438 74.853 80.9438 75.425C80.9438 76.0057 81.0478 76.4953 81.2558 76.894C81.4724 77.2927 81.7584 77.5917 82.1138 77.791C82.4691 77.9817 82.8591 78.077 83.2838 78.077ZM94.8102 71.876V79H93.6272V77.947C93.4019 78.311 93.0855 78.597 92.6782 78.805C92.2795 79.0043 91.8375 79.104 91.3522 79.104C90.7975 79.104 90.2992 78.9913 89.8572 78.766C89.4152 78.532 89.0642 78.1853 88.8042 77.726C88.5529 77.2667 88.4272 76.7077 88.4272 76.049V71.876H89.5972V75.893C89.5972 76.595 89.7749 77.1367 90.1302 77.518C90.4855 77.8907 90.9709 78.077 91.5862 78.077C92.2189 78.077 92.7172 77.882 93.0812 77.492C93.4452 77.102 93.6272 76.5343 93.6272 75.789V71.876H94.8102ZM99.3296 79.117C98.7836 79.117 98.294 79.026 97.8606 78.844C97.4273 78.6533 97.085 78.3933 96.8336 78.064C96.5823 77.726 96.4436 77.3403 96.4176 76.907H97.6396C97.6743 77.2623 97.839 77.5527 98.1336 77.778C98.437 78.0033 98.8313 78.116 99.3166 78.116C99.7673 78.116 100.123 78.0163 100.383 77.817C100.643 77.6177 100.773 77.3663 100.773 77.063C100.773 76.751 100.634 76.5213 100.357 76.374C100.079 76.218 99.6503 76.0663 99.0696 75.919C98.541 75.7803 98.1076 75.6417 97.7696 75.503C97.4403 75.3557 97.1543 75.1433 96.9116 74.866C96.6776 74.58 96.5606 74.2073 96.5606 73.748C96.5606 73.384 96.669 73.0503 96.8856 72.747C97.1023 72.4437 97.41 72.2053 97.8086 72.032C98.2073 71.85 98.6623 71.759 99.1736 71.759C99.9623 71.759 100.599 71.9583 101.085 72.357C101.57 72.7557 101.83 73.3017 101.865 73.995H100.682C100.656 73.6223 100.504 73.3233 100.227 73.098C99.958 72.8727 99.594 72.76 99.1346 72.76C98.71 72.76 98.372 72.851 98.1206 73.033C97.8693 73.215 97.7436 73.4533 97.7436 73.748C97.7436 73.982 97.8173 74.177 97.9646 74.333C98.1206 74.4803 98.3113 74.6017 98.5366 74.697C98.7706 74.7837 99.0913 74.8833 99.4986 74.996C100.01 75.1347 100.426 75.2733 100.747 75.412C101.067 75.542 101.34 75.7413 101.566 76.01C101.8 76.2787 101.921 76.6297 101.93 77.063C101.93 77.453 101.821 77.804 101.605 78.116C101.388 78.428 101.08 78.675 100.682 78.857C100.292 79.0303 99.841 79.117 99.3296 79.117ZM104.783 69.38V79H103.6V69.38H104.783ZM112.935 71.876L108.645 82.354H107.423L108.827 78.922L105.954 71.876H107.267L109.503 77.648L111.713 71.876H112.935ZM121.126 71.746C121.663 71.746 122.149 71.863 122.582 72.097C123.015 72.3223 123.353 72.6647 123.596 73.124C123.847 73.5833 123.973 74.1423 123.973 74.801V79H122.803V74.97C122.803 74.2593 122.625 73.7177 122.27 73.345C121.915 72.9637 121.429 72.773 120.814 72.773C120.19 72.773 119.692 72.968 119.319 73.358C118.955 73.748 118.773 74.3157 118.773 75.061V79H117.59V69.38H118.773V72.89C119.007 72.526 119.328 72.2443 119.735 72.045C120.151 71.8457 120.615 71.746 121.126 71.746ZM125.463 75.412C125.463 74.684 125.611 74.047 125.905 73.501C126.2 72.9463 126.603 72.5173 127.114 72.214C127.634 71.9107 128.211 71.759 128.843 71.759C129.467 71.759 130.009 71.8933 130.468 72.162C130.928 72.4307 131.27 72.7687 131.495 73.176V71.876H132.691V79H131.495V77.674C131.261 78.09 130.91 78.4367 130.442 78.714C129.983 78.9827 129.446 79.117 128.83 79.117C128.198 79.117 127.626 78.961 127.114 78.649C126.603 78.337 126.2 77.8993 125.905 77.336C125.611 76.7727 125.463 76.1313 125.463 75.412ZM131.495 75.425C131.495 74.8877 131.387 74.4197 131.17 74.021C130.954 73.6223 130.659 73.319 130.286 73.111C129.922 72.8943 129.519 72.786 129.077 72.786C128.635 72.786 128.232 72.89 127.868 73.098C127.504 73.306 127.214 73.6093 126.997 74.008C126.781 74.4067 126.672 74.8747 126.672 75.412C126.672 75.958 126.781 76.4347 126.997 76.842C127.214 77.2407 127.504 77.5483 127.868 77.765C128.232 77.973 128.635 78.077 129.077 78.077C129.519 78.077 129.922 77.973 130.286 77.765C130.659 77.5483 130.954 77.2407 131.17 76.842C131.387 76.4347 131.495 75.9623 131.495 75.425ZM138.161 71.746C139.028 71.746 139.73 72.0103 140.267 72.539C140.805 73.059 141.073 73.813 141.073 74.801V79H139.903V74.97C139.903 74.2593 139.726 73.7177 139.37 73.345C139.015 72.9637 138.53 72.773 137.914 72.773C137.29 72.773 136.792 72.968 136.419 73.358C136.055 73.748 135.873 74.3157 135.873 75.061V79H134.69V71.876H135.873V72.89C136.107 72.526 136.424 72.2443 136.822 72.045C137.23 71.8457 137.676 71.746 138.161 71.746ZM142.564 75.412C142.564 74.684 142.711 74.047 143.006 73.501C143.301 72.9463 143.704 72.5173 144.215 72.214C144.735 71.9107 145.316 71.759 145.957 71.759C146.512 71.759 147.027 71.889 147.504 72.149C147.981 72.4003 148.345 72.734 148.596 73.15V69.38H149.792V79H148.596V77.661C148.362 78.0857 148.015 78.4367 147.556 78.714C147.097 78.9827 146.559 79.117 145.944 79.117C145.311 79.117 144.735 78.961 144.215 78.649C143.704 78.337 143.301 77.8993 143.006 77.336C142.711 76.7727 142.564 76.1313 142.564 75.412ZM148.596 75.425C148.596 74.8877 148.488 74.4197 148.271 74.021C148.054 73.6223 147.76 73.319 147.387 73.111C147.023 72.8943 146.62 72.786 146.178 72.786C145.736 72.786 145.333 72.89 144.969 73.098C144.605 73.306 144.315 73.6093 144.098 74.008C143.881 74.4067 143.773 74.8747 143.773 75.412C143.773 75.958 143.881 76.4347 144.098 76.842C144.315 77.2407 144.605 77.5483 144.969 77.765C145.333 77.973 145.736 78.077 146.178 78.077C146.62 78.077 147.023 77.973 147.387 77.765C147.76 77.5483 148.054 77.2407 148.271 76.842C148.488 76.4347 148.596 75.9623 148.596 75.425ZM152.974 69.38V79H151.791V69.38H152.974ZM161.49 75.165C161.49 75.3903 161.477 75.6287 161.451 75.88H155.757C155.801 76.582 156.039 77.1323 156.472 77.531C156.914 77.921 157.447 78.116 158.071 78.116C158.583 78.116 159.007 77.999 159.345 77.765C159.692 77.5223 159.935 77.2017 160.073 76.803H161.347C161.157 77.4877 160.775 78.0467 160.203 78.48C159.631 78.9047 158.921 79.117 158.071 79.117C157.395 79.117 156.789 78.9653 156.251 78.662C155.723 78.3587 155.307 77.9297 155.003 77.375C154.7 76.8117 154.548 76.1617 154.548 75.425C154.548 74.6883 154.696 74.0427 154.99 73.488C155.285 72.9333 155.697 72.5087 156.225 72.214C156.763 71.9107 157.378 71.759 158.071 71.759C158.747 71.759 159.345 71.9063 159.865 72.201C160.385 72.4957 160.784 72.903 161.061 73.423C161.347 73.9343 161.49 74.515 161.49 75.165ZM160.268 74.918C160.268 74.4673 160.169 74.0817 159.969 73.761C159.77 73.4317 159.497 73.1847 159.15 73.02C158.812 72.8467 158.435 72.76 158.019 72.76C157.421 72.76 156.91 72.9507 156.485 73.332C156.069 73.7133 155.831 74.242 155.77 74.918H160.268ZM162.61 75.412C162.61 74.684 162.757 74.047 163.052 73.501C163.346 72.9463 163.749 72.5173 164.261 72.214C164.781 71.9107 165.361 71.759 166.003 71.759C166.557 71.759 167.073 71.889 167.55 72.149C168.026 72.4003 168.39 72.734 168.642 73.15V69.38H169.838V79H168.642V77.661C168.408 78.0857 168.061 78.4367 167.602 78.714C167.142 78.9827 166.605 79.117 165.99 79.117C165.357 79.117 164.781 78.961 164.261 78.649C163.749 78.337 163.346 77.8993 163.052 77.336C162.757 76.7727 162.61 76.1313 162.61 75.412ZM168.642 75.425C168.642 74.8877 168.533 74.4197 168.317 74.021C168.1 73.6223 167.805 73.319 167.433 73.111C167.069 72.8943 166.666 72.786 166.224 72.786C165.782 72.786 165.379 72.89 165.015 73.098C164.651 73.306 164.36 73.6093 164.144 74.008C163.927 74.4067 163.819 74.8747 163.819 75.412C163.819 75.958 163.927 76.4347 164.144 76.842C164.36 77.2407 164.651 77.5483 165.015 77.765C165.379 77.973 165.782 78.077 166.224 78.077C166.666 78.077 167.069 77.973 167.433 77.765C167.805 77.5483 168.1 77.2407 168.317 76.842C168.533 76.4347 168.642 75.9623 168.642 75.425ZM173.059 77.362L171.603 80.859H170.81L171.759 77.362H173.059ZM180.779 72.851H179.284V79H178.101V72.851H177.178V71.876H178.101V71.369C178.101 70.5717 178.305 69.991 178.712 69.627C179.128 69.2543 179.791 69.068 180.701 69.068V70.056C180.181 70.056 179.813 70.16 179.596 70.368C179.388 70.5673 179.284 70.901 179.284 71.369V71.876H180.779V72.851ZM183.341 73.033C183.549 72.6257 183.844 72.3093 184.225 72.084C184.615 71.8587 185.088 71.746 185.642 71.746V72.968H185.33C184.004 72.968 183.341 73.6873 183.341 75.126V79H182.158V71.876H183.341V73.033ZM193.508 75.165C193.508 75.3903 193.495 75.6287 193.469 75.88H187.775C187.818 76.582 188.057 77.1323 188.49 77.531C188.932 77.921 189.465 78.116 190.089 78.116C190.6 78.116 191.025 77.999 191.363 77.765C191.71 77.5223 191.952 77.2017 192.091 76.803H193.365C193.174 77.4877 192.793 78.0467 192.221 78.48C191.649 78.9047 190.938 79.117 190.089 79.117C189.413 79.117 188.806 78.9653 188.269 78.662C187.74 78.3587 187.324 77.9297 187.021 77.375C186.718 76.8117 186.566 76.1617 186.566 75.425C186.566 74.6883 186.713 74.0427 187.008 73.488C187.303 72.9333 187.714 72.5087 188.243 72.214C188.78 71.9107 189.396 71.759 190.089 71.759C190.765 71.759 191.363 71.9063 191.883 72.201C192.403 72.4957 192.802 72.903 193.079 73.423C193.365 73.9343 193.508 74.515 193.508 75.165ZM192.286 74.918C192.286 74.4673 192.186 74.0817 191.987 73.761C191.788 73.4317 191.515 73.1847 191.168 73.02C190.83 72.8467 190.453 72.76 190.037 72.76C189.439 72.76 188.928 72.9507 188.503 73.332C188.087 73.7133 187.849 74.242 187.788 74.918H192.286ZM201.569 75.165C201.569 75.3903 201.556 75.6287 201.53 75.88H195.836C195.88 76.582 196.118 77.1323 196.551 77.531C196.993 77.921 197.526 78.116 198.15 78.116C198.662 78.116 199.086 77.999 199.424 77.765C199.771 77.5223 200.014 77.2017 200.152 76.803H201.426C201.236 77.4877 200.854 78.0467 200.282 78.48C199.71 78.9047 199 79.117 198.15 79.117C197.474 79.117 196.868 78.9653 196.33 78.662C195.802 78.3587 195.386 77.9297 195.082 77.375C194.779 76.8117 194.627 76.1617 194.627 75.425C194.627 74.6883 194.775 74.0427 195.069 73.488C195.364 72.9333 195.776 72.5087 196.304 72.214C196.842 71.9107 197.457 71.759 198.15 71.759C198.826 71.759 199.424 71.9063 199.944 72.201C200.464 72.4957 200.863 72.903 201.14 73.423C201.426 73.9343 201.569 74.515 201.569 75.165ZM200.347 74.918C200.347 74.4673 200.248 74.0817 200.048 73.761C199.849 73.4317 199.576 73.1847 199.229 73.02C198.891 72.8467 198.514 72.76 198.098 72.76C197.5 72.76 196.989 72.9507 196.564 73.332C196.148 73.7133 195.91 74.242 195.849 74.918H200.347ZM203.742 70.719C203.517 70.719 203.326 70.641 203.17 70.485C203.014 70.329 202.936 70.1383 202.936 69.913C202.936 69.6877 203.014 69.497 203.17 69.341C203.326 69.185 203.517 69.107 203.742 69.107C203.959 69.107 204.141 69.185 204.288 69.341C204.444 69.497 204.522 69.6877 204.522 69.913C204.522 70.1383 204.444 70.329 204.288 70.485C204.141 70.641 203.959 70.719 203.742 70.719ZM204.314 71.876V79H203.131V71.876H204.314ZM209.801 71.746C210.668 71.746 211.37 72.0103 211.907 72.539C212.444 73.059 212.713 73.813 212.713 74.801V79H211.543V74.97C211.543 74.2593 211.365 73.7177 211.01 73.345C210.655 72.9637 210.169 72.773 209.554 72.773C208.93 72.773 208.432 72.968 208.059 73.358C207.695 73.748 207.513 74.3157 207.513 75.061V79H206.33V71.876H207.513V72.89C207.747 72.526 208.063 72.2443 208.462 72.045C208.869 71.8457 209.316 71.746 209.801 71.746ZM217.584 71.759C218.199 71.759 218.736 71.8933 219.196 72.162C219.664 72.4307 220.01 72.7687 220.236 73.176V71.876H221.432V79.156C221.432 79.806 221.293 80.3823 221.016 80.885C220.738 81.3963 220.34 81.795 219.82 82.081C219.308 82.367 218.71 82.51 218.026 82.51C217.09 82.51 216.31 82.289 215.686 81.847C215.062 81.405 214.693 80.8027 214.581 80.04H215.751C215.881 80.4733 216.149 80.82 216.557 81.08C216.964 81.3487 217.454 81.483 218.026 81.483C218.676 81.483 219.204 81.2793 219.612 80.872C220.028 80.4647 220.236 79.8927 220.236 79.156V77.661C220.002 78.077 219.655 78.4237 219.196 78.701C218.736 78.9783 218.199 79.117 217.584 79.117C216.951 79.117 216.375 78.961 215.855 78.649C215.343 78.337 214.94 77.8993 214.646 77.336C214.351 76.7727 214.204 76.1313 214.204 75.412C214.204 74.684 214.351 74.047 214.646 73.501C214.94 72.9463 215.343 72.5173 215.855 72.214C216.375 71.9107 216.951 71.759 217.584 71.759ZM220.236 75.425C220.236 74.8877 220.127 74.4197 219.911 74.021C219.694 73.6223 219.399 73.319 219.027 73.111C218.663 72.8943 218.26 72.786 217.818 72.786C217.376 72.786 216.973 72.89 216.609 73.098C216.245 73.306 215.954 73.6093 215.738 74.008C215.521 74.4067 215.413 74.8747 215.413 75.412C215.413 75.958 215.521 76.4347 215.738 76.842C215.954 77.2407 216.245 77.5483 216.609 77.765C216.973 77.973 217.376 78.077 217.818 78.077C218.26 78.077 218.663 77.973 219.027 77.765C219.399 77.5483 219.694 77.2407 219.911 76.842C220.127 76.4347 220.236 75.9623 220.236 75.425ZM233.033 71.876L228.743 82.354H227.521L228.925 78.922L226.052 71.876H227.365L229.601 77.648L231.811 71.876H233.033ZM237.329 79.117C236.661 79.117 236.055 78.9653 235.509 78.662C234.971 78.3587 234.547 77.9297 234.235 77.375C233.931 76.8117 233.78 76.1617 233.78 75.425C233.78 74.697 233.936 74.0557 234.248 73.501C234.568 72.9377 235.002 72.5087 235.548 72.214C236.094 71.9107 236.705 71.759 237.381 71.759C238.057 71.759 238.668 71.9107 239.214 72.214C239.76 72.5087 240.189 72.9333 240.501 73.488C240.821 74.0427 240.982 74.6883 240.982 75.425C240.982 76.1617 240.817 76.8117 240.488 77.375C240.167 77.9297 239.729 78.3587 239.175 78.662C238.62 78.9653 238.005 79.117 237.329 79.117ZM237.329 78.077C237.753 78.077 238.152 77.9773 238.525 77.778C238.897 77.5787 239.196 77.2797 239.422 76.881C239.656 76.4823 239.773 75.997 239.773 75.425C239.773 74.853 239.66 74.3677 239.435 73.969C239.209 73.5703 238.915 73.2757 238.551 73.085C238.187 72.8857 237.792 72.786 237.368 72.786C236.934 72.786 236.536 72.8857 236.172 73.085C235.816 73.2757 235.53 73.5703 235.314 73.969C235.097 74.3677 234.989 74.853 234.989 75.425C234.989 76.0057 235.093 76.4953 235.301 76.894C235.517 77.2927 235.803 77.5917 236.159 77.791C236.514 77.9817 236.904 78.077 237.329 78.077ZM248.855 71.876V79H247.672V77.947C247.447 78.311 247.13 78.597 246.723 78.805C246.324 79.0043 245.882 79.104 245.397 79.104C244.842 79.104 244.344 78.9913 243.902 78.766C243.46 78.532 243.109 78.1853 242.849 77.726C242.598 77.2667 242.472 76.7077 242.472 76.049V71.876H243.642V75.893C243.642 76.595 243.82 77.1367 244.175 77.518C244.53 77.8907 245.016 78.077 245.631 78.077C246.264 78.077 246.762 77.882 247.126 77.492C247.49 77.102 247.672 76.5343 247.672 75.789V71.876H248.855ZM252.036 73.033C252.244 72.6257 252.538 72.3093 252.92 72.084C253.31 71.8587 253.782 71.746 254.337 71.746V72.968H254.025C252.699 72.968 252.036 73.6873 252.036 75.126V79H250.853V71.876H252.036V73.033ZM21.444 92.851V97.05C21.444 97.3967 21.5177 97.6437 21.665 97.791C21.8123 97.9297 22.068 97.999 22.432 97.999H23.303V99H22.237C21.5783 99 21.0843 98.8483 20.755 98.545C20.4257 98.2417 20.261 97.7433 20.261 97.05V92.851H19.338V91.876H20.261V90.082H21.444V91.876H23.303V92.851H21.444ZM31.2364 95.165C31.2364 95.3903 31.2234 95.6287 31.1974 95.88H25.5034C25.5467 96.582 25.785 97.1323 26.2184 97.531C26.6604 97.921 27.1934 98.116 27.8174 98.116C28.3287 98.116 28.7534 97.999 29.0914 97.765C29.438 97.5223 29.6807 97.2017 29.8194 96.803H31.0934C30.9027 97.4877 30.5214 98.0467 29.9494 98.48C29.3774 98.9047 28.6667 99.117 27.8174 99.117C27.1414 99.117 26.5347 98.9653 25.9974 98.662C25.4687 98.3587 25.0527 97.9297 24.7494 97.375C24.446 96.8117 24.2944 96.1617 24.2944 95.425C24.2944 94.6883 24.4417 94.0427 24.7364 93.488C25.031 92.9333 25.4427 92.5087 25.9714 92.214C26.5087 91.9107 27.124 91.759 27.8174 91.759C28.4934 91.759 29.0914 91.9063 29.6114 92.201C30.1314 92.4957 30.53 92.903 30.8074 93.423C31.0934 93.9343 31.2364 94.515 31.2364 95.165ZM30.0144 94.918C30.0144 94.4673 29.9147 94.0817 29.7154 93.761C29.516 93.4317 29.243 93.1847 28.8964 93.02C28.5584 92.8467 28.1814 92.76 27.7654 92.76C27.1674 92.76 26.656 92.9507 26.2314 93.332C25.8154 93.7133 25.577 94.242 25.5164 94.918H30.0144ZM32.3559 95.412C32.3559 94.684 32.5032 94.047 32.7979 93.501C33.0925 92.9463 33.4955 92.5173 34.0069 92.214C34.5269 91.9107 35.1032 91.759 35.7359 91.759C36.3599 91.759 36.9015 91.8933 37.3609 92.162C37.8202 92.4307 38.1625 92.7687 38.3879 93.176V91.876H39.5839V99H38.3879V97.674C38.1539 98.09 37.8029 98.4367 37.3349 98.714C36.8755 98.9827 36.3382 99.117 35.7229 99.117C35.0902 99.117 34.5182 98.961 34.0069 98.649C33.4955 98.337 33.0925 97.8993 32.7979 97.336C32.5032 96.7727 32.3559 96.1313 32.3559 95.412ZM38.3879 95.425C38.3879 94.8877 38.2795 94.4197 38.0629 94.021C37.8462 93.6223 37.5515 93.319 37.1789 93.111C36.8149 92.8943 36.4119 92.786 35.9699 92.786C35.5279 92.786 35.1249 92.89 34.7609 93.098C34.3969 93.306 34.1065 93.6093 33.8899 94.008C33.6732 94.4067 33.5649 94.8747 33.5649 95.412C33.5649 95.958 33.6732 96.4347 33.8899 96.842C34.1065 97.2407 34.3969 97.5483 34.7609 97.765C35.1249 97.973 35.5279 98.077 35.9699 98.077C36.4119 98.077 36.8149 97.973 37.1789 97.765C37.5515 97.5483 37.8462 97.2407 38.0629 96.842C38.2795 96.4347 38.3879 95.9623 38.3879 95.425ZM50.15 91.746C50.7047 91.746 51.1987 91.863 51.632 92.097C52.0654 92.3223 52.4077 92.6647 52.659 93.124C52.9104 93.5833 53.036 94.1423 53.036 94.801V99H51.866V94.97C51.866 94.2593 51.6884 93.7177 51.333 93.345C50.9864 92.9637 50.514 92.773 49.916 92.773C49.3007 92.773 48.811 92.9723 48.447 93.371C48.083 93.761 47.901 94.3287 47.901 95.074V99H46.731V94.97C46.731 94.2593 46.5534 93.7177 46.198 93.345C45.8514 92.9637 45.379 92.773 44.781 92.773C44.1657 92.773 43.676 92.9723 43.312 93.371C42.948 93.761 42.766 94.3287 42.766 95.074V99H41.583V91.876H42.766V92.903C43 92.5303 43.312 92.2443 43.702 92.045C44.1007 91.8457 44.5384 91.746 45.015 91.746C45.613 91.746 46.1417 91.8803 46.601 92.149C47.0604 92.4177 47.4027 92.812 47.628 93.332C47.8274 92.8293 48.1567 92.4393 48.616 92.162C49.0754 91.8847 49.5867 91.746 50.15 91.746ZM61.3414 92.851H59.8464V99H58.6634V92.851H57.7404V91.876H58.6634V91.369C58.6634 90.5717 58.8671 89.991 59.2744 89.627C59.6904 89.2543 60.3534 89.068 61.2634 89.068V90.056C60.7434 90.056 60.3751 90.16 60.1584 90.368C59.9504 90.5673 59.8464 90.901 59.8464 91.369V91.876H61.3414V92.851ZM65.8277 99.117C65.1604 99.117 64.5537 98.9653 64.0077 98.662C63.4704 98.3587 63.0457 97.9297 62.7337 97.375C62.4304 96.8117 62.2787 96.1617 62.2787 95.425C62.2787 94.697 62.4347 94.0557 62.7467 93.501C63.0674 92.9377 63.5007 92.5087 64.0467 92.214C64.5927 91.9107 65.2037 91.759 65.8797 91.759C66.5557 91.759 67.1667 91.9107 67.7127 92.214C68.2587 92.5087 68.6877 92.9333 68.9997 93.488C69.3204 94.0427 69.4807 94.6883 69.4807 95.425C69.4807 96.1617 69.3161 96.8117 68.9867 97.375C68.6661 97.9297 68.2284 98.3587 67.6737 98.662C67.1191 98.9653 66.5037 99.117 65.8277 99.117ZM65.8277 98.077C66.2524 98.077 66.6511 97.9773 67.0237 97.778C67.3964 97.5787 67.6954 97.2797 67.9207 96.881C68.1547 96.4823 68.2717 95.997 68.2717 95.425C68.2717 94.853 68.1591 94.3677 67.9337 93.969C67.7084 93.5703 67.4137 93.2757 67.0497 93.085C66.6857 92.8857 66.2914 92.786 65.8667 92.786C65.4334 92.786 65.0347 92.8857 64.6707 93.085C64.3154 93.2757 64.0294 93.5703 63.8127 93.969C63.5961 94.3677 63.4877 94.853 63.4877 95.425C63.4877 96.0057 63.5917 96.4953 63.7997 96.894C64.0164 97.2927 64.3024 97.5917 64.6577 97.791C65.0131 97.9817 65.4031 98.077 65.8277 98.077ZM72.2192 93.033C72.4272 92.6257 72.7218 92.3093 73.1032 92.084C73.4932 91.8587 73.9655 91.746 74.5202 91.746V92.968H74.2082C72.8822 92.968 72.2192 93.6873 72.2192 95.126V99H71.0362V91.876H72.2192V93.033ZM198.049 99.078C197.824 99.078 197.633 99 197.477 98.844C197.321 98.688 197.243 98.4973 197.243 98.272C197.243 98.0467 197.321 97.856 197.477 97.7C197.633 97.544 197.824 97.466 198.049 97.466C198.266 97.466 198.448 97.544 198.595 97.7C198.751 97.856 198.829 98.0467 198.829 98.272C198.829 98.4973 198.751 98.688 198.595 98.844C198.448 99 198.266 99.078 198.049 99.078Z" fill="#B6B6B6"/>
<path d="M82.8876 91.746C83.4249 91.746 83.9103 91.863 84.3436 92.097C84.7769 92.3223 85.1149 92.6647 85.3576 93.124C85.6089 93.5833 85.7346 94.1423 85.7346 94.801V99H84.5646V94.97C84.5646 94.2593 84.3869 93.7177 84.0316 93.345C83.6763 92.9637 83.1909 92.773 82.5756 92.773C81.9516 92.773 81.4533 92.968 81.0806 93.358C80.7166 93.748 80.5346 94.3157 80.5346 95.061V99H79.3516V89.38H80.5346V92.89C80.7686 92.526 81.0893 92.2443 81.4966 92.045C81.9126 91.8457 82.3763 91.746 82.8876 91.746ZM88.278 90.719C88.0527 90.719 87.862 90.641 87.706 90.485C87.55 90.329 87.472 90.1383 87.472 89.913C87.472 89.6877 87.55 89.497 87.706 89.341C87.862 89.185 88.0527 89.107 88.278 89.107C88.4947 89.107 88.6767 89.185 88.824 89.341C88.98 89.497 89.058 89.6877 89.058 89.913C89.058 90.1383 88.98 90.329 88.824 90.485C88.6767 90.641 88.4947 90.719 88.278 90.719ZM88.85 91.876V99H87.667V91.876H88.85ZM93.8042 91.759C94.4196 91.759 94.9569 91.8933 95.4162 92.162C95.8842 92.4307 96.2309 92.7687 96.4562 93.176V91.876H97.6522V99.156C97.6522 99.806 97.5136 100.382 97.2362 100.885C96.9589 101.396 96.5602 101.795 96.0402 102.081C95.5289 102.367 94.9309 102.51 94.2462 102.51C93.3102 102.51 92.5302 102.289 91.9062 101.847C91.2822 101.405 90.9139 100.803 90.8012 100.04H91.9712C92.1012 100.473 92.3699 100.82 92.7772 101.08C93.1846 101.349 93.6742 101.483 94.2462 101.483C94.8962 101.483 95.4249 101.279 95.8322 100.872C96.2482 100.465 96.4562 99.8927 96.4562 99.156V97.661C96.2222 98.077 95.8756 98.4237 95.4162 98.701C94.9569 98.9783 94.4196 99.117 93.8042 99.117C93.1716 99.117 92.5952 98.961 92.0752 98.649C91.5639 98.337 91.1609 97.8993 90.8662 97.336C90.5716 96.7727 90.4242 96.1313 90.4242 95.412C90.4242 94.684 90.5716 94.047 90.8662 93.501C91.1609 92.9463 91.5639 92.5173 92.0752 92.214C92.5952 91.9107 93.1716 91.759 93.8042 91.759ZM96.4562 95.425C96.4562 94.8877 96.3479 94.4197 96.1312 94.021C95.9146 93.6223 95.6199 93.319 95.2472 93.111C94.8832 92.8943 94.4802 92.786 94.0382 92.786C93.5962 92.786 93.1932 92.89 92.8292 93.098C92.4652 93.306 92.1749 93.6093 91.9582 94.008C91.7416 94.4067 91.6332 94.8747 91.6332 95.412C91.6332 95.958 91.7416 96.4347 91.9582 96.842C92.1749 97.2407 92.4652 97.5483 92.8292 97.765C93.1932 97.973 93.5962 98.077 94.0382 98.077C94.4802 98.077 94.8832 97.973 95.2472 97.765C95.6199 97.5483 95.9146 97.2407 96.1312 96.842C96.3479 96.4347 96.4562 95.9623 96.4562 95.425ZM103.187 91.746C103.725 91.746 104.21 91.863 104.643 92.097C105.077 92.3223 105.415 92.6647 105.657 93.124C105.909 93.5833 106.034 94.1423 106.034 94.801V99H104.864V94.97C104.864 94.2593 104.687 93.7177 104.331 93.345C103.976 92.9637 103.491 92.773 102.875 92.773C102.251 92.773 101.753 92.968 101.38 93.358C101.016 93.748 100.834 94.3157 100.834 95.061V99H99.6514V89.38H100.834V92.89C101.068 92.526 101.389 92.2443 101.796 92.045C102.212 91.8457 102.676 91.746 103.187 91.746ZM114.467 95.165C114.467 95.3903 114.454 95.6287 114.428 95.88H108.734C108.777 96.582 109.015 97.1323 109.449 97.531C109.891 97.921 110.424 98.116 111.048 98.116C111.559 98.116 111.984 97.999 112.322 97.765C112.668 97.5223 112.911 97.2017 113.05 96.803H114.324C114.133 97.4877 113.752 98.0467 113.18 98.48C112.608 98.9047 111.897 99.117 111.048 99.117C110.372 99.117 109.765 98.9653 109.228 98.662C108.699 98.3587 108.283 97.9297 107.98 97.375C107.676 96.8117 107.525 96.1617 107.525 95.425C107.525 94.6883 107.672 94.0427 107.967 93.488C108.261 92.9333 108.673 92.5087 109.202 92.214C109.739 91.9107 110.354 91.759 111.048 91.759C111.724 91.759 112.322 91.9063 112.842 92.201C113.362 92.4957 113.76 92.903 114.038 93.423C114.324 93.9343 114.467 94.515 114.467 95.165ZM113.245 94.918C113.245 94.4673 113.145 94.0817 112.946 93.761C112.746 93.4317 112.473 93.1847 112.127 93.02C111.789 92.8467 111.412 92.76 110.996 92.76C110.398 92.76 109.886 92.9507 109.462 93.332C109.046 93.7133 108.807 94.242 108.747 94.918H113.245ZM117.211 93.033C117.419 92.6257 117.714 92.3093 118.095 92.084C118.485 91.8587 118.958 91.746 119.512 91.746V92.968H119.2C117.874 92.968 117.211 93.6873 117.211 95.126V99H116.028V91.876H117.211V93.033ZM125.818 93.735V94.736H120.631V93.735H125.818ZM130.69 97.908L132.9 91.876H134.161L131.366 99H129.988L127.193 91.876H128.467L130.69 97.908ZM134.883 95.412C134.883 94.684 135.031 94.047 135.325 93.501C135.62 92.9463 136.023 92.5173 136.534 92.214C137.054 91.9107 137.631 91.759 138.263 91.759C138.887 91.759 139.429 91.8933 139.888 92.162C140.348 92.4307 140.69 92.7687 140.915 93.176V91.876H142.111V99H140.915V97.674C140.681 98.09 140.33 98.4367 139.862 98.714C139.403 98.9827 138.866 99.117 138.25 99.117C137.618 99.117 137.046 98.961 136.534 98.649C136.023 98.337 135.62 97.8993 135.325 97.336C135.031 96.7727 134.883 96.1313 134.883 95.412ZM140.915 95.425C140.915 94.8877 140.807 94.4197 140.59 94.021C140.374 93.6223 140.079 93.319 139.706 93.111C139.342 92.8943 138.939 92.786 138.497 92.786C138.055 92.786 137.652 92.89 137.288 93.098C136.924 93.306 136.634 93.6093 136.417 94.008C136.201 94.4067 136.092 94.8747 136.092 95.412C136.092 95.958 136.201 96.4347 136.417 96.842C136.634 97.2407 136.924 97.5483 137.288 97.765C137.652 97.973 138.055 98.077 138.497 98.077C138.939 98.077 139.342 97.973 139.706 97.765C140.079 97.5483 140.374 97.2407 140.59 96.842C140.807 96.4347 140.915 95.9623 140.915 95.425ZM145.293 89.38V99H144.11V89.38H145.293ZM153.628 91.876V99H152.445V97.947C152.219 98.311 151.903 98.597 151.496 98.805C151.097 99.0043 150.655 99.104 150.17 99.104C149.615 99.104 149.117 98.9913 148.675 98.766C148.233 98.532 147.882 98.1853 147.622 97.726C147.37 97.2667 147.245 96.7077 147.245 96.049V91.876H148.415V95.893C148.415 96.595 148.592 97.1367 148.948 97.518C149.303 97.8907 149.788 98.077 150.404 98.077C151.036 98.077 151.535 97.882 151.899 97.492C152.263 97.102 152.445 96.5343 152.445 95.789V91.876H153.628ZM162.125 95.165C162.125 95.3903 162.112 95.6287 162.086 95.88H156.392C156.435 96.582 156.674 97.1323 157.107 97.531C157.549 97.921 158.082 98.116 158.706 98.116C159.217 98.116 159.642 97.999 159.98 97.765C160.327 97.5223 160.569 97.2017 160.708 96.803H161.982C161.791 97.4877 161.41 98.0467 160.838 98.48C160.266 98.9047 159.555 99.117 158.706 99.117C158.03 99.117 157.423 98.9653 156.886 98.662C156.357 98.3587 155.941 97.9297 155.638 97.375C155.335 96.8117 155.183 96.1617 155.183 95.425C155.183 94.6883 155.33 94.0427 155.625 93.488C155.92 92.9333 156.331 92.5087 156.86 92.214C157.397 91.9107 158.013 91.759 158.706 91.759C159.382 91.759 159.98 91.9063 160.5 92.201C161.02 92.4957 161.419 92.903 161.696 93.423C161.982 93.9343 162.125 94.515 162.125 95.165ZM160.903 94.918C160.903 94.4673 160.803 94.0817 160.604 93.761C160.405 93.4317 160.132 93.1847 159.785 93.02C159.447 92.8467 159.07 92.76 158.654 92.76C158.056 92.76 157.545 92.9507 157.12 93.332C156.704 93.7133 156.466 94.242 156.405 94.918H160.903ZM176.642 91.876L174.419 99H173.197L171.481 93.345L169.765 99H168.543L166.307 91.876H167.516L169.154 97.856L170.922 91.876H172.131L173.86 97.869L175.472 91.876H176.642ZM180.923 99.117C180.256 99.117 179.649 98.9653 179.103 98.662C178.566 98.3587 178.141 97.9297 177.829 97.375C177.526 96.8117 177.374 96.1617 177.374 95.425C177.374 94.697 177.53 94.0557 177.842 93.501C178.163 92.9377 178.596 92.5087 179.142 92.214C179.688 91.9107 180.299 91.759 180.975 91.759C181.651 91.759 182.262 91.9107 182.808 92.214C183.354 92.5087 183.783 92.9333 184.095 93.488C184.416 94.0427 184.576 94.6883 184.576 95.425C184.576 96.1617 184.412 96.8117 184.082 97.375C183.762 97.9297 183.324 98.3587 182.769 98.662C182.215 98.9653 181.599 99.117 180.923 99.117ZM180.923 98.077C181.348 98.077 181.747 97.9773 182.119 97.778C182.492 97.5787 182.791 97.2797 183.016 96.881C183.25 96.4823 183.367 95.997 183.367 95.425C183.367 94.853 183.255 94.3677 183.029 93.969C182.804 93.5703 182.509 93.2757 182.145 93.085C181.781 92.8857 181.387 92.786 180.962 92.786C180.529 92.786 180.13 92.8857 179.766 93.085C179.411 93.2757 179.125 93.5703 178.908 93.969C178.692 94.3677 178.583 94.853 178.583 95.425C178.583 96.0057 178.687 96.4953 178.895 96.894C179.112 97.2927 179.398 97.5917 179.753 97.791C180.109 97.9817 180.499 98.077 180.923 98.077ZM187.315 93.033C187.523 92.6257 187.818 92.3093 188.199 92.084C188.589 91.8587 189.061 91.746 189.616 91.746V92.968H189.304C187.978 92.968 187.315 93.6873 187.315 95.126V99H186.132V91.876H187.315V93.033ZM194.959 99L192.164 95.854V99H190.981V89.38H192.164V95.035L194.907 91.876H196.558L193.204 95.425L196.571 99H194.959Z" fill="white"/>
<defs>
<filter id="filter0_b_327_464" x="-50" y="-50" width="401" height="235" filterUnits="userSpaceOnUse" color-interpolation-filters="sRGB">
<feFlood flood-opacity="0" result="BackgroundImageFix"/>
<feGaussianBlur in="BackgroundImageFix" stdDeviation="25"/>
<feComposite in2="SourceAlpha" operator="in" result="effect1_backgroundBlur_327_464"/>
<feBlend mode="normal" in="SourceGraphic" in2="effect1_backgroundBlur_327_464" result="shape"/>
</filter>
<linearGradient id="paint0_linear_327_464" x1="333.5" y1="276.5" x2="135" y2="28.5" gradientUnits="userSpaceOnUse">
<stop stop-color="#161616"/>
<stop offset="1" stop-color="#737373"/>
</linearGradient>
</defs>
</svg>
