<svg width="480" height="130" viewBox="0 0 480 130" fill="none" xmlns="http://www.w3.org/2000/svg">
<g filter="url(#filter0_b_327_412)">
<mask id="path-1-inside-1_327_412" fill="white">
<path fill-rule="evenodd" clip-rule="evenodd" d="M10 0C4.47715 0 0 4.47715 0 10V120C0 125.523 4.47714 130 9.99999 130H470C475.523 130 480 125.523 480 120V98.5938H465.25V93.6562H452.906C451.597 93.6543 450.343 93.1335 449.417 92.2079C448.492 91.2824 447.971 90.0277 447.969 88.7188V83.7812H433.156V88.7188H418.344V73.9062H433.156V78.8438H447.969V56.625C447.967 54.6613 447.186 52.7787 445.797 51.3902C444.409 50.0016 442.526 49.2207 440.562 49.2188V56.625C440.561 57.9339 440.04 59.1886 439.114 60.1142C438.189 61.0397 436.934 61.5605 435.625 61.5625H415.875C414.566 61.5605 413.311 61.0397 412.386 60.1142C411.46 59.1886 410.939 57.9339 410.938 56.625V36.875C410.939 35.5661 411.46 34.3114 412.386 33.3858C413.311 32.4603 414.566 31.9395 415.875 31.9375H435.625C436.934 31.9395 438.189 32.4603 439.114 33.3858C440.04 34.3114 440.561 35.5661 440.562 36.875V44.2812H465.25V39.3438H480V10C480 4.47715 475.523 0 470 0H10ZM480 54.1562H465.25V49.2188H450.376C452.008 51.3433 452.898 53.9456 452.906 56.625V66.5H465.25V61.5625H480V54.1562ZM480 76.375H465.25V71.4375H452.906V88.7188H465.25V83.7812H480V76.375ZM415.875 36.875V56.625H435.625V36.875H415.875ZM423.281 83.7812H428.219V78.8438H423.281V83.7812ZM475.125 88.7188H470.188V93.6562H475.125V88.7188ZM475.125 66.5H470.188V71.4375H475.125V66.5ZM475.125 44.2812H470.188V49.2188H475.125V44.2812Z"/>
</mask>
<path fill-rule="evenodd" clip-rule="evenodd" d="M10 0C4.47715 0 0 4.47715 0 10V120C0 125.523 4.47714 130 9.99999 130H470C475.523 130 480 125.523 480 120V98.5938H465.25V93.6562H452.906C451.597 93.6543 450.343 93.1335 449.417 92.2079C448.492 91.2824 447.971 90.0277 447.969 88.7188V83.7812H433.156V88.7188H418.344V73.9062H433.156V78.8438H447.969V56.625C447.967 54.6613 447.186 52.7787 445.797 51.3902C444.409 50.0016 442.526 49.2207 440.562 49.2188V56.625C440.561 57.9339 440.04 59.1886 439.114 60.1142C438.189 61.0397 436.934 61.5605 435.625 61.5625H415.875C414.566 61.5605 413.311 61.0397 412.386 60.1142C411.46 59.1886 410.939 57.9339 410.938 56.625V36.875C410.939 35.5661 411.46 34.3114 412.386 33.3858C413.311 32.4603 414.566 31.9395 415.875 31.9375H435.625C436.934 31.9395 438.189 32.4603 439.114 33.3858C440.04 34.3114 440.561 35.5661 440.562 36.875V44.2812H465.25V39.3438H480V10C480 4.47715 475.523 0 470 0H10ZM480 54.1562H465.25V49.2188H450.376C452.008 51.3433 452.898 53.9456 452.906 56.625V66.5H465.25V61.5625H480V54.1562ZM480 76.375H465.25V71.4375H452.906V88.7188H465.25V83.7812H480V76.375ZM415.875 36.875V56.625H435.625V36.875H415.875ZM423.281 83.7812H428.219V78.8438H423.281V83.7812ZM475.125 88.7188H470.188V93.6562H475.125V88.7188ZM475.125 66.5H470.188V71.4375H475.125V66.5ZM475.125 44.2812H470.188V49.2188H475.125V44.2812Z" fill="url(#paint0_linear_327_412)" fill-opacity="0.5"/>
<path d="M480 98.5938H481V97.5938H480V98.5938ZM465.25 98.5938H464.25V99.5938H465.25V98.5938ZM465.25 93.6562H466.25V92.6562H465.25V93.6562ZM452.906 93.6562L452.905 94.6562H452.906V93.6562ZM449.417 92.2079L450.124 91.5008L450.124 91.5008L449.417 92.2079ZM447.969 88.7188L446.969 88.7188L446.969 88.7202L447.969 88.7188ZM447.969 83.7812H448.969V82.7812H447.969V83.7812ZM433.156 83.7812V82.7812H432.156V83.7812H433.156ZM433.156 88.7188V89.7188H434.156V88.7188H433.156ZM418.344 88.7188H417.344V89.7188H418.344V88.7188ZM418.344 73.9062V72.9062H417.344V73.9062H418.344ZM433.156 73.9062H434.156V72.9062H433.156V73.9062ZM433.156 78.8438H432.156V79.8438H433.156V78.8438ZM447.969 78.8438V79.8438H448.969V78.8438H447.969ZM447.969 56.625L448.969 56.625L448.969 56.624L447.969 56.625ZM440.562 49.2188L440.563 48.2188L439.562 48.2178V49.2188H440.562ZM440.562 56.625L441.562 56.6265V56.625H440.562ZM435.625 61.5625V62.5625L435.626 62.5625L435.625 61.5625ZM415.875 61.5625L415.874 62.5625H415.875V61.5625ZM410.938 56.625L409.937 56.625L409.938 56.6265L410.938 56.625ZM410.938 36.875L409.938 36.8735V36.875H410.938ZM412.386 33.3858L411.679 32.6787L411.679 32.6787L412.386 33.3858ZM415.875 31.9375L415.875 30.9375L415.874 30.9375L415.875 31.9375ZM435.625 31.9375L435.626 30.9375H435.625V31.9375ZM439.114 33.3858L439.821 32.6787L439.821 32.6787L439.114 33.3858ZM440.562 36.875L441.563 36.875L441.562 36.8735L440.562 36.875ZM440.562 44.2812H439.562V45.2812H440.562V44.2812ZM465.25 44.2812V45.2812H466.25V44.2812H465.25ZM465.25 39.3438V38.3438H464.25V39.3438H465.25ZM480 39.3438V40.3438H481V39.3438H480ZM465.25 54.1562H464.25V55.1562H465.25V54.1562ZM480 54.1562H481V53.1562H480V54.1562ZM465.25 49.2188H466.25V48.2188H465.25V49.2188ZM450.376 49.2188V48.2188H448.346L449.583 49.8281L450.376 49.2188ZM452.906 56.625L453.906 56.625L453.906 56.6217L452.906 56.625ZM452.906 66.5H451.906V67.5H452.906V66.5ZM465.25 66.5V67.5H466.25V66.5H465.25ZM465.25 61.5625V60.5625H464.25V61.5625H465.25ZM480 61.5625V62.5625H481V61.5625H480ZM465.25 76.375H464.25V77.375H465.25V76.375ZM480 76.375H481V75.375H480V76.375ZM465.25 71.4375H466.25V70.4375H465.25V71.4375ZM452.906 71.4375V70.4375H451.906V71.4375H452.906ZM452.906 88.7188H451.906V89.7188H452.906V88.7188ZM465.25 88.7188V89.7188H466.25V88.7188H465.25ZM465.25 83.7812V82.7812H464.25V83.7812H465.25ZM480 83.7812V84.7812H481V83.7812H480ZM415.875 56.625H414.875V57.625H415.875V56.625ZM415.875 36.875V35.875H414.875V36.875H415.875ZM435.625 56.625V57.625H436.625V56.625H435.625ZM435.625 36.875H436.625V35.875H435.625V36.875ZM428.219 83.7812V84.7812H429.219V83.7812H428.219ZM423.281 83.7812H422.281V84.7812H423.281V83.7812ZM428.219 78.8438H429.219V77.8438H428.219V78.8438ZM423.281 78.8438V77.8438H422.281V78.8438H423.281ZM470.188 88.7188V87.7188H469.188V88.7188H470.188ZM475.125 88.7188H476.125V87.7188H475.125V88.7188ZM470.188 93.6562H469.188V94.6562H470.188V93.6562ZM475.125 93.6562V94.6562H476.125V93.6562H475.125ZM470.188 66.5V65.5H469.188V66.5H470.188ZM475.125 66.5H476.125V65.5H475.125V66.5ZM470.188 71.4375H469.188V72.4375H470.188V71.4375ZM475.125 71.4375V72.4375H476.125V71.4375H475.125ZM470.188 44.2812V43.2812H469.188V44.2812H470.188ZM475.125 44.2812H476.125V43.2812H475.125V44.2812ZM470.188 49.2188H469.188V50.2188H470.188V49.2188ZM475.125 49.2188V50.2188H476.125V49.2188H475.125ZM1 10C1 5.02944 5.02944 1 10 1V-1C3.92487 -1 -1 3.92487 -1 10H1ZM1 120V10H-1V120H1ZM9.99999 129C5.02943 129 1 124.971 1 120H-1C-1 126.075 3.92486 131 9.99999 131V129ZM470 129H9.99999V131H470V129ZM479 120C479 124.971 474.971 129 470 129V131C476.075 131 481 126.075 481 120H479ZM479 98.5938V120H481V98.5938H479ZM465.25 99.5938H480V97.5938H465.25V99.5938ZM464.25 93.6562V98.5938H466.25V93.6562H464.25ZM452.906 94.6562H465.25V92.6562H452.906V94.6562ZM448.71 92.915C449.823 94.0277 451.331 94.6539 452.905 94.6562L452.908 92.6563C451.864 92.6547 450.863 92.2392 450.124 91.5008L448.71 92.915ZM446.969 88.7202C446.971 90.2939 447.597 91.8023 448.71 92.915L450.124 91.5008C449.386 90.7625 448.97 89.7615 448.969 88.7173L446.969 88.7202ZM446.969 83.7812V88.7188H448.969V83.7812H446.969ZM433.156 84.7812H447.969V82.7812H433.156V84.7812ZM434.156 88.7188V83.7812H432.156V88.7188H434.156ZM418.344 89.7188H433.156V87.7188H418.344V89.7188ZM417.344 73.9062V88.7188H419.344V73.9062H417.344ZM433.156 72.9062H418.344V74.9062H433.156V72.9062ZM434.156 78.8438V73.9062H432.156V78.8438H434.156ZM447.969 77.8438H433.156V79.8438H447.969V77.8438ZM446.969 56.625V78.8438H448.969V56.625H446.969ZM445.09 52.0973C446.291 53.2985 446.967 54.9272 446.969 56.626L448.969 56.624C448.967 54.3955 448.08 52.2589 446.504 50.683L445.09 52.0973ZM440.562 50.2187C442.26 50.2204 443.889 50.896 445.09 52.0973L446.504 50.683C444.929 49.1072 442.792 48.221 440.563 48.2188L440.562 50.2187ZM441.562 56.625V49.2188H439.562V56.625H441.562ZM439.821 60.8213C440.934 59.7086 441.56 58.2001 441.562 56.6265L439.563 56.6235C439.561 57.6677 439.145 58.6687 438.407 59.4071L439.821 60.8213ZM435.626 62.5625C437.2 62.5601 438.709 61.934 439.821 60.8213L438.407 59.4071C437.669 60.1454 436.668 60.5609 435.624 60.5625L435.626 62.5625ZM415.875 62.5625H435.625V60.5625H415.875V62.5625ZM411.679 60.8213C412.791 61.934 414.3 62.5601 415.874 62.5625L415.876 60.5625C414.832 60.5609 413.831 60.1454 413.093 59.4071L411.679 60.8213ZM409.938 56.6265C409.94 58.2001 410.566 59.7086 411.679 60.8213L413.093 59.4071C412.355 58.6687 411.939 57.6677 411.937 56.6235L409.938 56.6265ZM409.938 36.875V56.625H411.938V36.875H409.938ZM411.679 32.6787C410.566 33.7914 409.94 35.2999 409.938 36.8735L411.937 36.8765C411.939 35.8323 412.355 34.8313 413.093 34.0929L411.679 32.6787ZM415.874 30.9375C414.3 30.9399 412.791 31.566 411.679 32.6787L413.093 34.0929C413.831 33.3546 414.832 32.9391 415.876 32.9375L415.874 30.9375ZM435.625 30.9375H415.875V32.9375H435.625V30.9375ZM439.821 32.6787C438.709 31.566 437.2 30.9399 435.626 30.9375L435.624 32.9375C436.668 32.9391 437.669 33.3546 438.407 34.0929L439.821 32.6787ZM441.562 36.8735C441.56 35.2999 440.934 33.7914 439.821 32.6787L438.407 34.0929C439.145 34.8313 439.561 35.8323 439.563 36.8765L441.562 36.8735ZM441.562 44.2812V36.875H439.562V44.2812H441.562ZM465.25 43.2812H440.562V45.2812H465.25V43.2812ZM464.25 39.3438V44.2812H466.25V39.3438H464.25ZM480 38.3438H465.25V40.3438H480V38.3438ZM479 10V39.3438H481V10H479ZM470 1C474.971 1 479 5.02944 479 10H481C481 3.92487 476.075 -1 470 -1V1ZM10 1H470V-1H10V1ZM465.25 55.1562H480V53.1562H465.25V55.1562ZM464.25 49.2188V54.1562H466.25V49.2188H464.25ZM450.376 50.2188H465.25V48.2188H450.376V50.2188ZM453.906 56.6217C453.897 53.7231 452.935 50.9079 451.169 48.6094L449.583 49.8281C451.082 51.7788 451.898 54.1681 451.906 56.6283L453.906 56.6217ZM453.906 66.5V56.625H451.906V66.5H453.906ZM465.25 65.5H452.906V67.5H465.25V65.5ZM464.25 61.5625V66.5H466.25V61.5625H464.25ZM480 60.5625H465.25V62.5625H480V60.5625ZM479 54.1562V61.5625H481V54.1562H479ZM465.25 77.375H480V75.375H465.25V77.375ZM464.25 71.4375V76.375H466.25V71.4375H464.25ZM452.906 72.4375H465.25V70.4375H452.906V72.4375ZM453.906 88.7188V71.4375H451.906V88.7188H453.906ZM465.25 87.7188H452.906V89.7188H465.25V87.7188ZM464.25 83.7812V88.7188H466.25V83.7812H464.25ZM480 82.7812H465.25V84.7812H480V82.7812ZM479 76.375V83.7812H481V76.375H479ZM416.875 56.625V36.875H414.875V56.625H416.875ZM435.625 55.625H415.875V57.625H435.625V55.625ZM434.625 36.875V56.625H436.625V36.875H434.625ZM415.875 37.875H435.625V35.875H415.875V37.875ZM428.219 82.7812H423.281V84.7812H428.219V82.7812ZM427.219 78.8438V83.7812H429.219V78.8438H427.219ZM423.281 79.8438H428.219V77.8438H423.281V79.8438ZM424.281 83.7812V78.8438H422.281V83.7812H424.281ZM470.188 89.7188H475.125V87.7188H470.188V89.7188ZM471.188 93.6562V88.7188H469.188V93.6562H471.188ZM475.125 92.6562H470.188V94.6562H475.125V92.6562ZM474.125 88.7188V93.6562H476.125V88.7188H474.125ZM470.188 67.5H475.125V65.5H470.188V67.5ZM471.188 71.4375V66.5H469.188V71.4375H471.188ZM475.125 70.4375H470.188V72.4375H475.125V70.4375ZM474.125 66.5V71.4375H476.125V66.5H474.125ZM470.188 45.2812H475.125V43.2812H470.188V45.2812ZM471.188 49.2188V44.2812H469.188V49.2188H471.188ZM475.125 48.2188H470.188V50.2188H475.125V48.2188ZM474.125 44.2812V49.2188H476.125V44.2812H474.125Z" fill="#7B7B7B" mask="url(#path-1-inside-1_327_412)"/>
</g>
<path d="M29.247 31.8886H22.255L20.967 35.4536H18.759L24.555 19.5146H26.97L32.743 35.4536H30.535L29.247 31.8886ZM28.649 30.1866L25.751 22.0906L22.853 30.1866H28.649ZM46.447 22.8496V35.4536H44.354V33.5906C43.9554 34.2346 43.3957 34.7406 42.675 35.1086C41.9697 35.4613 41.1877 35.6376 40.329 35.6376C39.3477 35.6376 38.466 35.4383 37.684 35.0396C36.902 34.6256 36.281 34.0123 35.821 33.1996C35.3764 32.3869 35.154 31.3979 35.154 30.2326V22.8496H37.224V29.9566C37.224 31.1986 37.5384 32.1569 38.167 32.8316C38.7957 33.4909 39.6544 33.8206 40.743 33.8206C41.8624 33.8206 42.744 33.4756 43.388 32.7856C44.032 32.0956 44.354 31.0913 44.354 29.7726V22.8496H46.447ZM52.534 24.5746V32.0036C52.534 32.6169 52.6643 33.0539 52.925 33.3146C53.1856 33.5599 53.638 33.6826 54.282 33.6826H55.823V35.4536H53.937C52.7716 35.4536 51.8976 35.1853 51.315 34.6486C50.7323 34.1119 50.441 33.2303 50.441 32.0036V24.5746H48.808V22.8496H50.441V19.6756H52.534V22.8496H55.823V24.5746H52.534ZM63.8559 35.6606C62.6752 35.6606 61.6019 35.3923 60.6359 34.8556C59.6852 34.3189 58.9339 33.5599 58.3819 32.5786C57.8452 31.5819 57.5769 30.4319 57.5769 29.1286C57.5769 27.8406 57.8529 26.7059 58.4049 25.7246C58.9722 24.7279 59.7389 23.9689 60.7049 23.4476C61.6709 22.9109 62.7519 22.6426 63.9479 22.6426C65.1439 22.6426 66.2249 22.9109 67.1909 23.4476C68.1569 23.9689 68.9159 24.7203 69.4679 25.7016C70.0352 26.6829 70.3189 27.8253 70.3189 29.1286C70.3189 30.4319 70.0276 31.5819 69.4449 32.5786C68.8776 33.5599 68.1032 34.3189 67.1219 34.8556C66.1406 35.3923 65.0519 35.6606 63.8559 35.6606ZM63.8559 33.8206C64.6072 33.8206 65.3126 33.6443 65.9719 33.2916C66.6312 32.9389 67.1602 32.4099 67.5589 31.7046C67.9729 30.9993 68.1799 30.1406 68.1799 29.1286C68.1799 28.1166 67.9806 27.2579 67.5819 26.5526C67.1832 25.8473 66.6619 25.3259 66.0179 24.9886C65.3739 24.6359 64.6762 24.4596 63.9249 24.4596C63.1582 24.4596 62.4529 24.6359 61.8089 24.9886C61.1802 25.3259 60.6742 25.8473 60.2909 26.5526C59.9076 27.2579 59.7159 28.1166 59.7159 29.1286C59.7159 30.1559 59.8999 31.0223 60.2679 31.7276C60.6512 32.4329 61.1572 32.9619 61.7859 33.3146C62.4146 33.6519 63.1046 33.8206 63.8559 33.8206ZM88.2278 22.6196C89.2091 22.6196 90.0831 22.8266 90.8498 23.2406C91.6165 23.6393 92.2221 24.2449 92.6668 25.0576C93.1115 25.8703 93.3338 26.8593 93.3338 28.0246V35.4536H91.2638V28.3236C91.2638 27.0663 90.9495 26.1079 90.3208 25.4486C89.7075 24.7739 88.8718 24.4366 87.8138 24.4366C86.7251 24.4366 85.8588 24.7893 85.2148 25.4946C84.5708 26.1846 84.2488 27.1889 84.2488 28.5076V35.4536H82.1788V28.3236C82.1788 27.0663 81.8645 26.1079 81.2358 25.4486C80.6225 24.7739 79.7868 24.4366 78.7288 24.4366C77.6401 24.4366 76.7738 24.7893 76.1298 25.4946C75.4858 26.1846 75.1638 27.1889 75.1638 28.5076V35.4536H73.0708V22.8496H75.1638V24.6666C75.5778 24.0073 76.1298 23.5013 76.8198 23.1486C77.5251 22.7959 78.2995 22.6196 79.1428 22.6196C80.2008 22.6196 81.1361 22.8573 81.9488 23.3326C82.7615 23.8079 83.3671 24.5056 83.7658 25.4256C84.1185 24.5363 84.7011 23.8463 85.5138 23.3556C86.3265 22.8649 87.2311 22.6196 88.2278 22.6196ZM95.9851 29.1056C95.9851 27.8176 96.2458 26.6906 96.7671 25.7246C97.2884 24.7433 98.0014 23.9843 98.9061 23.4476C99.8261 22.9109 100.846 22.6426 101.965 22.6426C103.069 22.6426 104.027 22.8803 104.84 23.3556C105.653 23.8309 106.258 24.4289 106.657 25.1496V22.8496H108.773V35.4536H106.657V33.1076C106.243 33.8436 105.622 34.4569 104.794 34.9476C103.981 35.4229 103.031 35.6606 101.942 35.6606C100.823 35.6606 99.8108 35.3846 98.9061 34.8326C98.0014 34.2806 97.2884 33.5063 96.7671 32.5096C96.2458 31.5129 95.9851 30.3783 95.9851 29.1056ZM106.657 29.1286C106.657 28.1779 106.465 27.3499 106.082 26.6446C105.699 25.9393 105.177 25.4026 104.518 25.0346C103.874 24.6513 103.161 24.4596 102.379 24.4596C101.597 24.4596 100.884 24.6436 100.24 25.0116C99.5961 25.3796 99.0824 25.9163 98.6991 26.6216C98.3158 27.3269 98.1241 28.1549 98.1241 29.1056C98.1241 30.0716 98.3158 30.9149 98.6991 31.6356C99.0824 32.3409 99.5961 32.8853 100.24 33.2686C100.884 33.6366 101.597 33.8206 102.379 33.8206C103.161 33.8206 103.874 33.6366 104.518 33.2686C105.177 32.8853 105.699 32.3409 106.082 31.6356C106.465 30.9149 106.657 30.0793 106.657 29.1286ZM114.863 24.5746V32.0036C114.863 32.6169 114.993 33.0539 115.254 33.3146C115.515 33.5599 115.967 33.6826 116.611 33.6826H118.152V35.4536H116.266C115.101 35.4536 114.227 35.1853 113.644 34.6486C113.061 34.1119 112.77 33.2303 112.77 32.0036V24.5746H111.137V22.8496H112.77V19.6756H114.863V22.8496H118.152V24.5746H114.863ZM132.188 28.6686C132.188 29.0673 132.165 29.4889 132.119 29.9336H122.045C122.122 31.1756 122.543 32.1493 123.31 32.8546C124.092 33.5446 125.035 33.8896 126.139 33.8896C127.044 33.8896 127.795 33.6826 128.393 33.2686C129.006 32.8393 129.436 32.2719 129.681 31.5666H131.935C131.598 32.7779 130.923 33.7669 129.911 34.5336C128.899 35.2849 127.642 35.6606 126.139 35.6606C124.943 35.6606 123.87 35.3923 122.919 34.8556C121.984 34.3189 121.248 33.5599 120.711 32.5786C120.174 31.5819 119.906 30.4319 119.906 29.1286C119.906 27.8253 120.167 26.6829 120.688 25.7016C121.209 24.7203 121.938 23.9689 122.873 23.4476C123.824 22.9109 124.912 22.6426 126.139 22.6426C127.335 22.6426 128.393 22.9033 129.313 23.4246C130.233 23.9459 130.938 24.6666 131.429 25.5866C131.935 26.4913 132.188 27.5186 132.188 28.6686ZM130.026 28.2316C130.026 27.4343 129.85 26.7519 129.497 26.1846C129.144 25.6019 128.661 25.1649 128.048 24.8736C127.45 24.5669 126.783 24.4136 126.047 24.4136C124.989 24.4136 124.084 24.7509 123.333 25.4256C122.597 26.1003 122.175 27.0356 122.068 28.2316H130.026ZM157.344 19.5376V35.4536H155.251V23.5856L149.961 35.4536H148.489L143.176 23.5626V35.4536H141.083V19.5376H143.337L149.225 32.6936L155.113 19.5376H157.344ZM166.39 35.6606C165.209 35.6606 164.136 35.3923 163.17 34.8556C162.219 34.3189 161.468 33.5599 160.916 32.5786C160.379 31.5819 160.111 30.4319 160.111 29.1286C160.111 27.8406 160.387 26.7059 160.939 25.7246C161.506 24.7279 162.273 23.9689 163.239 23.4476C164.205 22.9109 165.286 22.6426 166.482 22.6426C167.678 22.6426 168.759 22.9109 169.725 23.4476C170.691 23.9689 171.45 24.7203 172.002 25.7016C172.569 26.6829 172.853 27.8253 172.853 29.1286C172.853 30.4319 172.562 31.5819 171.979 32.5786C171.412 33.5599 170.637 34.3189 169.656 34.8556C168.675 35.3923 167.586 35.6606 166.39 35.6606ZM166.39 33.8206C167.141 33.8206 167.847 33.6443 168.506 33.2916C169.165 32.9389 169.694 32.4099 170.093 31.7046C170.507 30.9993 170.714 30.1406 170.714 29.1286C170.714 28.1166 170.515 27.2579 170.116 26.5526C169.717 25.8473 169.196 25.3259 168.552 24.9886C167.908 24.6359 167.21 24.4596 166.459 24.4596C165.692 24.4596 164.987 24.6359 164.343 24.9886C163.714 25.3259 163.208 25.8473 162.825 26.5526C162.442 27.2579 162.25 28.1166 162.25 29.1286C162.25 30.1559 162.434 31.0223 162.802 31.7276C163.185 32.4329 163.691 32.9619 164.32 33.3146C164.949 33.6519 165.639 33.8206 166.39 33.8206ZM177.698 24.8966C178.066 24.1759 178.587 23.6163 179.262 23.2176C179.952 22.8189 180.788 22.6196 181.769 22.6196V24.7816H181.217C178.871 24.7816 177.698 26.0543 177.698 28.5996V35.4536H175.605V22.8496H177.698V24.8966ZM195.685 28.6686C195.685 29.0673 195.662 29.4889 195.616 29.9336H185.542C185.619 31.1756 186.04 32.1493 186.807 32.8546C187.589 33.5446 188.532 33.8896 189.636 33.8896C190.541 33.8896 191.292 33.6826 191.89 33.2686C192.503 32.8393 192.933 32.2719 193.178 31.5666H195.432C195.095 32.7779 194.42 33.7669 193.408 34.5336C192.396 35.2849 191.139 35.6606 189.636 35.6606C188.44 35.6606 187.367 35.3923 186.416 34.8556C185.481 34.3189 184.745 33.5599 184.208 32.5786C183.671 31.5819 183.403 30.4319 183.403 29.1286C183.403 27.8253 183.664 26.6829 184.185 25.7016C184.706 24.7203 185.435 23.9689 186.37 23.4476C187.321 22.9109 188.409 22.6426 189.636 22.6426C190.832 22.6426 191.89 22.9033 192.81 23.4246C193.73 23.9459 194.435 24.6666 194.926 25.5866C195.432 26.4913 195.685 27.5186 195.685 28.6686ZM193.523 28.2316C193.523 27.4343 193.347 26.7519 192.994 26.1846C192.641 25.6019 192.158 25.1649 191.545 24.8736C190.947 24.5669 190.28 24.4136 189.544 24.4136C188.486 24.4136 187.581 24.7509 186.83 25.4256C186.094 26.1003 185.672 27.0356 185.565 28.2316H193.523ZM215.298 24.1146C215.298 25.4486 214.838 26.5603 213.918 27.4496C213.013 28.3236 211.625 28.7606 209.755 28.7606H206.673V35.4536H204.58V19.4226H209.755C211.564 19.4226 212.936 19.8596 213.872 20.7336C214.822 21.6076 215.298 22.7346 215.298 24.1146ZM209.755 27.0356C210.92 27.0356 211.779 26.7826 212.331 26.2766C212.883 25.7706 213.159 25.0499 213.159 24.1146C213.159 22.1366 212.024 21.1476 209.755 21.1476H206.673V27.0356H209.755ZM219.992 24.8966C220.36 24.1759 220.881 23.6163 221.556 23.2176C222.246 22.8189 223.082 22.6196 224.063 22.6196V24.7816H223.511C221.165 24.7816 219.992 26.0543 219.992 28.5996V35.4536H217.899V22.8496H219.992V24.8966ZM231.976 35.6606C230.795 35.6606 229.722 35.3923 228.756 34.8556C227.805 34.3189 227.054 33.5599 226.502 32.5786C225.965 31.5819 225.697 30.4319 225.697 29.1286C225.697 27.8406 225.973 26.7059 226.525 25.7246C227.092 24.7279 227.859 23.9689 228.825 23.4476C229.791 22.9109 230.872 22.6426 232.068 22.6426C233.264 22.6426 234.345 22.9109 235.311 23.4476C236.277 23.9689 237.036 24.7203 237.588 25.7016C238.155 26.6829 238.439 27.8253 238.439 29.1286C238.439 30.4319 238.148 31.5819 237.565 32.5786C236.998 33.5599 236.223 34.3189 235.242 34.8556C234.261 35.3923 233.172 35.6606 231.976 35.6606ZM231.976 33.8206C232.727 33.8206 233.433 33.6443 234.092 33.2916C234.751 32.9389 235.28 32.4099 235.679 31.7046C236.093 30.9993 236.3 30.1406 236.3 29.1286C236.3 28.1166 236.101 27.2579 235.702 26.5526C235.303 25.8473 234.782 25.3259 234.138 24.9886C233.494 24.6359 232.796 24.4596 232.045 24.4596C231.278 24.4596 230.573 24.6359 229.929 24.9886C229.3 25.3259 228.794 25.8473 228.411 26.5526C228.028 27.2579 227.836 28.1166 227.836 29.1286C227.836 30.1559 228.02 31.0223 228.388 31.7276C228.771 32.4329 229.277 32.9619 229.906 33.3146C230.535 33.6519 231.225 33.8206 231.976 33.8206ZM240.409 29.1286C240.409 27.8253 240.67 26.6906 241.191 25.7246C241.712 24.7433 242.433 23.9843 243.353 23.4476C244.288 22.9109 245.354 22.6426 246.55 22.6426C248.099 22.6426 249.371 23.0183 250.368 23.7696C251.38 24.5209 252.047 25.5636 252.369 26.8976H250.115C249.9 26.1309 249.479 25.5253 248.85 25.0806C248.237 24.6359 247.47 24.4136 246.55 24.4136C245.354 24.4136 244.388 24.8276 243.652 25.6556C242.916 26.4683 242.548 27.6259 242.548 29.1286C242.548 30.6466 242.916 31.8196 243.652 32.6476C244.388 33.4756 245.354 33.8896 246.55 33.8896C247.47 33.8896 248.237 33.6749 248.85 33.2456C249.463 32.8163 249.885 32.2029 250.115 31.4056H252.369C252.032 32.6936 251.357 33.7286 250.345 34.5106C249.333 35.2773 248.068 35.6606 246.55 35.6606C245.354 35.6606 244.288 35.3923 243.353 34.8556C242.433 34.3189 241.712 33.5599 241.191 32.5786C240.67 31.5973 240.409 30.4473 240.409 29.1286ZM266.662 28.6686C266.662 29.0673 266.639 29.4889 266.593 29.9336H256.519C256.595 31.1756 257.017 32.1493 257.784 32.8546C258.566 33.5446 259.509 33.8896 260.613 33.8896C261.517 33.8896 262.269 33.6826 262.867 33.2686C263.48 32.8393 263.909 32.2719 264.155 31.5666H266.409C266.071 32.7779 265.397 33.7669 264.385 34.5336C263.373 35.2849 262.115 35.6606 260.613 35.6606C259.417 35.6606 258.343 35.3923 257.393 34.8556C256.457 34.3189 255.721 33.5599 255.185 32.5786C254.648 31.5819 254.38 30.4319 254.38 29.1286C254.38 27.8253 254.64 26.6829 255.162 25.7016C255.683 24.7203 256.411 23.9689 257.347 23.4476C258.297 22.9109 259.386 22.6426 260.613 22.6426C261.809 22.6426 262.867 22.9033 263.787 23.4246C264.707 23.9459 265.412 24.6666 265.903 25.5866C266.409 26.4913 266.662 27.5186 266.662 28.6686ZM264.5 28.2316C264.5 27.4343 264.323 26.7519 263.971 26.1846C263.618 25.6019 263.135 25.1649 262.522 24.8736C261.924 24.5669 261.257 24.4136 260.521 24.4136C259.463 24.4136 258.558 24.7509 257.807 25.4256C257.071 26.1003 256.649 27.0356 256.542 28.2316H264.5ZM273.886 35.6606C272.92 35.6606 272.054 35.4996 271.287 35.1776C270.521 34.8403 269.915 34.3803 269.47 33.7976C269.026 33.1996 268.78 32.5173 268.734 31.7506H270.896C270.958 32.3793 271.249 32.8929 271.77 33.2916C272.307 33.6903 273.005 33.8896 273.863 33.8896C274.661 33.8896 275.289 33.7133 275.749 33.3606C276.209 33.0079 276.439 32.5633 276.439 32.0266C276.439 31.4746 276.194 31.0683 275.703 30.8076C275.213 30.5316 274.454 30.2633 273.426 30.0026C272.491 29.7573 271.724 29.5119 271.126 29.2666C270.544 29.0059 270.038 28.6303 269.608 28.1396C269.194 27.6336 268.987 26.9743 268.987 26.1616C268.987 25.5176 269.179 24.9273 269.562 24.3906C269.946 23.8539 270.49 23.4323 271.195 23.1256C271.901 22.8036 272.706 22.6426 273.61 22.6426C275.006 22.6426 276.133 22.9953 276.991 23.7006C277.85 24.4059 278.31 25.3719 278.371 26.5986H276.278C276.232 25.9393 275.964 25.4103 275.473 25.0116C274.998 24.6129 274.354 24.4136 273.541 24.4136C272.79 24.4136 272.192 24.5746 271.747 24.8966C271.303 25.2186 271.08 25.6403 271.08 26.1616C271.08 26.5756 271.211 26.9206 271.471 27.1966C271.747 27.4573 272.085 27.6719 272.483 27.8406C272.897 27.9939 273.465 28.1703 274.185 28.3696C275.09 28.6149 275.826 28.8603 276.393 29.1056C276.961 29.3356 277.444 29.6883 277.842 30.1636C278.256 30.6389 278.471 31.2599 278.486 32.0266C278.486 32.7166 278.295 33.3376 277.911 33.8896C277.528 34.4416 276.984 34.8786 276.278 35.2006C275.588 35.5073 274.791 35.6606 273.886 35.6606ZM285.903 35.6606C284.937 35.6606 284.071 35.4996 283.304 35.1776C282.537 34.8403 281.932 34.3803 281.487 33.7976C281.042 33.1996 280.797 32.5173 280.751 31.7506H282.913C282.974 32.3793 283.266 32.8929 283.787 33.2916C284.324 33.6903 285.021 33.8896 285.88 33.8896C286.677 33.8896 287.306 33.7133 287.766 33.3606C288.226 33.0079 288.456 32.5633 288.456 32.0266C288.456 31.4746 288.211 31.0683 287.72 30.8076C287.229 30.5316 286.47 30.2633 285.443 30.0026C284.508 29.7573 283.741 29.5119 283.143 29.2666C282.56 29.0059 282.054 28.6303 281.625 28.1396C281.211 27.6336 281.004 26.9743 281.004 26.1616C281.004 25.5176 281.196 24.9273 281.579 24.3906C281.962 23.8539 282.507 23.4323 283.212 23.1256C283.917 22.8036 284.722 22.6426 285.627 22.6426C287.022 22.6426 288.149 22.9953 289.008 23.7006C289.867 24.4059 290.327 25.3719 290.388 26.5986H288.295C288.249 25.9393 287.981 25.4103 287.49 25.0116C287.015 24.6129 286.371 24.4136 285.558 24.4136C284.807 24.4136 284.209 24.5746 283.764 24.8966C283.319 25.2186 283.097 25.6403 283.097 26.1616C283.097 26.5756 283.227 26.9206 283.488 27.1966C283.764 27.4573 284.101 27.6719 284.5 27.8406C284.914 27.9939 285.481 28.1703 286.202 28.3696C287.107 28.6149 287.843 28.8603 288.41 29.1056C288.977 29.3356 289.46 29.6883 289.859 30.1636C290.273 30.6389 290.488 31.2599 290.503 32.0266C290.503 32.7166 290.311 33.3376 289.928 33.8896C289.545 34.4416 289 34.8786 288.295 35.2006C287.605 35.5073 286.808 35.6606 285.903 35.6606ZM304.958 28.6686C304.958 29.0673 304.935 29.4889 304.889 29.9336H294.815C294.891 31.1756 295.313 32.1493 296.08 32.8546C296.862 33.5446 297.805 33.8896 298.909 33.8896C299.813 33.8896 300.565 33.6826 301.163 33.2686C301.776 32.8393 302.205 32.2719 302.451 31.5666H304.705C304.367 32.7779 303.693 33.7669 302.681 34.5336C301.669 35.2849 300.411 35.6606 298.909 35.6606C297.713 35.6606 296.639 35.3923 295.689 34.8556C294.753 34.3189 294.017 33.5599 293.481 32.5786C292.944 31.5819 292.676 30.4319 292.676 29.1286C292.676 27.8253 292.936 26.6829 293.458 25.7016C293.979 24.7203 294.707 23.9689 295.643 23.4476C296.593 22.9109 297.682 22.6426 298.909 22.6426C300.105 22.6426 301.163 22.9033 302.083 23.4246C303.003 23.9459 303.708 24.6666 304.199 25.5866C304.705 26.4913 304.958 27.5186 304.958 28.6686ZM302.796 28.2316C302.796 27.4343 302.619 26.7519 302.267 26.1846C301.914 25.6019 301.431 25.1649 300.818 24.8736C300.22 24.5669 299.553 24.4136 298.817 24.4136C297.759 24.4136 296.854 24.7509 296.103 25.4256C295.367 26.1003 294.945 27.0356 294.838 28.2316H302.796ZM312.182 35.6606C311.216 35.6606 310.35 35.4996 309.583 35.1776C308.817 34.8403 308.211 34.3803 307.766 33.7976C307.322 33.1996 307.076 32.5173 307.03 31.7506H309.192C309.254 32.3793 309.545 32.8929 310.066 33.2916C310.603 33.6903 311.301 33.8896 312.159 33.8896C312.957 33.8896 313.585 33.7133 314.045 33.3606C314.505 33.0079 314.735 32.5633 314.735 32.0266C314.735 31.4746 314.49 31.0683 313.999 30.8076C313.509 30.5316 312.75 30.2633 311.722 30.0026C310.787 29.7573 310.02 29.5119 309.422 29.2666C308.84 29.0059 308.334 28.6303 307.904 28.1396C307.49 27.6336 307.283 26.9743 307.283 26.1616C307.283 25.5176 307.475 24.9273 307.858 24.3906C308.242 23.8539 308.786 23.4323 309.491 23.1256C310.197 22.8036 311.002 22.6426 311.906 22.6426C313.302 22.6426 314.429 22.9953 315.287 23.7006C316.146 24.4059 316.606 25.3719 316.667 26.5986H314.574C314.528 25.9393 314.26 25.4103 313.769 25.0116C313.294 24.6129 312.65 24.4136 311.837 24.4136C311.086 24.4136 310.488 24.5746 310.043 24.8966C309.599 25.2186 309.376 25.6403 309.376 26.1616C309.376 26.5756 309.507 26.9206 309.767 27.1966C310.043 27.4573 310.381 27.6719 310.779 27.8406C311.193 27.9939 311.761 28.1703 312.481 28.3696C313.386 28.6149 314.122 28.8603 314.689 29.1056C315.257 29.3356 315.74 29.6883 316.138 30.1636C316.552 30.6389 316.767 31.2599 316.782 32.0266C316.782 32.7166 316.591 33.3376 316.207 33.8896C315.824 34.4416 315.28 34.8786 314.574 35.2006C313.884 35.5073 313.087 35.6606 312.182 35.6606Z" fill="white"/>
<path d="M23.538 59.2974C23.8673 59.3494 24.1663 59.4837 24.435 59.7004C24.7123 59.917 24.929 60.1857 25.085 60.5064C25.2497 60.827 25.332 61.1694 25.332 61.5334C25.332 61.9927 25.215 62.4087 24.981 62.7814C24.747 63.1454 24.4047 63.4357 23.954 63.6524C23.512 63.8604 22.9877 63.9644 22.381 63.9644H19.001V54.9034H22.251C22.8663 54.9034 23.3907 55.0074 23.824 55.2154C24.2573 55.4147 24.5823 55.6877 24.799 56.0344C25.0157 56.381 25.124 56.771 25.124 57.2044C25.124 57.7417 24.9767 58.188 24.682 58.5434C24.396 58.89 24.0147 59.1414 23.538 59.2974ZM20.184 58.8164H22.173C22.7277 58.8164 23.1567 58.6864 23.46 58.4264C23.7633 58.1664 23.915 57.8067 23.915 57.3474C23.915 56.888 23.7633 56.5284 23.46 56.2684C23.1567 56.0084 22.719 55.8784 22.147 55.8784H20.184V58.8164ZM22.277 62.9894C22.8663 62.9894 23.3257 62.8507 23.655 62.5734C23.9843 62.296 24.149 61.9104 24.149 61.4164C24.149 60.9137 23.9757 60.5194 23.629 60.2334C23.2823 59.9387 22.8187 59.7914 22.238 59.7914H20.184V62.9894H22.277ZM33.2917 56.8404V63.9644H32.1087V62.9114C31.8833 63.2754 31.567 63.5614 31.1597 63.7694C30.761 63.9687 30.319 64.0684 29.8337 64.0684C29.279 64.0684 28.7807 63.9557 28.3387 63.7304C27.8967 63.4964 27.5457 63.1497 27.2857 62.6904C27.0343 62.231 26.9087 61.672 26.9087 61.0134V56.8404H28.0787V60.8574C28.0787 61.5594 28.2563 62.101 28.6117 62.4824C28.967 62.855 29.4523 63.0414 30.0677 63.0414C30.7003 63.0414 31.1987 62.8464 31.5627 62.4564C31.9267 62.0664 32.1087 61.4987 32.1087 60.7534V56.8404H33.2917ZM35.9001 55.6834C35.6748 55.6834 35.4841 55.6054 35.3281 55.4494C35.1721 55.2934 35.0941 55.1027 35.0941 54.8774C35.0941 54.652 35.1721 54.4614 35.3281 54.3054C35.4841 54.1494 35.6748 54.0714 35.9001 54.0714C36.1168 54.0714 36.2988 54.1494 36.4461 54.3054C36.6021 54.4614 36.6801 54.652 36.6801 54.8774C36.6801 55.1027 36.6021 55.2934 36.4461 55.4494C36.2988 55.6054 36.1168 55.6834 35.9001 55.6834ZM36.4721 56.8404V63.9644H35.2891V56.8404H36.4721ZM39.6713 54.3444V63.9644H38.4883V54.3444H39.6713ZM41.2455 60.3764C41.2455 59.6484 41.3929 59.0114 41.6875 58.4654C41.9822 57.9107 42.3852 57.4817 42.8965 57.1784C43.4165 56.875 43.9972 56.7234 44.6385 56.7234C45.1932 56.7234 45.7089 56.8534 46.1855 57.1134C46.6622 57.3647 47.0262 57.6984 47.2775 58.1144V54.3444H48.4735V63.9644H47.2775V62.6254C47.0435 63.05 46.6969 63.401 46.2375 63.6784C45.7782 63.947 45.2409 64.0814 44.6255 64.0814C43.9929 64.0814 43.4165 63.9254 42.8965 63.6134C42.3852 63.3014 41.9822 62.8637 41.6875 62.3004C41.3929 61.737 41.2455 61.0957 41.2455 60.3764ZM47.2775 60.3894C47.2775 59.852 47.1692 59.384 46.9525 58.9854C46.7359 58.5867 46.4412 58.2834 46.0685 58.0754C45.7045 57.8587 45.3015 57.7504 44.8595 57.7504C44.4175 57.7504 44.0145 57.8544 43.6505 58.0624C43.2865 58.2704 42.9962 58.5737 42.7795 58.9724C42.5629 59.371 42.4545 59.839 42.4545 60.3764C42.4545 60.9224 42.5629 61.399 42.7795 61.8064C42.9962 62.205 43.2865 62.5127 43.6505 62.7294C44.0145 62.9374 44.4175 63.0414 44.8595 63.0414C45.3015 63.0414 45.7045 62.9374 46.0685 62.7294C46.4412 62.5127 46.7359 62.205 46.9525 61.8064C47.1692 61.399 47.2775 60.9267 47.2775 60.3894ZM51.6947 62.3264L50.2387 65.8234H49.4457L50.3947 62.3264H51.6947ZM56.0736 60.3764C56.0736 59.6484 56.221 59.0114 56.5156 58.4654C56.8103 57.9107 57.2133 57.4817 57.7246 57.1784C58.2446 56.875 58.8253 56.7234 59.4666 56.7234C60.0213 56.7234 60.537 56.8534 61.0136 57.1134C61.4903 57.3647 61.8543 57.6984 62.1056 58.1144V54.3444H63.3016V63.9644H62.1056V62.6254C61.8716 63.05 61.525 63.401 61.0656 63.6784C60.6063 63.947 60.069 64.0814 59.4536 64.0814C58.821 64.0814 58.2446 63.9254 57.7246 63.6134C57.2133 63.3014 56.8103 62.8637 56.5156 62.3004C56.221 61.737 56.0736 61.0957 56.0736 60.3764ZM62.1056 60.3894C62.1056 59.852 61.9973 59.384 61.7806 58.9854C61.564 58.5867 61.2693 58.2834 60.8966 58.0754C60.5326 57.8587 60.1296 57.7504 59.6876 57.7504C59.2456 57.7504 58.8426 57.8544 58.4786 58.0624C58.1146 58.2704 57.8243 58.5737 57.6076 58.9724C57.391 59.371 57.2826 59.839 57.2826 60.3764C57.2826 60.9224 57.391 61.399 57.6076 61.8064C57.8243 62.205 58.1146 62.5127 58.4786 62.7294C58.8426 62.9374 59.2456 63.0414 59.6876 63.0414C60.1296 63.0414 60.5326 62.9374 60.8966 62.7294C61.2693 62.5127 61.564 62.205 61.7806 61.8064C61.9973 61.399 62.1056 60.9267 62.1056 60.3894ZM71.8008 60.1294C71.8008 60.3547 71.7878 60.593 71.7618 60.8444H66.0678C66.1111 61.5464 66.3495 62.0967 66.7828 62.4954C67.2248 62.8854 67.7578 63.0804 68.3818 63.0804C68.8931 63.0804 69.3178 62.9634 69.6558 62.7294C70.0025 62.4867 70.2451 62.166 70.3838 61.7674H71.6578C71.4671 62.452 71.0858 63.011 70.5138 63.4444C69.9418 63.869 69.2311 64.0814 68.3818 64.0814C67.7058 64.0814 67.0991 63.9297 66.5618 63.6264C66.0331 63.323 65.6171 62.894 65.3138 62.3394C65.0105 61.776 64.8588 61.126 64.8588 60.3894C64.8588 59.6527 65.0061 59.007 65.3008 58.4524C65.5955 57.8977 66.0071 57.473 66.5358 57.1784C67.0731 56.875 67.6885 56.7234 68.3818 56.7234C69.0578 56.7234 69.6558 56.8707 70.1758 57.1654C70.6958 57.46 71.0945 57.8674 71.3718 58.3874C71.6578 58.8987 71.8008 59.4794 71.8008 60.1294ZM70.5788 59.8824C70.5788 59.4317 70.4791 59.046 70.2798 58.7254C70.0805 58.396 69.8075 58.149 69.4608 57.9844C69.1228 57.811 68.7458 57.7244 68.3298 57.7244C67.7318 57.7244 67.2205 57.915 66.7958 58.2964C66.3798 58.6777 66.1415 59.2064 66.0808 59.8824H70.5788ZM74.5453 58.1534C74.7793 57.746 75.126 57.408 75.5853 57.1394C76.0533 56.862 76.595 56.7234 77.2103 56.7234C77.843 56.7234 78.415 56.875 78.9263 57.1784C79.4463 57.4817 79.8537 57.9107 80.1483 58.4654C80.443 59.0114 80.5903 59.6484 80.5903 60.3764C80.5903 61.0957 80.443 61.737 80.1483 62.3004C79.8537 62.8637 79.4463 63.3014 78.9263 63.6134C78.415 63.9254 77.843 64.0814 77.2103 64.0814C76.6037 64.0814 76.0663 63.947 75.5983 63.6784C75.139 63.401 74.788 63.0587 74.5453 62.6514V67.3444H73.3623V56.8404H74.5453V58.1534ZM79.3813 60.3764C79.3813 59.839 79.273 59.371 79.0563 58.9724C78.8397 58.5737 78.545 58.2704 78.1723 58.0624C77.8083 57.8544 77.4053 57.7504 76.9633 57.7504C76.53 57.7504 76.127 57.8587 75.7543 58.0754C75.3903 58.2834 75.0957 58.591 74.8703 58.9984C74.6537 59.397 74.5453 59.8607 74.5453 60.3894C74.5453 60.9267 74.6537 61.399 74.8703 61.8064C75.0957 62.205 75.3903 62.5127 75.7543 62.7294C76.127 62.9374 76.53 63.0414 76.9633 63.0414C77.4053 63.0414 77.8083 62.9374 78.1723 62.7294C78.545 62.5127 78.8397 62.205 79.0563 61.8064C79.273 61.399 79.3813 60.9224 79.3813 60.3764ZM83.3305 54.3444V63.9644H82.1475V54.3444H83.3305ZM88.4537 64.0814C87.7864 64.0814 87.1797 63.9297 86.6337 63.6264C86.0964 63.323 85.6717 62.894 85.3597 62.3394C85.0564 61.776 84.9047 61.126 84.9047 60.3894C84.9047 59.6614 85.0607 59.02 85.3727 58.4654C85.6934 57.902 86.1267 57.473 86.6727 57.1784C87.2187 56.875 87.8297 56.7234 88.5057 56.7234C89.1817 56.7234 89.7927 56.875 90.3387 57.1784C90.8847 57.473 91.3137 57.8977 91.6257 58.4524C91.9464 59.007 92.1067 59.6527 92.1067 60.3894C92.1067 61.126 91.942 61.776 91.6127 62.3394C91.292 62.894 90.8544 63.323 90.2997 63.6264C89.745 63.9297 89.1297 64.0814 88.4537 64.0814ZM88.4537 63.0414C88.8784 63.0414 89.277 62.9417 89.6497 62.7424C90.0224 62.543 90.3214 62.244 90.5467 61.8454C90.7807 61.4467 90.8977 60.9614 90.8977 60.3894C90.8977 59.8174 90.785 59.332 90.5597 58.9334C90.3344 58.5347 90.0397 58.24 89.6757 58.0494C89.3117 57.85 88.9174 57.7504 88.4927 57.7504C88.0594 57.7504 87.6607 57.85 87.2967 58.0494C86.9414 58.24 86.6554 58.5347 86.4387 58.9334C86.222 59.332 86.1137 59.8174 86.1137 60.3894C86.1137 60.97 86.2177 61.4597 86.4257 61.8584C86.6424 62.257 86.9284 62.556 87.2837 62.7554C87.639 62.946 88.029 63.0414 88.4537 63.0414ZM99.7981 56.8404L95.5081 67.3184H94.2861L95.6901 63.8864L92.8171 56.8404H94.1301L96.3661 62.6124L98.5761 56.8404H99.7981ZM104.011 60.3764C104.011 59.6484 104.158 59.0114 104.453 58.4654C104.748 57.9107 105.151 57.4817 105.662 57.1784C106.182 56.875 106.758 56.7234 107.391 56.7234C108.015 56.7234 108.557 56.8577 109.016 57.1264C109.475 57.395 109.818 57.733 110.043 58.1404V56.8404H111.239V63.9644H110.043V62.6384C109.809 63.0544 109.458 63.401 108.99 63.6784C108.531 63.947 107.993 64.0814 107.378 64.0814C106.745 64.0814 106.173 63.9254 105.662 63.6134C105.151 63.3014 104.748 62.8637 104.453 62.3004C104.158 61.737 104.011 61.0957 104.011 60.3764ZM110.043 60.3894C110.043 59.852 109.935 59.384 109.718 58.9854C109.501 58.5867 109.207 58.2834 108.834 58.0754C108.47 57.8587 108.067 57.7504 107.625 57.7504C107.183 57.7504 106.78 57.8544 106.416 58.0624C106.052 58.2704 105.762 58.5737 105.545 58.9724C105.328 59.371 105.22 59.839 105.22 60.3764C105.22 60.9224 105.328 61.399 105.545 61.8064C105.762 62.205 106.052 62.5127 106.416 62.7294C106.78 62.9374 107.183 63.0414 107.625 63.0414C108.067 63.0414 108.47 62.9374 108.834 62.7294C109.207 62.5127 109.501 62.205 109.718 61.8064C109.935 61.399 110.043 60.9267 110.043 60.3894ZM116.709 56.7104C117.576 56.7104 118.278 56.9747 118.815 57.5034C119.353 58.0234 119.621 58.7774 119.621 59.7654V63.9644H118.451V59.9344C118.451 59.2237 118.274 58.682 117.918 58.3094C117.563 57.928 117.078 57.7374 116.462 57.7374C115.838 57.7374 115.34 57.9324 114.967 58.3224C114.603 58.7124 114.421 59.28 114.421 60.0254V63.9644H113.238V56.8404H114.421V57.8544C114.655 57.4904 114.972 57.2087 115.37 57.0094C115.778 56.81 116.224 56.7104 116.709 56.7104ZM121.112 60.3764C121.112 59.6484 121.259 59.0114 121.554 58.4654C121.848 57.9107 122.251 57.4817 122.763 57.1784C123.283 56.875 123.863 56.7234 124.505 56.7234C125.059 56.7234 125.575 56.8534 126.052 57.1134C126.528 57.3647 126.892 57.6984 127.144 58.1144V54.3444H128.34V63.9644H127.144V62.6254C126.91 63.05 126.563 63.401 126.104 63.6784C125.644 63.947 125.107 64.0814 124.492 64.0814C123.859 64.0814 123.283 63.9254 122.763 63.6134C122.251 63.3014 121.848 62.8637 121.554 62.3004C121.259 61.737 121.112 61.0957 121.112 60.3764ZM127.144 60.3894C127.144 59.852 127.035 59.384 126.819 58.9854C126.602 58.5867 126.307 58.2834 125.935 58.0754C125.571 57.8587 125.168 57.7504 124.726 57.7504C124.284 57.7504 123.881 57.8544 123.517 58.0624C123.153 58.2704 122.862 58.5737 122.646 58.9724C122.429 59.371 122.321 59.839 122.321 60.3764C122.321 60.9224 122.429 61.399 122.646 61.8064C122.862 62.205 123.153 62.5127 123.517 62.7294C123.881 62.9374 124.284 63.0414 124.726 63.0414C125.168 63.0414 125.571 62.9374 125.935 62.7294C126.307 62.5127 126.602 62.205 126.819 61.8064C127.035 61.399 127.144 60.9267 127.144 60.3894ZM142.372 56.7104C142.926 56.7104 143.42 56.8274 143.854 57.0614C144.287 57.2867 144.629 57.629 144.881 58.0884C145.132 58.5477 145.258 59.1067 145.258 59.7654V63.9644H144.088V59.9344C144.088 59.2237 143.91 58.682 143.555 58.3094C143.208 57.928 142.736 57.7374 142.138 57.7374C141.522 57.7374 141.033 57.9367 140.669 58.3354C140.305 58.7254 140.123 59.293 140.123 60.0384V63.9644H138.953V59.9344C138.953 59.2237 138.775 58.682 138.42 58.3094C138.073 57.928 137.601 57.7374 137.003 57.7374C136.387 57.7374 135.898 57.9367 135.534 58.3354C135.17 58.7254 134.988 59.293 134.988 60.0384V63.9644H133.805V56.8404H134.988V57.8674C135.222 57.4947 135.534 57.2087 135.924 57.0094C136.322 56.81 136.76 56.7104 137.237 56.7104C137.835 56.7104 138.363 56.8447 138.823 57.1134C139.282 57.382 139.624 57.7764 139.85 58.2964C140.049 57.7937 140.378 57.4037 140.838 57.1264C141.297 56.849 141.808 56.7104 142.372 56.7104ZM146.756 60.3764C146.756 59.6484 146.904 59.0114 147.198 58.4654C147.493 57.9107 147.896 57.4817 148.407 57.1784C148.927 56.875 149.504 56.7234 150.136 56.7234C150.76 56.7234 151.302 56.8577 151.761 57.1264C152.221 57.395 152.563 57.733 152.788 58.1404V56.8404H153.984V63.9644H152.788V62.6384C152.554 63.0544 152.203 63.401 151.735 63.6784C151.276 63.947 150.739 64.0814 150.123 64.0814C149.491 64.0814 148.919 63.9254 148.407 63.6134C147.896 63.3014 147.493 62.8637 147.198 62.3004C146.904 61.737 146.756 61.0957 146.756 60.3764ZM152.788 60.3894C152.788 59.852 152.68 59.384 152.463 58.9854C152.247 58.5867 151.952 58.2834 151.579 58.0754C151.215 57.8587 150.812 57.7504 150.37 57.7504C149.928 57.7504 149.525 57.8544 149.161 58.0624C148.797 58.2704 148.507 58.5737 148.29 58.9724C148.074 59.371 147.965 59.839 147.965 60.3764C147.965 60.9224 148.074 61.399 148.29 61.8064C148.507 62.205 148.797 62.5127 149.161 62.7294C149.525 62.9374 149.928 63.0414 150.37 63.0414C150.812 63.0414 151.215 62.9374 151.579 62.7294C151.952 62.5127 152.247 62.205 152.463 61.8064C152.68 61.399 152.788 60.9267 152.788 60.3894ZM159.454 56.7104C160.321 56.7104 161.023 56.9747 161.56 57.5034C162.098 58.0234 162.366 58.7774 162.366 59.7654V63.9644H161.196V59.9344C161.196 59.2237 161.019 58.682 160.663 58.3094C160.308 57.928 159.823 57.7374 159.207 57.7374C158.583 57.7374 158.085 57.9324 157.712 58.3224C157.348 58.7124 157.166 59.28 157.166 60.0254V63.9644H155.983V56.8404H157.166V57.8544C157.4 57.4904 157.717 57.2087 158.115 57.0094C158.523 56.81 158.969 56.7104 159.454 56.7104ZM163.857 60.3764C163.857 59.6484 164.004 59.0114 164.299 58.4654C164.594 57.9107 164.997 57.4817 165.508 57.1784C166.028 56.875 166.604 56.7234 167.237 56.7234C167.861 56.7234 168.403 56.8577 168.862 57.1264C169.321 57.395 169.664 57.733 169.889 58.1404V56.8404H171.085V63.9644H169.889V62.6384C169.655 63.0544 169.304 63.401 168.836 63.6784C168.377 63.947 167.839 64.0814 167.224 64.0814C166.591 64.0814 166.019 63.9254 165.508 63.6134C164.997 63.3014 164.594 62.8637 164.299 62.3004C164.004 61.737 163.857 61.0957 163.857 60.3764ZM169.889 60.3894C169.889 59.852 169.781 59.384 169.564 58.9854C169.347 58.5867 169.053 58.2834 168.68 58.0754C168.316 57.8587 167.913 57.7504 167.471 57.7504C167.029 57.7504 166.626 57.8544 166.262 58.0624C165.898 58.2704 165.608 58.5737 165.391 58.9724C165.174 59.371 165.066 59.839 165.066 60.3764C165.066 60.9224 165.174 61.399 165.391 61.8064C165.608 62.205 165.898 62.5127 166.262 62.7294C166.626 62.9374 167.029 63.0414 167.471 63.0414C167.913 63.0414 168.316 62.9374 168.68 62.7294C169.053 62.5127 169.347 62.205 169.564 61.8064C169.781 61.399 169.889 60.9267 169.889 60.3894ZM176.022 56.7234C176.637 56.7234 177.175 56.8577 177.634 57.1264C178.102 57.395 178.449 57.733 178.674 58.1404V56.8404H179.87V64.1204C179.87 64.7704 179.731 65.3467 179.454 65.8494C179.177 66.3607 178.778 66.7594 178.258 67.0454C177.747 67.3314 177.149 67.4744 176.464 67.4744C175.528 67.4744 174.748 67.2534 174.124 66.8114C173.5 66.3694 173.132 65.767 173.019 65.0044H174.189C174.319 65.4377 174.588 65.7844 174.995 66.0444C175.402 66.313 175.892 66.4474 176.464 66.4474C177.114 66.4474 177.643 66.2437 178.05 65.8364C178.466 65.429 178.674 64.857 178.674 64.1204V62.6254C178.44 63.0414 178.093 63.388 177.634 63.6654C177.175 63.9427 176.637 64.0814 176.022 64.0814C175.389 64.0814 174.813 63.9254 174.293 63.6134C173.782 63.3014 173.379 62.8637 173.084 62.3004C172.789 61.737 172.642 61.0957 172.642 60.3764C172.642 59.6484 172.789 59.0114 173.084 58.4654C173.379 57.9107 173.782 57.4817 174.293 57.1784C174.813 56.875 175.389 56.7234 176.022 56.7234ZM178.674 60.3894C178.674 59.852 178.566 59.384 178.349 58.9854C178.132 58.5867 177.838 58.2834 177.465 58.0754C177.101 57.8587 176.698 57.7504 176.256 57.7504C175.814 57.7504 175.411 57.8544 175.047 58.0624C174.683 58.2704 174.393 58.5737 174.176 58.9724C173.959 59.371 173.851 59.839 173.851 60.3764C173.851 60.9224 173.959 61.399 174.176 61.8064C174.393 62.205 174.683 62.5127 175.047 62.7294C175.411 62.9374 175.814 63.0414 176.256 63.0414C176.698 63.0414 177.101 62.9374 177.465 62.7294C177.838 62.5127 178.132 62.205 178.349 61.8064C178.566 61.399 178.674 60.9267 178.674 60.3894ZM188.369 60.1294C188.369 60.3547 188.356 60.593 188.33 60.8444H182.636C182.679 61.5464 182.918 62.0967 183.351 62.4954C183.793 62.8854 184.326 63.0804 184.95 63.0804C185.461 63.0804 185.886 62.9634 186.224 62.7294C186.571 62.4867 186.813 62.166 186.952 61.7674H188.226C188.035 62.452 187.654 63.011 187.082 63.4444C186.51 63.869 185.799 64.0814 184.95 64.0814C184.274 64.0814 183.667 63.9297 183.13 63.6264C182.601 63.323 182.185 62.894 181.882 62.3394C181.579 61.776 181.427 61.126 181.427 60.3894C181.427 59.6527 181.574 59.007 181.869 58.4524C182.164 57.8977 182.575 57.473 183.104 57.1784C183.641 56.875 184.257 56.7234 184.95 56.7234C185.626 56.7234 186.224 56.8707 186.744 57.1654C187.264 57.46 187.663 57.8674 187.94 58.3874C188.226 58.8987 188.369 59.4794 188.369 60.1294ZM187.147 59.8824C187.147 59.4317 187.047 59.046 186.848 58.7254C186.649 58.396 186.376 58.149 186.029 57.9844C185.691 57.811 185.314 57.7244 184.898 57.7244C184.3 57.7244 183.789 57.915 183.364 58.2964C182.948 58.6777 182.71 59.2064 182.649 59.8824H187.147ZM201.964 56.7104C202.518 56.7104 203.012 56.8274 203.446 57.0614C203.879 57.2867 204.221 57.629 204.473 58.0884C204.724 58.5477 204.85 59.1067 204.85 59.7654V63.9644H203.68V59.9344C203.68 59.2237 203.502 58.682 203.147 58.3094C202.8 57.928 202.328 57.7374 201.73 57.7374C201.114 57.7374 200.625 57.9367 200.261 58.3354C199.897 58.7254 199.715 59.293 199.715 60.0384V63.9644H198.545V59.9344C198.545 59.2237 198.367 58.682 198.012 58.3094C197.665 57.928 197.193 57.7374 196.595 57.7374C195.979 57.7374 195.49 57.9367 195.126 58.3354C194.762 58.7254 194.58 59.293 194.58 60.0384V63.9644H193.397V56.8404H194.58V57.8674C194.814 57.4947 195.126 57.2087 195.516 57.0094C195.914 56.81 196.352 56.7104 196.829 56.7104C197.427 56.7104 197.955 56.8447 198.415 57.1134C198.874 57.382 199.216 57.7764 199.442 58.2964C199.641 57.7937 199.97 57.4037 200.43 57.1264C200.889 56.849 201.4 56.7104 201.964 56.7104ZM209.897 64.0814C209.23 64.0814 208.623 63.9297 208.077 63.6264C207.54 63.323 207.115 62.894 206.803 62.3394C206.5 61.776 206.348 61.126 206.348 60.3894C206.348 59.6614 206.504 59.02 206.816 58.4654C207.137 57.902 207.57 57.473 208.116 57.1784C208.662 56.875 209.273 56.7234 209.949 56.7234C210.625 56.7234 211.236 56.875 211.782 57.1784C212.328 57.473 212.757 57.8977 213.069 58.4524C213.39 59.007 213.55 59.6527 213.55 60.3894C213.55 61.126 213.385 61.776 213.056 62.3394C212.735 62.894 212.298 63.323 211.743 63.6264C211.188 63.9297 210.573 64.0814 209.897 64.0814ZM209.897 63.0414C210.322 63.0414 210.72 62.9417 211.093 62.7424C211.466 62.543 211.765 62.244 211.99 61.8454C212.224 61.4467 212.341 60.9614 212.341 60.3894C212.341 59.8174 212.228 59.332 212.003 58.9334C211.778 58.5347 211.483 58.24 211.119 58.0494C210.755 57.85 210.361 57.7504 209.936 57.7504C209.503 57.7504 209.104 57.85 208.74 58.0494C208.385 58.24 208.099 58.5347 207.882 58.9334C207.665 59.332 207.557 59.8174 207.557 60.3894C207.557 60.97 207.661 61.4597 207.869 61.8584C208.086 62.257 208.372 62.556 208.727 62.7554C209.082 62.946 209.472 63.0414 209.897 63.0414ZM216.288 57.9974C216.496 57.59 216.791 57.2737 217.172 57.0484C217.562 56.823 218.035 56.7104 218.589 56.7104V57.9324H218.277C216.951 57.9324 216.288 58.6517 216.288 60.0904V63.9644H215.105V56.8404H216.288V57.9974ZM226.455 60.1294C226.455 60.3547 226.442 60.593 226.416 60.8444H220.722C220.765 61.5464 221.004 62.0967 221.437 62.4954C221.879 62.8854 222.412 63.0804 223.036 63.0804C223.547 63.0804 223.972 62.9634 224.31 62.7294C224.657 62.4867 224.899 62.166 225.038 61.7674H226.312C226.121 62.452 225.74 63.011 225.168 63.4444C224.596 63.869 223.885 64.0814 223.036 64.0814C222.36 64.0814 221.753 63.9297 221.216 63.6264C220.687 63.323 220.271 62.894 219.968 62.3394C219.665 61.776 219.513 61.126 219.513 60.3894C219.513 59.6527 219.66 59.007 219.955 58.4524C220.25 57.8977 220.661 57.473 221.19 57.1784C221.727 56.875 222.343 56.7234 223.036 56.7234C223.712 56.7234 224.31 56.8707 224.83 57.1654C225.35 57.46 225.749 57.8674 226.026 58.3874C226.312 58.8987 226.455 59.4794 226.455 60.1294ZM225.233 59.8824C225.233 59.4317 225.133 59.046 224.934 58.7254C224.735 58.396 224.462 58.149 224.115 57.9844C223.777 57.811 223.4 57.7244 222.984 57.7244C222.386 57.7244 221.875 57.915 221.45 58.2964C221.034 58.6777 220.796 59.2064 220.735 59.8824H225.233ZM231.04 60.3764C231.04 59.6484 231.188 59.0114 231.482 58.4654C231.777 57.9107 232.18 57.4817 232.691 57.1784C233.211 56.875 233.788 56.7234 234.42 56.7234C235.044 56.7234 235.586 56.8577 236.045 57.1264C236.505 57.395 236.847 57.733 237.072 58.1404V56.8404H238.268V63.9644H237.072V62.6384C236.838 63.0544 236.487 63.401 236.019 63.6784C235.56 63.947 235.023 64.0814 234.407 64.0814C233.775 64.0814 233.203 63.9254 232.691 63.6134C232.18 63.3014 231.777 62.8637 231.482 62.3004C231.188 61.737 231.04 61.0957 231.04 60.3764ZM237.072 60.3894C237.072 59.852 236.964 59.384 236.747 58.9854C236.531 58.5867 236.236 58.2834 235.863 58.0754C235.499 57.8587 235.096 57.7504 234.654 57.7504C234.212 57.7504 233.809 57.8544 233.445 58.0624C233.081 58.2704 232.791 58.5737 232.574 58.9724C232.358 59.371 232.249 59.839 232.249 60.3764C232.249 60.9224 232.358 61.399 232.574 61.8064C232.791 62.205 233.081 62.5127 233.445 62.7294C233.809 62.9374 234.212 63.0414 234.654 63.0414C235.096 63.0414 235.499 62.9374 235.863 62.7294C236.236 62.5127 236.531 62.205 236.747 61.8064C236.964 61.399 237.072 60.9267 237.072 60.3894ZM246.586 56.8404V63.9644H245.403V62.9114C245.177 63.2754 244.861 63.5614 244.454 63.7694C244.055 63.9687 243.613 64.0684 243.128 64.0684C242.573 64.0684 242.075 63.9557 241.633 63.7304C241.191 63.4964 240.84 63.1497 240.58 62.6904C240.328 62.231 240.203 61.672 240.203 61.0134V56.8404H241.373V60.8574C241.373 61.5594 241.55 62.101 241.906 62.4824C242.261 62.855 242.746 63.0414 243.362 63.0414C243.994 63.0414 244.493 62.8464 244.857 62.4564C245.221 62.0664 245.403 61.4987 245.403 60.7534V56.8404H246.586ZM250.026 57.8154V62.0144C250.026 62.361 250.1 62.608 250.247 62.7554C250.394 62.894 250.65 62.9634 251.014 62.9634H251.885V63.9644H250.819C250.16 63.9644 249.666 63.8127 249.337 63.5094C249.008 63.206 248.843 62.7077 248.843 62.0144V57.8154H247.92V56.8404H248.843V55.0464H250.026V56.8404H251.885V57.8154H250.026ZM256.425 64.0814C255.758 64.0814 255.151 63.9297 254.605 63.6264C254.068 63.323 253.643 62.894 253.331 62.3394C253.028 61.776 252.876 61.126 252.876 60.3894C252.876 59.6614 253.032 59.02 253.344 58.4654C253.665 57.902 254.098 57.473 254.644 57.1784C255.19 56.875 255.801 56.7234 256.477 56.7234C257.153 56.7234 257.764 56.875 258.31 57.1784C258.856 57.473 259.285 57.8977 259.597 58.4524C259.918 59.007 260.078 59.6527 260.078 60.3894C260.078 61.126 259.914 61.776 259.584 62.3394C259.264 62.894 258.826 63.323 258.271 63.6264C257.717 63.9297 257.101 64.0814 256.425 64.0814ZM256.425 63.0414C256.85 63.0414 257.249 62.9417 257.621 62.7424C257.994 62.543 258.293 62.244 258.518 61.8454C258.752 61.4467 258.869 60.9614 258.869 60.3894C258.869 59.8174 258.757 59.332 258.531 58.9334C258.306 58.5347 258.011 58.24 257.647 58.0494C257.283 57.85 256.889 57.7504 256.464 57.7504C256.031 57.7504 255.632 57.85 255.268 58.0494C254.913 58.24 254.627 58.5347 254.41 58.9334C254.194 59.332 254.085 59.8174 254.085 60.3894C254.085 60.97 254.189 61.4597 254.397 61.8584C254.614 62.257 254.9 62.556 255.255 62.7554C255.611 62.946 256.001 63.0414 256.425 63.0414ZM270.201 56.7104C270.755 56.7104 271.249 56.8274 271.683 57.0614C272.116 57.2867 272.458 57.629 272.71 58.0884C272.961 58.5477 273.087 59.1067 273.087 59.7654V63.9644H271.917V59.9344C271.917 59.2237 271.739 58.682 271.384 58.3094C271.037 57.928 270.565 57.7374 269.967 57.7374C269.351 57.7374 268.862 57.9367 268.498 58.3354C268.134 58.7254 267.952 59.293 267.952 60.0384V63.9644H266.782V59.9344C266.782 59.2237 266.604 58.682 266.249 58.3094C265.902 57.928 265.43 57.7374 264.832 57.7374C264.216 57.7374 263.727 57.9367 263.363 58.3354C262.999 58.7254 262.817 59.293 262.817 60.0384V63.9644H261.634V56.8404H262.817V57.8674C263.051 57.4947 263.363 57.2087 263.753 57.0094C264.151 56.81 264.589 56.7104 265.066 56.7104C265.664 56.7104 266.192 56.8447 266.652 57.1134C267.111 57.382 267.453 57.7764 267.679 58.2964C267.878 57.7937 268.207 57.4037 268.667 57.1264C269.126 56.849 269.637 56.7104 270.201 56.7104ZM274.585 60.3764C274.585 59.6484 274.733 59.0114 275.027 58.4654C275.322 57.9107 275.725 57.4817 276.236 57.1784C276.756 56.875 277.333 56.7234 277.965 56.7234C278.589 56.7234 279.131 56.8577 279.59 57.1264C280.05 57.395 280.392 57.733 280.617 58.1404V56.8404H281.813V63.9644H280.617V62.6384C280.383 63.0544 280.032 63.401 279.564 63.6784C279.105 63.947 278.568 64.0814 277.952 64.0814C277.32 64.0814 276.748 63.9254 276.236 63.6134C275.725 63.3014 275.322 62.8637 275.027 62.3004C274.733 61.737 274.585 61.0957 274.585 60.3764ZM280.617 60.3894C280.617 59.852 280.509 59.384 280.292 58.9854C280.076 58.5867 279.781 58.2834 279.408 58.0754C279.044 57.8587 278.641 57.7504 278.199 57.7504C277.757 57.7504 277.354 57.8544 276.99 58.0624C276.626 58.2704 276.336 58.5737 276.119 58.9724C275.903 59.371 275.794 59.839 275.794 60.3764C275.794 60.9224 275.903 61.399 276.119 61.8064C276.336 62.205 276.626 62.5127 276.99 62.7294C277.354 62.9374 277.757 63.0414 278.199 63.0414C278.641 63.0414 279.044 62.9374 279.408 62.7294C279.781 62.5127 280.076 62.205 280.292 61.8064C280.509 61.399 280.617 60.9267 280.617 60.3894ZM285.256 57.8154V62.0144C285.256 62.361 285.329 62.608 285.477 62.7554C285.624 62.894 285.88 62.9634 286.244 62.9634H287.115V63.9644H286.049C285.39 63.9644 284.896 63.8127 284.567 63.5094C284.237 63.206 284.073 62.7077 284.073 62.0144V57.8154H283.15V56.8404H284.073V55.0464H285.256V56.8404H287.115V57.8154H285.256ZM295.048 60.1294C295.048 60.3547 295.035 60.593 295.009 60.8444H289.315C289.358 61.5464 289.597 62.0967 290.03 62.4954C290.472 62.8854 291.005 63.0804 291.629 63.0804C292.14 63.0804 292.565 62.9634 292.903 62.7294C293.25 62.4867 293.492 62.166 293.631 61.7674H294.905C294.714 62.452 294.333 63.011 293.761 63.4444C293.189 63.869 292.478 64.0814 291.629 64.0814C290.953 64.0814 290.346 63.9297 289.809 63.6264C289.28 63.323 288.864 62.894 288.561 62.3394C288.258 61.776 288.106 61.126 288.106 60.3894C288.106 59.6527 288.253 59.007 288.548 58.4524C288.843 57.8977 289.254 57.473 289.783 57.1784C290.32 56.875 290.936 56.7234 291.629 56.7234C292.305 56.7234 292.903 56.8707 293.423 57.1654C293.943 57.46 294.342 57.8674 294.619 58.3874C294.905 58.8987 295.048 59.4794 295.048 60.1294ZM293.826 59.8824C293.826 59.4317 293.726 59.046 293.527 58.7254C293.328 58.396 293.055 58.149 292.708 57.9844C292.37 57.811 291.993 57.7244 291.577 57.7244C290.979 57.7244 290.468 57.915 290.043 58.2964C289.627 58.6777 289.389 59.2064 289.328 59.8824H293.826ZM296.167 60.3764C296.167 59.6484 296.315 59.0114 296.609 58.4654C296.904 57.9107 297.307 57.4817 297.818 57.1784C298.338 56.875 298.919 56.7234 299.56 56.7234C300.115 56.7234 300.631 56.8534 301.107 57.1134C301.584 57.3647 301.948 57.6984 302.199 58.1144V54.3444H303.395V63.9644H302.199V62.6254C301.965 63.05 301.619 63.401 301.159 63.6784C300.7 63.947 300.163 64.0814 299.547 64.0814C298.915 64.0814 298.338 63.9254 297.818 63.6134C297.307 63.3014 296.904 62.8637 296.609 62.3004C296.315 61.737 296.167 61.0957 296.167 60.3764ZM302.199 60.3894C302.199 59.852 302.091 59.384 301.874 58.9854C301.658 58.5867 301.363 58.2834 300.99 58.0754C300.626 57.8587 300.223 57.7504 299.781 57.7504C299.339 57.7504 298.936 57.8544 298.572 58.0624C298.208 58.2704 297.918 58.5737 297.701 58.9724C297.485 59.371 297.376 59.839 297.376 60.3764C297.376 60.9224 297.485 61.399 297.701 61.8064C297.918 62.205 298.208 62.5127 298.572 62.7294C298.936 62.9374 299.339 63.0414 299.781 63.0414C300.223 63.0414 300.626 62.9374 300.99 62.7294C301.363 62.5127 301.658 62.205 301.874 61.8064C302.091 61.399 302.199 60.9267 302.199 60.3894ZM310.043 58.1534C310.277 57.746 310.624 57.408 311.083 57.1394C311.551 56.862 312.093 56.7234 312.708 56.7234C313.341 56.7234 313.913 56.875 314.424 57.1784C314.944 57.4817 315.352 57.9107 315.646 58.4654C315.941 59.0114 316.088 59.6484 316.088 60.3764C316.088 61.0957 315.941 61.737 315.646 62.3004C315.352 62.8637 314.944 63.3014 314.424 63.6134C313.913 63.9254 313.341 64.0814 312.708 64.0814C312.102 64.0814 311.564 63.947 311.096 63.6784C310.637 63.401 310.286 63.0587 310.043 62.6514V67.3444H308.86V56.8404H310.043V58.1534ZM314.879 60.3764C314.879 59.839 314.771 59.371 314.554 58.9724C314.338 58.5737 314.043 58.2704 313.67 58.0624C313.306 57.8544 312.903 57.7504 312.461 57.7504C312.028 57.7504 311.625 57.8587 311.252 58.0754C310.888 58.2834 310.594 58.591 310.368 58.9984C310.152 59.397 310.043 59.8607 310.043 60.3894C310.043 60.9267 310.152 61.399 310.368 61.8064C310.594 62.205 310.888 62.5127 311.252 62.7294C311.625 62.9374 312.028 63.0414 312.461 63.0414C312.903 63.0414 313.306 62.9374 313.67 62.7294C314.043 62.5127 314.338 62.205 314.554 61.8064C314.771 61.399 314.879 60.9224 314.879 60.3764ZM318.829 57.9974C319.037 57.59 319.331 57.2737 319.713 57.0484C320.103 56.823 320.575 56.7104 321.13 56.7104V57.9324H320.818C319.492 57.9324 318.829 58.6517 318.829 60.0904V63.9644H317.646V56.8404H318.829V57.9974ZM325.602 64.0814C324.935 64.0814 324.328 63.9297 323.782 63.6264C323.245 63.323 322.82 62.894 322.508 62.3394C322.205 61.776 322.053 61.126 322.053 60.3894C322.053 59.6614 322.209 59.02 322.521 58.4654C322.842 57.902 323.275 57.473 323.821 57.1784C324.367 56.875 324.978 56.7234 325.654 56.7234C326.33 56.7234 326.941 56.875 327.487 57.1784C328.033 57.473 328.462 57.8977 328.774 58.4524C329.095 59.007 329.255 59.6527 329.255 60.3894C329.255 61.126 329.09 61.776 328.761 62.3394C328.44 62.894 328.003 63.323 327.448 63.6264C326.893 63.9297 326.278 64.0814 325.602 64.0814ZM325.602 63.0414C326.027 63.0414 326.425 62.9417 326.798 62.7424C327.171 62.543 327.47 62.244 327.695 61.8454C327.929 61.4467 328.046 60.9614 328.046 60.3894C328.046 59.8174 327.933 59.332 327.708 58.9334C327.483 58.5347 327.188 58.24 326.824 58.0494C326.46 57.85 326.066 57.7504 325.641 57.7504C325.208 57.7504 324.809 57.85 324.445 58.0494C324.09 58.24 323.804 58.5347 323.587 58.9334C323.37 59.332 323.262 59.8174 323.262 60.3894C323.262 60.97 323.366 61.4597 323.574 61.8584C323.791 62.257 324.077 62.556 324.432 62.7554C324.787 62.946 325.177 63.0414 325.602 63.0414ZM330.369 60.3894C330.369 59.6527 330.516 59.0114 330.811 58.4654C331.105 57.9107 331.513 57.4817 332.033 57.1784C332.561 56.875 333.164 56.7234 333.84 56.7234C334.715 56.7234 335.434 56.9357 335.998 57.3604C336.57 57.785 336.947 58.3744 337.129 59.1284H335.855C335.733 58.695 335.495 58.3527 335.14 58.1014C334.793 57.85 334.36 57.7244 333.84 57.7244C333.164 57.7244 332.618 57.9584 332.202 58.4264C331.786 58.8857 331.578 59.54 331.578 60.3894C331.578 61.2474 331.786 61.9104 332.202 62.3784C332.618 62.8464 333.164 63.0804 333.84 63.0804C334.36 63.0804 334.793 62.959 335.14 62.7164C335.486 62.4737 335.725 62.127 335.855 61.6764H337.129C336.938 62.4044 336.557 62.9894 335.985 63.4314C335.413 63.8647 334.698 64.0814 333.84 64.0814C333.164 64.0814 332.561 63.9297 332.033 63.6264C331.513 63.323 331.105 62.894 330.811 62.3394C330.516 61.7847 330.369 61.1347 330.369 60.3894ZM345.207 60.1294C345.207 60.3547 345.194 60.593 345.168 60.8444H339.474C339.517 61.5464 339.756 62.0967 340.189 62.4954C340.631 62.8854 341.164 63.0804 341.788 63.0804C342.299 63.0804 342.724 62.9634 343.062 62.7294C343.409 62.4867 343.651 62.166 343.79 61.7674H345.064C344.873 62.452 344.492 63.011 343.92 63.4444C343.348 63.869 342.637 64.0814 341.788 64.0814C341.112 64.0814 340.505 63.9297 339.968 63.6264C339.439 63.323 339.023 62.894 338.72 62.3394C338.417 61.776 338.265 61.126 338.265 60.3894C338.265 59.6527 338.412 59.007 338.707 58.4524C339.002 57.8977 339.413 57.473 339.942 57.1784C340.479 56.875 341.095 56.7234 341.788 56.7234C342.464 56.7234 343.062 56.8707 343.582 57.1654C344.102 57.46 344.501 57.8674 344.778 58.3874C345.064 58.8987 345.207 59.4794 345.207 60.1294ZM343.985 59.8824C343.985 59.4317 343.885 59.046 343.686 58.7254C343.487 58.396 343.214 58.149 342.867 57.9844C342.529 57.811 342.152 57.7244 341.736 57.7244C341.138 57.7244 340.627 57.915 340.202 58.2964C339.786 58.6777 339.548 59.2064 339.487 59.8824H343.985ZM349.291 64.0814C348.745 64.0814 348.255 63.9904 347.822 63.8084C347.388 63.6177 347.046 63.3577 346.795 63.0284C346.543 62.6904 346.405 62.3047 346.379 61.8714H347.601C347.635 62.2267 347.8 62.517 348.095 62.7424C348.398 62.9677 348.792 63.0804 349.278 63.0804C349.728 63.0804 350.084 62.9807 350.344 62.7814C350.604 62.582 350.734 62.3307 350.734 62.0274C350.734 61.7154 350.595 61.4857 350.318 61.3384C350.04 61.1824 349.611 61.0307 349.031 60.8834C348.502 60.7447 348.069 60.606 347.731 60.4674C347.401 60.32 347.115 60.1077 346.873 59.8304C346.639 59.5444 346.522 59.1717 346.522 58.7124C346.522 58.3484 346.63 58.0147 346.847 57.7114C347.063 57.408 347.371 57.1697 347.77 56.9964C348.168 56.8144 348.623 56.7234 349.135 56.7234C349.923 56.7234 350.56 56.9227 351.046 57.3214C351.531 57.72 351.791 58.266 351.826 58.9594H350.643C350.617 58.5867 350.465 58.2877 350.188 58.0624C349.919 57.837 349.555 57.7244 349.096 57.7244C348.671 57.7244 348.333 57.8154 348.082 57.9974C347.83 58.1794 347.705 58.4177 347.705 58.7124C347.705 58.9464 347.778 59.1414 347.926 59.2974C348.082 59.4447 348.272 59.566 348.498 59.6614C348.732 59.748 349.052 59.8477 349.46 59.9604C349.971 60.099 350.387 60.2377 350.708 60.3764C351.028 60.5064 351.301 60.7057 351.527 60.9744C351.761 61.243 351.882 61.594 351.891 62.0274C351.891 62.4174 351.782 62.7684 351.566 63.0804C351.349 63.3924 351.041 63.6394 350.643 63.8214C350.253 63.9947 349.802 64.0814 349.291 64.0814ZM356.083 64.0814C355.537 64.0814 355.047 63.9904 354.614 63.8084C354.18 63.6177 353.838 63.3577 353.587 63.0284C353.335 62.6904 353.197 62.3047 353.171 61.8714H354.393C354.427 62.2267 354.592 62.517 354.887 62.7424C355.19 62.9677 355.584 63.0804 356.07 63.0804C356.52 63.0804 356.876 62.9807 357.136 62.7814C357.396 62.582 357.526 62.3307 357.526 62.0274C357.526 61.7154 357.387 61.4857 357.11 61.3384C356.832 61.1824 356.403 61.0307 355.823 60.8834C355.294 60.7447 354.861 60.606 354.523 60.4674C354.193 60.32 353.907 60.1077 353.665 59.8304C353.431 59.5444 353.314 59.1717 353.314 58.7124C353.314 58.3484 353.422 58.0147 353.639 57.7114C353.855 57.408 354.163 57.1697 354.562 56.9964C354.96 56.8144 355.415 56.7234 355.927 56.7234C356.715 56.7234 357.352 56.9227 357.838 57.3214C358.323 57.72 358.583 58.266 358.618 58.9594H357.435C357.409 58.5867 357.257 58.2877 356.98 58.0624C356.711 57.837 356.347 57.7244 355.888 57.7244C355.463 57.7244 355.125 57.8154 354.874 57.9974C354.622 58.1794 354.497 58.4177 354.497 58.7124C354.497 58.9464 354.57 59.1414 354.718 59.2974C354.874 59.4447 355.064 59.566 355.29 59.6614C355.524 59.748 355.844 59.8477 356.252 59.9604C356.763 60.099 357.179 60.2377 357.5 60.3764C357.82 60.5064 358.093 60.7057 358.319 60.9744C358.553 61.243 358.674 61.594 358.683 62.0274C358.683 62.4174 358.574 62.7684 358.358 63.0804C358.141 63.3924 357.833 63.6394 357.435 63.8214C357.045 63.9947 356.594 64.0814 356.083 64.0814ZM366.853 60.1294C366.853 60.3547 366.84 60.593 366.814 60.8444H361.12C361.163 61.5464 361.401 62.0967 361.835 62.4954C362.277 62.8854 362.81 63.0804 363.434 63.0804C363.945 63.0804 364.37 62.9634 364.708 62.7294C365.054 62.4867 365.297 62.166 365.436 61.7674H366.71C366.519 62.452 366.138 63.011 365.566 63.4444C364.994 63.869 364.283 64.0814 363.434 64.0814C362.758 64.0814 362.151 63.9297 361.614 63.6264C361.085 63.323 360.669 62.894 360.366 62.3394C360.062 61.776 359.911 61.126 359.911 60.3894C359.911 59.6527 360.058 59.007 360.353 58.4524C360.647 57.8977 361.059 57.473 361.588 57.1784C362.125 56.875 362.74 56.7234 363.434 56.7234C364.11 56.7234 364.708 56.8707 365.228 57.1654C365.748 57.46 366.146 57.8674 366.424 58.3874C366.71 58.8987 366.853 59.4794 366.853 60.1294ZM365.631 59.8824C365.631 59.4317 365.531 59.046 365.332 58.7254C365.132 58.396 364.859 58.149 364.513 57.9844C364.175 57.811 363.798 57.7244 363.382 57.7244C362.784 57.7244 362.272 57.915 361.848 58.2964C361.432 58.6777 361.193 59.2064 361.133 59.8824H365.631ZM370.936 64.0814C370.39 64.0814 369.9 63.9904 369.467 63.8084C369.034 63.6177 368.691 63.3577 368.44 63.0284C368.189 62.6904 368.05 62.3047 368.024 61.8714H369.246C369.281 62.2267 369.445 62.517 369.74 62.7424C370.043 62.9677 370.438 63.0804 370.923 63.0804C371.374 63.0804 371.729 62.9807 371.989 62.7814C372.249 62.582 372.379 62.3307 372.379 62.0274C372.379 61.7154 372.24 61.4857 371.963 61.3384C371.686 61.1824 371.257 61.0307 370.676 60.8834C370.147 60.7447 369.714 60.606 369.376 60.4674C369.047 60.32 368.761 60.1077 368.518 59.8304C368.284 59.5444 368.167 59.1717 368.167 58.7124C368.167 58.3484 368.275 58.0147 368.492 57.7114C368.709 57.408 369.016 57.1697 369.415 56.9964C369.814 56.8144 370.269 56.7234 370.78 56.7234C371.569 56.7234 372.206 56.9227 372.691 57.3214C373.176 57.72 373.436 58.266 373.471 58.9594H372.288C372.262 58.5867 372.11 58.2877 371.833 58.0624C371.564 57.837 371.2 57.7244 370.741 57.7244C370.316 57.7244 369.978 57.8154 369.727 57.9974C369.476 58.1794 369.35 58.4177 369.35 58.7124C369.35 58.9464 369.424 59.1414 369.571 59.2974C369.727 59.4447 369.918 59.566 370.143 59.6614C370.377 59.748 370.698 59.8477 371.105 59.9604C371.616 60.099 372.032 60.2377 372.353 60.3764C372.674 60.5064 372.947 60.7057 373.172 60.9744C373.406 61.243 373.527 61.594 373.536 62.0274C373.536 62.4174 373.428 62.7684 373.211 63.0804C372.994 63.3924 372.687 63.6394 372.288 63.8214C371.898 63.9947 371.447 64.0814 370.936 64.0814ZM376.428 62.3264L374.972 65.8234H374.179L375.128 62.3264H376.428ZM21.939 76.7234C22.5543 76.7234 23.0917 76.8577 23.551 77.1264C24.019 77.395 24.3657 77.733 24.591 78.1404V76.8404H25.787V84.1204C25.787 84.7704 25.6483 85.3467 25.371 85.8494C25.0937 86.3607 24.695 86.7594 24.175 87.0454C23.6637 87.3314 23.0657 87.4744 22.381 87.4744C21.445 87.4744 20.665 87.2534 20.041 86.8114C19.417 86.3694 19.0487 85.767 18.936 85.0044H20.106C20.236 85.4377 20.5047 85.7844 20.912 86.0444C21.3193 86.313 21.809 86.4474 22.381 86.4474C23.031 86.4474 23.5597 86.2437 23.967 85.8364C24.383 85.429 24.591 84.857 24.591 84.1204V82.6254C24.357 83.0414 24.0103 83.388 23.551 83.6654C23.0917 83.9427 22.5543 84.0814 21.939 84.0814C21.3063 84.0814 20.73 83.9254 20.21 83.6134C19.6987 83.3014 19.2957 82.8637 19.001 82.3004C18.7063 81.737 18.559 81.0957 18.559 80.3764C18.559 79.6484 18.7063 79.0114 19.001 78.4654C19.2957 77.9107 19.6987 77.4817 20.21 77.1784C20.73 76.875 21.3063 76.7234 21.939 76.7234ZM24.591 80.3894C24.591 79.852 24.4827 79.384 24.266 78.9854C24.0493 78.5867 23.7547 78.2834 23.382 78.0754C23.018 77.8587 22.615 77.7504 22.173 77.7504C21.731 77.7504 21.328 77.8544 20.964 78.0624C20.6 78.2704 20.3097 78.5737 20.093 78.9724C19.8763 79.371 19.768 79.839 19.768 80.3764C19.768 80.9224 19.8763 81.399 20.093 81.8064C20.3097 82.205 20.6 82.5127 20.964 82.7294C21.328 82.9374 21.731 83.0414 22.173 83.0414C22.615 83.0414 23.018 82.9374 23.382 82.7294C23.7547 82.5127 24.0493 82.205 24.266 81.8064C24.4827 81.399 24.591 80.9267 24.591 80.3894ZM28.9692 77.9974C29.1772 77.59 29.4718 77.2737 29.8532 77.0484C30.2432 76.823 30.7155 76.7104 31.2702 76.7104V77.9324H30.9582C29.6322 77.9324 28.9692 78.6517 28.9692 80.0904V83.9644H27.7862V76.8404H28.9692V77.9974ZM35.7428 84.0814C35.0754 84.0814 34.4688 83.9297 33.9228 83.6264C33.3854 83.323 32.9608 82.894 32.6488 82.3394C32.3454 81.776 32.1938 81.126 32.1938 80.3894C32.1938 79.6614 32.3498 79.02 32.6618 78.4654C32.9824 77.902 33.4158 77.473 33.9618 77.1784C34.5078 76.875 35.1188 76.7234 35.7948 76.7234C36.4708 76.7234 37.0818 76.875 37.6278 77.1784C38.1738 77.473 38.6028 77.8977 38.9148 78.4524C39.2354 79.007 39.3958 79.6527 39.3958 80.3894C39.3958 81.126 39.2311 81.776 38.9018 82.3394C38.5811 82.894 38.1434 83.323 37.5888 83.6264C37.0341 83.9297 36.4188 84.0814 35.7428 84.0814ZM35.7428 83.0414C36.1674 83.0414 36.5661 82.9417 36.9388 82.7424C37.3114 82.543 37.6104 82.244 37.8358 81.8454C38.0698 81.4467 38.1868 80.9614 38.1868 80.3894C38.1868 79.8174 38.0741 79.332 37.8488 78.9334C37.6234 78.5347 37.3288 78.24 36.9648 78.0494C36.6008 77.85 36.2064 77.7504 35.7818 77.7504C35.3484 77.7504 34.9498 77.85 34.5858 78.0494C34.2304 78.24 33.9444 78.5347 33.7278 78.9334C33.5111 79.332 33.4028 79.8174 33.4028 80.3894C33.4028 80.97 33.5068 81.4597 33.7148 81.8584C33.9314 82.257 34.2174 82.556 34.5728 82.7554C34.9281 82.946 35.3181 83.0414 35.7428 83.0414ZM50.4412 76.8404L48.2182 83.9644H46.9962L45.2802 78.3094L43.5642 83.9644H42.3422L40.1062 76.8404H41.3152L42.9532 82.8204L44.7212 76.8404H45.9302L47.6592 82.8334L49.2712 76.8404H50.4412ZM52.2263 75.6834C52.0009 75.6834 51.8103 75.6054 51.6543 75.4494C51.4983 75.2934 51.4203 75.1027 51.4203 74.8774C51.4203 74.652 51.4983 74.4614 51.6543 74.3054C51.8103 74.1494 52.0009 74.0714 52.2263 74.0714C52.4429 74.0714 52.6249 74.1494 52.7723 74.3054C52.9283 74.4614 53.0063 74.652 53.0063 74.8774C53.0063 75.1027 52.9283 75.2934 52.7723 75.4494C52.6249 75.6054 52.4429 75.6834 52.2263 75.6834ZM52.7983 76.8404V83.9644H51.6153V76.8404H52.7983ZM58.2855 76.7104C59.1521 76.7104 59.8541 76.9747 60.3915 77.5034C60.9288 78.0234 61.1975 78.7774 61.1975 79.7654V83.9644H60.0275V79.9344C60.0275 79.2237 59.8498 78.682 59.4945 78.3094C59.1391 77.928 58.6538 77.7374 58.0385 77.7374C57.4145 77.7374 56.9161 77.9324 56.5435 78.3224C56.1795 78.7124 55.9975 79.28 55.9975 80.0254V83.9644H54.8145V76.8404H55.9975V77.8544C56.2315 77.4904 56.5478 77.2087 56.9465 77.0094C57.3538 76.81 57.8001 76.7104 58.2855 76.7104ZM66.0679 76.7234C66.6832 76.7234 67.2206 76.8577 67.6799 77.1264C68.1479 77.395 68.4946 77.733 68.7199 78.1404V76.8404H69.9159V84.1204C69.9159 84.7704 69.7772 85.3467 69.4999 85.8494C69.2226 86.3607 68.8239 86.7594 68.3039 87.0454C67.7926 87.3314 67.1946 87.4744 66.5099 87.4744C65.5739 87.4744 64.7939 87.2534 64.1699 86.8114C63.5459 86.3694 63.1776 85.767 63.0649 85.0044H64.2349C64.3649 85.4377 64.6336 85.7844 65.0409 86.0444C65.4482 86.313 65.9379 86.4474 66.5099 86.4474C67.1599 86.4474 67.6886 86.2437 68.0959 85.8364C68.5119 85.429 68.7199 84.857 68.7199 84.1204V82.6254C68.4859 83.0414 68.1392 83.388 67.6799 83.6654C67.2206 83.9427 66.6832 84.0814 66.0679 84.0814C65.4352 84.0814 64.8589 83.9254 64.3389 83.6134C63.8276 83.3014 63.4246 82.8637 63.1299 82.3004C62.8352 81.737 62.6879 81.0957 62.6879 80.3764C62.6879 79.6484 62.8352 79.0114 63.1299 78.4654C63.4246 77.9107 63.8276 77.4817 64.3389 77.1784C64.8589 76.875 65.4352 76.7234 66.0679 76.7234ZM68.7199 80.3894C68.7199 79.852 68.6116 79.384 68.3949 78.9854C68.1782 78.5867 67.8836 78.2834 67.5109 78.0754C67.1469 77.8587 66.7439 77.7504 66.3019 77.7504C65.8599 77.7504 65.4569 77.8544 65.0929 78.0624C64.7289 78.2704 64.4386 78.5737 64.2219 78.9724C64.0052 79.371 63.8969 79.839 63.8969 80.3764C63.8969 80.9224 64.0052 81.399 64.2219 81.8064C64.4386 82.205 64.7289 82.5127 65.0929 82.7294C65.4569 82.9374 65.8599 83.0414 66.3019 83.0414C66.7439 83.0414 67.1469 82.9374 67.5109 82.7294C67.8836 82.5127 68.1782 82.205 68.3949 81.8064C68.6116 81.399 68.7199 80.9267 68.7199 80.3894ZM81.5169 76.8404L77.2269 87.3184H76.0049L77.4089 83.8864L74.5359 76.8404H75.8489L78.0849 82.6124L80.2949 76.8404H81.5169ZM85.8131 84.0814C85.1457 84.0814 84.5391 83.9297 83.9931 83.6264C83.4557 83.323 83.0311 82.894 82.7191 82.3394C82.4157 81.776 82.2641 81.126 82.2641 80.3894C82.2641 79.6614 82.4201 79.02 82.7321 78.4654C83.0527 77.902 83.4861 77.473 84.0321 77.1784C84.5781 76.875 85.1891 76.7234 85.8651 76.7234C86.5411 76.7234 87.1521 76.875 87.6981 77.1784C88.2441 77.473 88.6731 77.8977 88.9851 78.4524C89.3057 79.007 89.4661 79.6527 89.4661 80.3894C89.4661 81.126 89.3014 81.776 88.9721 82.3394C88.6514 82.894 88.2137 83.323 87.6591 83.6264C87.1044 83.9297 86.4891 84.0814 85.8131 84.0814ZM85.8131 83.0414C86.2377 83.0414 86.6364 82.9417 87.0091 82.7424C87.3817 82.543 87.6807 82.244 87.9061 81.8454C88.1401 81.4467 88.2571 80.9614 88.2571 80.3894C88.2571 79.8174 88.1444 79.332 87.9191 78.9334C87.6937 78.5347 87.3991 78.24 87.0351 78.0494C86.6711 77.85 86.2767 77.7504 85.8521 77.7504C85.4187 77.7504 85.0201 77.85 84.6561 78.0494C84.3007 78.24 84.0147 78.5347 83.7981 78.9334C83.5814 79.332 83.4731 79.8174 83.4731 80.3894C83.4731 80.97 83.5771 81.4597 83.7851 81.8584C84.0017 82.257 84.2877 82.556 84.6431 82.7554C84.9984 82.946 85.3884 83.0414 85.8131 83.0414ZM97.3395 76.8404V83.9644H96.1565V82.9114C95.9312 83.2754 95.6148 83.5614 95.2075 83.7694C94.8088 83.9687 94.3668 84.0684 93.8815 84.0684C93.3268 84.0684 92.8285 83.9557 92.3865 83.7304C91.9445 83.4964 91.5935 83.1497 91.3335 82.6904C91.0822 82.231 90.9565 81.672 90.9565 81.0134V76.8404H92.1265V80.8574C92.1265 81.5594 92.3042 82.101 92.6595 82.4824C93.0148 82.855 93.5002 83.0414 94.1155 83.0414C94.7482 83.0414 95.2465 82.8464 95.6105 82.4564C95.9745 82.0664 96.1565 81.4987 96.1565 80.7534V76.8404H97.3395ZM100.52 77.9974C100.728 77.59 101.023 77.2737 101.404 77.0484C101.794 76.823 102.266 76.7104 102.821 76.7104V77.9324H102.509C101.183 77.9324 100.52 78.6517 100.52 80.0904V83.9644H99.3369V76.8404H100.52V77.9974ZM110.174 84.0814C109.628 84.0814 109.139 83.9904 108.705 83.8084C108.272 83.6177 107.93 83.3577 107.678 83.0284C107.427 82.6904 107.288 82.3047 107.262 81.8714H108.484C108.519 82.2267 108.684 82.517 108.978 82.7424C109.282 82.9677 109.676 83.0804 110.161 83.0804C110.612 83.0804 110.967 82.9807 111.227 82.7814C111.487 82.582 111.617 82.3307 111.617 82.0274C111.617 81.7154 111.479 81.4857 111.201 81.3384C110.924 81.1824 110.495 81.0307 109.914 80.8834C109.386 80.7447 108.952 80.606 108.614 80.4674C108.285 80.32 107.999 80.1077 107.756 79.8304C107.522 79.5444 107.405 79.1717 107.405 78.7124C107.405 78.3484 107.514 78.0147 107.73 77.7114C107.947 77.408 108.255 77.1697 108.653 76.9964C109.052 76.8144 109.507 76.7234 110.018 76.7234C110.807 76.7234 111.444 76.9227 111.929 77.3214C112.415 77.72 112.675 78.266 112.709 78.9594H111.526C111.5 78.5867 111.349 78.2877 111.071 78.0624C110.803 77.837 110.439 77.7244 109.979 77.7244C109.555 77.7244 109.217 77.8154 108.965 77.9974C108.714 78.1794 108.588 78.4177 108.588 78.7124C108.588 78.9464 108.662 79.1414 108.809 79.2974C108.965 79.4447 109.156 79.566 109.381 79.6614C109.615 79.748 109.936 79.8477 110.343 79.9604C110.855 80.099 111.271 80.2377 111.591 80.3764C111.912 80.5064 112.185 80.7057 112.41 80.9744C112.644 81.243 112.766 81.594 112.774 82.0274C112.774 82.4174 112.666 82.7684 112.449 83.0804C112.233 83.3924 111.925 83.6394 111.526 83.8214C111.136 83.9947 110.686 84.0814 110.174 84.0814ZM120.944 80.1294C120.944 80.3547 120.931 80.593 120.905 80.8444H115.211C115.255 81.5464 115.493 82.0967 115.926 82.4954C116.368 82.8854 116.901 83.0804 117.525 83.0804C118.037 83.0804 118.461 82.9634 118.799 82.7294C119.146 82.4867 119.389 82.166 119.527 81.7674H120.801C120.611 82.452 120.229 83.011 119.657 83.4444C119.085 83.869 118.375 84.0814 117.525 84.0814C116.849 84.0814 116.243 83.9297 115.705 83.6264C115.177 83.323 114.761 82.894 114.457 82.3394C114.154 81.776 114.002 81.126 114.002 80.3894C114.002 79.6527 114.15 79.007 114.444 78.4524C114.739 77.8977 115.151 77.473 115.679 77.1784C116.217 76.875 116.832 76.7234 117.525 76.7234C118.201 76.7234 118.799 76.8707 119.319 77.1654C119.839 77.46 120.238 77.8674 120.515 78.3874C120.801 78.8987 120.944 79.4794 120.944 80.1294ZM119.722 79.8824C119.722 79.4317 119.623 79.046 119.423 78.7254C119.224 78.396 118.951 78.149 118.604 77.9844C118.266 77.811 117.889 77.7244 117.473 77.7244C116.875 77.7244 116.364 77.915 115.939 78.2964C115.523 78.6777 115.285 79.2064 115.224 79.8824H119.722ZM123.689 77.9974C123.897 77.59 124.192 77.2737 124.573 77.0484C124.963 76.823 125.435 76.7104 125.99 76.7104V77.9324H125.678C124.352 77.9324 123.689 78.6517 123.689 80.0904V83.9644H122.506V76.8404H123.689V77.9974ZM130.007 82.8724L132.217 76.8404H133.478L130.683 83.9644H129.305L126.51 76.8404H127.784L130.007 82.8724ZM135.254 75.6834C135.028 75.6834 134.838 75.6054 134.682 75.4494C134.526 75.2934 134.448 75.1027 134.448 74.8774C134.448 74.652 134.526 74.4614 134.682 74.3054C134.838 74.1494 135.028 74.0714 135.254 74.0714C135.47 74.0714 135.652 74.1494 135.8 74.3054C135.956 74.4614 136.034 74.652 136.034 74.8774C136.034 75.1027 135.956 75.2934 135.8 75.4494C135.652 75.6054 135.47 75.6834 135.254 75.6834ZM135.826 76.8404V83.9644H134.643V76.8404H135.826ZM137.4 80.3894C137.4 79.6527 137.547 79.0114 137.842 78.4654C138.136 77.9107 138.544 77.4817 139.064 77.1784C139.592 76.875 140.195 76.7234 140.871 76.7234C141.746 76.7234 142.465 76.9357 143.029 77.3604C143.601 77.785 143.978 78.3744 144.16 79.1284H142.886C142.764 78.695 142.526 78.3527 142.171 78.1014C141.824 77.85 141.391 77.7244 140.871 77.7244C140.195 77.7244 139.649 77.9584 139.233 78.4264C138.817 78.8857 138.609 79.54 138.609 80.3894C138.609 81.2474 138.817 81.9104 139.233 82.3784C139.649 82.8464 140.195 83.0804 140.871 83.0804C141.391 83.0804 141.824 82.959 142.171 82.7164C142.517 82.4737 142.756 82.127 142.886 81.6764H144.16C143.969 82.4044 143.588 82.9894 143.016 83.4314C142.444 83.8647 141.729 84.0814 140.871 84.0814C140.195 84.0814 139.592 83.9297 139.064 83.6264C138.544 83.323 138.136 82.894 137.842 82.3394C137.547 81.7847 137.4 81.1347 137.4 80.3894ZM152.238 80.1294C152.238 80.3547 152.225 80.593 152.199 80.8444H146.505C146.549 81.5464 146.787 82.0967 147.22 82.4954C147.662 82.8854 148.195 83.0804 148.819 83.0804C149.331 83.0804 149.755 82.9634 150.093 82.7294C150.44 82.4867 150.683 82.166 150.821 81.7674H152.095C151.905 82.452 151.523 83.011 150.951 83.4444C150.379 83.869 149.669 84.0814 148.819 84.0814C148.143 84.0814 147.537 83.9297 146.999 83.6264C146.471 83.323 146.055 82.894 145.751 82.3394C145.448 81.776 145.296 81.126 145.296 80.3894C145.296 79.6527 145.444 79.007 145.738 78.4524C146.033 77.8977 146.445 77.473 146.973 77.1784C147.511 76.875 148.126 76.7234 148.819 76.7234C149.495 76.7234 150.093 76.8707 150.613 77.1654C151.133 77.46 151.532 77.8674 151.809 78.3874C152.095 78.8987 152.238 79.4794 152.238 80.1294ZM151.016 79.8824C151.016 79.4317 150.917 79.046 150.717 78.7254C150.518 78.396 150.245 78.149 149.898 77.9844C149.56 77.811 149.183 77.7244 148.767 77.7244C148.169 77.7244 147.658 77.915 147.233 78.2964C146.817 78.6777 146.579 79.2064 146.518 79.8824H151.016ZM156.322 84.0814C155.776 84.0814 155.286 83.9904 154.853 83.8084C154.419 83.6177 154.077 83.3577 153.826 83.0284C153.574 82.6904 153.436 82.3047 153.41 81.8714H154.632C154.666 82.2267 154.831 82.517 155.126 82.7424C155.429 82.9677 155.823 83.0804 156.309 83.0804C156.759 83.0804 157.115 82.9807 157.375 82.7814C157.635 82.582 157.765 82.3307 157.765 82.0274C157.765 81.7154 157.626 81.4857 157.349 81.3384C157.071 81.1824 156.642 81.0307 156.062 80.8834C155.533 80.7447 155.1 80.606 154.762 80.4674C154.432 80.32 154.146 80.1077 153.904 79.8304C153.67 79.5444 153.553 79.1717 153.553 78.7124C153.553 78.3484 153.661 78.0147 153.878 77.7114C154.094 77.408 154.402 77.1697 154.801 76.9964C155.199 76.8144 155.654 76.7234 156.166 76.7234C156.954 76.7234 157.591 76.9227 158.077 77.3214C158.562 77.72 158.822 78.266 158.857 78.9594H157.674C157.648 78.5867 157.496 78.2877 157.219 78.0624C156.95 77.837 156.586 77.7244 156.127 77.7244C155.702 77.7244 155.364 77.8154 155.113 77.9974C154.861 78.1794 154.736 78.4177 154.736 78.7124C154.736 78.9464 154.809 79.1414 154.957 79.2974C155.113 79.4447 155.303 79.566 155.529 79.6614C155.763 79.748 156.083 79.8477 156.491 79.9604C157.002 80.099 157.418 80.2377 157.739 80.3764C158.059 80.5064 158.332 80.7057 158.558 80.9744C158.792 81.243 158.913 81.594 158.922 82.0274C158.922 82.4174 158.813 82.7684 158.597 83.0804C158.38 83.3924 158.072 83.6394 157.674 83.8214C157.284 83.9947 156.833 84.0814 156.322 84.0814ZM163.616 80.3764C163.616 79.6484 163.763 79.0114 164.058 78.4654C164.352 77.9107 164.755 77.4817 165.267 77.1784C165.787 76.875 166.363 76.7234 166.996 76.7234C167.62 76.7234 168.161 76.8577 168.621 77.1264C169.08 77.395 169.422 77.733 169.648 78.1404V76.8404H170.844V83.9644H169.648V82.6384C169.414 83.0544 169.063 83.401 168.595 83.6784C168.135 83.947 167.598 84.0814 166.983 84.0814C166.35 84.0814 165.778 83.9254 165.267 83.6134C164.755 83.3014 164.352 82.8637 164.058 82.3004C163.763 81.737 163.616 81.0957 163.616 80.3764ZM169.648 80.3894C169.648 79.852 169.539 79.384 169.323 78.9854C169.106 78.5867 168.811 78.2834 168.439 78.0754C168.075 77.8587 167.672 77.7504 167.23 77.7504C166.788 77.7504 166.385 77.8544 166.021 78.0624C165.657 78.2704 165.366 78.5737 165.15 78.9724C164.933 79.371 164.825 79.839 164.825 80.3764C164.825 80.9224 164.933 81.399 165.15 81.8064C165.366 82.205 165.657 82.5127 166.021 82.7294C166.385 82.9374 166.788 83.0414 167.23 83.0414C167.672 83.0414 168.075 82.9374 168.439 82.7294C168.811 82.5127 169.106 82.205 169.323 81.8064C169.539 81.399 169.648 80.9267 169.648 80.3894ZM176.314 76.7104C177.18 76.7104 177.882 76.9747 178.42 77.5034C178.957 78.0234 179.226 78.7774 179.226 79.7654V83.9644H178.056V79.9344C178.056 79.2237 177.878 78.682 177.523 78.3094C177.167 77.928 176.682 77.7374 176.067 77.7374C175.443 77.7374 174.944 77.9324 174.572 78.3224C174.208 78.7124 174.026 79.28 174.026 80.0254V83.9644H172.843V76.8404H174.026V77.8544C174.26 77.4904 174.576 77.2087 174.975 77.0094C175.382 76.81 175.828 76.7104 176.314 76.7104ZM180.716 80.3764C180.716 79.6484 180.864 79.0114 181.158 78.4654C181.453 77.9107 181.856 77.4817 182.367 77.1784C182.887 76.875 183.468 76.7234 184.109 76.7234C184.664 76.7234 185.18 76.8534 185.656 77.1134C186.133 77.3647 186.497 77.6984 186.748 78.1144V74.3444H187.944V83.9644H186.748V82.6254C186.514 83.05 186.168 83.401 185.708 83.6784C185.249 83.947 184.712 84.0814 184.096 84.0814C183.464 84.0814 182.887 83.9254 182.367 83.6134C181.856 83.3014 181.453 82.8637 181.158 82.3004C180.864 81.737 180.716 81.0957 180.716 80.3764ZM186.748 80.3894C186.748 79.852 186.64 79.384 186.423 78.9854C186.207 78.5867 185.912 78.2834 185.539 78.0754C185.175 77.8587 184.772 77.7504 184.33 77.7504C183.888 77.7504 183.485 77.8544 183.121 78.0624C182.757 78.2704 182.467 78.5737 182.25 78.9724C182.034 79.371 181.925 79.839 181.925 80.3764C181.925 80.9224 182.034 81.399 182.25 81.8064C182.467 82.205 182.757 82.5127 183.121 82.7294C183.485 82.9374 183.888 83.0414 184.33 83.0414C184.772 83.0414 185.175 82.9374 185.539 82.7294C185.912 82.5127 186.207 82.205 186.423 81.8064C186.64 81.399 186.748 80.9267 186.748 80.3894ZM196.945 76.7104C197.483 76.7104 197.968 76.8274 198.401 77.0614C198.835 77.2867 199.173 77.629 199.415 78.0884C199.667 78.5477 199.792 79.1067 199.792 79.7654V83.9644H198.622V79.9344C198.622 79.2237 198.445 78.682 198.089 78.3094C197.734 77.928 197.249 77.7374 196.633 77.7374C196.009 77.7374 195.511 77.9324 195.138 78.3224C194.774 78.7124 194.592 79.28 194.592 80.0254V83.9644H193.409V74.3444H194.592V77.8544C194.826 77.4904 195.147 77.2087 195.554 77.0094C195.97 76.81 196.434 76.7104 196.945 76.7104ZM208.225 80.1294C208.225 80.3547 208.212 80.593 208.186 80.8444H202.492C202.535 81.5464 202.773 82.0967 203.207 82.4954C203.649 82.8854 204.182 83.0804 204.806 83.0804C205.317 83.0804 205.742 82.9634 206.08 82.7294C206.426 82.4867 206.669 82.166 206.808 81.7674H208.082C207.891 82.452 207.51 83.011 206.938 83.4444C206.366 83.869 205.655 84.0814 204.806 84.0814C204.13 84.0814 203.523 83.9297 202.986 83.6264C202.457 83.323 202.041 82.894 201.738 82.3394C201.434 81.776 201.283 81.126 201.283 80.3894C201.283 79.6527 201.43 79.007 201.725 78.4524C202.019 77.8977 202.431 77.473 202.96 77.1784C203.497 76.875 204.112 76.7234 204.806 76.7234C205.482 76.7234 206.08 76.8707 206.6 77.1654C207.12 77.46 207.518 77.8674 207.796 78.3874C208.082 78.8987 208.225 79.4794 208.225 80.1294ZM207.003 79.8824C207.003 79.4317 206.903 79.046 206.704 78.7254C206.504 78.396 206.231 78.149 205.885 77.9844C205.547 77.811 205.17 77.7244 204.754 77.7244C204.156 77.7244 203.644 77.915 203.22 78.2964C202.804 78.6777 202.565 79.2064 202.505 79.8824H207.003ZM210.969 74.3444V83.9644H209.786V74.3444H210.969ZM214.168 78.1534C214.402 77.746 214.749 77.408 215.208 77.1394C215.676 76.862 216.218 76.7234 216.833 76.7234C217.466 76.7234 218.038 76.875 218.549 77.1784C219.069 77.4817 219.477 77.9107 219.771 78.4654C220.066 79.0114 220.213 79.6484 220.213 80.3764C220.213 81.0957 220.066 81.737 219.771 82.3004C219.477 82.8637 219.069 83.3014 218.549 83.6134C218.038 83.9254 217.466 84.0814 216.833 84.0814C216.227 84.0814 215.689 83.947 215.221 83.6784C214.762 83.401 214.411 83.0587 214.168 82.6514V87.3444H212.985V76.8404H214.168V78.1534ZM219.004 80.3764C219.004 79.839 218.896 79.371 218.679 78.9724C218.463 78.5737 218.168 78.2704 217.795 78.0624C217.431 77.8544 217.028 77.7504 216.586 77.7504C216.153 77.7504 215.75 77.8587 215.377 78.0754C215.013 78.2834 214.719 78.591 214.493 78.9984C214.277 79.397 214.168 79.8607 214.168 80.3894C214.168 80.9267 214.277 81.399 214.493 81.8064C214.719 82.205 215.013 82.5127 215.377 82.7294C215.75 82.9374 216.153 83.0414 216.586 83.0414C217.028 83.0414 217.431 82.9374 217.795 82.7294C218.168 82.5127 218.463 82.205 218.679 81.8064C218.896 81.399 219.004 80.9224 219.004 80.3764ZM222.382 75.6834C222.156 75.6834 221.966 75.6054 221.81 75.4494C221.654 75.2934 221.576 75.1027 221.576 74.8774C221.576 74.652 221.654 74.4614 221.81 74.3054C221.966 74.1494 222.156 74.0714 222.382 74.0714C222.598 74.0714 222.78 74.1494 222.928 74.3054C223.084 74.4614 223.162 74.652 223.162 74.8774C223.162 75.1027 223.084 75.2934 222.928 75.4494C222.78 75.6054 222.598 75.6834 222.382 75.6834ZM222.954 76.8404V83.9644H221.771V76.8404H222.954ZM228.441 76.7104C229.307 76.7104 230.009 76.9747 230.547 77.5034C231.084 78.0234 231.353 78.7774 231.353 79.7654V83.9644H230.183V79.9344C230.183 79.2237 230.005 78.682 229.65 78.3094C229.294 77.928 228.809 77.7374 228.194 77.7374C227.57 77.7374 227.071 77.9324 226.699 78.3224C226.335 78.7124 226.153 79.28 226.153 80.0254V83.9644H224.97V76.8404H226.153V77.8544C226.387 77.4904 226.703 77.2087 227.102 77.0094C227.509 76.81 227.955 76.7104 228.441 76.7104ZM236.223 76.7234C236.839 76.7234 237.376 76.8577 237.835 77.1264C238.303 77.395 238.65 77.733 238.875 78.1404V76.8404H240.071V84.1204C240.071 84.7704 239.933 85.3467 239.655 85.8494C239.378 86.3607 238.979 86.7594 238.459 87.0454C237.948 87.3314 237.35 87.4744 236.665 87.4744C235.729 87.4744 234.949 87.2534 234.325 86.8114C233.701 86.3694 233.333 85.767 233.22 85.0044H234.39C234.52 85.4377 234.789 85.7844 235.196 86.0444C235.604 86.313 236.093 86.4474 236.665 86.4474C237.315 86.4474 237.844 86.2437 238.251 85.8364C238.667 85.429 238.875 84.857 238.875 84.1204V82.6254C238.641 83.0414 238.295 83.388 237.835 83.6654C237.376 83.9427 236.839 84.0814 236.223 84.0814C235.591 84.0814 235.014 83.9254 234.494 83.6134C233.983 83.3014 233.58 82.8637 233.285 82.3004C232.991 81.737 232.843 81.0957 232.843 80.3764C232.843 79.6484 232.991 79.0114 233.285 78.4654C233.58 77.9107 233.983 77.4817 234.494 77.1784C235.014 76.875 235.591 76.7234 236.223 76.7234ZM238.875 80.3894C238.875 79.852 238.767 79.384 238.55 78.9854C238.334 78.5867 238.039 78.2834 237.666 78.0754C237.302 77.8587 236.899 77.7504 236.457 77.7504C236.015 77.7504 235.612 77.8544 235.248 78.0624C234.884 78.2704 234.594 78.5737 234.377 78.9724C234.161 79.371 234.052 79.839 234.052 80.3764C234.052 80.9224 234.161 81.399 234.377 81.8064C234.594 82.205 234.884 82.5127 235.248 82.7294C235.612 82.9374 236.015 83.0414 236.457 83.0414C236.899 83.0414 237.302 82.9374 237.666 82.7294C238.039 82.5127 238.334 82.205 238.55 81.8064C238.767 81.399 238.875 80.9267 238.875 80.3894ZM251.672 76.8404L247.382 87.3184H246.16L247.564 83.8864L244.691 76.8404H246.004L248.24 82.6124L250.45 76.8404H251.672ZM255.968 84.0814C255.301 84.0814 254.694 83.9297 254.148 83.6264C253.611 83.323 253.186 82.894 252.874 82.3394C252.571 81.776 252.419 81.126 252.419 80.3894C252.419 79.6614 252.575 79.02 252.887 78.4654C253.208 77.902 253.641 77.473 254.187 77.1784C254.733 76.875 255.344 76.7234 256.02 76.7234C256.696 76.7234 257.307 76.875 257.853 77.1784C258.399 77.473 258.828 77.8977 259.14 78.4524C259.461 79.007 259.621 79.6527 259.621 80.3894C259.621 81.126 259.457 81.776 259.127 82.3394C258.807 82.894 258.369 83.323 257.814 83.6264C257.26 83.9297 256.644 84.0814 255.968 84.0814ZM255.968 83.0414C256.393 83.0414 256.792 82.9417 257.164 82.7424C257.537 82.543 257.836 82.244 258.061 81.8454C258.295 81.4467 258.412 80.9614 258.412 80.3894C258.412 79.8174 258.3 79.332 258.074 78.9334C257.849 78.5347 257.554 78.24 257.19 78.0494C256.826 77.85 256.432 77.7504 256.007 77.7504C255.574 77.7504 255.175 77.85 254.811 78.0494C254.456 78.24 254.17 78.5347 253.953 78.9334C253.737 79.332 253.628 79.8174 253.628 80.3894C253.628 80.97 253.732 81.4597 253.94 81.8584C254.157 82.257 254.443 82.556 254.798 82.7554C255.154 82.946 255.544 83.0414 255.968 83.0414ZM267.495 76.8404V83.9644H266.312V82.9114C266.086 83.2754 265.77 83.5614 265.363 83.7694C264.964 83.9687 264.522 84.0684 264.037 84.0684C263.482 84.0684 262.984 83.9557 262.542 83.7304C262.1 83.4964 261.749 83.1497 261.489 82.6904C261.237 82.231 261.112 81.672 261.112 81.0134V76.8404H262.282V80.8574C262.282 81.5594 262.459 82.101 262.815 82.4824C263.17 82.855 263.655 83.0414 264.271 83.0414C264.903 83.0414 265.402 82.8464 265.766 82.4564C266.13 82.0664 266.312 81.4987 266.312 80.7534V76.8404H267.495ZM275.48 84.0814C274.934 84.0814 274.444 83.9904 274.011 83.8084C273.578 83.6177 273.235 83.3577 272.984 83.0284C272.733 82.6904 272.594 82.3047 272.568 81.8714H273.79C273.825 82.2267 273.989 82.517 274.284 82.7424C274.587 82.9677 274.982 83.0804 275.467 83.0804C275.918 83.0804 276.273 82.9807 276.533 82.7814C276.793 82.582 276.923 82.3307 276.923 82.0274C276.923 81.7154 276.784 81.4857 276.507 81.3384C276.23 81.1824 275.801 81.0307 275.22 80.8834C274.691 80.7447 274.258 80.606 273.92 80.4674C273.591 80.32 273.305 80.1077 273.062 79.8304C272.828 79.5444 272.711 79.1717 272.711 78.7124C272.711 78.3484 272.819 78.0147 273.036 77.7114C273.253 77.408 273.56 77.1697 273.959 76.9964C274.358 76.8144 274.813 76.7234 275.324 76.7234C276.113 76.7234 276.75 76.9227 277.235 77.3214C277.72 77.72 277.98 78.266 278.015 78.9594H276.832C276.806 78.5867 276.654 78.2877 276.377 78.0624C276.108 77.837 275.744 77.7244 275.285 77.7244C274.86 77.7244 274.522 77.8154 274.271 77.9974C274.02 78.1794 273.894 78.4177 273.894 78.7124C273.894 78.9464 273.968 79.1414 274.115 79.2974C274.271 79.4447 274.462 79.566 274.687 79.6614C274.921 79.748 275.242 79.8477 275.649 79.9604C276.16 80.099 276.576 80.2377 276.897 80.3764C277.218 80.5064 277.491 80.7057 277.716 80.9744C277.95 81.243 278.071 81.594 278.08 82.0274C278.08 82.4174 277.972 82.7684 277.755 83.0804C277.538 83.3924 277.231 83.6394 276.832 83.8214C276.442 83.9947 275.991 84.0814 275.48 84.0814ZM279.308 80.3894C279.308 79.6527 279.455 79.0114 279.75 78.4654C280.045 77.9107 280.452 77.4817 280.972 77.1784C281.501 76.875 282.103 76.7234 282.779 76.7234C283.654 76.7234 284.374 76.9357 284.937 77.3604C285.509 77.785 285.886 78.3744 286.068 79.1284H284.794C284.673 78.695 284.434 78.3527 284.079 78.1014C283.732 77.85 283.299 77.7244 282.779 77.7244C282.103 77.7244 281.557 77.9584 281.141 78.4264C280.725 78.8857 280.517 79.54 280.517 80.3894C280.517 81.2474 280.725 81.9104 281.141 82.3784C281.557 82.8464 282.103 83.0804 282.779 83.0804C283.299 83.0804 283.732 82.959 284.079 82.7164C284.426 82.4737 284.664 82.127 284.794 81.6764H286.068C285.877 82.4044 285.496 82.9894 284.924 83.4314C284.352 83.8647 283.637 84.0814 282.779 84.0814C282.103 84.0814 281.501 83.9297 280.972 83.6264C280.452 83.323 280.045 82.894 279.75 82.3394C279.455 81.7847 279.308 81.1347 279.308 80.3894ZM287.205 80.3764C287.205 79.6484 287.352 79.0114 287.647 78.4654C287.941 77.9107 288.344 77.4817 288.856 77.1784C289.376 76.875 289.952 76.7234 290.585 76.7234C291.209 76.7234 291.75 76.8577 292.21 77.1264C292.669 77.395 293.011 77.733 293.237 78.1404V76.8404H294.433V83.9644H293.237V82.6384C293.003 83.0544 292.652 83.401 292.184 83.6784C291.724 83.947 291.187 84.0814 290.572 84.0814C289.939 84.0814 289.367 83.9254 288.856 83.6134C288.344 83.3014 287.941 82.8637 287.647 82.3004C287.352 81.737 287.205 81.0957 287.205 80.3764ZM293.237 80.3894C293.237 79.852 293.128 79.384 292.912 78.9854C292.695 78.5867 292.4 78.2834 292.028 78.0754C291.664 77.8587 291.261 77.7504 290.819 77.7504C290.377 77.7504 289.974 77.8544 289.61 78.0624C289.246 78.2704 288.955 78.5737 288.739 78.9724C288.522 79.371 288.414 79.839 288.414 80.3764C288.414 80.9224 288.522 81.399 288.739 81.8064C288.955 82.205 289.246 82.5127 289.61 82.7294C289.974 82.9374 290.377 83.0414 290.819 83.0414C291.261 83.0414 291.664 82.9374 292.028 82.7294C292.4 82.5127 292.695 82.205 292.912 81.8064C293.128 81.399 293.237 80.9267 293.237 80.3894ZM297.615 74.3444V83.9644H296.432V74.3444H297.615ZM306.131 80.1294C306.131 80.3547 306.118 80.593 306.092 80.8444H300.398C300.441 81.5464 300.68 82.0967 301.113 82.4954C301.555 82.8854 302.088 83.0804 302.712 83.0804C303.223 83.0804 303.648 82.9634 303.986 82.7294C304.333 82.4867 304.575 82.166 304.714 81.7674H305.988C305.797 82.452 305.416 83.011 304.844 83.4444C304.272 83.869 303.561 84.0814 302.712 84.0814C302.036 84.0814 301.429 83.9297 300.892 83.6264C300.363 83.323 299.947 82.894 299.644 82.3394C299.341 81.776 299.189 81.126 299.189 80.3894C299.189 79.6527 299.336 79.007 299.631 78.4524C299.926 77.8977 300.337 77.473 300.866 77.1784C301.403 76.875 302.019 76.7234 302.712 76.7234C303.388 76.7234 303.986 76.8707 304.506 77.1654C305.026 77.46 305.425 77.8674 305.702 78.3874C305.988 78.8987 306.131 79.4794 306.131 80.1294ZM304.909 79.8824C304.909 79.4317 304.809 79.046 304.61 78.7254C304.411 78.396 304.138 78.149 303.791 77.9844C303.453 77.811 303.076 77.7244 302.66 77.7244C302.062 77.7244 301.551 77.915 301.126 78.2964C300.71 78.6777 300.472 79.2064 300.411 79.8824H304.909ZM314.057 77.8154H312.562V83.9644H311.379V77.8154H310.456V76.8404H311.379V76.3334C311.379 75.536 311.583 74.9554 311.99 74.5914C312.406 74.2187 313.069 74.0324 313.979 74.0324V75.0204C313.459 75.0204 313.091 75.1244 312.874 75.3324C312.666 75.5317 312.562 75.8654 312.562 76.3334V76.8404H314.057V77.8154ZM314.995 80.3764C314.995 79.6484 315.142 79.0114 315.437 78.4654C315.731 77.9107 316.134 77.4817 316.646 77.1784C317.166 76.875 317.742 76.7234 318.375 76.7234C318.999 76.7234 319.54 76.8577 320 77.1264C320.459 77.395 320.801 77.733 321.027 78.1404V76.8404H322.223V83.9644H321.027V82.6384C320.793 83.0544 320.442 83.401 319.974 83.6784C319.514 83.947 318.977 84.0814 318.362 84.0814C317.729 84.0814 317.157 83.9254 316.646 83.6134C316.134 83.3014 315.731 82.8637 315.437 82.3004C315.142 81.737 314.995 81.0957 314.995 80.3764ZM321.027 80.3894C321.027 79.852 320.918 79.384 320.702 78.9854C320.485 78.5867 320.19 78.2834 319.818 78.0754C319.454 77.8587 319.051 77.7504 318.609 77.7504C318.167 77.7504 317.764 77.8544 317.4 78.0624C317.036 78.2704 316.745 78.5737 316.529 78.9724C316.312 79.371 316.204 79.839 316.204 80.3764C316.204 80.9224 316.312 81.399 316.529 81.8064C316.745 82.205 317.036 82.5127 317.4 82.7294C317.764 82.9374 318.167 83.0414 318.609 83.0414C319.051 83.0414 319.454 82.9374 319.818 82.7294C320.19 82.5127 320.485 82.205 320.702 81.8064C320.918 81.399 321.027 80.9267 321.027 80.3894ZM326.744 84.0814C326.198 84.0814 325.708 83.9904 325.275 83.8084C324.841 83.6177 324.499 83.3577 324.248 83.0284C323.996 82.6904 323.858 82.3047 323.832 81.8714H325.054C325.088 82.2267 325.253 82.517 325.548 82.7424C325.851 82.9677 326.245 83.0804 326.731 83.0804C327.181 83.0804 327.537 82.9807 327.797 82.7814C328.057 82.582 328.187 82.3307 328.187 82.0274C328.187 81.7154 328.048 81.4857 327.771 81.3384C327.493 81.1824 327.064 81.0307 326.484 80.8834C325.955 80.7447 325.522 80.606 325.184 80.4674C324.854 80.32 324.568 80.1077 324.326 79.8304C324.092 79.5444 323.975 79.1717 323.975 78.7124C323.975 78.3484 324.083 78.0147 324.3 77.7114C324.516 77.408 324.824 77.1697 325.223 76.9964C325.621 76.8144 326.076 76.7234 326.588 76.7234C327.376 76.7234 328.013 76.9227 328.499 77.3214C328.984 77.72 329.244 78.266 329.279 78.9594H328.096C328.07 78.5867 327.918 78.2877 327.641 78.0624C327.372 77.837 327.008 77.7244 326.549 77.7244C326.124 77.7244 325.786 77.8154 325.535 77.9974C325.283 78.1794 325.158 78.4177 325.158 78.7124C325.158 78.9464 325.231 79.1414 325.379 79.2974C325.535 79.4447 325.725 79.566 325.951 79.6614C326.185 79.748 326.505 79.8477 326.913 79.9604C327.424 80.099 327.84 80.2377 328.161 80.3764C328.481 80.5064 328.754 80.7057 328.98 80.9744C329.214 81.243 329.335 81.594 329.344 82.0274C329.344 82.4174 329.235 82.7684 329.019 83.0804C328.802 83.3924 328.494 83.6394 328.096 83.8214C327.706 83.9947 327.255 84.0814 326.744 84.0814ZM332.457 77.8154V82.0144C332.457 82.361 332.53 82.608 332.678 82.7554C332.825 82.894 333.081 82.9634 333.445 82.9634H334.316V83.9644H333.25C332.591 83.9644 332.097 83.8127 331.768 83.5094C331.438 83.206 331.274 82.7077 331.274 82.0144V77.8154H330.351V76.8404H331.274V75.0464H332.457V76.8404H334.316V77.8154H332.457ZM342.249 80.1294C342.249 80.3547 342.236 80.593 342.21 80.8444H336.516C336.559 81.5464 336.798 82.0967 337.231 82.4954C337.673 82.8854 338.206 83.0804 338.83 83.0804C339.341 83.0804 339.766 82.9634 340.104 82.7294C340.451 82.4867 340.693 82.166 340.832 81.7674H342.106C341.915 82.452 341.534 83.011 340.962 83.4444C340.39 83.869 339.679 84.0814 338.83 84.0814C338.154 84.0814 337.547 83.9297 337.01 83.6264C336.481 83.323 336.065 82.894 335.762 82.3394C335.459 81.776 335.307 81.126 335.307 80.3894C335.307 79.6527 335.454 79.007 335.749 78.4524C336.044 77.8977 336.455 77.473 336.984 77.1784C337.521 76.875 338.137 76.7234 338.83 76.7234C339.506 76.7234 340.104 76.8707 340.624 77.1654C341.144 77.46 341.543 77.8674 341.82 78.3874C342.106 78.8987 342.249 79.4794 342.249 80.1294ZM341.027 79.8824C341.027 79.4317 340.927 79.046 340.728 78.7254C340.529 78.396 340.256 78.149 339.909 77.9844C339.571 77.811 339.194 77.7244 338.778 77.7244C338.18 77.7244 337.669 77.915 337.244 78.2964C336.828 78.6777 336.59 79.2064 336.529 79.8824H341.027ZM344.994 77.9974C345.202 77.59 345.496 77.2737 345.878 77.0484C346.268 76.823 346.74 76.7104 347.295 76.7104V77.9324H346.983C345.657 77.9324 344.994 78.6517 344.994 80.0904V83.9644H343.811V76.8404H344.994V77.9974ZM349.037 84.0424C348.812 84.0424 348.621 83.9644 348.465 83.8084C348.309 83.6524 348.231 83.4617 348.231 83.2364C348.231 83.011 348.309 82.8204 348.465 82.6644C348.621 82.5084 348.812 82.4304 349.037 82.4304C349.254 82.4304 349.436 82.5084 349.583 82.6644C349.739 82.8204 349.817 83.011 349.817 83.2364C349.817 83.4617 349.739 83.6524 349.583 83.8084C349.436 83.9644 349.254 84.0424 349.037 84.0424Z" fill="#B6B6B6"/>
<defs>
<filter id="filter0_b_327_412" x="-50" y="-50" width="580" height="230" filterUnits="userSpaceOnUse" color-interpolation-filters="sRGB">
<feFlood flood-opacity="0" result="BackgroundImageFix"/>
<feGaussianBlur in="BackgroundImageFix" stdDeviation="25"/>
<feComposite in2="SourceAlpha" operator="in" result="effect1_backgroundBlur_327_412"/>
<feBlend mode="normal" in="SourceGraphic" in2="effect1_backgroundBlur_327_412" result="shape"/>
</filter>
<linearGradient id="paint0_linear_327_412" x1="587.226" y1="239.007" x2="489.451" y2="-40.2014" gradientUnits="userSpaceOnUse">
<stop stop-color="#161616"/>
<stop offset="1" stop-color="#737373"/>
</linearGradient>
</defs>
</svg>
