<svg width="304" height="74" viewBox="0 0 304 74" fill="none" xmlns="http://www.w3.org/2000/svg">
<g filter="url(#filter0_d_327_148)">
<rect x="8" y="4" width="288" height="58" rx="29" stroke="url(#paint0_linear_327_148)" stroke-width="2" shape-rendering="crispEdges"/>
</g>
<path d="M56.201 27.151L52.767 39H51.033L48.279 29.463L45.423 39L43.706 39.017L40.391 27.151H42.04L44.624 37.198L47.48 27.151H49.214L51.934 37.164L54.535 27.151H56.201ZM66.394 33.985C66.394 34.2797 66.377 34.5913 66.343 34.92H58.897C58.9536 35.838 59.2653 36.5577 59.832 37.079C60.41 37.589 61.107 37.844 61.923 37.844C62.5916 37.844 63.147 37.691 63.589 37.385C64.0423 37.0677 64.3596 36.6483 64.541 36.127H66.207C65.9576 37.0223 65.459 37.7533 64.711 38.32C63.963 38.8753 63.0336 39.153 61.923 39.153C61.039 39.153 60.2456 38.9547 59.543 38.558C58.8516 38.1613 58.3076 37.6003 57.911 36.875C57.5143 36.1383 57.316 35.2883 57.316 34.325C57.316 33.3617 57.5086 32.5173 57.894 31.792C58.2793 31.0667 58.8176 30.5113 59.509 30.126C60.2116 29.7293 61.0163 29.531 61.923 29.531C62.807 29.531 63.589 29.7237 64.269 30.109C64.949 30.4943 65.4703 31.027 65.833 31.707C66.207 32.3757 66.394 33.135 66.394 33.985ZM64.796 33.662C64.796 33.0727 64.6656 32.5683 64.405 32.149C64.1443 31.7183 63.7873 31.3953 63.334 31.18C62.892 30.9533 62.399 30.84 61.855 30.84C61.073 30.84 60.4043 31.0893 59.849 31.588C59.305 32.0867 58.9933 32.778 58.914 33.662H64.796ZM69.983 26.42V39H68.436V26.42H69.983ZM72.0415 34.325C72.0415 33.3617 72.2342 32.523 72.6195 31.809C73.0049 31.0837 73.5375 30.5227 74.2175 30.126C74.9089 29.7293 75.6965 29.531 76.5805 29.531C77.7252 29.531 78.6659 29.8087 79.4025 30.364C80.1505 30.9193 80.6435 31.69 80.8815 32.676H79.2155C79.0569 32.1093 78.7452 31.6617 78.2805 31.333C77.8272 31.0043 77.2605 30.84 76.5805 30.84C75.6965 30.84 74.9825 31.146 74.4385 31.758C73.8945 32.3587 73.6225 33.2143 73.6225 34.325C73.6225 35.447 73.8945 36.314 74.4385 36.926C74.9825 37.538 75.6965 37.844 76.5805 37.844C77.2605 37.844 77.8272 37.6853 78.2805 37.368C78.7339 37.0507 79.0455 36.5973 79.2155 36.008H80.8815C80.6322 36.96 80.1335 37.725 79.3855 38.303C78.6375 38.8697 77.7025 39.153 76.5805 39.153C75.6965 39.153 74.9089 38.9547 74.2175 38.558C73.5375 38.1613 73.0049 37.6003 72.6195 36.875C72.2342 36.1497 72.0415 35.2997 72.0415 34.325ZM87.0087 39.153C86.1361 39.153 85.3427 38.9547 84.6287 38.558C83.9261 38.1613 83.3707 37.6003 82.9627 36.875C82.5661 36.1383 82.3677 35.2883 82.3677 34.325C82.3677 33.373 82.5717 32.5343 82.9797 31.809C83.3991 31.0723 83.9657 30.5113 84.6797 30.126C85.3937 29.7293 86.1927 29.531 87.0767 29.531C87.9607 29.531 88.7597 29.7293 89.4737 30.126C90.1877 30.5113 90.7487 31.0667 91.1567 31.792C91.5761 32.5173 91.7857 33.3617 91.7857 34.325C91.7857 35.2883 91.5704 36.1383 91.1397 36.875C90.7204 37.6003 90.1481 38.1613 89.4227 38.558C88.6974 38.9547 87.8927 39.153 87.0087 39.153ZM87.0087 37.793C87.5641 37.793 88.0854 37.6627 88.5727 37.402C89.0601 37.1413 89.4511 36.7503 89.7457 36.229C90.0517 35.7077 90.2047 35.073 90.2047 34.325C90.2047 33.577 90.0574 32.9423 89.7627 32.421C89.4681 31.8997 89.0827 31.5143 88.6067 31.265C88.1307 31.0043 87.6151 30.874 87.0597 30.874C86.4931 30.874 85.9717 31.0043 85.4957 31.265C85.0311 31.5143 84.6571 31.8997 84.3737 32.421C84.0904 32.9423 83.9487 33.577 83.9487 34.325C83.9487 35.0843 84.0847 35.7247 84.3567 36.246C84.6401 36.7673 85.0141 37.1583 85.4787 37.419C85.9434 37.6683 86.4534 37.793 87.0087 37.793ZM105.023 29.514C105.748 29.514 106.394 29.667 106.961 29.973C107.527 30.2677 107.975 30.7153 108.304 31.316C108.632 31.9167 108.797 32.6477 108.797 33.509V39H107.267V33.73C107.267 32.8007 107.034 32.0923 106.57 31.605C106.116 31.1063 105.499 30.857 104.717 30.857C103.912 30.857 103.272 31.1177 102.796 31.639C102.32 32.149 102.082 32.8913 102.082 33.866V39H100.552V33.73C100.552 32.8007 100.319 32.0923 99.8547 31.605C99.4014 31.1063 98.7837 30.857 98.0017 30.857C97.1971 30.857 96.5567 31.1177 96.0807 31.639C95.6047 32.149 95.3667 32.8913 95.3667 33.866V39H93.8197V29.684H95.3667V31.027C95.6727 30.5397 96.0807 30.1657 96.5907 29.905C97.1121 29.6443 97.6844 29.514 98.3077 29.514C99.0897 29.514 99.7811 29.6897 100.382 30.041C100.982 30.3923 101.43 30.908 101.725 31.588C101.985 30.9307 102.416 30.4207 103.017 30.058C103.617 29.6953 104.286 29.514 105.023 29.514ZM119.834 33.985C119.834 34.2797 119.817 34.5913 119.783 34.92H112.337C112.394 35.838 112.706 36.5577 113.272 37.079C113.85 37.589 114.547 37.844 115.363 37.844C116.032 37.844 116.587 37.691 117.029 37.385C117.483 37.0677 117.8 36.6483 117.981 36.127H119.647C119.398 37.0223 118.899 37.7533 118.151 38.32C117.403 38.8753 116.474 39.153 115.363 39.153C114.479 39.153 113.686 38.9547 112.983 38.558C112.292 38.1613 111.748 37.6003 111.351 36.875C110.955 36.1383 110.756 35.2883 110.756 34.325C110.756 33.3617 110.949 32.5173 111.334 31.792C111.72 31.0667 112.258 30.5113 112.949 30.126C113.652 29.7293 114.457 29.531 115.363 29.531C116.247 29.531 117.029 29.7237 117.709 30.109C118.389 30.4943 118.911 31.027 119.273 31.707C119.647 32.3757 119.834 33.135 119.834 33.985ZM118.236 33.662C118.236 33.0727 118.106 32.5683 117.845 32.149C117.585 31.7183 117.228 31.3953 116.774 31.18C116.332 30.9533 115.839 30.84 115.295 30.84C114.513 30.84 113.845 31.0893 113.289 31.588C112.745 32.0867 112.434 32.778 112.354 33.662H118.236ZM128.296 30.959V36.45C128.296 36.9033 128.392 37.2263 128.585 37.419C128.777 37.6003 129.112 37.691 129.588 37.691H130.727V39H129.333C128.471 39 127.825 38.8017 127.395 38.405C126.964 38.0083 126.749 37.3567 126.749 36.45V30.959H125.542V29.684H126.749V27.338H128.296V29.684H130.727V30.959H128.296ZM136.664 39.153C135.791 39.153 134.998 38.9547 134.284 38.558C133.581 38.1613 133.026 37.6003 132.618 36.875C132.221 36.1383 132.023 35.2883 132.023 34.325C132.023 33.373 132.227 32.5343 132.635 31.809C133.054 31.0723 133.621 30.5113 134.335 30.126C135.049 29.7293 135.848 29.531 136.732 29.531C137.616 29.531 138.415 29.7293 139.129 30.126C139.843 30.5113 140.404 31.0667 140.812 31.792C141.231 32.5173 141.441 33.3617 141.441 34.325C141.441 35.2883 141.226 36.1383 140.795 36.875C140.376 37.6003 139.803 38.1613 139.078 38.558C138.353 38.9547 137.548 39.153 136.664 39.153ZM136.664 37.793C137.219 37.793 137.741 37.6627 138.228 37.402C138.715 37.1413 139.106 36.7503 139.401 36.229C139.707 35.7077 139.86 35.073 139.86 34.325C139.86 33.577 139.713 32.9423 139.418 32.421C139.123 31.8997 138.738 31.5143 138.262 31.265C137.786 31.0043 137.27 30.874 136.715 30.874C136.148 30.874 135.627 31.0043 135.151 31.265C134.686 31.5143 134.312 31.8997 134.029 32.421C133.746 32.9423 133.604 33.577 133.604 34.325C133.604 35.0843 133.74 35.7247 134.012 36.246C134.295 36.7673 134.669 37.1583 135.134 37.419C135.599 37.6683 136.109 37.793 136.664 37.793ZM149.894 30.959V36.45C149.894 36.9033 149.991 37.2263 150.183 37.419C150.376 37.6003 150.71 37.691 151.186 37.691H152.325V39H150.931C150.07 39 149.424 38.8017 148.993 38.405C148.563 38.0083 148.347 37.3567 148.347 36.45V30.959H147.14V29.684H148.347V27.338H149.894V29.684H152.325V30.959H149.894ZM158.824 29.514C159.526 29.514 160.161 29.667 160.728 29.973C161.294 30.2677 161.736 30.7153 162.054 31.316C162.382 31.9167 162.547 32.6477 162.547 33.509V39H161.017V33.73C161.017 32.8007 160.784 32.0923 160.32 31.605C159.855 31.1063 159.22 30.857 158.416 30.857C157.6 30.857 156.948 31.112 156.461 31.622C155.985 32.132 155.747 32.8743 155.747 33.849V39H154.2V26.42H155.747V31.01C156.053 30.534 156.472 30.1657 157.005 29.905C157.549 29.6443 158.155 29.514 158.824 29.514ZM173.574 33.985C173.574 34.2797 173.557 34.5913 173.523 34.92H166.077C166.133 35.838 166.445 36.5577 167.012 37.079C167.59 37.589 168.287 37.844 169.103 37.844C169.771 37.844 170.327 37.691 170.769 37.385C171.222 37.0677 171.539 36.6483 171.721 36.127H173.387C173.137 37.0223 172.639 37.7533 171.891 38.32C171.143 38.8753 170.213 39.153 169.103 39.153C168.219 39.153 167.425 38.9547 166.723 38.558C166.031 38.1613 165.487 37.6003 165.091 36.875C164.694 36.1383 164.496 35.2883 164.496 34.325C164.496 33.3617 164.688 32.5173 165.074 31.792C165.459 31.0667 165.997 30.5113 166.689 30.126C167.391 29.7293 168.196 29.531 169.103 29.531C169.987 29.531 170.769 29.7237 171.449 30.109C172.129 30.4943 172.65 31.027 173.013 31.707C173.387 32.3757 173.574 33.135 173.574 33.985ZM171.976 33.662C171.976 33.0727 171.845 32.5683 171.585 32.149C171.324 31.7183 170.967 31.3953 170.514 31.18C170.072 30.9533 169.579 30.84 169.035 30.84C168.253 30.84 167.584 31.0893 167.029 31.588C166.485 32.0867 166.173 32.778 166.094 33.662H171.976ZM179.57 34.308C179.57 33.356 179.763 32.523 180.148 31.809C180.533 31.0837 181.06 30.5227 181.729 30.126C182.409 29.7293 183.163 29.531 183.99 29.531C184.806 29.531 185.514 29.7067 186.115 30.058C186.716 30.4093 187.163 30.8513 187.458 31.384V29.684H189.022V39H187.458V37.266C187.152 37.81 186.693 38.2633 186.081 38.626C185.48 38.9773 184.778 39.153 183.973 39.153C183.146 39.153 182.398 38.949 181.729 38.541C181.06 38.133 180.533 37.5607 180.148 36.824C179.763 36.0873 179.57 35.2487 179.57 34.308ZM187.458 34.325C187.458 33.6223 187.316 33.0103 187.033 32.489C186.75 31.9677 186.364 31.571 185.877 31.299C185.401 31.0157 184.874 30.874 184.296 30.874C183.718 30.874 183.191 31.01 182.715 31.282C182.239 31.554 181.859 31.9507 181.576 32.472C181.293 32.9933 181.151 33.6053 181.151 34.308C181.151 35.022 181.293 35.6453 181.576 36.178C181.859 36.6993 182.239 37.1017 182.715 37.385C183.191 37.657 183.718 37.793 184.296 37.793C184.874 37.793 185.401 37.657 185.877 37.385C186.364 37.1017 186.75 36.6993 187.033 36.178C187.316 35.6453 187.458 35.0277 187.458 34.325ZM199.898 29.684V39H198.351V37.623C198.056 38.099 197.643 38.473 197.11 38.745C196.589 39.0057 196.011 39.136 195.376 39.136C194.651 39.136 193.999 38.9887 193.421 38.694C192.843 38.388 192.384 37.9347 192.044 37.334C191.715 36.7333 191.551 36.0023 191.551 35.141V29.684H193.081V34.937C193.081 35.855 193.313 36.5633 193.778 37.062C194.243 37.5493 194.877 37.793 195.682 37.793C196.509 37.793 197.161 37.538 197.637 37.028C198.113 36.518 198.351 35.7757 198.351 34.801V29.684H199.898ZM204.397 30.959V36.45C204.397 36.9033 204.494 37.2263 204.686 37.419C204.879 37.6003 205.213 37.691 205.689 37.691H206.828V39H205.434C204.573 39 203.927 38.8017 203.496 38.405C203.066 38.0083 202.85 37.3567 202.85 36.45V30.959H201.643V29.684H202.85V27.338H204.397V29.684H206.828V30.959H204.397ZM212.766 39.153C211.893 39.153 211.1 38.9547 210.386 38.558C209.683 38.1613 209.128 37.6003 208.72 36.875C208.323 36.1383 208.125 35.2883 208.125 34.325C208.125 33.373 208.329 32.5343 208.737 31.809C209.156 31.0723 209.723 30.5113 210.437 30.126C211.151 29.7293 211.95 29.531 212.834 29.531C213.718 29.531 214.517 29.7293 215.231 30.126C215.945 30.5113 216.506 31.0667 216.914 31.792C217.333 32.5173 217.543 33.3617 217.543 34.325C217.543 35.2883 217.327 36.1383 216.897 36.875C216.477 37.6003 215.905 38.1613 215.18 38.558C214.454 38.9547 213.65 39.153 212.766 39.153ZM212.766 37.793C213.321 37.793 213.842 37.6627 214.33 37.402C214.817 37.1413 215.208 36.7503 215.503 36.229C215.809 35.7077 215.962 35.073 215.962 34.325C215.962 33.577 215.814 32.9423 215.52 32.421C215.225 31.8997 214.84 31.5143 214.364 31.265C213.888 31.0043 213.372 30.874 212.817 30.874C212.25 30.874 211.729 31.0043 211.253 31.265C210.788 31.5143 210.414 31.8997 210.131 32.421C209.847 32.9423 209.706 33.577 209.706 34.325C209.706 35.0843 209.842 35.7247 210.114 36.246C210.397 36.7673 210.771 37.1583 211.236 37.419C211.7 37.6683 212.21 37.793 212.766 37.793ZM221.124 31.418C221.441 30.8627 221.906 30.4093 222.518 30.058C223.13 29.7067 223.827 29.531 224.609 29.531C225.447 29.531 226.201 29.7293 226.87 30.126C227.538 30.5227 228.065 31.0837 228.451 31.809C228.836 32.523 229.029 33.356 229.029 34.308C229.029 35.2487 228.836 36.0873 228.451 36.824C228.065 37.5607 227.533 38.133 226.853 38.541C226.184 38.949 225.436 39.153 224.609 39.153C223.804 39.153 223.096 38.9773 222.484 38.626C221.883 38.2747 221.43 37.827 221.124 37.283V39H219.577V26.42H221.124V31.418ZM227.448 34.308C227.448 33.6053 227.306 32.9933 227.023 32.472C226.739 31.9507 226.354 31.554 225.867 31.282C225.391 31.01 224.864 30.874 224.286 30.874C223.719 30.874 223.192 31.0157 222.705 31.299C222.229 31.571 221.843 31.9733 221.549 32.506C221.265 33.0273 221.124 33.6337 221.124 34.325C221.124 35.0277 221.265 35.6453 221.549 36.178C221.843 36.6993 222.229 37.1017 222.705 37.385C223.192 37.657 223.719 37.793 224.286 37.793C224.864 37.793 225.391 37.657 225.867 37.385C226.354 37.1017 226.739 36.6993 227.023 36.178C227.306 35.6453 227.448 35.022 227.448 34.308ZM235.128 39.153C234.255 39.153 233.462 38.9547 232.748 38.558C232.045 38.1613 231.49 37.6003 231.082 36.875C230.685 36.1383 230.487 35.2883 230.487 34.325C230.487 33.373 230.691 32.5343 231.099 31.809C231.518 31.0723 232.085 30.5113 232.799 30.126C233.513 29.7293 234.312 29.531 235.196 29.531C236.08 29.531 236.879 29.7293 237.593 30.126C238.307 30.5113 238.868 31.0667 239.276 31.792C239.695 32.5173 239.905 33.3617 239.905 34.325C239.905 35.2883 239.69 36.1383 239.259 36.875C238.84 37.6003 238.267 38.1613 237.542 38.558C236.817 38.9547 236.012 39.153 235.128 39.153ZM235.128 37.793C235.683 37.793 236.205 37.6627 236.692 37.402C237.179 37.1413 237.57 36.7503 237.865 36.229C238.171 35.7077 238.324 35.073 238.324 34.325C238.324 33.577 238.177 32.9423 237.882 32.421C237.587 31.8997 237.202 31.5143 236.726 31.265C236.25 31.0043 235.734 30.874 235.179 30.874C234.612 30.874 234.091 31.0043 233.615 31.265C233.15 31.5143 232.776 31.8997 232.493 32.421C232.21 32.9423 232.068 33.577 232.068 34.325C232.068 35.0843 232.204 35.7247 232.476 36.246C232.759 36.7673 233.133 37.1583 233.598 37.419C234.063 37.6683 234.573 37.793 235.128 37.793ZM243.826 30.959V36.45C243.826 36.9033 243.922 37.2263 244.115 37.419C244.308 37.6003 244.642 37.691 245.118 37.691H246.257V39H244.863C244.002 39 243.356 38.8017 242.925 38.405C242.494 38.0083 242.279 37.3567 242.279 36.45V30.959H241.072V29.684H242.279V27.338H243.826V29.684H246.257V30.959H243.826ZM255.135 36.365H249.967L249.015 39H247.383L251.667 27.219H253.452L257.719 39H256.087L255.135 36.365ZM254.693 35.107L252.551 29.123L250.409 35.107H254.693ZM261.133 27.151V39H259.586V27.151H261.133Z" fill="white"/>
<defs>
<filter id="filter0_d_327_148" x="0" y="0" width="304" height="74" filterUnits="userSpaceOnUse" color-interpolation-filters="sRGB">
<feFlood flood-opacity="0" result="BackgroundImageFix"/>
<feColorMatrix in="SourceAlpha" type="matrix" values="0 0 0 0 0 0 0 0 0 0 0 0 0 0 0 0 0 0 127 0" result="hardAlpha"/>
<feOffset dy="4"/>
<feGaussianBlur stdDeviation="3.5"/>
<feComposite in2="hardAlpha" operator="out"/>
<feColorMatrix type="matrix" values="0 0 0 0 0.870588 0 0 0 0 0.388235 0 0 0 0 0.568627 0 0 0 0.5 0"/>
<feBlend mode="normal" in2="BackgroundImageFix" result="effect1_dropShadow_327_148"/>
<feBlend mode="normal" in="SourceGraphic" in2="effect1_dropShadow_327_148" result="shape"/>
</filter>
<linearGradient id="paint0_linear_327_148" x1="7" y1="33" x2="297" y2="33" gradientUnits="userSpaceOnUse">
<stop stop-color="#DE6391"/>
<stop offset="1" stop-color="#6D26A5"/>
</linearGradient>
</defs>
</svg>
