<svg width="214" height="69" viewBox="0 0 214 69" fill="none" xmlns="http://www.w3.org/2000/svg">
<g filter="url(#filter0_d_327_148)">
<rect x="8" y="4" width="198" height="53" rx="26.5" stroke="url(#paint0_linear_327_148)" stroke-width="2" shape-rendering="crispEdges"/>
</g>
<path d="M60.817 32.756C60.817 31.692 61.0323 30.761 61.463 29.963C61.8937 29.1523 62.4827 28.5253 63.23 28.082C63.99 27.6387 64.8323 27.417 65.757 27.417C66.669 27.417 67.4607 27.6133 68.132 28.006C68.8033 28.3987 69.3037 28.8927 69.633 29.488V27.588H71.381V38H69.633V36.062C69.291 36.67 68.778 37.1767 68.094 37.582C67.4227 37.9747 66.6373 38.171 65.738 38.171C64.8133 38.171 63.9773 37.943 63.23 37.487C62.4827 37.031 61.8937 36.3913 61.463 35.568C61.0323 34.7447 60.817 33.8073 60.817 32.756ZM69.633 32.775C69.633 31.9897 69.4747 31.3057 69.158 30.723C68.8413 30.1403 68.4107 29.697 67.866 29.393C67.334 29.0763 66.745 28.918 66.099 28.918C65.453 28.918 64.864 29.07 64.332 29.374C63.8 29.678 63.3757 30.1213 63.059 30.704C62.7423 31.2867 62.584 31.9707 62.584 32.756C62.584 33.554 62.7423 34.2507 63.059 34.846C63.3757 35.4287 63.8 35.8783 64.332 36.195C64.864 36.499 65.453 36.651 66.099 36.651C66.745 36.651 67.334 36.499 67.866 36.195C68.4107 35.8783 68.8413 35.4287 69.158 34.846C69.4747 34.2507 69.633 33.5603 69.633 32.775ZM83.5368 27.588V38H81.8078V36.461C81.4785 36.993 81.0162 37.411 80.4208 37.715C79.8382 38.0063 79.1922 38.152 78.4828 38.152C77.6722 38.152 76.9438 37.9873 76.2978 37.658C75.6518 37.316 75.1388 36.8093 74.7588 36.138C74.3915 35.4667 74.2078 34.6497 74.2078 33.687V27.588H75.9178V33.459C75.9178 34.485 76.1775 35.2767 76.6968 35.834C77.2162 36.3787 77.9255 36.651 78.8248 36.651C79.7495 36.651 80.4778 36.366 81.0098 35.796C81.5418 35.226 81.8078 34.3963 81.8078 33.307V27.588H83.5368ZM88.5652 29.013V35.15C88.5652 35.6567 88.6728 36.0177 88.8882 36.233C89.1035 36.4357 89.4772 36.537 90.0092 36.537H91.2822V38H89.7242C88.7615 38 88.0395 37.7783 87.5582 37.335C87.0768 36.8917 86.8362 36.1633 86.8362 35.15V29.013H85.4872V27.588H86.8362V24.966H88.5652V27.588H91.2822V29.013H88.5652ZM97.9181 38.171C96.9427 38.171 96.0561 37.9493 95.2581 37.506C94.4727 37.0627 93.8521 36.4357 93.3961 35.625C92.9527 34.8017 92.7311 33.8517 92.7311 32.775C92.7311 31.711 92.9591 30.7737 93.4151 29.963C93.8837 29.1397 94.5171 28.5127 95.3151 28.082C96.1131 27.6387 97.0061 27.417 97.9941 27.417C98.9821 27.417 99.8751 27.6387 100.673 28.082C101.471 28.5127 102.098 29.1333 102.554 29.944C103.023 30.7547 103.257 31.6983 103.257 32.775C103.257 33.8517 103.016 34.8017 102.535 35.625C102.066 36.4357 101.427 37.0627 100.616 37.506C99.8054 37.9493 98.9061 38.171 97.9181 38.171ZM97.9181 36.651C98.5387 36.651 99.1214 36.5053 99.6661 36.214C100.211 35.9227 100.648 35.4857 100.977 34.903C101.319 34.3203 101.49 33.611 101.49 32.775C101.49 31.939 101.325 31.2297 100.996 30.647C100.667 30.0643 100.236 29.6337 99.7041 29.355C99.1721 29.0637 98.5957 28.918 97.9751 28.918C97.3417 28.918 96.7591 29.0637 96.2271 29.355C95.7077 29.6337 95.2897 30.0643 94.9731 30.647C94.6564 31.2297 94.4981 31.939 94.4981 32.775C94.4981 33.6237 94.6501 34.3393 94.9541 34.922C95.2707 35.5047 95.6887 35.9417 96.2081 36.233C96.7274 36.5117 97.2974 36.651 97.9181 36.651ZM107.259 29.526C107.614 28.9053 108.133 28.3987 108.817 28.006C109.501 27.6133 110.28 27.417 111.154 27.417C112.092 27.417 112.934 27.6387 113.681 28.082C114.429 28.5253 115.018 29.1523 115.448 29.963C115.879 30.761 116.094 31.692 116.094 32.756C116.094 33.8073 115.879 34.7447 115.448 35.568C115.018 36.3913 114.422 37.031 113.662 37.487C112.915 37.943 112.079 38.171 111.154 38.171C110.255 38.171 109.463 37.9747 108.779 37.582C108.108 37.1893 107.601 36.689 107.259 36.081V38H105.53V23.94H107.259V29.526ZM114.327 32.756C114.327 31.9707 114.169 31.2867 113.852 30.704C113.536 30.1213 113.105 29.678 112.56 29.374C112.028 29.07 111.439 28.918 110.793 28.918C110.16 28.918 109.571 29.0763 109.026 29.393C108.494 29.697 108.064 30.1467 107.734 30.742C107.418 31.3247 107.259 32.0023 107.259 32.775C107.259 33.5603 107.418 34.2507 107.734 34.846C108.064 35.4287 108.494 35.8783 109.026 36.195C109.571 36.499 110.16 36.651 110.793 36.651C111.439 36.651 112.028 36.499 112.56 36.195C113.105 35.8783 113.536 35.4287 113.852 34.846C114.169 34.2507 114.327 33.554 114.327 32.756ZM122.911 38.171C121.936 38.171 121.049 37.9493 120.251 37.506C119.466 37.0627 118.845 36.4357 118.389 35.625C117.946 34.8017 117.724 33.8517 117.724 32.775C117.724 31.711 117.952 30.7737 118.408 29.963C118.877 29.1397 119.51 28.5127 120.308 28.082C121.106 27.6387 121.999 27.417 122.987 27.417C123.975 27.417 124.868 27.6387 125.666 28.082C126.464 28.5127 127.091 29.1333 127.547 29.944C128.016 30.7547 128.25 31.6983 128.25 32.775C128.25 33.8517 128.01 34.8017 127.528 35.625C127.06 36.4357 126.42 37.0627 125.609 37.506C124.799 37.9493 123.899 38.171 122.911 38.171ZM122.911 36.651C123.532 36.651 124.115 36.5053 124.659 36.214C125.204 35.9227 125.641 35.4857 125.97 34.903C126.312 34.3203 126.483 33.611 126.483 32.775C126.483 31.939 126.319 31.2297 125.989 30.647C125.66 30.0643 125.229 29.6337 124.697 29.355C124.165 29.0637 123.589 28.918 122.968 28.918C122.335 28.918 121.752 29.0637 121.22 29.355C120.701 29.6337 120.283 30.0643 119.966 30.647C119.65 31.2297 119.491 31.939 119.491 32.775C119.491 33.6237 119.643 34.3393 119.947 34.922C120.264 35.5047 120.682 35.9417 121.201 36.233C121.721 36.5117 122.291 36.651 122.911 36.651ZM132.633 29.013V35.15C132.633 35.6567 132.74 36.0177 132.956 36.233C133.171 36.4357 133.545 36.537 134.077 36.537H135.35V38H133.792C132.829 38 132.107 37.7783 131.626 37.335C131.144 36.8917 130.904 36.1633 130.904 35.15V29.013H129.555V27.588H130.904V24.966H132.633V27.588H135.35V29.013H132.633ZM145.272 35.055H139.496L138.432 38H136.608L141.396 24.833H143.391L148.16 38H146.336L145.272 35.055ZM144.778 33.649L142.384 26.961L139.99 33.649H144.778ZM151.976 24.757V38H150.247V24.757H151.976Z" fill="white"/>
<defs>
<filter id="filter0_d_327_148" x="0" y="0" width="214" height="69" filterUnits="userSpaceOnUse" color-interpolation-filters="sRGB">
<feFlood flood-opacity="0" result="BackgroundImageFix"/>
<feColorMatrix in="SourceAlpha" type="matrix" values="0 0 0 0 0 0 0 0 0 0 0 0 0 0 0 0 0 0 127 0" result="hardAlpha"/>
<feOffset dy="4"/>
<feGaussianBlur stdDeviation="3.5"/>
<feComposite in2="hardAlpha" operator="out"/>
<feColorMatrix type="matrix" values="0 0 0 0 0.870588 0 0 0 0 0.388235 0 0 0 0 0.568627 0 0 0 0.5 0"/>
<feBlend mode="normal" in2="BackgroundImageFix" result="effect1_dropShadow_327_148"/>
<feBlend mode="normal" in="SourceGraphic" in2="effect1_dropShadow_327_148" result="shape"/>
</filter>
<linearGradient id="paint0_linear_327_148" x1="7" y1="30.5" x2="207" y2="30.5" gradientUnits="userSpaceOnUse">
<stop stop-color="#DE6391"/>
<stop offset="1" stop-color="#FF5242"/>
</linearGradient>
</defs>
</svg>
